<svg xmlns="http://www.w3.org/2000/svg">
    <path fill-rule="evenodd" style="fill: rgb(0, 0, 0); stroke: none; stroke-width: none;" d="M187.54,3.00 L188.00,2.00 L188.46,3.00 L188.00,3.33 L187.54,3.00 M47.54,3.00 L48.00,2.00 L48.46,3.00 L48.00,3.33 L47.54,3.00 M7.54,3.00 L8.00,2.00 L8.46,3.00 L8.00,3.33 L7.54,3.00 M107.54,3.00 L108.00,2.00 L108.46,3.00 L108.00,3.33 L107.54,3.00 M147.54,3.00 L148.00,2.00 L148.46,3.00 L148.00,3.33 L147.54,3.00 M67.54,3.00 L68.00,2.00 L68.46,3.00 L68.00,3.33 L67.54,3.00 M167.54,3.00 L168.00,2.00 L168.46,3.00 L168.00,3.33 L167.54,3.00 M127.54,3.00 L128.00,2.00 L128.46,3.00 L128.00,3.33 L127.54,3.00 M87.54,3.00 L88.00,2.00 L88.46,3.00 L88.00,3.33 L87.54,3.00 M27.54,3.00 L28.00,2.00 L28.46,3.00 L28.00,3.33 L27.54,3.00 M42.01,51.00 L42.15,52.00 L42.48,53.00 L43.00,53.98 L43.86,55.00 L45.00,55.86 L46.00,56.32 L47.00,56.58 L48.00,56.67 L49.00,56.58 L50.00,56.32 L50.72,56.00 L52.00,55.13 L52.00,55.13 L52.99,54.00 L53.52,53.00 L53.85,52.00 L53.99,51.00 L53.96,50.00 L53.76,49.00 L53.37,48.00 L52.79,47.00 L53.16,46.00 L53.32,45.00 L53.29,44.00 L53.07,43.00 L52.04,41.00 L52.47,40.00 L52.65,39.00 L52.62,38.00 L52.36,37.00 L51.24,35.00 L51.77,34.00 L51.99,33.00 L51.94,32.00 L51.63,31.00 L50.36,29.00 L51.00,28.10 L51.32,27.00 L51.26,26.00 L50.88,25.00 L49.24,23.00 L50.00,22.39 L50.30,22.00 L50.64,21.00 L50.58,20.00 L50.08,19.00 L49.00,18.20 L48.00,18.00 L47.00,18.20 L46.00,18.91 L45.42,20.00 L45.36,21.00 L45.70,22.00 L46.00,22.39 L46.76,23.00 L45.12,25.00 L44.74,26.00 L44.68,27.00 L44.95,28.00 L45.64,29.00 L44.37,31.00 L44.06,32.00 L44.01,33.00 L44.23,34.00 L44.76,35.00 L43.64,37.00 L43.38,38.00 L43.35,39.00 L43.53,40.00 L43.96,41.00 L43.00,42.84 L42.71,44.00 L42.68,45.00 L42.84,46.00 L43.21,47.00 L42.63,48.00 L42.24,49.00 L42.04,50.00 L42.01,51.00 M122.01,51.00 L122.15,52.00 L122.48,53.00 L123.00,53.98 L123.86,55.00 L125.00,55.86 L126.00,56.32 L127.00,56.58 L128.00,56.67 L129.00,56.58 L130.00,56.32 L130.72,56.00 L132.00,55.13 L132.99,54.00 L133.52,53.00 L133.85,52.00 L133.99,51.00 L133.96,50.00 L133.76,49.00 L133.37,48.00 L132.79,47.00 L133.16,46.00 L133.32,45.00 L133.29,44.00 L133.07,43.00 L132.04,41.00 L132.47,40.00 L132.65,39.00 L132.62,38.00 L132.36,37.00 L131.24,35.00 L131.77,34.00 L131.99,33.00 L131.94,32.00 L131.63,31.00 L130.36,29.00 L131.00,28.10 L131.32,27.00 L131.26,26.00 L130.88,25.00 L129.24,23.00 L130.00,22.39 L130.30,22.00 L130.64,21.00 L130.58,20.00 L130.08,19.00 L129.00,18.20 L128.00,18.00 L127.00,18.20 L126.00,18.91 L125.42,20.00 L125.36,21.00 L125.70,22.00 L126.00,22.39 L126.76,23.00 L125.12,25.00 L124.74,26.00 L124.68,27.00 L124.95,28.00 L125.64,29.00 L124.37,31.00 L124.06,32.00 L124.01,33.00 L124.23,34.00 L124.76,35.00 L123.64,37.00 L123.38,38.00 L123.35,39.00 L123.53,40.00 L123.96,41.00 L123.00,42.84 L122.71,44.00 L122.68,45.00 L122.84,46.00 L122.84,46.00 L123.21,47.00 L122.63,48.00 L122.24,49.00 L122.04,50.00 L122.01,51.00 M86.71,9.00 L86.85,8.00 L87.00,7.82 L87.00,7.82 L88.00,7.33 L89.00,7.82 L89.15,8.00 L89.29,9.00 L89.00,9.46 L88.00,10.00 L87.00,9.46 L86.71,9.00 M2.01,51.00 L2.15,52.00 L2.48,53.00 L3.00,53.98 L3.86,55.00 L5.00,55.86 L6.00,56.32 L7.00,56.58 L8.00,56.67 L9.00,56.58 L10.00,56.32 L10.72,56.00 L12.00,55.13 L12.99,54.00 L13.52,53.00 L13.85,52.00 L13.99,51.00 L13.96,50.00 L13.76,49.00 L13.37,48.00 L12.79,47.00 L13.16,46.00 L13.32,45.00 L13.29,44.00 L13.07,43.00 L12.04,41.00 L12.47,40.00 L12.65,39.00 L12.62,38.00 L12.36,37.00 L11.24,35.00 L11.77,34.00 L11.99,33.00 L11.94,32.00 L11.63,31.00 L10.36,29.00 L11.05,28.00 L11.05,28.00 L11.32,27.00 L11.26,26.00 L10.88,25.00 L9.24,23.00 L10.00,22.39 L10.30,22.00 L10.64,21.00 L10.58,20.00 L10.08,19.00 L9.00,18.20 L8.00,18.00 L7.00,18.20 L6.00,18.91 L5.42,20.00 L5.36,21.00 L5.70,22.00 L6.00,22.39 L6.76,23.00 L5.12,25.00 L4.74,26.00 L4.68,27.00 L4.95,28.00 L5.64,29.00 L4.37,31.00 L4.06,32.00 L4.01,33.00 L4.23,34.00 L4.76,35.00 L3.64,37.00 L3.38,38.00 L3.35,39.00 L3.53,40.00 L3.96,41.00 L3.00,42.84 L2.71,44.00 L2.68,45.00 L2.84,46.00 L3.21,47.00 L2.63,48.00 L2.24,49.00 L2.04,50.00 L2.01,51.00 M66.03,15.00 L66.12,14.00 L67.00,12.94 L67.00,12.94 L68.00,12.67 L69.09,13.00 L69.88,14.00 L69.97,15.00 L69.45,16.00 L69.00,16.38 L68.00,16.67 L67.00,16.38 L66.55,16.00 L66.03,15.00 M186.71,9.00 L186.85,8.00 L187.00,7.82 L187.00,7.82 L188.00,7.33 L189.00,7.82 L189.15,8.00 L189.29,9.00 L189.00,9.46 L188.00,10.00 L187.00,9.46 L186.71,9.00 M182.01,51.00 L182.15,52.00 L182.48,53.00 L183.00,53.98 L183.86,55.00 L185.00,55.86 L186.00,56.32 L187.00,56.58 L188.00,56.67 L189.00,56.58 L190.00,56.32 L190.72,56.00 L192.00,55.13 L192.99,54.00 L193.52,53.00 L193.85,52.00 L193.99,51.00 L193.96,50.00 L193.76,49.00 L193.37,48.00 L192.79,47.00 L193.16,46.00 L193.32,45.00 L193.29,44.00 L193.07,43.00 L192.04,41.00 L192.47,40.00 L192.65,39.00 L192.62,38.00 L192.36,37.00 L191.24,35.00 L191.77,34.00 L191.99,33.00 L191.94,32.00 L191.63,31.00 L190.36,29.00 L191.00,28.10 L191.32,27.00 L191.26,26.00 L190.88,25.00 L189.24,23.00 L190.00,22.39 L190.30,22.00 L190.64,21.00 L190.58,20.00 L190.08,19.00 L189.00,18.20 L188.00,18.00 L187.00,18.20 L186.00,18.91 L185.42,20.00 L185.36,21.00 L185.70,22.00 L186.00,22.39 L186.76,23.00 L185.12,25.00 L184.74,26.00 L184.68,27.00 L184.95,28.00 L185.64,29.00 L185.02,30.00 L185.02,30.00 L184.37,31.00 L184.06,32.00 L184.01,33.00 L184.23,34.00 L184.76,35.00 L183.64,37.00 L183.38,38.00 L183.35,39.00 L183.53,40.00 L183.96,41.00 L183.00,42.84 L182.71,44.00 L182.68,45.00 L182.84,46.00 L183.21,47.00 L182.63,48.00 L182.24,49.00 L182.04,50.00 L182.01,51.00 M26.71,9.00 L26.85,8.00 L26.85,8.00 L27.00,7.82 L28.00,7.33 L29.00,7.82 L29.15,8.00 L29.29,9.00 L29.00,9.46 L28.00,10.00 L27.00,9.46 L26.71,9.00 M22.01,51.00 L22.15,52.00 L22.48,53.00 L23.00,53.98 L23.00,53.98 L23.86,55.00 L25.00,55.86 L26.00,56.32 L27.00,56.58 L28.00,56.67 L29.00,56.58 L30.00,56.32 L30.72,56.00 L32.00,55.13 L32.99,54.00 L33.52,53.00 L33.85,52.00 L33.99,51.00 L33.96,50.00 L33.76,49.00 L33.37,48.00 L32.79,47.00 L33.16,46.00 L33.32,45.00 L33.29,44.00 L33.07,43.00 L32.04,41.00 L32.47,40.00 L32.65,39.00 L32.62,38.00 L32.36,37.00 L31.24,35.00 L31.77,34.00 L31.99,33.00 L31.94,32.00 L31.63,31.00 L30.36,29.00 L31.00,28.10 L31.32,27.00 L31.26,26.00 L30.88,25.00 L29.24,23.00 L30.00,22.39 L30.30,22.00 L30.64,21.00 L30.58,20.00 L30.08,19.00 L29.00,18.20 L28.00,18.00 L27.00,18.20 L26.00,18.91 L25.42,20.00 L25.36,21.00 L25.70,22.00 L26.00,22.39 L26.76,23.00 L25.12,25.00 L24.74,26.00 L24.68,27.00 L24.95,28.00 L25.64,29.00 L24.37,31.00 L24.06,32.00 L24.01,33.00 L24.23,34.00 L24.76,35.00 L23.64,37.00 L23.38,38.00 L23.35,39.00 L23.53,40.00 L23.96,41.00 L23.00,42.84 L22.71,44.00 L22.68,45.00 L22.84,46.00 L23.21,47.00 L22.63,48.00 L22.24,49.00 L22.04,50.00 L22.01,51.00 M102.01,51.00 L102.15,52.00 L102.48,53.00 L103.00,53.98 L103.86,55.00 L105.00,55.86 L106.00,56.32 L107.00,56.58 L108.00,56.67 L109.00,56.58 L110.00,56.32 L110.72,56.00 L112.00,55.13 L112.99,54.00 L113.52,53.00 L113.85,52.00 L113.99,51.00 L113.96,50.00 L113.76,49.00 L113.37,48.00 L112.79,47.00 L113.16,46.00 L113.32,45.00 L113.29,44.00 L113.07,43.00 L112.04,41.00 L112.47,40.00 L112.65,39.00 L112.62,38.00 L112.36,37.00 L111.24,35.00 L111.77,34.00 L111.99,33.00 L111.94,32.00 L111.63,31.00 L110.36,29.00 L111.00,28.10 L111.32,27.00 L111.26,26.00 L110.88,25.00 L109.24,23.00 L110.00,22.39 L110.30,22.00 L110.64,21.00 L110.58,20.00 L110.08,19.00 L109.00,18.20 L108.00,18.00 L107.00,18.20 L106.00,18.91 L105.42,20.00 L105.36,21.00 L105.70,22.00 L106.00,22.39 L106.76,23.00 L105.12,25.00 L104.74,26.00 L104.68,27.00 L104.95,28.00 L105.64,29.00 L105.00,30.02 L105.00,30.02 L104.37,31.00 L104.06,32.00 L104.01,33.00 L104.23,34.00 L104.76,35.00 L103.64,37.00 L103.38,38.00 L103.35,39.00 L103.53,40.00 L103.96,41.00 L103.00,42.84 L102.71,44.00 L102.68,45.00 L102.84,46.00 L103.21,47.00 L102.63,48.00 L102.24,49.00 L102.04,50.00 L102.01,51.00 M82.01,51.00 L82.15,52.00 L82.48,53.00 L83.00,53.98 L83.86,55.00 L85.00,55.86 L86.00,56.32 L87.00,56.58 L88.00,56.67 L89.00,56.58 L90.00,56.32 L90.72,56.00 L92.00,55.13 L92.99,54.00 L93.52,53.00 L93.85,52.00 L93.99,51.00 L93.96,50.00 L93.76,49.00 L93.37,48.00 L92.79,47.00 L93.16,46.00 L93.32,45.00 L93.29,44.00 L93.07,43.00 L92.04,41.00 L92.47,40.00 L92.65,39.00 L92.62,38.00 L92.36,37.00 L91.24,35.00 L91.77,34.00 L91.99,33.00 L91.94,32.00 L91.63,31.00 L90.36,29.00 L91.00,28.10 L91.32,27.00 L91.26,26.00 L90.88,25.00 L89.24,23.00 L90.00,22.39 L90.30,22.00 L90.64,21.00 L90.58,20.00 L90.00,18.91 L90.00,18.91 L89.00,18.20 L88.00,18.00 L87.00,18.20 L86.00,18.91 L85.42,20.00 L85.36,21.00 L85.70,22.00 L86.00,22.39 L86.76,23.00 L85.12,25.00 L84.74,26.00 L84.68,27.00 L84.95,28.00 L85.64,29.00 L84.37,31.00 L84.06,32.00 L84.01,33.00 L84.23,34.00 L84.76,35.00 L83.64,37.00 L83.38,38.00 L83.35,39.00 L83.53,40.00 L83.96,41.00 L83.00,42.84 L82.71,44.00 L82.68,45.00 L82.84,46.00 L83.21,47.00 L82.63,48.00 L82.24,49.00 L82.04,50.00 L82.01,51.00 M106.71,9.00 L106.85,8.00 L106.85,8.00 L107.00,7.82 L108.00,7.33 L109.00,7.82 L109.15,8.00 L109.29,9.00 L109.00,9.46 L108.00,10.00 L107.00,9.46 L106.71,9.00 M142.01,51.00 L142.15,52.00 L142.48,53.00 L143.00,53.98 L143.86,55.00 L145.00,55.86 L146.00,56.32 L147.00,56.58 L148.00,56.67 L149.00,56.58 L150.00,56.32 L150.72,56.00 L152.00,55.13 L152.99,54.00 L153.52,53.00 L153.85,52.00 L153.99,51.00 L153.96,50.00 L153.76,49.00 L153.37,48.00 L152.79,47.00 L153.16,46.00 L153.32,45.00 L153.29,44.00 L153.07,43.00 L152.04,41.00 L152.47,40.00 L152.65,39.00 L152.62,38.00 L152.36,37.00 L151.24,35.00 L151.77,34.00 L151.99,33.00 L151.94,32.00 L151.63,31.00 L150.36,29.00 L151.00,28.10 L151.32,27.00 L151.26,26.00 L150.88,25.00 L149.24,23.00 L150.00,22.39 L150.30,22.00 L150.64,21.00 L150.58,20.00 L150.00,18.91 L150.00,18.91 L149.00,18.20 L148.00,18.00 L147.00,18.20 L146.00,18.91 L145.42,20.00 L145.36,21.00 L145.70,22.00 L146.00,22.39 L146.76,23.00 L145.12,25.00 L144.74,26.00 L144.68,27.00 L144.95,28.00 L145.64,29.00 L144.37,31.00 L144.06,32.00 L144.01,33.00 L144.23,34.00 L144.76,35.00 L143.64,37.00 L143.38,38.00 L143.35,39.00 L143.53,40.00 L143.96,41.00 L143.00,42.84 L142.71,44.00 L142.68,45.00 L142.84,46.00 L143.21,47.00 L142.63,48.00 L142.24,49.00 L142.04,50.00 L142.01,51.00 M186.03,15.00 L186.12,14.00 L187.00,12.94 L188.00,12.67 L189.09,13.00 L189.09,13.00 L189.88,14.00 L189.97,15.00 L189.45,16.00 L189.00,16.38 L188.00,16.67 L187.00,16.38 L186.55,16.00 L186.03,15.00 M166.71,9.00 L166.85,8.00 L167.00,7.82 L168.00,7.33 L169.00,7.82 L169.00,7.82 L169.15,8.00 L169.29,9.00 L169.00,9.46 L168.00,10.00 L167.00,9.46 L166.71,9.00 M162.01,51.00 L162.15,52.00 L162.48,53.00 L163.00,53.98 L163.86,55.00 L165.00,55.86 L166.00,56.32 L167.00,56.58 L168.00,56.67 L169.00,56.58 L170.00,56.32 L170.72,56.00 L172.00,55.13 L172.99,54.00 L173.52,53.00 L173.85,52.00 L173.99,51.00 L173.96,50.00 L173.76,49.00 L173.37,48.00 L172.79,47.00 L173.16,46.00 L173.32,45.00 L173.29,44.00 L173.07,43.00 L172.04,41.00 L172.47,40.00 L172.65,39.00 L172.62,38.00 L172.36,37.00 L171.24,35.00 L171.77,34.00 L171.99,33.00 L171.94,32.00 L171.63,31.00 L170.36,29.00 L171.05,28.00 L171.05,28.00 L171.32,27.00 L171.26,26.00 L170.88,25.00 L169.24,23.00 L170.00,22.39 L170.30,22.00 L170.64,21.00 L170.58,20.00 L170.08,19.00 L169.00,18.20 L168.00,18.00 L167.00,18.20 L166.00,18.91 L165.42,20.00 L165.36,21.00 L165.70,22.00 L166.00,22.39 L166.76,23.00 L165.12,25.00 L164.74,26.00 L164.68,27.00 L164.95,28.00 L165.64,29.00 L164.37,31.00 L164.06,32.00 L164.01,33.00 L164.23,34.00 L164.76,35.00 L163.64,37.00 L163.38,38.00 L163.35,39.00 L163.53,40.00 L163.96,41.00 L163.00,42.84 L162.71,44.00 L162.68,45.00 L162.84,46.00 L163.21,47.00 L162.63,48.00 L162.24,49.00 L162.04,50.00 L162.01,51.00 M62.01,51.00 L62.15,52.00 L62.48,53.00 L63.00,53.98 L63.86,55.00 L65.00,55.86 L66.00,56.32 L67.00,56.58 L68.00,56.67 L69.00,56.58 L70.00,56.32 L70.72,56.00 L72.00,55.13 L72.99,54.00 L73.52,53.00 L73.85,52.00 L73.99,51.00 L73.96,50.00 L73.76,49.00 L73.37,48.00 L72.79,47.00 L73.16,46.00 L73.32,45.00 L73.29,44.00 L73.07,43.00 L72.04,41.00 L72.47,40.00 L72.65,39.00 L72.62,38.00 L72.36,37.00 L71.24,35.00 L71.77,34.00 L71.99,33.00 L71.94,32.00 L71.63,31.00 L70.36,29.00 L71.00,28.10 L71.32,27.00 L71.26,26.00 L70.88,25.00 L69.24,23.00 L70.00,22.39 L70.30,22.00 L70.64,21.00 L70.58,20.00 L70.08,19.00 L69.00,18.20 L68.00,18.00 L67.00,18.20 L66.00,18.91 L65.42,20.00 L65.36,21.00 L65.70,22.00 L66.00,22.39 L66.76,23.00 L65.12,25.00 L64.74,26.00 L64.68,27.00 L64.95,28.00 L65.64,29.00 L64.37,31.00 L64.06,32.00 L64.01,33.00 L64.23,34.00 L64.76,35.00 L63.64,37.00 L63.38,38.00 L63.35,39.00 L63.53,40.00 L63.96,41.00 L63.00,42.84 L63.00,42.84 L62.71,44.00 L62.68,45.00 L62.84,46.00 L63.21,47.00 L62.63,48.00 L62.24,49.00 L62.04,50.00 L62.01,51.00 M146.03,15.00 L146.12,14.00 L147.00,12.94 L148.00,12.67 L149.00,12.94 L149.00,12.94 L149.88,14.00 L149.97,15.00 L149.45,16.00 L149.00,16.38 L148.00,16.67 L147.00,16.38 L146.55,16.00 L146.03,15.00 M126.03,15.00 L126.12,14.00 L127.00,12.94 L128.00,12.67 L129.09,13.00 L129.09,13.00 L129.88,14.00 L129.97,15.00 L129.45,16.00 L129.00,16.38 L128.00,16.67 L127.00,16.38 L126.55,16.00 L126.03,15.00 M106.03,15.00 L106.12,14.00 L107.00,12.94 L108.00,12.67 L109.00,12.94 L109.00,12.94 L109.88,14.00 L109.97,15.00 L109.45,16.00 L109.00,16.38 L108.00,16.67 L107.00,16.38 L106.55,16.00 L106.03,15.00 M6.71,9.00 L6.85,8.00 L7.00,7.82 L8.00,7.33 L9.00,7.82 L9.15,8.00 L9.15,8.00 L9.29,9.00 L9.00,9.46 L8.00,10.00 L7.00,9.46 L6.71,9.00 M6.03,15.00 L6.12,14.00 L6.91,13.00 L6.91,13.00 L8.00,12.67 L9.09,13.00 L9.88,14.00 L9.97,15.00 L9.45,16.00 L9.00,16.38 L8.00,16.67 L7.00,16.38 L6.55,16.00 L6.03,15.00 M126.71,9.00 L126.85,8.00 L126.85,8.00 L127.00,7.82 L128.00,7.33 L129.00,7.82 L129.15,8.00 L129.29,9.00 L129.00,9.46 L128.00,10.00 L127.00,9.46 L126.71,9.00 M86.03,15.00 L86.12,14.00 L87.00,12.94 L88.00,12.67 L89.00,12.94 L89.00,12.94 L89.88,14.00 L89.97,15.00 L89.45,16.00 L89.00,16.38 L88.00,16.67 L87.00,16.38 L86.55,16.00 L86.03,15.00 M146.71,9.00 L146.85,8.00 L147.00,7.82 L147.00,7.82 L148.00,7.33 L149.00,7.82 L149.15,8.00 L149.29,9.00 L149.00,9.46 L148.00,10.00 L147.00,9.46 L146.71,9.00 M46.03,15.00 L46.12,14.00 L47.00,12.94 L48.00,12.67 L49.09,13.00 L49.09,13.00 L49.88,14.00 L49.97,15.00 L49.45,16.00 L49.00,16.38 L48.00,16.67 L47.00,16.38 L46.55,16.00 L46.03,15.00 M166.03,15.00 L166.12,14.00 L167.00,12.94 L168.00,12.67 L169.09,13.00 L169.09,13.00 L169.88,14.00 L169.97,15.00 L169.45,16.00 L169.00,16.38 L168.00,16.67 L167.00,16.38 L166.55,16.00 L166.03,15.00 M66.71,9.00 L66.85,8.00 L67.00,7.82 L68.00,7.33 L69.00,7.82 L69.00,7.82 L69.15,8.00 L69.29,9.00 L69.00,9.46 L68.00,10.00 L67.00,9.46 L66.71,9.00 M46.71,9.00 L46.85,8.00 L46.85,8.00 L47.00,7.82 L48.00,7.33 L49.00,7.82 L49.15,8.00 L49.29,9.00 L49.00,9.46 L48.00,10.00 L47.00,9.46 L46.71,9.00 M26.03,15.00 L26.12,14.00 L27.00,12.94 L27.00,12.94 L28.00,12.67 L29.09,13.00 L29.88,14.00 L29.97,15.00 L29.45,16.00 L29.00,16.38 L28.00,16.67 L27.00,16.38 L26.55,16.00 L26.03,15.00 "/>

<script>
let svgs = document.children[0];
let paths = Array.from(svgs.children).filter(function(c) {
    var orig = c.style.stroke;
    c.onmouseover = function() {
        c.style.stroke = "rgb(0, 0, 255)";
    };
    c.onmouseout = function () {
        c.style.stroke = orig;
    };
    c.onclick = function () {
        svgs.removeChild()
    }
});

for (let path of paths) {
    console.log(path);
}
</script></svg>