<svg xmlns="http://www.w3.org/2000/svg">
    <path fill-rule="evenodd" style="fill: rgb(0, 0, 0); stroke: none; stroke-width: none;" d="M2.30,77.00 L2.52,78.00 L3.00,78.96 L3.97,80.00 L5.00,80.58 L6.00,80.85 L7.00,80.87 L8.00,80.64 L9.00,80.14 L10.00,79.18 L10.64,78.00 L10.87,77.00 L10.85,76.00 L10.58,75.00 L10.02,74.00 L9.00,73.02 L8.00,72.52 L7.00,72.30 L6.00,72.32 L5.00,72.58 L4.23,73.00 L3.15,74.00 L3.15,74.00 L2.58,75.00 L2.32,76.00 L2.30,77.00 M3.46,27.00 L3.78,28.00 L4.60,29.00 L5.00,29.29 L6.00,29.67 L7.00,29.70 L8.00,29.38 L8.56,29.00 L9.00,28.56 L9.38,28.00 L9.70,27.00 L9.67,26.00 L9.29,25.00 L9.00,24.60 L8.00,23.78 L7.00,23.46 L6.00,23.49 L5.00,23.87 L3.87,25.00 L3.87,25.00 L3.49,26.00 L3.46,27.00 M2.65,57.00 L2.89,58.00 L3.47,59.00 L4.00,59.56 L5.00,60.21 L6.00,60.50 L7.00,60.52 L8.00,60.27 L9.00,59.70 L9.70,59.00 L10.27,58.00 L10.52,57.00 L10.50,56.00 L10.21,55.00 L9.56,54.00 L9.00,53.47 L8.22,53.00 L7.00,52.65 L6.00,52.67 L5.00,52.96 L5.00,52.96 L4.00,53.60 L3.60,54.00 L3.00,54.92 L2.67,56.00 L2.65,57.00 M2.15,87.00 L2.37,88.00 L2.85,89.00 L3.75,90.00 L5.00,90.74 L6.00,90.99 L6.33,91.00 L7.00,91.40 L7.06,91.00 L7.06,91.00 L8.00,90.80 L9.00,90.31 L9.41,90.00 L10.31,89.00 L10.80,88.00 L11.00,87.06 L11.40,87.00 L11.00,86.33 L10.99,86.00 L10.74,85.00 L10.20,84.00 L9.20,83.00 L8.00,82.37 L7.00,82.15 L6.00,82.17 L5.00,82.43 L4.00,82.96 L3.00,83.95 L2.43,85.00 L2.17,86.00 L2.15,87.00 M3.97,17.00 L4.37,18.00 L5.00,18.68 L6.00,19.16 L7.00,19.19 L8.00,18.80 L8.80,18.00 L9.19,17.00 L9.16,16.00 L8.68,15.00 L8.00,14.37 L7.09,14.00 L7.09,14.00 L6.05,14.00 L5.00,14.48 L4.48,15.00 L4.00,16.00 L3.97,17.00 M2.86,47.00 L3.12,48.00 L3.74,49.00 L4.00,49.27 L5.00,49.97 L6.00,50.28 L7.00,50.30 L8.09,50.00 L8.09,50.00 L9.00,49.42 L9.42,49.00 L10.00,48.09 L10.30,47.00 L10.28,46.00 L10.00,45.08 L9.27,44.00 L9.00,43.74 L8.00,43.12 L7.00,42.86 L6.00,42.89 L5.00,43.20 L4.00,43.88 L3.20,45.00 L2.89,46.00 L2.86,47.00 M2.46,67.00 L2.69,68.00 L3.23,69.00 L4.00,69.81 L5.00,70.40 L6.00,70.68 L7.00,70.70 L8.00,70.47 L8.91,70.00 L10.00,68.91 L10.00,68.91 L10.47,68.00 L10.70,67.00 L10.68,66.00 L10.40,65.00 L9.81,64.00 L9.00,63.23 L8.00,62.69 L7.00,62.46 L6.00,62.48 L5.00,62.76 L4.00,63.36 L3.36,64.00 L2.76,65.00 L2.48,66.00 L2.46,67.00 M3.13,37.00 L3.41,38.00 L4.00,38.91 L5.00,39.68 L5.95,40.00 L7.00,40.04 L8.00,39.76 L9.00,39.08 L9.76,38.00 L10.00,37.15 L10.02,36.00 L10.02,36.00 L9.68,35.00 L9.00,34.09 L8.00,33.41 L7.00,33.13 L6.00,33.15 L5.00,33.49 L4.27,34.00 L3.49,35.00 L3.15,36.00 L3.13,37.00 M12.65,47.00 L12.89,48.00 L13.47,49.00 L14.00,49.56 L15.00,50.21 L16.00,50.50 L17.00,50.52 L18.00,50.27 L19.00,49.70 L19.70,49.00 L20.27,48.00 L20.52,47.00 L20.50,46.00 L20.21,45.00 L19.56,44.00 L19.00,43.47 L18.22,43.00 L17.00,42.65 L16.00,42.67 L15.00,42.96 L14.00,43.60 L13.60,44.00 L12.96,45.00 L12.96,45.00 L12.67,46.00 L12.65,47.00 M12.15,77.00 L12.37,78.00 L12.85,79.00 L13.75,80.00 L15.00,80.74 L16.00,80.99 L16.33,81.00 L17.00,81.40 L17.06,81.00 L18.00,80.80 L19.00,80.31 L19.41,80.00 L20.31,79.00 L20.80,78.00 L21.00,77.06 L21.40,77.00 L21.00,76.33 L20.99,76.00 L20.74,75.00 L20.20,74.00 L19.20,73.00 L18.00,72.37 L17.00,72.15 L16.00,72.17 L15.00,72.43 L14.00,72.96 L13.00,73.95 L13.00,73.95 L12.43,75.00 L12.17,76.00 L12.15,77.00 M12.46,57.00 L12.69,58.00 L13.23,59.00 L13.23,59.00 L14.00,59.81 L15.00,60.40 L16.00,60.68 L17.00,60.70 L18.00,60.47 L18.91,60.00 L19.94,59.00 L20.47,58.00 L20.70,57.00 L20.68,56.00 L20.40,55.00 L19.81,54.00 L19.00,53.23 L18.00,52.69 L17.00,52.46 L16.00,52.48 L15.00,52.76 L14.00,53.36 L13.36,54.00 L12.76,55.00 L12.48,56.00 L12.46,57.00 M13.97,7.00 L14.37,8.00 L15.00,8.68 L16.00,9.16 L17.00,9.19 L18.00,8.80 L18.80,8.00 L19.19,7.00 L19.16,6.00 L18.68,5.00 L18.00,4.37 L17.09,4.00 L16.05,4.00 L15.00,4.48 L14.48,5.00 L14.00,6.05 L14.00,6.05 L13.97,7.00 M12.30,67.00 L12.52,68.00 L13.00,68.96 L13.97,70.00 L15.00,70.58 L16.00,70.85 L17.00,70.87 L18.00,70.64 L19.00,70.14 L20.00,69.18 L20.64,68.00 L20.87,67.00 L20.85,66.00 L20.58,65.00 L20.02,64.00 L19.00,63.02 L18.00,62.52 L17.00,62.30 L16.00,62.32 L15.00,62.58 L14.23,63.00 L14.23,63.00 L13.15,64.00 L12.58,65.00 L12.32,66.00 L12.30,67.00 M13.46,17.00 L13.78,18.00 L14.60,19.00 L15.00,19.29 L16.00,19.67 L17.00,19.70 L18.00,19.38 L18.56,19.00 L19.00,18.56 L19.38,18.00 L19.70,17.00 L19.67,16.00 L19.29,15.00 L19.00,14.60 L18.00,13.78 L17.00,13.46 L16.00,13.49 L14.81,14.00 L14.81,14.00 L14.00,14.81 L13.49,16.00 L13.46,17.00 M12.86,37.00 L13.12,38.00 L13.74,39.00 L14.00,39.27 L15.00,39.97 L16.00,40.28 L17.00,40.30 L18.00,40.04 L19.00,39.42 L19.42,39.00 L20.00,38.09 L20.30,37.00 L20.28,36.00 L20.00,35.08 L19.27,34.00 L19.00,33.74 L18.00,33.12 L17.55,33.00 L17.55,33.00 L17.00,32.86 L16.00,32.89 L15.00,33.20 L14.00,33.88 L13.20,35.00 L12.89,36.00 L12.86,37.00 M17.53,92.00 L18.00,92.10 L18.00,92.10 L19.00,92.55 L20.00,93.37 L20.51,94.00 L21.00,94.97 L22.00,95.13 L22.52,94.00 L23.38,93.00 L24.00,92.52 L25.13,92.00 L24.97,91.00 L24.00,90.51 L23.00,89.61 L22.55,89.00 L22.10,88.00 L22.00,87.53 L21.00,87.72 L20.94,88.00 L20.47,89.00 L19.61,90.00 L19.00,90.47 L18.00,90.94 L17.72,91.00 L17.53,92.00 M13.13,27.00 L13.41,28.00 L14.00,28.91 L15.00,29.68 L15.95,30.00 L17.00,30.04 L18.00,29.76 L19.00,29.08 L19.76,28.00 L20.00,27.15 L20.02,26.00 L20.02,26.00 L19.68,25.00 L19.00,24.09 L18.00,23.41 L17.00,23.13 L16.00,23.15 L15.00,23.49 L14.27,24.00 L13.49,25.00 L13.15,26.00 L13.13,27.00 M22.15,67.00 L22.37,68.00 L22.85,69.00 L23.75,70.00 L25.00,70.74 L26.00,70.99 L26.33,71.00 L27.00,71.40 L27.06,71.00 L28.00,70.80 L29.00,70.31 L29.41,70.00 L30.31,69.00 L30.80,68.00 L31.00,67.06 L31.40,67.00 L31.00,66.33 L30.99,66.00 L30.74,65.00 L30.20,64.00 L29.20,63.00 L28.00,62.37 L27.00,62.15 L26.00,62.17 L25.00,62.43 L24.00,62.96 L22.96,64.00 L22.96,64.00 L22.43,65.00 L22.17,66.00 L22.15,67.00 M22.86,27.00 L23.12,28.00 L23.74,29.00 L24.00,29.27 L25.00,29.97 L26.00,30.28 L27.00,30.30 L28.00,30.04 L29.00,29.42 L29.42,29.00 L30.00,28.09 L30.30,27.00 L30.28,26.00 L30.00,25.08 L29.27,24.00 L29.00,23.74 L28.00,23.12 L27.00,22.86 L26.00,22.89 L25.00,23.20 L23.88,24.00 L23.88,24.00 L23.20,25.00 L22.89,26.00 L22.86,27.00 M23.13,17.00 L23.41,18.00 L24.00,18.91 L25.00,19.68 L25.95,20.00 L27.15,20.00 L27.15,20.00 L28.00,19.76 L29.00,19.08 L29.76,18.00 L30.00,17.15 L30.02,16.00 L29.68,15.00 L29.00,14.09 L28.00,13.41 L27.00,13.13 L26.00,13.15 L25.00,13.49 L24.27,14.00 L23.49,15.00 L23.15,16.00 L23.13,17.00 M27.53,82.00 L28.00,82.10 L28.00,82.10 L29.00,82.55 L30.00,83.37 L30.51,84.00 L31.00,84.97 L32.00,85.13 L32.52,84.00 L33.38,83.00 L34.00,82.52 L35.13,82.00 L34.97,81.00 L34.00,80.51 L33.00,79.61 L32.55,79.00 L32.10,78.00 L32.00,77.53 L31.00,77.72 L30.94,78.00 L30.47,79.00 L29.61,80.00 L29.00,80.47 L28.00,80.94 L27.72,81.00 L27.53,82.00 M22.65,37.00 L22.89,38.00 L23.47,39.00 L24.00,39.56 L25.00,40.21 L26.00,40.50 L27.00,40.52 L28.00,40.27 L29.00,39.70 L29.70,39.00 L30.27,38.00 L30.52,37.00 L30.50,36.00 L30.21,35.00 L29.56,34.00 L29.00,33.47 L28.22,33.00 L28.22,33.00 L27.00,32.65 L26.00,32.67 L25.00,32.96 L24.00,33.60 L23.60,34.00 L23.00,34.92 L22.67,36.00 L22.65,37.00 M22.46,47.00 L22.69,48.00 L23.23,49.00 L24.00,49.81 L25.00,50.40 L26.00,50.68 L27.00,50.70 L28.00,50.47 L28.91,50.00 L28.91,50.00 L29.94,49.00 L30.47,48.00 L30.70,47.00 L30.68,46.00 L30.40,45.00 L29.81,44.00 L29.00,43.23 L28.00,42.69 L27.00,42.46 L26.00,42.48 L25.00,42.76 L24.00,43.36 L23.36,44.00 L22.76,45.00 L22.48,46.00 L22.46,47.00 M23.46,7.00 L23.78,8.00 L24.60,9.00 L25.00,9.29 L26.00,9.67 L27.00,9.70 L28.00,9.38 L28.56,9.00 L29.00,8.56 L29.38,8.00 L29.70,7.00 L29.67,6.00 L29.29,5.00 L29.29,5.00 L29.00,4.60 L28.00,3.78 L27.00,3.46 L26.00,3.49 L25.00,3.87 L24.00,4.81 L23.49,6.00 L23.46,7.00 M22.30,57.00 L22.52,58.00 L23.00,58.96 L23.97,60.00 L25.00,60.58 L26.00,60.85 L27.00,60.87 L28.00,60.64 L29.00,60.14 L30.00,59.18 L30.00,59.18 L30.64,58.00 L30.87,57.00 L30.85,56.00 L30.58,55.00 L30.02,54.00 L29.00,53.02 L28.00,52.52 L27.00,52.30 L26.00,52.32 L25.00,52.58 L24.23,53.00 L23.15,54.00 L22.58,55.00 L22.32,56.00 L22.30,57.00 M28.06,92.00 L29.00,92.42 L30.00,93.20 L30.64,94.00 L31.00,94.70 L32.00,94.82 L32.40,94.00 L33.22,93.00 L34.00,92.40 L34.82,92.00 L34.70,91.00 L34.00,90.64 L33.00,89.79 L32.42,89.00 L32.00,88.06 L31.00,88.17 L30.61,89.00 L30.00,89.80 L30.00,89.80 L29.00,90.61 L28.17,91.00 L28.06,92.00 M32.86,17.00 L33.12,18.00 L33.74,19.00 L34.00,19.27 L35.00,19.97 L36.00,20.28 L37.00,20.30 L38.00,20.04 L39.00,19.42 L39.42,19.00 L40.00,18.09 L40.30,17.00 L40.28,16.00 L40.00,15.08 L39.27,14.00 L39.00,13.74 L38.00,13.12 L37.00,12.86 L36.00,12.89 L35.00,13.20 L33.88,14.00 L33.88,14.00 L33.20,15.00 L32.89,16.00 L32.86,17.00 M32.65,27.00 L32.89,28.00 L33.47,29.00 L34.00,29.56 L35.00,30.21 L36.00,30.50 L37.00,30.52 L38.00,30.27 L39.00,29.70 L39.70,29.00 L40.27,28.00 L40.52,27.00 L40.50,26.00 L40.21,25.00 L39.56,24.00 L39.00,23.47 L38.22,23.00 L37.00,22.65 L36.00,22.67 L34.92,23.00 L34.92,23.00 L34.00,23.60 L33.60,24.00 L33.00,24.92 L32.67,26.00 L32.65,27.00 M33.13,7.00 L33.41,8.00 L34.00,8.91 L35.00,9.68 L35.95,10.00 L37.15,10.00 L37.15,10.00 L38.00,9.76 L39.00,9.08 L39.76,8.00 L40.00,7.15 L40.02,6.00 L39.68,5.00 L39.00,4.09 L38.00,3.41 L37.00,3.13 L36.00,3.15 L35.00,3.49 L34.27,4.00 L33.49,5.00 L33.15,6.00 L33.13,7.00 M32.46,37.00 L32.69,38.00 L33.23,39.00 L34.00,39.81 L35.00,40.40 L36.00,40.68 L37.00,40.70 L38.00,40.47 L38.91,40.00 L39.94,39.00 L39.94,39.00 L40.47,38.00 L40.70,37.00 L40.68,36.00 L40.40,35.00 L39.81,34.00 L39.00,33.23 L38.00,32.69 L37.00,32.46 L36.00,32.48 L35.00,32.76 L34.00,33.36 L33.36,34.00 L32.76,35.00 L32.48,36.00 L32.46,37.00 M38.33,92.00 L39.00,92.30 L39.96,93.00 L39.96,93.00 L40.77,94.00 L41.00,94.45 L42.00,94.57 L42.28,94.00 L43.07,93.00 L44.00,92.28 L44.57,92.00 L44.45,91.00 L44.00,90.77 L43.00,89.96 L42.30,89.00 L42.00,88.33 L41.00,88.45 L40.74,89.00 L39.98,90.00 L39.00,90.74 L38.45,91.00 L38.33,92.00 M32.30,47.00 L32.52,48.00 L33.00,48.96 L33.97,50.00 L35.00,50.58 L36.00,50.85 L37.00,50.87 L38.00,50.64 L39.00,50.14 L40.00,49.18 L40.64,48.00 L40.87,47.00 L40.85,46.00 L40.58,45.00 L40.00,43.97 L40.00,43.97 L39.00,43.02 L38.00,42.52 L37.00,42.30 L36.00,42.32 L35.00,42.58 L34.23,43.00 L33.15,44.00 L32.58,45.00 L32.32,46.00 L32.30,47.00 M38.06,82.00 L39.00,82.42 L40.00,83.20 L40.64,84.00 L41.00,84.70 L42.00,84.82 L42.40,84.00 L43.22,83.00 L44.00,82.40 L44.82,82.00 L44.70,81.00 L44.00,80.64 L43.00,79.79 L42.42,79.00 L42.00,78.06 L41.00,78.17 L40.61,79.00 L40.00,79.80 L40.00,79.80 L39.00,80.61 L38.17,81.00 L38.06,82.00 M32.15,57.00 L32.37,58.00 L32.85,59.00 L33.75,60.00 L35.00,60.74 L36.00,60.99 L36.33,61.00 L37.00,61.40 L37.06,61.00 L38.00,60.80 L39.00,60.31 L39.41,60.00 L40.31,59.00 L40.80,58.00 L41.00,57.06 L41.40,57.00 L41.00,56.33 L40.99,56.00 L40.74,55.00 L40.20,54.00 L40.20,54.00 L39.20,53.00 L38.00,52.37 L37.00,52.15 L36.00,52.17 L35.00,52.43 L34.00,52.96 L33.00,53.95 L32.43,55.00 L32.17,56.00 L32.15,57.00 M42.15,47.00 L42.37,48.00 L43.00,49.20 L43.00,49.20 L43.75,50.00 L45.00,50.74 L46.00,50.99 L46.33,51.00 L47.00,51.40 L47.06,51.00 L48.00,50.80 L49.00,50.31 L49.41,50.00 L50.31,49.00 L50.80,48.00 L51.00,47.06 L51.40,47.00 L51.00,46.33 L50.99,46.00 L50.74,45.00 L50.20,44.00 L49.20,43.00 L48.00,42.37 L47.00,42.15 L46.00,42.17 L45.00,42.43 L44.00,42.96 L43.00,43.95 L42.43,45.00 L42.17,46.00 L42.15,47.00 M42.65,17.00 L42.89,18.00 L43.47,19.00 L44.00,19.56 L45.00,20.21 L46.00,20.50 L47.00,20.52 L48.00,20.27 L49.00,19.70 L49.70,19.00 L50.27,18.00 L50.52,17.00 L50.50,16.00 L50.21,15.00 L49.56,14.00 L49.00,13.47 L48.22,13.00 L47.00,12.65 L46.00,12.67 L45.00,12.96 L45.00,12.96 L44.00,13.60 L43.60,14.00 L43.00,14.92 L42.67,16.00 L42.65,17.00 M37.53,72.00 L38.00,72.10 L39.00,72.55 L40.00,73.37 L40.51,74.00 L41.00,74.97 L42.00,75.13 L42.52,74.00 L43.38,73.00 L44.00,72.52 L45.13,72.00 L45.13,72.00 L44.97,71.00 L44.00,70.51 L43.00,69.61 L42.55,69.00 L42.10,68.00 L42.00,67.53 L41.00,67.72 L40.94,68.00 L40.47,69.00 L39.61,70.00 L39.00,70.47 L38.00,70.94 L37.72,71.00 L37.53,72.00 M42.46,27.00 L42.69,28.00 L43.23,29.00 L44.00,29.81 L45.00,30.40 L46.00,30.68 L47.00,30.70 L48.00,30.47 L48.91,30.00 L48.91,30.00 L49.94,29.00 L50.47,28.00 L50.70,27.00 L50.68,26.00 L50.40,25.00 L49.81,24.00 L49.00,23.23 L48.00,22.69 L47.00,22.46 L46.00,22.48 L45.00,22.76 L44.00,23.36 L43.36,24.00 L42.76,25.00 L42.48,26.00 L42.46,27.00 M48.33,82.00 L49.00,82.30 L50.00,83.04 L50.77,84.00 L51.00,84.45 L52.00,84.57 L52.28,84.00 L53.07,83.00 L54.00,82.28 L54.57,82.00 L54.45,81.00 L54.00,80.77 L53.00,79.96 L52.30,79.00 L52.00,78.33 L51.00,78.45 L50.74,79.00 L49.98,80.00 L49.98,80.00 L49.00,80.74 L48.45,81.00 L48.33,82.00 M42.86,7.00 L43.12,8.00 L43.74,9.00 L44.00,9.27 L45.00,9.97 L46.00,10.28 L47.00,10.30 L48.00,10.04 L49.00,9.42 L49.42,9.00 L50.00,8.09 L50.00,8.09 L50.30,7.00 L50.28,6.00 L50.00,5.08 L49.27,4.00 L49.00,3.74 L48.00,3.12 L47.00,2.86 L46.00,2.89 L45.00,3.20 L44.00,3.88 L43.20,5.00 L42.89,6.00 L42.86,7.00 M48.59,92.00 L49.00,92.18 L50.10,93.00 L51.00,94.22 L52.00,94.35 L52.17,94.00 L53.00,92.93 L54.00,92.17 L54.35,92.00 L54.22,91.00 L52.91,90.00 L52.18,89.00 L52.00,88.59 L51.00,88.72 L50.87,89.00 L50.00,90.12 L50.00,90.12 L49.00,90.87 L48.72,91.00 L48.59,92.00 M42.30,37.00 L42.52,38.00 L43.00,38.96 L43.97,40.00 L45.00,40.58 L46.00,40.85 L47.00,40.87 L48.00,40.64 L49.00,40.14 L50.14,39.00 L50.14,39.00 L50.64,38.00 L50.87,37.00 L50.85,36.00 L50.58,35.00 L50.02,34.00 L49.00,33.02 L48.00,32.52 L47.00,32.30 L46.00,32.32 L45.00,32.58 L44.23,33.00 L43.15,34.00 L42.58,35.00 L42.32,36.00 L42.30,37.00 M52.65,7.00 L53.00,8.22 L53.00,8.22 L53.47,9.00 L54.00,9.56 L55.00,10.21 L56.00,10.50 L57.00,10.52 L58.00,10.27 L59.00,9.70 L59.70,9.00 L60.27,8.00 L60.52,7.00 L60.50,6.00 L60.21,5.00 L59.56,4.00 L59.00,3.47 L58.22,3.00 L57.00,2.65 L56.00,2.67 L55.00,2.96 L54.00,3.60 L53.60,4.00 L53.00,4.92 L52.67,6.00 L52.65,7.00 M48.06,72.00 L49.00,72.42 L50.00,73.20 L50.64,74.00 L51.00,74.70 L52.00,74.82 L52.40,74.00 L53.22,73.00 L54.00,72.40 L54.82,72.00 L54.70,71.00 L54.00,70.64 L53.20,70.00 L53.20,70.00 L52.42,69.00 L52.00,68.06 L51.00,68.17 L50.61,69.00 L49.80,70.00 L49.00,70.61 L48.17,71.00 L48.06,72.00 M52.30,27.00 L52.52,28.00 L53.00,28.96 L53.97,30.00 L55.00,30.58 L56.00,30.85 L57.00,30.87 L58.00,30.64 L59.00,30.14 L60.00,29.18 L60.64,28.00 L60.87,27.00 L60.85,26.00 L60.58,25.00 L60.02,24.00 L59.00,23.02 L58.00,22.52 L57.00,22.30 L56.00,22.32 L55.00,22.58 L54.00,23.15 L54.00,23.15 L53.15,24.00 L52.58,25.00 L52.32,26.00 L52.30,27.00 M47.53,62.00 L48.00,62.10 L49.00,62.55 L50.00,63.37 L50.51,64.00 L51.00,64.97 L52.00,65.13 L52.52,64.00 L53.38,63.00 L54.00,62.52 L55.00,62.03 L55.00,62.03 L55.13,62.00 L54.97,61.00 L54.00,60.51 L53.00,59.61 L52.55,59.00 L52.10,58.00 L52.00,57.53 L51.00,57.72 L50.94,58.00 L50.47,59.00 L49.61,60.00 L49.00,60.47 L48.00,60.94 L47.72,61.00 L47.53,62.00 M52.46,17.00 L52.69,18.00 L53.23,19.00 L54.00,19.81 L55.00,20.40 L56.00,20.68 L57.00,20.70 L58.00,20.47 L58.91,20.00 L58.91,20.00 L59.94,19.00 L60.47,18.00 L60.70,17.00 L60.68,16.00 L60.40,15.00 L59.81,14.00 L59.00,13.23 L58.00,12.69 L57.00,12.46 L56.00,12.48 L55.00,12.76 L54.00,13.36 L53.36,14.00 L52.76,15.00 L52.48,16.00 L52.46,17.00 M58.59,82.00 L59.00,82.18 L60.10,83.00 L61.00,84.22 L62.00,84.35 L62.17,84.00 L63.00,82.93 L64.00,82.17 L64.35,82.00 L64.22,81.00 L62.91,80.00 L62.18,79.00 L62.00,78.59 L61.00,78.72 L60.87,79.00 L60.00,80.12 L59.00,80.87 L59.00,80.87 L58.72,81.00 L58.59,82.00 M58.33,72.00 L59.00,72.30 L59.96,73.00 L59.96,73.00 L60.77,74.00 L61.00,74.45 L62.00,74.57 L62.28,74.00 L63.07,73.00 L64.00,72.28 L64.57,72.00 L64.45,71.00 L64.00,70.77 L63.00,69.96 L62.30,69.00 L62.00,68.33 L61.00,68.45 L60.74,69.00 L59.98,70.00 L59.00,70.74 L58.45,71.00 L58.33,72.00 M52.15,37.00 L52.37,38.00 L52.85,39.00 L53.75,40.00 L55.00,40.74 L56.00,40.99 L56.33,41.00 L57.00,41.40 L57.06,41.00 L58.00,40.80 L59.00,40.31 L59.41,40.00 L60.31,39.00 L60.80,38.00 L61.00,37.06 L61.40,37.00 L61.00,36.33 L60.99,36.00 L60.74,35.00 L60.00,33.75 L60.00,33.75 L59.20,33.00 L58.00,32.37 L57.00,32.15 L56.00,32.17 L55.00,32.43 L54.00,32.96 L53.00,33.95 L52.43,35.00 L52.17,36.00 L52.15,37.00 M58.84,92.00 L60.23,93.00 L61.01,94.00 L62.00,94.13 L63.00,92.81 L64.13,92.00 L64.00,91.00 L62.78,90.00 L62.78,90.00 L62.00,88.84 L60.99,89.00 L60.00,90.25 L58.97,91.00 L58.84,92.00 M58.06,62.00 L59.00,62.42 L60.00,63.20 L60.64,64.00 L61.00,64.70 L62.00,64.82 L62.40,64.00 L63.00,63.22 L63.00,63.22 L64.00,62.40 L64.82,62.00 L64.70,61.00 L64.00,60.64 L63.00,59.79 L62.42,59.00 L62.00,58.06 L61.00,58.17 L60.61,59.00 L59.80,60.00 L59.00,60.61 L58.17,61.00 L58.06,62.00 M57.53,52.00 L58.00,52.10 L59.00,52.55 L60.00,53.37 L60.51,54.00 L61.00,54.97 L62.00,55.13 L62.52,54.00 L63.38,53.00 L64.00,52.52 L65.00,52.03 L65.00,52.03 L65.13,52.00 L64.97,51.00 L64.00,50.51 L63.00,49.61 L62.55,49.00 L62.10,48.00 L62.00,47.53 L61.00,47.72 L60.94,48.00 L60.47,49.00 L59.61,50.00 L59.00,50.47 L58.00,50.94 L57.72,51.00 L57.53,52.00 M68.84,82.00 L70.23,83.00 L71.01,84.00 L72.00,84.13 L73.00,82.81 L74.13,82.00 L74.00,81.00 L72.78,80.00 L72.00,78.84 L70.99,79.00 L70.00,80.25 L69.00,80.99 L69.00,80.99 L68.84,82.00 M62.46,7.00 L62.69,8.00 L63.23,9.00 L64.00,9.81 L65.00,10.40 L66.00,10.68 L67.00,10.70 L68.00,10.47 L68.91,10.00 L70.00,8.91 L70.00,8.91 L70.47,8.00 L70.70,7.00 L70.68,6.00 L70.40,5.00 L69.81,4.00 L69.00,3.23 L68.00,2.69 L67.00,2.46 L66.00,2.48 L65.00,2.76 L64.00,3.36 L63.36,4.00 L62.76,5.00 L62.48,6.00 L62.46,7.00 M68.33,62.00 L69.00,62.30 L70.00,63.04 L70.00,63.04 L70.77,64.00 L71.00,64.45 L72.00,64.57 L72.28,64.00 L73.07,63.00 L74.00,62.28 L74.57,62.00 L74.45,61.00 L74.00,60.77 L73.00,59.96 L72.30,59.00 L72.00,58.33 L71.00,58.45 L70.74,59.00 L69.98,60.00 L69.00,60.74 L68.45,61.00 L68.33,62.00 M62.30,17.00 L62.52,18.00 L63.00,18.96 L63.97,20.00 L65.00,20.58 L66.00,20.85 L67.00,20.87 L68.00,20.64 L69.00,20.14 L70.14,19.00 L70.14,19.00 L70.64,18.00 L70.87,17.00 L70.85,16.00 L70.58,15.00 L70.02,14.00 L69.00,13.02 L68.00,12.52 L67.00,12.30 L66.00,12.32 L65.00,12.58 L64.23,13.00 L63.15,14.00 L62.58,15.00 L62.32,16.00 L62.30,17.00 M62.15,27.00 L62.37,28.00 L62.85,29.00 L63.75,30.00 L65.00,30.74 L66.00,30.99 L66.33,31.00 L67.00,31.40 L67.06,31.00 L68.00,30.80 L69.00,30.31 L69.41,30.00 L70.31,29.00 L70.80,28.00 L71.00,27.06 L71.00,27.06 L71.40,27.00 L71.00,26.33 L70.99,26.00 L70.74,25.00 L70.20,24.00 L69.20,23.00 L68.00,22.37 L67.00,22.15 L66.00,22.17 L65.00,22.43 L64.00,22.96 L63.00,23.95 L62.43,25.00 L62.17,26.00 L62.15,27.00 M67.53,42.00 L68.00,42.10 L69.00,42.55 L70.00,43.37 L70.51,44.00 L71.00,44.97 L72.00,45.13 L72.00,45.13 L72.52,44.00 L73.38,43.00 L74.00,42.52 L75.13,42.00 L74.97,41.00 L74.00,40.51 L73.00,39.61 L72.55,39.00 L72.10,38.00 L72.00,37.53 L71.00,37.72 L70.94,38.00 L70.47,39.00 L69.61,40.00 L69.00,40.47 L68.00,40.94 L67.72,41.00 L67.53,42.00 M68.59,72.00 L69.00,72.18 L70.10,73.00 L71.00,74.22 L72.00,74.35 L72.17,74.00 L72.17,74.00 L73.00,72.93 L74.00,72.17 L74.35,72.00 L74.22,71.00 L72.91,70.00 L72.18,69.00 L72.00,68.59 L71.00,68.72 L70.87,69.00 L70.00,70.12 L69.00,70.87 L68.72,71.00 L68.59,72.00 M69.05,92.00 L70.00,92.67 L71.00,93.84 L72.00,93.94 L73.00,92.70 L73.94,92.00 L73.84,91.00 L72.67,90.00 L72.67,90.00 L72.00,89.05 L71.00,89.15 L70.38,90.00 L70.00,90.38 L69.15,91.00 L69.05,92.00 M68.06,52.00 L69.00,52.42 L70.00,53.20 L70.64,54.00 L71.00,54.70 L72.00,54.82 L72.40,54.00 L73.22,53.00 L73.22,53.00 L74.00,52.40 L74.82,52.00 L74.70,51.00 L74.00,50.64 L73.00,49.79 L72.42,49.00 L72.00,48.06 L71.00,48.17 L70.61,49.00 L69.80,50.00 L69.00,50.61 L68.17,51.00 L68.06,52.00 M72.15,17.00 L72.37,18.00 L72.85,19.00 L73.75,20.00 L75.00,20.74 L76.00,20.99 L76.33,21.00 L77.00,21.40 L77.06,21.00 L77.06,21.00 L78.00,20.80 L79.00,20.31 L79.41,20.00 L80.31,19.00 L80.80,18.00 L81.00,17.06 L81.40,17.00 L81.00,16.33 L80.99,16.00 L80.74,15.00 L80.20,14.00 L79.20,13.00 L78.00,12.37 L77.00,12.15 L76.00,12.17 L75.00,12.43 L74.00,12.96 L73.00,13.95 L72.43,15.00 L72.17,16.00 L72.15,17.00 M72.30,7.00 L72.52,8.00 L73.00,8.96 L73.97,10.00 L75.00,10.58 L76.00,10.85 L77.00,10.87 L78.00,10.64 L79.00,10.14 L80.00,9.18 L80.64,8.00 L80.87,7.00 L80.85,6.00 L80.58,5.00 L80.02,4.00 L78.96,3.00 L78.96,3.00 L78.00,2.52 L77.00,2.30 L76.00,2.32 L75.00,2.58 L74.23,3.00 L73.15,4.00 L72.58,5.00 L72.32,6.00 L72.30,7.00 M78.33,52.00 L79.00,52.30 L80.00,53.04 L80.77,54.00 L81.00,54.45 L82.00,54.57 L82.28,54.00 L83.07,53.00 L84.00,52.28 L84.57,52.00 L84.45,51.00 L84.00,50.77 L83.00,49.96 L82.30,49.00 L82.00,48.33 L81.00,48.45 L80.74,49.00 L80.00,49.98 L80.00,49.98 L79.00,50.74 L78.45,51.00 L78.33,52.00 M78.84,72.00 L80.23,73.00 L81.01,74.00 L82.00,74.13 L83.00,72.81 L84.13,72.00 L84.00,71.00 L82.78,70.00 L82.00,68.84 L80.99,69.00 L80.99,69.00 L80.00,70.25 L78.97,71.00 L78.84,72.00 M78.06,42.00 L79.00,42.42 L80.00,43.20 L80.64,44.00 L81.00,44.70 L82.00,44.82 L82.40,44.00 L83.00,43.22 L83.00,43.22 L84.00,42.40 L84.82,42.00 L84.70,41.00 L84.00,40.64 L83.00,39.79 L82.42,39.00 L82.00,38.06 L81.00,38.17 L80.61,39.00 L79.80,40.00 L79.00,40.61 L78.17,41.00 L78.06,42.00 M79.21,92.00 L80.00,92.56 L80.46,93.00 L81.00,93.69 L82.00,93.80 L82.59,93.00 L83.00,92.59 L83.80,92.00 L83.69,91.00 L83.00,90.46 L82.56,90.00 L82.00,89.21 L81.00,89.31 L80.50,90.00 L80.00,90.50 L79.31,91.00 L79.21,92.00 M78.59,62.00 L79.00,62.18 L80.10,63.00 L81.00,64.22 L82.00,64.35 L82.17,64.00 L83.00,62.93 L84.00,62.17 L84.35,62.00 L84.22,61.00 L84.22,61.00 L82.91,60.00 L82.18,59.00 L82.00,58.59 L81.00,58.72 L80.87,59.00 L80.00,60.12 L79.00,60.87 L78.72,61.00 L78.59,62.00 M77.53,32.00 L78.00,32.10 L79.00,32.55 L80.00,33.37 L80.51,34.00 L81.00,34.97 L82.00,35.13 L82.52,34.00 L83.38,33.00 L84.00,32.52 L85.00,32.03 L85.00,32.03 L85.13,32.00 L84.97,31.00 L84.00,30.51 L83.00,29.61 L82.55,29.00 L82.10,28.00 L82.00,27.53 L81.00,27.72 L80.94,28.00 L80.47,29.00 L79.61,30.00 L79.00,30.47 L78.00,30.94 L77.72,31.00 L77.53,32.00 M88.33,42.00 L89.00,42.30 L90.00,43.04 L90.00,43.04 L90.77,44.00 L91.00,44.45 L92.00,44.57 L92.28,44.00 L93.07,43.00 L94.00,42.28 L94.57,42.00 L94.45,41.00 L94.00,40.77 L93.00,39.96 L92.30,39.00 L92.00,38.33 L91.00,38.45 L90.74,39.00 L89.98,40.00 L89.00,40.74 L88.45,41.00 L88.33,42.00 M89.36,92.00 L90.00,92.45 L90.57,93.00 L91.00,93.55 L92.00,93.66 L92.49,93.00 L93.00,92.49 L93.66,92.00 L93.55,91.00 L93.00,90.57 L92.45,90.00 L92.00,89.36 L91.00,89.47 L90.61,90.00 L90.00,90.61 L89.47,91.00 L89.36,92.00 M82.15,7.00 L82.37,8.00 L82.85,9.00 L83.75,10.00 L85.00,10.74 L86.00,10.99 L86.33,11.00 L87.00,11.40 L87.06,11.00 L88.00,10.80 L89.00,10.31 L89.41,10.00 L90.31,9.00 L90.80,8.00 L91.00,7.06 L91.40,7.00 L91.00,6.33 L91.00,6.33 L90.99,6.00 L90.74,5.00 L90.20,4.00 L89.20,3.00 L88.00,2.37 L87.00,2.15 L86.00,2.17 L85.00,2.43 L84.00,2.96 L83.00,3.95 L82.43,5.00 L82.17,6.00 L82.15,7.00 M88.84,62.00 L90.23,63.00 L91.01,64.00 L91.01,64.00 L92.00,64.13 L93.00,62.81 L94.13,62.00 L94.00,61.00 L92.78,60.00 L92.00,58.84 L90.99,59.00 L90.00,60.25 L88.97,61.00 L88.84,62.00 M87.53,22.00 L88.00,22.10 L89.00,22.55 L90.00,23.37 L90.51,24.00 L91.00,24.97 L92.00,25.13 L92.00,25.13 L92.52,24.00 L93.38,23.00 L94.00,22.52 L95.13,22.00 L94.97,21.00 L94.00,20.51 L93.00,19.61 L92.55,19.00 L92.10,18.00 L92.00,17.53 L91.00,17.72 L90.94,18.00 L90.47,19.00 L89.61,20.00 L89.00,20.47 L88.00,20.94 L87.72,21.00 L87.53,22.00 M89.05,72.00 L90.00,72.67 L91.00,73.84 L92.00,73.94 L93.00,72.70 L93.94,72.00 L93.84,71.00 L92.67,70.00 L92.00,69.05 L91.00,69.15 L90.38,70.00 L90.00,70.38 L89.15,71.00 L89.05,72.00 M88.59,52.00 L89.00,52.18 L90.10,53.00 L91.00,54.22 L92.00,54.35 L92.17,54.00 L93.00,52.93 L94.00,52.17 L94.35,52.00 L94.22,51.00 L92.91,50.00 L92.18,49.00 L92.18,49.00 L92.00,48.59 L91.00,48.72 L90.87,49.00 L90.00,50.12 L89.00,50.87 L88.72,51.00 L88.59,52.00 M89.21,82.00 L90.00,82.56 L90.46,83.00 L91.00,83.69 L92.00,83.80 L92.59,83.00 L93.00,82.59 L93.80,82.00 L93.69,81.00 L93.00,80.46 L92.56,80.00 L92.00,79.21 L91.00,79.31 L90.50,80.00 L90.00,80.50 L89.31,81.00 L89.21,82.00 M88.06,32.00 L89.00,32.42 L90.00,33.20 L90.64,34.00 L91.00,34.70 L92.00,34.82 L92.40,34.00 L93.22,33.00 L94.00,32.40 L94.82,32.00 L94.70,31.00 L94.00,30.64 L93.20,30.00 L93.20,30.00 L92.42,29.00 L92.00,28.06 L91.00,28.17 L90.61,29.00 L89.80,30.00 L89.00,30.61 L88.17,31.00 L88.06,32.00 M2.02,97.00 L2.23,98.00 L2.70,99.00 L3.00,99.41 L4.00,100.36 L5.00,100.88 L6.00,101.13 L7.00,101.15 L8.00,100.94 L9.00,100.47 L9.61,100.00 L10.47,99.00 L10.94,98.00 L11.00,97.72 L12.00,97.53 L12.10,98.00 L12.55,99.00 L13.00,99.61 L14.00,100.51 L14.97,101.00 L16.00,101.25 L17.00,101.27 L18.00,101.07 L19.00,100.61 L19.80,100.00 L20.61,99.00 L21.00,98.17 L22.00,98.06 L22.42,99.00 L23.00,99.79 L24.00,100.64 L24.70,101.00 L26.00,101.37 L27.00,101.38 L28.00,101.19 L29.00,100.74 L29.98,100.00 L30.74,99.00 L31.00,98.45 L32.00,98.33 L32.30,99.00 L33.00,99.96 L34.00,100.77 L35.00,101.24 L36.00,101.47 L37.00,101.49 L38.00,101.30 L39.00,100.87 L40.00,100.12 L40.87,99.00 L41.00,98.72 L42.00,98.59 L42.18,99.00 L42.91,100.00 L44.00,100.89 L45.00,101.35 L46.00,101.57 L47.00,101.59 L48.00,101.40 L48.97,101.00 L50.00,100.25 L50.99,99.00 L52.00,98.84 L52.78,100.00 L54.00,101.00 L55.00,101.45 L56.00,101.67 L57.00,101.68 L58.00,101.50 L59.00,101.09 L60.00,100.38 L60.38,100.00 L61.00,99.15 L62.00,99.05 L62.67,100.00 L63.84,101.00 L65.00,101.54 L66.00,101.76 L67.00,101.77 L68.00,101.59 L69.00,101.19 L70.00,100.50 L70.50,100.00 L71.00,99.31 L72.00,99.21 L72.56,100.00 L73.00,100.46 L73.69,101.00 L75.00,101.63 L76.00,101.84 L77.00,101.86 L78.00,101.68 L79.00,101.29 L80.00,100.61 L80.61,100.00 L81.00,99.47 L82.00,99.36 L82.45,100.00 L83.00,100.57 L84.00,101.29 L85.00,101.71 L86.00,101.92 L87.00,101.94 L88.00,101.76 L89.00,101.38 L90.00,100.72 L90.72,100.00 L91.00,99.61 L92.00,99.50 L92.35,100.00 L93.00,100.68 L94.00,101.38 L95.00,101.80 L96.00,102.00 L97.00,102.02 L98.00,101.84 L99.00,101.46 L99.75,101.00 L100.82,100.00 L100.82,100.00 L101.46,99.00 L101.84,98.00 L102.00,97.10 L102.00,96.00 L101.80,95.00 L101.38,94.00 L101.00,93.42 L100.00,92.35 L99.50,92.00 L99.61,91.00 L100.00,90.72 L100.72,90.00 L101.38,89.00 L101.76,88.00 L101.94,87.00 L101.92,86.00 L101.71,85.00 L101.29,84.00 L100.57,83.00 L100.00,82.45 L99.36,82.00 L99.47,81.00 L100.00,80.61 L100.61,80.00 L101.29,79.00 L101.68,78.00 L101.86,77.00 L101.84,76.00 L101.63,75.00 L101.20,74.00 L100.46,73.00 L100.00,72.56 L99.21,72.00 L99.31,71.00 L100.00,70.50 L100.50,70.00 L101.00,69.31 L101.59,68.00 L101.77,67.00 L101.76,66.00 L101.54,65.00 L101.10,64.00 L100.00,62.67 L99.05,62.00 L99.15,61.00 L100.00,60.38 L100.38,60.00 L101.00,59.15 L101.50,58.00 L101.68,57.00 L101.67,56.00 L101.45,55.00 L101.00,54.00 L100.23,53.00 L98.84,52.00 L98.97,51.00 L100.00,50.25 L100.99,49.00 L101.40,48.00 L101.59,47.00 L101.57,46.00 L101.35,45.00 L101.00,44.22 L100.10,43.00 L99.00,42.18 L98.59,42.00 L98.72,41.00 L99.00,40.87 L100.00,40.12 L100.87,39.00 L101.30,38.00 L101.49,37.00 L101.47,36.00 L101.24,35.00 L100.77,34.00 L100.00,33.04 L99.00,32.30 L98.33,32.00 L98.45,31.00 L99.00,30.74 L99.98,30.00 L100.74,29.00 L101.19,28.00 L101.38,27.00 L101.37,26.00 L101.13,25.00 L100.64,24.00 L100.00,23.20 L99.00,22.42 L98.06,22.00 L98.17,21.00 L99.00,20.61 L99.80,20.00 L100.61,19.00 L101.00,18.17 L101.27,17.00 L101.25,16.00 L101.01,15.00 L100.51,14.00 L100.00,13.37 L99.00,12.55 L98.00,12.10 L97.53,12.00 L97.72,11.00 L98.00,10.94 L99.00,10.47 L99.61,10.00 L100.47,9.00 L100.94,8.00 L101.15,7.00 L101.13,6.00 L100.88,5.00 L100.36,4.00 L100.00,3.55 L99.00,2.70 L98.00,2.23 L97.00,2.02 L96.00,2.04 L95.00,2.29 L94.00,2.80 L93.00,3.74 L92.29,5.00 L92.04,6.00 L92.02,7.00 L92.23,8.00 L92.70,9.00 L93.00,9.41 L94.00,10.36 L95.00,10.88 L95.46,11.00 L95.63,12.00 L95.00,12.15 L94.00,12.66 L93.56,13.00 L92.66,14.00 L92.15,15.00 L92.00,15.63 L91.00,15.46 L90.88,15.00 L90.36,14.00 L90.00,13.55 L89.00,12.70 L88.00,12.23 L87.00,12.02 L86.00,12.04 L85.00,12.29 L84.00,12.80 L83.00,13.74 L82.29,15.00 L82.04,16.00 L82.02,17.00 L82.23,18.00 L82.70,19.00 L83.00,19.41 L84.00,20.36 L85.00,20.88 L85.46,21.00 L85.63,22.00 L85.00,22.15 L84.00,22.66 L83.56,23.00 L82.66,24.00 L82.15,25.00 L82.00,25.63 L81.00,25.46 L80.88,25.00 L80.36,24.00 L80.00,23.55 L79.00,22.70 L78.00,22.23 L77.00,22.02 L76.00,22.04 L75.00,22.29 L74.00,22.80 L73.00,23.74 L72.29,25.00 L72.04,26.00 L72.02,27.00 L72.23,28.00 L72.70,29.00 L73.00,29.41 L74.00,30.36 L75.00,30.88 L75.46,31.00 L75.63,32.00 L75.00,32.15 L74.00,32.66 L73.56,33.00 L72.66,34.00 L72.15,35.00 L72.00,35.63 L71.00,35.46 L70.88,35.00 L70.36,34.00 L70.00,33.55 L69.00,32.70 L68.00,32.23 L67.00,32.02 L66.00,32.04 L65.00,32.29 L64.00,32.80 L63.00,33.74 L62.29,35.00 L62.04,36.00 L62.02,37.00 L62.23,38.00 L62.70,39.00 L63.00,39.41 L64.00,40.36 L65.00,40.88 L65.46,41.00 L65.63,42.00 L65.00,42.15 L64.00,42.66 L63.56,43.00 L62.66,44.00 L62.15,45.00 L62.00,45.63 L61.00,45.46 L60.88,45.00 L60.36,44.00 L60.00,43.55 L59.00,42.70 L58.00,42.23 L57.00,42.02 L56.00,42.04 L55.00,42.29 L54.00,42.80 L53.00,43.74 L52.29,45.00 L52.04,46.00 L52.02,47.00 L52.23,48.00 L52.70,49.00 L53.00,49.41 L54.00,50.36 L55.00,50.88 L55.46,51.00 L55.63,52.00 L55.00,52.15 L54.00,52.66 L53.56,53.00 L52.66,54.00 L52.15,55.00 L52.00,55.63 L51.00,55.46 L50.88,55.00 L50.36,54.00 L50.00,53.55 L49.00,52.70 L48.00,52.23 L47.00,52.02 L46.00,52.04 L45.00,52.29 L44.00,52.80 L43.00,53.74 L42.29,55.00 L42.04,56.00 L42.02,57.00 L42.23,58.00 L42.70,59.00 L43.00,59.41 L44.00,60.36 L45.00,60.88 L45.46,61.00 L45.63,62.00 L45.00,62.15 L44.00,62.66 L43.56,63.00 L42.66,64.00 L42.15,65.00 L42.00,65.63 L41.00,65.46 L40.88,65.00 L40.36,64.00 L40.00,63.55 L39.00,62.70 L38.00,62.23 L37.00,62.02 L36.00,62.04 L35.00,62.29 L34.00,62.80 L33.00,63.74 L32.29,65.00 L32.04,66.00 L32.02,67.00 L32.23,68.00 L32.70,69.00 L33.00,69.41 L34.00,70.36 L35.00,70.88 L35.46,71.00 L35.63,72.00 L35.00,72.15 L34.00,72.66 L33.56,73.00 L32.66,74.00 L32.15,75.00 L32.00,75.63 L31.00,75.46 L30.88,75.00 L30.36,74.00 L30.00,73.55 L29.00,72.70 L28.00,72.23 L27.00,72.02 L26.00,72.04 L25.00,72.29 L24.00,72.80 L23.00,73.74 L22.29,75.00 L22.04,76.00 L22.02,77.00 L22.23,78.00 L22.70,79.00 L23.00,79.41 L24.00,80.36 L25.00,80.88 L25.46,81.00 L25.63,82.00 L25.00,82.15 L24.00,82.66 L23.56,83.00 L22.66,84.00 L22.15,85.00 L22.00,85.63 L21.00,85.46 L20.88,85.00 L20.36,84.00 L20.00,83.55 L19.00,82.70 L18.00,82.23 L17.00,82.02 L16.00,82.04 L15.00,82.29 L14.00,82.80 L13.00,83.74 L12.29,85.00 L12.04,86.00 L12.02,87.00 L12.23,88.00 L12.70,89.00 L13.00,89.41 L14.00,90.36 L15.00,90.88 L15.46,91.00 L15.63,92.00 L15.00,92.15 L14.00,92.66 L13.56,93.00 L12.66,94.00 L12.15,95.00 L12.00,95.63 L11.00,95.46 L10.88,95.00 L10.36,94.00 L10.00,93.55 L9.00,92.70 L8.00,92.23 L7.00,92.02 L6.00,92.04 L5.00,92.29 L4.00,92.80 L3.00,93.74 L2.29,95.00 L2.04,96.00 L2.02,97.00 "/>

<script>
let svgs = document.children[0];
let paths = Array.from(svgs.children).filter(function(c) {
    var orig = c.style.stroke;
    c.onmouseover = function() {
        c.style.stroke = "rgb(0, 0, 255)";
    };
    c.onmouseout = function () {
        c.style.stroke = orig;
    };
    c.onclick = function () {
        svgs.removeChild()
    }
});

for (let path of paths) {
    console.log(path);
}
</script></svg>