<svg xmlns="http://www.w3.org/2000/svg">
    <path fill-rule="evenodd" style="fill: rgb(0, 0, 0); stroke: none; stroke-width: none;" d="M89.23958,23.00000 L90.00000,22.39279 L90.29908,22.00000 L90.64497,21.00000 L90.57874,20.00000 L90.07635,19.00000 L90.00000,18.91335 L89.00000,18.20051 L87.99999,18.00000 L87.00000,18.20051 L86.00000,18.91335 L85.92365,19.00000 L85.42126,20.00000 L85.35503,21.00000 L85.70092,22.00000 L86.00000,22.39279 L86.76042,23.00000 L86.00000,24.00000 L85.11895,25.00000 L85.00000,25.27473 L84.73508,26.00000 L84.68368,27.00000 L84.94603,28.00000 L85.00000,28.09733 L85.64236,29.00000 L85.02038,30.00000 L85.00000,30.02382 L84.36977,31.00000 L84.05619,32.00000 L84.01393,33.00000 L84.23180,34.00000 L84.75980,35.00000 L84.17735,36.00000 L84.00000,36.29687 L83.64430,37.00000 L83.38175,38.00000 L83.34539,39.00000 L83.53014,40.00000 L83.95957,41.00000 L83.38793,42.00000 L83.00000,42.84132 L82.93429,43.00000 L82.70879,44.00000 L82.67717,45.00000 L82.83676,46.00000 L83.00000,46.46252 L83.20783,47.00000 L83.00000,47.35606 L82.62932,48.00000 L82.23746,49.00000 L82.03719,50.00000 L82.00927,51.00000 L82.15063,52.00000 L82.47575,53.00000 L83.00000,53.98118 L83.01153,54.00000 L83.85716,55.00000 L84.00000,55.13352 L85.00000,55.85957 L85.28164,56.00000 L86.00000,56.32148 L87.00000,56.58216 L88.00000,56.66667 L89.00000,56.58216 L90.00000,56.32148 L90.71836,56.00000 L91.00000,55.85957 L92.00000,55.13352 L92.14284,55.00000 L92.98847,54.00000 L93.00000,53.98118 L93.52425,53.00000 L93.84937,52.00000 L93.99073,51.00000 L93.96281,50.00000 L93.76254,49.00000 L93.37068,48.00000 L93.00000,47.35606 L92.79217,47.00000 L93.00000,46.46252 L93.16324,46.00000 L93.32283,45.00000 L93.29122,44.00000 L93.06571,43.00000 L93.00000,42.84132 L92.61207,42.00000 L92.04043,41.00000 L92.46986,40.00000 L92.65461,39.00000 L92.61825,38.00000 L92.35570,37.00000 L92.00000,36.29687 L91.82265,36.00000 L91.24020,35.00000 L91.76820,34.00000 L91.98607,33.00000 L91.94381,32.00000 L91.63023,31.00000 L91.00000,30.02382 L90.97962,30.00000 L90.35764,29.00000 L91.00000,28.09733 L91.05397,28.00000 L91.31632,27.00000 L91.26492,26.00000 L91.00000,25.27473 L90.88105,25.00000 L90.00000,24.00000 L89.23958,23.00000 M104.68368,27.00000 L104.94603,28.00000 L105.00000,28.09733 L105.64236,29.00000 L105.02038,30.00000 L105.00000,30.02382 L104.36977,31.00000 L104.05619,32.00000 L104.01393,33.00000 L104.23180,34.00000 L104.75980,35.00000 L104.17735,36.00000 L104.00000,36.29687 L103.64430,37.00000 L103.38175,38.00000 L103.34539,39.00000 L103.53014,40.00000 L103.95957,41.00000 L103.38793,42.00000 L103.00000,42.84132 L102.93429,43.00000 L102.70879,44.00000 L102.67717,45.00000 L102.83676,46.00000 L103.00000,46.46252 L103.20783,47.00000 L103.00000,47.35606 L102.62932,48.00000 L102.23746,49.00000 L102.03719,50.00000 L102.00927,51.00000 L102.15063,52.00000 L102.47575,53.00000 L103.00000,53.98118 L103.01153,54.00000 L103.85716,55.00000 L104.00000,55.13352 L105.00000,55.85957 L105.28164,56.00000 L106.00000,56.32148 L107.00000,56.58216 L108.00000,56.66667 L109.00000,56.58216 L110.00000,56.32148 L110.71836,56.00000 L111.00000,55.85957 L112.00000,55.13352 L112.14284,55.00000 L112.98847,54.00000 L113.00000,53.98118 L113.52425,53.00000 L113.84937,52.00000 L113.99073,51.00000 L113.96281,50.00000 L113.76254,49.00000 L113.37068,48.00000 L113.00000,47.35606 L112.79217,47.00000 L113.00000,46.46252 L113.16324,46.00000 L113.32283,45.00000 L113.29122,44.00000 L113.06571,43.00000 L113.00000,42.84132 L112.61207,42.00000 L112.04043,41.00000 L112.46986,40.00000 L112.65461,39.00000 L112.61825,38.00000 L112.35570,37.00000 L112.00000,36.29687 L111.82265,36.00000 L111.24020,35.00000 L111.76820,34.00000 L111.98607,33.00000 L111.94381,32.00000 L111.63023,31.00000 L111.00000,30.02382 L110.97962,30.00000 L110.35764,29.00000 L111.00000,28.09733 L111.05397,28.00000 L111.31632,27.00000 L111.26492,26.00000 L111.00000,25.27473 L110.88105,25.00000 L110.00000,24.00000 L109.23958,23.00000 L110.00000,22.39279 L110.29908,22.00000 L110.64497,21.00000 L110.57874,20.00000 L110.07635,19.00000 L110.00000,18.91335 L109.00000,18.20051 L107.99999,18.00000 L107.00000,18.20051 L106.00000,18.91335 L105.92365,19.00000 L105.42126,20.00000 L105.35503,21.00000 L105.70092,22.00000 L106.00000,22.39279 L106.76042,23.00000 L106.00000,24.00000 L105.11895,25.00000 L105.00000,25.27473 L104.73508,26.00000 L104.68368,27.00000 M44.36977,31.00000 L44.05619,32.00000 L44.01393,33.00000 L44.23180,34.00000 L44.75981,35.00000 L44.17735,36.00000 L44.00000,36.29687 L43.64431,37.00000 L43.38175,38.00000 L43.34539,39.00000 L43.53014,40.00000 L43.95957,41.00000 L43.38793,42.00000 L43.00000,42.84132 L42.93428,43.00000 L42.70878,44.00000 L42.67717,45.00000 L42.83676,46.00000 L43.00000,46.46252 L43.20783,47.00000 L43.00000,47.35606 L42.62932,48.00000 L42.23746,49.00000 L42.03720,50.00000 L42.00927,51.00000 L42.15063,52.00000 L42.47575,53.00000 L43.00000,53.98118 L43.01153,54.00000 L43.85716,55.00000 L44.00000,55.13352 L45.00000,55.85957 L45.28164,56.00000 L46.00000,56.32148 L47.00000,56.58216 L48.00000,56.66667 L49.00000,56.58216 L50.00000,56.32148 L50.71836,56.00000 L51.00000,55.85957 L52.00000,55.13352 L52.14284,55.00000 L52.98847,54.00000 L53.00000,53.98118 L53.52425,53.00000 L53.84937,52.00000 L53.99073,51.00000 L53.96280,50.00000 L53.76254,49.00000 L53.37068,48.00000 L53.00000,47.35606 L52.79217,47.00000 L53.00000,46.46252 L53.16324,46.00000 L53.32283,45.00000 L53.29122,44.00000 L53.06572,43.00000 L53.00000,42.84132 L52.61207,42.00000 L52.04043,41.00000 L52.46986,40.00000 L52.65461,39.00000 L52.61825,38.00000 L52.35569,37.00000 L52.00000,36.29687 L51.82265,36.00000 L51.24019,35.00000 L51.76820,34.00000 L51.98607,33.00000 L51.94381,32.00000 L51.63023,31.00000 L51.00000,30.02382 L50.97963,30.00000 L50.35765,29.00000 L51.00000,28.09733 L51.05397,28.00000 L51.31633,27.00000 L51.26492,26.00000 L51.00000,25.27473 L50.88105,25.00000 L50.00000,24.00000 L49.23957,23.00000 L50.00000,22.39279 L50.29908,22.00000 L50.64497,21.00000 L50.57874,20.00000 L50.07635,19.00000 L50.00000,18.91335 L49.00000,18.20051 L48.00000,18.00000 L47.00000,18.20051 L46.00000,18.91335 L45.92365,19.00000 L45.42126,20.00000 L45.35503,21.00000 L45.70092,22.00000 L46.00000,22.39279 L46.76043,23.00000 L46.00000,24.00000 L45.11895,25.00000 L45.00000,25.27473 L44.73508,26.00000 L44.68367,27.00000 L44.94603,28.00000 L45.00000,28.09733 L45.64235,29.00000 L45.02037,30.00000 L45.00000,30.02382 L44.36977,31.00000 M189.00000,18.20051 L188.00000,18.00000 L187.00000,18.20051 L186.00000,18.91335 L185.92366,19.00000 L185.42126,20.00000 L185.35504,21.00000 L185.70093,22.00000 L186.00000,22.39279 L186.76042,23.00000 L186.00000,24.00000 L185.11894,25.00000 L185.00000,25.27473 L184.73508,26.00000 L184.68367,27.00000 L184.94603,28.00000 L185.00000,28.09733 L185.64235,29.00000 L185.02037,30.00000 L185.00000,30.02382 L184.36977,31.00000 L184.05618,32.00000 L184.01393,33.00000 L184.23180,34.00000 L184.75981,35.00000 L184.17735,36.00000 L184.00000,36.29687 L183.64430,37.00000 L183.38176,38.00000 L183.34538,39.00000 L183.53014,40.00000 L183.95958,41.00000 L183.38792,42.00000 L183.00000,42.84132 L182.93428,43.00000 L182.70879,44.00000 L182.67717,45.00000 L182.83676,46.00000 L183.00000,46.46252 L183.20784,47.00000 L183.00000,47.35606 L182.62932,48.00000 L182.23746,49.00000 L182.03720,50.00000 L182.00926,51.00000 L182.15063,52.00000 L182.47575,53.00000 L183.00000,53.98118 L183.01154,54.00000 L183.85716,55.00000 L184.00000,55.13352 L185.00000,55.85957 L185.28165,56.00000 L186.00000,56.32148 L187.00000,56.58216 L188.00000,56.66667 L189.00000,56.58216 L190.00000,56.32148 L190.71835,56.00000 L191.00000,55.85957 L192.00000,55.13352 L192.14284,55.00000 L192.98846,54.00000 L193.00000,53.98118 L193.52425,53.00000 L193.84937,52.00000 L193.99074,51.00000 L193.96280,50.00000 L193.76254,49.00000 L193.37068,48.00000 L193.00000,47.35606 L192.79216,47.00000 L193.00000,46.46252 L193.16324,46.00000 L193.32283,45.00000 L193.29121,44.00000 L193.06572,43.00000 L193.00000,42.84132 L192.61208,42.00000 L192.04042,41.00000 L192.46986,40.00000 L192.65462,39.00000 L192.61824,38.00000 L192.35570,37.00000 L192.00000,36.29687 L191.82265,36.00000 L191.24019,35.00000 L191.76820,34.00000 L191.98607,33.00000 L191.94382,32.00000 L191.63023,31.00000 L191.00000,30.02382 L190.97963,30.00000 L190.35765,29.00000 L191.00000,28.09733 L191.05397,28.00000 L191.31633,27.00000 L191.26492,26.00000 L191.00000,25.27473 L190.88106,25.00000 L190.00000,24.00000 L189.23958,23.00000 L190.00000,22.39279 L190.29907,22.00000 L190.64496,21.00000 L190.57874,20.00000 L190.07634,19.00000 L190.00000,18.91335 L189.00000,18.20051 M65.00000,28.09733 L65.64236,29.00000 L65.02038,30.00000 L65.00000,30.02382 L64.36977,31.00000 L64.05619,32.00000 L64.01393,33.00000 L64.23180,34.00000 L64.75980,35.00000 L64.17735,36.00000 L64.00000,36.29687 L63.64431,37.00000 L63.38175,38.00000 L63.34539,39.00000 L63.53014,40.00000 L63.95957,41.00000 L63.38793,42.00000 L63.00000,42.84132 L62.93428,43.00000 L62.70878,44.00000 L62.67717,45.00000 L62.83676,46.00000 L63.00000,46.46252 L63.20783,47.00000 L63.00000,47.35606 L62.62932,48.00000 L62.23746,49.00000 L62.03720,50.00000 L62.00927,51.00000 L62.15063,52.00000 L62.47575,53.00000 L63.00000,53.98118 L63.01153,54.00000 L63.85716,55.00000 L64.00000,55.13352 L65.00000,55.85957 L65.28164,56.00000 L66.00000,56.32148 L67.00000,56.58216 L68.00000,56.66667 L69.00000,56.58216 L70.00000,56.32148 L70.71836,56.00000 L71.00000,55.85957 L72.00000,55.13352 L72.14284,55.00000 L72.98847,54.00000 L73.00000,53.98118 L73.52425,53.00000 L73.84937,52.00000 L73.99073,51.00000 L73.96281,50.00000 L73.76254,49.00000 L73.37068,48.00000 L73.00000,47.35606 L72.79217,47.00000 L73.00000,46.46252 L73.16324,46.00000 L73.32283,45.00000 L73.29122,44.00000 L73.06571,43.00000 L73.00000,42.84132 L72.61207,42.00000 L72.04043,41.00000 L72.46986,40.00000 L72.65461,39.00000 L72.61825,38.00000 L72.35570,37.00000 L72.00000,36.29687 L71.82265,36.00000 L71.24020,35.00000 L71.76820,34.00000 L71.98607,33.00000 L71.94381,32.00000 L71.63023,31.00000 L71.00000,30.02382 L70.97962,30.00000 L70.35764,29.00000 L71.00000,28.09733 L71.05397,28.00000 L71.31632,27.00000 L71.26492,26.00000 L71.00000,25.27473 L70.88105,25.00000 L70.00000,24.00000 L69.23958,23.00000 L70.00000,22.39279 L70.29908,22.00000 L70.64497,21.00000 L70.57874,20.00000 L70.07635,19.00000 L70.00000,18.91335 L69.00000,18.20051 L67.99999,18.00000 L67.00000,18.20051 L66.00000,18.91335 L65.92365,19.00000 L65.42126,20.00000 L65.35503,21.00000 L65.70092,22.00000 L66.00000,22.39279 L66.76042,23.00000 L66.00000,24.00000 L65.11895,25.00000 L65.00000,25.27473 L64.73508,26.00000 L64.68368,27.00000 L64.94603,28.00000 L65.00000,28.09733 M145.11894,25.00000 L145.00000,25.27473 L144.73508,26.00000 L144.68367,27.00000 L144.94603,28.00000 L145.00000,28.09733 L145.64235,29.00000 L145.02037,30.00000 L145.00000,30.02382 L144.36977,31.00000 L144.05618,32.00000 L144.01393,33.00000 L144.23180,34.00000 L144.75981,35.00000 L144.17735,36.00000 L144.00000,36.29687 L143.64430,37.00000 L143.38176,38.00000 L143.34538,39.00000 L143.53014,40.00000 L143.95958,41.00000 L143.38792,42.00000 L143.00000,42.84132 L142.93428,43.00000 L142.70879,44.00000 L142.67717,45.00000 L142.83676,46.00000 L143.00000,46.46252 L143.20784,47.00000 L143.00000,47.35606 L142.62932,48.00000 L142.23746,49.00000 L142.03720,50.00000 L142.00926,51.00000 L142.15063,52.00000 L142.47575,53.00000 L143.00000,53.98118 L143.01154,54.00000 L143.85716,55.00000 L144.00000,55.13352 L145.00000,55.85957 L145.28165,56.00000 L146.00000,56.32148 L147.00000,56.58216 L148.00000,56.66667 L149.00000,56.58216 L150.00000,56.32148 L150.71835,56.00000 L151.00000,55.85957 L152.00000,55.13352 L152.14284,55.00000 L152.98846,54.00000 L153.00000,53.98118 L153.52425,53.00000 L153.84937,52.00000 L153.99074,51.00000 L153.96280,50.00000 L153.76254,49.00000 L153.37068,48.00000 L153.00000,47.35606 L152.79216,47.00000 L153.00000,46.46252 L153.16324,46.00000 L153.32283,45.00000 L153.29121,44.00000 L153.06572,43.00000 L153.00000,42.84132 L152.61208,42.00000 L152.04042,41.00000 L152.46986,40.00000 L152.65462,39.00000 L152.61824,38.00000 L152.35570,37.00000 L152.00000,36.29687 L151.82265,36.00000 L151.24019,35.00000 L151.76820,34.00000 L151.98607,33.00000 L151.94382,32.00000 L151.63023,31.00000 L151.00000,30.02382 L150.97963,30.00000 L150.35765,29.00000 L151.00000,28.09733 L151.05397,28.00000 L151.31633,27.00000 L151.26492,26.00000 L151.00000,25.27473 L150.88106,25.00000 L150.00000,24.00000 L149.23958,23.00000 L150.00000,22.39279 L150.29907,22.00000 L150.64496,21.00000 L150.57874,20.00000 L150.07634,19.00000 L150.00000,18.91335 L149.00000,18.20051 L148.00000,18.00000 L147.00000,18.20051 L146.00000,18.91335 L145.92366,19.00000 L145.42126,20.00000 L145.35504,21.00000 L145.70093,22.00000 L146.00000,22.39279 L146.76042,23.00000 L146.00000,24.00000 L145.11894,25.00000 M69.14507,8.00000 L69.00000,7.82275 L68.00000,7.33333 L67.00000,7.82275 L66.85493,8.00000 L66.71316,9.00000 L67.00000,9.45585 L68.00000,10.00000 L69.00000,9.45585 L69.28684,9.00000 L69.14507,8.00000 M6.11937,14.00000 L6.02834,15.00000 L6.54774,16.00000 L7.00000,16.38230 L8.00000,16.66667 L9.00000,16.38230 L9.45226,16.00000 L9.97166,15.00000 L9.88064,14.00000 L9.08541,13.00000 L9.00000,12.93769 L8.00000,12.66667 L7.00000,12.93769 L6.91459,13.00000 L6.11937,14.00000 M23.38793,42.00000 L23.00000,42.84132 L22.93429,43.00000 L22.70878,44.00000 L22.67717,45.00000 L22.83676,46.00000 L23.00000,46.46252 L23.20783,47.00000 L23.00000,47.35606 L22.62932,48.00000 L22.23746,49.00000 L22.03720,50.00000 L22.00927,51.00000 L22.15063,52.00000 L22.47575,53.00000 L23.00000,53.98118 L23.01153,54.00000 L23.85716,55.00000 L24.00000,55.13352 L25.00000,55.85957 L25.28164,56.00000 L26.00000,56.32148 L27.00000,56.58216 L28.00000,56.66667 L29.00000,56.58216 L30.00000,56.32148 L30.71836,56.00000 L31.00000,55.85957 L32.00000,55.13352 L32.14284,55.00000 L32.98847,54.00000 L33.00000,53.98118 L33.52425,53.00000 L33.84937,52.00000 L33.99073,51.00000 L33.96280,50.00000 L33.76254,49.00000 L33.37068,48.00000 L33.00000,47.35606 L32.79217,47.00000 L33.00000,46.46252 L33.16324,46.00000 L33.32283,45.00000 L33.29122,44.00000 L33.06572,43.00000 L33.00000,42.84132 L32.61207,42.00000 L32.04043,41.00000 L32.46986,40.00000 L32.65461,39.00000 L32.61825,38.00000 L32.35569,37.00000 L32.00000,36.29687 L31.82265,36.00000 L31.24019,35.00000 L31.76820,34.00000 L31.98607,33.00000 L31.94381,32.00000 L31.63023,31.00000 L31.00000,30.02382 L30.97963,30.00000 L30.35765,29.00000 L31.00000,28.09733 L31.05397,28.00000 L31.31633,27.00000 L31.26492,26.00000 L31.00000,25.27473 L30.88105,25.00000 L30.00000,24.00000 L29.23958,23.00000 L30.00000,22.39279 L30.29908,22.00000 L30.64496,21.00000 L30.57874,20.00000 L30.07635,19.00000 L30.00000,18.91335 L29.00000,18.20051 L28.00000,18.00000 L27.00000,18.20051 L26.00000,18.91335 L25.92365,19.00000 L25.42126,20.00000 L25.35504,21.00000 L25.70092,22.00000 L26.00000,22.39279 L26.76042,23.00000 L26.00000,24.00000 L25.11895,25.00000 L25.00000,25.27473 L24.73508,26.00000 L24.68367,27.00000 L24.94603,28.00000 L25.00000,28.09733 L25.64235,29.00000 L25.02037,30.00000 L25.00000,30.02382 L24.36977,31.00000 L24.05619,32.00000 L24.01393,33.00000 L24.23180,34.00000 L24.75981,35.00000 L24.17735,36.00000 L24.00000,36.29687 L23.64430,37.00000 L23.38175,38.00000 L23.34539,39.00000 L23.53014,40.00000 L23.95957,41.00000 L23.38793,42.00000 M169.00000,18.20051 L168.00000,18.00000 L167.00000,18.20051 L166.00000,18.91335 L165.92366,19.00000 L165.42126,20.00000 L165.35504,21.00000 L165.70093,22.00000 L166.00000,22.39279 L166.76042,23.00000 L166.00000,24.00000 L165.11894,25.00000 L165.00000,25.27473 L164.73508,26.00000 L164.68367,27.00000 L164.94603,28.00000 L165.00000,28.09733 L165.64235,29.00000 L165.02037,30.00000 L165.00000,30.02382 L164.36977,31.00000 L164.05618,32.00000 L164.01393,33.00000 L164.23180,34.00000 L164.75981,35.00000 L164.17735,36.00000 L164.00000,36.29687 L163.64430,37.00000 L163.38176,38.00000 L163.34538,39.00000 L163.53014,40.00000 L163.95958,41.00000 L163.38792,42.00000 L163.00000,42.84132 L162.93428,43.00000 L162.70879,44.00000 L162.67717,45.00000 L162.83676,46.00000 L163.00000,46.46252 L163.20784,47.00000 L163.00000,47.35606 L162.62932,48.00000 L162.23746,49.00000 L162.03720,50.00000 L162.00926,51.00000 L162.15063,52.00000 L162.47575,53.00000 L163.00000,53.98118 L163.01154,54.00000 L163.85716,55.00000 L164.00000,55.13352 L165.00000,55.85957 L165.28165,56.00000 L166.00000,56.32148 L167.00000,56.58216 L168.00000,56.66667 L169.00000,56.58216 L170.00000,56.32148 L170.71835,56.00000 L171.00000,55.85957 L172.00000,55.13352 L172.14284,55.00000 L172.98846,54.00000 L173.00000,53.98118 L173.52425,53.00000 L173.84937,52.00000 L173.99074,51.00000 L173.96280,50.00000 L173.76254,49.00000 L173.37068,48.00000 L173.00000,47.35606 L172.79216,47.00000 L173.00000,46.46252 L173.16324,46.00000 L173.32283,45.00000 L173.29121,44.00000 L173.06572,43.00000 L173.00000,42.84132 L172.61208,42.00000 L172.04042,41.00000 L172.46986,40.00000 L172.65462,39.00000 L172.61824,38.00000 L172.35570,37.00000 L172.00000,36.29687 L171.82265,36.00000 L171.24019,35.00000 L171.76820,34.00000 L171.98607,33.00000 L171.94382,32.00000 L171.63023,31.00000 L171.00000,30.02382 L170.97963,30.00000 L170.35765,29.00000 L171.00000,28.09733 L171.05397,28.00000 L171.31633,27.00000 L171.26492,26.00000 L171.00000,25.27473 L170.88106,25.00000 L170.00000,24.00000 L169.23958,23.00000 L170.00000,22.39279 L170.29907,22.00000 L170.64496,21.00000 L170.57874,20.00000 L170.07634,19.00000 L170.00000,18.91335 L169.00000,18.20051 M8.00000,10.00000 L7.00000,9.45585 L6.71316,9.00000 L6.85493,8.00000 L7.00000,7.82275 L8.00000,7.33333 L9.00000,7.82275 L9.14507,8.00000 L9.28684,9.00000 L9.00000,9.45585 L8.00000,10.00000 M127.00000,18.20051 L126.00000,18.91335 L125.92365,19.00000 L125.42126,20.00000 L125.35503,21.00000 L125.70092,22.00000 L126.00000,22.39279 L126.76042,23.00000 L126.00000,24.00000 L125.11895,25.00000 L125.00000,25.27473 L124.73508,26.00000 L124.68368,27.00000 L124.94603,28.00000 L125.00000,28.09733 L125.64236,29.00000 L125.02038,30.00000 L125.00000,30.02382 L124.36977,31.00000 L124.05619,32.00000 L124.01393,33.00000 L124.23180,34.00000 L124.75980,35.00000 L124.17735,36.00000 L124.00000,36.29687 L123.64430,37.00000 L123.38175,38.00000 L123.34539,39.00000 L123.53014,40.00000 L123.95957,41.00000 L123.38793,42.00000 L123.00000,42.84132 L122.93429,43.00000 L122.70879,44.00000 L122.67717,45.00000 L122.83676,46.00000 L123.00000,46.46252 L123.20783,47.00000 L123.00000,47.35606 L122.62932,48.00000 L122.23746,49.00000 L122.03719,50.00000 L122.00927,51.00000 L122.15063,52.00000 L122.47575,53.00000 L123.00000,53.98118 L123.01153,54.00000 L123.85716,55.00000 L124.00000,55.13352 L125.00000,55.85957 L125.28164,56.00000 L126.00000,56.32148 L127.00000,56.58216 L128.00000,56.66667 L129.00000,56.58216 L130.00000,56.32148 L130.71835,56.00000 L131.00000,55.85957 L132.00000,55.13352 L132.14284,55.00000 L132.98846,54.00000 L133.00000,53.98118 L133.52425,53.00000 L133.84937,52.00000 L133.99074,51.00000 L133.96280,50.00000 L133.76254,49.00000 L133.37068,48.00000 L133.00000,47.35606 L132.79216,47.00000 L133.00000,46.46252 L133.16324,46.00000 L133.32283,45.00000 L133.29121,44.00000 L133.06572,43.00000 L133.00000,42.84132 L132.61208,42.00000 L132.04042,41.00000 L132.46986,40.00000 L132.65462,39.00000 L132.61824,38.00000 L132.35570,37.00000 L132.00000,36.29687 L131.82265,36.00000 L131.24019,35.00000 L131.76820,34.00000 L131.98607,33.00000 L131.94382,32.00000 L131.63023,31.00000 L131.00000,30.02382 L130.97963,30.00000 L130.35765,29.00000 L131.00000,28.09733 L131.05397,28.00000 L131.31633,27.00000 L131.26492,26.00000 L131.00000,25.27473 L130.88106,25.00000 L130.00000,24.00000 L129.23958,23.00000 L130.00000,22.39279 L130.29907,22.00000 L130.64496,21.00000 L130.57874,20.00000 L130.07634,19.00000 L130.00000,18.91335 L129.00000,18.20051 L127.99999,18.00000 L127.00000,18.20051 M2.03720,50.00000 L2.00927,51.00000 L2.15064,52.00000 L2.47575,53.00000 L3.00000,53.98118 L3.01153,54.00000 L3.85716,55.00000 L4.00000,55.13352 L5.00000,55.85957 L5.28164,56.00000 L6.00000,56.32148 L7.00000,56.58216 L8.00000,56.66667 L9.00000,56.58216 L10.00000,56.32148 L10.71836,56.00000 L11.00000,55.85957 L12.00000,55.13352 L12.14284,55.00000 L12.98847,54.00000 L13.00000,53.98118 L13.52425,53.00000 L13.84937,52.00000 L13.99073,51.00000 L13.96280,50.00000 L13.76254,49.00000 L13.37068,48.00000 L13.00000,47.35606 L12.79217,47.00000 L13.00000,46.46252 L13.16324,46.00000 L13.32283,45.00000 L13.29122,44.00000 L13.06571,43.00000 L13.00000,42.84132 L12.61207,42.00000 L12.04043,41.00000 L12.46986,40.00000 L12.65461,39.00000 L12.61825,38.00000 L12.35570,37.00000 L12.00000,36.29687 L11.82265,36.00000 L11.24019,35.00000 L11.76820,34.00000 L11.98607,33.00000 L11.94381,32.00000 L11.63023,31.00000 L11.00000,30.02382 L10.97963,30.00000 L10.35765,29.00000 L11.00000,28.09733 L11.05397,28.00000 L11.31633,27.00000 L11.26492,26.00000 L11.00000,25.27473 L10.88105,25.00000 L10.00000,24.00000 L9.23958,23.00000 L10.00000,22.39279 L10.29908,22.00000 L10.64497,21.00000 L10.57874,20.00000 L10.07635,19.00000 L10.00000,18.91335 L9.00000,18.20051 L8.00000,18.00000 L7.00000,18.20051 L6.00000,18.91335 L5.92365,19.00000 L5.42126,20.00000 L5.35503,21.00000 L5.70092,22.00000 L6.00000,22.39279 L6.76042,23.00000 L6.00000,24.00000 L5.11895,25.00000 L5.00000,25.27473 L4.73508,26.00000 L4.68367,27.00000 L4.94603,28.00000 L5.00000,28.09733 L5.64235,29.00000 L5.02037,30.00000 L5.00000,30.02382 L4.36977,31.00000 L4.05619,32.00000 L4.01393,33.00000 L4.23180,34.00000 L4.75981,35.00000 L4.17735,36.00000 L4.00000,36.29687 L3.64430,37.00000 L3.38175,38.00000 L3.34539,39.00000 L3.53014,40.00000 L3.95957,41.00000 L3.38793,42.00000 L3.00000,42.84132 L2.93429,43.00000 L2.70878,44.00000 L2.67717,45.00000 L2.83676,46.00000 L3.00000,46.46252 L3.20783,47.00000 L3.00000,47.35606 L2.62932,48.00000 L2.23746,49.00000 L2.03720,50.00000 M166.11937,14.00000 L166.02834,15.00000 L166.54774,16.00000 L167.00000,16.38230 L168.00000,16.66667 L169.00000,16.38230 L169.45226,16.00000 L169.97166,15.00000 L169.88063,14.00000 L169.08540,13.00000 L169.00000,12.93769 L168.00000,12.66667 L167.00000,12.93769 L166.91460,13.00000 L166.11937,14.00000 M88.00000,3.33333 L87.53752,3.00000 L88.00000,2.00000 L88.46248,3.00000 L88.00000,3.33333 M129.28685,9.00000 L129.14507,8.00000 L129.00000,7.82275 L128.00000,7.33333 L127.00000,7.82275 L126.85493,8.00000 L126.71316,9.00000 L127.00000,9.45585 L128.00000,10.00000 L129.00000,9.45585 L129.28685,9.00000 M186.54774,16.00000 L186.02834,15.00000 L186.11937,14.00000 L186.91460,13.00000 L187.00000,12.93769 L188.00000,12.66667 L189.00000,12.93769 L189.08540,13.00000 L189.88063,14.00000 L189.97166,15.00000 L189.45226,16.00000 L189.00000,16.38230 L188.00000,16.66667 L187.00000,16.38230 L186.54774,16.00000 M126.02834,15.00000 L126.11936,14.00000 L126.91459,13.00000 L127.00000,12.93769 L128.00000,12.66667 L129.00000,12.93769 L129.08540,13.00000 L129.88063,14.00000 L129.97166,15.00000 L129.45226,16.00000 L129.00000,16.38230 L128.00000,16.66667 L127.00000,16.38230 L126.54774,16.00000 L126.02834,15.00000 M169.00000,9.45585 L168.00000,10.00000 L167.00000,9.45585 L166.71315,9.00000 L166.85493,8.00000 L167.00000,7.82275 L168.00000,7.33333 L169.00000,7.82275 L169.14507,8.00000 L169.28685,9.00000 L169.00000,9.45585 M69.88064,14.00000 L69.08541,13.00000 L69.00000,12.93769 L68.00000,12.66667 L67.00000,12.93769 L66.91459,13.00000 L66.11936,14.00000 L66.02834,15.00000 L66.54774,16.00000 L67.00000,16.38230 L68.00000,16.66667 L69.00000,16.38230 L69.45226,16.00000 L69.97166,15.00000 L69.88064,14.00000 M109.00000,16.38230 L108.00000,16.66667 L107.00000,16.38230 L106.54774,16.00000 L106.02834,15.00000 L106.11936,14.00000 L106.91459,13.00000 L107.00000,12.93769 L108.00000,12.66667 L109.00000,12.93769 L109.08541,13.00000 L109.88064,14.00000 L109.97166,15.00000 L109.45226,16.00000 L109.00000,16.38230 M186.71315,9.00000 L186.85493,8.00000 L187.00000,7.82275 L188.00000,7.33333 L189.00000,7.82275 L189.14507,8.00000 L189.28685,9.00000 L189.00000,9.45585 L188.00000,10.00000 L187.00000,9.45585 L186.71315,9.00000 M46.02834,15.00000 L46.11937,14.00000 L46.91459,13.00000 L47.00000,12.93769 L48.00000,12.66667 L49.00000,12.93769 L49.08541,13.00000 L49.88063,14.00000 L49.97166,15.00000 L49.45226,16.00000 L49.00000,16.38230 L48.00000,16.66667 L47.00000,16.38230 L46.54774,16.00000 L46.02834,15.00000 M146.85493,8.00000 L146.71315,9.00000 L147.00000,9.45585 L148.00000,10.00000 L149.00000,9.45585 L149.28685,9.00000 L149.14507,8.00000 L149.00000,7.82275 L148.00000,7.33333 L147.00000,7.82275 L146.85493,8.00000 M87.00000,16.38230 L86.54774,16.00000 L86.02834,15.00000 L86.11936,14.00000 L86.91459,13.00000 L87.00000,12.93769 L88.00000,12.66667 L89.00000,12.93769 L89.08541,13.00000 L89.88064,14.00000 L89.97166,15.00000 L89.45226,16.00000 L89.00000,16.38230 L88.00000,16.66667 L87.00000,16.38230 M27.00000,12.93769 L26.91459,13.00000 L26.11937,14.00000 L26.02834,15.00000 L26.54774,16.00000 L27.00000,16.38230 L28.00000,16.66667 L29.00000,16.38230 L29.45226,16.00000 L29.97166,15.00000 L29.88063,14.00000 L29.08541,13.00000 L29.00000,12.93769 L28.00000,12.66667 L27.00000,12.93769 M109.00000,9.45585 L108.00000,10.00000 L107.00000,9.45585 L106.71316,9.00000 L106.85493,8.00000 L107.00000,7.82275 L108.00000,7.33333 L109.00000,7.82275 L109.14507,8.00000 L109.28684,9.00000 L109.00000,9.45585 M7.53752,3.00000 L8.00000,2.00000 L8.46247,3.00000 L8.00000,3.33333 L7.53752,3.00000 M128.46248,3.00000 L128.00000,2.00000 L127.53752,3.00000 L128.00000,3.33333 L128.46248,3.00000 M48.00000,10.00000 L47.00000,9.45585 L46.71316,9.00000 L46.85493,8.00000 L47.00000,7.82275 L48.00000,7.33333 L49.00000,7.82275 L49.14507,8.00000 L49.28684,9.00000 L49.00000,9.45585 L48.00000,10.00000 M167.53752,3.00000 L168.00000,2.00000 L168.46248,3.00000 L168.00000,3.33333 L167.53752,3.00000 M88.00000,7.33333 L87.00000,7.82275 L86.85493,8.00000 L86.71316,9.00000 L87.00000,9.45585 L88.00000,10.00000 L89.00000,9.45585 L89.28684,9.00000 L89.14507,8.00000 L89.00000,7.82275 L88.00000,7.33333 M149.45226,16.00000 L149.00000,16.38230 L148.00000,16.66667 L147.00000,16.38230 L146.54774,16.00000 L146.02834,15.00000 L146.11937,14.00000 L146.91460,13.00000 L147.00000,12.93769 L148.00000,12.66667 L149.00000,12.93769 L149.08540,13.00000 L149.88063,14.00000 L149.97166,15.00000 L149.45226,16.00000 M188.00000,3.33333 L187.53752,3.00000 L188.00000,2.00000 L188.46248,3.00000 L188.00000,3.33333 M48.00000,2.00000 L47.53753,3.00000 L48.00000,3.33333 L48.46247,3.00000 L48.00000,2.00000 M108.46248,3.00000 L108.00000,2.00000 L107.53752,3.00000 L108.00000,3.33333 L108.46248,3.00000 M28.00000,3.33333 L27.53753,3.00000 L28.00000,2.00000 L28.46247,3.00000 L28.00000,3.33333 M148.00000,2.00000 L147.53752,3.00000 L148.00000,3.33333 L148.46248,3.00000 L148.00000,2.00000 M68.00000,2.00000 L67.53752,3.00000 L68.00000,3.33333 L68.46248,3.00000 L68.00000,2.00000 M27.00000,9.45585 L26.71316,9.00000 L26.85493,8.00000 L27.00000,7.82275 L28.00000,7.33333 L29.00000,7.82275 L29.14507,8.00000 L29.28684,9.00000 L29.00000,9.45585 L28.00000,10.00000 L27.00000,9.45585 "/>

<script>
let svgs = document.children[0];
let paths = Array.from(svgs.children).filter(function(c) {
    var orig = c.style.stroke;
    c.onmouseover = function() {
        c.style.stroke = "rgb(0, 0, 255)";
    };
    c.onmouseout = function () {
        c.style.stroke = orig;
    };
    c.onclick = function () {
        svgs.removeChild()
    }
});

for (let path of paths) {
    console.log(path);
}
</script></svg>