<svg xmlns="http://www.w3.org/2000/svg">
    <path fill-rule="evenodd" style="fill: rgb(0, 0, 0); stroke: none; stroke-width: none;" d="M2.00,22.00 L2.10,24.00 L2.41,26.00 L2.92,28.00 L3.68,30.00 L4.70,32.00 L6.82,35.00 L8.80,37.00 L11.00,38.68 L13.00,39.85 L15.00,40.72 L18.00,41.59 L20.00,41.90 L22.00,42.00 L24.00,41.90 L26.00,41.59 L28.00,41.08 L30.00,40.32 L32.00,39.30 L35.00,37.18 L36.00,36.21 L36.00,36.21 L37.00,35.29 L38.80,37.00 L41.00,38.68 L43.00,39.85 L45.00,40.72 L48.00,41.59 L50.00,41.90 L52.00,42.00 L54.00,41.90 L56.00,41.59 L58.00,41.08 L60.00,40.32 L62.00,39.30 L65.00,37.18 L67.00,35.20 L68.68,33.00 L69.85,31.00 L70.72,29.00 L71.59,26.00 L71.90,24.00 L72.00,22.00 L71.90,20.00 L71.59,18.00 L71.08,16.00 L70.32,14.00 L69.30,12.00 L67.18,9.00 L65.20,7.00 L63.00,5.32 L61.00,4.15 L59.00,3.28 L56.00,2.41 L54.00,2.10 L52.00,2.00 L50.00,2.10 L48.00,2.41 L46.00,2.94 L44.00,3.68 L42.00,4.70 L39.00,6.82 L37.00,8.71 L35.20,7.00 L33.00,5.32 L31.00,4.15 L29.00,3.28 L26.00,2.41 L24.00,2.10 L22.00,2.00 L20.00,2.10 L18.00,2.41 L16.00,2.92 L14.00,3.68 L12.00,4.70 L9.00,6.82 L7.00,8.80 L5.32,11.00 L4.15,13.00 L3.28,15.00 L2.41,18.00 L2.10,20.00 L2.00,22.00 "/>

<script>
let paths = Array.from(document.children[0].children).filter(function(c) {
    var orig = c.style.stroke;
    c.onmouseover = function() {
        c.style.stroke = "rgb(0, 0, 255)";
    };
    c.onmouseout = function () {
        c.style.stroke = orig;
    };
});

for (let path of paths) {
    console.log(path);
}
</script></svg>