<svg xmlns="http://www.w3.org/2000/svg">
    <path fill-rule="evenodd" style="fill: none; stroke: rgb(0, 0, 0); stroke-width: 0.2;" d="M188.00,3.33 L187.54,3.00 M112.62,38.00 L112.65,39.00 M146.85,8.00 L147.00,7.82 M173.99,51.00 L173.85,52.00 M71.63,31.00 L71.94,32.00 M24.74,26.00 L25.00,25.27 M133.37,48.00 L133.76,49.00 M45.36,21.00 L45.42,20.00 M106.00,18.91 L107.00,18.20 M173.07,43.00 L173.29,44.00 M51.63,31.00 L51.94,32.00 M71.94,32.00 L71.99,33.00 M111.32,27.00 L111.05,28.00 M23.96,41.00 L23.53,40.00 M105.36,21.00 L105.42,20.00 M126.03,15.00 L126.12,14.00 M110.88,25.00 L111.00,25.27 M10.00,24.00 L10.88,25.00 M186.00,18.91 L187.00,18.20 M50.00,18.91 L50.08,19.00 M145.92,19.00 L146.00,18.91 M172.00,55.13 L171.00,55.86 M63.64,37.00 L64.00,36.30 M185.36,21.00 L185.42,20.00 M9.24,23.00 L10.00,24.00 M131.24,35.00 L131.82,36.00 M124.06,32.00 L124.37,31.00 M70.00,22.39 L69.24,23.00 M8.00,16.67 L7.00,16.38 M143.96,41.00 L143.53,40.00 M48.00,3.33 L47.54,3.00 M89.45,16.00 L89.00,16.38 M149.29,9.00 L149.00,9.46 M53.96,50.00 L53.99,51.00 M82.04,50.00 L82.24,49.00 M7.54,3.00 L8.00,2.00 M184.06,32.00 L184.37,31.00 M89.00,56.58 L88.00,56.67 M149.00,7.82 L149.15,8.00 M164.18,36.00 L164.76,35.00 M129.00,9.46 L128.00,10.00 M170.36,29.00 L170.98,30.00 M103.00,47.36 L103.21,47.00 M12.61,42.00 L13.00,42.84 M33.16,46.00 L33.00,46.46 M47.00,18.20 L48.00,18.00 M103.21,47.00 L103.00,46.46 M11.82,36.00 L12.00,36.30 M183.00,47.36 L183.21,47.00 M143.00,46.46 L142.84,46.00 M108.00,2.00 L108.46,3.00 M147.54,3.00 L148.00,2.00 M163.86,55.00 L163.01,54.00 M72.14,55.00 L72.00,55.13 M190.00,56.32 L189.00,56.58 M12.00,36.30 L12.36,37.00 M142.15,52.00 L142.01,51.00 M32.99,54.00 L32.14,55.00 M93.07,43.00 L93.29,44.00 M168.00,56.67 L167.00,56.58 M46.85,8.00 L47.00,7.82 M72.61,42.00 L73.00,42.84 M169.29,9.00 L169.00,9.46 M11.05,28.00 L11.00,28.10 M92.99,54.00 L92.14,55.00 M113.52,53.00 L113.00,53.98 M106.85,8.00 L107.00,7.82 M10.98,30.00 L11.00,30.02 M45.00,28.10 L44.95,28.00 M66.00,22.39 L65.70,22.00 M167.00,18.20 L168.00,18.00 M45.42,20.00 L45.92,19.00 M173.00,46.46 L172.79,47.00 M105.64,29.00 L105.00,28.10 M4.68,27.00 L4.74,26.00 M193.85,52.00 L193.52,53.00 M126.55,16.00 L126.03,15.00 M111.63,31.00 L111.94,32.00 M172.14,55.00 L172.00,55.13 M3.38,38.00 L3.64,37.00 M125.70,22.00 L125.36,21.00 M84.76,35.00 L84.23,34.00 M43.00,53.98 L42.48,53.00 M64.95,28.00 L64.68,27.00 M49.09,13.00 L49.88,14.00 M2.84,46.00 L2.68,45.00 M185.00,25.27 L185.12,25.00 M84.18,36.00 L84.76,35.00 M131.26,26.00 L131.32,27.00 M151.77,34.00 L151.24,35.00 M124.00,36.30 L124.18,36.00 M165.42,20.00 L165.92,19.00 M90.36,29.00 L90.98,30.00 M191.24,35.00 L191.82,36.00 M2.24,49.00 L2.63,48.00 M64.18,36.00 L64.76,35.00 M48.00,7.33 L49.00,7.82 M90.72,56.00 L90.00,56.32 M7.00,7.82 L8.00,7.33 M130.30,22.00 L130.00,22.39 M151.00,55.86 L150.72,56.00 M190.98,30.00 L191.00,30.02 M7.00,16.38 L6.55,16.00 M129.45,16.00 L129.00,16.38 M29.00,16.38 L28.00,16.67 M83.00,47.36 L83.21,47.00 M68.46,3.00 L68.00,3.33 M150.36,29.00 L150.98,30.00 M42.01,51.00 L42.04,50.00 M164.74,26.00 L165.00,25.27 M6.12,14.00 L6.91,13.00 M28.00,12.67 L29.00,12.94 M88.00,10.00 L87.00,9.46 M143.00,47.36 L143.21,47.00 M109.00,16.38 L108.00,16.67 M89.00,7.82 L89.15,8.00 M6.00,18.91 L7.00,18.20 M27.00,9.46 L26.71,9.00 M190.08,19.00 L190.58,20.00 M66.76,23.00 L66.00,22.39 M162.68,45.00 L162.71,44.00 M33.00,42.84 L33.07,43.00 M93.00,46.46 L92.79,47.00 M5.02,30.00 L5.64,29.00 M189.00,56.58 L188.00,56.67 M113.85,52.00 L113.52,53.00 M26.00,56.32 L25.28,56.00 M167.54,3.00 L168.00,2.00 M113.00,47.36 L113.37,48.00 M31.24,35.00 L31.82,36.00 M85.28,56.00 L85.00,55.86 M52.04,41.00 L52.61,42.00 M44.23,34.00 L44.01,33.00 M66.00,24.00 L66.76,23.00 M30.64,21.00 L30.30,22.00 M71.77,34.00 L71.24,35.00 M193.96,50.00 L193.99,51.00 M126.71,9.00 L126.85,8.00 M146.91,13.00 L147.00,12.94 M111.24,35.00 L111.82,36.00 M166.00,56.32 L165.28,56.00 M91.00,30.02 L91.63,31.00 M186.55,16.00 L186.03,15.00 M30.98,30.00 L31.00,30.02 M51.77,34.00 L51.24,35.00 M43.01,54.00 L43.00,53.98 M65.42,20.00 L65.92,19.00 M91.24,35.00 L91.82,36.00 M30.00,24.00 L30.88,25.00 M125.36,21.00 L125.42,20.00 M146.03,15.00 L146.12,14.00 M132.61,42.00 L133.00,42.84 M186.00,22.39 L185.70,22.00 M124.76,35.00 L124.23,34.00 M29.88,14.00 L29.97,15.00 M192.00,55.13 L191.00,55.86 M70.36,29.00 L70.98,30.00 M63.86,55.00 L63.01,54.00 M145.42,20.00 L145.92,19.00 M42.84,46.00 L42.68,45.00 M152.00,36.30 L152.36,37.00 M64.23,34.00 L64.01,33.00 M191.77,34.00 L191.24,35.00 M23.35,39.00 L23.38,38.00 M130.36,29.00 L130.98,30.00 M83.96,41.00 L83.53,40.00 M22.24,49.00 L22.63,48.00 M191.00,25.27 L191.26,26.00 M53.99,51.00 L53.85,52.00 M103.39,42.00 L103.96,41.00 M150.00,22.39 L149.24,23.00 M150.00,56.32 L149.00,56.58 M82.93,43.00 L83.00,42.84 M68.00,7.33 L69.00,7.82 M184.18,36.00 L184.76,35.00 M13.37,48.00 L13.76,49.00 M109.00,56.58 L108.00,56.67 M103.00,53.98 L102.48,53.00 M162.84,46.00 L162.68,45.00 M170.58,20.00 L170.64,21.00 M142.93,43.00 L143.00,42.84 M13.00,53.98 L12.99,54.00 M72.79,47.00 L73.00,47.36 M47.00,56.58 L46.00,56.32 M66.85,8.00 L67.00,7.82 M25.70,22.00 L25.36,21.00 M72.36,37.00 L72.62,38.00 M189.09,13.00 L189.88,14.00 M113.96,50.00 L113.99,51.00 M153.37,48.00 L153.76,49.00 M86.00,56.32 L85.28,56.00 M26.00,22.39 L25.70,22.00 M46.91,13.00 L47.00,12.94 M93.96,50.00 L93.99,51.00 M169.09,13.00 L169.88,14.00 M53.00,42.84 L53.07,43.00 M86.55,16.00 L86.03,15.00 M25.02,30.00 L25.64,29.00 M107.00,56.58 L106.00,56.32 M106.91,13.00 L107.00,12.94 M112.00,55.13 L111.00,55.86 M24.95,28.00 L24.68,27.00 M187.00,18.20 L188.00,18.00 M45.64,29.00 L45.00,28.10 M147.00,16.38 L146.55,16.00 M173.29,44.00 L173.32,45.00 M51.82,36.00 L52.00,36.30 M186.91,13.00 L187.00,12.94 M24.00,55.13 L23.86,55.00 M132.65,39.00 L132.47,40.00 M125.42,20.00 L125.92,19.00 M71.05,28.00 L71.00,28.10 M9.88,14.00 L9.97,15.00 M131.99,33.00 L131.77,34.00 M186.00,24.00 L186.76,23.00 M49.15,8.00 L49.29,9.00 M104.06,32.00 L104.37,31.00 M145.12,25.00 L146.00,24.00 M63.01,54.00 L63.00,53.98 M70.00,56.32 L69.00,56.58 M185.00,28.10 L184.95,28.00 M110.00,18.91 L110.08,19.00 M9.00,12.94 L9.09,13.00 M191.00,30.02 L191.63,31.00 M90.58,20.00 L90.64,21.00 M144.68,27.00 L144.74,26.00 M165.64,29.00 L165.00,28.10 M130.00,56.32 L129.00,56.58 M8.00,56.67 L7.00,56.58 M48.00,10.00 L47.00,9.46 M62.01,51.00 L62.04,50.00 M184.23,34.00 L184.01,33.00 M144.18,36.00 L144.76,35.00 M109.09,13.00 L109.88,14.00 M149.00,12.94 L149.09,13.00 M165.00,55.86 L164.00,55.13 M73.37,48.00 L73.76,49.00 M8.00,3.33 L7.54,3.00 M143.39,42.00 L143.96,41.00 M42.04,50.00 L42.24,49.00 M89.09,13.00 L89.88,14.00 M164.23,34.00 L164.01,33.00 M53.37,48.00 L53.76,49.00 M73.85,52.00 L73.52,53.00 M170.98,30.00 L171.00,30.02 M12.62,38.00 L12.65,39.00 M89.00,9.46 L88.00,10.00 M123.00,46.46 L122.84,46.00 M102.84,46.00 L102.68,45.00 M12.04,41.00 L12.61,42.00 M33.00,46.46 L32.79,47.00 M148.00,7.33 L149.00,7.82 M169.00,7.82 L169.15,8.00 M47.00,7.82 L48.00,7.33 M169.00,16.38 L168.00,16.67 M93.52,53.00 L93.00,53.98 M11.26,26.00 L11.32,27.00 M128.00,3.33 L127.54,3.00 M107.54,3.00 L108.00,2.00 M173.37,48.00 L173.76,49.00 M10.30,22.00 L10.00,22.39 M127.00,12.94 L128.00,12.67 M91.63,31.00 L91.94,32.00 M44.37,31.00 L45.00,30.02 M45.00,30.02 L45.02,30.00 M4.00,55.13 L3.86,55.00 M186.00,56.32 L185.28,56.00 M91.00,55.86 L90.72,56.00 M132.79,47.00 L133.00,47.36 M166.03,15.00 L166.12,14.00 M125.12,25.00 L126.00,24.00 M172.47,40.00 L172.04,41.00 M105.00,30.02 L105.02,30.00 M192.65,39.00 L192.47,40.00 M3.53,40.00 L3.35,39.00 M43.21,47.00 L43.00,46.46 M65.64,29.00 L65.00,28.10 M49.24,23.00 L50.00,24.00 M105.12,25.00 L106.00,24.00 M3.00,42.84 L3.39,42.00 M185.00,30.02 L185.02,30.00 M110.00,22.39 L109.24,23.00 M152.61,42.00 L153.00,42.84 M192.04,41.00 L192.61,42.00 M3.00,53.98 L2.48,53.00 M131.00,25.27 L131.26,26.00 M42.93,43.00 L43.00,42.84 M84.23,34.00 L84.01,33.00 M64.37,31.00 L65.00,30.02 M151.82,36.00 L152.00,36.30 M49.00,12.94 L49.09,13.00 M166.00,22.39 L165.70,22.00 M2.48,53.00 L2.15,52.00 M84.00,36.30 L84.18,36.00 M144.23,34.00 L144.01,33.00 M123.53,40.00 L123.35,39.00 M90.00,24.00 L90.88,25.00 M7.00,56.58 L6.00,56.32 M28.00,56.67 L27.00,56.58 M68.00,10.00 L67.00,9.46 M150.64,21.00 L150.30,22.00 M42.15,52.00 L42.01,51.00 M164.01,33.00 L164.06,32.00 M89.00,16.38 L88.00,16.67 M6.71,9.00 L6.85,8.00 M128.46,3.00 L128.00,3.33 M163.35,39.00 L163.38,38.00 M5.36,21.00 L5.42,20.00 M122.48,53.00 L122.15,52.00 M27.00,16.38 L26.55,16.00 M86.85,8.00 L87.00,7.82 M66.91,13.00 L67.00,12.94 M32.47,40.00 L32.04,41.00 M4.76,35.00 L4.23,34.00 M26.12,14.00 L26.91,13.00 M86.03,15.00 L86.12,14.00 M128.00,7.33 L129.00,7.82 M153.52,53.00 L153.00,53.98 M107.00,16.38 L106.55,16.00 M92.47,40.00 L92.04,41.00 M182.63,48.00 L183.00,47.36 M26.76,23.00 L26.00,22.39 M53.00,46.46 L52.79,47.00 M44.68,27.00 L44.74,26.00 M92.65,39.00 L92.47,40.00 M31.26,26.00 L31.32,27.00 M113.32,45.00 L113.16,46.00 M153.00,53.98 L152.99,54.00 M133.85,52.00 L133.52,53.00 M187.00,56.58 L186.00,56.32 M112.79,47.00 L113.00,47.36 M31.00,28.10 L30.36,29.00 M188.00,10.00 L187.00,9.46 M71.82,36.00 L72.00,36.30 M51.94,32.00 L51.99,33.00 M147.00,7.82 L148.00,7.33 M44.00,55.13 L43.86,55.00 M166.76,23.00 L166.00,22.39 M65.70,22.00 L65.36,21.00 M193.00,46.46 L192.79,47.00 M30.08,19.00 L30.58,20.00 M71.24,35.00 L71.82,36.00 M126.00,56.32 L125.28,56.00 M111.00,28.10 L110.36,29.00 M85.02,30.00 L85.64,29.00 M29.00,56.58 L28.00,56.67 M192.14,55.00 L192.00,55.13 M63.21,47.00 L63.00,46.46 M145.70,22.00 L145.36,21.00 M43.00,42.84 L43.39,42.00 M151.32,27.00 L151.05,28.00 M84.01,33.00 L84.06,32.00 M63.96,41.00 L63.53,40.00 M191.00,55.86 L190.72,56.00 M23.00,42.84 L23.39,42.00 M123.86,55.00 L123.01,54.00 M150.88,25.00 L151.00,25.27 M144.01,33.00 L144.06,32.00 M123.00,47.36 L123.21,47.00 M22.63,48.00 L23.00,47.36 M82.01,51.00 L82.04,50.00 M62.04,50.00 L62.24,49.00 M68.00,12.67 L69.00,12.94 M13.76,49.00 L13.96,50.00 M73.52,53.00 L73.00,53.98 M129.00,7.82 L129.15,8.00 M149.00,16.38 L148.00,16.67 M163.00,42.84 L163.39,42.00 M171.24,35.00 L171.82,36.00 M13.99,51.00 L13.85,52.00 M53.52,53.00 L53.00,53.98 M103.01,54.00 L103.00,53.98 M170.64,21.00 L170.30,22.00 M88.00,3.33 L87.54,3.00 M109.00,9.46 L108.00,10.00 M13.07,43.00 L13.29,44.00 M102.93,43.00 L103.00,42.84 M148.00,18.00 L149.00,18.20 M142.63,48.00 L143.00,47.36 M108.00,7.33 L109.00,7.82 M183.01,54.00 L183.00,53.98 M72.47,40.00 L72.04,41.00 M47.00,9.46 L46.71,9.00 M153.99,51.00 L153.85,52.00 M169.24,23.00 L170.00,24.00 M53.00,47.36 L53.37,48.00 M182.93,43.00 L183.00,42.84 M25.28,56.00 L25.00,55.86 M113.37,48.00 L113.76,49.00 M86.00,18.91 L87.00,18.20 M24.18,36.00 L24.76,35.00 M133.07,43.00 L133.29,44.00 M187.54,3.00 L188.00,2.00 M45.00,55.86 L44.00,55.13 M105.42,20.00 L105.92,19.00 M146.76,23.00 L146.00,22.39 M51.05,28.00 L51.00,28.10 M71.32,27.00 L71.05,28.00 M186.03,15.00 L186.12,14.00 M111.00,55.86 L110.72,56.00 M23.39,42.00 L23.96,41.00 M192.47,40.00 L192.04,41.00 M105.00,55.86 L104.00,55.13 M146.00,18.91 L147.00,18.20 M172.61,42.00 L173.00,42.84 M126.00,22.39 L125.70,22.00 M110.36,29.00 L110.98,30.00 M193.16,46.00 L193.00,46.46 M10.00,18.91 L10.08,19.00 M49.29,9.00 L49.00,9.46 M63.35,39.00 L63.38,38.00 M9.00,18.20 L10.00,18.91 M191.05,28.00 L191.00,28.10 M132.36,37.00 L132.62,38.00 M123.96,41.00 L123.53,40.00 M144.76,35.00 L144.23,34.00 M172.00,36.30 L172.36,37.00 M69.45,16.00 L69.00,16.38 M9.15,8.00 L9.29,9.00 M131.63,31.00 L131.94,32.00 M49.00,16.38 L48.00,16.67 M90.64,21.00 L90.30,22.00 M165.70,22.00 L165.36,21.00 M63.00,42.84 L63.39,42.00 M70.00,18.91 L70.08,19.00 M8.00,18.00 L9.00,18.20 M90.00,56.32 L89.00,56.58 M130.00,18.91 L130.08,19.00 M104.00,55.13 L103.86,55.00 M8.00,10.00 L7.00,9.46 M42.24,49.00 L42.63,48.00 M149.15,8.00 L149.29,9.00 M164.68,27.00 L164.74,26.00 M53.76,49.00 L53.96,50.00 M170.30,22.00 L170.00,22.39 M103.00,46.46 L102.84,46.00 M12.79,47.00 L13.00,47.36 M142.71,44.00 L142.93,43.00 M109.00,12.94 L109.09,13.00 M73.07,43.00 L73.29,44.00 M169.45,16.00 L169.00,16.38 M11.77,34.00 L11.24,35.00 M133.96,50.00 L133.99,51.00 M32.61,42.00 L33.00,42.84 M93.00,42.84 L93.07,43.00 M147.00,56.58 L146.00,56.32 M46.12,14.00 L46.91,13.00 M72.04,41.00 L72.61,42.00 M11.00,25.27 L11.26,26.00 M182.15,52.00 L182.01,51.00 M92.61,42.00 L93.00,42.84 M168.00,2.00 L168.46,3.00 M113.16,46.00 L113.00,46.46 M173.76,49.00 L173.96,50.00 M106.12,14.00 L106.91,13.00 M188.46,3.00 L188.00,3.33 M10.58,20.00 L10.64,21.00 M44.74,26.00 L45.00,25.27 M45.02,30.00 L45.64,29.00 M106.76,23.00 L106.00,22.39 M4.06,32.00 L4.37,31.00 M186.12,14.00 L186.91,13.00 M111.05,28.00 L111.00,28.10 M167.00,16.38 L166.55,16.00 M188.00,12.67 L189.00,12.94 M4.37,31.00 L5.00,30.02 M126.85,8.00 L127.00,7.82 M91.05,28.00 L91.00,28.10 M44.01,33.00 L44.06,32.00 M65.92,19.00 L66.00,18.91 M166.12,14.00 L166.91,13.00 M50.08,19.00 L50.58,20.00 M172.99,54.00 L172.14,55.00 M3.64,37.00 L4.00,36.30 M193.52,53.00 L193.00,53.98 M85.12,25.00 L86.00,24.00 M132.47,40.00 L132.04,41.00 M125.00,28.10 L124.95,28.00 M104.76,35.00 L104.23,34.00 M3.21,47.00 L3.00,46.46 M43.00,46.46 L42.84,46.00 M64.00,36.30 L64.18,36.00 M151.99,33.00 L151.77,34.00 M49.00,18.20 L50.00,18.91 M165.36,21.00 L165.42,20.00 M90.30,22.00 L90.00,22.39 M2.68,45.00 L2.71,44.00 M164.76,35.00 L164.23,34.00 M6.91,13.00 L7.00,12.94 M129.09,13.00 L129.88,14.00 M28.46,3.00 L28.00,3.33 M82.84,46.00 L82.68,45.00 M68.00,16.67 L67.00,16.38 M33.76,49.00 L33.96,50.00 M6.00,22.39 L5.70,22.00 M28.00,2.00 L28.46,3.00 M142.84,46.00 L142.68,45.00 M163.00,46.46 L162.84,46.00 M108.46,3.00 L108.00,3.33 M163.39,42.00 L163.96,41.00 M183.86,55.00 L183.01,54.00 M5.64,29.00 L5.00,28.10 M28.00,10.00 L27.00,9.46 M32.62,38.00 L32.65,39.00 M88.46,3.00 L88.00,3.33 M5.00,25.27 L5.12,25.00 M27.00,18.20 L28.00,18.00 M122.93,43.00 L123.00,42.84 M162.63,48.00 L163.00,47.36 M183.21,47.00 L183.00,46.46 M5.00,55.86 L4.00,55.13 M122.01,51.00 L122.04,50.00 M26.91,13.00 L27.00,12.94 M189.24,23.00 L190.00,24.00 M86.12,14.00 L86.91,13.00 M53.00,53.98 L52.99,54.00 M153.76,49.00 L153.96,50.00 M32.00,55.13 L31.00,55.86 M168.00,12.67 L169.00,12.94 M189.00,16.38 L188.00,16.67 M31.63,31.00 L31.94,32.00 M86.00,22.39 L85.70,22.00 M112.36,37.00 L112.62,38.00 M92.00,55.13 L91.00,55.86 M30.58,20.00 L30.64,21.00 M188.00,16.67 L187.00,16.38 M51.24,35.00 L51.82,36.00 M147.00,12.94 L148.00,12.67 M44.06,32.00 L44.37,31.00 M91.00,28.10 L90.36,29.00 M65.02,30.00 L65.64,29.00 M192.61,42.00 L193.00,42.84 M125.00,55.86 L124.00,55.13 M29.97,15.00 L29.45,16.00 M193.00,47.36 L193.37,48.00 M152.00,55.13 L151.00,55.86 M132.04,41.00 L132.61,42.00 M124.23,34.00 L124.01,33.00 M29.15,8.00 L29.29,9.00 M70.00,24.00 L70.88,25.00 M63.38,38.00 L63.64,37.00 M42.48,53.00 L42.15,52.00 M64.00,55.13 L63.86,55.00 M23.00,47.36 L23.21,47.00 M69.88,14.00 L69.97,15.00 M130.00,24.00 L130.88,25.00 M144.95,28.00 L144.68,27.00 M151.00,25.27 L151.26,26.00 M83.39,42.00 L83.96,41.00 M23.21,47.00 L23.00,46.46 M63.00,46.46 L62.84,46.00 M69.00,18.20 L70.00,18.91 M83.86,55.00 L83.01,54.00 M123.38,38.00 L123.64,37.00 M22.68,45.00 L22.71,44.00 M104.01,33.00 L104.06,32.00 M150.00,18.91 L150.08,19.00 M143.86,55.00 L143.01,54.00 M109.24,23.00 L110.00,24.00 M22.04,50.00 L22.24,49.00 M184.68,27.00 L184.74,26.00 M73.76,49.00 L73.96,50.00 M53.85,52.00 L53.52,53.00 M149.00,18.20 L150.00,18.91 M163.21,47.00 L163.00,46.46 M170.88,25.00 L171.00,25.27 M68.00,2.00 L68.46,3.00 M184.01,33.00 L184.06,32.00 M13.29,44.00 L13.32,45.00 M73.16,46.00 L73.00,46.46 M123.00,42.84 L123.39,42.00 M87.00,18.20 L88.00,18.00 M25.64,29.00 L25.00,28.10 M183.35,39.00 L183.38,38.00 M46.55,16.00 L46.03,15.00 M93.37,48.00 L93.76,49.00 M148.00,3.33 L147.54,3.00 M153.32,45.00 L153.16,46.00 M52.62,38.00 L52.65,39.00 M182.24,49.00 L182.63,48.00 M25.00,25.27 L25.12,25.00 M107.00,9.46 L106.71,9.00 M106.55,16.00 L106.03,15.00 M152.79,47.00 L153.00,47.36 M173.85,52.00 L173.52,53.00 M127.00,56.58 L126.00,56.32 M111.82,36.00 L112.00,36.30 M24.37,31.00 L25.00,30.02 M45.12,25.00 L46.00,24.00 M51.26,26.00 L51.32,27.00 M23.64,37.00 L24.00,36.30 M192.62,38.00 L192.65,39.00 M133.52,53.00 L133.00,53.98 M125.02,30.00 L125.64,29.00 M146.00,24.00 L146.76,23.00 M173.16,46.00 L173.00,46.46 M71.00,25.27 L71.26,26.00 M24.00,36.30 L24.18,36.00 M133.00,42.84 L133.07,43.00 M50.30,22.00 L50.00,22.39 M105.02,30.00 L105.64,29.00 M172.62,38.00 L172.65,39.00 M51.00,25.27 L51.26,26.00 M71.00,55.86 L70.72,56.00 M110.98,30.00 L111.00,30.02 M10.00,22.39 L9.24,23.00 M104.95,28.00 L104.68,27.00 M131.00,55.86 L130.72,56.00 M110.00,24.00 L110.88,25.00 M9.29,9.00 L9.00,9.46 M185.02,30.00 L185.64,29.00 M49.00,56.58 L48.00,56.67 M145.00,55.86 L144.00,55.13 M166.00,18.91 L167.00,18.20 M63.00,47.36 L63.21,47.00 M9.00,7.82 L9.15,8.00 M144.00,36.30 L144.18,36.00 M123.39,42.00 L123.96,41.00 M82.68,45.00 L82.71,44.00 M171.00,25.27 L171.26,26.00 M143.01,54.00 L143.00,53.98 M33.85,52.00 L33.52,53.00 M89.00,12.94 L89.09,13.00 M149.00,9.46 L148.00,10.00 M53.07,43.00 L53.29,44.00 M73.32,45.00 L73.16,46.00 M12.14,55.00 L12.00,55.13 M183.39,42.00 L183.96,41.00 M88.00,56.67 L87.00,56.58 M148.00,10.00 L147.00,9.46 M163.53,40.00 L163.35,39.00 M122.71,44.00 L122.93,43.00 M169.97,15.00 L169.45,16.00 M102.48,53.00 L102.15,52.00 M11.94,32.00 L11.99,33.00 M32.65,39.00 L32.47,40.00 M46.71,9.00 L46.85,8.00 M102.71,44.00 L102.93,43.00 M11.00,30.02 L11.63,31.00 M182.48,53.00 L182.15,52.00 M142.24,49.00 L142.63,48.00 M107.00,12.94 L108.00,12.67 M168.46,3.00 L168.00,3.33 M189.29,9.00 L189.00,9.46 M11.24,35.00 L11.82,36.00 M128.00,12.67 L129.00,12.94 M92.62,38.00 L92.65,39.00 M32.04,41.00 L32.61,42.00 M168.00,3.33 L167.54,3.00 M46.00,24.00 L46.76,23.00 M182.04,50.00 L182.24,49.00 M10.64,21.00 L10.30,22.00 M92.04,41.00 L92.61,42.00 M133.76,49.00 L133.96,50.00 M113.00,46.46 L112.79,47.00 M106.00,24.00 L106.76,23.00 M4.74,26.00 L5.00,25.27 M44.18,36.00 L44.76,35.00 M65.12,25.00 L66.00,24.00 M166.71,9.00 L166.85,8.00 M50.36,29.00 L50.98,30.00 M172.36,37.00 L172.62,38.00 M105.00,28.10 L104.95,28.00 M3.96,41.00 L3.53,40.00 M193.00,53.98 L192.99,54.00 M125.92,19.00 L126.00,18.91 M111.00,25.27 L111.26,26.00 M171.63,31.00 L171.94,32.00 M2.93,43.00 L3.00,42.84 M130.64,21.00 L130.30,22.00 M42.63,48.00 L43.00,47.36 M84.00,55.13 L83.86,55.00 M64.01,33.00 L64.06,32.00 M48.00,18.00 L49.00,18.20 M2.01,51.00 L2.04,50.00 M83.53,40.00 L83.35,39.00 M144.00,55.13 L143.86,55.00 M151.00,28.10 L150.36,29.00 M123.21,47.00 L123.00,46.46 M165.00,25.27 L165.12,25.00 M89.97,15.00 L89.45,16.00 M190.72,56.00 L190.00,56.32 M7.00,9.46 L6.71,9.00 M69.00,56.58 L68.00,56.67 M33.96,50.00 L33.99,51.00 M6.00,56.32 L5.28,56.00 M29.00,7.82 L29.15,8.00 M129.88,14.00 L129.97,15.00 M150.58,20.00 L150.64,21.00 M184.74,26.00 L185.00,25.27 M6.55,16.00 L6.03,15.00 M129.00,12.94 L129.09,13.00 M28.00,16.67 L27.00,16.38 M88.00,2.00 L88.46,3.00 M68.00,3.33 L67.54,3.00 M163.00,47.36 L163.21,47.00 M33.29,44.00 L33.32,45.00 M164.00,36.30 L164.18,36.00 M5.70,22.00 L5.36,21.00 M190.30,22.00 L190.00,22.39 M27.54,3.00 L28.00,2.00 M87.00,56.58 L86.00,56.32 M142.48,53.00 L142.15,52.00 M108.00,16.67 L107.00,16.38 M93.29,44.00 L93.32,45.00 M5.12,25.00 L6.00,24.00 M26.03,15.00 L26.12,14.00 M189.45,16.00 L189.00,16.38 M52.65,39.00 L52.47,40.00 M153.96,50.00 L153.99,51.00 M32.14,55.00 L32.00,55.13 M92.36,37.00 L92.62,38.00 M188.00,18.00 L189.00,18.20 M31.00,30.02 L31.63,31.00 M113.00,53.98 L112.99,54.00 M166.85,8.00 L167.00,7.82 M133.32,45.00 L133.16,46.00 M112.47,40.00 L112.04,41.00 M30.72,56.00 L30.00,56.32 M71.26,26.00 L71.32,27.00 M51.32,27.00 L51.05,28.00 M43.64,37.00 L44.00,36.30 M65.28,56.00 L65.00,55.86 M30.00,22.39 L29.24,23.00 M71.00,28.10 L70.36,29.00 M193.07,43.00 L193.29,44.00 M126.00,18.91 L127.00,18.20 M110.72,56.00 L110.00,56.32 M152.14,55.00 L152.00,55.13 M85.00,25.27 L85.12,25.00 M185.92,19.00 L186.00,18.91 M30.00,56.32 L29.00,56.58 M51.00,28.10 L50.36,29.00 M42.68,45.00 L42.71,44.00 M65.00,25.27 L65.12,25.00 M85.00,55.86 L84.00,55.13 M29.24,23.00 L30.00,24.00 M124.95,28.00 L124.68,27.00 M145.64,29.00 L145.00,28.10 M131.94,32.00 L131.99,33.00 M185.12,25.00 L186.00,24.00 M124.00,55.13 L123.86,55.00 M23.38,38.00 L23.64,37.00 M191.26,26.00 L191.32,27.00 M69.97,15.00 L69.45,16.00 M63.00,53.98 L62.48,53.00 M145.00,25.27 L145.12,25.00 M151.24,35.00 L151.82,36.00 M69.09,13.00 L69.88,14.00 M191.00,28.10 L190.36,29.00 M22.84,46.00 L22.68,45.00 M82.71,44.00 L82.93,43.00 M129.97,15.00 L129.45,16.00 M83.01,54.00 L83.00,53.98 M13.52,53.00 L13.00,53.98 M184.76,35.00 L184.23,34.00 M53.16,46.00 L53.00,46.46 M103.00,42.84 L103.39,42.00 M149.09,13.00 L149.88,14.00 M162.93,43.00 L163.00,42.84 M67.00,18.20 L68.00,18.00 M183.53,40.00 L183.35,39.00 M13.00,42.84 L13.07,43.00 M108.00,56.67 L107.00,56.58 M189.97,15.00 L189.45,16.00 M102.63,48.00 L103.00,47.36 M162.01,51.00 L162.04,50.00 M170.00,18.91 L170.08,19.00 M142.04,50.00 L142.24,49.00 M25.92,19.00 L26.00,18.91 M72.00,55.13 L71.00,55.86 M46.76,23.00 L46.00,22.39 M52.79,47.00 L53.00,47.36 M25.00,30.02 L25.02,30.00 M188.00,56.67 L187.00,56.58 M113.07,43.00 L113.29,44.00 M153.00,42.84 L153.07,43.00 M169.15,8.00 L169.29,9.00 M85.42,20.00 L85.92,19.00 M25.12,25.00 L26.00,24.00 M106.71,9.00 L106.85,8.00 M173.96,50.00 L173.99,51.00 M52.14,55.00 L52.00,55.13 M85.92,19.00 L86.00,18.91 M112.04,41.00 L112.61,42.00 M24.68,27.00 L24.74,26.00 M127.00,9.46 L126.71,9.00 M111.26,26.00 L111.32,27.00 M24.01,33.00 L24.06,32.00 M186.71,9.00 L186.85,8.00 M50.58,20.00 L50.64,21.00 M146.55,16.00 L146.03,15.00 M172.79,47.00 L173.00,47.36 M51.00,30.02 L51.63,31.00 M10.00,56.32 L9.00,56.58 M132.00,36.30 L132.36,37.00 M125.00,25.27 L125.12,25.00 M70.64,21.00 L70.30,22.00 M9.00,16.38 L8.00,16.67 M131.05,28.00 L131.00,28.10 M185.28,56.00 L185.00,55.86 M48.46,3.00 L48.00,3.33 M90.08,19.00 L90.58,20.00 M144.74,26.00 L145.00,25.27 M62.68,45.00 L62.71,44.00 M69.29,9.00 L69.00,9.46 M8.00,12.67 L9.00,12.94 M190.36,29.00 L190.98,30.00 M90.00,18.91 L90.08,19.00 M149.24,23.00 L150.00,24.00 M165.00,28.10 L164.95,28.00 M129.29,9.00 L129.00,9.46 M171.00,30.02 L171.63,31.00 M103.64,37.00 L104.00,36.30 M33.99,51.00 L33.85,52.00 M53.29,44.00 L53.32,45.00 M104.00,36.30 L104.18,36.00 M12.47,40.00 L12.04,41.00 M183.64,37.00 L184.00,36.30 M143.53,40.00 L143.35,39.00 M108.00,18.00 L109.00,18.20 M148.00,16.67 L147.00,16.38 M164.37,31.00 L165.00,30.02 M73.00,42.84 L73.07,43.00 M12.65,39.00 L12.47,40.00 M143.00,42.84 L143.39,42.00 M33.32,45.00 L33.16,46.00 M88.00,18.00 L89.00,18.20 M163.64,37.00 L164.00,36.30 M47.54,3.00 L48.00,2.00 M73.00,53.98 L72.99,54.00 M170.00,56.32 L169.00,56.58 M11.99,33.00 L11.77,34.00 M93.32,45.00 L93.16,46.00 M122.24,49.00 L122.63,48.00 M102.01,51.00 L102.04,50.00 M11.32,27.00 L11.05,28.00 M32.36,37.00 L32.62,38.00 M168.00,10.00 L167.00,9.46 M46.00,56.32 L45.28,56.00 M173.52,53.00 L173.00,53.98 M106.03,15.00 L106.12,14.00 M10.88,25.00 L11.00,25.27 M127.00,16.38 L126.55,16.00 M112.14,55.00 L112.00,55.13 M173.00,42.84 L173.07,43.00 M4.01,33.00 L4.06,32.00 M126.12,14.00 L126.91,13.00 M91.00,25.27 L91.26,26.00 M43.86,55.00 L43.01,54.00 M65.36,21.00 L65.42,20.00 M50.00,22.39 L49.24,23.00 M3.35,39.00 L3.38,38.00 M185.42,20.00 L185.92,19.00 M85.00,28.10 L84.95,28.00 M132.00,55.13 L131.00,55.86 M152.36,37.00 L152.62,38.00 M124.74,26.00 L125.00,25.27 M171.82,36.00 L172.00,36.30 M104.23,34.00 L104.01,33.00 M192.00,36.30 L192.36,37.00 M3.00,46.46 L2.84,46.00 M42.71,44.00 L42.93,43.00 M65.00,28.10 L64.95,28.00 M49.00,7.82 L49.15,8.00 M104.74,26.00 L105.00,25.27 M2.15,52.00 L2.01,51.00 M131.00,28.10 L130.36,29.00 M151.94,32.00 L151.99,33.00 M191.32,27.00 L191.05,28.00 M2.63,48.00 L3.00,47.36 M130.08,19.00 L130.58,20.00 M83.64,37.00 L84.00,36.30 M69.15,8.00 L69.29,9.00 M151.00,30.02 L151.63,31.00 M48.00,12.67 L49.00,12.94 M165.12,25.00 L166.00,24.00 M7.00,12.94 L8.00,12.67 M29.00,12.94 L29.09,13.00 M83.21,47.00 L83.00,46.46 M143.64,37.00 L144.00,36.30 M109.88,14.00 L109.97,15.00 M89.24,23.00 L90.00,24.00 M6.76,23.00 L6.00,22.39 M67.00,56.58 L66.00,56.32 M163.01,54.00 L163.00,53.98 M33.37,48.00 L33.76,49.00 M163.38,38.00 L163.64,37.00 M88.00,16.67 L87.00,16.38 M190.00,18.91 L190.08,19.00 M122.63,48.00 L123.00,47.36 M27.00,7.82 L28.00,7.33 M168.00,16.67 L167.00,16.38 M4.95,28.00 L4.68,27.00 M113.76,49.00 L113.96,50.00 M26.55,16.00 L26.03,15.00 M86.00,24.00 L86.76,23.00 M52.99,54.00 L52.14,55.00 M31.82,36.00 L32.00,36.30 M31.05,28.00 L31.00,28.10 M85.64,29.00 L85.00,28.10 M127.00,18.20 L128.00,18.00 M153.00,46.46 L152.79,47.00 M112.00,36.30 L112.36,37.00 M167.00,7.82 L168.00,7.33 M91.82,36.00 L92.00,36.30 M187.00,16.38 L186.55,16.00 M31.32,27.00 L31.05,28.00 M52.36,37.00 L52.62,38.00 M43.96,41.00 L43.53,40.00 M66.00,56.32 L65.28,56.00 M92.00,36.30 L92.36,37.00 M30.88,25.00 L31.00,25.27 M112.99,54.00 L112.14,55.00 M147.00,9.46 L146.71,9.00 M133.00,53.98 L132.99,54.00 M186.76,23.00 L186.00,22.39 M125.28,56.00 L125.00,55.86 M30.30,22.00 L30.00,22.39 M192.79,47.00 L193.00,47.36 M71.00,30.02 L71.63,31.00 M51.00,55.86 L50.72,56.00 M146.00,56.32 L145.28,56.00 M43.35,39.00 L43.38,38.00 M152.65,39.00 L152.47,40.00 M65.00,30.02 L65.02,30.00 M192.36,37.00 L192.62,38.00 M29.45,16.00 L29.00,16.38 M70.72,56.00 L70.00,56.32 M131.00,30.02 L131.63,31.00 M110.30,22.00 L110.00,22.39 M84.68,27.00 L84.74,26.00 M23.00,46.46 L22.84,46.00 M191.63,31.00 L191.94,32.00 M62.71,44.00 L62.93,43.00 M145.00,30.02 L145.02,30.00 M150.98,30.00 L151.00,30.02 M69.00,7.82 L69.15,8.00 M83.38,38.00 L83.64,37.00 M190.58,20.00 L190.64,21.00 M123.00,53.98 L122.48,53.00 M22.15,52.00 L22.01,51.00 M103.86,55.00 L103.01,54.00 M150.00,24.00 L150.88,25.00 M171.00,55.86 L170.72,56.00 M143.38,38.00 L143.64,37.00 M109.00,18.20 L110.00,18.91 M13.85,52.00 L13.52,53.00 M73.29,44.00 L73.32,45.00 M53.32,45.00 L53.16,46.00 M67.54,3.00 L68.00,2.00 M13.00,47.36 L13.37,48.00 M73.00,46.46 L72.79,47.00 M190.00,22.39 L189.24,23.00 M122.68,45.00 L122.71,44.00 M162.15,52.00 L162.01,51.00 M170.72,56.00 L170.00,56.32 M87.00,7.82 L88.00,7.33 M13.16,46.00 L13.00,46.46 M102.68,45.00 L102.71,44.00 M170.00,22.39 L169.24,23.00 M67.00,7.82 L68.00,7.33 M87.00,16.38 L86.55,16.00 M26.00,18.91 L27.00,18.20 M108.00,10.00 L107.00,9.46 M102.04,50.00 L102.24,49.00 M148.00,2.00 L148.46,3.00 M128.00,18.00 L129.00,18.20 M107.00,18.20 L108.00,18.00 M25.36,21.00 L25.42,20.00 M182.68,45.00 L182.71,44.00 M46.03,15.00 L46.12,14.00 M153.16,46.00 L153.00,46.46 M182.01,51.00 L182.04,50.00 M52.47,40.00 L52.04,41.00 M24.76,35.00 L24.23,34.00 M133.16,46.00 L133.00,46.46 M113.00,42.84 L113.07,43.00 M71.99,33.00 L71.77,34.00 M23.53,40.00 L23.35,39.00 M132.62,38.00 L132.65,39.00 M186.85,8.00 L187.00,7.82 M105.00,25.27 L105.12,25.00 M146.00,22.39 L145.70,22.00 M50.64,21.00 L50.30,22.00 M70.98,30.00 L71.00,30.02 M185.64,29.00 L185.00,28.10 M110.58,20.00 L110.64,21.00 M9.45,16.00 L9.00,16.38 M191.82,36.00 L192.00,36.30 M104.37,31.00 L105.00,30.02 M145.02,30.00 L145.64,29.00 M171.94,32.00 L171.99,33.00 M130.98,30.00 L131.00,30.02 M109.97,15.00 L109.45,16.00 M9.00,56.58 L8.00,56.67 M49.00,9.46 L48.00,10.00 M62.84,46.00 L62.68,45.00 M190.64,21.00 L190.30,22.00 M131.77,34.00 L131.24,35.00 M123.01,54.00 L123.00,53.98 M149.45,16.00 L149.00,16.38 M165.92,19.00 L166.00,18.91 M82.15,52.00 L82.01,51.00 M8.46,3.00 L8.00,3.33 M144.06,32.00 L144.37,31.00 M48.00,16.67 L47.00,16.38 M90.00,22.39 L89.24,23.00 M165.00,30.02 L165.02,30.00 M62.15,52.00 L62.01,51.00 M82.63,48.00 L83.00,47.36 M171.32,27.00 L171.05,28.00 M8.00,2.00 L8.46,3.00 M89.29,9.00 L89.00,9.46 M129.00,56.58 L128.00,56.67 M103.35,39.00 L103.38,38.00 M12.99,54.00 L12.14,55.00 M33.52,53.00 L33.00,53.98 M148.46,3.00 L148.00,3.33 M163.96,41.00 L163.53,40.00 M169.88,14.00 L169.97,15.00 M102.24,49.00 L102.63,48.00 M12.00,55.13 L11.00,55.86 M133.99,51.00 L133.85,52.00 M108.00,12.67 L109.00,12.94 M72.62,38.00 L72.65,39.00 M169.00,12.94 L169.09,13.00 M11.00,28.10 L10.36,29.00 M128.00,2.00 L128.46,3.00 M92.14,55.00 L92.00,55.13 M31.94,32.00 L31.99,33.00 M45.70,22.00 L45.36,21.00 M10.08,19.00 L10.58,20.00 M187.00,7.82 L188.00,7.33 M91.94,32.00 L91.99,33.00 M133.29,44.00 L133.32,45.00 M167.00,9.46 L166.71,9.00 M112.65,39.00 L112.47,40.00 M173.00,47.36 L173.37,48.00 M105.70,22.00 L105.36,21.00 M188.00,7.33 L189.00,7.82 M4.18,36.00 L4.76,35.00 M44.00,36.30 L44.18,36.00 M66.03,15.00 L66.12,14.00 M50.00,24.00 L50.88,25.00 M106.00,22.39 L105.70,22.00 M3.39,42.00 L3.96,41.00 M185.70,22.00 L185.36,21.00 M126.91,13.00 L127.00,12.94 M110.64,21.00 L110.30,22.00 M166.55,16.00 L166.03,15.00 M192.99,54.00 L192.14,55.00 M3.86,55.00 L3.01,54.00 M126.00,24.00 L126.76,23.00 M193.29,44.00 L193.32,45.00 M85.00,30.02 L85.02,30.00 M43.38,38.00 L43.64,37.00 M65.00,55.86 L64.00,55.13 M152.47,40.00 L152.04,41.00 M49.45,16.00 L49.00,16.38 M172.04,41.00 L172.61,42.00 M3.00,47.36 L3.21,47.00 M84.74,26.00 L85.00,25.27 M131.82,36.00 L132.00,36.30 M124.18,36.00 L124.76,35.00 M90.88,25.00 L91.00,25.27 M2.71,44.00 L2.93,43.00 M69.00,9.46 L68.00,10.00 M151.05,28.00 L151.00,28.10 M164.95,28.00 L164.68,27.00 M89.88,14.00 L89.97,15.00 M7.00,18.20 L8.00,18.00 M129.15,8.00 L129.29,9.00 M164.00,55.13 L163.86,55.00 M6.00,24.00 L6.76,23.00 M128.00,56.67 L127.00,56.58 M28.00,3.33 L27.54,3.00 M87.54,3.00 L88.00,2.00 M33.00,47.36 L33.37,48.00 M5.28,56.00 L5.00,55.86 M27.00,12.94 L28.00,12.67 M87.00,9.46 L86.71,9.00 M142.01,51.00 L142.04,50.00 M162.24,49.00 L162.63,48.00 M108.00,3.33 L107.54,3.00 M93.00,47.36 L93.37,48.00 M183.00,53.98 L182.48,53.00 M5.00,28.10 L4.95,28.00 M27.00,56.58 L26.00,56.32 M67.00,9.46 L66.71,9.00 M31.99,33.00 L31.77,34.00 M93.16,46.00 L93.00,46.46 M26.71,9.00 L26.85,8.00 M122.04,50.00 L122.24,49.00 M153.85,52.00 L153.52,53.00 M182.71,44.00 L182.93,43.00 M113.29,44.00 L113.32,45.00 M31.77,34.00 L31.24,35.00 M189.00,7.82 L189.15,8.00 M85.70,22.00 L85.36,21.00 M52.61,42.00 L53.00,42.84 M153.00,47.36 L153.37,48.00 M44.76,35.00 L44.23,34.00 M167.00,56.58 L166.00,56.32 M66.12,14.00 L66.91,13.00 M31.00,25.27 L31.26,26.00 M72.00,36.30 L72.36,37.00 M127.00,7.82 L128.00,7.33 M111.77,34.00 L111.24,35.00 M91.26,26.00 L91.32,27.00 M30.00,18.91 L30.08,19.00 M193.00,42.84 L193.07,43.00 M50.72,56.00 L50.00,56.32 M146.12,14.00 L146.91,13.00 M43.39,42.00 L43.96,41.00 M152.04,41.00 L152.61,42.00 M84.95,28.00 L84.68,27.00 M64.68,27.00 L64.74,26.00 M191.94,32.00 L191.99,33.00 M124.37,31.00 L125.00,30.02 M29.00,18.20 L30.00,18.91 M151.26,26.00 L151.32,27.00 M131.32,27.00 L131.05,28.00 M123.64,37.00 L124.00,36.30 M23.00,53.98 L22.48,53.00 M69.24,23.00 L70.00,24.00 M62.93,43.00 L63.00,42.84 M69.00,12.94 L69.09,13.00 M22.48,53.00 L22.15,52.00 M82.24,49.00 L82.63,48.00 M129.24,23.00 L130.00,24.00 M149.88,14.00 L149.97,15.00 M150.08,19.00 L150.58,20.00 M83.00,42.84 L83.39,42.00 M22.71,44.00 L22.93,43.00 M62.24,49.00 L62.63,48.00 M103.96,41.00 L103.53,40.00 M171.05,28.00 L171.00,28.10 M83.00,53.98 L82.48,53.00 M109.29,9.00 L109.00,9.46 M13.96,50.00 L13.99,51.00 M103.38,38.00 L103.64,37.00 M149.00,56.58 L148.00,56.67 M143.00,53.98 L142.48,53.00 M109.00,7.82 L109.15,8.00 M13.32,45.00 L13.16,46.00 M183.96,41.00 L183.53,40.00 M73.00,47.36 L73.37,48.00 M162.71,44.00 L162.93,43.00 M170.00,24.00 L170.88,25.00 M67.00,12.94 L68.00,12.67 M183.38,38.00 L183.64,37.00 M26.00,24.00 L26.76,23.00 M72.65,39.00 L72.47,40.00 M122.15,52.00 L122.01,51.00 M86.71,9.00 L86.85,8.00 M25.00,28.10 L24.95,28.00 M182.84,46.00 L182.68,45.00 M45.92,19.00 L46.00,18.91 M106.00,56.32 L105.28,56.00 M152.99,54.00 L152.14,55.00 M51.99,33.00 L51.77,34.00 M85.36,21.00 L85.42,20.00 M187.00,9.46 L186.71,9.00 M111.94,32.00 L111.99,33.00 M24.06,32.00 L24.37,31.00 M105.92,19.00 L106.00,18.91 M146.71,9.00 L146.85,8.00 M173.00,53.98 L172.99,54.00 M126.76,23.00 L126.00,22.39 M111.00,30.02 L111.63,31.00 M193.99,51.00 L193.85,52.00 M23.86,55.00 L23.01,54.00 M50.00,56.32 L49.00,56.58 M50.88,25.00 L51.00,25.27 M9.97,15.00 L9.45,16.00 M191.99,33.00 L191.77,34.00 M133.00,46.46 L132.79,47.00 M124.68,27.00 L124.74,26.00 M145.28,56.00 L145.00,55.86 M172.65,39.00 L172.47,40.00 M70.08,19.00 L70.58,20.00 M193.32,45.00 L193.16,46.00 M132.14,55.00 L132.00,55.13 M49.88,14.00 L49.97,15.00 M104.68,27.00 L104.74,26.00 M171.99,33.00 L171.77,34.00 M63.39,42.00 L63.96,41.00 M70.58,20.00 L70.64,21.00 M110.00,56.32 L109.00,56.58 M9.09,13.00 L9.88,14.00 M90.98,30.00 L91.00,30.02 M130.58,20.00 L130.64,21.00 M9.00,9.46 L8.00,10.00 M48.00,56.67 L47.00,56.58 M165.02,30.00 L165.64,29.00 M62.48,53.00 L62.15,52.00 M171.00,28.10 L170.36,29.00 M103.53,40.00 L103.35,39.00 M8.00,7.33 L9.00,7.82 M143.21,47.00 L143.00,46.46 M109.45,16.00 L109.00,16.38 M73.96,50.00 L73.99,51.00 M170.08,19.00 L170.58,20.00 M12.36,37.00 L12.62,38.00 M142.68,45.00 L142.71,44.00 M33.00,53.98 L32.99,54.00 M88.00,12.67 L89.00,12.94 M148.00,12.67 L149.00,12.94 M47.00,12.94 L48.00,12.67 M72.99,54.00 L72.14,55.00 M11.63,31.00 L11.94,32.00 M183.00,42.84 L183.39,42.00 M93.00,53.98 L92.99,54.00 M147.00,18.20 L148.00,18.00 M168.00,18.00 L169.00,18.20 M113.99,51.00 L113.85,52.00 M169.00,18.20 L170.00,18.91 M93.76,49.00 L93.96,50.00 M189.15,8.00 L189.29,9.00 M11.00,55.86 L10.72,56.00 M32.00,36.30 L32.36,37.00 M46.00,18.91 L47.00,18.20 M93.99,51.00 L93.85,52.00 M10.36,29.00 L10.98,30.00 M187.00,12.94 L188.00,12.67 M128.00,16.67 L127.00,16.38 M111.99,33.00 L111.77,34.00 M168.00,7.33 L169.00,7.82 M189.00,9.46 L188.00,10.00 M10.72,56.00 L10.00,56.32 M127.54,3.00 L128.00,2.00 M91.99,33.00 L91.77,34.00 M44.95,28.00 L44.68,27.00 M66.55,16.00 L66.03,15.00 M167.00,12.94 L168.00,12.67 M45.28,56.00 L45.00,55.86 M173.32,45.00 L173.16,46.00 M4.23,34.00 L4.01,33.00 M91.32,27.00 L91.05,28.00 M133.00,47.36 L133.37,48.00 M125.64,29.00 L125.00,28.10 M105.28,56.00 L105.00,55.86 M4.00,36.30 L4.18,36.00 M193.37,48.00 L193.76,49.00 M43.53,40.00 L43.35,39.00 M64.74,26.00 L65.00,25.27 M152.62,38.00 L152.65,39.00 M49.97,15.00 L49.45,16.00 M171.77,34.00 L171.24,35.00 M104.18,36.00 L104.76,35.00 M3.01,54.00 L3.00,53.98 M130.72,56.00 L130.00,56.32 M110.08,19.00 L110.58,20.00 M165.28,56.00 L165.00,55.86 M2.04,50.00 L2.24,49.00 M130.00,22.39 L129.24,23.00 M83.35,39.00 L83.38,38.00 M69.00,16.38 L68.00,16.67 M48.00,2.00 L48.46,3.00 M6.85,8.00 L7.00,7.82 M28.00,18.00 L29.00,18.20 M83.00,46.46 L82.84,46.00 M143.35,39.00 L143.38,38.00 M150.30,22.00 L150.00,22.39 M109.15,8.00 L109.29,9.00 M164.06,32.00 L164.37,31.00 M89.00,18.20 L90.00,18.91 M184.37,31.00 L185.00,30.02 M6.03,15.00 L6.12,14.00 M29.00,9.46 L28.00,10.00 M68.00,56.67 L67.00,56.58 M33.07,43.00 L33.29,44.00 M89.15,8.00 L89.29,9.00 M5.42,20.00 L5.92,19.00 M28.00,7.33 L29.00,7.82 M129.00,16.38 L128.00,16.67 M163.00,53.98 L162.48,53.00 M184.00,36.30 L184.18,36.00 M5.92,19.00 L6.00,18.91 M122.84,46.00 L122.68,45.00 M190.00,24.00 L190.88,25.00 M87.00,12.94 L88.00,12.67 M67.00,16.38 L66.55,16.00 M162.48,53.00 L162.15,52.00 M32.79,47.00 L33.00,47.36 M169.00,9.46 L168.00,10.00 M5.00,30.02 L5.02,30.00 M189.88,14.00 L189.97,15.00 M26.85,8.00 L27.00,7.82 M86.76,23.00 L86.00,22.39 M92.79,47.00 L93.00,47.36 M31.00,55.86 L30.72,56.00 M189.00,12.94 L189.09,13.00 M52.00,36.30 L52.36,37.00 M153.07,43.00 L153.29,44.00 M45.00,25.27 L45.12,25.00 M166.91,13.00 L167.00,12.94 M91.77,34.00 L91.24,35.00 M66.00,18.91 L67.00,18.20 M188.00,2.00 L188.46,3.00 M112.61,42.00 L113.00,42.84 M30.36,29.00 L30.98,30.00 M193.76,49.00 L193.96,50.00 M166.00,24.00 L166.76,23.00 M132.99,54.00 L132.14,55.00 M125.00,30.02 L125.02,30.00 M70.88,25.00 L71.00,25.27 M50.98,30.00 L51.00,30.02 M43.00,47.36 L43.21,47.00 M64.76,35.00 L64.23,34.00 M29.09,13.00 L29.88,14.00 M70.30,22.00 L70.00,22.39 M130.88,25.00 L131.00,25.27 M145.36,21.00 L145.42,20.00 M151.63,31.00 L151.94,32.00 M84.06,32.00 L84.37,31.00 M185.00,55.86 L184.00,55.13 M29.29,9.00 L29.00,9.46 M63.53,40.00 L63.35,39.00 M64.06,32.00 L64.37,31.00 M84.37,31.00 L85.00,30.02 M124.01,33.00 L124.06,32.00 M23.01,54.00 L23.00,53.98 M145.00,28.10 L144.95,28.00 M144.37,31.00 L145.00,30.02 M123.35,39.00 L123.38,38.00 M22.93,43.00 L23.00,42.84 M190.88,25.00 L191.00,25.27 M82.48,53.00 L82.15,52.00 M62.63,48.00 L63.00,47.36 M149.97,15.00 L149.45,16.00 M150.72,56.00 L150.00,56.32 M171.26,26.00 L171.32,27.00 M68.00,18.00 L69.00,18.20 M184.95,28.00 L184.68,27.00 M22.01,51.00 L22.04,50.00 M73.99,51.00 L73.85,52.00 M129.00,18.20 L130.00,18.91 M88.00,7.33 L89.00,7.82 M13.00,46.46 L12.79,47.00 M184.00,55.13 L183.86,55.00 M47.00,16.38 L46.55,16.00 M102.15,52.00 L102.01,51.00 M148.00,56.67 L147.00,56.58 M162.04,50.00 L162.24,49.00 M86.91,13.00 L87.00,12.94 M66.71,9.00 L66.85,8.00 M183.00,46.46 L182.84,46.00 M25.42,20.00 L25.92,19.00 M189.00,18.20 L190.00,18.91 M93.85,52.00 L93.52,53.00 M153.29,44.00 L153.32,45.00 M169.00,56.58 L168.00,56.67 M128.00,10.00 L127.00,9.46 M107.00,7.82 L108.00,7.33 M25.00,55.86 L24.00,55.13 M46.00,22.39 L45.70,22.00 M52.00,55.13 L51.00,55.86 M24.23,34.00 L24.01,33.00 "/>

<script>
let svgs = document.children[0];
let paths = Array.from(svgs.children).filter(function(c) {
    var orig = c.style.stroke;
    c.onmouseover = function() {
        c.style.stroke = "rgb(0, 0, 255)";
    };
    c.onmouseout = function () {
        c.style.stroke = orig;
    };
    c.onclick = function () {
        svgs.removeChild()
    }
});

for (let path of paths) {
    console.log(path);
}
</script></svg>