<svg xmlns="http://www.w3.org/2000/svg">
    <path fill-rule="evenodd" d="M136.60220336914063,0 L0,136.60220336914063 L8.541646957397461,141 L9,141.45835876464844 L10.697383880615234,145 L15.833736419677734,154 L20.76028060913086,161 L26.679475784301758,168 L35,175.993408203125 L41,180.7399139404297 L50,186.60220336914063 L58,190.75222778320313 L68,194.7416534423828 L79,197.7700958251953 L89,199.3931427001953 L99,199.9949951171875 L109,199.5941619873047 L119,198.1783905029297 L130,195.39381408691406 L139,192.0814208984375 L149,187.17205810546875 L157,182.16419982910156 L166,175.12625122070313 L172,169.39651489257813 L180,160 L184.79949951171875,153 L189.7996063232422,144 L193.67481994628906,135 L196.8245391845703,125 L198.86859130859375,115 L199.9199676513672,104 L199.81983947753906,94 L198.71168518066406,84 L196.56077575683594,74 L193.2950897216797,64 L189.3026123046875,55 L184.166259765625,46 L179.23971557617188,39 L173.32052612304688,32 L165,24.006593704223633 L159,19.260089874267578 L150,13.397804260253906 L141.45835876464844,9 L141,8.541646957397461 L136.60220336914063,0 "/>
</svg>