<svg xmlns="http://www.w3.org/2000/svg">
    <path fill-rule="evenodd" d="M1.0800354480743408,97 L1.1801658868789673,107 L2.2883224487304688,117 L4.439226150512695,127 L7.704910755157471,137 L11.697383880615234,146 L16.833736419677734,155 L21.76028060913086,162 L27.679475784301758,169 L36,176.993408203125 L42,181.7399139404297 L51,187.60220336914063 L59.54164505004883,192 L60,192.45835876464844 L61.697383880615234,196 L66.83373260498047,205 L71.7602767944336,212 L77.67947387695313,219 L86,226.993408203125 L92,231.7399139404297 L101,237.60220336914063 L109,241.75222778320313 L119,245.7416534423828 L130,248.7700958251953 L140,250.3931427001953 L150,250.9949951171875 L160,250.5941619873047 L170,249.1783905029297 L181,246.39381408691406 L190,243.0814208984375 L200,238.17205810546875 L208,233.16419982910156 L215.99227905273438,227 L222,221.41929626464844 L230.23971557617188,212 L231,211 L235.79949951171875,204 L240.7996063232422,195 L244.67481994628906,186 L247.8245391845703,176 L249.86859130859375,166 L250.9199676513672,155 L250.81983947753906,145 L249.71168518066406,135 L247.56077575683594,125 L244.2950897216797,115 L240.3026123046875,106 L235.166259765625,97 L230.23971557617188,90 L224.32052612304688,83 L216,75.006591796875 L210,70.26009368896484 L201,64.3978042602539 L192.45835876464844,60 L192,59.54164505004883 L190.3026123046875,56 L185.166259765625,47 L180.23971557617188,40 L174.32052612304688,33 L166,25.006593704223633 L160,20.260089874267578 L151,14.397804260253906 L143,10.247771263122559 L133,6.258347034454346 L122,3.2298998832702637 L112,1.606856107711792 L102,1.0049974918365479 L92,1.4058327674865723 L82,2.8216161727905273 L71,5.60618782043457 L62,8.91857624053955 L52,13.827948570251465 L44,18.835798263549805 L35,25.873756408691406 L29,31.603483200073242 L21,41 L16.20050048828125,48 L11.200397491455078,57 L7.325173377990723,66 L4.1754608154296875,76 L2.131411075592041,86 L1.0800354480743408,97 "/>
</svg>