<svg xmlns="http://www.w3.org/2000/svg">
<path d="M136.6022,0 L137,0.69644237 L137.17206,1 L137.72658,2 L138,2.504674 L138.2664,3 L138.79169,4 L139,4.4060473 L139.30261,5 L139.7996,6 L140,6.4132686 L140.28268,7 L140.75223,8 L141,8.541647 L141.45836,9 L142,9.247771 L143,9.7173195 L143.58673,10 L144,10.2003975 L145,10.697384 L145.59395,11 L146,11.208306 L147,11.733604 L147.49533,12 L148,12.273415 L149,12.827949 L149.30356,13 L150,13.397804 L151,13.982588 L151.02919,14 L152,14.5837555 L152.67677,15 L153,15.2005005 L154,15.833736 L154.2574,16 L155,16.483986 L155.77525,17 L156,17.150986 L157,17.835798 L157.2353,18 L158,18.538862 L158.64171,19 L159,19.26009 L160,20 L160,20 L161,20.76028 L161.3096,21 L162,21.54043 L162.57677,22 L163,22.34106 L163.80365,23 L164,23.162876 L164.99228,24 L165,24.006594 L166,24.873756 L166.14326,25 L167,25.76443 L167.2599,26 L168,26.679476 L168.34384,27 L169,27.619833 L169.39651,28 L170,28.586542 L170.4193,29 L171,29.5807 L171.41345,30 L172,30.603483 L172.38017,31 L173,31.656164 L173.32053,32 L174,32.74009 L174.23557,33 L175,33.856735 L175.12625,34 L175.99341,35 L176,35.007725 L176.83713,36 L177,36.19635 L177.65894,37 L178,37.423237 L178.45956,38 L179,38.690395 L179.23972,39 L180,40 L180,40 L180.73991,41 L181,41.358295 L181.46114,42 L182,42.764698 L182.1642,43 L182.84901,44 L183,44.224743 L183.51602,45 L184,45.7426 L184.16626,46 L184.7995,47 L185,47.323227 L185.41624,48 L186,48.970806 L186.01741,49 L186.6022,50 L187,50.69644 L187.17206,51 L187.72658,52 L188,52.504673 L188.2664,53 L188.79169,54 L189,54.406048 L189.30261,55 L189.7996,56 L190,56.41327 L190.28268,57 L190.75223,58 L191,58.541645 L191.2084,59 L191.65132,60 L192,60.809826 L192.08142,61 L192.49846,62 L192.9031,63 L193,63.24623 L193.29509,64 L193.67482,65 L194,65.88388 L194.04253,66 L194.39796,67 L194.74165,68 L195,68.77751 L195.07362,69 L195.39381,70 L195.70258,71 L196,72 L196,72 L196.28596,73 L196.56078,74 L196.82454,75 L197,75.69362 L197.07727,76 L197.319,77 L197.54993,78 L197.7701,79 L197.97958,80 L198,80.10247 L198.17839,81 L198.36662,82 L198.54437,83 L198.71169,84 L198.86859,85 L199,85.89649 L199.01515,86 L199.1514,87 L199.27737,88 L199.39314,89 L199.49873,90 L199.59416,91 L199.67947,92 L199.7547,93 L199.81984,94 L199.87492,95 L199.91997,96 L199.95499,97 L199.98,98 L199.995,99 L200,100 L199.995,101 L199.98,102 L199.95499,103 L199.91997,104 L199.87492,105 L199.81984,106 L199.7547,107 L199.67947,108 L199.59416,109 L199.49873,110 L199.39314,111 L199.27737,112 L199.1514,113 L199.01515,114 L199,114.10351 L198.86859,115 L198.71169,116 L198.54437,117 L198.36662,118 L198.17839,119 L198,119.89753 L197.97958,120 L197.7701,121 L197.54993,122 L197.319,123 L197.07727,124 L197,124.30638 L196.82454,125 L196.56078,126 L196.28596,127 L196,128 L196,128 L195.70258,129 L195.39381,130 L195.07362,131 L195,131.22249 L194.74165,132 L194.39796,133 L194.04253,134 L194,134.11612 L193.67482,135 L193.29509,136 L193,136.75377 L192.9031,137 L192.49846,138 L192.08142,139 L192,139.19017 L191.65132,140 L191.2084,141 L191,141.45836 L190.75223,142 L190.28268,143 L190,143.58673 L189.7996,144 L189.30261,145 L189,145.59395 L188.79169,146 L188.2664,147 L188,147.49533 L187.72658,148 L187.17206,149 L187,149.30356 L186.6022,150 L186.01741,151 L186,151.02919 L185.41624,152 L185,152.67677 L184.7995,153 L184.16626,154 L184,154.2574 L183.51602,155 L183,155.77525 L182.84901,156 L182.1642,157 L182,157.2353 L181.46114,158 L181,158.64171 L180.73991,159 L180,160 L180,160 L179.23972,161 L179,161.3096 L178.45956,162 L178,162.57677 L177.65894,163 L177,163.80365 L176.83713,164 L176,164.99228 L175.99341,165 L175.12625,166 L175,166.14326 L174.23557,167 L174,167.2599 L173.32053,168 L173,168.34384 L172.38017,169 L172,169.39651 L171.41345,170 L171,170.4193 L170.4193,171 L170,171.41345 L169.39651,172 L169,172.38017 L168.34384,173 L168,173.32053 L167.2599,174 L167,174.23557 L166.14326,175 L166,175.12625 L165,175.99341 L164.99228,176 L164,176.83713 L163.80365,177 L163,177.65894 L162.57677,178 L162,178.45956 L161.3096,179 L161,179.23972 L160,180 L160,180 L159,180.73991 L158.64171,181 L158,181.46114 L157.2353,182 L157,182.1642 L156,182.84901 L155.77525,183 L155,183.51602 L154.2574,184 L154,184.16626 L153,184.7995 L152.67677,185 L152,185.41624 L151.02919,186 L151,186.01741 L150,186.6022 L149.30356,187 L149,187.17206 L148,187.72658 L147.49533,188 L147,188.2664 L146,188.79169 L145.59395,189 L145,189.30261 L144,189.7996 L143.58673,190 L143,190.28268 L142,190.75223 L141.45836,191 L141,191.2084 L140,191.65132 L139.19017,192 L139,192.08142 L138,192.49846 L137,192.9031 L136.75377,193 L136,193.29509 L135,193.67482 L134.11612,194 L134,194.04253 L133,194.39796 L132,194.74165 L131.22249,195 L131,195.07362 L130,195.39381 L129,195.70258 L128,196 L128,196 L127,196.28596 L126,196.56078 L125,196.82454 L124.30638,197 L124,197.07727 L123,197.319 L122,197.54993 L121,197.7701 L120,197.97958 L119.89753,198 L119,198.17839 L118,198.36662 L117,198.54437 L116,198.71169 L115,198.86859 L114.10351,199 L114,199.01515 L113,199.1514 L112,199.27737 L111,199.39314 L110,199.49873 L109,199.59416 L108,199.67947 L107,199.7547 L106,199.81984 L105,199.87492 L104,199.91997 L103,199.95499 L102,199.98 L101,199.995 L100,200 L99,199.995 L98,199.98 L97,199.95499 L96,199.91997 L95,199.87492 L94,199.81984 L93,199.7547 L92,199.67947 L91,199.59416 L90,199.49873 L89,199.39314 L88,199.27737 L87,199.1514 L86,199.01515 L85.89649,199 L85,198.86859 L84,198.71169 L83,198.54437 L82,198.36662 L81,198.17839 L80.10247,198 L80,197.97958 L79,197.7701 L78,197.54993 L77,197.319 L76,197.07727 L75.69362,197 L75,196.82454 L74,196.56078 L73,196.28596 L72,196 L71,195.70258 L70,195.39381 L69,195.07362 L68.77751,195 L68,194.74165 L67,194.39796 L66,194.04253 L65.88388,194 L65,193.67482 L64,193.29509 L63.24623,193 L63,192.9031 L62,192.49846 L61,192.08142 L60.809822,192 L60,191.65132 L59,191.2084 L58.541645,191 L58,190.75223 L57,190.28268 L56.41327,190 L56,189.7996 L55,189.30261 L54.406048,189 L54,188.79169 L53,188.2664 L52.504673,188 L52,187.72658 L51,187.17206 L50.69644,187 L50,186.6022 L49,186.01741 L48.970806,186 L48,185.41624 L47.323227,185 L47,184.7995 L46,184.16626 L45.7426,184 L45,183.51602 L44.224743,183 L44,182.84901 L43,182.1642 L42.764698,182 L42,181.46114 L41.358295,181 L41,180.73991 L40,180 L39,179.23972 L38.690395,179 L38,178.45956 L37.423237,178 L37,177.65894 L36.19635,177 L36,176.83713 L35.007725,176 L35,175.99341 L34,175.12625 L33.856735,175 L33,174.23557 L32.74009,174 L32,173.32053 L31.656164,173 L31,172.38017 L30.603483,172 L30,171.41345 L29.5807,171 L29,170.4193 L28.586542,170 L28,169.39651 L27.619833,169 L27,168.34384 L26.679476,168 L26,167.2599 L25.76443,167 L25,166.14326 L24.873756,166 L24.006594,165 L24,164.99228 L23.162876,164 L23,163.80365 L22.34106,163 L22,162.57677 L21.540428,162 L21,161.3096 L20.76028,161 L20,160 L19.26009,159 L19,158.64171 L18.538862,158 L18,157.2353 L17.835798,157 L17.150986,156 L17,155.77525 L16.483986,155 L16,154.2574 L15.833736,154 L15.2005005,153 L15,152.67677 L14.5837555,152 L14,151.02919 L13.982588,151 L13.397804,150 L13,149.30356 L12.827949,149 L12.273415,148 L12,147.49533 L11.733604,147 L11.208306,146 L11,145.59395 L10.697384,145 L10.2003975,144 L10,143.58673 L9.7173195,143 L9.247771,142 L9,141.45836 L8.541647,141 L8,140.75223 L7,140.28268 L6.413268,140 L6,139.7996 L5,139.30261 L4.4060473,139 L4,138.79169 L3,138.2664 L2.504674,138 L2,137.72658 L1,137.17206 L0.69644237,137 L0,136.6022 L136.6022,0" fill="none" stroke="black" stroke-width="3"/>
</svg>