<svg xmlns="http://www.w3.org/2000/svg">
<path d="M136.6022,0 L141,8.541647 L141.45836,9 L150,13.397804 L159,19.26009 L165,24.006594 L173.32053,32 L179.23972,39 L184.16626,46 L189.30261,55 L193.29509,64 L196.56078,74 L198.71169,84 L199.81984,94 L199.91997,104 L198.86859,115 L196.82454,125 L193.67482,135 L189.7996,144 L184.7995,153 L180,160 L172,169.39651 L166,175.12625 L157,182.1642 L149,187.17206 L139,192.08142 L130,195.39381 L119,198.17839 L109,199.59416 L99,199.995 L89,199.39314 L79,197.7701 L68,194.74165 L58,190.75223 L50,186.6022 L41,180.73991 L35,175.99341 L26.679476,168 L20.76028,161 L15.833736,154 L10.697384,145 L9,141.45836 L8.541647,141 L0,136.6022 L136.6022,0" fill="none" stroke="black" stroke-width="3"/>
</svg>