<svg xmlns="http://www.w3.org/2000/svg">
    <path fill-rule="evenodd" d="M2.08,98.00 L2.18,108.00 L3.29,118.00 L5.44,128.00 L8.70,138.00 L12.70,147.00 L17.83,156.00 L22.76,163.00 L28.68,170.00 L37.00,177.99 L43.00,182.74 L52.00,188.60 L60.54,193.00 L61.00,193.46 L62.70,197.00 L67.83,206.00 L72.76,213.00 L78.68,220.00 L87.00,227.99 L93.00,232.74 L102.00,238.60 L110.00,242.75 L120.00,246.74 L131.00,249.77 L141.00,251.39 L151.00,251.99 L161.00,251.59 L171.00,250.18 L182.00,247.39 L191.00,244.08 L201.00,239.17 L209.00,234.16 L216.99,228.00 L223.00,222.42 L231.24,213.00 L232.00,212.00 L236.80,205.00 L241.80,196.00 L245.67,187.00 L248.82,177.00 L250.87,167.00 L251.92,156.00 L251.82,146.00 L250.71,136.00 L248.56,126.00 L245.30,116.00 L241.30,107.00 L236.17,98.00 L231.24,91.00 L225.32,84.00 L217.00,76.01 L211.00,71.26 L202.00,65.40 L193.46,61.00 L193.00,60.54 L191.30,57.00 L186.17,48.00 L181.24,41.00 L175.32,34.00 L167.00,26.01 L161.00,21.26 L152.00,15.40 L144.00,11.25 L134.00,7.26 L123.00,4.23 L113.00,2.61 L103.00,2.00 L93.00,2.41 L83.00,3.82 L72.00,6.61 L63.00,9.92 L53.00,14.83 L45.00,19.84 L36.00,26.87 L30.00,32.60 L22.00,42.00 L17.20,49.00 L12.20,58.00 L8.33,67.00 L5.18,77.00 L3.13,87.00 L2.08,98.00 "/>
</svg>