<svg xmlns="http://www.w3.org/2000/svg">
    <path fill-rule="evenodd" d="M1.08,97.00 L1.18,107.00 L2.29,117.00 L4.44,127.00 L7.70,137.00 L11.70,146.00 L16.83,155.00 L21.76,162.00 L27.68,169.00 L36.00,176.99 L42.00,181.74 L51.00,187.60 L59.54,192.00 L60.00,192.46 L61.70,196.00 L66.83,205.00 L71.76,212.00 L77.68,219.00 L86.00,226.99 L92.00,231.74 L101.00,237.60 L109.00,241.75 L119.00,245.74 L130.00,248.77 L140.00,250.39 L150.00,250.99 L160.00,250.59 L170.00,249.18 L181.00,246.39 L190.00,243.08 L200.00,238.17 L208.00,233.16 L215.99,227.00 L222.00,221.42 L230.24,212.00 L231.00,211.00 L235.80,204.00 L240.80,195.00 L244.67,186.00 L247.82,176.00 L249.87,166.00 L250.92,155.00 L250.82,145.00 L249.71,135.00 L247.56,125.00 L244.30,115.00 L240.30,106.00 L235.17,97.00 L230.24,90.00 L224.32,83.00 L216.00,75.01 L210.00,70.26 L201.00,64.40 L192.46,60.00 L192.00,59.54 L190.30,56.00 L185.17,47.00 L180.24,40.00 L174.32,33.00 L166.00,25.01 L160.00,20.26 L151.00,14.40 L143.00,10.25 L133.00,6.26 L122.00,3.23 L112.00,1.61 L102.00,1.00 L92.00,1.41 L82.00,2.82 L71.00,5.61 L62.00,8.92 L52.00,13.83 L44.00,18.84 L35.00,25.87 L29.00,31.60 L21.00,41.00 L16.20,48.00 L11.20,57.00 L7.33,66.00 L4.18,76.00 L2.13,86.00 L1.08,97.00 "/>
</svg>