<svg xmlns="http://www.w3.org/2000/svg">
    <path fill-rule="evenodd" style="fill: rgb(0, 0, 0); stroke: none; stroke-width: none;" d="M2.08,98.00 L2.18,108.00 L3.29,118.00 L5.44,128.00 L8.70,138.00 L12.70,147.00 L17.83,156.00 L22.76,163.00 L28.68,170.00 L37.00,177.99 L43.00,182.74 L52.00,188.60 L60.54,193.00 L61.00,193.46 L64.83,201.00 L69.84,209.00 L76.87,218.00 L82.60,224.00 L92.00,232.00 L99.00,236.80 L108.00,241.80 L117.00,245.67 L127.00,248.82 L137.00,250.87 L148.00,251.92 L158.00,251.82 L168.00,250.71 L178.00,248.56 L188.00,245.30 L197.00,241.30 L206.00,236.17 L213.00,231.24 L221.00,224.38 L229.00,215.80 L229.00,215.80 L232.00,212.00 L236.80,205.00 L241.80,196.00 L245.67,187.00 L248.82,177.00 L250.87,167.00 L251.92,156.00 L251.82,146.00 L250.71,136.00 L248.56,126.00 L245.30,116.00 L241.30,107.00 L236.17,98.00 L231.24,91.00 L225.32,84.00 L217.00,76.01 L211.00,71.26 L202.00,65.40 L193.46,61.00 L193.00,60.54 L191.30,57.00 L186.17,48.00 L181.24,41.00 L175.32,34.00 L167.00,26.01 L161.00,21.26 L152.00,15.40 L144.00,11.25 L134.00,7.26 L123.00,4.23 L113.00,2.61 L103.00,2.00 L93.00,2.41 L83.00,3.82 L72.00,6.61 L63.00,9.92 L53.00,14.83 L45.00,19.84 L36.00,26.87 L30.00,32.60 L22.00,42.00 L17.20,49.00 L12.20,58.00 L8.33,67.00 L5.18,77.00 L3.13,87.00 L2.08,98.00 "/>

<script>
let paths = Array.from(document.children[0].children).filter(function(c) {
    var orig = c.style.stroke;
    c.onmouseover = function() {
        c.style.stroke = "rgb(0, 0, 255)";
    };
    c.onmouseout = function () {
        c.style.stroke = orig;
    };
});

for (let path of paths) {
    console.log(path);
}
</script></svg>