<svg xmlns="http://www.w3.org/2000/svg">
    <path fill-rule="evenodd" style="fill: rgb(0, 0, 0); stroke: none; stroke-width: none;" d="M243.20840,111.00000 L243.00000,110.54165 L242.75223,110.00000 L242.28268,109.00000 L242.00000,108.41327 L241.79961,108.00000 L241.30261,107.00000 L241.00000,106.40604 L240.79169,106.00000 L240.26640,105.00000 L240.00000,104.50468 L239.72658,104.00000 L239.17206,103.00000 L239.00000,102.69644 L238.60220,102.00000 L238.01741,101.00000 L238.00000,100.97080 L237.41624,100.00000 L237.00000,99.32323 L236.79950,99.00000 L236.16626,98.00000 L236.00000,97.74260 L235.51602,97.00000 L235.00000,96.22474 L234.84901,96.00000 L234.16420,95.00000 L234.00000,94.76469 L233.46114,94.00000 L233.00000,93.35830 L232.73991,93.00000 L232.00000,92.00000 L231.23972,91.00000 L231.00000,90.69040 L230.45956,90.00000 L230.00000,89.42323 L229.65894,89.00000 L229.00000,88.19635 L228.83713,88.00000 L228.00000,87.00772 L227.99341,87.00000 L227.12625,86.00000 L227.00000,85.85674 L226.23557,85.00000 L226.00000,84.74009 L225.32053,84.00000 L225.00000,83.65617 L224.38017,83.00000 L224.00000,82.60349 L223.41345,82.00000 L223.00000,81.58070 L222.41930,81.00000 L222.00000,80.58654 L221.39651,80.00000 L221.00000,79.61983 L220.34384,79.00000 L220.00000,78.67947 L219.25990,78.00000 L219.00000,77.76443 L218.14326,77.00000 L218.00000,76.87376 L217.00000,76.00659 L216.99228,76.00000 L216.00000,75.16288 L215.80365,75.00000 L215.00000,74.34106 L214.57677,74.00000 L214.00000,73.54043 L213.30960,73.00000 L213.00000,72.76028 L212.00000,72.00000 L211.00000,71.26009 L210.64171,71.00000 L210.00000,70.53886 L209.23531,70.00000 L209.00000,69.83580 L208.00000,69.15099 L207.77525,69.00000 L207.00000,68.48399 L206.25740,68.00000 L206.00000,67.83373 L205.00000,67.20050 L204.67677,67.00000 L204.00000,66.58376 L203.02919,66.00000 L203.00000,65.98259 L202.00000,65.39780 L201.30356,65.00000 L201.00000,64.82795 L200.00000,64.27341 L199.49533,64.00000 L199.00000,63.73360 L198.00000,63.20831 L197.59395,63.00000 L197.00000,62.69738 L196.00000,62.20040 L195.58673,62.00000 L195.00000,61.71732 L194.00000,61.24777 L193.45836,61.00000 L193.00000,60.54165 L192.75223,60.00000 L192.28268,59.00000 L192.00000,58.41327 L191.79961,58.00000 L191.30261,57.00000 L191.00000,56.40605 L190.79169,56.00000 L190.26640,55.00000 L190.00000,54.50467 L189.72658,54.00000 L189.17206,53.00000 L189.00000,52.69644 L188.60220,52.00000 L188.01741,51.00000 L188.00000,50.97081 L187.41624,50.00000 L187.00000,49.32323 L186.79950,49.00000 L186.16626,48.00000 L186.00000,47.74260 L185.51602,47.00000 L185.00000,46.22474 L184.84901,46.00000 L184.16420,45.00000 L184.00000,44.76470 L183.46114,44.00000 L183.00000,43.35830 L182.73991,43.00000 L182.00000,42.00000 L181.23972,41.00000 L181.00000,40.69040 L180.45956,40.00000 L180.00000,39.42324 L179.65894,39.00000 L179.00000,38.19635 L178.83713,38.00000 L178.00000,37.00772 L177.99341,37.00000 L177.12625,36.00000 L177.00000,35.85674 L176.23557,35.00000 L176.00000,34.74009 L175.32053,34.00000 L175.00000,33.65616 L174.38017,33.00000 L174.00000,32.60348 L173.41345,32.00000 L173.00000,31.58070 L172.41930,31.00000 L172.00000,30.58654 L171.39651,30.00000 L171.00000,29.61983 L170.34384,29.00000 L170.00000,28.67948 L169.25990,28.00000 L169.00000,27.76443 L168.14326,27.00000 L168.00000,26.87376 L167.00000,26.00659 L166.99228,26.00000 L166.00000,25.16288 L165.80365,25.00000 L165.00000,24.34106 L164.57677,24.00000 L164.00000,23.54043 L163.30960,23.00000 L163.00000,22.76028 L162.00000,22.00000 L161.00000,21.26009 L160.64171,21.00000 L160.00000,20.53886 L159.23531,20.00000 L159.00000,19.83580 L158.00000,19.15099 L157.77525,19.00000 L157.00000,18.48399 L156.25740,18.00000 L156.00000,17.83374 L155.00000,17.20050 L154.67677,17.00000 L154.00000,16.58376 L153.02919,16.00000 L153.00000,15.98259 L152.00000,15.39780 L151.30356,15.00000 L151.00000,14.82795 L150.00000,14.27341 L149.49533,14.00000 L149.00000,13.73360 L148.00000,13.20831 L147.59395,13.00000 L147.00000,12.69738 L146.00000,12.20040 L145.58673,12.00000 L145.00000,11.71732 L144.00000,11.24777 L143.45836,11.00000 L143.00000,10.79159 L142.00000,10.34869 L141.19017,10.00000 L141.00000,9.91858 L140.00000,9.50155 L139.00000,9.09689 L138.75377,9.00000 L138.00000,8.70491 L137.00000,8.32517 L136.11612,8.00000 L136.00000,7.95748 L135.00000,7.60204 L134.00000,7.25835 L133.22249,7.00000 L133.00000,6.92638 L132.00000,6.60619 L131.00000,6.29743 L130.00000,6.00000 L129.00000,5.71404 L128.00000,5.43923 L127.00000,5.17546 L126.30638,5.00000 L126.00000,4.92273 L125.00000,4.68099 L124.00000,4.45007 L123.00000,4.22990 L122.00000,4.02041 L121.89753,4.00000 L121.00000,3.82162 L120.00000,3.63338 L119.00000,3.45563 L118.00000,3.28832 L117.00000,3.13141 L116.10351,3.00000 L116.00000,2.98485 L115.00000,2.84861 L114.00000,2.72262 L113.00000,2.60686 L112.00000,2.50127 L111.00000,2.40583 L110.00000,2.32052 L109.00000,2.24530 L108.00000,2.18017 L107.00000,2.12508 L106.00000,2.08004 L105.00000,2.04501 L104.00000,2.02000 L103.00000,2.00500 L102.00000,2.00000 L101.00000,2.00500 L100.00000,2.02000 L99.00000,2.04501 L98.00000,2.08004 L97.00000,2.12508 L96.00000,2.18017 L95.00000,2.24530 L94.00000,2.32052 L93.00000,2.40583 L92.00000,2.50127 L91.00000,2.60686 L90.00000,2.72262 L89.00000,2.84861 L88.00000,2.98485 L87.89649,3.00000 L87.00000,3.13141 L86.00000,3.28832 L85.00000,3.45563 L84.00000,3.63338 L83.00000,3.82162 L82.10247,4.00000 L82.00000,4.02041 L81.00000,4.22990 L80.00000,4.45007 L79.00000,4.68099 L78.00000,4.92273 L77.69362,5.00000 L77.00000,5.17546 L76.00000,5.43923 L75.00000,5.71404 L74.00000,6.00000 L73.00000,6.29743 L72.00000,6.60619 L71.00000,6.92638 L70.77751,7.00000 L70.00000,7.25835 L69.00000,7.60204 L68.00000,7.95748 L67.88388,8.00000 L67.00000,8.32517 L66.00000,8.70491 L65.24623,9.00000 L65.00000,9.09689 L64.00000,9.50155 L63.00000,9.91858 L62.80982,10.00000 L62.00000,10.34868 L61.00000,10.79159 L60.54165,11.00000 L60.00000,11.24777 L59.00000,11.71732 L58.41327,12.00000 L58.00000,12.20040 L57.00000,12.69738 L56.40605,13.00000 L56.00000,13.20831 L55.00000,13.73360 L54.50467,14.00000 L54.00000,14.27341 L53.00000,14.82795 L52.69644,15.00000 L52.00000,15.39780 L51.00000,15.98259 L50.97081,16.00000 L50.00000,16.58376 L49.32323,17.00000 L49.00000,17.20050 L48.00000,17.83374 L47.74260,18.00000 L47.00000,18.48399 L46.22474,19.00000 L46.00000,19.15099 L45.00000,19.83580 L44.76470,20.00000 L44.00000,20.53886 L43.35830,21.00000 L43.00000,21.26009 L42.00000,22.00000 L41.00000,22.76028 L40.69040,23.00000 L40.00000,23.54043 L39.42324,24.00000 L39.00000,24.34106 L38.19635,25.00000 L38.00000,25.16288 L37.00772,26.00000 L37.00000,26.00659 L36.00000,26.87376 L35.85674,27.00000 L35.00000,27.76443 L34.74009,28.00000 L34.00000,28.67948 L33.65616,29.00000 L33.00000,29.61983 L32.60348,30.00000 L32.00000,30.58654 L31.58070,31.00000 L31.00000,31.58070 L30.58654,32.00000 L30.00000,32.60348 L29.61983,33.00000 L29.00000,33.65616 L28.67948,34.00000 L28.00000,34.74009 L27.76443,35.00000 L27.00000,35.85674 L26.87376,36.00000 L26.00659,37.00000 L26.00000,37.00772 L25.16288,38.00000 L25.00000,38.19635 L24.34106,39.00000 L24.00000,39.42324 L23.54043,40.00000 L23.00000,40.69040 L22.76028,41.00000 L22.00000,42.00000 L21.26009,43.00000 L21.00000,43.35830 L20.53886,44.00000 L20.00000,44.76470 L19.83580,45.00000 L19.15099,46.00000 L19.00000,46.22474 L18.48399,47.00000 L18.00000,47.74260 L17.83374,48.00000 L17.20050,49.00000 L17.00000,49.32323 L16.58376,50.00000 L16.00000,50.97081 L15.98259,51.00000 L15.39780,52.00000 L15.00000,52.69644 L14.82795,53.00000 L14.27341,54.00000 L14.00000,54.50467 L13.73360,55.00000 L13.20831,56.00000 L13.00000,56.40605 L12.69738,57.00000 L12.20040,58.00000 L12.00000,58.41327 L11.71732,59.00000 L11.24777,60.00000 L11.00000,60.54165 L10.79159,61.00000 L10.34868,62.00000 L10.00000,62.80983 L9.91858,63.00000 L9.50155,64.00000 L9.09689,65.00000 L9.00000,65.24623 L8.70491,66.00000 L8.32517,67.00000 L8.00000,67.88388 L7.95748,68.00000 L7.60204,69.00000 L7.25835,70.00000 L7.00000,70.77751 L6.92638,71.00000 L6.60619,72.00000 L6.29743,73.00000 L6.00000,74.00000 L5.71404,75.00000 L5.43923,76.00000 L5.17546,77.00000 L5.00000,77.69362 L4.92273,78.00000 L4.68099,79.00000 L4.45007,80.00000 L4.22990,81.00000 L4.02041,82.00000 L4.00000,82.10247 L3.82162,83.00000 L3.63338,84.00000 L3.45563,85.00000 L3.28832,86.00000 L3.13141,87.00000 L3.00000,87.89649 L2.98485,88.00000 L2.84861,89.00000 L2.72262,90.00000 L2.60686,91.00000 L2.50127,92.00000 L2.40583,93.00000 L2.32052,94.00000 L2.24530,95.00000 L2.18017,96.00000 L2.12508,97.00000 L2.08004,98.00000 L2.04501,99.00000 L2.02000,100.00000 L2.00500,101.00000 L2.00000,102.00000 L2.00500,103.00000 L2.02000,104.00000 L2.04501,105.00000 L2.08004,106.00000 L2.12508,107.00000 L2.18017,108.00000 L2.24530,109.00000 L2.32052,110.00000 L2.40583,111.00000 L2.50127,112.00000 L2.60686,113.00000 L2.72262,114.00000 L2.84861,115.00000 L2.98485,116.00000 L3.00000,116.10351 L3.13141,117.00000 L3.28832,118.00000 L3.45563,119.00000 L3.63338,120.00000 L3.82162,121.00000 L4.00000,121.89753 L4.02041,122.00000 L4.22990,123.00000 L4.45007,124.00000 L4.68099,125.00000 L4.92273,126.00000 L5.00000,126.30638 L5.17546,127.00000 L5.43923,128.00000 L5.71404,129.00000 L6.00000,130.00000 L6.29743,131.00000 L6.60619,132.00000 L6.92638,133.00000 L7.00000,133.22249 L7.25835,134.00000 L7.60204,135.00000 L7.95748,136.00000 L8.00000,136.11612 L8.32517,137.00000 L8.70491,138.00000 L9.00000,138.75377 L9.09689,139.00000 L9.50155,140.00000 L9.91858,141.00000 L10.00000,141.19017 L10.34869,142.00000 L10.79159,143.00000 L11.00000,143.45836 L11.24777,144.00000 L11.71732,145.00000 L12.00000,145.58673 L12.20040,146.00000 L12.69738,147.00000 L13.00000,147.59395 L13.20831,148.00000 L13.73360,149.00000 L14.00000,149.49533 L14.27341,150.00000 L14.82795,151.00000 L15.00000,151.30356 L15.39780,152.00000 L15.98259,153.00000 L16.00000,153.02919 L16.58376,154.00000 L17.00000,154.67677 L17.20050,155.00000 L17.83374,156.00000 L18.00000,156.25740 L18.48399,157.00000 L19.00000,157.77525 L19.15099,158.00000 L19.83580,159.00000 L20.00000,159.23531 L20.53886,160.00000 L21.00000,160.64171 L21.26009,161.00000 L22.00000,162.00000 L22.76028,163.00000 L23.00000,163.30960 L23.54043,164.00000 L24.00000,164.57677 L24.34106,165.00000 L25.00000,165.80365 L25.16288,166.00000 L26.00000,166.99228 L26.00659,167.00000 L26.87376,168.00000 L27.00000,168.14326 L27.76443,169.00000 L28.00000,169.25990 L28.67948,170.00000 L29.00000,170.34384 L29.61983,171.00000 L30.00000,171.39651 L30.58654,172.00000 L31.00000,172.41930 L31.58070,173.00000 L32.00000,173.41345 L32.60348,174.00000 L33.00000,174.38017 L33.65616,175.00000 L34.00000,175.32053 L34.74009,176.00000 L35.00000,176.23557 L35.85674,177.00000 L36.00000,177.12625 L37.00000,177.99341 L37.00772,178.00000 L38.00000,178.83713 L38.19635,179.00000 L39.00000,179.65894 L39.42324,180.00000 L40.00000,180.45956 L40.69040,181.00000 L41.00000,181.23972 L42.00000,182.00000 L43.00000,182.73991 L43.35830,183.00000 L44.00000,183.46114 L44.76470,184.00000 L45.00000,184.16420 L46.00000,184.84901 L46.22474,185.00000 L47.00000,185.51602 L47.74260,186.00000 L48.00000,186.16626 L49.00000,186.79950 L49.32323,187.00000 L50.00000,187.41624 L50.97081,188.00000 L51.00000,188.01741 L52.00000,188.60220 L52.69644,189.00000 L53.00000,189.17206 L54.00000,189.72658 L54.50467,190.00000 L55.00000,190.26640 L56.00000,190.79169 L56.40605,191.00000 L57.00000,191.30261 L58.00000,191.79961 L58.41327,192.00000 L59.00000,192.28268 L60.00000,192.75223 L60.54165,193.00000 L61.00000,193.45836 L61.24777,194.00000 L61.71732,195.00000 L62.00000,195.58673 L62.20040,196.00000 L62.69738,197.00000 L63.00000,197.59395 L63.20831,198.00000 L63.73360,199.00000 L64.00000,199.49533 L64.27341,200.00000 L64.82795,201.00000 L65.00000,201.30356 L65.39780,202.00000 L65.98259,203.00000 L66.00000,203.02919 L66.58376,204.00000 L67.00000,204.67677 L67.20050,205.00000 L67.83373,206.00000 L68.00000,206.25740 L68.48399,207.00000 L69.00000,207.77525 L69.15099,208.00000 L69.83580,209.00000 L70.00000,209.23531 L70.53886,210.00000 L71.00000,210.64171 L71.26009,211.00000 L72.00000,212.00000 L72.76028,213.00000 L73.00000,213.30960 L73.54043,214.00000 L74.00000,214.57677 L74.34106,215.00000 L75.00000,215.80365 L75.16288,216.00000 L76.00000,216.99228 L76.00659,217.00000 L76.87376,218.00000 L77.00000,218.14326 L77.76443,219.00000 L78.00000,219.25990 L78.67947,220.00000 L79.00000,220.34384 L79.61983,221.00000 L80.00000,221.39651 L80.58654,222.00000 L81.00000,222.41930 L81.58070,223.00000 L82.00000,223.41345 L82.60349,224.00000 L83.00000,224.38017 L83.65617,225.00000 L84.00000,225.32053 L84.74009,226.00000 L85.00000,226.23557 L85.85674,227.00000 L86.00000,227.12625 L87.00000,227.99341 L87.00772,228.00000 L88.00000,228.83713 L88.19635,229.00000 L89.00000,229.65894 L89.42323,230.00000 L90.00000,230.45956 L90.69040,231.00000 L91.00000,231.23972 L92.00000,232.00000 L93.00000,232.73991 L93.35830,233.00000 L94.00000,233.46114 L94.76469,234.00000 L95.00000,234.16420 L96.00000,234.84901 L96.22474,235.00000 L97.00000,235.51602 L97.74260,236.00000 L98.00000,236.16626 L99.00000,236.79950 L99.32323,237.00000 L100.00000,237.41624 L100.97080,238.00000 L101.00000,238.01741 L102.00000,238.60220 L102.69644,239.00000 L103.00000,239.17206 L104.00000,239.72658 L104.50468,240.00000 L105.00000,240.26640 L106.00000,240.79169 L106.40604,241.00000 L107.00000,241.30261 L108.00000,241.79961 L108.41327,242.00000 L109.00000,242.28268 L110.00000,242.75223 L110.54165,243.00000 L111.00000,243.20840 L112.00000,243.65132 L112.80982,244.00000 L113.00000,244.08142 L114.00000,244.49846 L115.00000,244.90311 L115.24623,245.00000 L116.00000,245.29509 L117.00000,245.67482 L117.88388,246.00000 L118.00000,246.04253 L119.00000,246.39796 L120.00000,246.74165 L120.77751,247.00000 L121.00000,247.07362 L122.00000,247.39381 L123.00000,247.70258 L124.00000,248.00000 L125.00000,248.28596 L126.00000,248.56078 L127.00000,248.82454 L127.69362,249.00000 L128.00000,249.07727 L129.00000,249.31900 L130.00000,249.54993 L131.00000,249.77010 L132.00000,249.97958 L132.10246,250.00000 L133.00000,250.17839 L134.00000,250.36662 L135.00000,250.54437 L136.00000,250.71169 L137.00000,250.86859 L137.89650,251.00000 L138.00000,251.01515 L139.00000,251.15140 L140.00000,251.27737 L141.00000,251.39314 L142.00000,251.49873 L143.00000,251.59416 L144.00000,251.67947 L145.00000,251.75470 L146.00000,251.81984 L147.00000,251.87492 L148.00000,251.91997 L149.00000,251.95499 L150.00000,251.98000 L151.00000,251.99500 L152.00000,252.00000 L153.00000,251.99500 L154.00000,251.98000 L155.00000,251.95499 L156.00000,251.91997 L157.00000,251.87492 L158.00000,251.81984 L159.00000,251.75470 L160.00000,251.67947 L161.00000,251.59416 L162.00000,251.49873 L163.00000,251.39314 L164.00000,251.27737 L165.00000,251.15140 L166.00000,251.01515 L166.10350,251.00000 L167.00000,250.86859 L168.00000,250.71169 L169.00000,250.54437 L170.00000,250.36662 L171.00000,250.17839 L171.89754,250.00000 L172.00000,249.97958 L173.00000,249.77010 L174.00000,249.54993 L175.00000,249.31900 L176.00000,249.07727 L176.30638,249.00000 L177.00000,248.82454 L178.00000,248.56078 L179.00000,248.28596 L180.00000,248.00000 L181.00000,247.70258 L182.00000,247.39381 L183.00000,247.07362 L183.22249,247.00000 L184.00000,246.74165 L185.00000,246.39796 L186.00000,246.04253 L186.11612,246.00000 L187.00000,245.67482 L188.00000,245.29509 L188.75377,245.00000 L189.00000,244.90311 L190.00000,244.49846 L191.00000,244.08142 L191.19017,244.00000 L192.00000,243.65132 L193.00000,243.20840 L193.45836,243.00000 L194.00000,242.75223 L195.00000,242.28268 L195.58673,242.00000 L196.00000,241.79961 L197.00000,241.30261 L197.59395,241.00000 L198.00000,240.79169 L199.00000,240.26640 L199.49533,240.00000 L200.00000,239.72658 L201.00000,239.17206 L201.30356,239.00000 L202.00000,238.60220 L203.00000,238.01741 L203.02919,238.00000 L204.00000,237.41624 L204.67677,237.00000 L205.00000,236.79950 L206.00000,236.16626 L206.25740,236.00000 L207.00000,235.51602 L207.77525,235.00000 L208.00000,234.84901 L209.00000,234.16420 L209.23531,234.00000 L210.00000,233.46114 L210.64171,233.00000 L211.00000,232.73991 L212.00000,232.00000 L213.00000,231.23972 L213.30960,231.00000 L214.00000,230.45956 L214.57677,230.00000 L215.00000,229.65894 L215.80365,229.00000 L216.00000,228.83713 L216.99228,228.00000 L217.00000,227.99341 L218.00000,227.12625 L218.14326,227.00000 L219.00000,226.23557 L219.25990,226.00000 L220.00000,225.32053 L220.34384,225.00000 L221.00000,224.38017 L221.39651,224.00000 L222.00000,223.41345 L222.41930,223.00000 L223.00000,222.41930 L223.41345,222.00000 L224.00000,221.39651 L224.38017,221.00000 L225.00000,220.34384 L225.32053,220.00000 L226.00000,219.25990 L226.23557,219.00000 L227.00000,218.14326 L227.12625,218.00000 L227.99341,217.00000 L228.00000,216.99228 L228.83713,216.00000 L229.00000,215.80365 L229.65894,215.00000 L230.00000,214.57677 L230.45956,214.00000 L231.00000,213.30960 L231.23972,213.00000 L232.00000,212.00000 L232.73991,211.00000 L233.00000,210.64171 L233.46114,210.00000 L234.00000,209.23531 L234.16420,209.00000 L234.84901,208.00000 L235.00000,207.77525 L235.51602,207.00000 L236.00000,206.25740 L236.16626,206.00000 L236.79950,205.00000 L237.00000,204.67677 L237.41624,204.00000 L238.00000,203.02919 L238.01741,203.00000 L238.60220,202.00000 L239.00000,201.30356 L239.17206,201.00000 L239.72658,200.00000 L240.00000,199.49533 L240.26640,199.00000 L240.79169,198.00000 L241.00000,197.59395 L241.30261,197.00000 L241.79961,196.00000 L242.00000,195.58673 L242.28268,195.00000 L242.75223,194.00000 L243.00000,193.45836 L243.20840,193.00000 L243.65132,192.00000 L244.00000,191.19017 L244.08142,191.00000 L244.49846,190.00000 L244.90311,189.00000 L245.00000,188.75377 L245.29509,188.00000 L245.67482,187.00000 L246.00000,186.11612 L246.04253,186.00000 L246.39796,185.00000 L246.74165,184.00000 L247.00000,183.22249 L247.07362,183.00000 L247.39381,182.00000 L247.70258,181.00000 L248.00000,180.00000 L248.28596,179.00000 L248.56078,178.00000 L248.82454,177.00000 L249.00000,176.30638 L249.07727,176.00000 L249.31900,175.00000 L249.54993,174.00000 L249.77010,173.00000 L249.97958,172.00000 L250.00000,171.89754 L250.17839,171.00000 L250.36662,170.00000 L250.54437,169.00000 L250.71169,168.00000 L250.86859,167.00000 L251.00000,166.10350 L251.01515,166.00000 L251.15140,165.00000 L251.27737,164.00000 L251.39314,163.00000 L251.49873,162.00000 L251.59416,161.00000 L251.67947,160.00000 L251.75470,159.00000 L251.81984,158.00000 L251.87492,157.00000 L251.91997,156.00000 L251.95499,155.00000 L251.98000,154.00000 L251.99500,153.00000 L252.00000,152.00000 L251.99500,151.00000 L251.98000,150.00000 L251.95499,149.00000 L251.91997,148.00000 L251.87492,147.00000 L251.81984,146.00000 L251.75470,145.00000 L251.67947,144.00000 L251.59416,143.00000 L251.49873,142.00000 L251.39314,141.00000 L251.27737,140.00000 L251.15140,139.00000 L251.01515,138.00000 L251.00000,137.89650 L250.86859,137.00000 L250.71169,136.00000 L250.54437,135.00000 L250.36662,134.00000 L250.17839,133.00000 L250.00000,132.10246 L249.97958,132.00000 L249.77010,131.00000 L249.54993,130.00000 L249.31900,129.00000 L249.07727,128.00000 L249.00000,127.69362 L248.82454,127.00000 L248.56078,126.00000 L248.28596,125.00000 L248.00000,124.00000 L247.70258,123.00000 L247.39381,122.00000 L247.07362,121.00000 L247.00000,120.77751 L246.74165,120.00000 L246.39796,119.00000 L246.04253,118.00000 L246.00000,117.88388 L245.67482,117.00000 L245.29509,116.00000 L245.00000,115.24623 L244.90311,115.00000 L244.49846,114.00000 L244.08142,113.00000 L244.00000,112.80982 L243.65132,112.00000 L243.20840,111.00000 "/>

<script>
let svgs = document.children[0];
let paths = Array.from(svgs.children).filter(function(c) {
    var orig = c.style.stroke;
    c.onmouseover = function() {
        c.style.stroke = "rgb(0, 0, 255)";
    };
    c.onmouseout = function () {
        c.style.stroke = orig;
    };
    c.onclick = function () {
        svgs.removeChild()
    }
});

for (let path of paths) {
    console.log(path);
}
</script></svg>