<svg xmlns="http://www.w3.org/2000/svg">
    <path fill-rule="evenodd" style="fill: none; stroke: rgb(0, 0, 0); stroke-width: 0.2;" d="M80.61539,11.00000 L81.00000,11.27000 M47.00000,60.65690 L46.00000,60.00000 M88.65918,86.00000 L88.00000,86.69712 M7.00000,73.79141 L6.62425,73.00000 M31.00000,38.44177 L30.64727,39.00000 M39.00000,3.71971 L40.00000,3.46150 M54.00000,42.20239 L55.00000,42.46179 M63.00000,74.44888 L63.87061,74.00000 M89.56185,19.00000 L90.00000,19.50607 M7.60462,29.00000 L8.00000,28.25443 M30.00000,63.87061 L30.06863,64.00000 M38.00000,31.28926 L37.00000,32.00000 M76.97999,53.00000 L77.00000,52.00000 M46.00000,60.00000 L45.00000,59.13755 M6.00000,71.59069 L5.75097,71.00000 M17.00000,16.29429 L17.30288,16.00000 M36.00000,4.62937 L37.00000,4.30324 M61.00000,75.32321 L61.79074,75.00000 M72.00000,6.17450 L73.00000,6.62425 M5.35270,34.00000 L5.75097,33.00000 M14.43815,85.00000 L14.00000,84.49393 M34.00000,34.65400 L33.67245,35.00000 M65.55823,73.00000 L66.00000,72.71074 M44.00000,58.00000 L43.34310,57.00000 M83.28699,91.00000 L83.00000,91.22923 M11.27000,23.00000 L12.00000,22.00000 M42.46179,55.00000 L42.20239,54.00000 M58.00000,76.26909 L59.00000,76.00000 M69.00000,4.97875 L69.05733,5.00000 M95.86311,28.00000 L96.00000,28.25443 M9.29235,78.00000 L9.00000,77.51108 M42.20239,50.00000 L42.46179,49.00000 M88.00000,86.69712 L87.70571,87.00000 M63.00000,29.55112 L62.00000,29.08741 M50.00000,101.95998 L49.00000,101.90991 M74.44888,41.00000 L74.00000,40.12939 M25.00000,9.91701 L26.00000,9.29235 M42.00000,3.01021 L42.05253,3.00000 M87.00000,16.29429 L87.70571,17.00000 M46.00000,44.00000 L47.00000,43.34310 M57.00000,60.65690 L56.33830,61.00000 M100.53850,64.00000 L100.28029,65.00000 M22.00000,92.00000 L21.00000,91.22923 M42.00000,74.91259 L42.20926,75.00000 M62.00000,3.01021 L63.00000,3.22509 M48.00000,61.16402 L47.66170,61.00000 M90.41745,84.00000 L90.00000,84.49393 M73.93137,40.00000 L73.35272,39.00000 M100.98979,42.00000 L101.00000,42.05253 M23.38461,11.00000 L24.00000,10.57629 M40.12939,30.00000 L40.00000,30.06863 M45.00000,44.86245 L46.00000,44.00000 M56.00000,101.83974 L55.00000,101.90991 M91.22923,21.00000 L92.00000,22.00000 M20.00000,90.41745 L19.50607,90.00000 M29.08741,62.00000 L29.55112,63.00000 M83.00000,91.22923 L82.00000,92.00000 M71.00000,35.75517 L70.32755,35.00000 M80.61539,93.00000 L80.00000,93.42371 M19.00000,14.43815 L19.50607,14.00000 M28.31503,44.00000 L28.00000,45.00000 M96.89969,30.00000 L97.00000,30.20859 M53.00000,42.05015 L54.00000,42.20239 M75.00000,96.39538 L74.00000,96.89969 M54.00000,61.79761 L53.00000,61.94985 M97.82550,72.00000 L97.37575,73.00000 M4.00000,66.00000 L3.71971,65.00000 M27.18070,55.00000 L27.32219,56.00000 M67.00000,99.69676 L66.00000,100.00000 M76.67781,48.00000 L76.49469,47.00000 M2.81672,43.00000 L3.00000,42.05253 M26.48892,95.00000 L26.00000,94.70766 M49.00000,76.81931 L50.00000,76.91986 M100.28029,65.00000 L100.00000,66.00000 M73.79141,97.00000 L73.00000,97.37575 M60.00000,101.35579 L59.00000,101.50752 M2.16027,56.00000 L2.09009,55.00000 M33.00000,35.75517 L32.79235,36.00000 M90.00000,84.49393 L89.56185,85.00000 M99.69676,37.00000 L100.00000,38.00000 M56.00000,76.67781 L57.00000,76.49469 M66.00000,4.00000 L67.00000,4.30324 M2.04002,50.00000 L2.09009,49.00000 M32.00000,6.17450 L32.40931,6.00000 M73.00000,38.44177 L72.71074,38.00000 M58.00000,101.63866 L57.00000,101.74935 M101.18328,61.00000 L101.00000,61.94747 M8.13689,76.00000 L8.00000,75.74557 M32.00000,97.82550 L31.00000,97.37575 M55.00000,76.81931 L56.00000,76.67781 M65.00000,3.71971 L66.00000,4.00000 M101.50752,45.00000 L101.63866,46.00000 M9.00000,26.48892 L9.29235,26.00000 M31.00000,6.62425 L32.00000,6.17450 M39.00000,100.28029 L38.00000,100.00000 M97.37575,73.00000 L97.00000,73.79141 M79.00000,9.91701 L79.12788,10.00000 M47.00000,101.74935 L46.00000,101.63866 M7.10031,74.00000 L7.00000,73.79141 M30.06863,64.00000 L30.64727,65.00000 M38.00000,4.00000 L39.00000,3.71971 M61.79761,50.00000 L61.94985,51.00000 M62.00000,29.08741 L61.79074,29.00000 M6.62425,31.00000 L7.00000,30.20859 M16.29429,87.00000 L16.00000,86.69712 M35.00000,33.67245 L34.65400,34.00000 M76.00000,45.00000 L75.68497,44.00000 M45.00000,59.13755 L44.86245,59.00000 M85.62843,89.00000 L85.00000,89.56185 M5.00000,69.05733 L4.97875,69.00000 M13.58255,20.00000 L14.00000,19.50607 M34.00000,5.35270 L34.94267,5.00000 M59.13755,45.00000 L60.00000,46.00000 M70.00000,5.35270 L71.00000,5.75097 M82.00000,12.00000 L83.00000,12.77077 M11.00000,80.61539 L10.57629,80.00000 M43.00000,2.81672 L44.00000,2.64421 M101.00000,61.94747 L100.98979,62.00000 M64.00000,100.53850 L63.00000,100.77491 M52.00000,27.00000 L51.00000,27.02001 M75.32321,43.00000 L75.00000,42.20926 M10.00000,24.87212 L10.57629,24.00000 M42.05253,101.00000 L42.00000,100.98979 M89.00000,18.37156 L89.56185,19.00000 M47.00000,76.49469 L48.00000,76.67781 M68.00000,4.62937 L69.00000,4.97875 M24.87212,94.00000 L24.00000,93.42371 M42.20926,29.00000 L42.00000,29.08741 M63.00000,100.77491 L62.00000,100.98979 M49.00000,101.90991 L48.00000,101.83974 M92.73000,81.00000 L92.00000,82.00000 M74.91259,42.00000 L74.44888,41.00000 M26.00000,9.29235 L26.48892,9.00000 M42.00000,52.00000 L42.05015,51.00000 M46.00000,76.26909 L47.00000,76.49469 M57.00000,101.74935 L56.00000,101.83974 M93.42371,24.00000 L94.00000,24.87212 M23.00000,92.73000 L22.00000,92.00000 M41.00000,29.55112 L40.12939,30.00000 M85.00000,89.56185 L84.49393,90.00000 M72.00000,37.00000 L71.20765,36.00000 M48.00000,101.83974 L47.00000,101.74935 M73.00000,65.55823 L73.35272,65.00000 M21.00000,12.77077 L22.00000,12.00000 M29.08741,42.00000 L29.00000,42.20926 M84.00000,13.58255 L84.49393,14.00000 M44.00000,75.68497 L45.00000,76.00000 M55.00000,101.90991 L54.00000,101.95998 M99.00000,69.05733 L98.64729,70.00000 M18.37156,89.00000 L18.00000,88.65918 M28.00000,45.00000 L27.73091,46.00000 M69.00000,33.67245 L68.24483,33.00000 M77.00000,8.69933 L77.51108,9.00000 M97.00000,30.20859 L97.37575,31.00000 M3.46150,40.00000 L3.71971,39.00000 M27.18070,49.00000 L27.08014,50.00000 M51.00000,2.01000 L52.00000,2.00000 M74.44888,63.00000 L74.91259,62.00000 M61.00000,101.18328 L60.00000,101.35579 M2.64421,60.00000 L2.49247,59.00000 M27.00000,95.30067 L26.48892,95.00000 M92.00000,82.00000 L91.22923,83.00000 M100.77491,41.00000 L100.98979,42.00000 M57.00000,76.49469 L58.00000,76.26909 M76.00000,59.00000 L76.26909,58.00000 M2.36134,46.00000 L2.49247,45.00000 M33.00000,5.75097 L34.00000,5.35270 M91.00000,20.71301 L91.22923,21.00000 M48.00000,76.67781 L49.00000,76.81931 M73.93137,64.00000 L74.00000,63.87061 M59.13755,59.00000 L59.00000,59.13755 M101.74935,57.00000 L101.63866,58.00000 M2.01000,53.00000 L2.00000,52.00000 M33.00000,98.24903 L32.40931,98.00000 M56.33830,43.00000 L57.00000,43.34310 M66.00000,72.71074 L67.00000,72.00000 M101.90991,49.00000 L101.95998,50.00000 M2.09009,49.00000 L2.16027,48.00000 M32.00000,67.00000 L32.79235,68.00000 M98.64729,70.00000 L98.24903,71.00000 M81.00000,11.27000 L82.00000,12.00000 M59.00000,28.00000 L58.00000,27.73091 M8.69933,77.00000 L8.13689,76.00000 M31.00000,97.37575 L30.20859,97.00000 M39.00000,73.35272 L40.00000,73.93137 M98.00000,32.40931 L98.24903,33.00000 M54.00000,76.91986 L55.00000,76.81931 M63.87061,30.00000 L63.00000,29.55112 M8.00000,28.25443 L8.13689,28.00000 M30.06863,40.00000 L30.00000,40.12939 M36.00000,99.37063 L35.00000,99.02125 M76.67781,56.00000 L76.81931,55.00000 M46.00000,101.63866 L45.00000,101.50752 M87.70571,87.00000 L87.00000,87.70571 M6.17450,72.00000 L6.00000,71.59069 M15.34082,18.00000 L16.00000,17.30288 M35.00000,4.97875 L36.00000,4.62937 M60.65690,47.00000 L61.00000,47.66170 M71.00000,68.24483 L71.20765,68.00000 M84.49393,14.00000 L85.00000,14.43815 M4.62937,36.00000 L4.97875,35.00000 M13.00000,83.28699 L12.77077,83.00000 M34.00000,98.64729 L33.00000,98.24903 M101.63866,58.00000 L101.50752,59.00000 M66.00000,31.28926 L65.55823,31.00000 M43.00000,101.18328 L42.05253,101.00000 M12.00000,22.00000 L12.77077,21.00000 M42.83598,56.00000 L42.46179,55.00000 M101.35579,44.00000 L101.50752,45.00000 M59.00000,2.49247 L60.00000,2.64421 M69.00000,70.32755 L69.34600,70.00000 M9.91701,79.00000 L9.29235,78.00000 M43.00000,47.66170 L43.34310,47.00000 M65.00000,30.64727 L64.00000,30.06863 M51.00000,27.02001 L50.00000,27.08014 M94.08299,79.00000 L94.00000,79.12788 M75.68497,44.00000 L75.32321,43.00000 M10.57629,24.00000 L11.00000,23.38461 M42.20239,54.00000 L42.05015,53.00000 M47.66170,43.00000 L48.00000,42.83598 M68.00000,71.20765 L68.24483,71.00000 M95.00000,26.48892 L95.30067,27.00000 M25.00000,94.08299 L24.87212,94.00000 M42.05015,51.00000 L42.20239,50.00000 M87.00000,87.70571 L86.69712,88.00000 M62.00000,52.00000 L61.94985,53.00000 M50.00000,27.08014 L49.00000,27.18070 M74.00000,7.10031 L75.00000,7.60462 M24.00000,10.57629 L24.87212,10.00000 M41.00000,3.22509 L42.00000,3.01021 M86.00000,15.34082 L86.69712,16.00000 M45.00000,76.00000 L46.00000,76.26909 M56.33830,61.00000 L56.00000,61.16402 M100.00000,66.00000 L99.69676,67.00000 M20.71301,91.00000 L20.00000,90.41745 M28.67679,61.00000 L29.00000,61.79074 M70.00000,34.65400 L69.34600,34.00000 M79.00000,94.08299 L78.00000,94.70766 M98.24903,33.00000 L98.64729,34.00000 M17.30288,16.00000 L18.00000,15.34082 M28.00000,8.13689 L28.25443,8.00000 M52.00000,42.00000 L53.00000,42.05015 M75.32321,61.00000 L75.68497,60.00000 M53.00000,61.94985 L52.00000,62.00000 M3.22509,63.00000 L3.01021,62.00000 M27.32219,56.00000 L27.50531,57.00000 M94.00000,79.12788 L93.42371,80.00000 M68.00000,32.79235 L67.00000,32.00000 M76.81931,49.00000 L76.67781,48.00000 M3.00000,42.05253 L3.01021,42.00000 M27.00000,52.00000 L27.02001,53.00000 M93.00000,23.38461 L93.42371,24.00000 M50.00000,2.04002 L51.00000,2.01000 M74.91259,62.00000 L75.00000,61.79074 M60.65690,57.00000 L60.00000,58.00000 M101.99000,53.00000 L101.95998,54.00000 M2.25065,57.00000 L2.16027,56.00000 M27.02001,53.00000 L27.08014,54.00000 M58.00000,2.36134 L59.00000,2.49247 M76.26909,46.00000 L76.00000,45.00000 M2.49247,45.00000 L2.64421,44.00000 M33.00000,68.24483 L33.67245,69.00000 M49.00000,2.09009 L50.00000,2.04002 M99.69676,67.00000 L99.37063,68.00000 M73.00000,97.37575 L72.00000,97.82550 M60.00000,28.31503 L59.00000,28.00000 M2.04002,54.00000 L2.01000,53.00000 M32.40931,98.00000 L32.00000,97.82550 M99.02125,35.00000 L99.37063,36.00000 M56.00000,2.16027 L57.00000,2.25065 M65.00000,73.35272 L65.55823,73.00000 M9.29235,26.00000 L9.91701,25.00000 M31.00000,65.55823 L31.28926,66.00000 M38.00000,100.00000 L37.00000,99.69676 M77.00000,52.00000 L76.97999,51.00000 M47.66170,61.00000 L47.00000,60.65690 M89.56185,85.00000 L89.00000,85.62843 M7.60462,75.00000 L7.10031,74.00000 M29.55112,63.00000 L30.00000,63.87061 M36.00000,71.20765 L37.00000,72.00000 M61.16402,48.00000 L61.53821,49.00000 M61.79761,54.00000 L61.53821,55.00000 M86.69712,16.00000 L87.00000,16.29429 M5.75097,33.00000 L6.00000,32.40931 M15.00000,85.62843 L14.43815,85.00000 M35.00000,99.02125 L34.94267,99.00000 M101.95998,54.00000 L101.90991,55.00000 M76.00000,95.86311 L75.74557,96.00000 M44.00000,101.35579 L43.00000,101.18328 M4.30324,67.00000 L4.00000,66.00000 M14.00000,19.50607 L14.43815,19.00000 M34.00000,69.34600 L34.65400,70.00000 M101.83974,48.00000 L101.90991,49.00000 M60.00000,2.64421 L61.00000,2.81672 M70.00000,69.34600 L70.32755,69.00000 M11.27000,81.00000 L11.00000,80.61539 M34.65400,70.00000 L35.00000,70.32755 M66.00000,100.00000 L65.00000,100.28029 M52.00000,62.00000 L51.00000,61.94985 M95.86311,76.00000 L95.30067,77.00000 M12.77077,21.00000 L13.00000,20.71301 M43.00000,28.67679 L42.20926,29.00000 M59.00000,44.86245 L59.13755,45.00000 M69.05733,5.00000 L70.00000,5.35270 M96.39538,29.00000 L96.89969,30.00000 M10.00000,79.12788 L9.91701,79.00000 M42.46179,49.00000 L42.83598,48.00000 M89.00000,85.62843 L88.65918,86.00000 M63.87061,74.00000 L64.00000,73.93137 M51.00000,61.94985 L50.00000,61.79761 M75.00000,7.60462 L75.74557,8.00000 M26.48892,9.00000 L27.00000,8.69933 M42.00000,100.98979 L41.00000,100.77491 M88.00000,17.30288 L88.65918,18.00000 M47.00000,2.25065 L48.00000,2.16027 M58.00000,27.73091 L57.00000,27.50531 M100.98979,62.00000 L100.77491,63.00000 M23.38461,93.00000 L23.00000,92.73000 M40.00000,30.06863 L39.00000,30.64727 M71.00000,98.24903 L70.00000,98.64729 M49.00000,27.18070 L48.00000,27.32219 M91.22923,83.00000 L91.00000,83.28699 M72.00000,67.00000 L72.71074,66.00000 M99.37063,36.00000 L99.69676,37.00000 M19.50607,14.00000 L20.00000,13.58255 M28.67679,43.00000 L28.31503,44.00000 M43.34310,47.00000 L44.00000,46.00000 M54.00000,101.95998 L53.00000,101.99000 M17.00000,87.70571 L16.29429,87.00000 M28.00000,95.86311 L27.00000,95.30067 M95.30067,77.00000 L95.00000,77.51108 M69.00000,99.02125 L68.00000,99.37063 M77.00000,95.30067 L76.00000,95.86311 M3.71971,39.00000 L4.00000,38.00000 M27.32219,48.00000 L27.18070,49.00000 M94.70766,26.00000 L95.00000,26.48892 M51.00000,42.05015 L52.00000,42.00000 M75.68497,60.00000 L76.00000,59.00000 M61.16402,56.00000 L61.00000,56.33830 M2.81672,61.00000 L2.64421,60.00000 M27.50531,57.00000 L27.73091,58.00000 M68.00000,99.37063 L67.00000,99.69676 M76.91986,50.00000 L76.81931,49.00000 M3.01021,42.00000 L3.22509,41.00000 M27.02001,51.00000 L27.00000,52.00000 M50.00000,42.20239 L51.00000,42.05015 M100.77491,63.00000 L100.53850,64.00000 M74.00000,40.12939 L73.93137,40.00000 M61.00000,28.67679 L60.00000,28.31503 M2.36134,58.00000 L2.25065,57.00000 M33.67245,69.00000 L34.00000,69.34600 M91.00000,83.28699 L90.41745,84.00000 M100.28029,39.00000 L100.53850,40.00000 M57.00000,2.25065 L58.00000,2.36134 M67.00000,4.30324 L68.00000,4.62937 M2.16027,48.00000 L2.25065,47.00000 M32.40931,6.00000 L33.00000,5.75097 M79.12788,10.00000 L80.00000,10.57629 M59.00000,59.13755 L58.00000,60.00000 M101.50752,59.00000 L101.35579,60.00000 M9.00000,77.51108 L8.69933,77.00000 M30.20859,97.00000 L30.00000,96.89969 M38.00000,72.71074 L38.44177,73.00000 M53.00000,76.97999 L54.00000,76.91986 M62.00000,74.91259 L63.00000,74.44888 M88.65918,18.00000 L89.00000,18.37156 M7.00000,30.20859 L7.10031,30.00000 M29.55112,41.00000 L29.08741,42.00000 M37.00000,32.00000 L36.00000,32.79235 M76.81931,55.00000 L76.91986,54.00000 M45.00000,101.50752 L44.00000,101.35579 M5.35270,70.00000 L5.00000,69.05733 M16.00000,17.30288 L16.29429,17.00000 M35.00000,70.32755 L35.75517,71.00000 M102.00000,52.00000 L101.99000,53.00000 M61.00000,2.81672 L61.94747,3.00000 M71.20765,36.00000 L71.00000,35.75517 M4.97875,35.00000 L5.00000,34.94267 M13.58255,84.00000 L13.00000,83.28699 M35.75517,71.00000 L36.00000,71.20765 M76.26909,58.00000 L76.49469,57.00000 M43.34310,57.00000 L43.00000,56.33830 M82.00000,92.00000 L81.00000,92.73000 M14.43815,19.00000 L15.00000,18.37156 M34.65400,34.00000 L34.00000,34.65400 M60.00000,46.00000 L60.65690,47.00000 M70.32755,35.00000 L70.00000,34.65400 M83.28699,13.00000 L84.00000,13.58255 M12.00000,82.00000 L11.27000,81.00000 M43.00000,75.32321 L44.00000,75.68497 M101.35579,60.00000 L101.18328,61.00000 M65.00000,100.28029 L64.00000,100.53850 M52.00000,102.00000 L51.00000,101.99000 M75.74557,8.00000 L76.00000,8.13689 M11.00000,23.38461 L11.27000,23.00000 M42.20926,75.00000 L43.00000,75.32321 M90.00000,19.50607 L90.41745,20.00000 M48.00000,2.16027 L49.00000,2.09009 M68.24483,33.00000 L68.00000,32.79235 M26.00000,94.70766 L25.00000,94.08299 M41.00000,100.77491 L40.00000,100.53850 M61.94747,3.00000 L62.00000,3.01021 M50.00000,61.79761 L49.00000,61.53821 M93.42371,80.00000 L93.00000,80.61539 M73.35272,39.00000 L73.00000,38.44177 M100.53850,40.00000 L100.77491,41.00000 M22.00000,12.00000 L23.00000,11.27000 M40.00000,3.46150 L41.00000,3.22509 M44.86245,45.00000 L45.00000,44.86245 M56.00000,27.32219 L55.00000,27.18070 M90.41745,20.00000 L91.00000,20.71301 M19.00000,89.56185 L18.37156,89.00000 M29.00000,42.20926 L28.67679,43.00000 M81.00000,92.73000 L80.61539,93.00000 M70.00000,98.64729 L69.05733,99.00000 M79.12788,94.00000 L79.00000,94.08299 M18.00000,15.34082 L18.37156,15.00000 M28.00000,59.00000 L28.31503,60.00000 M96.00000,28.25443 L96.39538,29.00000 M52.00000,77.00000 L53.00000,76.97999 M53.00000,101.99000 L52.00000,102.00000 M97.00000,73.79141 L96.89969,74.00000 M3.46150,64.00000 L3.22509,63.00000 M28.25443,96.00000 L28.00000,95.86311 M69.05733,99.00000 L69.00000,99.02125 M77.51108,95.00000 L77.00000,95.30067 M97.82550,32.00000 L98.00000,32.40931 M4.00000,38.00000 L4.30324,37.00000 M27.50531,47.00000 L27.32219,48.00000 M51.00000,76.97999 L52.00000,77.00000 M75.00000,42.20926 L74.91259,42.00000 M61.53821,55.00000 L61.16402,56.00000 M3.00000,61.94747 L2.81672,61.00000 M27.08014,54.00000 L27.18070,55.00000 M93.00000,80.61539 L92.73000,81.00000 M101.00000,42.05253 L101.18328,43.00000 M58.00000,44.00000 L59.00000,44.86245 M76.49469,47.00000 L76.26909,46.00000 M2.64421,44.00000 L2.81672,43.00000 M33.67245,35.00000 L33.00000,35.75517 M92.00000,22.00000 L92.73000,23.00000 M49.00000,42.46179 L50.00000,42.20239 M72.00000,97.82550 L71.59069,98.00000 M60.00000,58.00000 L59.13755,59.00000 M101.90991,55.00000 L101.83974,56.00000 M2.09009,55.00000 L2.04002,54.00000 M31.28926,66.00000 L32.00000,67.00000 M55.00000,2.09009 L56.00000,2.16027 M64.00000,3.46150 L65.00000,3.71971 M101.18328,43.00000 L101.35579,44.00000 M8.13689,28.00000 L8.69933,27.00000 M30.20859,7.00000 L31.00000,6.62425 M38.44177,73.00000 L39.00000,73.35272 M96.89969,74.00000 L96.39538,75.00000 M77.51108,9.00000 L78.00000,9.29235 M47.00000,27.50531 L46.00000,27.73091 M6.62425,73.00000 L6.17450,72.00000 M30.00000,40.12939 L29.55112,41.00000 M37.00000,4.30324 L38.00000,4.00000 M61.53821,49.00000 L61.79761,50.00000 M61.94747,101.00000 L61.00000,101.18328 M6.00000,32.40931 L6.17450,32.00000 M15.34082,86.00000 L15.00000,85.62843 M37.00000,99.69676 L36.00000,99.37063 M76.91986,54.00000 L76.97999,53.00000 M44.86245,59.00000 L44.00000,58.00000 M84.49393,90.00000 L84.00000,90.41745 M4.62937,68.00000 L4.30324,67.00000 M16.29429,17.00000 L17.00000,16.29429 M35.75517,33.00000 L35.00000,33.67245 M61.00000,47.66170 L61.16402,48.00000 M71.59069,6.00000 L72.00000,6.17450 M85.62843,15.00000 L86.00000,15.34082 M5.00000,34.94267 L5.35270,34.00000 M14.00000,84.49393 L13.58255,84.00000 M34.94267,99.00000 L34.00000,98.64729 M101.83974,56.00000 L101.74935,57.00000 M67.00000,32.00000 L66.00000,31.28926 M44.00000,28.31503 L43.00000,28.67679 M13.00000,20.71301 L13.58255,20.00000 M43.00000,56.33830 L42.83598,56.00000 M101.63866,46.00000 L101.74935,47.00000 M59.00000,76.00000 L60.00000,75.68497 M69.34600,34.00000 L69.00000,33.67245 M10.57629,80.00000 L10.00000,79.12788 M42.05253,3.00000 L43.00000,2.81672 M62.00000,100.98979 L61.94747,101.00000 M51.00000,101.99000 L50.00000,101.95998 M95.00000,77.51108 L94.70766,78.00000 M74.00000,63.87061 L74.44888,63.00000 M24.87212,10.00000 L25.00000,9.91701 M41.00000,74.44888 L42.00000,74.91259 M46.00000,2.36134 L47.00000,2.25065 M57.00000,27.50531 L56.00000,27.32219 M92.73000,23.00000 L93.00000,23.38461 M21.00000,91.22923 L20.71301,91.00000 M40.00000,100.53850 L39.00000,100.28029 M84.00000,90.41745 L83.28699,91.00000 M71.20765,68.00000 L72.00000,67.00000 M48.00000,27.32219 L47.00000,27.50531 M72.71074,38.00000 L72.00000,37.00000 M20.00000,13.58255 L20.71301,13.00000 M29.00000,7.60462 L30.00000,7.10031 M83.00000,12.77077 L83.28699,13.00000 M44.00000,2.64421 L45.00000,2.49247 M55.00000,27.18070 L54.00000,27.08014 M98.24903,71.00000 L98.00000,71.59069 M17.30288,88.00000 L17.00000,87.70571 M29.00000,96.39538 L28.25443,96.00000 M70.32755,69.00000 L71.00000,68.24483 M80.00000,93.42371 L79.12788,94.00000 M99.00000,34.94267 L99.02125,35.00000 M18.37156,15.00000 L19.00000,14.43815 M28.25443,8.00000 L29.00000,7.60462 M53.00000,2.01000 L54.00000,2.04002 M75.74557,96.00000 L75.00000,96.39538 M54.00000,27.08014 L53.00000,27.02001 M3.71971,65.00000 L3.46150,64.00000 M27.73091,58.00000 L28.00000,59.00000 M94.70766,78.00000 L94.08299,79.00000 M68.24483,71.00000 L69.00000,70.32755 M76.97999,51.00000 L76.91986,50.00000 M3.22509,41.00000 L3.46150,40.00000 M27.08014,50.00000 L27.02001,51.00000 M94.00000,24.87212 L94.08299,25.00000 M50.00000,76.91986 L51.00000,76.97999 M73.35272,65.00000 L73.93137,64.00000 M61.00000,56.33830 L60.65690,57.00000 M2.49247,59.00000 L2.36134,58.00000 M32.79235,68.00000 L33.00000,68.24483 M56.00000,42.83598 L56.33830,43.00000 M65.55823,31.00000 L65.00000,30.64727 M101.74935,47.00000 L101.83974,48.00000 M2.01000,51.00000 L2.04002,50.00000 M31.28926,38.00000 L31.00000,38.44177 M98.00000,71.59069 L97.82550,72.00000 M80.00000,10.57629 L80.61539,11.00000 M58.00000,60.00000 L57.00000,60.65690 M8.00000,75.74557 L7.60462,75.00000 M30.64727,65.00000 L31.00000,65.55823 M38.44177,31.00000 L38.00000,31.28926 M97.37575,31.00000 L97.82550,32.00000 M54.00000,2.04002 L55.00000,2.09009 M63.00000,3.22509 L64.00000,3.46150 M7.10031,30.00000 L7.60462,29.00000 M30.00000,7.10031 L30.20859,7.00000 M39.00000,30.64727 L38.44177,31.00000 M78.00000,9.29235 L79.00000,9.91701 M46.00000,27.73091 L45.00000,28.00000 M86.69712,88.00000 L86.00000,88.65918 M5.75097,71.00000 L5.35270,70.00000 M30.00000,96.89969 L29.00000,96.39538 M37.00000,72.00000 L38.00000,72.71074 M61.79074,29.00000 L61.00000,28.67679 M61.94985,53.00000 L61.79761,54.00000 M87.70571,17.00000 L88.00000,17.30288 M6.17450,32.00000 L6.62425,31.00000 M16.00000,86.69712 L15.34082,86.00000 M36.00000,32.79235 L35.75517,33.00000 M76.49469,57.00000 L76.67781,56.00000 M45.00000,28.00000 L44.00000,28.31503 M4.97875,69.00000 L4.62937,68.00000 M15.00000,18.37156 L15.34082,18.00000 M34.94267,5.00000 L35.00000,4.97875 M101.95998,50.00000 L101.99000,51.00000 M60.00000,75.68497 L61.00000,75.32321 M71.00000,5.75097 L71.59069,6.00000 M12.77077,83.00000 L12.00000,82.00000 M42.83598,48.00000 L43.00000,47.66170 M64.00000,30.06863 L63.87061,30.00000 M53.00000,27.02001 L52.00000,27.00000 M96.39538,75.00000 L96.00000,75.74557 M75.00000,61.79074 L75.32321,61.00000 M9.91701,25.00000 L10.00000,24.87212 M42.05015,53.00000 L42.00000,52.00000 M47.00000,43.34310 L47.66170,43.00000 M67.00000,72.00000 L68.00000,71.20765 M94.08299,25.00000 L94.70766,26.00000 M24.00000,93.42371 L23.38461,93.00000 M42.00000,29.08741 L41.00000,29.55112 M86.00000,88.65918 L85.62843,89.00000 M61.94985,51.00000 L62.00000,52.00000 M49.00000,61.53821 L48.00000,61.16402 M73.79141,7.00000 L74.00000,7.10031 M23.00000,11.27000 L23.38461,11.00000 M40.00000,73.93137 L40.12939,74.00000 M85.00000,14.43815 L85.62843,15.00000 M45.00000,2.49247 L46.00000,2.36134 M56.00000,61.16402 L55.00000,61.53821 M99.37063,68.00000 L99.02125,69.00000 M19.50607,90.00000 L19.00000,89.56185 M40.12939,74.00000 L41.00000,74.44888 M71.59069,98.00000 L71.00000,98.24903 M73.00000,6.62425 L73.79141,7.00000 M100.00000,38.00000 L100.28029,39.00000 M20.71301,13.00000 L21.00000,12.77077 M29.00000,61.79074 L29.08741,62.00000 M44.00000,46.00000 L44.86245,45.00000 M55.00000,61.53821 L54.00000,61.79761 M18.00000,88.65918 L17.30288,88.00000 M28.31503,60.00000 L28.67679,61.00000 M96.00000,75.74557 L95.86311,76.00000 M69.34600,70.00000 L70.00000,69.34600 M78.00000,94.70766 L77.51108,95.00000 M4.30324,37.00000 L4.62937,36.00000 M27.73091,46.00000 L27.50531,47.00000 M95.30067,27.00000 L95.86311,28.00000 M52.00000,2.00000 L53.00000,2.01000 M74.00000,96.89969 L73.79141,97.00000 M61.79074,75.00000 L62.00000,74.91259 M3.01021,62.00000 L3.00000,61.94747 M27.00000,8.69933 L28.00000,8.13689 M57.00000,43.34310 L58.00000,44.00000 M76.00000,8.13689 L77.00000,8.69933 M101.99000,51.00000 L102.00000,52.00000 M2.25065,47.00000 L2.36134,46.00000 M32.79235,36.00000 L32.00000,37.00000 M48.00000,42.83598 L49.00000,42.46179 M99.02125,69.00000 L99.00000,69.05733 M72.71074,66.00000 L73.00000,65.55823 M59.00000,101.50752 L58.00000,101.63866 M2.00000,52.00000 L2.01000,51.00000 M32.00000,37.00000 L31.28926,38.00000 M98.64729,34.00000 L99.00000,34.94267 M55.00000,42.46179 L56.00000,42.83598 M64.00000,73.93137 L65.00000,73.35272 M8.69933,27.00000 L9.00000,26.48892 M30.64727,39.00000 L30.06863,40.00000 "/>

<script>
let svgs = document.children[0];
let paths = Array.from(svgs.children).filter(function(c) {
    var orig = c.style.stroke;
    c.onmouseover = function() {
        c.style.stroke = "rgb(0, 0, 255)";
    };
    c.onmouseout = function () {
        c.style.stroke = orig;
    };
    c.onclick = function () {
        svgs.removeChild()
    }
});

for (let path of paths) {
    console.log(path);
}
</script></svg>