<svg xmlns="http://www.w3.org/2000/svg">
    <path fill-rule="evenodd" style="fill: none; stroke: rgb(0, 0, 0); stroke-width: 0.2;" d="M80.62,11.00 L81.00,11.27 M47.00,60.66 L46.00,60.00 M88.66,86.00 L88.00,86.70 M7.00,73.79 L6.62,73.00 M31.00,38.44 L30.65,39.00 M39.00,3.72 L40.00,3.46 M54.00,42.20 L55.00,42.46 M63.00,74.45 L63.87,74.00 M89.56,19.00 L90.00,19.51 M7.60,29.00 L8.00,28.25 M30.00,63.87 L30.07,64.00 M38.00,31.29 L37.00,32.00 M76.98,53.00 L77.00,52.00 M46.00,60.00 L45.00,59.14 M6.00,71.59 L5.75,71.00 M17.00,16.29 L17.30,16.00 M36.00,4.63 L37.00,4.30 M61.00,75.32 L61.79,75.00 M72.00,6.17 L73.00,6.62 M5.35,34.00 L5.75,33.00 M14.44,85.00 L14.00,84.49 M34.00,34.65 L33.67,35.00 M65.56,73.00 L66.00,72.71 M44.00,58.00 L43.34,57.00 M83.29,91.00 L83.00,91.23 M11.27,23.00 L12.00,22.00 M42.46,55.00 L42.20,54.00 M58.00,76.27 L59.00,76.00 M69.00,4.98 L69.06,5.00 M95.86,28.00 L96.00,28.25 M9.29,78.00 L9.00,77.51 M42.20,50.00 L42.46,49.00 M88.00,86.70 L87.71,87.00 M63.00,29.55 L62.00,29.09 M50.00,101.96 L49.00,101.91 M74.45,41.00 L74.00,40.13 M25.00,9.92 L26.00,9.29 M42.00,3.01 L42.05,3.00 M87.00,16.29 L87.71,17.00 M46.00,44.00 L47.00,43.34 M57.00,60.66 L56.34,61.00 M100.54,64.00 L100.28,65.00 M22.00,92.00 L21.00,91.23 M42.00,74.91 L42.21,75.00 M62.00,3.01 L63.00,3.23 M48.00,61.16 L47.66,61.00 M90.42,84.00 L90.00,84.49 M73.93,40.00 L73.35,39.00 M100.99,42.00 L101.00,42.05 M23.38,11.00 L24.00,10.58 M40.13,30.00 L40.00,30.07 M45.00,44.86 L46.00,44.00 M56.00,101.84 L55.00,101.91 M91.23,21.00 L92.00,22.00 M20.00,90.42 L19.51,90.00 M29.09,62.00 L29.55,63.00 M83.00,91.23 L82.00,92.00 M71.00,35.76 L70.33,35.00 M80.62,93.00 L80.00,93.42 M19.00,14.44 L19.51,14.00 M28.32,44.00 L28.00,45.00 M96.90,30.00 L97.00,30.21 M53.00,42.05 L54.00,42.20 M75.00,96.40 L74.00,96.90 M54.00,61.80 L53.00,61.95 M97.83,72.00 L97.38,73.00 M4.00,66.00 L3.72,65.00 M27.18,55.00 L27.32,56.00 M67.00,99.70 L66.00,100.00 M76.68,48.00 L76.49,47.00 M2.82,43.00 L3.00,42.05 M26.49,95.00 L26.00,94.71 M49.00,76.82 L50.00,76.92 M100.28,65.00 L100.00,66.00 M73.79,97.00 L73.00,97.38 M60.00,101.36 L59.00,101.51 M2.16,56.00 L2.09,55.00 M33.00,35.76 L32.79,36.00 M90.00,84.49 L89.56,85.00 M99.70,37.00 L100.00,38.00 M56.00,76.68 L57.00,76.49 M66.00,4.00 L67.00,4.30 M2.04,50.00 L2.09,49.00 M32.00,6.17 L32.41,6.00 M73.00,38.44 L72.71,38.00 M58.00,101.64 L57.00,101.75 M101.18,61.00 L101.00,61.95 M8.14,76.00 L8.00,75.75 M32.00,97.83 L31.00,97.38 M55.00,76.82 L56.00,76.68 M65.00,3.72 L66.00,4.00 M101.51,45.00 L101.64,46.00 M9.00,26.49 L9.29,26.00 M31.00,6.62 L32.00,6.17 M39.00,100.28 L38.00,100.00 M97.38,73.00 L97.00,73.79 M79.00,9.92 L79.13,10.00 M47.00,101.75 L46.00,101.64 M7.10,74.00 L7.00,73.79 M30.07,64.00 L30.65,65.00 M38.00,4.00 L39.00,3.72 M61.80,50.00 L61.95,51.00 M62.00,29.09 L61.79,29.00 M6.62,31.00 L7.00,30.21 M16.29,87.00 L16.00,86.70 M35.00,33.67 L34.65,34.00 M76.00,45.00 L75.68,44.00 M45.00,59.14 L44.86,59.00 M85.63,89.00 L85.00,89.56 M5.00,69.06 L4.98,69.00 M13.58,20.00 L14.00,19.51 M34.00,5.35 L34.94,5.00 M59.14,45.00 L60.00,46.00 M70.00,5.35 L71.00,5.75 M82.00,12.00 L83.00,12.77 M11.00,80.62 L10.58,80.00 M43.00,2.82 L44.00,2.64 M101.00,61.95 L100.99,62.00 M64.00,100.54 L63.00,100.77 M52.00,27.00 L51.00,27.02 M75.32,43.00 L75.00,42.21 M10.00,24.87 L10.58,24.00 M42.05,101.00 L42.00,100.99 M89.00,18.37 L89.56,19.00 M47.00,76.49 L48.00,76.68 M68.00,4.63 L69.00,4.98 M24.87,94.00 L24.00,93.42 M42.21,29.00 L42.00,29.09 M63.00,100.77 L62.00,100.99 M49.00,101.91 L48.00,101.84 M92.73,81.00 L92.00,82.00 M74.91,42.00 L74.45,41.00 M26.00,9.29 L26.49,9.00 M42.00,52.00 L42.05,51.00 M46.00,76.27 L47.00,76.49 M57.00,101.75 L56.00,101.84 M93.42,24.00 L94.00,24.87 M23.00,92.73 L22.00,92.00 M41.00,29.55 L40.13,30.00 M85.00,89.56 L84.49,90.00 M72.00,37.00 L71.21,36.00 M48.00,101.84 L47.00,101.75 M73.00,65.56 L73.35,65.00 M21.00,12.77 L22.00,12.00 M29.09,42.00 L29.00,42.21 M84.00,13.58 L84.49,14.00 M44.00,75.68 L45.00,76.00 M55.00,101.91 L54.00,101.96 M99.00,69.06 L98.65,70.00 M18.37,89.00 L18.00,88.66 M28.00,45.00 L27.73,46.00 M69.00,33.67 L68.24,33.00 M77.00,8.70 L77.51,9.00 M97.00,30.21 L97.38,31.00 M3.46,40.00 L3.72,39.00 M27.18,49.00 L27.08,50.00 M51.00,2.01 L52.00,2.00 M74.45,63.00 L74.91,62.00 M61.00,101.18 L60.00,101.36 M2.64,60.00 L2.49,59.00 M27.00,95.30 L26.49,95.00 M92.00,82.00 L91.23,83.00 M100.77,41.00 L100.99,42.00 M57.00,76.49 L58.00,76.27 M76.00,59.00 L76.27,58.00 M2.36,46.00 L2.49,45.00 M33.00,5.75 L34.00,5.35 M91.00,20.71 L91.23,21.00 M48.00,76.68 L49.00,76.82 M73.93,64.00 L74.00,63.87 M59.14,59.00 L59.00,59.14 M101.75,57.00 L101.64,58.00 M2.01,53.00 L2.00,52.00 M33.00,98.25 L32.41,98.00 M56.34,43.00 L57.00,43.34 M66.00,72.71 L67.00,72.00 M101.91,49.00 L101.96,50.00 M2.09,49.00 L2.16,48.00 M32.00,67.00 L32.79,68.00 M98.65,70.00 L98.25,71.00 M81.00,11.27 L82.00,12.00 M59.00,28.00 L58.00,27.73 M8.70,77.00 L8.14,76.00 M31.00,97.38 L30.21,97.00 M39.00,73.35 L40.00,73.93 M98.00,32.41 L98.25,33.00 M54.00,76.92 L55.00,76.82 M63.87,30.00 L63.00,29.55 M8.00,28.25 L8.14,28.00 M30.07,40.00 L30.00,40.13 M36.00,99.37 L35.00,99.02 M76.68,56.00 L76.82,55.00 M46.00,101.64 L45.00,101.51 M87.71,87.00 L87.00,87.71 M6.17,72.00 L6.00,71.59 M15.34,18.00 L16.00,17.30 M35.00,4.98 L36.00,4.63 M60.66,47.00 L61.00,47.66 M71.00,68.24 L71.21,68.00 M84.49,14.00 L85.00,14.44 M4.63,36.00 L4.98,35.00 M13.00,83.29 L12.77,83.00 M34.00,98.65 L33.00,98.25 M101.64,58.00 L101.51,59.00 M66.00,31.29 L65.56,31.00 M43.00,101.18 L42.05,101.00 M12.00,22.00 L12.77,21.00 M42.84,56.00 L42.46,55.00 M101.36,44.00 L101.51,45.00 M59.00,2.49 L60.00,2.64 M69.00,70.33 L69.35,70.00 M9.92,79.00 L9.29,78.00 M43.00,47.66 L43.34,47.00 M65.00,30.65 L64.00,30.07 M51.00,27.02 L50.00,27.08 M94.08,79.00 L94.00,79.13 M75.68,44.00 L75.32,43.00 M10.58,24.00 L11.00,23.38 M42.20,54.00 L42.05,53.00 M47.66,43.00 L48.00,42.84 M68.00,71.21 L68.24,71.00 M95.00,26.49 L95.30,27.00 M25.00,94.08 L24.87,94.00 M42.05,51.00 L42.20,50.00 M87.00,87.71 L86.70,88.00 M62.00,52.00 L61.95,53.00 M50.00,27.08 L49.00,27.18 M74.00,7.10 L75.00,7.60 M24.00,10.58 L24.87,10.00 M41.00,3.23 L42.00,3.01 M86.00,15.34 L86.70,16.00 M45.00,76.00 L46.00,76.27 M56.34,61.00 L56.00,61.16 M100.00,66.00 L99.70,67.00 M20.71,91.00 L20.00,90.42 M28.68,61.00 L29.00,61.79 M70.00,34.65 L69.35,34.00 M79.00,94.08 L78.00,94.71 M98.25,33.00 L98.65,34.00 M17.30,16.00 L18.00,15.34 M28.00,8.14 L28.25,8.00 M52.00,42.00 L53.00,42.05 M75.32,61.00 L75.68,60.00 M53.00,61.95 L52.00,62.00 M3.23,63.00 L3.01,62.00 M27.32,56.00 L27.51,57.00 M94.00,79.13 L93.42,80.00 M68.00,32.79 L67.00,32.00 M76.82,49.00 L76.68,48.00 M3.00,42.05 L3.01,42.00 M27.00,52.00 L27.02,53.00 M93.00,23.38 L93.42,24.00 M50.00,2.04 L51.00,2.01 M74.91,62.00 L75.00,61.79 M60.66,57.00 L60.00,58.00 M101.99,53.00 L101.96,54.00 M2.25,57.00 L2.16,56.00 M27.02,53.00 L27.08,54.00 M58.00,2.36 L59.00,2.49 M76.27,46.00 L76.00,45.00 M2.49,45.00 L2.64,44.00 M33.00,68.24 L33.67,69.00 M49.00,2.09 L50.00,2.04 M99.70,67.00 L99.37,68.00 M73.00,97.38 L72.00,97.83 M60.00,28.32 L59.00,28.00 M2.04,54.00 L2.01,53.00 M32.41,98.00 L32.00,97.83 M99.02,35.00 L99.37,36.00 M56.00,2.16 L57.00,2.25 M65.00,73.35 L65.56,73.00 M9.29,26.00 L9.92,25.00 M31.00,65.56 L31.29,66.00 M38.00,100.00 L37.00,99.70 M77.00,52.00 L76.98,51.00 M47.66,61.00 L47.00,60.66 M89.56,85.00 L89.00,85.63 M7.60,75.00 L7.10,74.00 M29.55,63.00 L30.00,63.87 M36.00,71.21 L37.00,72.00 M61.16,48.00 L61.54,49.00 M61.80,54.00 L61.54,55.00 M86.70,16.00 L87.00,16.29 M5.75,33.00 L6.00,32.41 M15.00,85.63 L14.44,85.00 M35.00,99.02 L34.94,99.00 M101.96,54.00 L101.91,55.00 M76.00,95.86 L75.75,96.00 M44.00,101.36 L43.00,101.18 M4.30,67.00 L4.00,66.00 M14.00,19.51 L14.44,19.00 M34.00,69.35 L34.65,70.00 M101.84,48.00 L101.91,49.00 M60.00,2.64 L61.00,2.82 M70.00,69.35 L70.33,69.00 M11.27,81.00 L11.00,80.62 M34.65,70.00 L35.00,70.33 M66.00,100.00 L65.00,100.28 M52.00,62.00 L51.00,61.95 M95.86,76.00 L95.30,77.00 M12.77,21.00 L13.00,20.71 M43.00,28.68 L42.21,29.00 M59.00,44.86 L59.14,45.00 M69.06,5.00 L70.00,5.35 M96.40,29.00 L96.90,30.00 M10.00,79.13 L9.92,79.00 M42.46,49.00 L42.84,48.00 M89.00,85.63 L88.66,86.00 M63.87,74.00 L64.00,73.93 M51.00,61.95 L50.00,61.80 M75.00,7.60 L75.75,8.00 M26.49,9.00 L27.00,8.70 M42.00,100.99 L41.00,100.77 M88.00,17.30 L88.66,18.00 M47.00,2.25 L48.00,2.16 M58.00,27.73 L57.00,27.51 M100.99,62.00 L100.77,63.00 M23.38,93.00 L23.00,92.73 M40.00,30.07 L39.00,30.65 M71.00,98.25 L70.00,98.65 M49.00,27.18 L48.00,27.32 M91.23,83.00 L91.00,83.29 M72.00,67.00 L72.71,66.00 M99.37,36.00 L99.70,37.00 M19.51,14.00 L20.00,13.58 M28.68,43.00 L28.32,44.00 M43.34,47.00 L44.00,46.00 M54.00,101.96 L53.00,101.99 M17.00,87.71 L16.29,87.00 M28.00,95.86 L27.00,95.30 M95.30,77.00 L95.00,77.51 M69.00,99.02 L68.00,99.37 M77.00,95.30 L76.00,95.86 M3.72,39.00 L4.00,38.00 M27.32,48.00 L27.18,49.00 M94.71,26.00 L95.00,26.49 M51.00,42.05 L52.00,42.00 M75.68,60.00 L76.00,59.00 M61.16,56.00 L61.00,56.34 M2.82,61.00 L2.64,60.00 M27.51,57.00 L27.73,58.00 M68.00,99.37 L67.00,99.70 M76.92,50.00 L76.82,49.00 M3.01,42.00 L3.23,41.00 M27.02,51.00 L27.00,52.00 M50.00,42.20 L51.00,42.05 M100.77,63.00 L100.54,64.00 M74.00,40.13 L73.93,40.00 M61.00,28.68 L60.00,28.32 M2.36,58.00 L2.25,57.00 M33.67,69.00 L34.00,69.35 M91.00,83.29 L90.42,84.00 M100.28,39.00 L100.54,40.00 M57.00,2.25 L58.00,2.36 M67.00,4.30 L68.00,4.63 M2.16,48.00 L2.25,47.00 M32.41,6.00 L33.00,5.75 M79.13,10.00 L80.00,10.58 M59.00,59.14 L58.00,60.00 M101.51,59.00 L101.36,60.00 M9.00,77.51 L8.70,77.00 M30.21,97.00 L30.00,96.90 M38.00,72.71 L38.44,73.00 M53.00,76.98 L54.00,76.92 M62.00,74.91 L63.00,74.45 M88.66,18.00 L89.00,18.37 M7.00,30.21 L7.10,30.00 M29.55,41.00 L29.09,42.00 M37.00,32.00 L36.00,32.79 M76.82,55.00 L76.92,54.00 M45.00,101.51 L44.00,101.36 M5.35,70.00 L5.00,69.06 M16.00,17.30 L16.29,17.00 M35.00,70.33 L35.76,71.00 M102.00,52.00 L101.99,53.00 M61.00,2.82 L61.95,3.00 M71.21,36.00 L71.00,35.76 M4.98,35.00 L5.00,34.94 M13.58,84.00 L13.00,83.29 M35.76,71.00 L36.00,71.21 M76.27,58.00 L76.49,57.00 M43.34,57.00 L43.00,56.34 M82.00,92.00 L81.00,92.73 M14.44,19.00 L15.00,18.37 M34.65,34.00 L34.00,34.65 M60.00,46.00 L60.66,47.00 M70.33,35.00 L70.00,34.65 M83.29,13.00 L84.00,13.58 M12.00,82.00 L11.27,81.00 M43.00,75.32 L44.00,75.68 M101.36,60.00 L101.18,61.00 M65.00,100.28 L64.00,100.54 M52.00,102.00 L51.00,101.99 M75.75,8.00 L76.00,8.14 M11.00,23.38 L11.27,23.00 M42.21,75.00 L43.00,75.32 M90.00,19.51 L90.42,20.00 M48.00,2.16 L49.00,2.09 M68.24,33.00 L68.00,32.79 M26.00,94.71 L25.00,94.08 M41.00,100.77 L40.00,100.54 M61.95,3.00 L62.00,3.01 M50.00,61.80 L49.00,61.54 M93.42,80.00 L93.00,80.62 M73.35,39.00 L73.00,38.44 M100.54,40.00 L100.77,41.00 M22.00,12.00 L23.00,11.27 M40.00,3.46 L41.00,3.23 M44.86,45.00 L45.00,44.86 M56.00,27.32 L55.00,27.18 M90.42,20.00 L91.00,20.71 M19.00,89.56 L18.37,89.00 M29.00,42.21 L28.68,43.00 M81.00,92.73 L80.62,93.00 M70.00,98.65 L69.06,99.00 M79.13,94.00 L79.00,94.08 M18.00,15.34 L18.37,15.00 M28.00,59.00 L28.32,60.00 M96.00,28.25 L96.40,29.00 M52.00,77.00 L53.00,76.98 M53.00,101.99 L52.00,102.00 M97.00,73.79 L96.90,74.00 M3.46,64.00 L3.23,63.00 M28.25,96.00 L28.00,95.86 M69.06,99.00 L69.00,99.02 M77.51,95.00 L77.00,95.30 M97.83,32.00 L98.00,32.41 M4.00,38.00 L4.30,37.00 M27.51,47.00 L27.32,48.00 M51.00,76.98 L52.00,77.00 M75.00,42.21 L74.91,42.00 M61.54,55.00 L61.16,56.00 M3.00,61.95 L2.82,61.00 M27.08,54.00 L27.18,55.00 M93.00,80.62 L92.73,81.00 M101.00,42.05 L101.18,43.00 M58.00,44.00 L59.00,44.86 M76.49,47.00 L76.27,46.00 M2.64,44.00 L2.82,43.00 M33.67,35.00 L33.00,35.76 M92.00,22.00 L92.73,23.00 M49.00,42.46 L50.00,42.20 M72.00,97.83 L71.59,98.00 M60.00,58.00 L59.14,59.00 M101.91,55.00 L101.84,56.00 M2.09,55.00 L2.04,54.00 M31.29,66.00 L32.00,67.00 M55.00,2.09 L56.00,2.16 M64.00,3.46 L65.00,3.72 M101.18,43.00 L101.36,44.00 M8.14,28.00 L8.70,27.00 M30.21,7.00 L31.00,6.62 M38.44,73.00 L39.00,73.35 M96.90,74.00 L96.40,75.00 M77.51,9.00 L78.00,9.29 M47.00,27.51 L46.00,27.73 M6.62,73.00 L6.17,72.00 M30.00,40.13 L29.55,41.00 M37.00,4.30 L38.00,4.00 M61.54,49.00 L61.80,50.00 M61.95,101.00 L61.00,101.18 M6.00,32.41 L6.17,32.00 M15.34,86.00 L15.00,85.63 M37.00,99.70 L36.00,99.37 M76.92,54.00 L76.98,53.00 M44.86,59.00 L44.00,58.00 M84.49,90.00 L84.00,90.42 M4.63,68.00 L4.30,67.00 M16.29,17.00 L17.00,16.29 M35.76,33.00 L35.00,33.67 M61.00,47.66 L61.16,48.00 M71.59,6.00 L72.00,6.17 M85.63,15.00 L86.00,15.34 M5.00,34.94 L5.35,34.00 M14.00,84.49 L13.58,84.00 M34.94,99.00 L34.00,98.65 M101.84,56.00 L101.75,57.00 M67.00,32.00 L66.00,31.29 M44.00,28.32 L43.00,28.68 M13.00,20.71 L13.58,20.00 M43.00,56.34 L42.84,56.00 M101.64,46.00 L101.75,47.00 M59.00,76.00 L60.00,75.68 M69.35,34.00 L69.00,33.67 M10.58,80.00 L10.00,79.13 M42.05,3.00 L43.00,2.82 M62.00,100.99 L61.95,101.00 M51.00,101.99 L50.00,101.96 M95.00,77.51 L94.71,78.00 M74.00,63.87 L74.45,63.00 M24.87,10.00 L25.00,9.92 M41.00,74.45 L42.00,74.91 M46.00,2.36 L47.00,2.25 M57.00,27.51 L56.00,27.32 M92.73,23.00 L93.00,23.38 M21.00,91.23 L20.71,91.00 M40.00,100.54 L39.00,100.28 M84.00,90.42 L83.29,91.00 M71.21,68.00 L72.00,67.00 M48.00,27.32 L47.00,27.51 M72.71,38.00 L72.00,37.00 M20.00,13.58 L20.71,13.00 M29.00,7.60 L30.00,7.10 M83.00,12.77 L83.29,13.00 M44.00,2.64 L45.00,2.49 M55.00,27.18 L54.00,27.08 M98.25,71.00 L98.00,71.59 M17.30,88.00 L17.00,87.71 M29.00,96.40 L28.25,96.00 M70.33,69.00 L71.00,68.24 M80.00,93.42 L79.13,94.00 M99.00,34.94 L99.02,35.00 M18.37,15.00 L19.00,14.44 M28.25,8.00 L29.00,7.60 M53.00,2.01 L54.00,2.04 M75.75,96.00 L75.00,96.40 M54.00,27.08 L53.00,27.02 M3.72,65.00 L3.46,64.00 M27.73,58.00 L28.00,59.00 M94.71,78.00 L94.08,79.00 M68.24,71.00 L69.00,70.33 M76.98,51.00 L76.92,50.00 M3.23,41.00 L3.46,40.00 M27.08,50.00 L27.02,51.00 M94.00,24.87 L94.08,25.00 M50.00,76.92 L51.00,76.98 M73.35,65.00 L73.93,64.00 M61.00,56.34 L60.66,57.00 M2.49,59.00 L2.36,58.00 M32.79,68.00 L33.00,68.24 M56.00,42.84 L56.34,43.00 M65.56,31.00 L65.00,30.65 M101.75,47.00 L101.84,48.00 M2.01,51.00 L2.04,50.00 M31.29,38.00 L31.00,38.44 M98.00,71.59 L97.83,72.00 M80.00,10.58 L80.62,11.00 M58.00,60.00 L57.00,60.66 M8.00,75.75 L7.60,75.00 M30.65,65.00 L31.00,65.56 M38.44,31.00 L38.00,31.29 M97.38,31.00 L97.83,32.00 M54.00,2.04 L55.00,2.09 M63.00,3.23 L64.00,3.46 M7.10,30.00 L7.60,29.00 M30.00,7.10 L30.21,7.00 M39.00,30.65 L38.44,31.00 M78.00,9.29 L79.00,9.92 M46.00,27.73 L45.00,28.00 M86.70,88.00 L86.00,88.66 M5.75,71.00 L5.35,70.00 M30.00,96.90 L29.00,96.40 M37.00,72.00 L38.00,72.71 M61.79,29.00 L61.00,28.68 M61.95,53.00 L61.80,54.00 M87.71,17.00 L88.00,17.30 M6.17,32.00 L6.62,31.00 M16.00,86.70 L15.34,86.00 M36.00,32.79 L35.76,33.00 M76.49,57.00 L76.68,56.00 M45.00,28.00 L44.00,28.32 M4.98,69.00 L4.63,68.00 M15.00,18.37 L15.34,18.00 M34.94,5.00 L35.00,4.98 M101.96,50.00 L101.99,51.00 M60.00,75.68 L61.00,75.32 M71.00,5.75 L71.59,6.00 M12.77,83.00 L12.00,82.00 M42.84,48.00 L43.00,47.66 M64.00,30.07 L63.87,30.00 M53.00,27.02 L52.00,27.00 M96.40,75.00 L96.00,75.75 M75.00,61.79 L75.32,61.00 M9.92,25.00 L10.00,24.87 M42.05,53.00 L42.00,52.00 M47.00,43.34 L47.66,43.00 M67.00,72.00 L68.00,71.21 M94.08,25.00 L94.71,26.00 M24.00,93.42 L23.38,93.00 M42.00,29.09 L41.00,29.55 M86.00,88.66 L85.63,89.00 M61.95,51.00 L62.00,52.00 M49.00,61.54 L48.00,61.16 M73.79,7.00 L74.00,7.10 M23.00,11.27 L23.38,11.00 M40.00,73.93 L40.13,74.00 M85.00,14.44 L85.63,15.00 M45.00,2.49 L46.00,2.36 M56.00,61.16 L55.00,61.54 M99.37,68.00 L99.02,69.00 M19.51,90.00 L19.00,89.56 M40.13,74.00 L41.00,74.45 M71.59,98.00 L71.00,98.25 M73.00,6.62 L73.79,7.00 M100.00,38.00 L100.28,39.00 M20.71,13.00 L21.00,12.77 M29.00,61.79 L29.09,62.00 M44.00,46.00 L44.86,45.00 M55.00,61.54 L54.00,61.80 M18.00,88.66 L17.30,88.00 M28.32,60.00 L28.68,61.00 M96.00,75.75 L95.86,76.00 M69.35,70.00 L70.00,69.35 M78.00,94.71 L77.51,95.00 M4.30,37.00 L4.63,36.00 M27.73,46.00 L27.51,47.00 M95.30,27.00 L95.86,28.00 M52.00,2.00 L53.00,2.01 M74.00,96.90 L73.79,97.00 M61.79,75.00 L62.00,74.91 M3.01,62.00 L3.00,61.95 M27.00,8.70 L28.00,8.14 M57.00,43.34 L58.00,44.00 M76.00,8.14 L77.00,8.70 M101.99,51.00 L102.00,52.00 M2.25,47.00 L2.36,46.00 M32.79,36.00 L32.00,37.00 M48.00,42.84 L49.00,42.46 M99.02,69.00 L99.00,69.06 M72.71,66.00 L73.00,65.56 M59.00,101.51 L58.00,101.64 M2.00,52.00 L2.01,51.00 M32.00,37.00 L31.29,38.00 M98.65,34.00 L99.00,34.94 M55.00,42.46 L56.00,42.84 M64.00,73.93 L65.00,73.35 M8.70,27.00 L9.00,26.49 M30.65,39.00 L30.07,40.00 "/>

<script>
let svgs = document.children[0];
let paths = Array.from(svgs.children).filter(function(c) {
    var orig = c.style.stroke;
    c.onmouseover = function() {
        c.style.stroke = "rgb(0, 0, 255)";
    };
    c.onmouseout = function () {
        c.style.stroke = orig;
    };
    c.onclick = function () {
        svgs.removeChild();
    }
});

for (let path of paths) {
    console.log(path);
}
</script></svg>