<svg xmlns="http://www.w3.org/2000/svg">
    <path fill-rule="evenodd" style="fill: none; stroke: rgb(0, 0, 0); stroke-width: 0.2;" d="M12.10,98.00 L12.00,97.00 L12.00,97.00 L11.90,98.00 L11.90,98.00 L11.58,99.00 L11.00,100.00 L10.00,101.00 L9.00,101.58 L8.00,101.90 L7.00,102.00 L6.00,101.90 L5.00,101.58 L4.00,101.00 L3.00,100.00 L2.42,99.00 L2.10,98.00 L2.00,97.00 L2.10,96.00 L2.42,95.00 L3.00,94.00 L4.00,93.00 L5.00,92.42 L6.00,92.10 L6.00,92.10 L7.00,92.00 L7.00,92.00 L6.00,91.90 L6.00,91.90 L5.00,91.58 L4.00,91.00 L3.00,90.00 L2.42,89.00 L2.10,88.00 L2.00,87.00 L2.10,86.00 L2.42,85.00 L3.00,84.00 L4.00,83.00 L5.00,82.42 L6.00,82.10 L6.00,82.10 L7.00,82.00 L7.00,82.00 L6.00,81.90 L6.00,81.90 L5.00,81.58 L4.00,81.00 L3.00,80.00 L2.42,79.00 L2.10,78.00 L2.00,77.00 L2.10,76.00 L2.42,75.00 L3.00,74.00 L4.00,73.00 L5.00,72.42 L6.00,72.10 L6.00,72.10 L7.00,72.00 L7.00,72.00 L8.00,72.10 L8.00,72.10 L9.00,72.42 L10.00,73.00 L11.00,74.00 L11.58,75.00 L11.90,76.00 L11.90,76.00 L12.00,77.00 L12.00,77.00 L11.90,78.00 L11.90,78.00 L11.58,79.00 L11.00,80.00 L10.00,81.00 L9.00,81.58 L8.00,81.90 L8.00,81.90 L7.00,82.00 L7.00,82.00 L8.00,82.10 L8.00,82.10 L9.00,82.42 L10.00,83.00 L11.00,84.00 L11.58,85.00 L11.90,86.00 L11.90,86.00 L12.00,87.00 L12.00,87.00 L11.90,88.00 L11.90,88.00 L11.58,89.00 L11.00,90.00 L10.00,91.00 L9.00,91.58 L8.00,91.90 L8.00,91.90 L7.00,92.00 L7.00,92.00 L8.00,92.10 L8.00,92.10 L9.00,92.42 L10.00,93.00 L11.00,94.00 L11.58,95.00 L11.90,96.00 L11.90,96.00 L12.00,97.00 L12.00,97.00 L12.10,96.00 L12.10,96.00 L12.42,95.00 L13.00,94.00 L14.00,93.00 L15.00,92.42 L16.00,92.10 L16.00,92.10 L17.00,92.00 L17.00,92.00 L16.00,91.90 L16.00,91.90 L15.00,91.58 L14.00,91.00 L13.00,90.00 L12.42,89.00 L12.10,88.00 L12.10,88.00 L12.00,87.00 L12.00,87.00 L12.10,86.00 L12.10,86.00 L12.42,85.00 L13.00,84.00 L14.00,83.00 L15.00,82.42 L16.00,82.10 L16.00,82.10 L17.00,82.00 L17.00,82.00 L16.00,81.90 L16.00,81.90 L15.00,81.58 L14.00,81.00 L13.00,80.00 L12.42,79.00 L12.10,78.00 L12.10,78.00 L12.00,77.00 L12.00,77.00 L12.10,76.00 L12.10,76.00 L12.42,75.00 L13.00,74.00 L14.00,73.00 L15.00,72.42 L16.00,72.10 L16.00,72.10 L17.00,72.00 L17.00,72.00 L18.00,72.10 L18.00,72.10 L19.00,72.42 L20.00,73.00 L21.00,74.00 L21.58,75.00 L21.90,76.00 L21.90,76.00 L22.00,77.00 L22.00,77.00 L22.10,76.00 L22.10,76.00 L22.42,75.00 L23.00,74.00 L24.00,73.00 L25.00,72.42 L26.00,72.10 L26.00,72.10 L27.00,72.00 L27.00,72.00 L28.00,72.10 L28.00,72.10 L29.00,72.42 L30.00,73.00 L31.00,74.00 L31.58,75.00 L31.90,76.00 L31.90,76.00 L32.00,77.00 L32.00,77.00 L32.10,76.00 L32.10,76.00 L32.42,75.00 L33.00,74.00 L34.00,73.00 L35.00,72.42 L36.00,72.10 L36.00,72.10 L37.00,72.00 L37.00,72.00 L38.00,72.10 L38.00,72.10 L39.00,72.42 L40.00,73.00 L41.00,74.00 L41.58,75.00 L41.90,76.00 L41.90,76.00 L42.00,77.00 L42.00,77.00 L42.10,76.00 L42.10,76.00 L42.42,75.00 L43.00,74.00 L44.00,73.00 L45.00,72.42 L46.00,72.10 L46.00,72.10 L47.00,72.00 L47.00,72.00 L46.00,71.90 L46.00,71.90 L45.00,71.58 L44.00,71.00 L43.00,70.00 L42.42,69.00 L42.10,68.00 L42.10,68.00 L42.00,67.00 L42.00,67.00 L41.90,68.00 L41.90,68.00 L41.58,69.00 L41.00,70.00 L40.00,71.00 L39.00,71.58 L38.00,71.90 L38.00,71.90 L37.00,72.00 L37.00,72.00 L36.00,71.90 L36.00,71.90 L35.00,71.58 L34.00,71.00 L33.00,70.00 L32.42,69.00 L32.10,68.00 L32.10,68.00 L32.00,67.00 L32.00,67.00 L31.90,68.00 L31.90,68.00 L31.58,69.00 L31.00,70.00 L30.00,71.00 L29.00,71.58 L28.00,71.90 L28.00,71.90 L27.00,72.00 L27.00,72.00 L26.00,71.90 L26.00,71.90 L25.00,71.58 L24.00,71.00 L23.00,70.00 L22.42,69.00 L22.10,68.00 L22.10,68.00 L22.00,67.00 L22.00,67.00 L21.90,68.00 L21.90,68.00 L21.58,69.00 L21.00,70.00 L20.00,71.00 L19.00,71.58 L18.00,71.90 L18.00,71.90 L17.00,72.00 L17.00,72.00 L16.00,71.90 L16.00,71.90 L15.00,71.58 L14.00,71.00 L13.00,70.00 L12.42,69.00 L12.10,68.00 L12.10,68.00 L12.00,67.00 L12.00,67.00 L11.90,68.00 L11.90,68.00 L11.58,69.00 L11.00,70.00 L10.00,71.00 L9.00,71.58 L8.00,71.90 L8.00,71.90 L7.00,72.00 L7.00,72.00 L6.00,71.90 L6.00,71.90 L5.00,71.58 L4.00,71.00 L3.00,70.00 L2.42,69.00 L2.10,68.00 L2.00,67.00 L2.10,66.00 L2.42,65.00 L3.00,64.00 L4.00,63.00 L5.00,62.42 L6.00,62.10 L6.00,62.10 L7.00,62.00 L7.00,62.00 L6.00,61.90 L6.00,61.90 L5.00,61.58 L4.00,61.00 L3.00,60.00 L2.42,59.00 L2.10,58.00 L2.00,57.00 L2.10,56.00 L2.42,55.00 L3.00,54.00 L4.00,53.00 L5.00,52.42 L6.00,52.10 L6.00,52.10 L7.00,52.00 L7.00,52.00 L6.00,51.90 L6.00,51.90 L5.00,51.58 L4.00,51.00 L3.00,50.00 L2.42,49.00 L2.10,48.00 L2.00,47.00 L2.10,46.00 L2.42,45.00 L3.00,44.00 L4.00,43.00 L5.00,42.42 L6.00,42.10 L6.00,42.10 L7.00,42.00 L7.00,42.00 L6.00,41.90 L6.00,41.90 L5.00,41.58 L4.00,41.00 L3.00,40.00 L2.42,39.00 L2.10,38.00 L2.00,37.00 L2.10,36.00 L2.42,35.00 L3.00,34.00 L4.00,33.00 L5.00,32.42 L6.00,32.10 L6.00,32.10 L7.00,32.00 L7.00,32.00 L8.00,32.10 L8.00,32.10 L9.00,32.42 L10.00,33.00 L11.00,34.00 L11.58,35.00 L11.90,36.00 L11.90,36.00 L12.00,37.00 L12.00,37.00 L11.90,38.00 L11.90,38.00 L11.58,39.00 L11.00,40.00 L10.00,41.00 L9.00,41.58 L8.00,41.90 L8.00,41.90 L7.00,42.00 L7.00,42.00 L8.00,42.10 L8.00,42.10 L9.00,42.42 L10.00,43.00 L11.00,44.00 L11.58,45.00 L11.90,46.00 L11.90,46.00 L12.00,47.00 L12.00,47.00 L11.90,48.00 L11.90,48.00 L11.58,49.00 L11.00,50.00 L10.00,51.00 L9.00,51.58 L8.00,51.90 L8.00,51.90 L7.00,52.00 L7.00,52.00 L8.00,52.10 L8.00,52.10 L9.00,52.42 L10.00,53.00 L11.00,54.00 L11.58,55.00 L11.90,56.00 L11.90,56.00 L12.00,57.00 L12.00,57.00 L11.90,58.00 L11.90,58.00 L11.58,59.00 L11.00,60.00 L10.00,61.00 L9.00,61.58 L8.00,61.90 L8.00,61.90 L7.00,62.00 L7.00,62.00 L8.00,62.10 L8.00,62.10 L9.00,62.42 L10.00,63.00 L11.00,64.00 L11.58,65.00 L11.90,66.00 L11.90,66.00 L12.00,67.00 L12.00,67.00 L12.10,66.00 L12.10,66.00 L12.42,65.00 L13.00,64.00 L14.00,63.00 L15.00,62.42 L16.00,62.10 L16.00,62.10 L17.00,62.00 L17.00,62.00 L18.00,62.10 L18.00,62.10 L19.00,62.42 L20.00,63.00 L21.00,64.00 L21.58,65.00 L21.90,66.00 L21.90,66.00 L22.00,67.00 L22.00,67.00 L22.10,66.00 L22.10,66.00 L22.42,65.00 L23.00,64.00 L24.00,63.00 L25.00,62.42 L26.00,62.10 L26.00,62.10 L27.00,62.00 L27.00,62.00 L26.00,61.90 L26.00,61.90 L25.00,61.58 L24.00,61.00 L23.00,60.00 L22.42,59.00 L22.10,58.00 L22.10,58.00 L22.00,57.00 L22.00,57.00 L22.10,56.00 L22.10,56.00 L22.42,55.00 L23.00,54.00 L24.00,53.00 L25.00,52.42 L26.00,52.10 L26.00,52.10 L27.00,52.00 L27.00,52.00 L26.00,51.90 L26.00,51.90 L25.00,51.58 L24.00,51.00 L23.00,50.00 L22.42,49.00 L22.10,48.00 L22.10,48.00 L22.00,47.00 L22.00,47.00 L22.10,46.00 L22.10,46.00 L22.42,45.00 L23.00,44.00 L24.00,43.00 L25.00,42.42 L26.00,42.10 L26.00,42.10 L27.00,42.00 L27.00,42.00 L26.00,41.90 L26.00,41.90 L25.00,41.58 L24.00,41.00 L23.00,40.00 L22.42,39.00 L22.10,38.00 L22.10,38.00 L22.00,37.00 L22.00,37.00 L22.10,36.00 L22.10,36.00 L22.42,35.00 L23.00,34.00 L24.00,33.00 L25.00,32.42 L26.00,32.10 L26.00,32.10 L27.00,32.00 L27.00,32.00 L26.00,31.90 L26.00,31.90 L25.00,31.58 L24.00,31.00 L23.00,30.00 L22.42,29.00 L22.10,28.00 L22.10,28.00 L22.00,27.00 L22.00,27.00 L22.10,26.00 L22.10,26.00 L22.42,25.00 L23.00,24.00 L24.00,23.00 L25.00,22.42 L26.00,22.10 L26.00,22.10 L27.00,22.00 L27.00,22.00 L26.00,21.90 L26.00,21.90 L25.00,21.58 L24.00,21.00 L23.00,20.00 L22.42,19.00 L22.10,18.00 L22.10,18.00 L22.00,17.00 L22.00,17.00 L22.10,16.00 L22.10,16.00 L22.42,15.00 L23.00,14.00 L24.00,13.00 L25.00,12.42 L26.00,12.10 L26.00,12.10 L27.00,12.00 L27.00,12.00 L26.00,11.90 L26.00,11.90 L25.00,11.58 L24.00,11.00 L23.00,10.00 L22.42,9.00 L22.10,8.00 L22.10,8.00 L22.00,7.00 L22.00,7.00 L21.90,8.00 L21.90,8.00 L21.58,9.00 L21.00,10.00 L20.00,11.00 L19.00,11.58 L18.00,11.90 L18.00,11.90 L17.00,12.00 L17.00,12.00 L16.00,11.90 L16.00,11.90 L15.00,11.58 L14.00,11.00 L13.00,10.00 L12.42,9.00 L12.10,8.00 L12.10,8.00 L12.00,7.00 L12.00,7.00 L11.90,8.00 L11.90,8.00 L11.58,9.00 L11.00,10.00 L10.00,11.00 L9.00,11.58 L8.00,11.90 L8.00,11.90 L7.00,12.00 L7.00,12.00 L6.00,11.90 L6.00,11.90 L5.00,11.58 L4.00,11.00 L3.00,10.00 L2.42,9.00 L2.10,8.00 L2.00,7.00 L2.10,6.00 L2.42,5.00 L3.00,4.00 L4.00,3.00 L5.00,2.42 L6.00,2.10 L7.00,2.00 L8.00,2.10 L9.00,2.42 L10.00,3.00 L11.00,4.00 L11.58,5.00 L11.90,6.00 L11.90,6.00 L12.00,7.00 L12.00,7.00 L12.10,6.00 L12.10,6.00 L12.42,5.00 L13.00,4.00 L14.00,3.00 L15.00,2.42 L16.00,2.10 L17.00,2.00 L18.00,2.10 L19.00,2.42 L20.00,3.00 L21.00,4.00 L21.58,5.00 L21.90,6.00 L21.90,6.00 L22.00,7.00 L22.00,7.00 L22.10,6.00 L22.10,6.00 L22.42,5.00 L23.00,4.00 L24.00,3.00 L25.00,2.42 L26.00,2.10 L27.00,2.00 L28.00,2.10 L29.00,2.42 L30.00,3.00 L31.00,4.00 L31.58,5.00 L31.90,6.00 L31.90,6.00 L32.00,7.00 L32.00,7.00 L31.90,8.00 L31.90,8.00 L31.58,9.00 L31.00,10.00 L30.00,11.00 L29.00,11.58 L28.00,11.90 L28.00,11.90 L27.00,12.00 L27.00,12.00 L28.00,12.10 L28.00,12.10 L29.00,12.42 L30.00,13.00 L31.00,14.00 L31.58,15.00 L31.90,16.00 L31.90,16.00 L32.00,17.00 L32.00,17.00 L32.10,16.00 L32.10,16.00 L32.42,15.00 L33.00,14.00 L34.00,13.00 L35.00,12.42 L36.00,12.10 L36.00,12.10 L37.00,12.00 L37.00,12.00 L36.00,11.90 L36.00,11.90 L35.00,11.58 L34.00,11.00 L33.00,10.00 L32.42,9.00 L32.10,8.00 L32.10,8.00 L32.00,7.00 L32.00,7.00 L32.10,6.00 L32.10,6.00 L32.42,5.00 L33.00,4.00 L34.00,3.00 L35.00,2.42 L36.00,2.10 L37.00,2.00 L38.00,2.10 L39.00,2.42 L40.00,3.00 L41.00,4.00 L41.58,5.00 L41.90,6.00 L41.90,6.00 L42.00,7.00 L42.00,7.00 L42.10,6.00 L42.10,6.00 L42.42,5.00 L43.00,4.00 L44.00,3.00 L45.00,2.42 L46.00,2.10 L47.00,2.00 L48.00,2.10 L49.00,2.42 L50.00,3.00 L51.00,4.00 L51.58,5.00 L51.90,6.00 L51.90,6.00 L52.00,7.00 L52.00,7.00 L52.10,6.00 L52.10,6.00 L52.42,5.00 L53.00,4.00 L54.00,3.00 L55.00,2.42 L56.00,2.10 L57.00,2.00 L58.00,2.10 L59.00,2.42 L60.00,3.00 L61.00,4.00 L61.58,5.00 L61.90,6.00 L61.90,6.00 L62.00,7.00 L62.00,7.00 L61.90,8.00 L61.90,8.00 L61.58,9.00 L61.00,10.00 L60.00,11.00 L59.00,11.58 L58.00,11.90 L58.00,11.90 L57.00,12.00 L57.00,12.00 L56.00,11.90 L56.00,11.90 L55.00,11.58 L54.00,11.00 L53.00,10.00 L52.42,9.00 L52.10,8.00 L52.10,8.00 L52.00,7.00 L52.00,7.00 L51.90,8.00 L51.90,8.00 L51.58,9.00 L51.00,10.00 L50.00,11.00 L49.00,11.58 L48.00,11.90 L48.00,11.90 L47.00,12.00 L47.00,12.00 L46.00,11.90 L46.00,11.90 L45.00,11.58 L44.00,11.00 L43.00,10.00 L42.42,9.00 L42.10,8.00 L42.10,8.00 L42.00,7.00 L42.00,7.00 L41.90,8.00 L41.90,8.00 L41.58,9.00 L41.00,10.00 L40.00,11.00 L39.00,11.58 L38.00,11.90 L38.00,11.90 L37.00,12.00 L37.00,12.00 L38.00,12.10 L38.00,12.10 L39.00,12.42 L40.00,13.00 L41.00,14.00 L41.58,15.00 L41.90,16.00 L41.90,16.00 L42.00,17.00 L42.00,17.00 L41.90,18.00 L41.90,18.00 L41.58,19.00 L41.00,20.00 L40.00,21.00 L39.00,21.58 L38.00,21.90 L38.00,21.90 L37.00,22.00 L37.00,22.00 L36.00,21.90 L36.00,21.90 L35.00,21.58 L34.00,21.00 L33.00,20.00 L32.42,19.00 L32.10,18.00 L32.10,18.00 L32.00,17.00 L32.00,17.00 L31.90,18.00 L31.90,18.00 L31.58,19.00 L31.00,20.00 L30.00,21.00 L29.00,21.58 L28.00,21.90 L28.00,21.90 L27.00,22.00 L27.00,22.00 L28.00,22.10 L28.00,22.10 L29.00,22.42 L30.00,23.00 L31.00,24.00 L31.58,25.00 L31.90,26.00 L31.90,26.00 L32.00,27.00 L32.00,27.00 L31.90,28.00 L31.90,28.00 L31.58,29.00 L31.00,30.00 L30.00,31.00 L29.00,31.58 L28.00,31.90 L28.00,31.90 L27.00,32.00 L27.00,32.00 L28.00,32.10 L28.00,32.10 L29.00,32.42 L30.00,33.00 L31.00,34.00 L31.58,35.00 L31.90,36.00 L31.90,36.00 L32.00,37.00 L32.00,37.00 L32.10,36.00 L32.10,36.00 L32.42,35.00 L33.00,34.00 L34.00,33.00 L35.00,32.42 L36.00,32.10 L36.00,32.10 L37.00,32.00 L37.00,32.00 L36.00,31.90 L36.00,31.90 L35.00,31.58 L34.00,31.00 L33.00,30.00 L32.42,29.00 L32.10,28.00 L32.10,28.00 L32.00,27.00 L32.00,27.00 L32.10,26.00 L32.10,26.00 L32.42,25.00 L33.00,24.00 L34.00,23.00 L35.00,22.42 L36.00,22.10 L36.00,22.10 L37.00,22.00 L37.00,22.00 L38.00,22.10 L38.00,22.10 L39.00,22.42 L40.00,23.00 L41.00,24.00 L41.58,25.00 L41.90,26.00 L41.90,26.00 L42.00,27.00 L42.00,27.00 L41.90,28.00 L41.90,28.00 L41.58,29.00 L41.00,30.00 L40.00,31.00 L39.00,31.58 L38.00,31.90 L38.00,31.90 L37.00,32.00 L37.00,32.00 L38.00,32.10 L38.00,32.10 L39.00,32.42 L40.00,33.00 L41.00,34.00 L41.58,35.00 L41.90,36.00 L41.90,36.00 L42.00,37.00 L42.00,37.00 L42.10,36.00 L42.10,36.00 L42.42,35.00 L43.00,34.00 L44.00,33.00 L45.00,32.42 L46.00,32.10 L46.00,32.10 L47.00,32.00 L47.00,32.00 L48.00,32.10 L48.00,32.10 L49.00,32.42 L50.00,33.00 L51.00,34.00 L51.58,35.00 L51.90,36.00 L51.90,36.00 L52.00,37.00 L52.00,37.00 L51.90,38.00 L51.90,38.00 L51.58,39.00 L51.00,40.00 L50.00,41.00 L49.00,41.58 L48.00,41.90 L48.00,41.90 L47.00,42.00 L47.00,42.00 L48.00,42.10 L48.00,42.10 L49.00,42.42 L50.00,43.00 L51.00,44.00 L51.58,45.00 L51.90,46.00 L51.90,46.00 L52.00,47.00 L52.00,47.00 L51.90,48.00 L51.90,48.00 L51.58,49.00 L51.00,50.00 L50.00,51.00 L49.00,51.58 L48.00,51.90 L48.00,51.90 L47.00,52.00 L47.00,52.00 L46.00,51.90 L46.00,51.90 L45.00,51.58 L44.00,51.00 L43.00,50.00 L42.42,49.00 L42.10,48.00 L42.10,48.00 L42.00,47.00 L42.00,47.00 L42.10,46.00 L42.10,46.00 L42.42,45.00 L43.00,44.00 L44.00,43.00 L45.00,42.42 L46.00,42.10 L46.00,42.10 L47.00,42.00 L47.00,42.00 L46.00,41.90 L46.00,41.90 L45.00,41.58 L44.00,41.00 L43.00,40.00 L42.42,39.00 L42.10,38.00 L42.10,38.00 L42.00,37.00 L42.00,37.00 L41.90,38.00 L41.90,38.00 L41.58,39.00 L41.00,40.00 L40.00,41.00 L39.00,41.58 L38.00,41.90 L38.00,41.90 L37.00,42.00 L37.00,42.00 L38.00,42.10 L38.00,42.10 L39.00,42.42 L40.00,43.00 L41.00,44.00 L41.58,45.00 L41.90,46.00 L41.90,46.00 L42.00,47.00 L42.00,47.00 L41.90,48.00 L41.90,48.00 L41.58,49.00 L41.00,50.00 L40.00,51.00 L39.00,51.58 L38.00,51.90 L38.00,51.90 L37.00,52.00 L37.00,52.00 L36.00,51.90 L36.00,51.90 L35.00,51.58 L34.00,51.00 L33.00,50.00 L32.42,49.00 L32.10,48.00 L32.10,48.00 L32.00,47.00 L32.00,47.00 L32.10,46.00 L32.10,46.00 L32.42,45.00 L33.00,44.00 L34.00,43.00 L35.00,42.42 L36.00,42.10 L36.00,42.10 L37.00,42.00 L37.00,42.00 L36.00,41.90 L36.00,41.90 L35.00,41.58 L34.00,41.00 L33.00,40.00 L32.42,39.00 L32.10,38.00 L32.10,38.00 L32.00,37.00 L32.00,37.00 L31.90,38.00 L31.90,38.00 L31.58,39.00 L31.00,40.00 L30.00,41.00 L29.00,41.58 L28.00,41.90 L28.00,41.90 L27.00,42.00 L27.00,42.00 L28.00,42.10 L28.00,42.10 L29.00,42.42 L30.00,43.00 L31.00,44.00 L31.58,45.00 L31.90,46.00 L31.90,46.00 L32.00,47.00 L32.00,47.00 L31.90,48.00 L31.90,48.00 L31.58,49.00 L31.00,50.00 L30.00,51.00 L29.00,51.58 L28.00,51.90 L28.00,51.90 L27.00,52.00 L27.00,52.00 L28.00,52.10 L28.00,52.10 L29.00,52.42 L30.00,53.00 L31.00,54.00 L31.58,55.00 L31.90,56.00 L31.90,56.00 L32.00,57.00 L32.00,57.00 L31.90,58.00 L31.90,58.00 L31.58,59.00 L31.00,60.00 L30.00,61.00 L29.00,61.58 L28.00,61.90 L28.00,61.90 L27.00,62.00 L27.00,62.00 L28.00,62.10 L28.00,62.10 L29.00,62.42 L30.00,63.00 L31.00,64.00 L31.58,65.00 L31.90,66.00 L31.90,66.00 L32.00,67.00 L32.00,67.00 L32.10,66.00 L32.10,66.00 L32.42,65.00 L33.00,64.00 L34.00,63.00 L35.00,62.42 L36.00,62.10 L36.00,62.10 L37.00,62.00 L37.00,62.00 L36.00,61.90 L36.00,61.90 L35.00,61.58 L34.00,61.00 L33.00,60.00 L32.42,59.00 L32.10,58.00 L32.10,58.00 L32.00,57.00 L32.00,57.00 L32.10,56.00 L32.10,56.00 L32.42,55.00 L33.00,54.00 L34.00,53.00 L35.00,52.42 L36.00,52.10 L36.00,52.10 L37.00,52.00 L37.00,52.00 L38.00,52.10 L38.00,52.10 L39.00,52.42 L40.00,53.00 L41.00,54.00 L41.58,55.00 L41.90,56.00 L41.90,56.00 L42.00,57.00 L42.00,57.00 L41.90,58.00 L41.90,58.00 L41.58,59.00 L41.00,60.00 L40.00,61.00 L39.00,61.58 L38.00,61.90 L38.00,61.90 L37.00,62.00 L37.00,62.00 L38.00,62.10 L38.00,62.10 L39.00,62.42 L40.00,63.00 L41.00,64.00 L41.58,65.00 L41.90,66.00 L41.90,66.00 L42.00,67.00 L42.00,67.00 L42.10,66.00 L42.10,66.00 L42.42,65.00 L43.00,64.00 L44.00,63.00 L45.00,62.42 L46.00,62.10 L46.00,62.10 L47.00,62.00 L47.00,62.00 L48.00,62.10 L48.00,62.10 L49.00,62.42 L50.00,63.00 L51.00,64.00 L51.58,65.00 L51.90,66.00 L51.90,66.00 L52.00,67.00 L52.00,67.00 L51.90,68.00 L51.90,68.00 L51.58,69.00 L51.00,70.00 L50.00,71.00 L49.00,71.58 L48.00,71.90 L48.00,71.90 L47.00,72.00 L47.00,72.00 L48.00,72.10 L48.00,72.10 L49.00,72.42 L50.00,73.00 L51.00,74.00 L51.58,75.00 L51.90,76.00 L51.90,76.00 L52.00,77.00 L52.00,77.00 L51.90,78.00 L51.90,78.00 L51.58,79.00 L51.00,80.00 L50.00,81.00 L49.00,81.58 L48.00,81.90 L48.00,81.90 L47.00,82.00 L47.00,82.00 L46.00,81.90 L46.00,81.90 L45.00,81.58 L44.00,81.00 L43.00,80.00 L42.42,79.00 L42.10,78.00 L42.10,78.00 L42.00,77.00 L42.00,77.00 L41.90,78.00 L41.90,78.00 L41.58,79.00 L41.00,80.00 L40.00,81.00 L39.00,81.58 L38.00,81.90 L38.00,81.90 L37.00,82.00 L37.00,82.00 L38.00,82.10 L38.00,82.10 L39.00,82.42 L40.00,83.00 L41.00,84.00 L41.58,85.00 L41.90,86.00 L41.90,86.00 L42.00,87.00 L42.00,87.00 L42.10,86.00 L42.10,86.00 L42.42,85.00 L43.00,84.00 L44.00,83.00 L45.00,82.42 L46.00,82.10 L46.00,82.10 L47.00,82.00 L47.00,82.00 L48.00,82.10 L48.00,82.10 L49.00,82.42 L50.00,83.00 L51.00,84.00 L51.58,85.00 L51.90,86.00 L51.90,86.00 L52.00,87.00 L52.00,87.00 L52.10,86.00 L52.10,86.00 L52.42,85.00 L53.00,84.00 L54.00,83.00 L55.00,82.42 L56.00,82.10 L56.00,82.10 L57.00,82.00 L57.00,82.00 L58.00,82.10 L58.00,82.10 L59.00,82.42 L60.00,83.00 L61.00,84.00 L61.58,85.00 L61.90,86.00 L61.90,86.00 L62.00,87.00 L62.00,87.00 L61.90,88.00 L61.90,88.00 L61.58,89.00 L61.00,90.00 L60.00,91.00 L59.00,91.58 L58.00,91.90 L58.00,91.90 L57.00,92.00 L57.00,92.00 L56.00,91.90 L56.00,91.90 L55.00,91.58 L54.00,91.00 L53.00,90.00 L52.42,89.00 L52.10,88.00 L52.10,88.00 L52.00,87.00 L52.00,87.00 L51.90,88.00 L51.90,88.00 L51.58,89.00 L51.00,90.00 L50.00,91.00 L49.00,91.58 L48.00,91.90 L48.00,91.90 L47.00,92.00 L47.00,92.00 L48.00,92.10 L48.00,92.10 L49.00,92.42 L50.00,93.00 L51.00,94.00 L51.58,95.00 L51.90,96.00 L51.90,96.00 L52.00,97.00 L52.00,97.00 L52.10,96.00 L52.10,96.00 L52.42,95.00 L53.00,94.00 L54.00,93.00 L55.00,92.42 L56.00,92.10 L56.00,92.10 L57.00,92.00 L57.00,92.00 L58.00,92.10 L58.00,92.10 L59.00,92.42 L60.00,93.00 L61.00,94.00 L61.58,95.00 L61.90,96.00 L61.90,96.00 L62.00,97.00 L62.00,97.00 L62.10,96.00 L62.10,96.00 L62.42,95.00 L63.00,94.00 L64.00,93.00 L65.00,92.42 L66.00,92.10 L66.00,92.10 L67.00,92.00 L67.00,92.00 L66.00,91.90 L66.00,91.90 L65.00,91.58 L64.00,91.00 L63.00,90.00 L62.42,89.00 L62.10,88.00 L62.10,88.00 L62.00,87.00 L62.00,87.00 L62.10,86.00 L62.10,86.00 L62.42,85.00 L63.00,84.00 L64.00,83.00 L65.00,82.42 L66.00,82.10 L66.00,82.10 L67.00,82.00 L67.00,82.00 L66.00,81.90 L66.00,81.90 L65.00,81.58 L64.00,81.00 L63.00,80.00 L62.42,79.00 L62.10,78.00 L62.10,78.00 L62.00,77.00 L62.00,77.00 L61.90,78.00 L61.90,78.00 L61.58,79.00 L61.00,80.00 L60.00,81.00 L59.00,81.58 L58.00,81.90 L58.00,81.90 L57.00,82.00 L57.00,82.00 L56.00,81.90 L56.00,81.90 L55.00,81.58 L54.00,81.00 L53.00,80.00 L52.42,79.00 L52.10,78.00 L52.10,78.00 L52.00,77.00 L52.00,77.00 L52.10,76.00 L52.10,76.00 L52.42,75.00 L53.00,74.00 L54.00,73.00 L55.00,72.42 L56.00,72.10 L56.00,72.10 L57.00,72.00 L57.00,72.00 L58.00,72.10 L58.00,72.10 L59.00,72.42 L60.00,73.00 L61.00,74.00 L61.58,75.00 L61.90,76.00 L61.90,76.00 L62.00,77.00 L62.00,77.00 L62.10,76.00 L62.10,76.00 L62.42,75.00 L63.00,74.00 L64.00,73.00 L65.00,72.42 L66.00,72.10 L66.00,72.10 L67.00,72.00 L67.00,72.00 L66.00,71.90 L66.00,71.90 L65.00,71.58 L64.00,71.00 L63.00,70.00 L62.42,69.00 L62.10,68.00 L62.10,68.00 L62.00,67.00 L62.00,67.00 L61.90,68.00 L61.90,68.00 L61.58,69.00 L61.00,70.00 L60.00,71.00 L59.00,71.58 L58.00,71.90 L58.00,71.90 L57.00,72.00 L57.00,72.00 L56.00,71.90 L56.00,71.90 L55.00,71.58 L54.00,71.00 L53.00,70.00 L52.42,69.00 L52.10,68.00 L52.10,68.00 L52.00,67.00 L52.00,67.00 L52.10,66.00 L52.10,66.00 L52.42,65.00 L53.00,64.00 L54.00,63.00 L55.00,62.42 L56.00,62.10 L56.00,62.10 L57.00,62.00 L57.00,62.00 L58.00,62.10 L58.00,62.10 L59.00,62.42 L60.00,63.00 L61.00,64.00 L61.58,65.00 L61.90,66.00 L61.90,66.00 L62.00,67.00 L62.00,67.00 L62.10,66.00 L62.10,66.00 L62.42,65.00 L63.00,64.00 L64.00,63.00 L65.00,62.42 L66.00,62.10 L66.00,62.10 L67.00,62.00 L67.00,62.00 L68.00,62.10 L68.00,62.10 L69.00,62.42 L70.00,63.00 L71.00,64.00 L71.58,65.00 L71.90,66.00 L71.90,66.00 L72.00,67.00 L72.00,67.00 L72.10,66.00 L72.10,66.00 L72.42,65.00 L73.00,64.00 L74.00,63.00 L75.00,62.42 L76.00,62.10 L76.00,62.10 L77.00,62.00 L77.00,62.00 L76.00,61.90 L76.00,61.90 L75.00,61.58 L74.00,61.00 L73.00,60.00 L72.42,59.00 L72.10,58.00 L72.10,58.00 L72.00,57.00 L72.00,57.00 L72.10,56.00 L72.10,56.00 L72.42,55.00 L73.00,54.00 L74.00,53.00 L75.00,52.42 L76.00,52.10 L76.00,52.10 L77.00,52.00 L77.00,52.00 L76.00,51.90 L76.00,51.90 L75.00,51.58 L74.00,51.00 L73.00,50.00 L72.42,49.00 L72.10,48.00 L72.10,48.00 L72.00,47.00 L72.00,47.00 L71.90,48.00 L71.90,48.00 L71.58,49.00 L71.00,50.00 L70.00,51.00 L69.00,51.58 L68.00,51.90 L68.00,51.90 L67.00,52.00 L67.00,52.00 L66.00,51.90 L66.00,51.90 L65.00,51.58 L64.00,51.00 L63.00,50.00 L62.42,49.00 L62.10,48.00 L62.10,48.00 L62.00,47.00 L62.00,47.00 L62.10,46.00 L62.10,46.00 L62.42,45.00 L63.00,44.00 L64.00,43.00 L65.00,42.42 L66.00,42.10 L66.00,42.10 L67.00,42.00 L67.00,42.00 L66.00,41.90 L66.00,41.90 L65.00,41.58 L64.00,41.00 L63.00,40.00 L62.42,39.00 L62.10,38.00 L62.10,38.00 L62.00,37.00 L62.00,37.00 L62.10,36.00 L62.10,36.00 L62.42,35.00 L63.00,34.00 L64.00,33.00 L65.00,32.42 L66.00,32.10 L66.00,32.10 L67.00,32.00 L67.00,32.00 L68.00,32.10 L68.00,32.10 L69.00,32.42 L70.00,33.00 L71.00,34.00 L71.58,35.00 L71.90,36.00 L71.90,36.00 L72.00,37.00 L72.00,37.00 L72.10,36.00 L72.10,36.00 L72.42,35.00 L73.00,34.00 L74.00,33.00 L75.00,32.42 L76.00,32.10 L76.00,32.10 L77.00,32.00 L77.00,32.00 L78.00,32.10 L78.00,32.10 L79.00,32.42 L80.00,33.00 L81.00,34.00 L81.58,35.00 L81.90,36.00 L81.90,36.00 L82.00,37.00 L82.00,37.00 L81.90,38.00 L81.90,38.00 L81.58,39.00 L81.00,40.00 L80.00,41.00 L79.00,41.58 L78.00,41.90 L78.00,41.90 L77.00,42.00 L77.00,42.00 L76.00,41.90 L76.00,41.90 L75.00,41.58 L74.00,41.00 L73.00,40.00 L72.42,39.00 L72.10,38.00 L72.10,38.00 L72.00,37.00 L72.00,37.00 L71.90,38.00 L71.90,38.00 L71.58,39.00 L71.00,40.00 L70.00,41.00 L69.00,41.58 L68.00,41.90 L68.00,41.90 L67.00,42.00 L67.00,42.00 L68.00,42.10 L68.00,42.10 L69.00,42.42 L70.00,43.00 L71.00,44.00 L71.58,45.00 L71.90,46.00 L71.90,46.00 L72.00,47.00 L72.00,47.00 L72.10,46.00 L72.10,46.00 L72.42,45.00 L73.00,44.00 L74.00,43.00 L75.00,42.42 L76.00,42.10 L76.00,42.10 L77.00,42.00 L77.00,42.00 L78.00,42.10 L78.00,42.10 L79.00,42.42 L80.00,43.00 L81.00,44.00 L81.58,45.00 L81.90,46.00 L81.90,46.00 L82.00,47.00 L82.00,47.00 L81.90,48.00 L81.90,48.00 L81.58,49.00 L81.00,50.00 L80.00,51.00 L79.00,51.58 L78.00,51.90 L78.00,51.90 L77.00,52.00 L77.00,52.00 L78.00,52.10 L78.00,52.10 L79.00,52.42 L80.00,53.00 L81.00,54.00 L81.58,55.00 L81.90,56.00 L81.90,56.00 L82.00,57.00 L82.00,57.00 L81.90,58.00 L81.90,58.00 L81.58,59.00 L81.00,60.00 L80.00,61.00 L79.00,61.58 L78.00,61.90 L78.00,61.90 L77.00,62.00 L77.00,62.00 L78.00,62.10 L78.00,62.10 L79.00,62.42 L80.00,63.00 L81.00,64.00 L81.58,65.00 L81.90,66.00 L81.90,66.00 L82.00,67.00 L82.00,67.00 L82.10,66.00 L82.10,66.00 L82.42,65.00 L83.00,64.00 L84.00,63.00 L85.00,62.42 L86.00,62.10 L86.00,62.10 L87.00,62.00 L87.00,62.00 L86.00,61.90 L86.00,61.90 L85.00,61.58 L84.00,61.00 L83.00,60.00 L82.42,59.00 L82.10,58.00 L82.10,58.00 L82.00,57.00 L82.00,57.00 L82.10,56.00 L82.10,56.00 L82.42,55.00 L83.00,54.00 L84.00,53.00 L85.00,52.42 L86.00,52.10 L86.00,52.10 L87.00,52.00 L87.00,52.00 L86.00,51.90 L86.00,51.90 L85.00,51.58 L84.00,51.00 L83.00,50.00 L82.42,49.00 L82.10,48.00 L82.10,48.00 L82.00,47.00 L82.00,47.00 L82.10,46.00 L82.10,46.00 L82.42,45.00 L83.00,44.00 L84.00,43.00 L85.00,42.42 L86.00,42.10 L86.00,42.10 L87.00,42.00 L87.00,42.00 L88.00,42.10 L88.00,42.10 L89.00,42.42 L90.00,43.00 L91.00,44.00 L91.58,45.00 L91.90,46.00 L91.90,46.00 L92.00,47.00 L92.00,47.00 L92.10,46.00 L92.10,46.00 L92.42,45.00 L93.00,44.00 L94.00,43.00 L95.00,42.42 L96.00,42.10 L96.00,42.10 L97.00,42.00 L97.00,42.00 L96.00,41.90 L96.00,41.90 L95.00,41.58 L94.00,41.00 L93.00,40.00 L92.42,39.00 L92.10,38.00 L92.10,38.00 L92.00,37.00 L92.00,37.00 L91.90,38.00 L91.90,38.00 L91.58,39.00 L91.00,40.00 L90.00,41.00 L89.00,41.58 L88.00,41.90 L88.00,41.90 L87.00,42.00 L87.00,42.00 L86.00,41.90 L86.00,41.90 L85.00,41.58 L84.00,41.00 L83.00,40.00 L82.42,39.00 L82.10,38.00 L82.10,38.00 L82.00,37.00 L82.00,37.00 L82.10,36.00 L82.10,36.00 L82.42,35.00 L83.00,34.00 L84.00,33.00 L85.00,32.42 L86.00,32.10 L86.00,32.10 L87.00,32.00 L87.00,32.00 L88.00,32.10 L88.00,32.10 L89.00,32.42 L90.00,33.00 L91.00,34.00 L91.58,35.00 L91.90,36.00 L91.90,36.00 L92.00,37.00 L92.00,37.00 L92.10,36.00 L92.10,36.00 L92.42,35.00 L93.00,34.00 L94.00,33.00 L95.00,32.42 L96.00,32.10 L96.00,32.10 L97.00,32.00 L97.00,32.00 L98.00,32.10 L98.00,32.10 L99.00,32.42 L100.00,33.00 L101.00,34.00 L101.58,35.00 L101.90,36.00 L102.00,37.00 L101.90,38.00 L101.58,39.00 L101.00,40.00 L100.00,41.00 L99.00,41.58 L98.00,41.90 L98.00,41.90 L97.00,42.00 L97.00,42.00 L98.00,42.10 L98.00,42.10 L99.00,42.42 L100.00,43.00 L101.00,44.00 L101.58,45.00 L101.90,46.00 L102.00,47.00 L101.90,48.00 L101.58,49.00 L101.00,50.00 L100.00,51.00 L99.00,51.58 L98.00,51.90 L98.00,51.90 L97.00,52.00 L97.00,52.00 L96.00,51.90 L96.00,51.90 L95.00,51.58 L94.00,51.00 L93.00,50.00 L92.42,49.00 L92.10,48.00 L92.10,48.00 L92.00,47.00 L92.00,47.00 L91.90,48.00 L91.90,48.00 L91.58,49.00 L91.00,50.00 L90.00,51.00 L89.00,51.58 L88.00,51.90 L88.00,51.90 L87.00,52.00 L87.00,52.00 L88.00,52.10 L88.00,52.10 L89.00,52.42 L90.00,53.00 L91.00,54.00 L91.58,55.00 L91.90,56.00 L91.90,56.00 L92.00,57.00 L92.00,57.00 L91.90,58.00 L91.90,58.00 L91.58,59.00 L91.00,60.00 L90.00,61.00 L89.00,61.58 L88.00,61.90 L88.00,61.90 L87.00,62.00 L87.00,62.00 L88.00,62.10 L88.00,62.10 L89.00,62.42 L90.00,63.00 L91.00,64.00 L91.58,65.00 L91.90,66.00 L91.90,66.00 L92.00,67.00 L92.00,67.00 L91.90,68.00 L91.90,68.00 L91.58,69.00 L91.00,70.00 L90.00,71.00 L89.00,71.58 L88.00,71.90 L88.00,71.90 L87.00,72.00 L87.00,72.00 L86.00,71.90 L86.00,71.90 L85.00,71.58 L84.00,71.00 L83.00,70.00 L82.42,69.00 L82.10,68.00 L82.10,68.00 L82.00,67.00 L82.00,67.00 L81.90,68.00 L81.90,68.00 L81.58,69.00 L81.00,70.00 L80.00,71.00 L79.00,71.58 L78.00,71.90 L78.00,71.90 L77.00,72.00 L77.00,72.00 L78.00,72.10 L78.00,72.10 L79.00,72.42 L80.00,73.00 L81.00,74.00 L81.58,75.00 L81.90,76.00 L81.90,76.00 L82.00,77.00 L82.00,77.00 L81.90,78.00 L81.90,78.00 L81.58,79.00 L81.00,80.00 L80.00,81.00 L79.00,81.58 L78.00,81.90 L78.00,81.90 L77.00,82.00 L77.00,82.00 L78.00,82.10 L78.00,82.10 L79.00,82.42 L80.00,83.00 L81.00,84.00 L81.58,85.00 L81.90,86.00 L81.90,86.00 L82.00,87.00 L82.00,87.00 L82.10,86.00 L82.10,86.00 L82.42,85.00 L83.00,84.00 L84.00,83.00 L85.00,82.42 L86.00,82.10 L86.00,82.10 L87.00,82.00 L87.00,82.00 L88.00,82.10 L88.00,82.10 L89.00,82.42 L90.00,83.00 L91.00,84.00 L91.58,85.00 L91.90,86.00 L91.90,86.00 L92.00,87.00 L92.00,87.00 L92.10,86.00 L92.10,86.00 L92.42,85.00 L93.00,84.00 L94.00,83.00 L95.00,82.42 L96.00,82.10 L96.00,82.10 L97.00,82.00 L97.00,82.00 L96.00,81.90 L96.00,81.90 L95.00,81.58 L94.00,81.00 L93.00,80.00 L92.42,79.00 L92.10,78.00 L92.10,78.00 L92.00,77.00 L92.00,77.00 L91.90,78.00 L91.90,78.00 L91.58,79.00 L91.00,80.00 L90.00,81.00 L89.00,81.58 L88.00,81.90 L88.00,81.90 L87.00,82.00 L87.00,82.00 L86.00,81.90 L86.00,81.90 L85.00,81.58 L84.00,81.00 L83.00,80.00 L82.42,79.00 L82.10,78.00 L82.10,78.00 L82.00,77.00 L82.00,77.00 L82.10,76.00 L82.10,76.00 L82.42,75.00 L83.00,74.00 L84.00,73.00 L85.00,72.42 L86.00,72.10 L86.00,72.10 L87.00,72.00 L87.00,72.00 L88.00,72.10 L88.00,72.10 L89.00,72.42 L90.00,73.00 L91.00,74.00 L91.58,75.00 L91.90,76.00 L91.90,76.00 L92.00,77.00 L92.00,77.00 L92.10,76.00 L92.10,76.00 L92.42,75.00 L93.00,74.00 L94.00,73.00 L95.00,72.42 L96.00,72.10 L96.00,72.10 L97.00,72.00 L97.00,72.00 L98.00,72.10 L98.00,72.10 L99.00,72.42 L100.00,73.00 L101.00,74.00 L101.58,75.00 L101.90,76.00 L102.00,77.00 L101.90,78.00 L101.58,79.00 L101.00,80.00 L100.00,81.00 L99.00,81.58 L98.00,81.90 L98.00,81.90 L97.00,82.00 L97.00,82.00 L98.00,82.10 L98.00,82.10 L99.00,82.42 L100.00,83.00 L101.00,84.00 L101.58,85.00 L101.90,86.00 L102.00,87.00 L101.90,88.00 L101.58,89.00 L101.00,90.00 L100.00,91.00 L99.00,91.58 L98.00,91.90 L98.00,91.90 L97.00,92.00 L97.00,92.00 L96.00,91.90 L96.00,91.90 L95.00,91.58 L94.00,91.00 L93.00,90.00 L92.42,89.00 L92.10,88.00 L92.10,88.00 L92.00,87.00 L92.00,87.00 L91.90,88.00 L91.90,88.00 L91.58,89.00 L91.00,90.00 L90.00,91.00 L89.00,91.58 L88.00,91.90 L88.00,91.90 L87.00,92.00 L87.00,92.00 L86.00,91.90 L86.00,91.90 L85.00,91.58 L84.00,91.00 L83.00,90.00 L82.42,89.00 L82.10,88.00 L82.10,88.00 L82.00,87.00 L82.00,87.00 L81.90,88.00 L81.90,88.00 L81.58,89.00 L81.00,90.00 L80.00,91.00 L79.00,91.58 L78.00,91.90 L78.00,91.90 L77.00,92.00 L77.00,92.00 L76.00,91.90 L76.00,91.90 L75.00,91.58 L74.00,91.00 L73.00,90.00 L72.42,89.00 L72.10,88.00 L72.10,88.00 L72.00,87.00 L72.00,87.00 L71.90,88.00 L71.90,88.00 L71.58,89.00 L71.00,90.00 L70.00,91.00 L69.00,91.58 L68.00,91.90 L68.00,91.90 L67.00,92.00 L67.00,92.00 L68.00,92.10 L68.00,92.10 L69.00,92.42 L70.00,93.00 L71.00,94.00 L71.58,95.00 L71.90,96.00 L71.90,96.00 L72.00,97.00 L72.00,97.00 L72.10,96.00 L72.10,96.00 L72.42,95.00 L73.00,94.00 L74.00,93.00 L75.00,92.42 L76.00,92.10 L76.00,92.10 L77.00,92.00 L77.00,92.00 L78.00,92.10 L78.00,92.10 L79.00,92.42 L80.00,93.00 L81.00,94.00 L81.58,95.00 L81.90,96.00 L81.90,96.00 L82.00,97.00 L82.00,97.00 L81.90,98.00 L81.90,98.00 L81.58,99.00 L81.00,100.00 L80.00,101.00 L79.00,101.58 L78.00,101.90 L77.00,102.00 L76.00,101.90 L75.00,101.58 L74.00,101.00 L73.00,100.00 L72.42,99.00 L72.10,98.00 L72.10,98.00 L72.00,97.00 L72.00,97.00 L71.90,98.00 L71.90,98.00 L71.58,99.00 L71.00,100.00 L70.00,101.00 L69.00,101.58 L68.00,101.90 L67.00,102.00 L66.00,101.90 L65.00,101.58 L64.00,101.00 L63.00,100.00 L62.42,99.00 L62.10,98.00 L62.10,98.00 L62.00,97.00 L62.00,97.00 L61.90,98.00 L61.90,98.00 L61.58,99.00 L61.00,100.00 L60.00,101.00 L59.00,101.58 L58.00,101.90 L57.00,102.00 L56.00,101.90 L55.00,101.58 L54.00,101.00 L53.00,100.00 L52.42,99.00 L52.10,98.00 L52.10,98.00 L52.00,97.00 L52.00,97.00 L51.90,98.00 L51.90,98.00 L51.58,99.00 L51.00,100.00 L50.00,101.00 L49.00,101.58 L48.00,101.90 L47.00,102.00 L46.00,101.90 L45.00,101.58 L44.00,101.00 L43.00,100.00 L42.42,99.00 L42.10,98.00 L42.10,98.00 L42.00,97.00 L42.00,97.00 L42.10,96.00 L42.10,96.00 L42.42,95.00 L43.00,94.00 L44.00,93.00 L45.00,92.42 L46.00,92.10 L46.00,92.10 L47.00,92.00 L47.00,92.00 L46.00,91.90 L46.00,91.90 L45.00,91.58 L44.00,91.00 L43.00,90.00 L42.42,89.00 L42.10,88.00 L42.10,88.00 L42.00,87.00 L42.00,87.00 L41.90,88.00 L41.90,88.00 L41.58,89.00 L41.00,90.00 L40.00,91.00 L39.00,91.58 L38.00,91.90 L38.00,91.90 L37.00,92.00 L37.00,92.00 L38.00,92.10 L38.00,92.10 L39.00,92.42 L40.00,93.00 L41.00,94.00 L41.58,95.00 L41.90,96.00 L41.90,96.00 L42.00,97.00 L42.00,97.00 L41.90,98.00 L41.90,98.00 L41.58,99.00 L41.00,100.00 L40.00,101.00 L39.00,101.58 L38.00,101.90 L37.00,102.00 L36.00,101.90 L35.00,101.58 L34.00,101.00 L33.00,100.00 L32.42,99.00 L32.10,98.00 L32.10,98.00 L32.00,97.00 L32.00,97.00 L32.10,96.00 L32.10,96.00 L32.42,95.00 L33.00,94.00 L34.00,93.00 L35.00,92.42 L36.00,92.10 L36.00,92.10 L37.00,92.00 L37.00,92.00 L36.00,91.90 L36.00,91.90 L35.00,91.58 L34.00,91.00 L33.00,90.00 L32.42,89.00 L32.10,88.00 L32.10,88.00 L32.00,87.00 L32.00,87.00 L31.90,88.00 L31.90,88.00 L31.58,89.00 L31.00,90.00 L30.00,91.00 L29.00,91.58 L28.00,91.90 L28.00,91.90 L27.00,92.00 L27.00,92.00 L28.00,92.10 L28.00,92.10 L29.00,92.42 L30.00,93.00 L31.00,94.00 L31.58,95.00 L31.90,96.00 L31.90,96.00 L32.00,97.00 L32.00,97.00 L31.90,98.00 L31.90,98.00 L31.58,99.00 L31.00,100.00 L30.00,101.00 L29.00,101.58 L28.00,101.90 L27.00,102.00 L26.00,101.90 L25.00,101.58 L24.00,101.00 L23.00,100.00 L22.42,99.00 L22.10,98.00 L22.10,98.00 L22.00,97.00 L22.00,97.00 L22.10,96.00 L22.10,96.00 L22.42,95.00 L23.00,94.00 L24.00,93.00 L25.00,92.42 L26.00,92.10 L26.00,92.10 L27.00,92.00 L27.00,92.00 L26.00,91.90 L26.00,91.90 L25.00,91.58 L24.00,91.00 L23.00,90.00 L22.42,89.00 L22.10,88.00 L22.10,88.00 L22.00,87.00 L22.00,87.00 L22.10,86.00 L22.10,86.00 L22.42,85.00 L23.00,84.00 L24.00,83.00 L25.00,82.42 L26.00,82.10 L26.00,82.10 L27.00,82.00 L27.00,82.00 L26.00,81.90 L26.00,81.90 L25.00,81.58 L24.00,81.00 L23.00,80.00 L22.42,79.00 L22.10,78.00 L22.10,78.00 L22.00,77.00 L22.00,77.00 L21.90,78.00 L21.90,78.00 L21.58,79.00 L21.00,80.00 L20.00,81.00 L19.00,81.58 L18.00,81.90 L18.00,81.90 L17.00,82.00 L17.00,82.00 L18.00,82.10 L18.00,82.10 L19.00,82.42 L20.00,83.00 L21.00,84.00 L21.58,85.00 L21.90,86.00 L21.90,86.00 L22.00,87.00 L22.00,87.00 L21.90,88.00 L21.90,88.00 L21.58,89.00 L21.00,90.00 L20.00,91.00 L19.00,91.58 L18.00,91.90 L18.00,91.90 L17.00,92.00 L17.00,92.00 L18.00,92.10 L18.00,92.10 L19.00,92.42 L20.00,93.00 L21.00,94.00 L21.58,95.00 L21.90,96.00 L21.90,96.00 L22.00,97.00 L22.00,97.00 L21.90,98.00 L21.90,98.00 L21.58,99.00 L21.00,100.00 L20.00,101.00 L19.00,101.58 L18.00,101.90 L17.00,102.00 L16.00,101.90 L15.00,101.58 L14.00,101.00 L13.00,100.00 L12.42,99.00 L12.10,98.00 L12.10,98.00 "/>
    <path fill-rule="evenodd" style="fill: none; stroke: rgb(0, 0, 0); stroke-width: 0.2;" d="M82.00,27.00 L82.10,26.00 L82.10,26.00 L82.42,25.00 L83.00,24.00 L84.00,23.00 L85.00,22.42 L86.00,22.10 L86.00,22.10 L87.00,22.00 L87.00,22.00 L88.00,22.10 L88.00,22.10 L89.00,22.42 L90.00,23.00 L91.00,24.00 L91.58,25.00 L91.90,26.00 L91.90,26.00 L92.00,27.00 L92.00,27.00 L91.90,28.00 L91.90,28.00 L91.58,29.00 L91.00,30.00 L90.00,31.00 L89.00,31.58 L88.00,31.90 L88.00,31.90 L87.00,32.00 L87.00,32.00 L86.00,31.90 L86.00,31.90 L85.00,31.58 L84.00,31.00 L83.00,30.00 L82.42,29.00 L82.10,28.00 L82.10,28.00 L82.00,27.00 L82.00,27.00 L81.90,28.00 L81.90,28.00 L81.58,29.00 L81.00,30.00 L80.00,31.00 L79.00,31.58 L78.00,31.90 L78.00,31.90 L77.00,32.00 L77.00,32.00 L76.00,31.90 L76.00,31.90 L75.00,31.58 L74.00,31.00 L73.00,30.00 L72.42,29.00 L72.10,28.00 L72.10,28.00 L72.00,27.00 L72.00,27.00 L72.10,26.00 L72.10,26.00 L72.42,25.00 L73.00,24.00 L74.00,23.00 L75.00,22.42 L76.00,22.10 L76.00,22.10 L77.00,22.00 L77.00,22.00 L76.00,21.90 L76.00,21.90 L75.00,21.58 L74.00,21.00 L73.00,20.00 L72.42,19.00 L72.10,18.00 L72.10,18.00 L72.00,17.00 L72.00,17.00 L71.90,18.00 L71.90,18.00 L71.58,19.00 L71.00,20.00 L70.00,21.00 L69.00,21.58 L68.00,21.90 L68.00,21.90 L67.00,22.00 L67.00,22.00 L66.00,21.90 L66.00,21.90 L65.00,21.58 L64.00,21.00 L63.00,20.00 L62.42,19.00 L62.10,18.00 L62.10,18.00 L62.00,17.00 L62.00,17.00 L61.90,18.00 L61.90,18.00 L61.58,19.00 L61.00,20.00 L60.00,21.00 L59.00,21.58 L58.00,21.90 L58.00,21.90 L57.00,22.00 L57.00,22.00 L56.00,21.90 L56.00,21.90 L55.00,21.58 L54.00,21.00 L53.00,20.00 L52.42,19.00 L52.10,18.00 L52.10,18.00 L52.00,17.00 L52.00,17.00 L51.90,18.00 L51.90,18.00 L51.58,19.00 L51.00,20.00 L50.00,21.00 L49.00,21.58 L48.00,21.90 L48.00,21.90 L47.00,22.00 L47.00,22.00 L48.00,22.10 L48.00,22.10 L49.00,22.42 L50.00,23.00 L51.00,24.00 L51.58,25.00 L51.90,26.00 L51.90,26.00 L52.00,27.00 L52.00,27.00 L52.10,26.00 L52.10,26.00 L52.42,25.00 L53.00,24.00 L54.00,23.00 L55.00,22.42 L56.00,22.10 L56.00,22.10 L57.00,22.00 L57.00,22.00 L58.00,22.10 L58.00,22.10 L59.00,22.42 L60.00,23.00 L61.00,24.00 L61.58,25.00 L61.90,26.00 L61.90,26.00 L62.00,27.00 L62.00,27.00 L62.10,26.00 L62.10,26.00 L62.42,25.00 L63.00,24.00 L64.00,23.00 L65.00,22.42 L66.00,22.10 L66.00,22.10 L67.00,22.00 L67.00,22.00 L68.00,22.10 L68.00,22.10 L69.00,22.42 L70.00,23.00 L71.00,24.00 L71.58,25.00 L71.90,26.00 L71.90,26.00 L72.00,27.00 L72.00,27.00 L71.90,28.00 L71.90,28.00 L71.58,29.00 L71.00,30.00 L70.00,31.00 L69.00,31.58 L68.00,31.90 L68.00,31.90 L67.00,32.00 L67.00,32.00 L66.00,31.90 L66.00,31.90 L65.00,31.58 L64.00,31.00 L63.00,30.00 L62.42,29.00 L62.10,28.00 L62.10,28.00 L62.00,27.00 L62.00,27.00 L61.90,28.00 L61.90,28.00 L61.58,29.00 L61.00,30.00 L60.00,31.00 L59.00,31.58 L58.00,31.90 L58.00,31.90 L57.00,32.00 L57.00,32.00 L58.00,32.10 L58.00,32.10 L59.00,32.42 L60.00,33.00 L61.00,34.00 L61.58,35.00 L61.90,36.00 L61.90,36.00 L62.00,37.00 L62.00,37.00 L61.90,38.00 L61.90,38.00 L61.58,39.00 L61.00,40.00 L60.00,41.00 L59.00,41.58 L58.00,41.90 L58.00,41.90 L57.00,42.00 L57.00,42.00 L58.00,42.10 L58.00,42.10 L59.00,42.42 L60.00,43.00 L61.00,44.00 L61.58,45.00 L61.90,46.00 L61.90,46.00 L62.00,47.00 L62.00,47.00 L61.90,48.00 L61.90,48.00 L61.58,49.00 L61.00,50.00 L60.00,51.00 L59.00,51.58 L58.00,51.90 L58.00,51.90 L57.00,52.00 L57.00,52.00 L58.00,52.10 L58.00,52.10 L59.00,52.42 L60.00,53.00 L61.00,54.00 L61.58,55.00 L61.90,56.00 L61.90,56.00 L62.00,57.00 L62.00,57.00 L62.10,56.00 L62.10,56.00 L62.42,55.00 L63.00,54.00 L64.00,53.00 L65.00,52.42 L66.00,52.10 L66.00,52.10 L67.00,52.00 L67.00,52.00 L68.00,52.10 L68.00,52.10 L69.00,52.42 L70.00,53.00 L71.00,54.00 L71.58,55.00 L71.90,56.00 L71.90,56.00 L72.00,57.00 L72.00,57.00 L71.90,58.00 L71.90,58.00 L71.58,59.00 L71.00,60.00 L70.00,61.00 L69.00,61.58 L68.00,61.90 L68.00,61.90 L67.00,62.00 L67.00,62.00 L66.00,61.90 L66.00,61.90 L65.00,61.58 L64.00,61.00 L63.00,60.00 L62.42,59.00 L62.10,58.00 L62.10,58.00 L62.00,57.00 L62.00,57.00 L61.90,58.00 L61.90,58.00 L61.58,59.00 L61.00,60.00 L60.00,61.00 L59.00,61.58 L58.00,61.90 L58.00,61.90 L57.00,62.00 L57.00,62.00 L56.00,61.90 L56.00,61.90 L55.00,61.58 L54.00,61.00 L53.00,60.00 L52.42,59.00 L52.10,58.00 L52.10,58.00 L52.00,57.00 L52.00,57.00 L51.90,58.00 L51.90,58.00 L51.58,59.00 L51.00,60.00 L50.00,61.00 L49.00,61.58 L48.00,61.90 L48.00,61.90 L47.00,62.00 L47.00,62.00 L46.00,61.90 L46.00,61.90 L45.00,61.58 L44.00,61.00 L43.00,60.00 L42.42,59.00 L42.10,58.00 L42.10,58.00 L42.00,57.00 L42.00,57.00 L42.10,56.00 L42.10,56.00 L42.42,55.00 L43.00,54.00 L44.00,53.00 L45.00,52.42 L46.00,52.10 L46.00,52.10 L47.00,52.00 L47.00,52.00 L48.00,52.10 L48.00,52.10 L49.00,52.42 L50.00,53.00 L51.00,54.00 L51.58,55.00 L51.90,56.00 L51.90,56.00 L52.00,57.00 L52.00,57.00 L52.10,56.00 L52.10,56.00 L52.42,55.00 L53.00,54.00 L54.00,53.00 L55.00,52.42 L56.00,52.10 L56.00,52.10 L57.00,52.00 L57.00,52.00 L56.00,51.90 L56.00,51.90 L55.00,51.58 L54.00,51.00 L53.00,50.00 L52.42,49.00 L52.10,48.00 L52.10,48.00 L52.00,47.00 L52.00,47.00 L52.10,46.00 L52.10,46.00 L52.42,45.00 L53.00,44.00 L54.00,43.00 L55.00,42.42 L56.00,42.10 L56.00,42.10 L57.00,42.00 L57.00,42.00 L56.00,41.90 L56.00,41.90 L55.00,41.58 L54.00,41.00 L53.00,40.00 L52.42,39.00 L52.10,38.00 L52.10,38.00 L52.00,37.00 L52.00,37.00 L52.10,36.00 L52.10,36.00 L52.42,35.00 L53.00,34.00 L54.00,33.00 L55.00,32.42 L56.00,32.10 L56.00,32.10 L57.00,32.00 L57.00,32.00 L56.00,31.90 L56.00,31.90 L55.00,31.58 L54.00,31.00 L53.00,30.00 L52.42,29.00 L52.10,28.00 L52.10,28.00 L52.00,27.00 L52.00,27.00 L51.90,28.00 L51.90,28.00 L51.58,29.00 L51.00,30.00 L50.00,31.00 L49.00,31.58 L48.00,31.90 L48.00,31.90 L47.00,32.00 L47.00,32.00 L46.00,31.90 L46.00,31.90 L45.00,31.58 L44.00,31.00 L43.00,30.00 L42.42,29.00 L42.10,28.00 L42.10,28.00 L42.00,27.00 L42.00,27.00 L42.10,26.00 L42.10,26.00 L42.42,25.00 L43.00,24.00 L44.00,23.00 L45.00,22.42 L46.00,22.10 L46.00,22.10 L47.00,22.00 L47.00,22.00 L46.00,21.90 L46.00,21.90 L45.00,21.58 L44.00,21.00 L43.00,20.00 L42.42,19.00 L42.10,18.00 L42.10,18.00 L42.00,17.00 L42.00,17.00 L42.10,16.00 L42.10,16.00 L42.42,15.00 L43.00,14.00 L44.00,13.00 L45.00,12.42 L46.00,12.10 L46.00,12.10 L47.00,12.00 L47.00,12.00 L48.00,12.10 L48.00,12.10 L49.00,12.42 L50.00,13.00 L51.00,14.00 L51.58,15.00 L51.90,16.00 L51.90,16.00 L52.00,17.00 L52.00,17.00 L52.10,16.00 L52.10,16.00 L52.42,15.00 L53.00,14.00 L54.00,13.00 L55.00,12.42 L56.00,12.10 L56.00,12.10 L57.00,12.00 L57.00,12.00 L58.00,12.10 L58.00,12.10 L59.00,12.42 L60.00,13.00 L61.00,14.00 L61.58,15.00 L61.90,16.00 L61.90,16.00 L62.00,17.00 L62.00,17.00 L62.10,16.00 L62.10,16.00 L62.42,15.00 L63.00,14.00 L64.00,13.00 L65.00,12.42 L66.00,12.10 L66.00,12.10 L67.00,12.00 L67.00,12.00 L66.00,11.90 L66.00,11.90 L65.00,11.58 L64.00,11.00 L63.00,10.00 L62.42,9.00 L62.10,8.00 L62.10,8.00 L62.00,7.00 L62.00,7.00 L62.10,6.00 L62.10,6.00 L62.42,5.00 L63.00,4.00 L64.00,3.00 L65.00,2.42 L66.00,2.10 L67.00,2.00 L68.00,2.10 L69.00,2.42 L70.00,3.00 L71.00,4.00 L71.58,5.00 L71.90,6.00 L71.90,6.00 L72.00,7.00 L72.00,7.00 L71.90,8.00 L71.90,8.00 L71.58,9.00 L71.00,10.00 L70.00,11.00 L69.00,11.58 L68.00,11.90 L68.00,11.90 L67.00,12.00 L67.00,12.00 L68.00,12.10 L68.00,12.10 L69.00,12.42 L70.00,13.00 L71.00,14.00 L71.58,15.00 L71.90,16.00 L71.90,16.00 L72.00,17.00 L72.00,17.00 L72.10,16.00 L72.10,16.00 L72.42,15.00 L73.00,14.00 L74.00,13.00 L75.00,12.42 L76.00,12.10 L76.00,12.10 L77.00,12.00 L77.00,12.00 L76.00,11.90 L76.00,11.90 L75.00,11.58 L74.00,11.00 L73.00,10.00 L72.42,9.00 L72.10,8.00 L72.10,8.00 L72.00,7.00 L72.00,7.00 L72.10,6.00 L72.10,6.00 L72.42,5.00 L73.00,4.00 L74.00,3.00 L75.00,2.42 L76.00,2.10 L77.00,2.00 L78.00,2.10 L79.00,2.42 L80.00,3.00 L81.00,4.00 L81.58,5.00 L81.90,6.00 L81.90,6.00 L82.00,7.00 L82.00,7.00 L82.10,6.00 L82.10,6.00 L82.42,5.00 L83.00,4.00 L84.00,3.00 L85.00,2.42 L86.00,2.10 L87.00,2.00 L88.00,2.10 L89.00,2.42 L90.00,3.00 L91.00,4.00 L91.58,5.00 L91.90,6.00 L91.90,6.00 L92.00,7.00 L92.00,7.00 L91.90,8.00 L91.90,8.00 L91.58,9.00 L91.00,10.00 L90.00,11.00 L89.00,11.58 L88.00,11.90 L88.00,11.90 L87.00,12.00 L87.00,12.00 L86.00,11.90 L86.00,11.90 L85.00,11.58 L84.00,11.00 L83.00,10.00 L82.42,9.00 L82.10,8.00 L82.10,8.00 L82.00,7.00 L82.00,7.00 L81.90,8.00 L81.90,8.00 L81.58,9.00 L81.00,10.00 L80.00,11.00 L79.00,11.58 L78.00,11.90 L78.00,11.90 L77.00,12.00 L77.00,12.00 L78.00,12.10 L78.00,12.10 L79.00,12.42 L80.00,13.00 L81.00,14.00 L81.58,15.00 L81.90,16.00 L81.90,16.00 L82.00,17.00 L82.00,17.00 L82.10,16.00 L82.10,16.00 L82.42,15.00 L83.00,14.00 L84.00,13.00 L85.00,12.42 L86.00,12.10 L86.00,12.10 L87.00,12.00 L87.00,12.00 L88.00,12.10 L88.00,12.10 L89.00,12.42 L90.00,13.00 L91.00,14.00 L91.58,15.00 L91.90,16.00 L91.90,16.00 L92.00,17.00 L92.00,17.00 L91.90,18.00 L91.90,18.00 L91.58,19.00 L91.00,20.00 L90.00,21.00 L89.00,21.58 L88.00,21.90 L88.00,21.90 L87.00,22.00 L87.00,22.00 L86.00,21.90 L86.00,21.90 L85.00,21.58 L84.00,21.00 L83.00,20.00 L82.42,19.00 L82.10,18.00 L82.10,18.00 L82.00,17.00 L82.00,17.00 L81.90,18.00 L81.90,18.00 L81.58,19.00 L81.00,20.00 L80.00,21.00 L79.00,21.58 L78.00,21.90 L78.00,21.90 L77.00,22.00 L77.00,22.00 L78.00,22.10 L78.00,22.10 L79.00,22.42 L80.00,23.00 L81.00,24.00 L81.58,25.00 L81.90,26.00 L81.90,26.00 L82.00,27.00 L82.00,27.00 "/>
    <path fill-rule="evenodd" style="fill: none; stroke: rgb(0, 0, 0); stroke-width: 0.2;" d="M92.10,6.00 L92.42,5.00 L93.00,4.00 L94.00,3.00 L95.00,2.42 L96.00,2.10 L97.00,2.00 L98.00,2.10 L99.00,2.42 L100.00,3.00 L101.00,4.00 L101.58,5.00 L101.90,6.00 L102.00,7.00 L101.90,8.00 L101.58,9.00 L101.00,10.00 L100.00,11.00 L99.00,11.58 L98.00,11.90 L98.00,11.90 L97.00,12.00 L97.00,12.00 L96.00,11.90 L96.00,11.90 L95.00,11.58 L94.00,11.00 L93.00,10.00 L92.42,9.00 L92.10,8.00 L92.10,8.00 L92.00,7.00 L92.00,7.00 L92.10,6.00 L92.10,6.00 "/>
    <path fill-rule="evenodd" style="fill: none; stroke: rgb(0, 0, 0); stroke-width: 0.2;" d="M77.00,72.00 L76.00,71.90 L76.00,71.90 L75.00,71.58 L74.00,71.00 L73.00,70.00 L72.42,69.00 L72.10,68.00 L72.10,68.00 L72.00,67.00 L72.00,67.00 L71.90,68.00 L71.90,68.00 L71.58,69.00 L71.00,70.00 L70.00,71.00 L69.00,71.58 L68.00,71.90 L68.00,71.90 L67.00,72.00 L67.00,72.00 L68.00,72.10 L68.00,72.10 L69.00,72.42 L70.00,73.00 L71.00,74.00 L71.58,75.00 L71.90,76.00 L71.90,76.00 L72.00,77.00 L72.00,77.00 L71.90,78.00 L71.90,78.00 L71.58,79.00 L71.00,80.00 L70.00,81.00 L69.00,81.58 L68.00,81.90 L68.00,81.90 L67.00,82.00 L67.00,82.00 L68.00,82.10 L68.00,82.10 L69.00,82.42 L70.00,83.00 L71.00,84.00 L71.58,85.00 L71.90,86.00 L71.90,86.00 L72.00,87.00 L72.00,87.00 L72.10,86.00 L72.10,86.00 L72.42,85.00 L73.00,84.00 L74.00,83.00 L75.00,82.42 L76.00,82.10 L76.00,82.10 L77.00,82.00 L77.00,82.00 L76.00,81.90 L76.00,81.90 L75.00,81.58 L74.00,81.00 L73.00,80.00 L72.42,79.00 L72.10,78.00 L72.10,78.00 L72.00,77.00 L72.00,77.00 L72.10,76.00 L72.10,76.00 L72.42,75.00 L73.00,74.00 L74.00,73.00 L75.00,72.42 L76.00,72.10 L76.00,72.10 L77.00,72.00 L77.00,72.00 "/>
    <path fill-rule="evenodd" style="fill: none; stroke: rgb(0, 0, 0); stroke-width: 0.2;" d="M21.90,16.00 L22.00,17.00 L22.00,17.00 L21.90,18.00 L21.90,18.00 L21.58,19.00 L21.00,20.00 L20.00,21.00 L19.00,21.58 L18.00,21.90 L18.00,21.90 L17.00,22.00 L17.00,22.00 L18.00,22.10 L18.00,22.10 L19.00,22.42 L20.00,23.00 L21.00,24.00 L21.58,25.00 L21.90,26.00 L21.90,26.00 L22.00,27.00 L22.00,27.00 L21.90,28.00 L21.90,28.00 L21.58,29.00 L21.00,30.00 L20.00,31.00 L19.00,31.58 L18.00,31.90 L18.00,31.90 L17.00,32.00 L17.00,32.00 L16.00,31.90 L16.00,31.90 L15.00,31.58 L14.00,31.00 L13.00,30.00 L12.42,29.00 L12.10,28.00 L12.10,28.00 L12.00,27.00 L12.00,27.00 L11.90,28.00 L11.90,28.00 L11.58,29.00 L11.00,30.00 L10.00,31.00 L9.00,31.58 L8.00,31.90 L8.00,31.90 L7.00,32.00 L7.00,32.00 L6.00,31.90 L6.00,31.90 L5.00,31.58 L4.00,31.00 L3.00,30.00 L2.42,29.00 L2.10,28.00 L2.00,27.00 L2.10,26.00 L2.42,25.00 L3.00,24.00 L4.00,23.00 L5.00,22.42 L6.00,22.10 L6.00,22.10 L7.00,22.00 L7.00,22.00 L8.00,22.10 L8.00,22.10 L9.00,22.42 L10.00,23.00 L11.00,24.00 L11.58,25.00 L11.90,26.00 L11.90,26.00 L12.00,27.00 L12.00,27.00 L12.10,26.00 L12.10,26.00 L12.42,25.00 L13.00,24.00 L14.00,23.00 L15.00,22.42 L16.00,22.10 L16.00,22.10 L17.00,22.00 L17.00,22.00 L16.00,21.90 L16.00,21.90 L15.00,21.58 L14.00,21.00 L13.00,20.00 L12.42,19.00 L12.10,18.00 L12.10,18.00 L12.00,17.00 L12.00,17.00 L11.90,18.00 L11.90,18.00 L11.58,19.00 L11.00,20.00 L10.00,21.00 L9.00,21.58 L8.00,21.90 L8.00,21.90 L7.00,22.00 L7.00,22.00 L6.00,21.90 L6.00,21.90 L5.00,21.58 L4.00,21.00 L3.00,20.00 L2.42,19.00 L2.10,18.00 L2.00,17.00 L2.10,16.00 L2.42,15.00 L3.00,14.00 L4.00,13.00 L5.00,12.42 L6.00,12.10 L6.00,12.10 L7.00,12.00 L7.00,12.00 L8.00,12.10 L8.00,12.10 L9.00,12.42 L10.00,13.00 L11.00,14.00 L11.58,15.00 L11.90,16.00 L11.90,16.00 L12.00,17.00 L12.00,17.00 L12.10,16.00 L12.10,16.00 L12.42,15.00 L13.00,14.00 L14.00,13.00 L15.00,12.42 L16.00,12.10 L16.00,12.10 L17.00,12.00 L17.00,12.00 L18.00,12.10 L18.00,12.10 L19.00,12.42 L20.00,13.00 L21.00,14.00 L21.58,15.00 L21.90,16.00 L21.90,16.00 "/>
    <path fill-rule="evenodd" style="fill: none; stroke: rgb(0, 0, 0); stroke-width: 0.2;" d="M96.00,52.10 L97.00,52.00 L97.00,52.00 L98.00,52.10 L98.00,52.10 L99.00,52.42 L100.00,53.00 L101.00,54.00 L101.58,55.00 L101.90,56.00 L102.00,57.00 L101.90,58.00 L101.58,59.00 L101.00,60.00 L100.00,61.00 L99.00,61.58 L98.00,61.90 L98.00,61.90 L97.00,62.00 L97.00,62.00 L98.00,62.10 L98.00,62.10 L99.00,62.42 L100.00,63.00 L101.00,64.00 L101.58,65.00 L101.90,66.00 L102.00,67.00 L101.90,68.00 L101.58,69.00 L101.00,70.00 L100.00,71.00 L99.00,71.58 L98.00,71.90 L98.00,71.90 L97.00,72.00 L97.00,72.00 L96.00,71.90 L96.00,71.90 L95.00,71.58 L94.00,71.00 L93.00,70.00 L92.42,69.00 L92.10,68.00 L92.10,68.00 L92.00,67.00 L92.00,67.00 L92.10,66.00 L92.10,66.00 L92.42,65.00 L93.00,64.00 L94.00,63.00 L95.00,62.42 L96.00,62.10 L96.00,62.10 L97.00,62.00 L97.00,62.00 L96.00,61.90 L96.00,61.90 L95.00,61.58 L94.00,61.00 L93.00,60.00 L92.42,59.00 L92.10,58.00 L92.10,58.00 L92.00,57.00 L92.00,57.00 L92.10,56.00 L92.10,56.00 L92.42,55.00 L93.00,54.00 L94.00,53.00 L95.00,52.42 L96.00,52.10 L96.00,52.10 "/>
    <path fill-rule="evenodd" style="fill: none; stroke: rgb(0, 0, 0); stroke-width: 0.2;" d="M16.00,52.10 L17.00,52.00 L17.00,52.00 L16.00,51.90 L16.00,51.90 L15.00,51.58 L14.00,51.00 L13.00,50.00 L12.42,49.00 L12.10,48.00 L12.10,48.00 L12.00,47.00 L12.00,47.00 L12.10,46.00 L12.10,46.00 L12.42,45.00 L13.00,44.00 L14.00,43.00 L15.00,42.42 L16.00,42.10 L16.00,42.10 L17.00,42.00 L17.00,42.00 L18.00,42.10 L18.00,42.10 L19.00,42.42 L20.00,43.00 L21.00,44.00 L21.58,45.00 L21.90,46.00 L21.90,46.00 L22.00,47.00 L22.00,47.00 L21.90,48.00 L21.90,48.00 L21.58,49.00 L21.00,50.00 L20.00,51.00 L19.00,51.58 L18.00,51.90 L18.00,51.90 L17.00,52.00 L17.00,52.00 L18.00,52.10 L18.00,52.10 L19.00,52.42 L20.00,53.00 L21.00,54.00 L21.58,55.00 L21.90,56.00 L21.90,56.00 L22.00,57.00 L22.00,57.00 L21.90,58.00 L21.90,58.00 L21.58,59.00 L21.00,60.00 L20.00,61.00 L19.00,61.58 L18.00,61.90 L18.00,61.90 L17.00,62.00 L17.00,62.00 L16.00,61.90 L16.00,61.90 L15.00,61.58 L14.00,61.00 L13.00,60.00 L12.42,59.00 L12.10,58.00 L12.10,58.00 L12.00,57.00 L12.00,57.00 L12.10,56.00 L12.10,56.00 L12.42,55.00 L13.00,54.00 L14.00,53.00 L15.00,52.42 L16.00,52.10 L16.00,52.10 "/>
    <path fill-rule="evenodd" style="fill: none; stroke: rgb(0, 0, 0); stroke-width: 0.2;" d="M97.00,32.00 L96.00,31.90 L96.00,31.90 L95.00,31.58 L94.00,31.00 L93.00,30.00 L92.42,29.00 L92.10,28.00 L92.10,28.00 L92.00,27.00 L92.00,27.00 L92.10,26.00 L92.10,26.00 L92.42,25.00 L93.00,24.00 L94.00,23.00 L95.00,22.42 L96.00,22.10 L96.00,22.10 L97.00,22.00 L97.00,22.00 L98.00,22.10 L98.00,22.10 L99.00,22.42 L100.00,23.00 L101.00,24.00 L101.58,25.00 L101.90,26.00 L102.00,27.00 L101.90,28.00 L101.58,29.00 L101.00,30.00 L100.00,31.00 L99.00,31.58 L98.00,31.90 L98.00,31.90 L97.00,32.00 L97.00,32.00 "/>
    <path fill-rule="evenodd" style="fill: none; stroke: rgb(0, 0, 0); stroke-width: 0.2;" d="M97.00,92.00 L98.00,92.10 L98.00,92.10 L99.00,92.42 L100.00,93.00 L101.00,94.00 L101.58,95.00 L101.90,96.00 L102.00,97.00 L101.90,98.00 L101.58,99.00 L101.00,100.00 L100.00,101.00 L99.00,101.58 L98.00,101.90 L97.00,102.00 L96.00,101.90 L95.00,101.58 L94.00,101.00 L93.00,100.00 L92.42,99.00 L92.10,98.00 L92.10,98.00 L92.00,97.00 L92.00,97.00 L91.90,98.00 L91.90,98.00 L91.58,99.00 L91.00,100.00 L90.00,101.00 L89.00,101.58 L88.00,101.90 L87.00,102.00 L86.00,101.90 L85.00,101.58 L84.00,101.00 L83.00,100.00 L82.42,99.00 L82.10,98.00 L82.10,98.00 L82.00,97.00 L82.00,97.00 L82.10,96.00 L82.10,96.00 L82.42,95.00 L83.00,94.00 L84.00,93.00 L85.00,92.42 L86.00,92.10 L86.00,92.10 L87.00,92.00 L87.00,92.00 L88.00,92.10 L88.00,92.10 L89.00,92.42 L90.00,93.00 L91.00,94.00 L91.58,95.00 L91.90,96.00 L91.90,96.00 L92.00,97.00 L92.00,97.00 L92.10,96.00 L92.10,96.00 L92.42,95.00 L93.00,94.00 L94.00,93.00 L95.00,92.42 L96.00,92.10 L96.00,92.10 L97.00,92.00 L97.00,92.00 "/>
    <path fill-rule="evenodd" style="fill: none; stroke: rgb(0, 0, 0); stroke-width: 0.2;" d="M12.10,36.00 L12.42,35.00 L13.00,34.00 L14.00,33.00 L15.00,32.42 L16.00,32.10 L16.00,32.10 L17.00,32.00 L17.00,32.00 L18.00,32.10 L18.00,32.10 L19.00,32.42 L20.00,33.00 L21.00,34.00 L21.58,35.00 L21.90,36.00 L21.90,36.00 L22.00,37.00 L22.00,37.00 L21.90,38.00 L21.90,38.00 L21.58,39.00 L21.00,40.00 L20.00,41.00 L19.00,41.58 L18.00,41.90 L18.00,41.90 L17.00,42.00 L17.00,42.00 L16.00,41.90 L16.00,41.90 L15.00,41.58 L14.00,41.00 L13.00,40.00 L12.42,39.00 L12.10,38.00 L12.10,38.00 L12.00,37.00 L12.00,37.00 L12.10,36.00 L12.10,36.00 "/>
    <path fill-rule="evenodd" style="fill: none; stroke: rgb(0, 0, 0); stroke-width: 0.2;" d="M37.00,82.00 L36.00,81.90 L36.00,81.90 L35.00,81.58 L34.00,81.00 L33.00,80.00 L32.42,79.00 L32.10,78.00 L32.10,78.00 L32.00,77.00 L32.00,77.00 L31.90,78.00 L31.90,78.00 L31.58,79.00 L31.00,80.00 L30.00,81.00 L29.00,81.58 L28.00,81.90 L28.00,81.90 L27.00,82.00 L27.00,82.00 L28.00,82.10 L28.00,82.10 L29.00,82.42 L30.00,83.00 L31.00,84.00 L31.58,85.00 L31.90,86.00 L31.90,86.00 L32.00,87.00 L32.00,87.00 L32.10,86.00 L32.10,86.00 L32.42,85.00 L33.00,84.00 L34.00,83.00 L35.00,82.42 L36.00,82.10 L36.00,82.10 L37.00,82.00 L37.00,82.00 "/>

<script>
let svgs = document.children[0];
let paths = Array.from(svgs.children).filter(function(c) {
    var orig = c.style.stroke;
    c.onmouseover = function() {
        c.style.stroke = "rgb(0, 0, 255)";
    };
    c.onmouseout = function () {
        c.style.stroke = orig;
    };
    c.onclick = function () {
        svgs.removeChild();
    }
});

for (let path of paths) {
    console.log(path);
}
</script></svg>