<svg xmlns="http://www.w3.org/2000/svg">
    <path fill-rule="evenodd" style="fill: rgb(0, 0, 0); stroke: none; stroke-width: none;" d="M2.04,50.00 L2.09,55.00 L2.64,60.00 L3.72,65.00 L5.35,70.00 L7.60,75.00 L10.58,80.00 L13.58,84.00 L18.00,88.66 L23.00,92.73 L28.00,95.86 L32.00,97.83 L37.00,99.70 L42.00,100.99 L47.00,101.75 L52.00,102.00 L52.00,77.00 L51.00,76.98 L48.00,76.68 L45.00,76.00 L42.21,75.00 L39.00,73.35 L37.00,72.00 L35.00,70.33 L33.00,68.24 L31.29,66.00 L29.55,63.00 L28.32,60.00 L27.51,57.00 L27.08,54.00 L27.02,51.00 L27.32,48.00 L28.00,45.00 L29.00,42.21 L30.65,39.00 L32.00,37.00 L33.67,35.00 L35.76,33.00 L38.00,31.29 L41.00,29.55 L44.00,28.32 L47.00,27.51 L50.00,27.08 L53.00,27.02 L56.00,27.32 L59.00,28.00 L61.79,29.00 L65.00,30.65 L67.00,32.00 L69.00,33.67 L71.00,35.76 L72.71,38.00 L73.93,40.00 L75.32,43.00 L76.27,46.00 L76.82,49.00 L77.00,52.00 L102.00,52.00 L101.91,49.00 L101.36,44.00 L100.28,39.00 L98.65,34.00 L96.40,29.00 L94.08,25.00 L91.23,21.00 L87.00,16.29 L82.00,12.00 L78.00,9.29 L74.00,7.10 L69.06,5.00 L64.00,3.46 L59.00,2.49 L54.00,2.04 L49.00,2.09 L44.00,2.64 L39.00,3.72 L34.00,5.35 L29.00,7.60 L24.00,10.58 L20.00,13.58 L15.34,18.00 L11.27,23.00 L8.14,28.00 L6.17,32.00 L4.30,37.00 L3.01,42.00 L3.01,42.00 L2.49,45.00 L2.04,50.00 "/>

<script>
let svgs = document.children[0];
let paths = Array.from(svgs.children).filter(function(c) {
    var orig = c.style.stroke;
    c.onmouseover = function() {
        c.style.stroke = "rgb(0, 0, 255)";
    };
    c.onmouseout = function () {
        c.style.stroke = orig;
    };
    c.onclick = function () {
        svgs.removeChild()
    }
});

for (let path of paths) {
    console.log(path);
}
</script></svg>