<svg xmlns="http://www.w3.org/2000/svg">
    <path fill-rule="evenodd" d="M1.04,49.00 L1.09,54.00 L1.64,59.00 L2.72,64.00 L4.35,69.00 L6.60,74.00 L8.92,78.00 L11.77,82.00 L16.00,86.71 L21.00,91.00 L25.00,93.71 L29.00,95.90 L35.00,98.37 L40.00,99.77 L45.00,100.64 L50.00,100.99 L51.00,100.00 L51.00,76.00 L50.00,75.98 L47.00,75.68 L46.00,75.49 L44.00,75.00 L41.21,74.00 L38.00,72.35 L36.00,71.00 L34.00,69.33 L32.00,67.24 L30.29,65.00 L28.55,62.00 L27.32,59.00 L26.51,56.00 L26.08,53.00 L26.02,50.00 L26.32,47.00 L27.00,44.00 L28.00,41.21 L29.65,38.00 L31.00,36.00 L32.67,34.00 L34.76,32.00 L37.00,30.29 L40.00,28.55 L43.00,27.32 L46.00,26.51 L49.00,26.08 L52.00,26.02 L55.00,26.32 L58.00,27.00 L60.79,28.00 L64.00,29.65 L66.00,31.00 L68.00,32.67 L70.00,34.76 L71.71,37.00 L72.93,39.00 L74.32,42.00 L75.27,45.00 L75.82,48.00 L76.00,51.00 L100.00,51.00 L100.99,50.00 L100.91,48.00 L100.36,43.00 L99.28,38.00 L97.65,33.00 L95.40,28.00 L93.08,24.00 L90.23,20.00 L86.00,15.29 L81.00,11.00 L77.00,8.29 L73.00,6.10 L68.06,4.00 L63.00,2.46 L58.00,1.49 L53.00,1.04 L48.00,1.09 L43.00,1.64 L38.00,2.72 L33.00,4.35 L28.00,6.60 L24.00,8.92 L20.00,11.77 L15.29,16.00 L11.00,21.00 L8.29,25.00 L6.10,29.00 L4.00,33.94 L2.46,39.00 L1.49,44.00 L1.04,49.00 "/>
</svg>