<svg xmlns="http://www.w3.org/2000/svg">
    <path fill-rule="evenodd" d="M1.0900850296020508,48 L1.040018081665039,49 L1.0900850296020508,54 L1.6442079544067383,59 L2.7197093963623047,64 L4.35270357131958,69 L6.6046223640441895,74 L8.917009353637695,78 L11.770768165588379,82 L16,86.7057113647461 L21,91 L25,93.70765686035156 L29,95.89968872070313 L35,98.3706283569336 L40,99.77490997314453 L45,100.63866424560547 L50,100.98999786376953 L51,100 L51,76 L50,75.97998809814453 L47,75.67781066894531 L44,75 L41.20925521850586,74 L38,72.35272216796875 L36,71 L34,69.32755279541016 L32,67.24483489990234 L30.289264678955078,65 L28.551118850708008,62 L27.315034866333008,59 L26.505306243896484,56 L26.080137252807617,53 L26.020009994506836,50 L26.322189331054688,47 L27,44 L28,41.20925521850586 L29.647274017333984,38 L31,36 L32.672447204589844,34 L34.75516891479492,32 L37,30.289264678955078 L40,28.551118850708008 L43,27.315034866333008 L46,26.505306243896484 L49,26.080137252807617 L52,26.020009994506836 L55,26.322189331054688 L58,27 L60.79074478149414,28 L64,29.647274017333984 L66,31 L68,32.672447204589844 L70,34.75516891479492 L71.71073913574219,37 L72.93136596679688,39 L74.32321166992188,42 L75.26908874511719,45 L75.81930541992188,48 L76,51 L100,51 L100.98999786376953,50 L100.909912109375,48 L100.35578918457031,43 L99.28028869628906,38 L97.64729309082031,33 L95.39537811279297,28 L93.08299255371094,24 L90.22923278808594,20 L86,15.294290542602539 L81,11 L77,8.292346000671387 L73,6.1003098487854 L68.05733489990234,4 L63,2.4615042209625244 L58,1.492473840713501 L53,1.0400182008743286 L48,1.0900850296020508 L43,1.6442079544067383 L38,2.7197093963623047 L33,4.35270357131958 L28,6.6046223640441895 L23,9.57629108428955 L19,12.582549095153809 L14.340818405151367,17 L10.26999568939209,22 L7.1368913650512695,27 L4.35270357131958,33 L2.7197093963623047,38 L1.6442079544067383,43 L1.0900850296020508,48 "/>
</svg>