<svg xmlns="http://www.w3.org/2000/svg">
<path d="M0.09008503,47 L0.16026515,46 L0.250647,45 L0.36133844,44 L0.49247378,43 L0.64420795,42 L0.8167187,41 L1,40.052532 L1.0102086,40 L1.2250929,39 L1.4615043,38 L1.7197094,37 L2,36 L2.3032396,35 L2.6293736,34 L2.978753,33 L3,32.94267 L3.3527036,32 L3.7509663,31 L4,30.409313 L4.174497,30 L4.624249,29 L5,28.208591 L5.10031,28 L5.6046224,27 L6,26.254425 L6.1368914,26 L6.6993313,25 L7,24.48892 L7.292346,24 L7.917009,23 L8,22.872118 L8.576291,22 L9,21.384611 L9.269996,21 L10,20 L10.770768,19 L11,18.713005 L11.582549,18 L12,17.50607 L12.43815,17 L13,16.371565 L13.340818,16 L14,15.302882 L14.294291,15 L15,14.294291 L15.302882,14 L16,13.340818 L16.371565,13 L17,12.43815 L17.50607,12 L18,11.582549 L18.713005,11 L19,10.770768 L20,10 L21,9.269996 L21.384611,9 L22,8.576291 L22.872118,8 L23,7.917009 L24,7.292346 L24.48892,7 L25,6.6993313 L26,6.1368914 L26.254425,6 L27,5.6046224 L28,5.10031 L28.208591,5 L29,4.624249 L30,4.174497 L30.409313,4 L31,3.7509663 L32,3.3527036 L32.94267,3 L33,2.978753 L34,2.6293736 L35,2.3032396 L36,2 L37,1.7197094 L38,1.4615042 L39,1.2250929 L40,1.0102086 L40.052532,1 L41,0.8167187 L42,0.64420795 L43,0.49247387 L44,0.36133847 L45,0.250647 L46,0.16026515 L47,0.090085 L48,0.04001817 L49,0.010000378 L50,0 L51,0.010000378 L52,0.04001817 L53,0.090085 L54,0.16026515 L55,0.250647 L56,0.36133847 L57,0.49247387 L58,0.64420795 L59,0.8167187 L59.947468,1 L60,1.0102086 L61,1.2250929 L62,1.4615042 L63,1.7197093 L64,2 L64,2 L65,2.3032396 L66,2.6293736 L67,2.978753 L67.057335,3 L68,3.3527036 L69,3.7509663 L69.59069,4 L70,4.174497 L71,4.624249 L71.79141,5 L72,5.10031 L73,5.6046224 L73.745575,6 L74,6.1368914 L75,6.6993313 L75.51108,7 L76,7.292346 L77,7.917009 L77.127884,8 L78,8.576291 L78.61539,9 L79,9.269996 L80,10 L80,10 L81,10.770768 L81.286995,11 L82,11.582549 L82.493935,12 L83,12.43815 L83.62843,13 L84,13.340818 L84.69712,14 L85,14.294291 L85.70571,15 L86,15.302882 L86.65918,16 L87,16.371565 L87.56185,17 L88,17.50607 L88.41745,18 L89,18.713005 L89.22923,19 L90,20 L90,20 L90.73,21 L91,21.384611 L91.423706,22 L92,22.872118 L92.08299,23 L92.70766,24 L93,24.48892 L93.30067,25 L93.863106,26 L94,26.254425 L94.39538,27 L94.89969,28 L95,28.208591 L95.37575,29 L95.8255,30 L96,30.409313 L96.24903,31 L96.64729,32 L97,32.94267 L97.02125,33 L97.37063,34 L97.69676,35 L98,36 L98,36 L98.28029,37 L98.5385,38 L98.77491,39 L98.98979,40 L99,40.052532 L99.18328,41 L99.35579,42 L99.50752,43 L99.638664,44 L99.74935,45 L99.83974,46 L99.90991,47 L99.959984,48 L99.99,49 L99,50 L98,50 L97,50 L96,50 L95,50 L94,50 L93,50 L92,50 L91,50 L90,50 L89,50 L88,50 L87,50 L86,50 L85,50 L84,50 L83,50 L82,50 L81,50 L80,50 L79,50 L78,50 L77,50 L76,50 L75,50 L74.97999,49 L74.91986,48 L74.819305,47 L74.67781,46 L74.49469,45 L74.26909,44 L74,43 L73.68497,42 L73.32321,41 L73,40.209255 L72.91259,40 L72.44888,39 L72,38.129387 L71.931366,38 L71.35272,37 L71,36.441772 L70.71074,36 L70,35 L69.20765,34 L69,33.75517 L68.32755,33 L68,32.654003 L67.346,32 L67,31.67245 L66.244835,31 L66,30.79235 L65,30 L64,29.289265 L63.558228,29 L63,28.647274 L62,28.068634 L61.870613,28 L61,27.551119 L60,27.087408 L59.790745,27 L59,26.676792 L58,26.315035 L57,26 L56,25.730907 L55,25.505306 L54,25.32219 L53,25.180696 L52,25.080137 L51,25.02001 L50,25 L50,25 L49,25.02001 L48,25.080137 L47,25.180696 L46,25.32219 L45,25.505306 L44,25.730907 L43,26 L43,26 L42,26.315035 L41,26.676792 L40.209255,27 L40,27.087408 L39,27.551119 L38.129387,28 L38,28.068634 L37,28.647274 L36.441772,29 L36,29.289265 L35,30 L35,30 L34,30.79235 L33.75517,31 L33,31.67245 L32.654003,32 L32,32.654003 L31.67245,33 L31,33.75517 L30.79235,34 L30,35 L30,35 L29.289265,36 L29,36.441772 L28.647274,37 L28.068634,38 L28,38.129387 L27.551119,39 L27.087408,40 L27,40.209255 L26.676792,41 L26.315035,42 L26,43 L26,43 L25.730907,44 L25.505306,45 L25.32219,46 L25.180696,47 L25.080137,48 L25.02001,49 L25,50 L25,50 L25.02001,51 L25.080137,52 L25.180696,53 L25.32219,54 L25.505306,55 L25.730907,56 L26,57 L26,57 L26.315035,58 L26.676792,59 L27,59.790745 L27.087408,60 L27.551119,61 L28,61.870613 L28.068634,62 L28.647274,63 L29,63.558228 L29.289265,64 L30,65 L30,65 L30.79235,66 L31,66.244835 L31.67245,67 L32,67.346 L32.654003,68 L33,68.32755 L33.75517,69 L34,69.20765 L35,70 L35,70 L36,70.71074 L36.441772,71 L37,71.35272 L38,71.931366 L38.129387,72 L39,72.44888 L40,72.91259 L40.209255,73 L41,73.32321 L42,73.68497 L43,74 L43,74 L44,74.26909 L45,74.49469 L46,74.67781 L47,74.819305 L48,74.91986 L49,74.97999 L50,75 L50,76 L50,77 L50,78 L50,79 L50,80 L50,81 L50,82 L50,83 L50,84 L50,85 L50,86 L50,87 L50,88 L50,89 L50,90 L50,91 L50,92 L50,93 L50,94 L50,95 L50,96 L50,97 L50,98 L50,99 L49,99.99 L48,99.959984 L47,99.90991 L46,99.83974 L45,99.74935 L44,99.638664 L43,99.50752 L42,99.35579 L41,99.18328 L40.052532,99 L40,98.98979 L39,98.77491 L38,98.5385 L37,98.28029 L36,98 L35,97.69676 L34,97.37063 L33,97.02125 L32.94267,97 L32,96.64729 L31,96.24903 L30.409313,96 L30,95.8255 L29,95.37575 L28.208591,95 L28,94.89969 L27,94.39538 L26.254425,94 L26,93.863106 L25,93.30067 L24.48892,93 L24,92.70766 L23,92.08299 L22.872118,92 L22,91.423706 L21.384611,91 L21,90.73 L20,90 L19,89.22923 L18.713005,89 L18,88.41745 L17.50607,88 L17,87.56185 L16.371565,87 L16,86.65918 L15.302882,86 L15,85.70571 L14.294291,85 L14,84.69712 L13.340818,84 L13,83.62843 L12.43815,83 L12,82.493935 L11.582549,82 L11,81.286995 L10.770768,81 L10,80 L9.269996,79 L9,78.61539 L8.576291,78 L8,77.127884 L7.917009,77 L7.292346,76 L7,75.51108 L6.6993313,75 L6.1368914,74 L6,73.745575 L5.6046224,73 L5.10031,72 L5,71.79141 L4.624249,71 L4.174497,70 L4,69.59069 L3.7509663,69 L3.3527036,68 L3,67.057335 L2.978753,67 L2.6293736,66 L2.3032396,65 L2,64 L1.7197093,63 L1.4615043,62 L1.2250929,61 L1.0102086,60 L1,59.947468 L0.8167187,59 L0.64420795,58 L0.49247378,57 L0.36133844,56 L0.250647,55 L0.16026515,54 L0.09008503,53 L0.04001814,52 L0.0100002885,51 L0,50 L0.0100002885,49 L0.04001814,48 L0.09008503,47" fill="none" stroke="black" stroke-width="3"/>
</svg>