<svg xmlns="http://www.w3.org/2000/svg">
<path d="M0.09008503,47 L0.64420795,42 L1.7197094,37 L3.3527036,32 L6.1368914,26 L9.269996,21 L13.340818,16 L18,11.582549 L22,8.576291 L27,5.6046224 L32,3.3527036 L37,1.7197094 L42,0.64420795 L47,0.090085 L52,0.04001817 L57,0.49247387 L62,1.4615042 L67.057335,3 L72,5.10031 L76,7.292346 L80,10 L85,14.294291 L89.22923,19 L92.08299,23 L94.39538,27 L96.64729,32 L98.28029,37 L99.35579,42 L99.90991,47 L99.99,49 L99,50 L75,50 L74.819305,47 L74.26909,44 L73.32321,41 L71.931366,38 L70.71074,36 L69,33.75517 L67,31.67245 L65,30 L63,28.647274 L59.790745,27 L57,26 L54,25.32219 L51,25.02001 L48,25.080137 L45,25.505306 L42,26.315035 L39,27.551119 L36,29.289265 L33.75517,31 L31.67245,33 L30,35 L28.647274,37 L27,40.209255 L26,43 L25.32219,46 L25.02001,49 L25.080137,52 L25.505306,55 L26.315035,58 L27.551119,61 L29.289265,64 L31,66.244835 L33,68.32755 L35,70 L37,71.35272 L40.209255,73 L43,74 L46,74.67781 L49,74.97999 L50,75 L50,99 L49,99.99 L44,99.638664 L39,98.77491 L34,97.37063 L28,94.89969 L24,92.70766 L20,90 L15,85.70571 L10.770768,81 L7.917009,77 L5.6046224,73 L3.3527036,68 L1.7197093,63 L0.64420795,58 L0.09008503,53 L0.04001814,48 L0.09008503,47" fill="none" stroke="black" stroke-width="3"/>
</svg>