<svg xmlns="http://www.w3.org/2000/svg">
    <path fill-rule="evenodd" d="M0.09008502960205078,47 L0.04001814126968384,48 L0.09008502960205078,53 L0.6442079544067383,58 L1.7197092771530151,63 L3.35270357131958,68 L5.6046223640441895,73 L7.917008876800537,77 L10.770768165588379,81 L15,85.7057113647461 L20,90 L24,92.70765686035156 L28,94.89968872070313 L34,97.3706283569336 L39,98.77490997314453 L44,99.63866424560547 L49,99.98999786376953 L50,99 L50,75 L49,74.97998809814453 L46,74.67781066894531 L43,74 L40.20925521850586,73 L37,71.35272216796875 L35,70 L33,68.32755279541016 L31,66.24483489990234 L29.289264678955078,64 L27.551118850708008,61 L26.315034866333008,58 L25.505306243896484,55 L25.080137252807617,52 L25.020009994506836,49 L25.322189331054688,46 L26,43 L27,40.20925521850586 L28.647274017333984,37 L30,35 L31.672449111938477,33 L33.75516891479492,31 L36,29.289264678955078 L39,27.551118850708008 L42,26.315034866333008 L45,25.505306243896484 L48,25.080137252807617 L51,25.020009994506836 L54,25.322189331054688 L57,26 L59.79074478149414,27 L63,28.647274017333984 L65,30 L67,31.672449111938477 L69,33.75516891479492 L70.71073913574219,36 L71.93136596679688,38 L73.32321166992188,41 L74.26908874511719,44 L74.81930541992188,47 L75,50 L99,50 L99.98999786376953,49 L99.909912109375,47 L99.35578918457031,42 L98.28028869628906,37 L96.64729309082031,32 L94.39537811279297,27 L92.08299255371094,23 L89.22923278808594,19 L85,14.294290542602539 L80,10 L76,7.292346000671387 L72,5.1003098487854 L67.05733489990234,3 L62,1.4615042209625244 L57,0.49247387051582336 L52,0.040018171072006226 L47,0.0900849997997284 L42,0.6442079544067383 L37,1.7197093963623047 L32,3.35270357131958 L27,5.6046223640441895 L22,8.57629108428955 L18,11.582549095153809 L13.340818405151367,16 L9.26999568939209,21 L6.1368913650512695,26 L3.35270357131958,32 L1.7197093963623047,37 L0.6442079544067383,42 L0.09008502960205078,47 "/>
</svg>