<svg xmlns="http://www.w3.org/2000/svg">
    <path fill-rule="evenodd" style="fill: none; stroke: rgb(0, 0, 0); stroke-width: 0.2;" d="M1.99998,5.00000 L1.99999,4.00000 M1.99998,16.00000 L1.99999,15.00000 M1.99998,17.00000 L1.99998,16.00000 M1.99998,29.00000 L1.99999,28.00000 M1.99998,41.00000 L1.99999,40.00000 M1.99999,3.00000 L2.00000,2.00000 M1.99999,4.00000 L1.99999,3.00000 M1.99999,13.00000 L1.99999,12.00000 M1.99999,14.00000 L1.99999,13.00000 M1.99999,15.00000 L1.99999,14.00000 M1.99999,25.00000 L1.99999,24.00000 M1.99999,26.00000 L1.99999,25.00000 M1.99999,27.00000 L1.99999,26.00000 M1.99999,28.00000 L1.99999,27.00000 M1.99999,38.00000 L1.99999,37.00000 M1.99999,39.00000 L1.99999,38.00000 M1.99999,40.00000 L1.99999,39.00000 M1.99999,12.00000 L1.99999,11.00000 M1.99999,9.00000 L1.99999,8.00000 M1.99999,10.00000 L1.99999,9.00000 M1.99999,11.00000 L1.99999,10.00000 M1.99999,21.00000 L2.00000,20.00000 M1.99999,22.00000 L1.99999,21.00000 M1.99999,23.00000 L1.99999,22.00000 M1.99999,24.00000 L1.99999,23.00000 M1.99999,33.00000 L2.00000,32.00000 M1.99999,34.00000 L1.99999,33.00000 M1.99999,35.00000 L1.99999,34.00000 M1.99999,36.00000 L1.99999,35.00000 M1.99999,37.00000 L1.99999,36.00000 M1.99999,46.00000 L2.00000,45.00000 M1.99999,47.00000 L1.99999,46.00000 M1.99999,48.00000 L1.99999,47.00000 M1.99999,49.00000 L1.99999,48.00000 M1.99999,50.00000 L1.99999,49.00000 M1.99999,51.00000 L1.99999,50.00000 M1.99999,8.00000 L2.00000,7.00000 M2.00000,6.00000 L1.99998,5.00000 M2.00000,7.00000 L2.00000,6.00000 M2.00000,18.00000 L1.99998,17.00000 M2.00000,19.00000 L2.00000,18.00000 M2.00000,20.00000 L2.00000,19.00000 M2.00000,30.00000 L1.99998,29.00000 M2.00000,31.00000 L2.00000,30.00000 M2.00000,32.00000 L2.00000,31.00000 M2.00000,42.00000 L1.99998,41.00000 M2.00000,43.00000 L2.00000,42.00000 M2.00000,44.00000 L2.00000,43.00000 M2.00000,45.00000 L2.00000,44.00000 M2.00000,2.00000 L2.00000,2.00000 M2.00000,2.00000 L3.00000,2.00000 M2.00000,52.00000 L1.99999,51.00000 M2.00000,52.00000 L2.00000,53.00000 M2.00000,53.00000 L2.00000,52.00000 M2.00000,53.00000 L2.00000,54.00000 M2.00000,54.00000 L2.00000,53.00000 M2.00000,54.00000 L2.00000,55.00000 M2.00000,55.00000 L2.00000,54.00000 M2.00000,55.00000 L2.00000,56.00000 M2.00000,56.00000 L2.00000,55.00000 M2.00000,56.00000 L2.00000,57.00000 M2.00000,57.00000 L2.00000,56.00000 M2.00000,57.00000 L2.00000,58.00000 M2.00000,58.00000 L2.00000,57.00000 M2.00000,58.00000 L2.00000,59.00000 M2.00000,59.00000 L2.00000,58.00000 M2.00000,59.00000 L2.00000,60.00000 M2.00000,60.00000 L2.00000,59.00000 M2.00000,60.00000 L2.00000,61.00000 M2.00000,61.00000 L2.00000,60.00000 M2.00000,61.00000 L2.00000,62.00000 M2.00000,62.00000 L2.00000,61.00000 M2.00000,62.00000 L2.00000,63.00000 M2.00000,63.00000 L2.00000,62.00000 M2.00000,63.00000 L2.00000,64.00000 M2.00000,64.00000 L2.00000,63.00000 M2.00000,64.00000 L2.00000,65.00000 M2.00000,65.00000 L2.00000,64.00000 M2.00000,65.00000 L2.00000,66.00000 M2.00000,66.00000 L2.00000,65.00000 M2.00000,66.00000 L2.00000,67.00000 M2.00000,67.00000 L2.00000,66.00000 M2.00000,67.00000 L2.00000,68.00000 M2.00000,68.00000 L2.00000,67.00000 M2.00000,68.00000 L2.00000,69.00000 M2.00000,69.00000 L2.00000,68.00000 M2.00000,69.00000 L2.00000,70.00000 M2.00000,70.00000 L2.00000,69.00000 M2.00000,70.00000 L2.00000,71.00000 M2.00000,71.00000 L2.00000,70.00000 M2.00000,71.00000 L2.00000,72.00000 M2.00000,72.00000 L2.00000,71.00000 M2.00000,72.00000 L2.00000,73.00000 M2.00000,73.00000 L2.00000,72.00000 M2.00000,73.00000 L2.00000,74.00000 M2.00000,74.00000 L2.00000,73.00000 M2.00000,74.00000 L2.00000,75.00000 M2.00000,75.00000 L2.00000,74.00000 M2.00000,75.00000 L2.00000,76.00000 M2.00000,76.00000 L2.00000,75.00000 M2.00000,76.00000 L2.00000,77.00000 M2.00000,77.00000 L2.00000,76.00000 M2.00000,77.00000 L2.00000,78.00000 M2.00000,78.00000 L2.00000,77.00000 M2.00000,78.00000 L2.00000,79.00000 M2.00000,79.00000 L2.00000,78.00000 M2.00000,79.00000 L2.00000,80.00000 M2.00000,80.00000 L2.00000,79.00000 M2.00000,80.00000 L2.00000,81.00000 M2.00000,81.00000 L2.00000,80.00000 M2.00000,81.00000 L2.00000,82.00000 M2.00000,82.00000 L2.00000,81.00000 M2.00000,82.00000 L2.00000,83.00000 M2.00000,83.00000 L2.00000,82.00000 M2.00000,83.00000 L2.00000,84.00000 M2.00000,84.00000 L2.00000,83.00000 M2.00000,84.00000 L2.00000,85.00000 M2.00000,85.00000 L2.00000,84.00000 M2.00000,85.00000 L2.00000,86.00000 M2.00000,86.00000 L2.00000,85.00000 M2.00000,86.00000 L2.00000,87.00000 M2.00000,87.00000 L2.00000,86.00000 M2.00000,87.00000 L2.00000,88.00000 M2.00000,88.00000 L2.00000,87.00000 M2.00000,88.00000 L2.00000,89.00000 M2.00000,89.00000 L2.00000,88.00000 M2.00000,89.00000 L2.00000,90.00000 M2.00000,90.00000 L2.00000,89.00000 M2.00000,90.00000 L2.00000,91.00000 M2.00000,91.00000 L2.00000,90.00000 M2.00000,91.00000 L2.00000,92.00000 M2.00000,92.00000 L2.00000,91.00000 M2.00000,92.00000 L2.00000,93.00000 M2.00000,93.00000 L2.00000,92.00000 M2.00000,93.00000 L2.00000,94.00000 M2.00000,94.00000 L2.00000,93.00000 M2.00000,94.00000 L2.00000,95.00000 M2.00000,95.00000 L2.00000,94.00000 M2.00000,95.00000 L2.00000,96.00000 M2.00000,96.00000 L2.00000,95.00000 M2.00000,96.00000 L2.00000,97.00000 M2.00000,97.00000 L2.00000,96.00000 M2.00000,97.00000 L2.00000,98.00000 M2.00000,98.00000 L2.00000,97.00000 M2.00000,98.00000 L2.00000,99.00000 M2.00000,99.00000 L2.00000,98.00000 M2.00000,99.00000 L2.00000,100.00000 M2.00000,100.00000 L2.00000,99.00000 M2.00000,100.00000 L2.00000,101.00000 M2.00000,101.00000 L2.00000,100.00000 M2.00000,101.00000 L2.00000,102.00000 M2.00000,102.00000 L2.00000,101.00000 M2.00000,102.00000 L2.00000,103.00000 M2.00000,103.00000 L2.00000,102.00000 M2.00000,103.00000 L2.00000,104.00000 M2.00000,104.00000 L2.00000,103.00000 M2.00000,104.00000 L2.00000,105.00000 M2.00000,105.00000 L2.00000,104.00000 M2.00000,105.00000 L2.00000,106.00000 M2.00000,106.00000 L2.00000,105.00000 M2.00000,106.00000 L2.00000,107.00000 M2.00000,107.00000 L2.00000,106.00000 M2.00000,107.00000 L2.00000,108.00000 M2.00000,108.00000 L2.00000,107.00000 M2.00000,108.00000 L2.00000,109.00000 M2.00000,109.00000 L2.00000,108.00000 M2.00000,109.00000 L2.00000,110.00000 M2.00000,110.00000 L2.00000,109.00000 M2.00000,110.00000 L2.00000,111.00000 M2.00000,111.00000 L2.00000,110.00000 M2.00000,111.00000 L2.00000,112.00000 M2.00000,112.00000 L2.00000,111.00000 M2.00000,112.00000 L2.00000,113.00000 M2.00000,113.00000 L2.00000,112.00000 M2.00000,113.00000 L2.00000,114.00000 M2.00000,114.00000 L2.00000,113.00000 M2.00000,114.00000 L2.00000,115.00000 M2.00000,115.00000 L2.00000,114.00000 M2.00000,115.00000 L2.00000,116.00000 M2.00000,116.00000 L2.00000,115.00000 M2.00000,116.00000 L2.00000,117.00000 M2.00000,117.00000 L2.00000,116.00000 M2.00000,117.00000 L2.00000,118.00000 M2.00000,118.00000 L2.00000,117.00000 M2.00000,118.00000 L2.00000,119.00000 M2.00000,119.00000 L2.00000,118.00000 M2.00000,119.00000 L2.00000,120.00000 M2.00000,120.00000 L2.00000,119.00000 M2.00000,120.00000 L2.00000,121.00000 M2.00000,121.00000 L2.00000,120.00000 M2.00000,121.00000 L2.00000,122.00000 M2.00000,122.00000 L2.00000,121.00000 M2.00000,122.00000 L2.00000,123.00000 M2.00000,123.00000 L2.00000,122.00000 M2.00000,123.00000 L2.00000,124.00000 M2.00000,124.00000 L2.00000,123.00000 M2.00000,124.00000 L2.00000,125.00000 M2.00000,125.00000 L2.00000,124.00000 M2.00000,125.00000 L2.00000,126.00000 M2.00000,126.00000 L2.00000,125.00000 M2.00000,126.00000 L2.00000,127.00000 M2.00000,127.00000 L2.00000,126.00000 M2.00000,127.00000 L2.00000,128.00000 M2.00000,128.00000 L2.00000,127.00000 M2.00000,128.00000 L2.00000,129.00000 M2.00000,129.00000 L2.00000,128.00000 M2.00000,129.00000 L2.00000,130.00000 M2.00000,130.00000 L2.00000,129.00000 M2.00000,130.00000 L2.00000,131.00000 M2.00000,131.00000 L2.00000,130.00000 M2.00000,131.00000 L2.00000,132.00000 M2.00000,132.00000 L2.00000,131.00000 M2.00000,132.00000 L2.00000,133.00000 M2.00000,133.00000 L2.00000,132.00000 M2.00000,133.00000 L2.00000,134.00000 M2.00000,134.00000 L2.00000,133.00000 M2.00000,134.00000 L2.00000,135.00000 M2.00000,135.00000 L2.00000,134.00000 M2.00000,135.00000 L2.00000,136.00000 M2.00000,136.00000 L2.00000,135.00000 M2.00000,136.00000 L2.00000,137.00000 M2.00000,137.00000 L2.00000,136.00000 M2.00000,137.00000 L2.00000,138.00000 M2.00000,138.00000 L2.00000,137.00000 M2.00000,138.00000 L2.00000,139.00000 M2.00000,139.00000 L2.00000,138.00000 M2.00000,139.00000 L2.00000,140.00000 M2.00000,140.00000 L2.00000,139.00000 M2.00000,140.00000 L2.00000,141.00000 M2.00000,141.00000 L2.00000,140.00000 M2.00000,141.00000 L2.00000,142.00000 M2.00000,142.00000 L2.00000,141.00000 M2.00000,142.00000 L2.00000,143.00000 M2.00000,143.00000 L2.00000,142.00000 M2.00000,143.00000 L2.00000,144.00000 M2.00000,144.00000 L2.00000,143.00000 M2.00000,144.00000 L2.00000,145.00000 M2.00000,145.00000 L2.00000,144.00000 M2.00000,145.00000 L2.00000,146.00000 M2.00000,146.00000 L2.00000,145.00000 M2.00000,146.00000 L2.00000,147.00000 M2.00000,147.00000 L2.00000,146.00000 M2.00000,147.00000 L2.00000,148.00000 M2.00000,148.00000 L2.00000,147.00000 M2.00000,148.00000 L2.00000,149.00000 M2.00000,149.00000 L2.00000,148.00000 M2.00000,149.00000 L2.00000,150.00000 M2.00000,150.00000 L2.00000,149.00000 M2.00000,150.00000 L2.00000,151.00000 M2.00000,151.00000 L2.00000,150.00000 M2.00000,151.00000 L2.00000,152.00000 M2.00000,152.00000 L2.00000,151.00000 M2.00000,152.00000 L2.00000,153.00000 M2.00000,153.00000 L2.00000,152.00000 M2.00000,153.00000 L2.00000,154.00000 M2.00000,154.00000 L2.00000,153.00000 M2.00000,154.00000 L2.00000,155.00000 M2.00000,155.00000 L2.00000,154.00000 M2.00000,155.00000 L2.00000,156.00000 M2.00000,156.00000 L2.00000,155.00000 M2.00000,156.00000 L2.00000,157.00000 M2.00000,157.00000 L2.00000,156.00000 M2.00000,157.00000 L2.00000,158.00000 M2.00000,158.00000 L2.00000,157.00000 M2.00000,158.00000 L2.00000,159.00000 M2.00000,159.00000 L2.00000,158.00000 M2.00000,159.00000 L2.00000,160.00000 M2.00000,160.00000 L2.00000,159.00000 M2.00000,160.00000 L2.00000,161.00000 M2.00000,161.00000 L2.00000,160.00000 M2.00000,161.00000 L3.00000,161.94746 M2.00000,162.00000 L2.00000,161.00000 M2.00000,163.00000 L2.00000,162.00000 M2.00000,164.00000 L2.00000,163.00000 M2.00000,165.00000 L2.00000,164.00000 M2.00000,166.00000 L2.00000,165.00000 M2.00000,167.00000 L2.00000,166.00000 M2.00000,168.00000 L2.00000,167.00000 M2.00000,169.00000 L2.00000,168.00000 M2.00000,170.00000 L2.00000,169.00000 M2.00000,171.00000 L2.00000,170.00000 M2.00000,172.00000 L2.00000,171.00000 M2.00000,173.00000 L2.00000,172.00000 M2.00000,174.00000 L2.00000,173.00000 M2.00000,175.00000 L2.00000,174.00000 M2.00000,176.00000 L2.00000,175.00000 M2.00000,177.00000 L2.00000,176.00000 M2.00000,178.00000 L2.00000,177.00000 M2.00000,179.00000 L2.00000,178.00000 M2.00000,180.00000 L2.00000,179.00000 M2.00000,181.00000 L2.00000,180.00000 M2.00000,182.00000 L2.00000,181.00000 M2.00000,183.00000 L2.00000,182.00000 M2.00000,184.00000 L2.00000,183.00000 M2.00000,185.00000 L2.00000,184.00000 M2.00000,186.00000 L2.00000,185.00000 M2.00000,187.00000 L2.00000,186.00000 M2.00000,188.00000 L2.00000,187.00000 M2.00000,189.00000 L2.00000,188.00000 M2.00000,190.00000 L2.00000,189.00000 M2.00000,191.00000 L2.00000,190.00000 M2.00000,192.00000 L2.00000,191.00000 M2.00000,193.00000 L2.00000,192.00000 M2.00000,194.00000 L2.00000,193.00000 M2.00000,195.00000 L2.00000,194.00000 M2.00000,196.00000 L2.00000,195.00000 M2.00000,197.00000 L2.00000,196.00000 M2.00000,198.00000 L2.00000,197.00000 M2.00000,199.00000 L2.00000,198.00000 M2.00000,200.00000 L2.00000,199.00000 M2.00000,201.00000 L2.00000,200.00000 M2.00000,202.00000 L2.00000,201.00000 M2.00000,202.00000 L2.00000,202.00000 M2.00001,45.00000 L2.00001,46.00000 M2.00001,51.00000 L2.00000,52.00000 M2.00001,50.00000 L2.00001,51.00000 M2.00001,49.00000 L2.00001,50.00000 M2.00001,48.00000 L2.00001,49.00000 M2.00001,47.00000 L2.00001,48.00000 M2.00001,44.00000 L2.00001,45.00000 M2.00001,46.00000 L2.00001,47.00000 M2.00002,43.00000 L2.00001,44.00000 M3.00000,2.00000 L4.00000,2.00000 M3.00000,42.05253 L2.00002,43.00000 M3.00000,161.94746 L3.01021,162.00000 M3.00000,202.00002 L2.00000,202.00000 M3.01021,42.00000 L3.00000,42.05253 M3.01021,162.00000 L3.22509,163.00000 M3.22509,41.00000 L3.01021,42.00000 M3.22509,163.00000 L3.46150,164.00000 M3.46150,40.00000 L3.22509,41.00000 M3.46150,164.00000 L3.71971,165.00000 M3.71971,39.00000 L3.46150,40.00000 M3.71971,165.00000 L4.00000,166.00000 M4.00000,2.00000 L5.00000,2.00000 M4.00000,38.00000 L3.71971,39.00000 M4.00000,38.00000 L4.00000,38.00000 M4.00000,166.00000 L4.00000,166.00000 M4.00000,166.00000 L4.30324,167.00000 M4.00000,202.00002 L3.00000,202.00002 M4.30324,37.00000 L4.00000,38.00000 M4.30324,167.00000 L4.62937,168.00000 M4.62937,36.00000 L4.30324,37.00000 M4.62937,168.00000 L4.97875,169.00000 M4.97875,35.00000 L4.62937,36.00000 M4.97875,169.00000 L5.00000,169.05733 M5.00000,2.00000 L6.00000,2.00000 M5.00000,34.94267 L4.97875,35.00000 M5.00000,169.05733 L5.35270,170.00000 M5.00000,202.00002 L4.00000,202.00002 M5.35270,34.00000 L5.00000,34.94267 M5.35270,170.00000 L5.75097,171.00000 M5.75097,33.00000 L5.35270,34.00000 M5.75097,171.00000 L6.00000,171.59068 M6.00000,2.00000 L7.00000,2.00000 M6.00000,32.40931 L5.75097,33.00000 M6.00000,171.59068 L6.17450,172.00000 M6.00000,202.00000 L5.00000,202.00002 M6.17450,32.00000 L6.00000,32.40931 M6.17450,172.00000 L6.62425,173.00000 M6.62425,31.00000 L6.17450,32.00000 M6.62425,173.00000 L7.00000,173.79141 M7.00000,2.00000 L8.00000,2.00000 M7.00000,30.20859 L6.62425,31.00000 M7.00000,173.79141 L7.10031,174.00000 M7.00000,202.00000 L6.00000,202.00000 M7.10031,30.00000 L7.00000,30.20859 M7.10031,174.00000 L7.60462,175.00000 M7.60462,29.00000 L7.10031,30.00000 M7.60462,175.00000 L8.00000,175.74557 M8.00000,2.00000 L9.00000,2.00000 M8.00000,28.25443 L7.60462,29.00000 M8.00000,175.74557 L8.13689,176.00000 M8.00000,202.00000 L7.00000,202.00000 M8.13689,28.00000 L8.00000,28.25443 M8.13689,176.00000 L8.69933,177.00000 M8.69933,27.00000 L8.13689,28.00000 M8.69933,177.00000 L9.00000,177.51108 M9.00000,2.00000 L10.00000,2.00000 M9.00000,26.48892 L8.69933,27.00000 M9.00000,177.51108 L9.29235,178.00000 M9.00000,202.00000 L8.00000,202.00000 M9.29235,26.00000 L9.00000,26.48892 M9.29235,178.00000 L9.91701,179.00000 M9.91701,25.00000 L9.29235,26.00000 M9.91701,179.00000 L10.00000,179.12788 M10.00000,2.00000 L11.00000,2.00000 M10.00000,24.87212 L9.91701,25.00000 M10.00000,179.12788 L10.57629,180.00000 M10.00000,202.00000 L9.00000,202.00000 M10.57629,24.00000 L10.00000,24.87212 M10.57629,180.00000 L11.00000,180.61539 M11.00000,2.00000 L12.00000,2.00000 M11.00000,23.38461 L10.57629,24.00000 M11.00000,180.61539 L11.27000,181.00000 M11.00000,202.00000 L10.00000,202.00000 M11.27000,23.00000 L11.00000,23.38461 M11.27000,181.00000 L12.00000,182.00000 M12.00000,2.00000 L13.00000,2.00000 M12.00000,22.00000 L11.27000,23.00000 M12.00000,22.00000 L12.00000,22.00000 M12.00000,182.00000 L12.00000,182.00000 M12.00000,182.00000 L12.77077,183.00000 M12.00000,202.00002 L11.00000,202.00000 M12.77077,21.00000 L12.00000,22.00000 M12.77077,183.00000 L13.00000,183.28700 M13.00000,2.00000 L14.00000,2.00000 M13.00000,20.71301 L12.77077,21.00000 M13.00000,183.28700 L13.58255,184.00000 M13.00000,202.00002 L12.00000,202.00002 M13.58255,20.00000 L13.00000,20.71301 M13.58255,184.00000 L14.00000,184.49393 M14.00000,2.00000 L15.00000,2.00000 M14.00000,19.50607 L13.58255,20.00000 M14.00000,184.49393 L14.43815,185.00000 M14.00000,202.00002 L13.00000,202.00002 M14.43815,19.00000 L14.00000,19.50607 M14.43815,185.00000 L15.00000,185.62843 M15.00000,2.00000 L16.00000,2.00000 M15.00000,18.37156 L14.43815,19.00000 M15.00000,185.62843 L15.34082,186.00000 M15.00000,202.00002 L14.00000,202.00002 M15.34082,18.00000 L15.00000,18.37156 M15.34082,186.00000 L16.00000,186.69711 M16.00000,2.00000 L17.00000,2.00000 M16.00000,17.30288 L15.34082,18.00000 M16.00000,186.69711 L16.29429,187.00000 M16.00000,202.00002 L15.00000,202.00002 M16.29429,17.00000 L16.00000,17.30288 M16.29429,187.00000 L17.00000,187.70570 M17.00000,2.00000 L18.00000,2.00000 M17.00000,16.29429 L16.29429,17.00000 M17.00000,187.70570 L17.30288,188.00000 M17.00000,202.00002 L16.00000,202.00002 M17.30288,16.00000 L17.00000,16.29429 M17.30288,188.00000 L18.00000,188.65918 M18.00000,2.00000 L19.00000,2.00000 M18.00000,15.34082 L17.30288,16.00000 M18.00000,188.65918 L18.37156,189.00000 M18.00000,202.00000 L17.00000,202.00002 M18.37156,15.00000 L18.00000,15.34082 M18.37156,189.00000 L19.00000,189.56184 M19.00000,2.00000 L20.00000,2.00000 M19.00000,14.43815 L18.37156,15.00000 M19.00000,189.56184 L19.50607,190.00000 M19.00000,202.00000 L18.00000,202.00000 M19.50607,14.00000 L19.00000,14.43815 M19.50607,190.00000 L20.00000,190.41745 M20.00000,2.00000 L21.00000,2.00000 M20.00000,13.58255 L19.50607,14.00000 M20.00000,190.41745 L20.71301,191.00000 M20.00000,202.00000 L19.00000,202.00000 M20.71301,13.00000 L20.00000,13.58255 M20.71301,191.00000 L21.00000,191.22923 M21.00000,2.00000 L22.00000,2.00000 M21.00000,12.77077 L20.71301,13.00000 M21.00000,191.22923 L22.00000,192.00000 M21.00000,202.00000 L20.00000,202.00000 M22.00000,2.00000 L23.00000,2.00000 M22.00000,12.00000 L21.00000,12.77077 M22.00000,12.00000 L22.00000,12.00000 M22.00000,192.00000 L22.00000,192.00000 M22.00000,192.00000 L23.00000,192.73001 M22.00000,202.00000 L21.00000,202.00000 M23.00000,2.00000 L24.00000,2.00000 M23.00000,11.27000 L22.00000,12.00000 M23.00000,192.73001 L23.38461,193.00000 M23.00000,202.00000 L22.00000,202.00000 M23.38461,11.00000 L23.00000,11.27000 M23.38461,193.00000 L24.00000,193.42371 M24.00000,2.00000 L25.00000,2.00000 M24.00000,10.57629 L23.38461,11.00000 M24.00000,193.42371 L24.87212,194.00000 M24.00000,202.00000 L23.00000,202.00000 M24.87212,10.00000 L24.00000,10.57629 M24.87212,194.00000 L25.00000,194.08299 M25.00000,2.00000 L26.00000,2.00000 M25.00000,9.91701 L24.87212,10.00000 M25.00000,194.08299 L26.00000,194.70766 M25.00000,202.00002 L24.00000,202.00000 M26.00000,2.00000 L27.00000,2.00000 M26.00000,9.29235 L25.00000,9.91701 M26.00000,194.70766 L26.48892,195.00000 M26.00000,202.00002 L25.00000,202.00002 M26.48892,9.00000 L26.00000,9.29235 M26.48892,195.00000 L27.00000,195.30067 M27.00000,2.00000 L28.00000,2.00000 M27.00000,8.69933 L26.48892,9.00000 M27.00000,195.30067 L28.00000,195.86311 M27.00000,202.00002 L26.00000,202.00002 M28.00000,2.00000 L29.00000,2.00000 M28.00000,8.13689 L27.00000,8.69933 M28.00000,195.86311 L28.25443,196.00000 M28.00000,202.00002 L27.00000,202.00002 M28.25443,8.00000 L28.00000,8.13689 M28.25443,196.00000 L29.00000,196.39537 M29.00000,2.00000 L30.00000,2.00000 M29.00000,7.60462 L28.25443,8.00000 M29.00000,196.39537 L30.00000,196.89969 M29.00000,202.00002 L28.00000,202.00002 M30.00000,2.00000 L31.00000,2.00000 M30.00000,7.10031 L29.00000,7.60462 M30.00000,196.89969 L30.20859,197.00000 M30.00000,202.00000 L29.00000,202.00002 M30.20859,7.00000 L30.00000,7.10031 M30.20859,197.00000 L31.00000,197.37575 M31.00000,2.00000 L32.00000,2.00000 M31.00000,6.62425 L30.20859,7.00000 M31.00000,197.37575 L32.00000,197.82550 M31.00000,202.00000 L30.00000,202.00000 M32.00000,2.00000 L33.00000,2.00000 M32.00000,6.17450 L31.00000,6.62425 M32.00000,197.82550 L32.40931,198.00000 M32.00000,202.00000 L31.00000,202.00000 M32.40931,6.00000 L32.00000,6.17450 M32.40931,198.00000 L33.00000,198.24904 M33.00000,2.00000 L34.00000,2.00000 M33.00000,5.75097 L32.40931,6.00000 M33.00000,198.24904 L34.00000,198.64729 M33.00000,202.00000 L32.00000,202.00000 M34.00000,2.00000 L35.00000,2.00000 M34.00000,5.35270 L33.00000,5.75097 M34.00000,198.64729 L34.94267,199.00000 M34.00000,202.00000 L33.00000,202.00000 M34.94267,5.00000 L34.00000,5.35270 M34.94267,199.00000 L35.00000,199.02124 M35.00000,2.00000 L36.00000,2.00000 M35.00000,4.97875 L34.94267,5.00000 M35.00000,199.02124 L36.00000,199.37062 M35.00000,202.00000 L34.00000,202.00000 M36.00000,2.00000 L37.00000,2.00000 M36.00000,4.62937 L35.00000,4.97875 M36.00000,199.37062 L37.00000,199.69676 M36.00000,202.00000 L35.00000,202.00000 M37.00000,2.00000 L38.00000,2.00000 M37.00000,4.30324 L36.00000,4.62937 M37.00000,199.69676 L38.00000,200.00000 M37.00000,202.00000 L36.00000,202.00000 M38.00000,2.00000 L39.00000,2.00000 M38.00000,4.00000 L37.00000,4.30324 M38.00000,4.00000 L38.00000,4.00000 M38.00000,200.00000 L38.00000,200.00000 M38.00000,200.00000 L39.00000,200.28029 M38.00000,202.00002 L37.00000,202.00000 M39.00000,2.00000 L40.00000,2.00000 M39.00000,3.71971 L38.00000,4.00000 M39.00000,200.28029 L40.00000,200.53850 M39.00000,202.00002 L38.00000,202.00002 M40.00000,2.00000 L41.00000,2.00000 M40.00000,3.46150 L39.00000,3.71971 M40.00000,200.53850 L41.00000,200.77490 M40.00000,202.00002 L39.00000,202.00002 M41.00000,2.00000 L42.00000,2.00000 M41.00000,3.22509 L40.00000,3.46150 M41.00000,200.77490 L42.00000,200.98979 M41.00000,202.00002 L40.00000,202.00002 M42.00000,2.00000 L43.00000,2.00000 M42.00000,3.01021 L41.00000,3.22509 M42.00000,200.98979 L42.05253,201.00000 M42.00000,202.00000 L41.00000,202.00002 M42.05253,3.00000 L42.00000,3.01021 M42.05253,201.00000 L43.00000,201.99998 M43.00000,2.00000 L44.00000,2.00000 M43.00000,2.00002 L42.05253,3.00000 M43.00000,201.99998 L44.00000,201.99998 M43.00000,202.00000 L42.00000,202.00000 M44.00000,2.00000 L43.00000,2.00002 M44.00000,2.00000 L45.00000,2.00000 M44.00000,201.99998 L45.00000,202.00000 M44.00000,202.00000 L43.00000,202.00000 M45.00000,2.00000 L44.00000,2.00000 M45.00000,2.00000 L46.00000,2.00000 M45.00000,202.00000 L44.00000,202.00000 M45.00000,202.00000 L46.00000,201.99998 M46.00000,2.00000 L45.00000,2.00000 M46.00000,2.00000 L47.00000,2.00000 M46.00000,201.99998 L47.00000,201.99998 M46.00000,202.00000 L45.00000,202.00000 M47.00000,2.00000 L46.00000,2.00000 M47.00000,2.00000 L48.00000,2.00000 M47.00000,201.99998 L48.00000,201.99998 M47.00000,202.00000 L46.00000,202.00000 M48.00000,2.00000 L47.00000,2.00000 M48.00000,2.00000 L49.00000,2.00000 M48.00000,201.99998 L49.00000,201.99998 M48.00000,202.00000 L47.00000,202.00000 M49.00000,2.00000 L48.00000,2.00000 M49.00000,2.00000 L50.00000,2.00000 M49.00000,201.99998 L50.00000,201.99998 M49.00000,202.00000 L48.00000,202.00000 M50.00000,2.00000 L49.00000,2.00000 M50.00000,2.00000 L51.00000,2.00000 M50.00000,201.99998 L51.00000,201.99998 M50.00000,202.00000 L49.00000,202.00000 M51.00000,2.00000 L50.00000,2.00000 M51.00000,2.00000 L52.00000,2.00000 M51.00000,201.99998 L52.00000,202.00000 M51.00000,202.00000 L50.00000,202.00000 M52.00000,2.00000 L51.00000,2.00000 M52.00000,2.00000 L53.00000,2.00000 M52.00000,202.00000 L51.00000,202.00000 M52.00000,202.00000 L53.00000,202.00000 M53.00000,2.00000 L52.00000,2.00000 M53.00000,2.00000 L54.00000,2.00000 M53.00000,202.00000 L52.00000,202.00000 M53.00000,202.00000 L54.00000,202.00000 M54.00000,2.00000 L53.00000,2.00000 M54.00000,2.00000 L55.00000,2.00000 M54.00000,202.00000 L53.00000,202.00000 M54.00000,202.00000 L55.00000,202.00000 M55.00000,2.00000 L54.00000,2.00000 M55.00000,2.00000 L56.00000,2.00000 M55.00000,202.00000 L54.00000,202.00000 M55.00000,202.00000 L56.00000,202.00000 M56.00000,2.00000 L55.00000,2.00000 M56.00000,2.00000 L57.00000,2.00000 M56.00000,202.00000 L55.00000,202.00000 M56.00000,202.00000 L57.00000,202.00000 M57.00000,2.00000 L56.00000,2.00000 M57.00000,2.00000 L58.00000,2.00000 M57.00000,202.00000 L56.00000,202.00000 M57.00000,202.00000 L58.00000,202.00000 M58.00000,2.00000 L57.00000,2.00000 M58.00000,2.00000 L59.00000,2.00000 M58.00000,202.00000 L57.00000,202.00000 M58.00000,202.00000 L59.00000,202.00000 M59.00000,2.00000 L58.00000,2.00000 M59.00000,2.00000 L60.00000,2.00000 M59.00000,202.00000 L58.00000,202.00000 M59.00000,202.00000 L60.00000,202.00000 M60.00000,2.00000 L59.00000,2.00000 M60.00000,2.00000 L61.00000,2.00000 M60.00000,202.00000 L59.00000,202.00000 M60.00000,202.00000 L61.00000,202.00000 M61.00000,2.00000 L60.00000,2.00000 M61.00000,2.00000 L62.00000,2.00000 M61.00000,202.00000 L60.00000,202.00000 M61.00000,202.00000 L62.00000,202.00000 M62.00000,2.00000 L61.00000,2.00000 M62.00000,2.00000 L63.00000,2.00000 M62.00000,202.00000 L61.00000,202.00000 M62.00000,202.00000 L63.00000,202.00000 M63.00000,2.00000 L62.00000,2.00000 M63.00000,2.00000 L64.00000,2.00000 M63.00000,202.00000 L62.00000,202.00000 M63.00000,202.00000 L64.00000,202.00000 M64.00000,2.00000 L63.00000,2.00000 M64.00000,2.00000 L65.00000,2.00000 M64.00000,202.00000 L63.00000,202.00000 M64.00000,202.00000 L65.00000,202.00000 M65.00000,2.00000 L64.00000,2.00000 M65.00000,2.00000 L66.00000,2.00000 M65.00000,202.00000 L64.00000,202.00000 M65.00000,202.00000 L66.00000,202.00000 M66.00000,2.00000 L65.00000,2.00000 M66.00000,2.00000 L67.00000,2.00000 M66.00000,202.00000 L65.00000,202.00000 M66.00000,202.00000 L67.00000,202.00000 M67.00000,2.00000 L66.00000,2.00000 M67.00000,2.00000 L68.00000,2.00000 M67.00000,202.00000 L66.00000,202.00000 M67.00000,202.00000 L68.00000,202.00000 M68.00000,2.00000 L67.00000,2.00000 M68.00000,2.00000 L69.00000,2.00000 M68.00000,202.00000 L67.00000,202.00000 M68.00000,202.00000 L69.00000,202.00000 M69.00000,2.00000 L68.00000,2.00000 M69.00000,2.00000 L70.00000,2.00000 M69.00000,202.00000 L68.00000,202.00000 M69.00000,202.00000 L70.00000,202.00000 M70.00000,2.00000 L69.00000,2.00000 M70.00000,2.00000 L71.00000,2.00000 M70.00000,202.00000 L69.00000,202.00000 M70.00000,202.00000 L71.00000,202.00000 M71.00000,2.00000 L70.00000,2.00000 M71.00000,2.00000 L72.00000,2.00000 M71.00000,202.00000 L70.00000,202.00000 M71.00000,202.00000 L72.00000,202.00000 M72.00000,2.00000 L71.00000,2.00000 M72.00000,2.00000 L73.00000,2.00000 M72.00000,202.00000 L71.00000,202.00000 M72.00000,202.00000 L73.00000,202.00000 M73.00000,2.00000 L72.00000,2.00000 M73.00000,2.00000 L74.00000,2.00000 M73.00000,202.00000 L72.00000,202.00000 M73.00000,202.00000 L74.00000,202.00000 M74.00000,2.00000 L73.00000,2.00000 M74.00000,2.00000 L75.00000,2.00000 M74.00000,202.00000 L73.00000,202.00000 M74.00000,202.00000 L75.00000,202.00000 M75.00000,2.00000 L74.00000,2.00000 M75.00000,2.00000 L76.00000,2.00000 M75.00000,202.00000 L74.00000,202.00000 M75.00000,202.00000 L76.00000,202.00000 M76.00000,2.00000 L75.00000,2.00000 M76.00000,2.00000 L77.00000,2.00000 M76.00000,202.00000 L75.00000,202.00000 M76.00000,202.00000 L77.00000,202.00000 M77.00000,2.00000 L76.00000,2.00000 M77.00000,2.00000 L78.00000,2.00000 M77.00000,202.00000 L76.00000,202.00000 M77.00000,202.00000 L78.00000,202.00000 M78.00000,2.00000 L77.00000,2.00000 M78.00000,2.00000 L79.00000,2.00000 M78.00000,202.00000 L77.00000,202.00000 M78.00000,202.00000 L79.00000,202.00000 M79.00000,2.00000 L78.00000,2.00000 M79.00000,2.00000 L80.00000,2.00000 M79.00000,202.00000 L78.00000,202.00000 M79.00000,202.00000 L80.00000,202.00000 M80.00000,2.00000 L79.00000,2.00000 M80.00000,2.00000 L81.00000,2.00000 M80.00000,202.00000 L79.00000,202.00000 M80.00000,202.00000 L81.00000,202.00000 M81.00000,2.00000 L80.00000,2.00000 M81.00000,2.00000 L82.00000,2.00000 M81.00000,202.00000 L80.00000,202.00000 M81.00000,202.00000 L82.00000,202.00000 M82.00000,2.00000 L81.00000,2.00000 M82.00000,2.00000 L83.00000,2.00000 M82.00000,202.00000 L81.00000,202.00000 M82.00000,202.00000 L83.00000,202.00000 M83.00000,2.00000 L82.00000,2.00000 M83.00000,2.00000 L84.00000,2.00000 M83.00000,202.00000 L82.00000,202.00000 M83.00000,202.00000 L84.00000,202.00000 M84.00000,2.00000 L83.00000,2.00000 M84.00000,2.00000 L85.00000,2.00000 M84.00000,202.00000 L83.00000,202.00000 M84.00000,202.00000 L85.00000,202.00000 M85.00000,2.00000 L84.00000,2.00000 M85.00000,2.00000 L86.00000,2.00000 M85.00000,202.00000 L84.00000,202.00000 M85.00000,202.00000 L86.00000,202.00000 M86.00000,2.00000 L85.00000,2.00000 M86.00000,2.00000 L87.00000,2.00000 M86.00000,202.00000 L85.00000,202.00000 M86.00000,202.00000 L87.00000,202.00000 M87.00000,2.00000 L86.00000,2.00000 M87.00000,2.00000 L88.00000,2.00000 M87.00000,202.00000 L86.00000,202.00000 M87.00000,202.00000 L88.00000,202.00000 M88.00000,2.00000 L87.00000,2.00000 M88.00000,2.00000 L89.00000,2.00000 M88.00000,202.00000 L87.00000,202.00000 M88.00000,202.00000 L89.00000,202.00000 M89.00000,2.00000 L88.00000,2.00000 M89.00000,2.00000 L90.00000,2.00000 M89.00000,202.00000 L88.00000,202.00000 M89.00000,202.00000 L90.00000,202.00000 M90.00000,2.00000 L89.00000,2.00000 M90.00000,2.00000 L91.00000,2.00000 M90.00000,202.00000 L89.00000,202.00000 M90.00000,202.00000 L91.00000,202.00000 M91.00000,2.00000 L90.00000,2.00000 M91.00000,2.00000 L92.00000,2.00000 M91.00000,202.00000 L90.00000,202.00000 M91.00000,202.00000 L92.00000,202.00000 M92.00000,2.00000 L91.00000,2.00000 M92.00000,2.00000 L93.00000,2.00000 M92.00000,202.00000 L91.00000,202.00000 M92.00000,202.00000 L93.00000,202.00000 M93.00000,2.00000 L92.00000,2.00000 M93.00000,2.00000 L94.00000,2.00000 M93.00000,202.00000 L92.00000,202.00000 M93.00000,202.00000 L94.00000,202.00000 M94.00000,2.00000 L93.00000,2.00000 M94.00000,2.00000 L95.00000,2.00000 M94.00000,202.00000 L93.00000,202.00000 M94.00000,202.00000 L95.00000,202.00000 M95.00000,2.00000 L94.00000,2.00000 M95.00000,2.00000 L96.00000,2.00000 M95.00000,202.00000 L94.00000,202.00000 M95.00000,202.00000 L96.00000,202.00000 M96.00000,2.00000 L95.00000,2.00000 M96.00000,2.00000 L97.00000,2.00000 M96.00000,202.00000 L95.00000,202.00000 M96.00000,202.00000 L97.00000,202.00000 M97.00000,2.00000 L96.00000,2.00000 M97.00000,2.00000 L98.00000,2.00000 M97.00000,202.00000 L96.00000,202.00000 M97.00000,202.00000 L98.00000,202.00000 M98.00000,2.00000 L97.00000,2.00000 M98.00000,2.00000 L99.00000,2.00000 M98.00000,202.00000 L97.00000,202.00000 M98.00000,202.00000 L99.00000,202.00000 M99.00000,2.00000 L98.00000,2.00000 M99.00000,2.00000 L100.00000,2.00000 M99.00000,202.00000 L98.00000,202.00000 M99.00000,202.00000 L100.00000,202.00000 M100.00000,2.00000 L99.00000,2.00000 M100.00000,2.00000 L101.00000,2.00000 M100.00000,202.00000 L99.00000,202.00000 M100.00000,202.00000 L101.00000,202.00000 M101.00000,2.00000 L100.00000,2.00000 M101.00000,2.00000 L102.00000,2.00000 M101.00000,202.00000 L100.00000,202.00000 M101.00000,202.00000 L102.00000,202.00000 M102.00000,2.00000 L101.00000,2.00000 M102.00000,2.00000 L103.00000,2.00000 M102.00000,202.00000 L101.00000,202.00000 M102.00000,202.00000 L103.00000,202.00000 M103.00000,2.00000 L102.00000,2.00000 M103.00000,2.00000 L104.00000,2.00000 M103.00000,202.00000 L102.00000,202.00000 M103.00000,202.00000 L104.00000,202.00000 M104.00000,2.00000 L103.00000,2.00000 M104.00000,2.00000 L105.00000,2.00000 M104.00000,202.00000 L103.00000,202.00000 M104.00000,202.00000 L105.00000,202.00000 M105.00000,2.00000 L104.00000,2.00000 M105.00000,2.00000 L106.00000,2.00000 M105.00000,202.00000 L104.00000,202.00000 M105.00000,202.00000 L106.00000,202.00000 M106.00000,2.00000 L105.00000,2.00000 M106.00000,2.00000 L107.00000,2.00000 M106.00000,202.00000 L105.00000,202.00000 M106.00000,202.00000 L107.00000,202.00000 M107.00000,2.00000 L106.00000,2.00000 M107.00000,2.00000 L108.00000,2.00000 M107.00000,202.00000 L106.00000,202.00000 M107.00000,202.00000 L108.00000,202.00000 M108.00000,2.00000 L107.00000,2.00000 M108.00000,2.00000 L109.00000,2.00000 M108.00000,202.00000 L107.00000,202.00000 M108.00000,202.00000 L109.00000,202.00000 M109.00000,2.00000 L108.00000,2.00000 M109.00000,2.00000 L110.00000,2.00000 M109.00000,202.00000 L108.00000,202.00000 M109.00000,202.00000 L110.00000,202.00000 M110.00000,2.00000 L109.00000,2.00000 M110.00000,2.00000 L111.00000,2.00000 M110.00000,202.00000 L109.00000,202.00000 M110.00000,202.00000 L111.00000,202.00000 M111.00000,2.00000 L110.00000,2.00000 M111.00000,2.00000 L112.00000,2.00000 M111.00000,202.00000 L110.00000,202.00000 M111.00000,202.00000 L112.00000,202.00000 M112.00000,2.00000 L111.00000,2.00000 M112.00000,2.00000 L113.00000,2.00000 M112.00000,202.00000 L111.00000,202.00000 M112.00000,202.00000 L113.00000,202.00000 M113.00000,2.00000 L112.00000,2.00000 M113.00000,2.00000 L114.00000,2.00000 M113.00000,202.00000 L112.00000,202.00000 M113.00000,202.00000 L114.00000,202.00000 M114.00000,2.00000 L113.00000,2.00000 M114.00000,2.00000 L115.00000,2.00000 M114.00000,202.00000 L113.00000,202.00000 M114.00000,202.00000 L115.00000,202.00000 M115.00000,2.00000 L114.00000,2.00000 M115.00000,2.00000 L116.00000,2.00000 M115.00000,202.00000 L114.00000,202.00000 M115.00000,202.00000 L116.00000,202.00000 M116.00000,2.00000 L115.00000,2.00000 M116.00000,2.00000 L117.00000,2.00000 M116.00000,202.00000 L115.00000,202.00000 M116.00000,202.00000 L117.00000,202.00000 M117.00000,2.00000 L116.00000,2.00000 M117.00000,2.00000 L118.00000,2.00000 M117.00000,202.00000 L116.00000,202.00000 M117.00000,202.00000 L118.00000,202.00000 M118.00000,2.00000 L117.00000,2.00000 M118.00000,2.00000 L119.00000,2.00000 M118.00000,202.00000 L117.00000,202.00000 M118.00000,202.00000 L119.00000,202.00000 M119.00000,2.00000 L118.00000,2.00000 M119.00000,2.00000 L120.00000,2.00000 M119.00000,202.00000 L118.00000,202.00000 M119.00000,202.00000 L120.00000,202.00000 M120.00000,2.00000 L119.00000,2.00000 M120.00000,2.00000 L121.00000,2.00000 M120.00000,202.00000 L119.00000,202.00000 M120.00000,202.00000 L121.00000,202.00000 M121.00000,2.00000 L120.00000,2.00000 M121.00000,2.00000 L122.00000,2.00000 M121.00000,202.00000 L120.00000,202.00000 M121.00000,202.00000 L122.00000,202.00000 M122.00000,2.00000 L121.00000,2.00000 M122.00000,2.00000 L123.00000,2.00000 M122.00000,202.00000 L121.00000,202.00000 M122.00000,202.00000 L123.00000,202.00000 M123.00000,2.00000 L122.00000,2.00000 M123.00000,2.00000 L124.00000,2.00000 M123.00000,202.00000 L122.00000,202.00000 M123.00000,202.00000 L124.00000,202.00000 M124.00000,2.00000 L123.00000,2.00000 M124.00000,2.00000 L125.00000,2.00000 M124.00000,202.00000 L123.00000,202.00000 M124.00000,202.00000 L125.00000,202.00000 M125.00000,2.00000 L124.00000,2.00000 M125.00000,2.00000 L126.00000,2.00000 M125.00000,202.00000 L124.00000,202.00000 M125.00000,202.00000 L126.00000,202.00000 M126.00000,2.00000 L125.00000,2.00000 M126.00000,2.00000 L127.00000,2.00000 M126.00000,202.00000 L125.00000,202.00000 M126.00000,202.00000 L127.00000,202.00000 M127.00000,2.00000 L126.00000,2.00000 M127.00000,2.00000 L128.00000,2.00000 M127.00000,202.00000 L126.00000,202.00000 M127.00000,202.00000 L128.00000,202.00000 M128.00000,2.00000 L127.00000,2.00000 M128.00000,2.00000 L129.00000,2.00000 M128.00000,202.00000 L127.00000,202.00000 M128.00000,202.00000 L129.00000,202.00000 M129.00000,2.00000 L128.00000,2.00000 M129.00000,2.00000 L130.00000,2.00000 M129.00000,202.00000 L128.00000,202.00000 M129.00000,202.00000 L130.00000,202.00000 M130.00000,2.00000 L129.00000,2.00000 M130.00000,2.00000 L131.00000,2.00000 M130.00000,202.00000 L129.00000,202.00000 M130.00000,202.00000 L131.00000,202.00000 M131.00000,2.00000 L130.00000,2.00000 M131.00000,2.00000 L132.00000,2.00000 M131.00000,202.00000 L130.00000,202.00000 M131.00000,202.00000 L132.00000,202.00000 M132.00000,2.00000 L131.00000,2.00000 M132.00000,2.00000 L133.00000,2.00000 M132.00000,202.00000 L131.00000,202.00000 M132.00000,202.00000 L133.00000,202.00000 M133.00000,2.00000 L132.00000,2.00000 M133.00000,2.00000 L134.00000,2.00000 M133.00000,202.00000 L132.00000,202.00000 M133.00000,202.00000 L134.00000,202.00000 M134.00000,2.00000 L133.00000,2.00000 M134.00000,2.00000 L135.00000,2.00000 M134.00000,202.00000 L133.00000,202.00000 M134.00000,202.00000 L135.00000,202.00000 M135.00000,2.00000 L134.00000,2.00000 M135.00000,2.00000 L136.00000,2.00000 M135.00000,202.00000 L134.00000,202.00000 M135.00000,202.00000 L136.00000,202.00000 M136.00000,2.00000 L135.00000,2.00000 M136.00000,2.00000 L137.00000,2.00000 M136.00000,202.00000 L135.00000,202.00000 M136.00000,202.00000 L137.00000,202.00000 M137.00000,2.00000 L136.00000,2.00000 M137.00000,2.00000 L138.00000,2.00000 M137.00000,202.00000 L136.00000,202.00000 M137.00000,202.00000 L138.00000,202.00000 M138.00000,2.00000 L137.00000,2.00000 M138.00000,2.00000 L139.00000,2.00000 M138.00000,202.00000 L137.00000,202.00000 M138.00000,202.00000 L139.00000,202.00000 M139.00000,2.00000 L138.00000,2.00000 M139.00000,2.00000 L140.00000,2.00000 M139.00000,202.00000 L138.00000,202.00000 M139.00000,202.00000 L140.00000,202.00000 M140.00000,2.00000 L139.00000,2.00000 M140.00000,2.00000 L141.00000,2.00000 M140.00000,202.00000 L139.00000,202.00000 M140.00000,202.00000 L141.00000,202.00000 M141.00000,2.00000 L140.00000,2.00000 M141.00000,2.00000 L142.00000,2.00000 M141.00000,202.00000 L140.00000,202.00000 M141.00000,202.00000 L142.00000,202.00000 M142.00000,2.00000 L141.00000,2.00000 M142.00000,2.00000 L143.00000,2.00000 M142.00000,202.00000 L141.00000,202.00000 M142.00000,202.00000 L143.00000,202.00000 M143.00000,2.00000 L142.00000,2.00000 M143.00000,2.00000 L144.00000,2.00000 M143.00000,202.00000 L142.00000,202.00000 M143.00000,202.00000 L144.00000,202.00000 M144.00000,2.00000 L143.00000,2.00000 M144.00000,2.00000 L145.00000,2.00000 M144.00000,202.00000 L143.00000,202.00000 M144.00000,202.00000 L145.00000,202.00000 M145.00000,2.00000 L144.00000,2.00000 M145.00000,2.00000 L146.00000,2.00000 M145.00000,202.00000 L144.00000,202.00000 M145.00000,202.00000 L146.00000,202.00000 M146.00000,2.00000 L145.00000,2.00000 M146.00000,2.00000 L147.00000,2.00000 M146.00000,202.00000 L145.00000,202.00000 M146.00000,202.00000 L147.00000,202.00000 M147.00000,2.00000 L146.00000,2.00000 M147.00000,2.00000 L148.00000,2.00000 M147.00000,202.00000 L146.00000,202.00000 M147.00000,202.00000 L148.00000,202.00000 M148.00000,2.00000 L147.00000,2.00000 M148.00000,2.00000 L149.00000,2.00000 M148.00000,202.00000 L147.00000,202.00000 M148.00000,202.00000 L149.00000,202.00000 M149.00000,2.00000 L148.00000,2.00000 M149.00000,2.00000 L150.00000,2.00000 M149.00000,202.00000 L148.00000,202.00000 M149.00000,202.00000 L150.00000,202.00000 M150.00000,2.00000 L149.00000,2.00000 M150.00000,2.00000 L151.00000,2.00000 M150.00000,202.00000 L149.00000,202.00000 M150.00000,202.00000 L151.00000,202.00000 M151.00000,2.00000 L150.00000,2.00000 M151.00000,2.00000 L152.00000,2.00000 M151.00000,202.00000 L150.00000,202.00000 M151.00000,202.00000 L152.00000,202.00000 M152.00000,2.00000 L151.00000,2.00000 M152.00000,2.00000 L153.00000,1.99998 M152.00000,202.00000 L151.00000,202.00000 M152.00000,202.00000 L153.00000,202.00000 M153.00000,1.99998 L154.00000,1.99998 M153.00000,2.00002 L152.00000,2.00000 M153.00000,202.00000 L152.00000,202.00000 M153.00000,202.00000 L154.00000,202.00000 M154.00000,1.99998 L155.00000,1.99998 M154.00000,2.00002 L153.00000,2.00002 M154.00000,202.00000 L153.00000,202.00000 M154.00000,202.00000 L155.00000,202.00000 M155.00000,1.99998 L156.00000,1.99998 M155.00000,2.00002 L154.00000,2.00002 M155.00000,202.00000 L154.00000,202.00000 M155.00000,202.00000 L156.00000,202.00000 M156.00000,1.99998 L157.00000,2.00000 M156.00000,2.00002 L155.00000,2.00002 M156.00000,202.00000 L155.00000,202.00000 M156.00000,202.00000 L157.00000,202.00000 M157.00000,2.00000 L156.00000,2.00002 M157.00000,2.00000 L158.00000,2.00000 M157.00000,202.00000 L156.00000,202.00000 M157.00000,202.00000 L158.00000,202.00000 M158.00000,2.00000 L157.00000,2.00000 M158.00000,2.00000 L159.00000,2.00000 M158.00000,202.00000 L157.00000,202.00000 M158.00000,202.00000 L159.00000,202.00000 M159.00000,2.00000 L158.00000,2.00000 M159.00000,2.00000 L160.00000,2.00000 M159.00000,202.00000 L158.00000,202.00000 M159.00000,202.00000 L160.00000,202.00000 M160.00000,2.00000 L159.00000,2.00000 M160.00000,2.00000 L161.00000,2.00000 M160.00000,202.00000 L159.00000,202.00000 M160.00000,202.00000 L161.00000,202.00000 M161.00000,2.00000 L160.00000,2.00000 M161.00000,2.00000 L162.00000,2.00000 M161.00000,202.00000 L160.00000,202.00000 M161.00000,202.00000 L161.94746,201.00000 M161.94746,3.00000 L161.00000,2.00000 M161.94746,201.00000 L162.00000,200.98979 M162.00000,2.00000 L163.00000,1.99998 M162.00000,3.01021 L161.94746,3.00000 M162.00000,200.98979 L163.00000,200.77490 M162.00000,202.00000 L161.00000,202.00000 M163.00000,1.99998 L164.00000,1.99998 M163.00000,3.22509 L162.00000,3.01021 M163.00000,200.77490 L164.00000,200.53850 M163.00000,202.00000 L162.00000,202.00000 M164.00000,1.99998 L165.00000,1.99998 M164.00000,3.46150 L163.00000,3.22509 M164.00000,200.53850 L165.00000,200.28029 M164.00000,202.00000 L163.00000,202.00000 M165.00000,1.99998 L166.00000,1.99998 M165.00000,3.71971 L164.00000,3.46150 M165.00000,200.28029 L166.00000,200.00000 M165.00000,202.00000 L164.00000,202.00000 M166.00000,1.99998 L167.00000,1.99998 M166.00000,4.00000 L165.00000,3.71971 M166.00000,4.00000 L166.00000,4.00000 M166.00000,200.00000 L166.00000,200.00000 M166.00000,200.00000 L167.00000,199.69676 M166.00000,202.00000 L165.00000,202.00000 M167.00000,1.99998 L168.00000,1.99998 M167.00000,4.30324 L166.00000,4.00000 M167.00000,199.69676 L168.00000,199.37062 M167.00000,202.00000 L166.00000,202.00000 M168.00000,1.99998 L169.00000,2.00000 M168.00000,4.62937 L167.00000,4.30324 M168.00000,199.37062 L169.00000,199.02124 M168.00000,202.00000 L167.00000,202.00000 M169.00000,2.00000 L170.00000,2.00000 M169.00000,4.97875 L168.00000,4.62937 M169.00000,199.02124 L169.05733,199.00000 M169.00000,202.00000 L168.00000,202.00000 M169.05733,5.00000 L169.00000,4.97875 M169.05733,199.00000 L170.00000,198.64729 M170.00000,2.00000 L171.00000,2.00000 M170.00000,5.35270 L169.05733,5.00000 M170.00000,198.64729 L171.00000,198.24904 M170.00000,202.00000 L169.00000,202.00000 M171.00000,2.00000 L172.00000,2.00000 M171.00000,5.75097 L170.00000,5.35270 M171.00000,198.24904 L171.59068,198.00000 M171.00000,202.00000 L170.00000,202.00000 M171.59068,6.00000 L171.00000,5.75097 M171.59068,198.00000 L172.00000,197.82550 M172.00000,2.00000 L173.00000,2.00000 M172.00000,6.17450 L171.59068,6.00000 M172.00000,197.82550 L173.00000,197.37575 M172.00000,202.00000 L171.00000,202.00000 M173.00000,2.00000 L174.00000,2.00000 M173.00000,6.62425 L172.00000,6.17450 M173.00000,197.37575 L173.79141,197.00000 M173.00000,202.00000 L172.00000,202.00000 M173.79141,7.00000 L173.00000,6.62425 M173.79141,197.00000 L174.00000,196.89969 M174.00000,2.00000 L175.00000,1.99998 M174.00000,7.10031 L173.79141,7.00000 M174.00000,196.89969 L175.00000,196.39537 M174.00000,202.00000 L173.00000,202.00000 M175.00000,1.99998 L176.00000,1.99998 M175.00000,7.60462 L174.00000,7.10031 M175.00000,196.39537 L175.74557,196.00000 M175.00000,202.00000 L174.00000,202.00000 M175.74557,8.00000 L175.00000,7.60462 M175.74557,196.00000 L176.00000,195.86311 M176.00000,1.99998 L177.00000,1.99998 M176.00000,8.13689 L175.74557,8.00000 M176.00000,195.86311 L177.00000,195.30067 M176.00000,202.00000 L175.00000,202.00000 M177.00000,1.99998 L178.00000,1.99998 M177.00000,8.69933 L176.00000,8.13689 M177.00000,195.30067 L177.51108,195.00000 M177.00000,202.00000 L176.00000,202.00000 M177.51108,9.00000 L177.00000,8.69933 M177.51108,195.00000 L178.00000,194.70766 M178.00000,1.99998 L179.00000,1.99998 M178.00000,9.29235 L177.51108,9.00000 M178.00000,194.70766 L179.00000,194.08299 M178.00000,202.00000 L177.00000,202.00000 M179.00000,1.99998 L180.00000,1.99998 M179.00000,9.91701 L178.00000,9.29235 M179.00000,194.08299 L179.12788,194.00000 M179.00000,202.00000 L178.00000,202.00000 M179.12788,10.00000 L179.00000,9.91701 M179.12788,194.00000 L180.00000,193.42371 M180.00000,1.99998 L181.00000,1.99998 M180.00000,10.57629 L179.12788,10.00000 M180.00000,193.42371 L180.61539,193.00000 M180.00000,202.00000 L179.00000,202.00000 M180.61539,11.00000 L180.00000,10.57629 M180.61539,193.00000 L181.00000,192.73001 M181.00000,1.99998 L182.00000,2.00000 M181.00000,11.27000 L180.61539,11.00000 M181.00000,192.73001 L182.00000,192.00000 M181.00000,202.00000 L180.00000,202.00000 M182.00000,2.00000 L183.00000,2.00000 M182.00000,12.00000 L181.00000,11.27000 M182.00000,12.00000 L182.00000,12.00000 M182.00000,192.00000 L182.00000,192.00000 M182.00000,192.00000 L183.00000,191.22923 M182.00000,202.00000 L181.00000,202.00000 M183.00000,2.00000 L184.00000,2.00000 M183.00000,12.77077 L182.00000,12.00000 M183.00000,191.22923 L183.28700,191.00000 M183.00000,202.00000 L182.00000,202.00000 M183.28700,13.00000 L183.00000,12.77077 M183.28700,191.00000 L184.00000,190.41745 M184.00000,2.00000 L185.00000,2.00000 M184.00000,13.58255 L183.28700,13.00000 M184.00000,190.41745 L184.49393,190.00000 M184.00000,202.00000 L183.00000,202.00000 M184.49393,14.00000 L184.00000,13.58255 M184.49393,190.00000 L185.00000,189.56184 M185.00000,2.00000 L186.00000,2.00000 M185.00000,14.43815 L184.49393,14.00000 M185.00000,189.56184 L185.62843,189.00000 M185.00000,202.00000 L184.00000,202.00000 M185.62843,15.00000 L185.00000,14.43815 M185.62843,189.00000 L186.00000,188.65918 M186.00000,2.00000 L187.00000,1.99998 M186.00000,15.34082 L185.62843,15.00000 M186.00000,188.65918 L186.69711,188.00000 M186.00000,202.00000 L185.00000,202.00000 M186.69711,16.00000 L186.00000,15.34082 M186.69711,188.00000 L187.00000,187.70570 M187.00000,1.99998 L188.00000,1.99998 M187.00000,16.29429 L186.69711,16.00000 M187.00000,187.70570 L187.70570,187.00000 M187.00000,202.00000 L186.00000,202.00000 M187.70570,17.00000 L187.00000,16.29429 M187.70570,187.00000 L188.00000,186.69711 M188.00000,1.99998 L189.00000,1.99998 M188.00000,17.30288 L187.70570,17.00000 M188.00000,186.69711 L188.65918,186.00000 M188.00000,202.00000 L187.00000,202.00000 M188.65918,18.00000 L188.00000,17.30288 M188.65918,186.00000 L189.00000,185.62843 M189.00000,1.99998 L190.00000,1.99998 M189.00000,18.37156 L188.65918,18.00000 M189.00000,185.62843 L189.56184,185.00000 M189.00000,202.00000 L188.00000,202.00000 M189.56184,19.00000 L189.00000,18.37156 M189.56184,185.00000 L190.00000,184.49393 M190.00000,1.99998 L191.00000,1.99998 M190.00000,19.50607 L189.56184,19.00000 M190.00000,184.49393 L190.41745,184.00000 M190.00000,202.00000 L189.00000,202.00000 M190.41745,20.00000 L190.00000,19.50607 M190.41745,184.00000 L191.00000,183.28700 M191.00000,1.99998 L192.00000,1.99998 M191.00000,20.71301 L190.41745,20.00000 M191.00000,183.28700 L191.22923,183.00000 M191.00000,202.00000 L190.00000,202.00000 M191.22923,21.00000 L191.00000,20.71301 M191.22923,183.00000 L192.00000,182.00000 M192.00000,1.99998 L193.00000,1.99998 M192.00000,22.00000 L191.22923,21.00000 M192.00000,22.00000 L192.00000,22.00000 M192.00000,182.00000 L192.00000,182.00000 M192.00000,182.00000 L192.73001,181.00000 M192.00000,202.00000 L191.00000,202.00000 M192.73001,23.00000 L192.00000,22.00000 M192.73001,181.00000 L193.00000,180.61539 M193.00000,1.99998 L194.00000,2.00000 M193.00000,23.38461 L192.73001,23.00000 M193.00000,180.61539 L193.42371,180.00000 M193.00000,202.00000 L192.00000,202.00000 M193.42371,24.00000 L193.00000,23.38461 M193.42371,180.00000 L194.00000,179.12788 M194.00000,2.00000 L195.00000,2.00000 M194.00000,24.87212 L193.42371,24.00000 M194.00000,179.12788 L194.08299,179.00000 M194.00000,202.00000 L193.00000,202.00000 M194.08299,25.00000 L194.00000,24.87212 M194.08299,179.00000 L194.70766,178.00000 M194.70766,26.00000 L194.08299,25.00000 M194.70766,178.00000 L195.00000,177.51108 M195.00000,2.00000 L196.00000,2.00000 M195.00000,26.48892 L194.70766,26.00000 M195.00000,177.51108 L195.30067,177.00000 M195.00000,202.00000 L194.00000,202.00000 M195.30067,27.00000 L195.00000,26.48892 M195.30067,177.00000 L195.86311,176.00000 M195.86311,28.00000 L195.30067,27.00000 M195.86311,176.00000 L196.00000,175.74557 M196.00000,2.00000 L197.00000,2.00000 M196.00000,28.25443 L195.86311,28.00000 M196.00000,175.74557 L196.39537,175.00000 M196.00000,202.00000 L195.00000,202.00000 M196.39537,29.00000 L196.00000,28.25443 M196.39537,175.00000 L196.89969,174.00000 M196.89969,30.00000 L196.39537,29.00000 M196.89969,174.00000 L197.00000,173.79141 M197.00000,2.00000 L198.00000,2.00000 M197.00000,30.20859 L196.89969,30.00000 M197.00000,173.79141 L197.37575,173.00000 M197.00000,202.00000 L196.00000,202.00000 M197.37575,31.00000 L197.00000,30.20859 M197.37575,173.00000 L197.82550,172.00000 M197.82550,32.00000 L197.37575,31.00000 M197.82550,172.00000 L198.00000,171.59068 M198.00000,2.00000 L199.00000,1.99998 M198.00000,32.40931 L197.82550,32.00000 M198.00000,171.59068 L198.24904,171.00000 M198.00000,202.00000 L197.00000,202.00000 M198.24904,33.00000 L198.00000,32.40931 M198.24904,171.00000 L198.64729,170.00000 M198.64729,34.00000 L198.24904,33.00000 M198.64729,170.00000 L199.00000,169.05733 M199.00000,1.99998 L200.00000,1.99998 M199.00000,34.94267 L198.64729,34.00000 M199.00000,169.05733 L199.02124,169.00000 M199.00000,202.00000 L198.00000,202.00000 M199.02124,35.00000 L199.00000,34.94267 M199.02124,169.00000 L199.37062,168.00000 M199.37062,36.00000 L199.02124,35.00000 M199.37062,168.00000 L199.69676,167.00000 M199.69676,37.00000 L199.37062,36.00000 M199.69676,167.00000 L200.00000,166.00000 M200.00000,1.99998 L201.00000,1.99998 M200.00000,38.00000 L199.69676,37.00000 M200.00000,38.00000 L200.00000,38.00000 M200.00000,166.00000 L200.00000,166.00000 M200.00000,166.00000 L200.28029,165.00000 M200.00000,202.00000 L199.00000,202.00000 M200.28029,39.00000 L200.00000,38.00000 M200.28029,165.00000 L200.53850,164.00000 M200.53850,40.00000 L200.28029,39.00000 M200.53850,164.00000 L200.77490,163.00000 M200.77490,41.00000 L200.53850,40.00000 M200.77490,163.00000 L200.98979,162.00000 M200.98979,42.00000 L200.77490,41.00000 M200.98979,162.00000 L201.00000,161.94746 M201.00000,1.99998 L202.00000,2.00000 M201.00000,42.05253 L200.98979,42.00000 M201.00000,161.94746 L202.00000,161.00000 M201.00000,202.00000 L200.00000,202.00000 M201.99998,43.00000 L201.00000,42.05253 M201.99998,153.00000 L202.00000,152.00000 M201.99998,154.00000 L201.99998,153.00000 M201.99998,155.00000 L201.99998,154.00000 M201.99998,156.00000 L201.99998,155.00000 M202.00000,2.00000 L202.00000,2.00000 M202.00000,2.00000 L202.00000,3.00000 M202.00000,3.00000 L202.00000,4.00000 M202.00000,4.00000 L202.00000,5.00000 M202.00000,5.00000 L202.00000,6.00000 M202.00000,6.00000 L202.00000,7.00000 M202.00000,7.00000 L202.00000,8.00000 M202.00000,8.00000 L202.00000,9.00000 M202.00000,9.00000 L202.00000,10.00000 M202.00000,10.00000 L202.00000,11.00000 M202.00000,11.00000 L202.00000,12.00000 M202.00000,12.00000 L202.00000,13.00000 M202.00000,13.00000 L202.00000,14.00000 M202.00000,14.00000 L202.00000,15.00000 M202.00000,15.00000 L202.00000,16.00000 M202.00000,16.00000 L202.00000,17.00000 M202.00000,17.00000 L202.00000,18.00000 M202.00000,18.00000 L202.00000,19.00000 M202.00000,19.00000 L202.00000,20.00000 M202.00000,20.00000 L202.00000,21.00000 M202.00000,21.00000 L202.00000,22.00000 M202.00000,22.00000 L202.00000,23.00000 M202.00000,23.00000 L202.00000,24.00000 M202.00000,24.00000 L202.00000,25.00000 M202.00000,25.00000 L202.00000,26.00000 M202.00000,26.00000 L202.00000,27.00000 M202.00000,27.00000 L202.00000,28.00000 M202.00000,28.00000 L202.00000,29.00000 M202.00000,29.00000 L202.00000,30.00000 M202.00000,30.00000 L202.00000,31.00000 M202.00000,31.00000 L202.00000,32.00000 M202.00000,32.00000 L202.00000,33.00000 M202.00000,33.00000 L202.00000,34.00000 M202.00000,34.00000 L202.00000,35.00000 M202.00000,35.00000 L202.00000,36.00000 M202.00000,36.00000 L202.00000,37.00000 M202.00000,37.00000 L202.00000,38.00000 M202.00000,38.00000 L202.00000,39.00000 M202.00000,39.00000 L202.00000,40.00000 M202.00000,40.00000 L202.00000,41.00000 M202.00000,41.00000 L202.00000,42.00000 M202.00000,42.00000 L202.00000,43.00000 M202.00000,43.00000 L202.00000,44.00000 M202.00000,44.00000 L201.99998,43.00000 M202.00000,44.00000 L202.00000,45.00000 M202.00000,45.00000 L202.00000,44.00000 M202.00000,45.00000 L202.00000,46.00000 M202.00000,46.00000 L202.00000,45.00000 M202.00000,46.00000 L202.00000,47.00000 M202.00000,47.00000 L202.00000,46.00000 M202.00000,47.00000 L202.00000,48.00000 M202.00000,48.00000 L202.00000,47.00000 M202.00000,48.00000 L202.00000,49.00000 M202.00000,49.00000 L202.00000,48.00000 M202.00000,49.00000 L202.00000,50.00000 M202.00000,50.00000 L202.00000,49.00000 M202.00000,50.00000 L202.00000,51.00000 M202.00000,51.00000 L202.00000,50.00000 M202.00000,51.00000 L202.00000,52.00000 M202.00000,52.00000 L202.00000,51.00000 M202.00000,52.00000 L202.00000,53.00000 M202.00000,53.00000 L202.00000,52.00000 M202.00000,53.00000 L202.00000,54.00000 M202.00000,54.00000 L202.00000,53.00000 M202.00000,54.00000 L202.00000,55.00000 M202.00000,55.00000 L202.00000,54.00000 M202.00000,55.00000 L202.00000,56.00000 M202.00000,56.00000 L202.00000,55.00000 M202.00000,56.00000 L202.00000,57.00000 M202.00000,57.00000 L202.00000,56.00000 M202.00000,57.00000 L202.00000,58.00000 M202.00000,58.00000 L202.00000,57.00000 M202.00000,58.00000 L202.00000,59.00000 M202.00000,59.00000 L202.00000,58.00000 M202.00000,59.00000 L202.00000,60.00000 M202.00000,60.00000 L202.00000,59.00000 M202.00000,60.00000 L202.00000,61.00000 M202.00000,61.00000 L202.00000,60.00000 M202.00000,61.00000 L202.00000,62.00000 M202.00000,62.00000 L202.00000,61.00000 M202.00000,62.00000 L202.00000,63.00000 M202.00000,63.00000 L202.00000,62.00000 M202.00000,63.00000 L202.00000,64.00000 M202.00000,64.00000 L202.00000,63.00000 M202.00000,64.00000 L202.00000,65.00000 M202.00000,65.00000 L202.00000,64.00000 M202.00000,65.00000 L202.00000,66.00000 M202.00000,66.00000 L202.00000,65.00000 M202.00000,66.00000 L202.00000,67.00000 M202.00000,67.00000 L202.00000,66.00000 M202.00000,67.00000 L202.00000,68.00000 M202.00000,68.00000 L202.00000,67.00000 M202.00000,68.00000 L202.00000,69.00000 M202.00000,69.00000 L202.00000,68.00000 M202.00000,69.00000 L202.00000,70.00000 M202.00000,70.00000 L202.00000,69.00000 M202.00000,70.00000 L202.00000,71.00000 M202.00000,71.00000 L202.00000,70.00000 M202.00000,71.00000 L202.00000,72.00000 M202.00000,72.00000 L202.00000,71.00000 M202.00000,72.00000 L202.00000,73.00000 M202.00000,73.00000 L202.00000,72.00000 M202.00000,73.00000 L202.00000,74.00000 M202.00000,74.00000 L202.00000,73.00000 M202.00000,74.00000 L202.00000,75.00000 M202.00000,75.00000 L202.00000,74.00000 M202.00000,75.00000 L202.00000,76.00000 M202.00000,76.00000 L202.00000,75.00000 M202.00000,76.00000 L202.00000,77.00000 M202.00000,77.00000 L202.00000,76.00000 M202.00000,77.00000 L202.00000,78.00000 M202.00000,78.00000 L202.00000,77.00000 M202.00000,78.00000 L202.00000,79.00000 M202.00000,79.00000 L202.00000,78.00000 M202.00000,79.00000 L202.00000,80.00000 M202.00000,80.00000 L202.00000,79.00000 M202.00000,80.00000 L202.00000,81.00000 M202.00000,81.00000 L202.00000,80.00000 M202.00000,81.00000 L202.00000,82.00000 M202.00000,82.00000 L202.00000,81.00000 M202.00000,82.00000 L202.00000,83.00000 M202.00000,83.00000 L202.00000,82.00000 M202.00000,83.00000 L202.00000,84.00000 M202.00000,84.00000 L202.00000,83.00000 M202.00000,84.00000 L202.00000,85.00000 M202.00000,85.00000 L202.00000,84.00000 M202.00000,85.00000 L202.00000,86.00000 M202.00000,86.00000 L202.00000,85.00000 M202.00000,86.00000 L202.00000,87.00000 M202.00000,87.00000 L202.00000,86.00000 M202.00000,87.00000 L202.00000,88.00000 M202.00000,88.00000 L202.00000,87.00000 M202.00000,88.00000 L202.00000,89.00000 M202.00000,89.00000 L202.00000,88.00000 M202.00000,89.00000 L202.00000,90.00000 M202.00000,90.00000 L202.00000,89.00000 M202.00000,90.00000 L202.00000,91.00000 M202.00000,91.00000 L202.00000,90.00000 M202.00000,91.00000 L202.00000,92.00000 M202.00000,92.00000 L202.00000,91.00000 M202.00000,92.00000 L202.00000,93.00000 M202.00000,93.00000 L202.00000,92.00000 M202.00000,93.00000 L202.00000,94.00000 M202.00000,94.00000 L202.00000,93.00000 M202.00000,94.00000 L202.00000,95.00000 M202.00000,95.00000 L202.00000,94.00000 M202.00000,95.00000 L202.00000,96.00000 M202.00000,96.00000 L202.00000,95.00000 M202.00000,96.00000 L202.00000,97.00000 M202.00000,97.00000 L202.00000,96.00000 M202.00000,97.00000 L202.00000,98.00000 M202.00000,98.00000 L202.00000,97.00000 M202.00000,98.00000 L202.00000,99.00000 M202.00000,99.00000 L202.00000,98.00000 M202.00000,99.00000 L202.00000,100.00000 M202.00000,100.00000 L202.00000,99.00000 M202.00000,100.00000 L202.00000,101.00000 M202.00000,101.00000 L202.00000,100.00000 M202.00000,101.00000 L202.00000,102.00000 M202.00000,102.00000 L202.00000,101.00000 M202.00000,102.00000 L202.00000,103.00000 M202.00000,103.00000 L202.00000,102.00000 M202.00000,103.00000 L202.00000,104.00000 M202.00000,104.00000 L202.00000,103.00000 M202.00000,104.00000 L202.00000,105.00000 M202.00000,105.00000 L202.00000,104.00000 M202.00000,105.00000 L202.00000,106.00000 M202.00000,106.00000 L202.00000,105.00000 M202.00000,106.00000 L202.00000,107.00000 M202.00000,107.00000 L202.00000,106.00000 M202.00000,107.00000 L202.00000,108.00000 M202.00000,108.00000 L202.00000,107.00000 M202.00000,108.00000 L202.00000,109.00000 M202.00000,109.00000 L202.00000,108.00000 M202.00000,109.00000 L202.00000,110.00000 M202.00000,110.00000 L202.00000,109.00000 M202.00000,110.00000 L202.00000,111.00000 M202.00000,111.00000 L202.00000,110.00000 M202.00000,111.00000 L202.00000,112.00000 M202.00000,112.00000 L202.00000,111.00000 M202.00000,112.00000 L202.00000,113.00000 M202.00000,113.00000 L202.00000,112.00000 M202.00000,113.00000 L202.00000,114.00000 M202.00000,114.00000 L202.00000,113.00000 M202.00000,114.00000 L202.00000,115.00000 M202.00000,115.00000 L202.00000,114.00000 M202.00000,115.00000 L202.00000,116.00000 M202.00000,116.00000 L202.00000,115.00000 M202.00000,116.00000 L202.00000,117.00000 M202.00000,117.00000 L202.00000,116.00000 M202.00000,117.00000 L202.00000,118.00000 M202.00000,118.00000 L202.00000,117.00000 M202.00000,118.00000 L202.00000,119.00000 M202.00000,119.00000 L202.00000,118.00000 M202.00000,119.00000 L202.00000,120.00000 M202.00000,120.00000 L202.00000,119.00000 M202.00000,120.00000 L202.00000,121.00000 M202.00000,121.00000 L202.00000,120.00000 M202.00000,121.00000 L202.00000,122.00000 M202.00000,122.00000 L202.00000,121.00000 M202.00000,122.00000 L202.00000,123.00000 M202.00000,123.00000 L202.00000,122.00000 M202.00000,123.00000 L202.00000,124.00000 M202.00000,124.00000 L202.00000,123.00000 M202.00000,124.00000 L202.00000,125.00000 M202.00000,125.00000 L202.00000,124.00000 M202.00000,125.00000 L202.00000,126.00000 M202.00000,126.00000 L202.00000,125.00000 M202.00000,126.00000 L202.00000,127.00000 M202.00000,127.00000 L202.00000,126.00000 M202.00000,127.00000 L202.00000,128.00000 M202.00000,128.00000 L202.00000,127.00000 M202.00000,128.00000 L202.00000,129.00000 M202.00000,129.00000 L202.00000,128.00000 M202.00000,129.00000 L202.00000,130.00000 M202.00000,130.00000 L202.00000,129.00000 M202.00000,130.00000 L202.00000,131.00000 M202.00000,131.00000 L202.00000,130.00000 M202.00000,131.00000 L202.00000,132.00000 M202.00000,132.00000 L202.00000,131.00000 M202.00000,132.00000 L202.00000,133.00000 M202.00000,133.00000 L202.00000,132.00000 M202.00000,133.00000 L202.00000,134.00000 M202.00000,134.00000 L202.00000,133.00000 M202.00000,134.00000 L202.00000,135.00000 M202.00000,135.00000 L202.00000,134.00000 M202.00000,135.00000 L202.00000,136.00000 M202.00000,136.00000 L202.00000,135.00000 M202.00000,136.00000 L202.00000,137.00000 M202.00000,137.00000 L202.00000,136.00000 M202.00000,137.00000 L202.00000,138.00000 M202.00000,138.00000 L202.00000,137.00000 M202.00000,138.00000 L202.00000,139.00000 M202.00000,139.00000 L202.00000,138.00000 M202.00000,139.00000 L202.00000,140.00000 M202.00000,140.00000 L202.00000,139.00000 M202.00000,140.00000 L202.00000,141.00000 M202.00000,141.00000 L202.00000,140.00000 M202.00000,141.00000 L202.00000,142.00000 M202.00000,142.00000 L202.00000,141.00000 M202.00000,142.00000 L202.00000,143.00000 M202.00000,143.00000 L202.00000,142.00000 M202.00000,143.00000 L202.00000,144.00000 M202.00000,144.00000 L202.00000,143.00000 M202.00000,144.00000 L202.00000,145.00000 M202.00000,145.00000 L202.00000,144.00000 M202.00000,145.00000 L202.00000,146.00000 M202.00000,146.00000 L202.00000,145.00000 M202.00000,146.00000 L202.00000,147.00000 M202.00000,147.00000 L202.00000,146.00000 M202.00000,147.00000 L202.00000,148.00000 M202.00000,148.00000 L202.00000,147.00000 M202.00000,148.00000 L202.00000,149.00000 M202.00000,149.00000 L202.00000,148.00000 M202.00000,149.00000 L202.00000,150.00000 M202.00000,150.00000 L202.00000,149.00000 M202.00000,150.00000 L202.00000,151.00000 M202.00000,151.00000 L202.00000,150.00000 M202.00000,151.00000 L202.00000,152.00000 M202.00000,152.00000 L202.00000,151.00000 M202.00000,152.00000 L202.00002,153.00000 M202.00000,157.00000 L201.99998,156.00000 M202.00000,157.00000 L202.00000,158.00000 M202.00000,158.00000 L202.00000,157.00000 M202.00000,158.00000 L202.00000,159.00000 M202.00000,159.00000 L202.00000,158.00000 M202.00000,159.00000 L202.00000,160.00000 M202.00000,160.00000 L202.00000,159.00000 M202.00000,160.00000 L202.00000,161.00000 M202.00000,161.00000 L202.00000,160.00000 M202.00000,161.00000 L202.00000,162.00000 M202.00000,162.00000 L202.00002,163.00000 M202.00000,169.00000 L202.00000,170.00000 M202.00000,170.00000 L202.00000,171.00000 M202.00000,171.00000 L202.00000,172.00000 M202.00000,172.00000 L202.00000,173.00000 M202.00000,173.00000 L202.00000,174.00000 M202.00000,174.00000 L202.00002,175.00000 M202.00000,182.00000 L202.00000,183.00000 M202.00000,183.00000 L202.00000,184.00000 M202.00000,184.00000 L202.00000,185.00000 M202.00000,185.00000 L202.00000,186.00000 M202.00000,186.00000 L202.00002,187.00000 M202.00000,194.00000 L202.00000,195.00000 M202.00000,195.00000 L202.00000,196.00000 M202.00000,196.00000 L202.00000,197.00000 M202.00000,197.00000 L202.00000,198.00000 M202.00000,198.00000 L202.00002,199.00000 M202.00000,202.00000 L201.00000,202.00000 M202.00000,202.00000 L202.00000,202.00000 M202.00002,153.00000 L202.00002,154.00000 M202.00002,154.00000 L202.00002,155.00000 M202.00002,155.00000 L202.00002,156.00000 M202.00002,156.00000 L202.00000,157.00000 M202.00002,163.00000 L202.00002,164.00000 M202.00002,164.00000 L202.00002,165.00000 M202.00002,165.00000 L202.00002,166.00000 M202.00002,166.00000 L202.00002,167.00000 M202.00002,167.00000 L202.00002,168.00000 M202.00002,168.00000 L202.00000,169.00000 M202.00002,175.00000 L202.00002,176.00000 M202.00002,176.00000 L202.00002,177.00000 M202.00002,177.00000 L202.00002,178.00000 M202.00002,178.00000 L202.00002,179.00000 M202.00002,179.00000 L202.00002,180.00000 M202.00002,180.00000 L202.00002,181.00000 M202.00002,181.00000 L202.00000,182.00000 M202.00002,187.00000 L202.00002,188.00000 M202.00002,188.00000 L202.00002,189.00000 M202.00002,189.00000 L202.00002,190.00000 M202.00002,190.00000 L202.00002,191.00000 M202.00002,191.00000 L202.00002,192.00000 M202.00002,192.00000 L202.00002,193.00000 M202.00002,193.00000 L202.00000,194.00000 M202.00002,199.00000 L202.00002,200.00000 M202.00002,200.00000 L202.00002,201.00000 M202.00002,201.00000 L202.00000,202.00000 "/>

<script>
let svgs = document.children[0];
let paths = Array.from(svgs.children).filter(function(c) {
    var orig = c.style.stroke;
    c.onmouseover = function() {
        c.style.stroke = "rgb(0, 0, 255)";
    };
    c.onmouseout = function () {
        c.style.stroke = orig;
    };
    c.onclick = function () {
        svgs.removeChild()
    }
});

for (let path of paths) {
    console.log(path);
}
</script></svg>