<svg xmlns="http://www.w3.org/2000/svg">
    <path fill-rule="evenodd" style="fill: none; stroke: rgb(0, 0, 0); stroke-width: 0.2;" d="M167.00,2.00 L168.00,2.00 M202.00,14.00 L202.00,15.00 M40.00,2.00 L41.00,2.00 M3.01,162.00 L3.23,163.00 M202.00,5.00 L202.00,6.00 M12.00,182.00 L12.77,183.00 M40.00,202.00 L39.00,202.00 M110.00,2.00 L111.00,2.00 M92.00,202.00 L93.00,202.00 M130.00,202.00 L131.00,202.00 M9.00,26.49 L8.70,27.00 M164.00,3.46 L163.00,3.23 M200.99,42.00 L200.77,41.00 M20.71,13.00 L20.00,13.58 M145.00,2.00 L146.00,2.00 M35.00,2.00 L36.00,2.00 M6.00,202.00 L5.00,202.00 M173.00,202.00 L172.00,202.00 M17.00,2.00 L18.00,2.00 M47.00,2.00 L48.00,2.00 M202.00,41.00 L202.00,42.00 M67.00,202.00 L68.00,202.00 M171.59,6.00 L171.00,5.75 M188.66,186.00 L189.00,185.63 M137.00,202.00 L138.00,202.00 M199.00,2.00 L200.00,2.00 M2.00,167.00 L2.00,166.00 M5.35,34.00 L5.00,34.94 M202.00,201.00 L202.00,202.00 M86.00,2.00 L87.00,2.00 M202.00,27.00 L202.00,28.00 M169.00,2.00 L170.00,2.00 M187.71,187.00 L188.00,186.70 M42.00,2.00 L43.00,2.00 M154.00,2.00 L155.00,2.00 M2.00,161.00 L3.00,161.95 M196.00,175.75 L196.40,175.00 M4.98,35.00 L4.63,36.00 M42.00,202.00 L41.00,202.00 M197.38,173.00 L197.83,172.00 M78.00,202.00 L79.00,202.00 M116.00,202.00 L117.00,202.00 M26.00,9.29 L25.00,9.92 M194.08,25.00 L194.00,24.87 M3.23,41.00 L3.01,42.00 M202.00,2.00 L202.00,3.00 M93.00,2.00 L94.00,2.00 M131.00,2.00 L132.00,2.00 M202.00,178.00 L202.00,179.00 M201.00,2.00 L202.00,2.00 M2.00,12.00 L2.00,11.00 M2.00,189.00 L2.00,188.00 M23.00,202.00 L22.00,202.00 M8.00,175.75 L8.14,176.00 M202.00,184.00 L202.00,185.00 M2.00,14.00 L2.00,13.00 M53.00,202.00 L54.00,202.00 M178.00,202.00 L177.00,202.00 M123.00,202.00 L124.00,202.00 M191.00,183.29 L191.23,183.00 M2.00,29.00 L2.00,28.00 M22.00,12.00 L21.00,12.77 M6.17,32.00 L6.00,32.41 M72.00,2.00 L73.00,2.00 M142.00,2.00 L143.00,2.00 M177.00,202.00 L176.00,202.00 M32.00,6.17 L31.00,6.62 M175.75,8.00 L175.00,7.60 M2.00,176.00 L2.00,175.00 M189.00,202.00 L188.00,202.00 M64.00,202.00 L65.00,202.00 M102.00,202.00 L103.00,202.00 M66.00,202.00 L65.00,202.00 M27.00,202.00 L26.00,202.00 M185.00,189.56 L185.63,189.00 M2.00,162.00 L2.00,161.00 M195.86,176.00 L196.00,175.75 M79.00,2.00 L80.00,2.00 M2.00,7.00 L2.00,6.00 M117.00,2.00 L118.00,2.00 M202.00,191.00 L202.00,192.00 M194.71,26.00 L194.08,25.00 M13.00,202.00 L12.00,202.00 M26.00,194.71 L26.49,195.00 M40.00,3.46 L39.00,3.72 M167.00,4.30 L166.00,4.00 M109.00,202.00 L110.00,202.00 M192.73,23.00 L192.00,22.00 M12.00,202.00 L11.00,202.00 M2.00,190.00 L2.00,189.00 M25.00,2.00 L26.00,2.00 M74.00,2.00 L75.00,2.00 M128.00,2.00 L129.00,2.00 M165.00,202.00 L164.00,202.00 M148.00,202.00 L149.00,202.00 M36.00,199.37 L37.00,199.70 M163.00,200.77 L164.00,200.54 M20.71,191.00 L21.00,191.23 M179.00,202.00 L178.00,202.00 M2.00,184.00 L2.00,183.00 M22.00,192.00 L23.00,192.73 M35.00,4.98 L34.94,5.00 M17.00,16.29 L16.29,17.00 M174.00,196.90 L175.00,196.40 M175.00,7.60 L174.00,7.10 M49.00,2.00 L50.00,2.00 M30.21,7.00 L30.00,7.10 M202.00,42.00 L202.00,43.00 M103.00,2.00 L104.00,2.00 M85.00,202.00 L86.00,202.00 M185.63,15.00 L185.00,14.44 M199.00,34.94 L198.65,34.00 M155.00,202.00 L156.00,202.00 M43.00,2.00 L44.00,2.00 M5.35,170.00 L5.75,171.00 M28.00,2.00 L29.00,2.00 M42.00,3.01 L41.00,3.23 M117.00,202.00 L116.00,202.00 M169.00,4.98 L168.00,4.63 M183.00,191.23 L183.29,191.00 M198.00,202.00 L197.00,202.00 M4.98,169.00 L5.00,169.06 M197.00,173.79 L197.38,173.00 M60.00,2.00 L61.00,2.00 M15.00,2.00 L16.00,2.00 M98.00,2.00 L99.00,2.00 M96.00,202.00 L97.00,202.00 M134.00,202.00 L135.00,202.00 M3.23,163.00 L3.46,164.00 M168.00,4.63 L167.00,4.30 M202.00,7.00 L202.00,8.00 M12.77,21.00 L12.00,22.00 M149.00,2.00 L150.00,2.00 M39.00,2.00 L40.00,2.00 M8.00,202.00 L7.00,202.00 M162.00,202.00 L161.00,202.00 M35.00,202.00 L34.00,202.00 M19.51,14.00 L19.00,14.44 M105.00,2.00 L106.00,2.00 M71.00,202.00 L72.00,202.00 M191.00,202.00 L190.00,202.00 M141.00,202.00 L142.00,202.00 M6.17,172.00 L6.62,173.00 M17.00,187.71 L17.30,188.00 M160.00,2.00 L161.00,2.00 M172.00,2.00 L173.00,2.00 M190.00,202.00 L189.00,202.00 M2.00,177.00 L2.00,176.00 M189.00,2.00 L190.00,2.00 M16.00,186.70 L16.29,187.00 M46.00,2.00 L47.00,2.00 M199.02,169.00 L199.37,168.00 M66.00,202.00 L67.00,202.00 M120.00,202.00 L121.00,202.00 M2.00,163.00 L2.00,162.00 M169.06,199.00 L170.00,198.65 M196.40,29.00 L196.00,28.25 M5.00,2.00 L6.00,2.00 M196.90,174.00 L197.00,173.79 M81.00,2.00 L82.00,2.00 M135.00,2.00 L136.00,2.00 M202.00,9.00 L202.00,10.00 M26.00,202.00 L25.00,202.00 M3.00,2.00 L4.00,2.00 M202.00,166.00 L202.00,167.00 M2.00,24.00 L2.00,23.00 M73.00,202.00 L74.00,202.00 M192.73,181.00 L193.00,180.62 M127.00,202.00 L128.00,202.00 M201.00,161.95 L202.00,161.00 M2.00,10.00 L2.00,9.00 M2.00,191.00 L2.00,190.00 M25.00,9.92 L24.87,10.00 M8.14,28.00 L8.00,28.25 M92.00,2.00 L93.00,2.00 M2.00,25.00 L2.00,24.00 M130.00,2.00 L131.00,2.00 M180.00,202.00 L179.00,202.00 M2.00,28.00 L2.00,27.00 M202.00,196.00 L202.00,197.00 M2.00,185.00 L2.00,184.00 M22.00,202.00 L21.00,202.00 M179.00,2.00 L180.00,2.00 M7.60,29.00 L7.10,30.00 M192.00,22.00 L191.23,21.00 M2.00,41.00 L2.00,40.00 M52.00,202.00 L53.00,202.00 M122.00,202.00 L123.00,202.00 M30.21,197.00 L31.00,197.38 M176.00,2.00 L177.00,2.00 M2.00,178.00 L2.00,177.00 M188.00,202.00 L187.00,202.00 M67.00,2.00 L68.00,2.00 M137.00,2.00 L138.00,2.00 M187.00,2.00 L188.00,2.00 M2.00,20.00 L2.00,19.00 M28.00,8.14 L27.00,8.70 M202.00,180.00 L202.00,181.00 M59.00,202.00 L60.00,202.00 M183.00,202.00 L182.00,202.00 M97.00,202.00 L98.00,202.00 M195.00,2.00 L196.00,2.00 M202.00,20.00 L202.00,21.00 M15.00,18.37 L14.44,19.00 M78.00,2.00 L79.00,2.00 M116.00,2.00 L117.00,2.00 M182.00,12.00 L181.00,11.27 M152.00,202.00 L153.00,202.00 M40.00,200.54 L41.00,200.77 M12.77,183.00 L13.00,183.29 M167.00,199.70 L168.00,199.37 M2.00,200.00 L2.00,199.00 M193.00,202.00 L192.00,202.00 M25.00,194.08 L26.00,194.71 M39.00,3.72 L38.00,4.00 M108.00,202.00 L109.00,202.00 M19.51,190.00 L20.00,190.42 M164.00,2.00 L165.00,2.00 M2.00,186.00 L2.00,185.00 M178.00,9.29 L177.51,9.00 M53.00,2.00 L54.00,2.00 M21.00,2.00 L22.00,2.00 M123.00,2.00 L124.00,2.00 M202.00,170.00 L202.00,171.00 M176.00,195.86 L177.00,195.30 M159.00,202.00 L160.00,202.00 M17.00,202.00 L16.00,202.00 M31.00,2.00 L32.00,2.00 M45.00,202.00 L46.00,202.00 M172.00,6.17 L171.59,6.00 M186.00,2.00 L187.00,2.00 M200.00,38.00 L199.70,37.00 M202.00,200.00 L202.00,201.00 M16.00,202.00 L15.00,202.00 M199.00,169.06 L199.02,169.00 M30.00,2.00 L31.00,2.00 M64.00,2.00 L65.00,2.00 M102.00,2.00 L103.00,2.00 M84.00,202.00 L85.00,202.00 M171.00,5.75 L170.00,5.35 M154.00,202.00 L155.00,202.00 M202.00,29.00 L202.00,30.00 M42.00,200.99 L42.05,201.00 M5.00,34.94 L4.98,35.00 M169.00,199.02 L169.06,199.00 M184.00,13.58 L183.29,13.00 M197.38,31.00 L197.00,30.21 M15.00,185.63 L15.34,186.00 M202.00,24.00 L202.00,25.00 M3.00,42.05 L2.00,43.00 M166.00,202.00 L165.00,202.00 M11.27,23.00 L11.00,23.38 M39.00,202.00 L38.00,202.00 M109.00,2.00 L110.00,2.00 M91.00,202.00 L92.00,202.00 M164.00,200.54 L165.00,200.28 M201.00,202.00 L200.00,202.00 M129.00,202.00 L130.00,202.00 M8.14,176.00 L8.70,177.00 M20.00,2.00 L21.00,2.00 M202.00,194.00 L202.00,195.00 M148.00,2.00 L149.00,2.00 M200.77,163.00 L200.99,162.00 M34.00,198.65 L34.94,199.00 M7.60,175.00 L8.00,175.75 M191.23,21.00 L191.00,20.71 M19.00,2.00 L20.00,2.00 M34.94,199.00 L35.00,199.02 M202.00,162.00 L202.00,163.00 M70.00,202.00 L71.00,202.00 M140.00,202.00 L141.00,202.00 M2.00,179.00 L2.00,178.00 M173.00,6.62 L172.00,6.17 M189.00,185.63 L189.56,185.00 M16.29,17.00 L16.00,17.30 M198.65,170.00 L199.00,169.06 M85.00,2.00 L86.00,2.00 M44.00,202.00 L45.00,202.00 M197.83,32.00 L197.38,31.00 M153.00,2.00 L154.00,2.00 M168.00,202.00 L167.00,202.00 M41.00,202.00 L40.00,202.00 M4.30,37.00 L4.00,38.00 M202.00,17.00 L202.00,18.00 M77.00,202.00 L78.00,202.00 M195.00,26.49 L194.71,26.00 M115.00,202.00 L116.00,202.00 M202.00,11.00 L202.00,12.00 M3.00,161.95 L3.01,162.00 M96.00,2.00 L97.00,2.00 M2.00,34.00 L2.00,33.00 M134.00,2.00 L135.00,2.00 M194.00,202.00 L193.00,202.00 M2.00,37.00 L2.00,36.00 M202.00,177.00 L202.00,178.00 M2.00,201.00 L2.00,200.00 M25.00,202.00 L24.00,202.00 M193.00,2.00 L194.00,2.00 M9.92,25.00 L9.29,26.00 M2.00,11.00 L2.00,10.00 M56.00,202.00 L57.00,202.00 M126.00,202.00 L127.00,202.00 M202.00,198.00 L202.00,199.00 M2.00,39.00 L2.00,38.00 M2.00,187.00 L2.00,186.00 M21.00,12.77 L20.71,13.00 M179.00,194.08 L179.13,194.00 M8.00,2.00 L9.00,2.00 M191.00,20.71 L190.42,20.00 M71.00,2.00 L72.00,2.00 M2.00,4.00 L2.00,3.00 M141.00,2.00 L142.00,2.00 M202.00,182.00 L202.00,183.00 M189.56,19.00 L189.00,18.37 M31.00,6.62 L30.21,7.00 M2.00,172.00 L2.00,171.00 M63.00,202.00 L64.00,202.00 M186.00,15.34 L185.63,15.00 M101.00,202.00 L102.00,202.00 M187.00,187.71 L187.71,187.00 M202.00,36.00 L202.00,37.00 M2.00,31.00 L2.00,30.00 M30.00,7.10 L29.00,7.60 M66.00,2.00 L67.00,2.00 M120.00,2.00 L121.00,2.00 M185.00,14.44 L184.49,14.00 M202.00,30.00 L202.00,31.00 M2.00,6.00 L2.00,5.00 M202.00,190.00 L202.00,191.00 M15.00,202.00 L14.00,202.00 M183.29,13.00 L183.00,12.77 M195.30,177.00 L195.86,176.00 M58.00,202.00 L59.00,202.00 M112.00,202.00 L113.00,202.00 M11.27,181.00 L12.00,182.00 M168.00,2.00 L169.00,2.00 M2.00,202.00 L2.00,201.00 M192.00,202.00 L191.00,202.00 M73.00,2.00 L74.00,2.00 M24.00,193.42 L24.87,194.00 M127.00,2.00 L128.00,2.00 M179.13,10.00 L179.00,9.92 M147.00,202.00 L148.00,202.00 M35.00,199.02 L36.00,199.37 M20.00,13.58 L19.51,14.00 M2.00,180.00 L2.00,179.00 M21.00,191.23 L22.00,192.00 M34.00,202.00 L33.00,202.00 M161.00,202.00 L161.95,201.00 M177.00,2.00 L178.00,2.00 M51.00,202.00 L52.00,202.00 M19.00,14.44 L18.37,15.00 M52.00,2.00 L53.00,2.00 M33.00,2.00 L34.00,2.00 M122.00,2.00 L123.00,2.00 M88.00,202.00 L89.00,202.00 M174.00,7.10 L173.79,7.00 M158.00,202.00 L159.00,202.00 M172.00,197.83 L173.00,197.38 M16.29,187.00 L17.00,187.71 M186.70,188.00 L187.00,187.71 M199.02,35.00 L199.00,34.94 M30.00,196.90 L30.21,197.00 M202.00,40.00 L202.00,41.00 M202.00,31.00 L202.00,32.00 M4.30,167.00 L4.63,168.00 M169.06,5.00 L169.00,4.98 M183.00,12.77 L182.00,12.00 M59.00,2.00 L60.00,2.00 M14.00,184.49 L14.44,185.00 M202.00,18.00 L202.00,19.00 M97.00,2.00 L98.00,2.00 M95.00,202.00 L96.00,202.00 M181.00,2.00 L182.00,2.00 M202.00,12.00 L202.00,13.00 M133.00,202.00 L134.00,202.00 M3.00,202.00 L2.00,202.00 M12.00,2.00 L13.00,2.00 M202.00,175.00 L202.00,176.00 M152.00,2.00 L153.00,2.00 M165.00,2.00 L166.00,2.00 M202.00,6.00 L202.00,7.00 M38.00,2.00 L39.00,2.00 M92.00,2.00 L91.00,2.00 M9.92,179.00 L10.00,179.13 M202.00,43.00 L201.00,42.05 M11.00,2.00 L12.00,2.00 M38.00,202.00 L37.00,202.00 M108.00,2.00 L109.00,2.00 M90.00,202.00 L91.00,202.00 M144.00,202.00 L145.00,202.00 M202.00,195.00 L202.00,196.00 M8.00,28.25 L7.60,29.00 M162.00,3.01 L161.95,3.00 M192.00,2.00 L193.00,2.00 M19.00,189.56 L19.51,190.00 M159.00,2.00 L160.00,2.00 M48.00,202.00 L49.00,202.00 M199.37,36.00 L199.02,35.00 M2.00,173.00 L2.00,172.00 M171.59,198.00 L172.00,197.83 M45.00,2.00 L46.00,2.00 M15.34,18.00 L15.00,18.37 M202.00,33.00 L202.00,34.00 M65.00,202.00 L66.00,202.00 M170.00,2.00 L171.00,2.00 M187.00,202.00 L186.00,202.00 M119.00,202.00 L120.00,202.00 M198.00,2.00 L199.00,2.00 M4.63,36.00 L4.30,37.00 M202.00,188.00 L202.00,189.00 M84.00,2.00 L85.00,2.00 M202.00,19.00 L202.00,20.00 M196.00,202.00 L195.00,202.00 M195.00,177.51 L195.30,177.00 M4.00,2.00 L5.00,2.00 M202.00,16.00 L202.00,17.00 M76.00,202.00 L77.00,202.00 M114.00,202.00 L115.00,202.00 M202.00,179.00 L202.00,180.00 M24.00,202.00 L23.00,202.00 M193.00,180.62 L193.42,180.00 M10.00,2.00 L11.00,2.00 M201.00,42.05 L200.99,42.00 M91.00,2.00 L92.00,2.00 M2.00,22.00 L2.00,21.00 M129.00,2.00 L130.00,2.00 M202.00,164.00 L202.00,165.00 M200.28,39.00 L200.00,38.00 M143.00,2.00 L142.00,2.00 M2.00,15.00 L2.00,14.00 M2.00,181.00 L2.00,180.00 M21.00,202.00 L20.00,202.00 M7.00,173.79 L7.10,174.00 M202.00,169.00 L202.00,170.00 M2.00,5.00 L2.00,4.00 M177.00,8.70 L176.00,8.14 M121.00,202.00 L122.00,202.00 M190.00,2.00 L191.00,2.00 M33.00,5.75 L32.41,6.00 M2.00,174.00 L2.00,173.00 M70.00,2.00 L71.00,2.00 M140.00,2.00 L141.00,2.00 M175.75,196.00 L176.00,195.86 M30.00,202.00 L29.00,202.00 M186.00,188.66 L186.70,188.00 M2.00,168.00 L2.00,167.00 M188.00,17.30 L187.71,17.00 M2.00,32.00 L2.00,31.00 M62.00,202.00 L63.00,202.00 M100.00,202.00 L101.00,202.00 M202.00,192.00 L202.00,193.00 M2.00,18.00 L2.00,17.00 M14.00,202.00 L13.00,202.00 M184.00,2.00 L185.00,2.00 M194.71,178.00 L195.00,177.51 M77.00,2.00 L78.00,2.00 M115.00,2.00 L116.00,2.00 M193.42,24.00 L193.00,23.38 M151.00,202.00 L152.00,202.00 M39.00,200.28 L40.00,200.54 M12.00,22.00 L11.27,23.00 M2.00,196.00 L2.00,195.00 M24.87,10.00 L24.00,10.58 M38.00,4.00 L37.00,4.30 M165.00,3.72 L164.00,3.46 M180.00,2.00 L181.00,2.00 M107.00,202.00 L108.00,202.00 M202.00,186.00 L202.00,187.00 M11.00,23.38 L10.58,24.00 M2.00,182.00 L2.00,181.00 M23.38,11.00 L23.00,11.27 M56.00,2.00 L57.00,2.00 M126.00,2.00 L127.00,2.00 M163.00,202.00 L162.00,202.00 M146.00,202.00 L147.00,202.00 M34.94,5.00 L34.00,5.35 M19.00,202.00 L18.00,202.00 M161.95,3.00 L161.00,2.00 M177.51,195.00 L178.00,194.71 M33.00,198.25 L34.00,198.65 M50.00,202.00 L51.00,202.00 M173.00,2.00 L174.00,2.00 M15.34,186.00 L16.00,186.70 M185.63,189.00 L186.00,188.66 M29.00,2.00 L30.00,2.00 M63.00,2.00 L64.00,2.00 M202.00,34.00 L202.00,35.00 M101.00,2.00 L102.00,2.00 M202.00,199.00 L202.00,200.00 M83.00,202.00 L84.00,202.00 M184.00,190.42 L184.49,190.00 M198.00,32.41 L197.83,32.00 M153.00,202.00 L154.00,202.00 M41.00,200.77 L42.00,200.99 M4.63,168.00 L4.98,169.00 M14.44,19.00 L14.00,19.51 M181.00,192.73 L182.00,192.00 M197.00,202.00 L196.00,202.00 M4.00,38.00 L3.72,39.00 M202.00,13.00 L202.00,14.00 M13.58,20.00 L13.00,20.71 M58.00,2.00 L59.00,2.00 M112.00,2.00 L113.00,2.00 M94.00,202.00 L95.00,202.00 M132.00,202.00 L133.00,202.00 M202.00,176.00 L202.00,177.00 M10.00,24.87 L9.92,25.00 M166.00,4.00 L165.00,3.72 M11.00,180.62 L11.27,181.00 M147.00,2.00 L148.00,2.00 M37.00,2.00 L38.00,2.00 M7.00,202.00 L6.00,202.00 M161.00,2.00 L162.00,2.00 M18.00,188.66 L18.37,189.00 M34.00,5.35 L33.00,5.75 M69.00,202.00 L70.00,202.00 M173.00,197.38 L173.79,197.00 M190.00,19.51 L189.56,19.00 M139.00,202.00 L140.00,202.00 M199.70,37.00 L199.37,36.00 M2.00,175.00 L2.00,174.00 M16.00,2.00 L17.00,2.00 M88.00,2.00 L89.00,2.00 M202.00,35.00 L202.00,36.00 M158.00,2.00 L159.00,2.00 M170.00,198.65 L171.00,198.25 M189.00,18.37 L188.66,18.00 M43.00,202.00 L44.00,202.00 M156.00,2.00 L157.00,2.00 M2.00,169.00 L2.00,168.00 M66.00,2.00 L65.00,2.00 M187.71,17.00 L187.00,16.29 M44.00,2.00 L45.00,2.00 M5.75,33.00 L5.35,34.00 M198.25,171.00 L198.65,170.00 M80.00,202.00 L81.00,202.00 M118.00,202.00 L119.00,202.00 M202.00,189.00 L202.00,190.00 M195.30,27.00 L195.00,26.49 M4.00,166.00 L4.30,167.00 M202.00,10.00 L202.00,11.00 M95.00,2.00 L96.00,2.00 M133.00,2.00 L134.00,2.00 M2.00,33.00 L2.00,32.00 M2.00,197.00 L2.00,196.00 M24.87,194.00 L25.00,194.08 M9.00,177.51 L9.29,178.00 M202.00,202.00 L201.00,202.00 M2.00,40.00 L2.00,39.00 M55.00,202.00 L56.00,202.00 M180.00,10.58 L179.13,10.00 M125.00,202.00 L126.00,202.00 M200.54,40.00 L200.28,39.00 M2.00,26.00 L2.00,25.00 M2.00,183.00 L2.00,182.00 M23.38,193.00 L24.00,193.42 M7.10,30.00 L7.00,30.21 M90.00,2.00 L91.00,2.00 M2.00,17.00 L2.00,16.00 M144.00,2.00 L145.00,2.00 M179.00,9.92 L178.00,9.29 M2.00,3.00 L2.00,2.00 M202.00,174.00 L202.00,175.00 M33.00,202.00 L32.00,202.00 M177.00,195.30 L177.51,195.00 M6.62,31.00 L6.17,32.00 M190.42,184.00 L191.00,183.29 M104.00,202.00 L105.00,202.00 M29.00,7.60 L28.25,8.00 M186.70,16.00 L186.00,15.34 M2.00,170.00 L2.00,169.00 M187.00,16.29 L186.70,16.00 M65.00,2.00 L66.00,2.00 M2.00,43.00 L2.00,42.00 M119.00,2.00 L120.00,2.00 M195.86,28.00 L195.30,27.00 M117.00,2.00 L116.00,2.00 M14.44,185.00 L15.00,185.63 M57.00,202.00 L58.00,202.00 M181.00,202.00 L180.00,202.00 M111.00,202.00 L112.00,202.00 M194.00,2.00 L195.00,2.00 M202.00,168.00 L202.00,169.00 M13.58,184.00 L14.00,184.49 M2.00,198.00 L2.00,197.00 M76.00,2.00 L77.00,2.00 M26.49,9.00 L26.00,9.29 M114.00,2.00 L115.00,2.00 M167.00,202.00 L166.00,202.00 M150.00,202.00 L151.00,202.00 M38.00,200.00 L39.00,200.28 M11.00,202.00 L10.00,202.00 M165.00,200.28 L166.00,200.00 M2.00,192.00 L2.00,191.00 M180.62,193.00 L181.00,192.73 M24.00,2.00 L25.00,2.00 M37.00,4.30 L36.00,4.63 M106.00,202.00 L107.00,202.00 M18.00,202.00 L17.00,202.00 M162.00,2.00 L163.00,2.00 M176.00,202.00 L175.00,202.00 M51.00,2.00 L52.00,2.00 M32.00,197.83 L32.41,198.00 M121.00,2.00 L122.00,2.00 M87.00,202.00 L88.00,202.00 M175.00,2.00 L176.00,2.00 M199.70,167.00 L200.00,166.00 M157.00,202.00 L158.00,202.00 M16.00,17.30 L15.34,18.00 M29.00,196.40 L30.00,196.90 M43.00,202.00 L42.00,202.00 M170.00,202.00 L169.00,202.00 M184.49,14.00 L184.00,13.58 M199.00,202.00 L198.00,202.00 M202.00,187.00 L202.00,188.00 M5.75,171.00 L6.00,171.59 M198.00,171.59 L198.25,171.00 M28.00,195.86 L28.25,196.00 M62.00,2.00 L63.00,2.00 M100.00,2.00 L101.00,2.00 M82.00,202.00 L83.00,202.00 M169.00,202.00 L168.00,202.00 M136.00,202.00 L137.00,202.00 M202.00,21.00 L202.00,22.00 M4.00,202.00 L3.00,202.00 M182.00,202.00 L181.00,202.00 M202.00,15.00 L202.00,16.00 M14.00,2.00 L15.00,2.00 M151.00,2.00 L152.00,2.00 M41.00,2.00 L42.00,2.00 M9.00,202.00 L8.00,202.00 M164.00,202.00 L163.00,202.00 M10.00,179.13 L10.58,180.00 M37.00,202.00 L36.00,202.00 M107.00,2.00 L108.00,2.00 M89.00,202.00 L90.00,202.00 M162.00,200.99 L163.00,200.77 M200.54,164.00 L200.77,163.00 M143.00,202.00 L144.00,202.00 M7.10,174.00 L7.60,175.00 M18.37,15.00 L18.00,15.34 M202.00,172.00 L202.00,173.00 M146.00,2.00 L147.00,2.00 M173.79,7.00 L173.00,6.62 M191.23,183.00 L192.00,182.00 M47.00,202.00 L48.00,202.00 M6.62,173.00 L7.00,173.79 M190.00,184.49 L190.42,184.00 M17.30,16.00 L17.00,16.29 M48.00,2.00 L49.00,2.00 M200.00,202.00 L199.00,202.00 M68.00,202.00 L69.00,202.00 M138.00,202.00 L139.00,202.00 M2.00,171.00 L2.00,170.00 M171.00,202.00 L170.00,202.00 M188.00,2.00 L189.00,2.00 M6.00,2.00 L7.00,2.00 M197.83,172.00 L198.00,171.59 M83.00,2.00 L84.00,2.00 M42.05,3.00 L42.00,3.01 M196.90,30.00 L196.40,29.00 M3.46,40.00 L3.23,41.00 M75.00,202.00 L76.00,202.00 M194.00,24.87 L193.42,24.00 M113.00,202.00 L114.00,202.00 M202.00,3.00 L202.00,4.00 M2.00,35.00 L2.00,34.00 M2.00,199.00 L2.00,198.00 M26.49,195.00 L27.00,195.30 M9.29,26.00 L9.00,26.49 M94.00,2.00 L95.00,2.00 M2.00,9.00 L2.00,8.00 M132.00,2.00 L133.00,2.00 M193.00,23.38 L192.73,23.00 M2.00,21.00 L2.00,20.00 M202.00,163.00 L202.00,164.00 M2.00,193.00 L2.00,192.00 M24.00,10.58 L23.38,11.00 M180.00,193.42 L180.62,193.00 M8.70,27.00 L8.14,28.00 M200.99,162.00 L201.00,161.95 M2.00,27.00 L2.00,26.00 M54.00,202.00 L55.00,202.00 M124.00,202.00 L125.00,202.00 M202.00,183.00 L202.00,184.00 M2.00,13.00 L2.00,12.00 M32.00,202.00 L31.00,202.00 M177.51,9.00 L177.00,8.70 M7.00,2.00 L8.00,2.00 M189.56,185.00 L190.00,184.49 M69.00,2.00 L70.00,2.00 M139.00,2.00 L140.00,2.00 M188.00,186.70 L188.66,186.00 M2.00,2.00 L3.00,2.00 M29.00,202.00 L28.00,202.00 M2.00,164.00 L2.00,163.00 M202.00,193.00 L202.00,194.00 M2.00,19.00 L2.00,18.00 M61.00,202.00 L62.00,202.00 M184.49,190.00 L185.00,189.56 M99.00,202.00 L100.00,202.00 M196.00,2.00 L197.00,2.00 M202.00,28.00 L202.00,29.00 M28.00,202.00 L27.00,202.00 M80.00,2.00 L81.00,2.00 M118.00,2.00 L119.00,2.00 M183.29,191.00 L184.00,190.42 M202.00,22.00 L202.00,23.00 M14.00,19.51 L13.58,20.00 M182.00,2.00 L183.00,2.00 M194.08,179.00 L194.71,178.00 M27.00,2.00 L28.00,2.00 M41.00,3.23 L40.00,3.46 M110.00,202.00 L111.00,202.00 M10.00,202.00 L9.00,202.00 M166.00,2.00 L167.00,2.00 M2.00,194.00 L2.00,193.00 M179.13,194.00 L180.00,193.42 M55.00,2.00 L56.00,2.00 M23.00,2.00 L24.00,2.00 M125.00,2.00 L126.00,2.00 M202.00,185.00 L202.00,186.00 M178.00,2.00 L179.00,2.00 M145.00,202.00 L146.00,202.00 M34.00,2.00 L35.00,2.00 M18.37,189.00 L19.00,189.56 M32.41,6.00 L32.00,6.17 M173.79,197.00 L174.00,196.90 M175.00,196.40 L175.75,196.00 M49.00,202.00 L50.00,202.00 M17.30,188.00 L18.00,188.66 M200.00,2.00 L201.00,2.00 M31.00,197.38 L32.00,197.83 M50.00,2.00 L51.00,2.00 M104.00,2.00 L105.00,2.00 M86.00,202.00 L87.00,202.00 M172.00,202.00 L171.00,202.00 M156.00,202.00 L157.00,202.00 M202.00,37.00 L202.00,38.00 M171.00,2.00 L172.00,2.00 M6.00,32.41 L5.75,33.00 M185.00,202.00 L184.00,202.00 M198.25,33.00 L198.00,32.41 M28.25,8.00 L28.00,8.14 M202.00,32.00 L202.00,33.00 M42.05,201.00 L43.00,202.00 M202.00,23.00 L202.00,24.00 M3.46,164.00 L3.72,165.00 M181.00,11.27 L180.62,11.00 M13.00,2.00 L14.00,2.00 M57.00,2.00 L58.00,2.00 M111.00,2.00 L112.00,2.00 M93.00,202.00 L94.00,202.00 M166.00,200.00 L167.00,199.70 M202.00,4.00 L202.00,5.00 M131.00,202.00 L132.00,202.00 M9.29,178.00 L9.92,179.00 M10.58,24.00 L10.00,24.87 M150.00,2.00 L151.00,2.00 M163.00,2.00 L164.00,2.00 M36.00,2.00 L37.00,2.00 M8.70,177.00 L9.00,177.51 M200.77,41.00 L200.54,40.00 M20.00,190.42 L20.71,191.00 M36.00,202.00 L35.00,202.00 M106.00,2.00 L107.00,2.00 M72.00,202.00 L73.00,202.00 M142.00,202.00 L143.00,202.00 M202.00,173.00 L202.00,174.00 M202.00,161.00 L202.00,162.00 M7.00,30.21 L6.62,31.00 M174.00,202.00 L173.00,202.00 M190.42,20.00 L190.00,19.51 M18.00,2.00 L19.00,2.00 M199.37,168.00 L199.70,167.00 M87.00,2.00 L88.00,2.00 M157.00,2.00 L158.00,2.00 M46.00,202.00 L47.00,202.00 M198.65,34.00 L198.25,33.00 M155.00,2.00 L156.00,2.00 M2.00,165.00 L2.00,164.00 M170.00,5.35 L169.06,5.00 M43.00,2.00 L42.05,3.00 M5.00,169.06 L5.35,170.00 M202.00,25.00 L202.00,26.00 M79.00,202.00 L80.00,202.00 M168.00,199.37 L169.00,199.02 M196.00,28.25 L195.86,28.00 M197.00,2.00 L198.00,2.00 M117.00,202.00 L118.00,202.00 M3.72,39.00 L3.46,40.00 M82.00,2.00 L83.00,2.00 M136.00,2.00 L137.00,2.00 M195.00,202.00 L194.00,202.00 M27.00,8.70 L26.49,9.00 M194.00,179.13 L194.08,179.00 M3.01,42.00 L3.00,42.05 M202.00,8.00 L202.00,9.00 M2.00,36.00 L2.00,35.00 M74.00,202.00 L75.00,202.00 M128.00,202.00 L129.00,202.00 M202.00,165.00 L202.00,166.00 M92.00,202.00 L91.00,202.00 M2.00,23.00 L2.00,22.00 M2.00,195.00 L2.00,194.00 M23.00,11.27 L22.00,12.00 M180.62,11.00 L180.00,10.58 M9.00,2.00 L10.00,2.00 M200.28,165.00 L200.54,164.00 M89.00,2.00 L90.00,2.00 M2.00,38.00 L2.00,37.00 M143.00,2.00 L144.00,2.00 M202.00,197.00 L202.00,198.00 M191.00,2.00 L192.00,2.00 M2.00,16.00 L2.00,15.00 M32.41,198.00 L33.00,198.25 M6.00,171.59 L6.17,172.00 M175.00,202.00 L174.00,202.00 M103.00,202.00 L104.00,202.00 M188.66,18.00 L188.00,17.30 M31.00,202.00 L30.00,202.00 M2.00,166.00 L2.00,165.00 M68.00,2.00 L69.00,2.00 M2.00,30.00 L2.00,29.00 M138.00,2.00 L139.00,2.00 M186.00,202.00 L185.00,202.00 M202.00,38.00 L202.00,39.00 M2.00,42.00 L2.00,41.00 M185.00,2.00 L186.00,2.00 M28.25,196.00 L29.00,196.40 M196.40,175.00 L196.90,174.00 M2.00,8.00 L2.00,7.00 M60.00,202.00 L61.00,202.00 M98.00,202.00 L99.00,202.00 M13.00,20.71 L12.77,21.00 M182.00,192.00 L183.00,191.23 M193.42,180.00 L194.00,179.13 M26.00,2.00 L27.00,2.00 M75.00,2.00 L76.00,2.00 M113.00,2.00 L114.00,2.00 M202.00,167.00 L202.00,168.00 M192.00,182.00 L192.73,181.00 M149.00,202.00 L150.00,202.00 M37.00,199.70 L38.00,200.00 M10.58,180.00 L11.00,180.62 M2.00,188.00 L2.00,187.00 M23.00,192.73 L23.38,193.00 M36.00,4.63 L35.00,4.98 M163.00,3.23 L162.00,3.01 M143.00,202.00 L142.00,202.00 M178.00,194.71 L179.00,194.08 M105.00,202.00 L106.00,202.00 M202.00,171.00 L202.00,172.00 M20.00,202.00 L19.00,202.00 M22.00,2.00 L23.00,2.00 M54.00,2.00 L55.00,2.00 M124.00,2.00 L125.00,2.00 M161.95,201.00 L162.00,200.99 M160.00,202.00 L161.00,202.00 M18.00,15.34 L17.30,16.00 M174.00,2.00 L175.00,2.00 M176.00,8.14 L175.75,8.00 M200.00,166.00 L200.28,165.00 M32.00,2.00 L33.00,2.00 M202.00,39.00 L202.00,40.00 M5.00,202.00 L4.00,202.00 M171.00,198.25 L171.59,198.00 M184.00,202.00 L183.00,202.00 M61.00,2.00 L62.00,2.00 M27.00,195.30 L28.00,195.86 M202.00,26.00 L202.00,27.00 M99.00,2.00 L100.00,2.00 M202.00,181.00 L202.00,182.00 M81.00,202.00 L82.00,202.00 M183.00,2.00 L184.00,2.00 M197.00,30.21 L196.90,30.00 M135.00,202.00 L136.00,202.00 M3.72,165.00 L4.00,166.00 M13.00,183.29 L13.58,184.00 "/>

<script>
let svgs = document.children[0];
let paths = Array.from(svgs.children).filter(function(c) {
    var orig = c.style.stroke;
    c.onmouseover = function() {
        c.style.stroke = "rgb(0, 0, 255)";
    };
    c.onmouseout = function () {
        c.style.stroke = orig;
    };
    c.onclick = function () {
        svgs.removeChild()
    }
});

for (let path of paths) {
    console.log(path);
}
</script></svg>