<svg xmlns="http://www.w3.org/2000/svg">
    <path fill-rule="evenodd" style="fill: none; stroke: rgb(0, 0, 0); stroke-width: 0.2;" d="M50.00000,16.00000 L49.69676,17.00000 L49.37063,18.00000 L49.02125,19.00000 L49.00000,19.05733 L48.64730,20.00000 L48.24903,21.00000 L48.00000,21.59069 L47.82550,22.00000 L47.37575,23.00000 L47.00000,23.79141 L46.89969,24.00000 L46.39538,25.00000 L46.00000,25.74557 L45.86311,26.00000 L45.30067,27.00000 L45.00000,27.51108 L44.70765,28.00000 L44.08299,29.00000 L44.00000,29.12788 L43.42371,30.00000 L43.00000,30.61539 L42.73000,31.00000 L42.00000,32.00000 L41.22923,33.00000 L41.00000,33.28699 L40.41745,34.00000 L40.00000,34.49393 L39.56185,35.00000 L39.00000,35.62844 L38.65918,36.00000 L38.00000,36.69712 L37.70571,37.00000 L37.00000,37.70571 L36.69712,38.00000 L36.00000,38.65918 L35.62844,39.00000 L35.00000,39.56185 L34.49393,40.00000 L34.00000,40.41745 L33.28699,41.00000 L33.00000,41.22923 L32.00000,42.00000 L31.00000,42.73000 L30.61539,43.00000 L30.00000,43.42371 L29.12788,44.00000 L29.00000,44.08299 L28.00000,44.70765 L27.51108,45.00000 L27.00000,45.30067 L26.00000,45.86311 L25.74557,46.00000 L25.00000,46.39538 L24.00000,46.89969 L23.79141,47.00000 L23.00000,47.37575 L22.00000,47.82550 L21.59069,48.00000 L21.00000,48.24903 L20.00000,48.64730 L19.05733,49.00000 L19.00000,49.02125 L18.00000,49.37063 L17.00000,49.69676 L16.00000,50.00000 L15.00000,50.28029 L14.00000,50.53849 L13.00000,50.77491 L12.00000,50.98979 L11.94747,51.00000 L11.00000,51.18328 L10.00000,51.35579 L9.00000,51.50753 L8.00000,51.63866 L7.00000,51.74935 L6.00000,51.83973 L5.00000,51.90992 L4.00000,51.95998 L3.00000,51.99000 L2.01000,51.00000 L2.04002,50.00000 L2.09009,49.00000 L2.16027,48.00000 L2.25065,47.00000 L2.36134,46.00000 L2.49247,45.00000 L2.64421,44.00000 L2.81672,43.00000 L3.00000,42.05253 L3.01021,42.00000 L3.22509,41.00000 L3.46150,40.00000 L3.71971,39.00000 L4.00000,38.00000 L4.30324,37.00000 L4.62937,36.00000 L4.97875,35.00000 L5.00000,34.94267 L5.35270,34.00000 L5.75097,33.00000 L6.00000,32.40931 L6.17450,32.00000 L6.62425,31.00000 L7.00000,30.20859 L7.10031,30.00000 L7.60462,29.00000 L8.00000,28.25443 L8.13689,28.00000 L8.69933,27.00000 L9.00000,26.48892 L9.29235,26.00000 L9.91701,25.00000 L10.00000,24.87212 L10.57629,24.00000 L11.00000,23.38461 L11.27000,23.00000 L12.00000,22.00000 L12.77077,21.00000 L13.00000,20.71301 L13.58255,20.00000 L14.00000,19.50607 L14.43815,19.00000 L15.00000,18.37156 L15.34082,18.00000 L16.00000,17.30288 L16.29429,17.00000 L17.00000,16.29429 L17.30288,16.00000 L18.00000,15.34082 L18.37156,15.00000 L19.00000,14.43815 L19.50607,14.00000 L20.00000,13.58255 L20.71301,13.00000 L21.00000,12.77077 L22.00000,12.00000 L23.00000,11.27000 L23.38461,11.00000 L24.00000,10.57629 L24.87212,10.00000 L25.00000,9.91701 L26.00000,9.29235 L26.48892,9.00000 L27.00000,8.69933 L28.00000,8.13689 L28.25443,8.00000 L29.00000,7.60462 L30.00000,7.10031 L30.20859,7.00000 L31.00000,6.62425 L32.00000,6.17450 L32.40931,6.00000 L33.00000,5.75097 L34.00000,5.35270 L34.94267,5.00000 L35.00000,4.97875 L36.00000,4.62937 L37.00000,4.30324 L38.00000,4.00000 L39.00000,3.71971 L40.00000,3.46150 L41.00000,3.22509 L42.00000,3.01021 L42.05253,3.00000 L43.00000,2.81672 L44.00000,2.64421 L45.00000,2.49247 L46.00000,2.36134 L47.00000,2.25065 L48.00000,2.16027 L49.00000,2.09009 L50.00000,2.04002 L51.00000,2.01000 L51.99000,3.00000 L51.95998,4.00000 L51.90992,5.00000 L51.83973,6.00000 L51.74935,7.00000 L51.63866,8.00000 L51.50753,9.00000 L51.35579,10.00000 L51.18328,11.00000 L51.00000,11.94747 L50.98979,12.00000 L50.77491,13.00000 L50.53849,14.00000 L50.28029,15.00000 L50.00000,16.00000 "/>

<script>
let svgs = document.children[0];
let paths = Array.from(svgs.children).filter(function(c) {
    var orig = c.style.stroke;
    c.onmouseover = function() {
        c.style.stroke = "rgb(0, 0, 255)";
    };
    c.onmouseout = function () {
        c.style.stroke = orig;
    };
    c.onclick = function () {
        svgs.removeChild()
    }
});

for (let path of paths) {
    console.log(path);
}
</script></svg>