<svg xmlns="http://www.w3.org/2000/svg">
    <path fill-rule="evenodd" d="M1.00,1.00 L1.00,52.00 L1.00,43.00 L2.00,42.05 L2.72,39.00 L4.35,34.00 L6.60,29.00 L9.58,24.00 L12.58,20.00 L18.00,14.34 L23.00,10.27 L28.00,7.14 L32.00,5.17 L37.00,3.30 L42.00,2.01 L43.00,1.00 L1.00,1.00 M159.95,200.00 L160.00,201.00 L201.00,201.00 L201.00,161.00 L201.00,160.00 L200.00,159.95 L199.28,163.00 L197.65,168.00 L195.40,173.00 L192.42,178.00 L189.42,182.00 L184.00,187.66 L179.00,191.73 L174.00,194.86 L170.00,196.83 L165.00,198.70 L159.95,200.00 M201.00,31.00 L201.00,32.00 L201.00,31.00 M201.00,28.00 L201.00,29.00 L201.00,28.00 M201.00,37.00 L201.00,38.00 L201.00,37.00 M201.00,150.00 L201.00,156.00 L201.00,150.00 M201.00,34.00 L201.00,35.00 L201.00,34.00 M201.00,181.00 L201.00,185.00 L201.00,181.00 M201.00,193.00 L201.00,197.00 L201.00,193.00 M201.00,168.00 L201.00,173.00 L201.00,168.00 M150.00,1.00 L156.00,1.00 L150.00,1.00 M159.95,2.00 L163.00,2.72 L168.00,4.35 L173.00,6.60 L178.00,9.58 L182.00,12.58 L187.66,18.00 L191.73,23.00 L194.86,28.00 L196.83,32.00 L198.70,37.00 L199.99,42.00 L201.00,43.00 L201.00,26.00 L201.00,1.00 L160.00,1.00 L159.95,2.00 M1.00,160.00 L1.00,201.00 L52.00,201.00 L43.00,201.00 L42.05,200.00 L39.00,199.28 L34.00,197.65 L29.00,195.40 L24.00,192.42 L20.00,189.42 L14.34,184.00 L10.27,179.00 L7.14,174.00 L5.17,170.00 L3.30,165.00 L2.00,159.95 L1.00,160.00 M201.00,40.00 L201.00,41.00 L201.00,40.00 "/>
</svg>