<svg xmlns="http://www.w3.org/2000/svg">
    <path fill-rule="evenodd" d="M1,1 L1,52 L1.00002121925354,43 L2,42.05253219604492 L2.7197093963623047,39 L4.35270357131958,34 L6.6046223640441895,29 L9.57629108428955,24 L12.582549095153809,20 L18,14.340818405151367 L23,10.26999568939209 L28,7.1368913650512695 L32,5.174497127532959 L37,3.303239583969116 L42,2.0102086067199707 L43,1 L1,1 M159.9474639892578,200 L160,201 L201,201 L201,161 L201,160 L200,159.9474639892578 L199.28028869628906,163 L197.6472930908203,168 L195.39537048339844,173 L192.4237060546875,178 L189.41744995117188,182 L184,187.6591796875 L179,191.73001098632813 L174,194.8631134033203 L170,196.82550048828125 L165,198.69676208496094 L159.9474639892578,200 M201,31 L201,32 L201,31 M201,28 L201,29 L201,28 M201,37 L201,38 L201,37 M201,150 L201,156 L201,150 M201,34 L201,35 L201,34 M201,181 L201,185 L201,181 M201,193 L201,197 L201,193 M201,168 L201,173 L201,168 M150,1 L156,1 L150,1 M159.9474639892578,2 L163,2.7197093963623047 L168,4.35270357131958 L173,6.6046223640441895 L178,9.57629108428955 L182,12.582549095153809 L187.6591796875,18 L191.73001098632813,23 L194.8631134033203,28 L196.82550048828125,32 L198.69676208496094,37 L199.9897918701172,42 L201,43 L201,26 L201,1 L160,1 L159.9474639892578,2 M1,160 L1,201 L52,201 L43,200.99998474121094 L42.05253219604492,200 L39,199.28028869628906 L34,197.6472930908203 L29,195.39537048339844 L24,192.4237060546875 L20,189.41744995117188 L14.340818405151367,184 L10.26999568939209,179 L7.1368913650512695,174 L5.174497127532959,170 L3.303239583969116,165 L2,159.9474639892578 L1,160 M201,40 L201,41 L201,40 "/>
</svg>