<svg xmlns="http://www.w3.org/2000/svg">
    <path fill-rule="evenodd" d="M220,175 L220,169 L220,175 M27,45.48891830444336 L27.292346954345703,45 L28.576292037963867,43 L31.582550048828125,39 L37,33.340816497802734 L42,29.269996643066406 L47,26.136892318725586 L51,24.174497604370117 L56,22.303239822387695 L61,21.010208129882813 L62,20 L20,20 L20.00002098083496,62 L21,61.05253219604492 L21.225093841552734,60 L22.62937355041504,55 L24.624248504638672,50 L27,45.48891830444336 M220,53 L220,20 L179,20 L178.9474639892578,21 L184,22.303239822387695 L189,24.174497604370117 L193,26.136892318725586 L198,29.269996643066406 L203,33.340816497802734 L208.41744995117188,39 L211.4237060546875,43 L214.39537048339844,48 L216.6472930908203,53 L218.28028869628906,58 L219,61.05253219604492 L220,62 L220,54 L220,53 M62,220 L59,220.00001525878906 L62,220 M169,20 L175,20 L169,20 M20,71 L19.999996185302734,62 L20,71 M220.00001525878906,199 L220.00001525878906,205 L220.00001525878906,199 M220.00001525878906,186 L220.00001525878906,193 L220.00001525878906,186 M220.00001525878906,219 L220.00001525878906,183 L220,179 L219,178.9474639892578 L218.28028869628906,182 L216.6472930908203,187 L214.39537048339844,192 L211.4237060546875,197 L208.41744995117188,201 L203,206.6591796875 L198,210.73001098632813 L193,213.8631134033203 L189,215.82550048828125 L184,217.69676208496094 L178.9474639892578,219 L179,220 L220,220 L220.00001525878906,219 M220.00001525878906,217 L220.00001525878906,211 L220.00001525878906,217 M56,220.00001525878906 L47,220.00001525878906 L56,220.00001525878906 M21,220.00001525878906 L20,220 L20,179 L21,178.9474639892578 L22.303239822387695,184 L24.174497604370117,189 L26.136892318725586,193 L29.269996643066406,198 L33.340816497802734,203 L39,208.41744995117188 L43,211.4237060546875 L48,214.39537048339844 L53,216.6472930908203 L58,218.28028869628906 L61.05253219604492,219 L62,219.99998474121094 L71,220 L21,220.00001525878906 M30,220.00001525878906 L23,220.00001525878906 L30,220.00001525878906 M43,220.00001525878906 L35,220.00001525878906 L43,220.00001525878906 "/>
</svg>