<svg xmlns="http://www.w3.org/2000/svg">
    <path fill-rule="evenodd" style="fill: none; stroke: rgb(0, 0, 0); stroke-width: 0.2;" d="M2.00,102.00 L2.00,101.00 M2.00,101.00 L2.02,100.00 M2.00,103.00 L2.00,102.00 M2.02,100.00 L2.05,99.00 M2.02,104.00 L2.00,103.00 M2.05,99.00 L2.08,98.00 M2.05,105.00 L2.02,104.00 M2.08,98.00 L2.13,97.00 M2.08,106.00 L2.05,105.00 M2.13,97.00 L2.18,96.00 M2.13,107.00 L2.08,106.00 M2.18,96.00 L2.25,95.00 M2.18,108.00 L2.13,107.00 M2.25,95.00 L2.32,94.00 M2.25,109.00 L2.18,108.00 M2.32,94.00 L2.41,93.00 M2.32,110.00 L2.25,109.00 M2.41,93.00 L2.50,92.00 M2.41,111.00 L2.32,110.00 M2.50,92.00 L2.61,91.00 M2.50,112.00 L2.41,111.00 M2.61,91.00 L2.72,90.00 M2.61,113.00 L2.50,112.00 M2.72,90.00 L2.85,89.00 M2.72,114.00 L2.61,113.00 M2.85,89.00 L2.98,88.00 M2.85,115.00 L2.72,114.00 M2.98,88.00 L3.00,87.90 M2.98,116.00 L2.85,115.00 M3.00,87.90 L3.13,87.00 M3.00,116.10 L2.98,116.00 M3.13,87.00 L3.29,86.00 M3.13,117.00 L3.00,116.10 M3.29,86.00 L3.46,85.00 M3.29,118.00 L3.13,117.00 M3.46,85.00 L3.63,84.00 M3.46,119.00 L3.29,118.00 M3.63,84.00 L3.82,83.00 M3.63,120.00 L3.46,119.00 M3.82,83.00 L4.00,82.10 M3.82,121.00 L3.63,120.00 M4.00,82.10 L4.02,82.00 M4.00,121.90 L3.82,121.00 M4.02,82.00 L4.23,81.00 M4.02,122.00 L4.00,121.90 M4.23,81.00 L4.45,80.00 M4.23,123.00 L4.02,122.00 M4.45,80.00 L4.68,79.00 M4.45,124.00 L4.23,123.00 M4.68,79.00 L4.92,78.00 M4.68,125.00 L4.45,124.00 M4.92,78.00 L5.00,77.69 M4.92,126.00 L4.68,125.00 M5.00,77.69 L5.18,77.00 M5.00,126.31 L4.92,126.00 M5.18,77.00 L5.44,76.00 M5.18,127.00 L5.00,126.31 M5.44,76.00 L5.71,75.00 M5.44,128.00 L5.18,127.00 M5.71,75.00 L6.00,74.00 M5.71,129.00 L5.44,128.00 M6.00,74.00 L6.30,73.00 M6.00,130.00 L5.71,129.00 M6.30,73.00 L6.61,72.00 M6.30,131.00 L6.00,130.00 M6.61,72.00 L6.93,71.00 M6.61,132.00 L6.30,131.00 M6.93,71.00 L7.00,70.78 M6.93,133.00 L6.61,132.00 M7.00,70.78 L7.26,70.00 M7.00,133.22 L6.93,133.00 M7.26,70.00 L7.60,69.00 M7.26,134.00 L7.00,133.22 M7.60,69.00 L7.96,68.00 M7.60,135.00 L7.26,134.00 M7.96,68.00 L8.00,67.88 M7.96,136.00 L7.60,135.00 M8.00,67.88 L8.33,67.00 M8.00,136.12 L7.96,136.00 M8.33,67.00 L8.70,66.00 M8.33,137.00 L8.00,136.12 M8.70,66.00 L9.00,65.25 M8.70,138.00 L8.33,137.00 M9.00,65.25 L9.10,65.00 M9.00,138.75 L8.70,138.00 M9.10,65.00 L9.50,64.00 M9.10,139.00 L9.00,138.75 M9.50,64.00 L9.92,63.00 M9.50,140.00 L9.10,139.00 M9.92,63.00 L10.00,62.81 M9.92,141.00 L9.50,140.00 M10.00,62.81 L10.35,62.00 M10.00,141.19 L9.92,141.00 M10.35,142.00 L10.00,141.19 M10.35,62.00 L10.79,61.00 M10.79,61.00 L11.00,60.54 M10.79,143.00 L10.35,142.00 M11.00,60.54 L11.25,60.00 M11.00,143.46 L10.79,143.00 M11.25,60.00 L11.72,59.00 M11.25,144.00 L11.00,143.46 M11.72,59.00 L12.00,58.41 M11.72,145.00 L11.25,144.00 M12.00,58.41 L12.20,58.00 M12.00,145.59 L11.72,145.00 M12.20,58.00 L12.70,57.00 M12.20,146.00 L12.00,145.59 M12.70,57.00 L13.00,56.41 M12.70,147.00 L12.20,146.00 M13.00,56.41 L13.21,56.00 M13.00,147.59 L12.70,147.00 M13.21,56.00 L13.73,55.00 M13.21,148.00 L13.00,147.59 M13.73,55.00 L14.00,54.50 M13.73,149.00 L13.21,148.00 M14.00,54.50 L14.27,54.00 M14.00,149.50 L13.73,149.00 M14.27,54.00 L14.83,53.00 M14.27,150.00 L14.00,149.50 M14.83,53.00 L15.00,52.70 M14.83,151.00 L14.27,150.00 M15.00,52.70 L15.40,52.00 M15.00,151.30 L14.83,151.00 M15.40,52.00 L15.98,51.00 M15.40,152.00 L15.00,151.30 M15.98,51.00 L16.00,50.97 M15.98,153.00 L15.40,152.00 M16.00,50.97 L16.58,50.00 M16.00,153.03 L15.98,153.00 M16.58,50.00 L17.00,49.32 M16.58,154.00 L16.00,153.03 M17.00,49.32 L17.20,49.00 M17.00,154.68 L16.58,154.00 M17.20,49.00 L17.83,48.00 M17.20,155.00 L17.00,154.68 M17.83,48.00 L18.00,47.74 M17.83,156.00 L17.20,155.00 M18.00,47.74 L18.48,47.00 M18.00,156.26 L17.83,156.00 M18.48,47.00 L19.00,46.22 M18.48,157.00 L18.00,156.26 M19.00,46.22 L19.15,46.00 M19.00,157.78 L18.48,157.00 M19.15,46.00 L19.84,45.00 M19.15,158.00 L19.00,157.78 M19.84,45.00 L20.00,44.76 M19.84,159.00 L19.15,158.00 M20.00,44.76 L20.54,44.00 M20.00,159.24 L19.84,159.00 M20.54,44.00 L21.00,43.36 M20.54,160.00 L20.00,159.24 M21.00,43.36 L21.26,43.00 M21.00,160.64 L20.54,160.00 M21.26,43.00 L22.00,42.00 M21.26,161.00 L21.00,160.64 M22.00,42.00 L22.76,41.00 M22.00,162.00 L21.26,161.00 M22.76,41.00 L23.00,40.69 M22.76,163.00 L22.00,162.00 M23.00,40.69 L23.54,40.00 M23.00,163.31 L22.76,163.00 M23.54,40.00 L24.00,39.42 M23.54,164.00 L23.00,163.31 M24.00,39.42 L24.34,39.00 M24.00,164.58 L23.54,164.00 M24.34,39.00 L25.00,38.20 M24.34,165.00 L24.00,164.58 M25.00,38.20 L25.16,38.00 M25.00,165.80 L24.34,165.00 M25.16,38.00 L26.00,37.01 M25.16,166.00 L25.00,165.80 M26.00,37.01 L26.01,37.00 M26.00,166.99 L25.16,166.00 M26.01,37.00 L26.87,36.00 M26.01,167.00 L26.00,166.99 M26.87,36.00 L27.00,35.86 M26.87,168.00 L26.01,167.00 M27.00,35.86 L27.76,35.00 M27.00,168.14 L26.87,168.00 M27.76,35.00 L28.00,34.74 M27.76,169.00 L27.00,168.14 M28.00,34.74 L28.68,34.00 M28.00,169.26 L27.76,169.00 M28.68,34.00 L29.00,33.66 M28.68,170.00 L28.00,169.26 M29.00,33.66 L29.62,33.00 M29.00,170.34 L28.68,170.00 M29.62,33.00 L30.00,32.60 M29.62,171.00 L29.00,170.34 M30.00,32.60 L30.59,32.00 M30.00,171.40 L29.62,171.00 M30.59,32.00 L31.00,31.58 M30.59,172.00 L30.00,171.40 M31.00,31.58 L31.58,31.00 M31.00,172.42 L30.59,172.00 M31.58,31.00 L32.00,30.59 M31.58,173.00 L31.00,172.42 M32.00,30.59 L32.60,30.00 M32.00,173.41 L31.58,173.00 M32.60,30.00 L33.00,29.62 M32.60,174.00 L32.00,173.41 M33.00,29.62 L33.66,29.00 M33.00,174.38 L32.60,174.00 M33.66,29.00 L34.00,28.68 M33.66,175.00 L33.00,174.38 M34.00,28.68 L34.74,28.00 M34.00,175.32 L33.66,175.00 M34.74,28.00 L35.00,27.76 M34.74,176.00 L34.00,175.32 M35.00,27.76 L35.86,27.00 M35.00,176.24 L34.74,176.00 M35.86,27.00 L36.00,26.87 M35.86,177.00 L35.00,176.24 M36.00,26.87 L37.00,26.01 M36.00,177.13 L35.86,177.00 M37.00,26.01 L37.01,26.00 M37.00,177.99 L36.00,177.13 M37.01,26.00 L38.00,25.16 M37.01,178.00 L37.00,177.99 M38.00,25.16 L38.20,25.00 M38.00,178.84 L37.01,178.00 M38.20,25.00 L39.00,24.34 M38.20,179.00 L38.00,178.84 M39.00,24.34 L39.42,24.00 M39.00,179.66 L38.20,179.00 M39.42,24.00 L40.00,23.54 M39.42,180.00 L39.00,179.66 M40.00,23.54 L40.69,23.00 M40.00,180.46 L39.42,180.00 M40.69,23.00 L41.00,22.76 M40.69,181.00 L40.00,180.46 M41.00,22.76 L42.00,22.00 M41.00,181.24 L40.69,181.00 M42.00,22.00 L43.00,21.26 M42.00,182.00 L41.00,181.24 M43.00,21.26 L43.36,21.00 M43.00,182.74 L42.00,182.00 M43.36,21.00 L44.00,20.54 M43.36,183.00 L43.00,182.74 M44.00,20.54 L44.76,20.00 M44.00,183.46 L43.36,183.00 M44.76,20.00 L45.00,19.84 M44.76,184.00 L44.00,183.46 M45.00,19.84 L46.00,19.15 M45.00,184.16 L44.76,184.00 M46.00,19.15 L46.22,19.00 M46.00,184.85 L45.00,184.16 M46.22,19.00 L47.00,18.48 M46.22,185.00 L46.00,184.85 M47.00,18.48 L47.74,18.00 M47.00,185.52 L46.22,185.00 M47.74,18.00 L48.00,17.83 M47.74,186.00 L47.00,185.52 M48.00,17.83 L49.00,17.20 M48.00,186.17 L47.74,186.00 M49.00,17.20 L49.32,17.00 M49.00,186.80 L48.00,186.17 M49.32,17.00 L50.00,16.58 M49.32,187.00 L49.00,186.80 M50.00,16.58 L50.97,16.00 M50.00,187.42 L49.32,187.00 M50.97,16.00 L51.00,15.98 M50.97,188.00 L50.00,187.42 M51.00,15.98 L52.00,15.40 M51.00,188.02 L50.97,188.00 M52.00,15.40 L52.70,15.00 M52.00,188.60 L51.00,188.02 M52.70,15.00 L53.00,14.83 M52.70,189.00 L52.00,188.60 M53.00,14.83 L54.00,14.27 M53.00,189.17 L52.70,189.00 M54.00,14.27 L54.50,14.00 M54.00,189.73 L53.00,189.17 M54.50,14.00 L55.00,13.73 M54.50,190.00 L54.00,189.73 M55.00,13.73 L56.00,13.21 M55.00,190.27 L54.50,190.00 M56.00,13.21 L56.41,13.00 M56.00,190.79 L55.00,190.27 M56.41,13.00 L57.00,12.70 M56.41,191.00 L56.00,190.79 M57.00,12.70 L58.00,12.20 M57.00,191.30 L56.41,191.00 M58.00,12.20 L58.41,12.00 M58.00,191.80 L57.00,191.30 M58.41,12.00 L59.00,11.72 M58.41,192.00 L58.00,191.80 M59.00,11.72 L60.00,11.25 M59.00,192.28 L58.41,192.00 M60.00,11.25 L60.54,11.00 M60.00,192.75 L59.00,192.28 M60.54,11.00 L61.00,10.79 M60.54,193.00 L60.00,192.75 M61.00,10.79 L62.00,10.35 M61.00,193.46 L60.54,193.00 M61.25,194.00 L61.00,193.46 M61.72,195.00 L61.25,194.00 M62.00,10.35 L62.81,10.00 M62.00,195.59 L61.72,195.00 M62.20,196.00 L62.00,195.59 M62.70,197.00 L62.20,196.00 M62.81,10.00 L63.00,9.92 M63.00,9.92 L64.00,9.50 M63.00,197.59 L62.70,197.00 M63.21,198.00 L63.00,197.59 M63.73,199.00 L63.21,198.00 M64.00,9.50 L65.00,9.10 M64.00,199.50 L63.73,199.00 M64.27,200.00 L64.00,199.50 M64.83,201.00 L64.27,200.00 M65.00,9.10 L65.25,9.00 M65.00,201.30 L64.83,201.00 M65.25,9.00 L66.00,8.70 M65.40,202.00 L65.00,201.30 M65.98,203.00 L65.40,202.00 M66.00,8.70 L67.00,8.33 M66.00,203.03 L65.98,203.00 M66.58,204.00 L66.00,203.03 M67.00,8.33 L67.88,8.00 M67.00,204.68 L66.58,204.00 M67.20,205.00 L67.00,204.68 M67.83,206.00 L67.20,205.00 M67.88,8.00 L68.00,7.96 M68.00,7.96 L69.00,7.60 M68.00,206.26 L67.83,206.00 M68.48,207.00 L68.00,206.26 M69.00,7.60 L70.00,7.26 M69.00,207.78 L68.48,207.00 M69.15,208.00 L69.00,207.78 M69.84,209.00 L69.15,208.00 M70.00,7.26 L70.78,7.00 M70.00,209.24 L69.84,209.00 M70.54,210.00 L70.00,209.24 M70.78,7.00 L71.00,6.93 M71.00,6.93 L72.00,6.61 M71.00,210.64 L70.54,210.00 M71.26,211.00 L71.00,210.64 M72.00,6.61 L73.00,6.30 M72.00,212.00 L71.26,211.00 M72.76,213.00 L72.00,212.00 M73.00,6.30 L74.00,6.00 M73.00,213.31 L72.76,213.00 M73.54,214.00 L73.00,213.31 M74.00,6.00 L75.00,5.71 M74.00,214.58 L73.54,214.00 M74.34,215.00 L74.00,214.58 M75.00,5.71 L76.00,5.44 M75.00,215.80 L74.34,215.00 M75.16,216.00 L75.00,215.80 M76.00,5.44 L77.00,5.18 M76.00,216.99 L75.16,216.00 M76.01,217.00 L76.00,216.99 M76.87,218.00 L76.01,217.00 M77.00,5.18 L77.69,5.00 M77.00,218.14 L76.87,218.00 M77.69,5.00 L78.00,4.92 M77.76,219.00 L77.00,218.14 M78.00,4.92 L79.00,4.68 M78.00,219.26 L77.76,219.00 M78.68,220.00 L78.00,219.26 M79.00,4.68 L80.00,4.45 M79.00,220.34 L78.68,220.00 M79.62,221.00 L79.00,220.34 M80.00,4.45 L81.00,4.23 M80.00,221.40 L79.62,221.00 M80.59,222.00 L80.00,221.40 M81.00,4.23 L82.00,4.02 M81.00,222.42 L80.59,222.00 M81.58,223.00 L81.00,222.42 M82.00,4.02 L82.10,4.00 M82.00,223.41 L81.58,223.00 M82.10,4.00 L83.00,3.82 M82.60,224.00 L82.00,223.41 M83.00,3.82 L84.00,3.63 M83.00,224.38 L82.60,224.00 M83.66,225.00 L83.00,224.38 M84.00,3.63 L85.00,3.46 M84.00,225.32 L83.66,225.00 M84.74,226.00 L84.00,225.32 M85.00,3.46 L86.00,3.29 M85.00,226.24 L84.74,226.00 M85.86,227.00 L85.00,226.24 M86.00,3.29 L87.00,3.13 M86.00,227.13 L85.86,227.00 M87.00,3.13 L87.90,3.00 M87.00,227.99 L86.00,227.13 M87.01,228.00 L87.00,227.99 M87.90,3.00 L88.00,2.98 M88.00,2.98 L89.00,2.85 M88.00,228.84 L87.01,228.00 M88.20,229.00 L88.00,228.84 M89.00,2.85 L90.00,2.72 M89.00,229.66 L88.20,229.00 M89.42,230.00 L89.00,229.66 M90.00,2.72 L91.00,2.61 M90.00,230.46 L89.42,230.00 M90.69,231.00 L90.00,230.46 M91.00,2.61 L92.00,2.50 M91.00,231.24 L90.69,231.00 M92.00,2.50 L93.00,2.41 M92.00,232.00 L91.00,231.24 M93.00,2.41 L94.00,2.32 M93.00,232.74 L92.00,232.00 M93.36,233.00 L93.00,232.74 M94.00,2.32 L95.00,2.25 M94.00,233.46 L93.36,233.00 M94.76,234.00 L94.00,233.46 M95.00,2.25 L96.00,2.18 M95.00,234.16 L94.76,234.00 M96.00,2.18 L97.00,2.13 M96.00,234.85 L95.00,234.16 M96.22,235.00 L96.00,234.85 M97.00,2.13 L98.00,2.08 M97.00,235.52 L96.22,235.00 M97.74,236.00 L97.00,235.52 M98.00,2.08 L99.00,2.05 M98.00,236.17 L97.74,236.00 M99.00,2.05 L100.00,2.02 M99.00,236.80 L98.00,236.17 M99.32,237.00 L99.00,236.80 M100.00,2.02 L101.00,2.00 M100.00,237.42 L99.32,237.00 M100.97,238.00 L100.00,237.42 M101.00,2.00 L102.00,2.00 M101.00,238.02 L100.97,238.00 M102.00,2.00 L103.00,2.00 M102.00,238.60 L101.00,238.02 M102.70,239.00 L102.00,238.60 M103.00,2.00 L104.00,2.02 M103.00,239.17 L102.70,239.00 M104.00,2.02 L105.00,2.05 M104.00,239.73 L103.00,239.17 M104.50,240.00 L104.00,239.73 M105.00,2.05 L106.00,2.08 M105.00,240.27 L104.50,240.00 M106.00,2.08 L107.00,2.13 M106.00,240.79 L105.00,240.27 M106.41,241.00 L106.00,240.79 M107.00,2.13 L108.00,2.18 M107.00,241.30 L106.41,241.00 M108.00,2.18 L109.00,2.25 M108.00,241.80 L107.00,241.30 M108.41,242.00 L108.00,241.80 M109.00,2.25 L110.00,2.32 M109.00,242.28 L108.41,242.00 M110.00,2.32 L111.00,2.41 M110.00,242.75 L109.00,242.28 M110.54,243.00 L110.00,242.75 M111.00,2.41 L112.00,2.50 M111.00,243.21 L110.54,243.00 M112.00,2.50 L113.00,2.61 M112.00,243.65 L111.00,243.21 M112.81,244.00 L112.00,243.65 M113.00,2.61 L114.00,2.72 M113.00,244.08 L112.81,244.00 M114.00,2.72 L115.00,2.85 M114.00,244.50 L113.00,244.08 M115.00,2.85 L116.00,2.98 M115.00,244.90 L114.00,244.50 M115.25,245.00 L115.00,244.90 M116.00,2.98 L116.10,3.00 M116.00,245.30 L115.25,245.00 M116.10,3.00 L117.00,3.13 M117.00,3.13 L118.00,3.29 M117.00,245.67 L116.00,245.30 M117.88,246.00 L117.00,245.67 M118.00,3.29 L119.00,3.46 M118.00,246.04 L117.88,246.00 M119.00,3.46 L120.00,3.63 M119.00,246.40 L118.00,246.04 M120.00,3.63 L121.00,3.82 M120.00,246.74 L119.00,246.40 M120.78,247.00 L120.00,246.74 M121.00,3.82 L121.90,4.00 M121.00,247.07 L120.78,247.00 M121.90,4.00 L122.00,4.02 M122.00,4.02 L123.00,4.23 M122.00,247.39 L121.00,247.07 M123.00,4.23 L124.00,4.45 M123.00,247.70 L122.00,247.39 M124.00,4.45 L125.00,4.68 M124.00,248.00 L123.00,247.70 M125.00,4.68 L126.00,4.92 M125.00,248.29 L124.00,248.00 M126.00,4.92 L126.31,5.00 M126.00,248.56 L125.00,248.29 M126.31,5.00 L127.00,5.18 M127.00,5.18 L128.00,5.44 M127.00,248.82 L126.00,248.56 M127.69,249.00 L127.00,248.82 M128.00,5.44 L129.00,5.71 M128.00,249.08 L127.69,249.00 M129.00,5.71 L130.00,6.00 M129.00,249.32 L128.00,249.08 M130.00,6.00 L131.00,6.30 M130.00,249.55 L129.00,249.32 M131.00,6.30 L132.00,6.61 M131.00,249.77 L130.00,249.55 M132.00,6.61 L133.00,6.93 M132.00,249.98 L131.00,249.77 M132.10,250.00 L132.00,249.98 M133.00,6.93 L133.22,7.00 M133.00,250.18 L132.10,250.00 M133.22,7.00 L134.00,7.26 M134.00,7.26 L135.00,7.60 M134.00,250.37 L133.00,250.18 M135.00,7.60 L136.00,7.96 M135.00,250.54 L134.00,250.37 M136.00,7.96 L136.12,8.00 M136.00,250.71 L135.00,250.54 M136.12,8.00 L137.00,8.33 M137.00,8.33 L138.00,8.70 M137.00,250.87 L136.00,250.71 M137.90,251.00 L137.00,250.87 M138.00,8.70 L138.75,9.00 M138.00,251.02 L137.90,251.00 M138.75,9.00 L139.00,9.10 M139.00,9.10 L140.00,9.50 M139.00,251.15 L138.00,251.02 M140.00,9.50 L141.00,9.92 M140.00,251.28 L139.00,251.15 M141.00,9.92 L141.19,10.00 M141.00,251.39 L140.00,251.28 M141.19,10.00 L142.00,10.35 M142.00,10.35 L143.00,10.79 M142.00,251.50 L141.00,251.39 M143.00,10.79 L143.46,11.00 M143.00,251.59 L142.00,251.50 M143.46,11.00 L144.00,11.25 M144.00,11.25 L145.00,11.72 M144.00,251.68 L143.00,251.59 M145.00,11.72 L145.59,12.00 M145.00,251.75 L144.00,251.68 M145.59,12.00 L146.00,12.20 M146.00,12.20 L147.00,12.70 M146.00,251.82 L145.00,251.75 M147.00,12.70 L147.59,13.00 M147.00,251.87 L146.00,251.82 M147.59,13.00 L148.00,13.21 M148.00,13.21 L149.00,13.73 M148.00,251.92 L147.00,251.87 M149.00,13.73 L149.50,14.00 M149.00,251.95 L148.00,251.92 M149.50,14.00 L150.00,14.27 M150.00,14.27 L151.00,14.83 M150.00,251.98 L149.00,251.95 M151.00,14.83 L151.30,15.00 M151.00,251.99 L150.00,251.98 M151.30,15.00 L152.00,15.40 M152.00,15.40 L153.00,15.98 M152.00,252.00 L151.00,251.99 M153.00,15.98 L153.03,16.00 M153.00,251.99 L152.00,252.00 M153.03,16.00 L154.00,16.58 M154.00,16.58 L154.68,17.00 M154.00,251.98 L153.00,251.99 M154.68,17.00 L155.00,17.20 M155.00,17.20 L156.00,17.83 M155.00,251.95 L154.00,251.98 M156.00,17.83 L156.26,18.00 M156.00,251.92 L155.00,251.95 M156.26,18.00 L157.00,18.48 M157.00,18.48 L157.78,19.00 M157.00,251.87 L156.00,251.92 M157.78,19.00 L158.00,19.15 M158.00,19.15 L159.00,19.84 M158.00,251.82 L157.00,251.87 M159.00,19.84 L159.24,20.00 M159.00,251.75 L158.00,251.82 M159.24,20.00 L160.00,20.54 M160.00,20.54 L160.64,21.00 M160.00,251.68 L159.00,251.75 M160.64,21.00 L161.00,21.26 M161.00,21.26 L162.00,22.00 M161.00,251.59 L160.00,251.68 M162.00,22.00 L163.00,22.76 M162.00,251.50 L161.00,251.59 M163.00,22.76 L163.31,23.00 M163.00,251.39 L162.00,251.50 M163.31,23.00 L164.00,23.54 M164.00,23.54 L164.58,24.00 M164.00,251.28 L163.00,251.39 M164.58,24.00 L165.00,24.34 M165.00,24.34 L165.80,25.00 M165.00,251.15 L164.00,251.28 M165.80,25.00 L166.00,25.16 M166.00,25.16 L166.99,26.00 M166.00,251.02 L165.00,251.15 M166.10,251.00 L166.00,251.02 M166.99,26.00 L167.00,26.01 M167.00,26.01 L168.00,26.87 M167.00,250.87 L166.10,251.00 M168.00,26.87 L168.14,27.00 M168.00,250.71 L167.00,250.87 M168.14,27.00 L169.00,27.76 M169.00,27.76 L169.26,28.00 M169.00,250.54 L168.00,250.71 M169.26,28.00 L170.00,28.68 M170.00,28.68 L170.34,29.00 M170.00,250.37 L169.00,250.54 M170.34,29.00 L171.00,29.62 M171.00,29.62 L171.40,30.00 M171.00,250.18 L170.00,250.37 M171.40,30.00 L172.00,30.59 M171.90,250.00 L171.00,250.18 M172.00,30.59 L172.42,31.00 M172.00,249.98 L171.90,250.00 M172.42,31.00 L173.00,31.58 M173.00,31.58 L173.41,32.00 M173.00,249.77 L172.00,249.98 M173.41,32.00 L174.00,32.60 M174.00,32.60 L174.38,33.00 M174.00,249.55 L173.00,249.77 M174.38,33.00 L175.00,33.66 M175.00,33.66 L175.32,34.00 M175.00,249.32 L174.00,249.55 M175.32,34.00 L176.00,34.74 M176.00,34.74 L176.24,35.00 M176.00,249.08 L175.00,249.32 M176.24,35.00 L177.00,35.86 M176.31,249.00 L176.00,249.08 M177.00,35.86 L177.13,36.00 M177.00,248.82 L176.31,249.00 M177.13,36.00 L177.99,37.00 M177.99,37.00 L178.00,37.01 M178.00,37.01 L178.84,38.00 M178.00,248.56 L177.00,248.82 M178.84,38.00 L179.00,38.20 M179.00,38.20 L179.66,39.00 M179.00,248.29 L178.00,248.56 M179.66,39.00 L180.00,39.42 M180.00,39.42 L180.46,40.00 M180.00,248.00 L179.00,248.29 M180.46,40.00 L181.00,40.69 M181.00,40.69 L181.24,41.00 M181.00,247.70 L180.00,248.00 M181.24,41.00 L182.00,42.00 M182.00,42.00 L182.74,43.00 M182.00,247.39 L181.00,247.70 M182.74,43.00 L183.00,43.36 M183.00,43.36 L183.46,44.00 M183.00,247.07 L182.00,247.39 M183.22,247.00 L183.00,247.07 M183.46,44.00 L184.00,44.76 M184.00,44.76 L184.16,45.00 M184.00,246.74 L183.22,247.00 M184.16,45.00 L184.85,46.00 M184.85,46.00 L185.00,46.22 M185.00,46.22 L185.52,47.00 M185.00,246.40 L184.00,246.74 M185.52,47.00 L186.00,47.74 M186.00,47.74 L186.17,48.00 M186.00,246.04 L185.00,246.40 M186.12,246.00 L186.00,246.04 M186.17,48.00 L186.80,49.00 M186.80,49.00 L187.00,49.32 M187.00,49.32 L187.42,50.00 M187.00,245.67 L186.12,246.00 M187.42,50.00 L188.00,50.97 M188.00,50.97 L188.02,51.00 M188.00,245.30 L187.00,245.67 M188.02,51.00 L188.60,52.00 M188.60,52.00 L189.00,52.70 M188.75,245.00 L188.00,245.30 M189.00,52.70 L189.17,53.00 M189.00,244.90 L188.75,245.00 M189.17,53.00 L189.73,54.00 M189.73,54.00 L190.00,54.50 M190.00,54.50 L190.27,55.00 M190.00,244.50 L189.00,244.90 M190.27,55.00 L190.79,56.00 M190.79,56.00 L191.00,56.41 M191.00,56.41 L191.30,57.00 M191.00,244.08 L190.00,244.50 M191.19,244.00 L191.00,244.08 M191.30,57.00 L191.80,58.00 M191.80,58.00 L192.00,58.41 M192.00,58.41 L192.28,59.00 M192.00,243.65 L191.19,244.00 M192.28,59.00 L192.75,60.00 M192.75,60.00 L193.00,60.54 M193.00,60.54 L193.46,61.00 M193.00,243.21 L192.00,243.65 M193.46,61.00 L194.00,61.25 M193.46,243.00 L193.00,243.21 M194.00,61.25 L195.00,61.72 M194.00,242.75 L193.46,243.00 M195.00,61.72 L195.59,62.00 M195.00,242.28 L194.00,242.75 M195.59,62.00 L196.00,62.20 M195.59,242.00 L195.00,242.28 M196.00,62.20 L197.00,62.70 M196.00,241.80 L195.59,242.00 M197.00,62.70 L197.59,63.00 M197.00,241.30 L196.00,241.80 M197.59,63.00 L198.00,63.21 M197.59,241.00 L197.00,241.30 M198.00,63.21 L199.00,63.73 M198.00,240.79 L197.59,241.00 M199.00,63.73 L199.50,64.00 M199.00,240.27 L198.00,240.79 M199.50,64.00 L200.00,64.27 M199.50,240.00 L199.00,240.27 M200.00,64.27 L201.00,64.83 M200.00,239.73 L199.50,240.00 M201.00,64.83 L201.30,65.00 M201.00,239.17 L200.00,239.73 M201.30,65.00 L202.00,65.40 M201.30,239.00 L201.00,239.17 M202.00,65.40 L203.00,65.98 M202.00,238.60 L201.30,239.00 M203.00,65.98 L203.03,66.00 M203.00,238.02 L202.00,238.60 M203.03,66.00 L204.00,66.58 M203.03,238.00 L203.00,238.02 M204.00,66.58 L204.68,67.00 M204.00,237.42 L203.03,238.00 M204.68,67.00 L205.00,67.20 M204.68,237.00 L204.00,237.42 M205.00,67.20 L206.00,67.83 M205.00,236.80 L204.68,237.00 M206.00,67.83 L206.26,68.00 M206.00,236.17 L205.00,236.80 M206.26,68.00 L207.00,68.48 M206.26,236.00 L206.00,236.17 M207.00,68.48 L207.78,69.00 M207.00,235.52 L206.26,236.00 M207.78,69.00 L208.00,69.15 M207.78,235.00 L207.00,235.52 M208.00,69.15 L209.00,69.84 M208.00,234.85 L207.78,235.00 M209.00,69.84 L209.24,70.00 M209.00,234.16 L208.00,234.85 M209.24,70.00 L210.00,70.54 M209.24,234.00 L209.00,234.16 M210.00,70.54 L210.64,71.00 M210.00,233.46 L209.24,234.00 M210.64,71.00 L211.00,71.26 M210.64,233.00 L210.00,233.46 M211.00,71.26 L212.00,72.00 M211.00,232.74 L210.64,233.00 M212.00,72.00 L213.00,72.76 M212.00,232.00 L211.00,232.74 M213.00,72.76 L213.31,73.00 M213.00,231.24 L212.00,232.00 M213.31,73.00 L214.00,73.54 M213.31,231.00 L213.00,231.24 M214.00,73.54 L214.58,74.00 M214.00,230.46 L213.31,231.00 M214.58,74.00 L215.00,74.34 M214.58,230.00 L214.00,230.46 M215.00,74.34 L215.80,75.00 M215.00,229.66 L214.58,230.00 M215.80,75.00 L216.00,75.16 M215.80,229.00 L215.00,229.66 M216.00,75.16 L216.99,76.00 M216.00,228.84 L215.80,229.00 M216.99,76.00 L217.00,76.01 M216.99,228.00 L216.00,228.84 M217.00,76.01 L218.00,76.87 M217.00,227.99 L216.99,228.00 M218.00,76.87 L218.14,77.00 M218.00,227.13 L217.00,227.99 M218.14,77.00 L219.00,77.76 M218.14,227.00 L218.00,227.13 M219.00,77.76 L219.26,78.00 M219.00,226.24 L218.14,227.00 M219.26,78.00 L220.00,78.68 M219.26,226.00 L219.00,226.24 M220.00,78.68 L220.34,79.00 M220.00,225.32 L219.26,226.00 M220.34,79.00 L221.00,79.62 M220.34,225.00 L220.00,225.32 M221.00,79.62 L221.40,80.00 M221.00,224.38 L220.34,225.00 M221.40,80.00 L222.00,80.59 M221.40,224.00 L221.00,224.38 M222.00,80.59 L222.42,81.00 M222.00,223.41 L221.40,224.00 M222.42,81.00 L223.00,81.58 M222.42,223.00 L222.00,223.41 M223.00,81.58 L223.41,82.00 M223.00,222.42 L222.42,223.00 M223.41,82.00 L224.00,82.60 M223.41,222.00 L223.00,222.42 M224.00,82.60 L224.38,83.00 M224.00,221.40 L223.41,222.00 M224.38,83.00 L225.00,83.66 M224.38,221.00 L224.00,221.40 M225.00,83.66 L225.32,84.00 M225.00,220.34 L224.38,221.00 M225.32,84.00 L226.00,84.74 M225.32,220.00 L225.00,220.34 M226.00,84.74 L226.24,85.00 M226.00,219.26 L225.32,220.00 M226.24,85.00 L227.00,85.86 M226.24,219.00 L226.00,219.26 M227.00,85.86 L227.13,86.00 M227.00,218.14 L226.24,219.00 M227.13,86.00 L227.99,87.00 M227.13,218.00 L227.00,218.14 M227.99,87.00 L228.00,87.01 M227.99,217.00 L227.13,218.00 M228.00,87.01 L228.84,88.00 M228.00,216.99 L227.99,217.00 M228.84,88.00 L229.00,88.20 M228.84,216.00 L228.00,216.99 M229.00,88.20 L229.66,89.00 M229.00,215.80 L228.84,216.00 M229.66,89.00 L230.00,89.42 M229.66,215.00 L229.00,215.80 M230.00,89.42 L230.46,90.00 M230.00,214.58 L229.66,215.00 M230.46,90.00 L231.00,90.69 M230.46,214.00 L230.00,214.58 M231.00,90.69 L231.24,91.00 M231.00,213.31 L230.46,214.00 M231.24,91.00 L232.00,92.00 M231.24,213.00 L231.00,213.31 M232.00,92.00 L232.74,93.00 M232.00,212.00 L231.24,213.00 M232.74,93.00 L233.00,93.36 M232.74,211.00 L232.00,212.00 M233.00,93.36 L233.46,94.00 M233.00,210.64 L232.74,211.00 M233.46,94.00 L234.00,94.76 M233.46,210.00 L233.00,210.64 M234.00,94.76 L234.16,95.00 M234.00,209.24 L233.46,210.00 M234.16,95.00 L234.85,96.00 M234.16,209.00 L234.00,209.24 M234.85,96.00 L235.00,96.22 M234.85,208.00 L234.16,209.00 M235.00,96.22 L235.52,97.00 M235.00,207.78 L234.85,208.00 M235.52,97.00 L236.00,97.74 M235.52,207.00 L235.00,207.78 M236.00,97.74 L236.17,98.00 M236.00,206.26 L235.52,207.00 M236.17,98.00 L236.80,99.00 M236.17,206.00 L236.00,206.26 M236.80,99.00 L237.00,99.32 M236.80,205.00 L236.17,206.00 M237.00,99.32 L237.42,100.00 M237.00,204.68 L236.80,205.00 M237.42,100.00 L238.00,100.97 M237.42,204.00 L237.00,204.68 M238.00,100.97 L238.02,101.00 M238.00,203.03 L237.42,204.00 M238.02,101.00 L238.60,102.00 M238.02,203.00 L238.00,203.03 M238.60,102.00 L239.00,102.70 M238.60,202.00 L238.02,203.00 M239.00,102.70 L239.17,103.00 M239.00,201.30 L238.60,202.00 M239.17,103.00 L239.73,104.00 M239.17,201.00 L239.00,201.30 M239.73,104.00 L240.00,104.50 M239.73,200.00 L239.17,201.00 M240.00,104.50 L240.27,105.00 M240.00,199.50 L239.73,200.00 M240.27,105.00 L240.79,106.00 M240.27,199.00 L240.00,199.50 M240.79,106.00 L241.00,106.41 M240.79,198.00 L240.27,199.00 M241.00,106.41 L241.30,107.00 M241.00,197.59 L240.79,198.00 M241.30,107.00 L241.80,108.00 M241.30,197.00 L241.00,197.59 M241.80,108.00 L242.00,108.41 M241.80,196.00 L241.30,197.00 M242.00,108.41 L242.28,109.00 M242.00,195.59 L241.80,196.00 M242.28,109.00 L242.75,110.00 M242.28,195.00 L242.00,195.59 M242.75,110.00 L243.00,110.54 M242.75,194.00 L242.28,195.00 M243.00,110.54 L243.21,111.00 M243.00,193.46 L242.75,194.00 M243.21,111.00 L243.65,112.00 M243.21,193.00 L243.00,193.46 M243.65,112.00 L244.00,112.81 M243.65,192.00 L243.21,193.00 M244.00,112.81 L244.08,113.00 M244.00,191.19 L243.65,192.00 M244.08,113.00 L244.50,114.00 M244.08,191.00 L244.00,191.19 M244.50,114.00 L244.90,115.00 M244.50,190.00 L244.08,191.00 M244.90,115.00 L245.00,115.25 M244.90,189.00 L244.50,190.00 M245.00,115.25 L245.30,116.00 M245.00,188.75 L244.90,189.00 M245.30,116.00 L245.67,117.00 M245.30,188.00 L245.00,188.75 M245.67,117.00 L246.00,117.88 M245.67,187.00 L245.30,188.00 M246.00,117.88 L246.04,118.00 M246.00,186.12 L245.67,187.00 M246.04,118.00 L246.40,119.00 M246.04,186.00 L246.00,186.12 M246.40,119.00 L246.74,120.00 M246.40,185.00 L246.04,186.00 M246.74,120.00 L247.00,120.78 M246.74,184.00 L246.40,185.00 M247.00,120.78 L247.07,121.00 M247.00,183.22 L246.74,184.00 M247.07,121.00 L247.39,122.00 M247.07,183.00 L247.00,183.22 M247.39,122.00 L247.70,123.00 M247.39,182.00 L247.07,183.00 M247.70,123.00 L248.00,124.00 M247.70,181.00 L247.39,182.00 M248.00,124.00 L248.29,125.00 M248.00,180.00 L247.70,181.00 M248.29,125.00 L248.56,126.00 M248.29,179.00 L248.00,180.00 M248.56,126.00 L248.82,127.00 M248.56,178.00 L248.29,179.00 M248.82,127.00 L249.00,127.69 M248.82,177.00 L248.56,178.00 M249.00,127.69 L249.08,128.00 M249.00,176.31 L248.82,177.00 M249.08,128.00 L249.32,129.00 M249.08,176.00 L249.00,176.31 M249.32,129.00 L249.55,130.00 M249.32,175.00 L249.08,176.00 M249.55,130.00 L249.77,131.00 M249.55,174.00 L249.32,175.00 M249.77,131.00 L249.98,132.00 M249.77,173.00 L249.55,174.00 M249.98,132.00 L250.00,132.10 M249.98,172.00 L249.77,173.00 M250.00,132.10 L250.18,133.00 M250.00,171.90 L249.98,172.00 M250.18,133.00 L250.37,134.00 M250.18,171.00 L250.00,171.90 M250.37,134.00 L250.54,135.00 M250.37,170.00 L250.18,171.00 M250.54,135.00 L250.71,136.00 M250.54,169.00 L250.37,170.00 M250.71,136.00 L250.87,137.00 M250.71,168.00 L250.54,169.00 M250.87,137.00 L251.00,137.90 M250.87,167.00 L250.71,168.00 M251.00,137.90 L251.02,138.00 M251.00,166.10 L250.87,167.00 M251.02,138.00 L251.15,139.00 M251.02,166.00 L251.00,166.10 M251.15,139.00 L251.28,140.00 M251.15,165.00 L251.02,166.00 M251.28,140.00 L251.39,141.00 M251.28,164.00 L251.15,165.00 M251.39,141.00 L251.50,142.00 M251.39,163.00 L251.28,164.00 M251.50,142.00 L251.59,143.00 M251.50,162.00 L251.39,163.00 M251.59,143.00 L251.68,144.00 M251.59,161.00 L251.50,162.00 M251.68,144.00 L251.75,145.00 M251.68,160.00 L251.59,161.00 M251.75,145.00 L251.82,146.00 M251.75,159.00 L251.68,160.00 M251.82,146.00 L251.87,147.00 M251.82,158.00 L251.75,159.00 M251.87,147.00 L251.92,148.00 M251.87,157.00 L251.82,158.00 M251.92,148.00 L251.95,149.00 M251.92,156.00 L251.87,157.00 M251.95,149.00 L251.98,150.00 M251.95,155.00 L251.92,156.00 M251.98,150.00 L251.99,151.00 M251.98,154.00 L251.95,155.00 M251.99,151.00 L252.00,152.00 M251.99,153.00 L251.98,154.00 M252.00,152.00 L251.99,153.00 "/>

<script>
let svgs = document.children[0];
let paths = Array.from(svgs.children).filter(function(c) {
    var orig = c.style.stroke;
    c.onmouseover = function() {
        c.style.stroke = "rgb(0, 0, 255)";
    };
    c.onmouseout = function () {
        c.style.stroke = orig;
    };
    c.onclick = function () {
        svgs.removeChild()
    }
});

for (let path of paths) {
    console.log(path);
}
</script></svg>