<svg xmlns="http://www.w3.org/2000/svg">
    <path fill-rule="evenodd" d="M2.00,22.00 L2.10,24.00 L2.41,26.00 L2.92,28.00 L3.68,30.00 L4.69,32.00 L6.81,35.00 L8.78,37.00 L11.00,38.69 L13.00,39.86 L15.00,40.73 L18.00,41.59 L20.00,41.90 L22.00,42.00 L24.00,41.90 L26.00,41.59 L28.23,41.00 L29.00,40.73 L30.00,40.32 L32.00,39.31 L35.00,37.19 L37.00,35.30 L38.78,37.00 L41.00,38.69 L43.00,39.86 L45.00,40.73 L48.00,41.59 L50.00,41.90 L52.00,42.00 L54.00,41.90 L56.00,41.59 L58.00,41.08 L60.00,40.32 L62.00,39.31 L65.00,37.19 L67.00,35.22 L68.69,33.00 L69.86,31.00 L70.73,29.00 L71.59,26.00 L71.90,24.00 L72.00,22.00 L71.90,20.00 L71.59,18.00 L71.08,16.00 L70.32,14.00 L69.31,12.00 L67.19,9.00 L65.22,7.00 L63.00,5.31 L61.00,4.14 L59.00,3.27 L56.00,2.41 L54.00,2.10 L52.00,2.00 L50.00,2.10 L48.00,2.41 L46.00,2.92 L44.00,3.68 L42.00,4.69 L39.00,6.81 L37.00,8.70 L35.22,7.00 L33.00,5.31 L31.00,4.14 L29.00,3.27 L26.00,2.41 L24.00,2.10 L22.00,2.00 L20.00,2.10 L18.00,2.41 L16.00,2.92 L14.00,3.68 L12.00,4.69 L9.00,6.81 L7.00,8.78 L5.31,11.00 L4.14,13.00 L3.27,15.00 L2.41,18.00 L2.10,20.00 L2.00,22.00 M44.00,15.48 L44.48,16.00 L44.00,15.48 M33.00,13.47 L33.53,13.00 L33.00,13.47 M47.00,25.51 L47.49,25.00 L47.00,25.51 M29.52,28.00 L30.00,28.52 L29.52,28.00 M43.48,16.00 L44.00,16.48 L43.48,16.00 M29.52,16.00 L30.00,15.48 L29.52,16.00 M42.00,13.47 L42.48,14.00 L42.00,13.47 M31.00,15.48 L31.52,15.00 L31.00,15.48 M40.47,13.00 L41.00,13.47 L40.47,13.00 M31.52,30.00 L32.00,30.53 L31.52,30.00 M30.00,27.52 L30.52,28.00 L30.00,27.52 M32.53,13.00 L33.00,12.47 L32.53,13.00 M28.52,17.00 L29.00,16.48 L28.52,17.00 M46.00,17.49 L46.49,18.00 L46.00,17.49 M46.49,25.00 L47.00,24.51 L46.49,25.00 M41.48,30.00 L42.00,29.52 L41.48,30.00 M33.54,12.00 L34.00,12.46 L34.54,12.00 L34.00,11.46 L33.54,12.00 M26.51,19.00 L27.00,18.49 L26.51,19.00 M30.52,15.00 L31.00,14.48 L30.52,15.00 M41.00,31.53 L41.47,31.00 L41.00,31.53 M24.51,22.00 L26.51,20.00 L26.51,24.00 L24.51,22.00 M29.00,26.52 L29.52,27.00 L29.00,26.52 M27.51,26.00 L28.00,26.51 L27.51,26.00 M45.00,27.52 L45.48,27.00 L45.00,27.52 M45.00,16.48 L45.48,17.00 L45.00,16.48 M44.48,27.00 L45.00,26.52 L44.48,27.00 M43.48,28.00 L44.00,27.52 L43.48,28.00 M33.54,32.00 L34.00,32.54 L34.54,32.00 L34.00,31.54 L33.54,32.00 M43.00,14.48 L43.48,15.00 L43.00,14.48 M27.51,18.00 L28.00,17.49 L27.51,18.00 M32.53,31.00 L33.00,31.53 L32.53,31.00 M39.46,12.00 L40.00,12.46 L40.46,12.00 L40.00,11.46 L39.46,12.00 M31.00,28.52 L31.52,29.00 L31.00,28.52 M48.00,19.49 L48.00,24.51 L49.00,24.51 L51.49,22.00 L49.00,19.49 L48.00,19.49 M28.00,18.49 L28.51,18.00 L28.00,18.49 M45.49,26.00 L46.00,25.51 L45.49,26.00 M43.00,29.52 L43.48,29.00 L43.00,29.52 M22.51,22.00 L25.00,24.51 L26.00,24.51 L26.00,19.49 L25.00,19.49 L22.51,22.00 M42.00,30.53 L42.48,30.00 L42.00,30.53 M41.48,14.00 L42.00,14.48 L41.48,14.00 M47.49,20.00 L47.49,24.00 L49.49,22.00 L47.49,20.00 M46.49,19.00 L47.00,19.49 L46.49,19.00 M28.52,27.00 L29.00,27.52 L28.52,27.00 M46.00,26.51 L46.49,26.00 L46.00,26.51 M27.00,24.51 L27.51,25.00 L27.00,24.51 M45.49,18.00 L46.00,18.49 L45.49,18.00 M26.51,25.00 L27.00,25.51 L26.51,25.00 M33.00,30.53 L33.53,31.00 L33.00,30.53 M42.48,29.00 L43.00,28.52 L42.48,29.00 M32.00,29.52 L32.52,30.00 L32.00,29.52 M40.47,31.00 L41.00,30.53 L40.47,31.00 M31.52,14.00 L32.00,13.47 L31.52,14.00 M29.00,17.48 L29.52,17.00 L29.00,17.48 M44.00,28.52 L44.48,28.00 L44.00,28.52 M44.48,17.00 L45.00,17.48 L44.48,17.00 M27.00,19.49 L27.51,19.00 L27.00,19.49 M32.00,14.48 L32.52,14.00 L32.00,14.48 M42.48,15.00 L43.00,15.48 L42.48,15.00 M41.00,12.47 L41.47,13.00 L41.00,12.47 M30.00,16.48 L30.52,16.00 L30.00,16.48 M30.52,29.00 L31.00,29.52 L30.52,29.00 M47.00,18.49 L47.49,19.00 L47.00,18.49 M39.46,32.00 L40.00,32.54 L40.46,32.00 L40.00,31.54 L39.46,32.00 M28.00,25.51 L28.51,26.00 L28.00,25.51 "/>
</svg>