<svg xmlns="http://www.w3.org/2000/svg">
    <path fill-rule="evenodd" style="fill: rgb(0, 0, 0); stroke: none; stroke-width: none;" d="M2.00,22.00 L2.10,24.00 L2.41,26.00 L2.92,28.00 L3.68,30.00 L4.69,32.00 L6.81,35.00 L8.78,37.00 L11.00,38.69 L13.00,39.86 L15.00,40.73 L18.00,41.59 L20.00,41.90 L22.00,42.00 L24.00,41.90 L26.00,41.59 L28.00,41.08 L30.00,40.32 L32.00,39.31 L34.00,38.00 L35.22,37.00 L36.00,36.27 L37.00,35.30 L38.78,37.00 L41.00,38.69 L43.00,39.86 L45.00,40.73 L48.00,41.59 L50.00,41.90 L52.00,42.00 L54.00,41.90 L56.00,41.59 L58.00,41.08 L60.00,40.32 L62.00,39.31 L65.00,37.19 L67.00,35.22 L68.69,33.00 L69.86,31.00 L70.73,29.00 L71.59,26.00 L71.90,24.00 L72.00,22.00 L71.90,20.00 L71.59,18.00 L71.08,16.00 L70.32,14.00 L69.31,12.00 L67.19,9.00 L65.22,7.00 L63.00,5.31 L61.00,4.14 L59.00,3.27 L56.00,2.41 L54.00,2.10 L52.00,2.00 L50.00,2.10 L48.00,2.41 L46.00,2.92 L44.00,3.68 L42.00,4.69 L39.00,6.81 L37.00,8.70 L35.22,7.00 L33.00,5.31 L31.00,4.14 L29.00,3.27 L26.00,2.41 L24.00,2.10 L22.00,2.00 L20.00,2.10 L18.00,2.41 L16.00,2.92 L14.00,3.68 L12.00,4.69 L9.00,6.81 L7.00,8.78 L5.31,11.00 L4.14,13.00 L3.27,15.00 L2.41,18.00 L2.10,20.00 L2.00,22.00 "/>

<script>
let paths = Array.from(document.children[0].children).filter(function(c) {
    var orig = c.style.stroke;
    c.onmouseover = function() {
        c.style.stroke = "rgb(0, 0, 255)";
    };
    c.onmouseout = function () {
        c.style.stroke = orig;
    };
});

for (let path of paths) {
    console.log(path);
}
</script></svg>