<svg xmlns="http://www.w3.org/2000/svg">
    <path fill-rule="evenodd" style="fill: rgb(0, 0, 0); stroke: none; stroke-width: none;" d="M41.47084,13.00000 L41.00000,12.46835 L40.46218,12.00000 L40.00000,11.45734 L39.46281,12.00000 L40.00000,12.45947 L40.47107,13.00000 L41.00000,13.46926 L41.47641,14.00000 L42.00000,14.47527 L42.48011,15.00000 L43.00000,15.47933 L43.48282,16.00000 L44.00000,16.48225 L44.48488,17.00000 L45.00000,17.48445 L45.48651,18.00000 L46.00000,18.48616 L46.48782,19.00000 L47.00000,19.48754 L47.48890,20.00000 L48.00000,20.48866 L48.48980,21.00000 L49.00000,21.48960 L49.49057,22.00000 L49.00000,22.51040 L48.48980,23.00000 L48.00000,23.51134 L47.48890,24.00000 L47.00000,24.51246 L46.48782,25.00000 L46.00000,25.51384 L45.48651,26.00000 L45.00000,26.51555 L44.48488,27.00000 L44.00000,27.51775 L43.48282,28.00000 L43.00000,28.52067 L42.48011,29.00000 L42.00000,29.52473 L41.47641,30.00000 L41.00000,30.53074 L40.47107,31.00000 L40.00000,31.54053 L39.46281,32.00000 L40.00000,32.54266 L40.46218,32.00000 L41.00000,31.53165 L41.47084,31.00000 L42.00000,30.52517 L42.47629,30.00000 L43.00000,29.52090 L43.48003,29.00000 L44.00000,28.51788 L44.48276,28.00000 L45.00000,27.51562 L45.48483,27.00000 L46.00000,26.51388 L46.48647,26.00000 L47.00000,25.51249 L47.48779,25.00000 L48.00000,24.51135 L49.00000,24.51058 L49.48910,24.00000 L50.00000,23.50973 L50.48995,23.00000 L51.00000,22.50901 L51.49070,22.00000 L51.00000,21.49099 L50.48995,21.00000 L50.00000,20.49027 L49.48910,20.00000 L49.00000,19.48942 L48.00000,19.48865 L47.48779,19.00000 L47.00000,18.48751 L46.48647,18.00000 L46.00000,17.48612 L45.48483,17.00000 L45.00000,16.48438 L44.48276,16.00000 L44.00000,15.48212 L43.48003,15.00000 L43.00000,14.47910 L42.47629,14.00000 L42.00000,13.47483 L41.47084,13.00000 M33.00000,5.30543 L32.51939,5.00000 L32.00000,4.68702 L31.00000,4.14313 L30.70272,4.00000 L30.00000,3.67548 L29.00000,3.26946 L28.22876,3.00000 L28.00000,2.92246 L27.00000,2.63852 L26.00000,2.40685 L25.00000,2.22773 L24.00000,2.10073 L23.00000,2.02508 L22.00000,2.00000 L21.00000,2.02508 L20.00000,2.10073 L19.00000,2.22773 L18.00000,2.40685 L17.00000,2.63852 L16.00000,2.92246 L15.77124,3.00000 L15.00000,3.26946 L14.00000,3.67548 L13.29728,4.00000 L13.00000,4.14313 L12.00000,4.68702 L11.48060,5.00000 L11.00000,5.30543 L10.00000,6.00000 L9.00000,6.80882 L8.78090,7.00000 L8.00000,7.72755 L7.72755,8.00000 L7.00000,8.78090 L6.80882,9.00000 L6.00000,10.00000 L5.30543,11.00000 L5.00000,11.48060 L4.68702,12.00000 L4.14313,13.00000 L4.00000,13.29728 L3.67548,14.00000 L3.26946,15.00000 L3.00000,15.77124 L2.92246,16.00000 L2.63852,17.00000 L2.40685,18.00000 L2.22773,19.00000 L2.10073,20.00000 L2.02508,21.00000 L2.00000,22.00000 L2.02508,23.00000 L2.10073,24.00000 L2.22773,25.00000 L2.40685,26.00000 L2.63852,27.00000 L2.92246,28.00000 L3.00000,28.22876 L3.26946,29.00000 L3.67548,30.00000 L4.00000,30.70272 L4.14313,31.00000 L4.68702,32.00000 L5.00000,32.51939 L5.30543,33.00000 L6.00000,34.00000 L6.80882,35.00000 L7.00000,35.21910 L7.72754,36.00000 L8.00000,36.27246 L8.78090,37.00000 L9.00000,37.19118 L10.00000,38.00000 L11.00000,38.69457 L11.48061,39.00000 L12.00000,39.31298 L13.00000,39.85688 L13.29727,40.00000 L14.00000,40.32452 L15.00000,40.73054 L15.77124,41.00000 L16.00000,41.07754 L17.00000,41.36148 L18.00000,41.59315 L19.00000,41.77227 L20.00000,41.89927 L21.00000,41.97492 L22.00000,42.00000 L23.00000,41.97492 L24.00000,41.89927 L25.00000,41.77227 L26.00000,41.59315 L27.00000,41.36148 L28.00000,41.07754 L28.22876,41.00000 L29.00000,40.73054 L30.00000,40.32452 L30.70272,40.00000 L31.00000,39.85687 L32.00000,39.31298 L32.51939,39.00000 L33.00000,38.69457 L34.00000,38.00000 L35.00000,37.19118 L35.21910,37.00000 L36.00000,36.27245 L36.27245,36.00000 L37.00000,35.29904 L37.72755,36.00000 L38.00000,36.27245 L38.78090,37.00000 L39.00000,37.19118 L40.00000,38.00000 L41.00000,38.69457 L41.48061,39.00000 L42.00000,39.31298 L43.00000,39.85688 L43.29727,40.00000 L44.00000,40.32452 L45.00000,40.73054 L45.77124,41.00000 L46.00000,41.07754 L47.00000,41.36148 L48.00000,41.59315 L49.00000,41.77227 L50.00000,41.89927 L51.00000,41.97492 L52.00000,42.00000 L53.00000,41.97492 L54.00000,41.89927 L55.00000,41.77227 L56.00000,41.59315 L57.00000,41.36148 L58.00000,41.07754 L58.22876,41.00000 L59.00000,40.73054 L60.00000,40.32452 L60.70272,40.00000 L61.00000,39.85687 L62.00000,39.31298 L62.51939,39.00000 L63.00000,38.69457 L64.00000,38.00000 L65.00000,37.19118 L65.21910,37.00000 L66.00000,36.27245 L66.27245,36.00000 L67.00000,35.21910 L67.19118,35.00000 L68.00000,34.00000 L68.69456,33.00000 L69.00000,32.51939 L69.31297,32.00000 L69.85686,31.00000 L70.00000,30.70272 L70.32452,30.00000 L70.73055,29.00000 L71.00000,28.22877 L71.07755,28.00000 L71.36148,27.00000 L71.59316,26.00000 L71.77227,25.00000 L71.89927,24.00000 L71.97492,23.00000 L72.00000,22.00000 L71.97492,21.00000 L71.89927,20.00000 L71.77227,19.00000 L71.59316,18.00000 L71.36148,17.00000 L71.07755,16.00000 L71.00000,15.77124 L70.73055,15.00000 L70.32452,14.00000 L70.00000,13.29728 L69.85686,13.00000 L69.31297,12.00000 L69.00000,11.48061 L68.69456,11.00000 L68.00000,10.00000 L67.19118,9.00000 L67.00000,8.78090 L66.27245,8.00000 L66.00000,7.72755 L65.21911,7.00000 L65.00000,6.80881 L64.00000,6.00000 L63.00000,5.30543 L62.51939,5.00000 L62.00000,4.68702 L61.00000,4.14313 L60.70272,4.00000 L60.00000,3.67548 L59.00000,3.26946 L58.22876,3.00000 L58.00000,2.92246 L57.00000,2.63852 L56.00000,2.40685 L55.00000,2.22773 L54.00000,2.10073 L53.00000,2.02508 L52.00000,2.00000 L51.00000,2.02508 L50.00000,2.10073 L49.00000,2.22773 L48.00000,2.40685 L47.00000,2.63852 L46.00000,2.92246 L45.77124,3.00000 L45.00000,3.26946 L44.00000,3.67548 L43.29728,4.00000 L43.00000,4.14313 L42.00000,4.68702 L41.48061,5.00000 L41.00000,5.30543 L40.00000,6.00000 L39.00000,6.80882 L38.78090,7.00000 L38.00000,7.72754 L37.72754,8.00000 L37.00000,8.70096 L36.27246,8.00000 L36.00000,7.72754 L35.21910,7.00000 L35.00000,6.80882 L34.00000,6.00000 L33.00000,5.30543 M27.51353,18.00000 L27.00000,18.48751 L26.51221,19.00000 L26.00000,19.48865 L25.00000,19.48942 L24.51090,20.00000 L24.00000,20.49027 L23.51005,21.00000 L23.00000,21.49099 L22.50930,22.00000 L23.00000,22.50901 L23.51005,23.00000 L24.00000,23.50973 L24.51090,24.00000 L25.00000,24.51058 L26.00000,24.51135 L26.51221,25.00000 L27.00000,25.51249 L27.51353,26.00000 L28.00000,26.51388 L28.51517,27.00000 L29.00000,27.51562 L29.51724,28.00000 L30.00000,28.51788 L30.51997,29.00000 L31.00000,29.52090 L31.52371,30.00000 L32.00000,30.52517 L32.52916,31.00000 L33.00000,31.53165 L33.53782,32.00000 L34.00000,32.54266 L34.53719,32.00000 L34.00000,31.54053 L33.52893,31.00000 L33.00000,30.53074 L32.52359,30.00000 L32.00000,29.52473 L31.51989,29.00000 L31.00000,28.52067 L30.51718,28.00000 L30.00000,27.51775 L29.51512,27.00000 L29.00000,26.51555 L28.51349,26.00000 L28.00000,25.51384 L27.51218,25.00000 L27.00000,24.51246 L26.51110,24.00000 L26.00000,23.51134 L25.51020,23.00000 L25.00000,22.51040 L24.50943,22.00000 L25.00000,21.48960 L25.51020,21.00000 L26.00000,20.48866 L26.51110,20.00000 L27.00000,19.48754 L27.51218,19.00000 L28.00000,18.48616 L28.51349,18.00000 L29.00000,17.48445 L29.51512,17.00000 L30.00000,16.48225 L30.51718,16.00000 L31.00000,15.47933 L31.51989,15.00000 L32.00000,14.47527 L32.52359,14.00000 L33.00000,13.46926 L33.52893,13.00000 L34.00000,12.45947 L34.53719,12.00000 L34.00000,11.45734 L33.53782,12.00000 L33.00000,12.46835 L32.52916,13.00000 L32.00000,13.47483 L31.52371,14.00000 L31.00000,14.47910 L30.51997,15.00000 L30.00000,15.48212 L29.51724,16.00000 L29.00000,16.48438 L28.51517,17.00000 L28.00000,17.48612 L27.51353,18.00000 "/>

<script>
let svgs = document.children[0];
let paths = Array.from(svgs.children).filter(function(c) {
    var orig = c.style.stroke;
    c.onmouseover = function() {
        c.style.stroke = "rgb(0, 0, 255)";
    };
    c.onmouseout = function () {
        c.style.stroke = orig;
    };
    c.onclick = function () {
        svgs.removeChild()
    }
});

for (let path of paths) {
    console.log(path);
}
</script></svg>