<svg xmlns="http://www.w3.org/2000/svg">
    <path fill-rule="evenodd" style="fill: none; stroke: rgb(0, 0, 0); stroke-width: 0.2;" d="M235.00000,207.77525 L234.84901,208.00000 M147.59395,13.00000 L148.00000,13.20831 M26.00659,37.00000 L26.87376,36.00000 M68.48399,207.00000 L68.00000,206.25740 M216.00000,228.83713 L215.80365,229.00000 M90.69040,231.00000 L90.00000,230.45956 M149.00000,13.73360 L149.49533,14.00000 M24.00000,164.57677 L23.54043,164.00000 M232.73991,93.00000 L233.00000,93.35830 M215.00000,74.34106 L215.80365,75.00000 M246.74165,120.00000 L247.00000,120.77751 M230.00000,214.57677 L229.65894,215.00000 M10.79159,61.00000 L11.00000,60.54165 M83.65617,225.00000 L83.00000,224.38017 M110.00000,242.75223 L109.00000,242.28268 M9.09689,139.00000 L9.00000,138.75377 M251.75470,145.00000 L251.81984,146.00000 M243.00000,193.45836 L242.75223,194.00000 M139.00000,251.15140 L138.00000,251.01515 M7.60204,69.00000 L7.95748,68.00000 M77.00000,5.17546 L77.69362,5.00000 M187.00000,49.32323 L187.41624,50.00000 M101.00000,238.01741 L100.97080,238.00000 M159.23531,20.00000 L160.00000,20.53886 M6.29743,131.00000 L6.00000,130.00000 M186.00000,47.74260 L186.16626,48.00000 M249.97958,132.00000 L250.00000,132.10246 M206.00000,236.16626 L205.00000,236.79950 M15.39780,52.00000 L15.98259,51.00000 M55.00000,13.73360 L56.00000,13.20831 M75.00000,5.71404 L76.00000,5.43923 M207.00000,68.48399 L207.77525,69.00000 M13.73360,149.00000 L13.20831,148.00000 M222.00000,223.41345 L221.39651,224.00000 M151.00000,14.82795 L151.30356,15.00000 M14.27341,54.00000 L14.82795,53.00000 M53.00000,14.82795 L54.00000,14.27341 M199.00000,240.26640 L198.00000,240.79169 M73.00000,6.29743 L74.00000,6.00000 M152.00000,15.39780 L153.00000,15.98259 M12.69738,147.00000 L12.20040,146.00000 M197.59395,63.00000 L198.00000,63.20831 M238.00000,100.97080 L238.01741,101.00000 M219.00000,226.23557 L218.14326,227.00000 M12.00000,58.41327 L12.20040,58.00000 M67.00000,204.67677 L66.58376,204.00000 M121.00000,3.82162 L121.89753,4.00000 M69.00000,7.60204 L70.00000,7.25835 M215.80365,75.00000 L216.00000,75.16288 M3.00000,116.10351 L2.98485,116.00000 M247.00000,120.77751 L247.07362,121.00000 M232.73991,211.00000 L232.00000,212.00000 M2.40583,93.00000 L2.50127,92.00000 M245.67482,187.00000 L245.29509,188.00000 M170.34384,29.00000 L171.00000,29.61983 M62.00000,10.34868 L62.80982,10.00000 M115.24623,245.00000 L115.00000,244.90311 M81.58070,223.00000 L81.00000,222.41930 M2.08004,106.00000 L2.04501,105.00000 M169.00000,27.76443 L169.25990,28.00000 M251.75470,159.00000 L251.67947,160.00000 M242.75223,110.00000 L243.00000,110.54165 M189.17206,53.00000 L189.72658,54.00000 M2.02000,100.00000 L2.04501,99.00000 M113.00000,2.60686 L114.00000,2.72262 M77.00000,218.14326 L76.87376,218.00000 M190.00000,244.49846 L189.00000,244.90311 M5.43923,128.00000 L5.17546,127.00000 M251.15140,139.00000 L251.27737,140.00000 M6.00000,74.00000 L6.29743,73.00000 M250.54437,169.00000 L250.36662,170.00000 M39.00000,24.34106 L39.42324,24.00000 M164.00000,23.54043 L164.57677,24.00000 M133.22249,7.00000 L134.00000,7.25835 M58.00000,191.79961 L57.00000,191.30261 M4.92273,126.00000 L4.68099,125.00000 M36.00000,177.12625 L35.85674,177.00000 M182.73991,43.00000 L183.00000,43.35830 M225.32053,84.00000 L226.00000,84.74009 M184.16420,45.00000 L184.84901,46.00000 M4.45007,80.00000 L4.68099,79.00000 M33.00000,29.61983 L33.65616,29.00000 M124.00000,248.00000 L123.00000,247.70258 M53.00000,189.17206 L52.69644,189.00000 M198.00000,63.20831 L199.00000,63.73360 M3.63338,120.00000 L3.45563,119.00000 M30.58654,172.00000 L30.00000,171.39651 M238.01741,101.00000 L238.60220,102.00000 M236.16626,206.00000 L236.00000,206.25740 M47.74260,18.00000 L48.00000,17.83374 M173.00000,31.58070 L173.41345,32.00000 M93.35830,233.00000 L93.00000,232.73991 M65.24623,9.00000 L66.00000,8.70491 M121.00000,247.07362 L120.77751,247.00000 M44.76470,184.00000 L44.00000,183.46114 M148.00000,13.20831 L149.00000,13.73360 M247.00000,183.22249 L246.74165,184.00000 M232.00000,92.00000 L232.73991,93.00000 M191.19017,244.00000 L191.00000,244.08142 M46.00000,19.15099 L46.22474,19.00000 M91.00000,2.60686 L92.00000,2.50127 M62.00000,195.58673 L61.71732,195.00000 M119.00000,3.45563 L120.00000,3.63338 M192.00000,58.41327 L192.28268,59.00000 M43.00000,182.73991 L42.00000,182.00000 M245.29509,116.00000 L245.67482,117.00000 M252.00000,152.00000 L251.99500,153.00000 M244.00000,191.19017 L243.65132,192.00000 M41.00000,22.76028 L42.00000,22.00000 M142.00000,10.34868 L143.00000,10.79159 M110.54165,243.00000 L110.00000,242.75223 M60.54165,193.00000 L60.00000,192.75223 M113.00000,244.08142 L112.80982,244.00000 M22.76028,163.00000 L22.00000,162.00000 M140.00000,9.50155 L141.00000,9.91858 M251.15140,165.00000 L251.01515,166.00000 M167.00000,26.00659 L168.00000,26.87376 M19.83580,45.00000 L20.00000,44.76470 M102.00000,2.00000 L103.00000,2.00500 M207.77525,235.00000 L207.00000,235.51602 M131.00000,6.29743 L132.00000,6.60619 M163.00000,22.76028 L163.30960,23.00000 M226.00000,84.74009 L226.23557,85.00000 M17.83374,156.00000 L17.20050,155.00000 M206.25740,68.00000 L207.00000,68.48399 M223.41345,222.00000 L223.00000,222.41930 M17.00000,49.32323 L17.20050,49.00000 M153.00000,251.99500 L152.00000,252.00000 M75.00000,215.80365 L74.34106,215.00000 M125.00000,4.68099 L126.00000,4.92273 M29.00000,170.34384 L28.67948,170.00000 M151.00000,251.99500 L150.00000,251.98000 M238.01741,203.00000 L238.00000,203.02919 M176.00000,249.07727 L175.00000,249.31900 M30.00000,32.60348 L30.58654,32.00000 M73.00000,213.30960 L72.76028,213.00000 M201.30356,239.00000 L201.00000,239.17206 M97.00000,2.12508 L98.00000,2.08004 M177.00000,35.85674 L177.12625,36.00000 M27.76443,169.00000 L27.00000,168.14326 M221.00000,79.61983 L221.39651,80.00000 M219.25990,78.00000 L220.00000,78.67947 M248.82454,127.00000 L249.00000,127.69362 M234.00000,209.23531 L233.46114,210.00000 M26.87376,36.00000 L27.00000,35.85674 M69.00000,207.77525 L68.48399,207.00000 M91.00000,231.23972 L90.69040,231.00000 M24.34106,165.00000 L24.00000,164.57677 M245.29509,188.00000 L245.00000,188.75377 M146.00000,12.20040 L147.00000,12.69738 M9.91858,63.00000 L10.00000,62.80983 M251.91997,156.00000 L251.87492,157.00000 M82.00000,4.02041 L82.10247,4.00000 M210.00000,233.46114 L209.23531,234.00000 M108.00000,2.18017 L109.00000,2.24530 M141.00000,9.91858 L141.19017,10.00000 M227.99341,87.00000 L228.00000,87.00772 M8.32517,137.00000 L8.00000,136.11612 M189.72658,54.00000 L190.00000,54.50467 M251.01515,138.00000 L251.15140,139.00000 M7.95748,68.00000 L8.00000,67.88388 M77.69362,5.00000 L78.00000,4.92273 M102.00000,238.60220 L101.00000,238.01741 M6.60619,132.00000 L6.29743,131.00000 M226.00000,219.25990 L225.32053,220.00000 M157.00000,18.48399 L157.77525,19.00000 M7.00000,70.77751 L7.25835,70.00000 M58.41327,12.00000 L59.00000,11.71732 M186.00000,246.04253 L185.00000,246.39796 M100.00000,2.02000 L101.00000,2.00500 M158.00000,19.15099 L159.00000,19.83580 M15.39780,152.00000 L15.00000,151.30356 M184.84901,46.00000 L185.00000,46.22474 M240.79169,106.00000 L241.00000,106.40604 M204.67677,237.00000 L204.00000,237.41624 M14.82795,53.00000 L15.00000,52.69644 M54.00000,14.27341 L54.50467,14.00000 M73.54043,214.00000 L73.00000,213.30960 M201.00000,64.82795 L201.30356,65.00000 M13.00000,147.59395 L12.69738,147.00000 M249.00000,127.69362 L249.07727,128.00000 M221.00000,224.38017 L220.34384,225.00000 M11.00000,60.54165 L11.24777,60.00000 M247.70258,181.00000 L247.39381,182.00000 M192.75223,60.00000 L193.00000,60.54165 M65.39780,202.00000 L65.00000,201.30356 M121.89753,4.00000 L122.00000,4.02041 M67.20050,205.00000 L67.00000,204.67677 M2.72262,114.00000 L2.60686,113.00000 M191.30261,57.00000 L191.79961,58.00000 M245.00000,115.24623 L245.29509,116.00000 M213.30960,231.00000 L213.00000,231.23972 M2.50127,92.00000 L2.60686,91.00000 M62.20040,196.00000 L62.00000,195.58673 M119.00000,246.39796 L118.00000,246.04253 M82.00000,223.41345 L81.58070,223.00000 M214.57677,74.00000 L215.00000,74.34106 M2.12508,107.00000 L2.08004,106.00000 M246.39796,119.00000 L246.74165,120.00000 M227.99341,217.00000 L227.12625,218.00000 M2.24530,95.00000 L2.32052,94.00000 M251.49873,162.00000 L251.39314,163.00000 M61.00000,10.79159 L62.00000,10.34868 M169.00000,250.54437 L168.00000,250.71169 M114.00000,2.72262 L115.00000,2.84861 M80.00000,221.39651 L79.61983,221.00000 M2.02000,104.00000 L2.00500,103.00000 M167.00000,250.86859 L166.10350,251.00000 M242.00000,108.41327 L242.28268,109.00000 M188.60220,52.00000 L189.00000,52.69644 M6.29743,73.00000 L6.60619,72.00000 M37.00772,26.00000 L38.00000,25.16288 M131.00000,249.77010 L130.00000,249.54993 M58.41327,192.00000 L58.00000,191.79961 M185.00000,246.39796 L184.00000,246.74165 M5.00000,126.30638 L4.92273,126.00000 M34.74009,176.00000 L34.00000,175.32053 M249.77010,131.00000 L249.97958,132.00000 M4.00000,82.10247 L4.02041,82.00000 M239.17206,201.00000 L239.00000,201.30356 M33.65616,29.00000 L34.00000,28.67948 M177.99341,37.00000 L178.00000,37.00772 M125.00000,248.28596 L124.00000,248.00000 M51.00000,188.01741 L50.97081,188.00000 M3.13141,117.00000 L3.00000,116.10351 M31.00000,172.41930 L30.58654,172.00000 M176.23557,35.00000 L177.00000,35.85674 M249.00000,176.30638 L248.82454,177.00000 M220.34384,79.00000 L221.00000,79.61983 M195.58673,242.00000 L195.00000,242.28268 M32.00000,30.58654 L32.60348,30.00000 M97.00000,235.51602 L96.22474,235.00000 M65.98259,203.00000 L65.39780,202.00000 M197.00000,62.69738 L197.59395,63.00000 M47.74260,186.00000 L47.00000,185.51602 M237.41624,100.00000 L238.00000,100.97080 M235.51602,207.00000 L235.00000,207.77525 M46.22474,19.00000 L47.00000,18.48399 M148.00000,251.91997 L147.00000,251.87492 M92.00000,2.50127 L93.00000,2.40583 M64.27341,200.00000 L64.00000,199.49533 M120.00000,3.63338 L121.00000,3.82162 M43.35830,183.00000 L43.00000,182.73991 M146.00000,251.81984 L145.00000,251.75470 M246.39796,185.00000 L246.04253,186.00000 M231.00000,90.69040 L231.23972,91.00000 M172.00000,249.97958 L171.89754,250.00000 M39.42324,24.00000 L40.00000,23.54043 M108.00000,241.79961 L107.00000,241.30261 M61.00000,193.45836 L60.54165,193.00000 M111.00000,2.40583 L112.00000,2.50127 M168.00000,250.71169 L167.00000,250.86859 M242.28268,109.00000 L242.75223,110.00000 M21.00000,160.64171 L20.53886,160.00000 M240.79169,198.00000 L240.26640,199.00000 M20.00000,44.76470 L20.53886,44.00000 M159.00000,251.75470 L158.00000,251.81984 M102.69644,239.00000 L102.00000,238.60220 M132.00000,6.60619 L133.00000,6.92638 M18.00000,156.25740 L17.83374,156.00000 M157.00000,251.87492 L156.00000,251.91997 M249.77010,173.00000 L249.54993,174.00000 M181.00000,40.69040 L181.23972,41.00000 M19.00000,46.22474 L19.15099,46.00000 M100.00000,237.41624 L99.32323,237.00000 M206.25740,236.00000 L206.00000,236.16626 M129.00000,5.71404 L130.00000,6.00000 M182.00000,42.00000 L182.73991,43.00000 M225.00000,83.65617 L225.32053,84.00000 M17.00000,154.67677 L16.58376,154.00000 M205.00000,67.20050 L206.00000,67.83373 M222.41930,223.00000 L222.00000,223.41345 M30.58654,32.00000 L31.00000,31.58070 M151.30356,15.00000 L152.00000,15.39780 M74.00000,6.00000 L75.00000,5.71404 M97.74260,236.00000 L97.00000,235.51602 M28.00000,169.25990 L27.76443,169.00000 M237.41624,204.00000 L237.00000,204.67677 M175.00000,33.65616 L175.32053,34.00000 M25.16288,38.00000 L26.00000,37.00772 M67.83373,206.00000 L67.20050,205.00000 M215.00000,229.65894 L214.57677,230.00000 M89.00000,229.65894 L88.19635,229.00000 M147.00000,251.87492 L146.00000,251.81984 M231.23972,91.00000 L232.00000,92.00000 M23.00000,163.30960 L22.76028,163.00000 M214.00000,73.54043 L214.57677,74.00000 M246.04253,118.00000 L246.39796,119.00000 M229.00000,215.80365 L228.83713,216.00000 M10.00000,62.80982 L10.34868,62.00000 M82.10247,4.00000 L83.00000,3.82162 M108.41327,242.00000 L108.00000,241.79961 M8.70491,138.00000 L8.32517,137.00000 M251.99500,151.00000 L252.00000,152.00000 M242.28268,195.00000 L242.00000,195.58673 M138.00000,8.70491 L138.75377,9.00000 M9.09689,65.00000 L9.50155,64.00000 M251.81984,158.00000 L251.75470,159.00000 M80.58654,222.00000 L80.00000,221.39651 M190.00000,54.50467 L190.26640,55.00000 M106.00000,240.79169 L105.00000,240.26640 M139.00000,9.09689 L140.00000,9.50155 M7.95748,136.00000 L7.60204,135.00000 M188.75377,245.00000 L188.00000,245.29509 M250.86859,137.00000 L251.00000,137.89650 M209.23531,234.00000 L209.00000,234.16420 M7.25835,70.00000 L7.60204,69.00000 M59.00000,11.71732 L60.00000,11.24777 M100.97080,238.00000 L100.00000,237.41624 M206.00000,67.83373 L206.25740,68.00000 M15.98259,153.00000 L15.39780,152.00000 M225.00000,220.34384 L224.38017,221.00000 M155.00000,251.95499 L154.00000,251.98000 M13.73360,55.00000 L14.00000,54.50467 M52.00000,15.39780 L52.69644,15.00000 M197.59395,241.00000 L197.00000,241.30261 M71.26009,211.00000 L71.00000,210.64171 M150.00000,251.98000 L149.00000,251.95499 M12.00000,145.58673 L11.71732,145.00000 M196.00000,62.20040 L197.00000,62.69738 M237.00000,99.32323 L237.41624,100.00000 M218.00000,227.12625 L217.00000,227.99341 M11.24777,60.00000 L11.71732,59.00000 M66.00000,8.70491 L67.00000,8.32517 M67.88388,8.00000 L68.00000,7.95748 M219.00000,77.76443 L219.25990,78.00000 M2.84861,115.00000 L2.72262,114.00000 M248.56078,126.00000 L248.82454,127.00000 M231.23972,213.00000 L231.00000,213.30960 M3.00000,87.89649 L3.13141,87.00000 M247.07362,183.00000 L247.00000,183.22249 M191.79961,58.00000 L192.00000,58.41327 M64.82795,201.00000 L64.27341,200.00000 M120.00000,246.74165 L119.00000,246.39796 M85.00000,226.23557 L84.74009,226.00000 M2.50127,112.00000 L2.40583,111.00000 M172.41930,31.00000 L173.00000,31.58070 M251.99500,153.00000 L251.98000,154.00000 M244.49846,114.00000 L244.90311,115.00000 M212.00000,232.00000 L211.00000,232.73991 M2.32052,94.00000 L2.40583,93.00000 M61.24777,194.00000 L61.00000,193.45836 M111.00000,243.20840 L110.54165,243.00000 M81.00000,4.22990 L82.00000,4.02041 M189.00000,244.90311 L188.75377,245.00000 M2.04501,105.00000 L2.02000,104.00000 M251.00000,137.89650 L251.01515,138.00000 M5.43923,76.00000 L5.71404,75.00000 M250.17839,171.00000 L250.00000,171.89754 M38.00000,25.16288 L38.19635,25.00000 M162.00000,251.49873 L161.00000,251.59416 M132.00000,249.97958 L131.00000,249.77010 M56.40605,191.00000 L56.00000,190.79169 M4.45007,124.00000 L4.22990,123.00000 M35.00000,176.23557 L34.74009,176.00000 M181.00000,247.70258 L180.00000,248.00000 M224.38017,83.00000 L225.00000,83.65617 M183.22249,247.00000 L183.00000,247.07362 M4.02041,82.00000 L4.22990,81.00000 M36.00000,26.87376 L37.00000,26.00659 M129.00000,249.31900 L128.00000,249.07727 M52.00000,188.60220 L51.00000,188.01741 M184.00000,246.74165 L183.22249,247.00000 M3.28832,118.00000 L3.13141,117.00000 M33.65616,175.00000 L33.00000,174.38017 M240.26640,105.00000 L240.79169,106.00000 M3.63338,84.00000 L3.82162,83.00000 M238.60220,202.00000 L238.01741,203.00000 M32.60348,30.00000 L33.00000,29.61983 M176.30638,249.00000 L176.00000,249.07727 M98.00000,2.08004 L99.00000,2.04501 M50.00000,187.41624 L49.32323,187.00000 M48.00000,186.16626 L47.74260,186.00000 M175.00000,249.31900 L174.00000,249.54993 M248.56078,178.00000 L248.28596,179.00000 M234.84901,96.00000 L235.00000,96.22474 M194.00000,242.75223 L193.45836,243.00000 M44.76470,20.00000 L45.00000,19.83580 M89.42323,230.00000 L89.00000,229.65894 M65.00000,9.09689 L65.24623,9.00000 M117.00000,245.67482 L116.00000,245.29509 M191.00000,244.08142 L190.00000,244.49846 M41.00000,181.23972 L40.69040,181.00000 M244.90311,115.00000 L245.00000,115.24623 M251.98000,150.00000 L251.99500,151.00000 M243.20840,193.00000 L243.00000,193.45836 M40.00000,23.54043 L40.69040,23.00000 M140.00000,251.27737 L139.00000,251.15140 M109.00000,2.24530 L110.00000,2.32052 M59.00000,192.28268 L58.41327,192.00000 M112.00000,2.50127 L113.00000,2.60686 M21.26009,161.00000 L21.00000,160.64171 M138.00000,251.01515 L137.89650,251.00000 M251.00000,166.10350 L250.86859,167.00000 M166.00000,25.16288 L166.99228,26.00000 M22.76028,41.00000 L23.00000,40.69040 M106.40604,241.00000 L106.00000,240.79169 M136.00000,7.95748 L136.11612,8.00000 M166.99228,26.00000 L167.00000,26.00659 M241.79961,108.00000 L242.00000,108.41327 M20.00000,159.23531 L19.83580,159.00000 M210.00000,70.53886 L210.64171,71.00000 M226.23557,219.00000 L226.00000,219.25990 M19.15099,46.00000 L19.83580,45.00000 M157.77525,19.00000 L158.00000,19.15099 M101.00000,2.00500 L102.00000,2.00000 M130.00000,6.00000 L131.00000,6.29743 M17.20050,155.00000 L17.00000,154.67677 M156.00000,17.83374 L156.25740,18.00000 M240.26640,199.00000 L240.00000,199.49533 M179.65894,39.00000 L180.00000,39.42324 M29.00000,33.65616 L29.61983,33.00000 M72.00000,6.60619 L73.00000,6.29743 M200.00000,239.72658 L199.49533,240.00000 M95.00000,234.16420 L94.76469,234.00000 M176.00000,34.74009 L176.23557,35.00000 M26.87376,168.00000 L26.00659,167.00000 M220.00000,78.67947 L220.34384,79.00000 M218.14326,77.00000 L219.00000,77.76443 M248.28596,125.00000 L248.56078,126.00000 M233.00000,210.64171 L232.73991,211.00000 M26.00000,37.00772 L26.00659,37.00000 M68.00000,7.95748 L69.00000,7.60204 M90.00000,2.72262 L91.00000,2.60686 M23.54043,164.00000 L23.00000,163.30960 M244.90311,189.00000 L244.49846,190.00000 M144.00000,251.67947 L143.00000,251.59416 M24.34106,39.00000 L25.00000,38.19635 M85.85674,227.00000 L85.00000,226.23557 M214.00000,230.45956 L213.30960,231.00000 M88.00000,2.98485 L89.00000,2.84861 M145.58673,12.00000 L146.00000,12.20040 M230.45956,90.00000 L231.00000,90.69040 M10.00000,141.19017 L9.91858,141.00000 M213.00000,72.76028 L213.30960,73.00000 M251.67947,144.00000 L251.75470,145.00000 M228.00000,216.99228 L227.99341,217.00000 M9.50155,64.00000 L9.91858,63.00000 M81.00000,222.41930 L80.58654,222.00000 M107.00000,2.12508 L108.00000,2.18017 M8.00000,136.11612 L7.95748,136.00000 M241.79961,196.00000 L241.30261,197.00000 M161.00000,251.59416 L160.00000,251.67947 M6.60619,72.00000 L6.92638,71.00000 M57.00000,12.69738 L58.00000,12.20040 M185.00000,46.22474 L185.51602,47.00000 M98.00000,236.16626 L97.74260,236.00000 M156.25740,18.00000 L157.00000,18.48399 M14.82795,151.00000 L14.27341,150.00000 M183.46114,44.00000 L184.00000,44.76470 M240.00000,104.50468 L240.26640,105.00000 M203.02919,238.00000 L203.00000,238.01741 M14.00000,54.50467 L14.27341,54.00000 M52.69644,15.00000 L53.00000,14.82795 M72.00000,212.00000 L71.26009,211.00000 M204.67677,67.00000 L205.00000,67.20050 M12.20040,146.00000 L12.00000,145.58673 M220.00000,225.32053 L219.25990,226.00000 M13.00000,56.40605 L13.20831,56.00000 M249.07727,176.00000 L249.00000,176.30638 M196.00000,241.79961 L195.58673,242.00000 M50.97081,16.00000 L51.00000,15.98259 M70.53886,210.00000 L70.00000,209.23531 M11.24777,144.00000 L11.00000,143.45836 M195.00000,61.71732 L195.58673,62.00000 M236.16626,98.00000 L236.79950,99.00000 M216.99228,228.00000 L216.00000,228.83713 M3.13141,87.00000 L3.28832,86.00000 M65.00000,201.30356 L64.82795,201.00000 M117.88388,246.00000 L117.00000,245.67482 M86.00000,3.28832 L87.00000,3.13141 M213.30960,73.00000 L214.00000,73.54043 M2.60686,113.00000 L2.50127,112.00000 M246.00000,117.88388 L246.04253,118.00000 M230.45956,214.00000 L230.00000,214.57677 M2.12508,97.00000 L2.18017,96.00000 M251.27737,164.00000 L251.15140,165.00000 M60.00000,11.24777 L60.54165,11.00000 M168.00000,26.87376 L168.14326,27.00000 M112.00000,243.65132 L111.00000,243.20840 M79.00000,4.68099 L80.00000,4.45007 M2.00000,102.00000 L2.00500,101.00000 M166.00000,251.01515 L165.00000,251.15140 M241.30261,107.00000 L241.79961,108.00000 M187.41624,50.00000 L188.00000,50.97081 M5.71404,75.00000 L6.00000,74.00000 M136.00000,250.71169 L135.00000,250.54437 M57.00000,191.30261 L56.40605,191.00000 M188.01741,51.00000 L188.60220,52.00000 M4.68099,125.00000 L4.45007,124.00000 M38.00000,178.83713 L37.00772,178.00000 M250.71169,136.00000 L250.86859,137.00000 M5.00000,77.69362 L5.17546,77.00000 M249.97958,172.00000 L249.77010,173.00000 M37.00000,26.00659 L37.00772,26.00000 M181.23972,41.00000 L182.00000,42.00000 M130.00000,249.54993 L129.00000,249.31900 M55.00000,190.26640 L54.50467,190.00000 M4.02041,122.00000 L4.00000,121.89753 M34.00000,175.32053 L33.65616,175.00000 M180.00000,39.42324 L180.45956,40.00000 M223.41345,82.00000 L224.00000,82.60349 M199.49533,240.00000 L199.00000,240.26640 M3.82162,83.00000 L4.00000,82.10247 M31.00000,31.58070 L31.58070,31.00000 M96.00000,2.18017 L97.00000,2.12508 M50.97081,188.00000 L50.00000,187.41624 M195.58673,62.00000 L196.00000,62.20040 M46.22474,185.00000 L46.00000,184.84901 M236.79950,99.00000 L237.00000,99.32323 M234.84901,208.00000 L234.16420,209.00000 M45.00000,19.83580 L46.00000,19.15099 M147.00000,12.69738 L147.59395,13.00000 M90.00000,230.45956 L89.42323,230.00000 M63.20831,198.00000 L63.00000,197.59395 M118.00000,3.28832 L119.00000,3.45563 M42.00000,182.00000 L41.00000,181.23972 M145.00000,11.71732 L145.58673,12.00000 M246.00000,186.11612 L245.67482,187.00000 M230.00000,89.42323 L230.45956,90.00000 M171.00000,250.17839 L170.00000,250.36662 M43.35830,21.00000 L44.00000,20.53886 M88.00000,228.83713 L87.00772,228.00000 M60.00000,192.75223 L59.00000,192.28268 M116.00000,2.98485 L116.10351,3.00000 M172.00000,30.58654 L172.41930,31.00000 M40.00000,180.45956 L39.42324,180.00000 M244.08142,113.00000 L244.49846,114.00000 M251.91997,148.00000 L251.95499,149.00000 M242.75223,194.00000 L242.28268,195.00000 M23.00000,40.69040 L23.54043,40.00000 M138.75377,9.00000 L139.00000,9.09689 M107.00000,241.30261 L106.40604,241.00000 M136.11612,8.00000 L137.00000,8.32517 M20.53886,160.00000 L20.00000,159.23531 M162.00000,22.00000 L163.00000,22.76028 M250.71169,168.00000 L250.54437,169.00000 M164.57677,24.00000 L165.00000,24.34106 M18.00000,47.74260 L18.48399,47.00000 M99.00000,2.04501 L100.00000,2.02000 M205.00000,236.79950 L204.67677,237.00000 M127.00000,248.82454 L126.00000,248.56078 M180.45956,40.00000 L181.00000,40.69040 M224.00000,82.60349 L224.38017,83.00000 M16.00000,153.02919 L15.98259,153.00000 M204.00000,66.58376 L204.67677,67.00000 M221.39651,224.00000 L221.00000,224.38017 M29.61983,33.00000 L30.00000,32.60348 M150.00000,14.27341 L151.00000,14.82795 M72.76028,213.00000 L72.00000,212.00000 M96.00000,234.84901 L95.00000,234.16420 M27.00000,168.14326 L26.87376,168.00000 M236.79950,205.00000 L236.16626,206.00000 M173.41345,32.00000 L174.00000,32.60348 M28.00000,34.74009 L28.67948,34.00000 M70.77751,7.00000 L71.00000,6.92638 M218.14326,227.00000 L218.00000,227.12625 M94.00000,2.32052 L95.00000,2.24530 M174.38017,33.00000 L175.00000,33.65616 M26.00000,166.99228 L25.16288,166.00000 M234.16420,95.00000 L234.84901,96.00000 M217.00000,76.00659 L218.00000,76.87376 M247.70258,123.00000 L248.00000,124.00000 M232.00000,212.00000 L231.23972,213.00000 M25.00000,38.19635 L25.16288,38.00000 M86.00000,227.12625 L85.85674,227.00000 M88.19635,229.00000 L88.00000,228.83713 M10.34869,62.00000 L10.79159,61.00000 M251.95499,149.00000 L251.98000,150.00000 M244.08142,191.00000 L244.00000,191.19017 M143.00000,10.79159 L143.45836,11.00000 M8.70491,66.00000 L9.00000,65.24623 M251.67947,160.00000 L251.59416,161.00000 M79.00000,220.34384 L78.67947,220.00000 M189.00000,52.69644 L189.17206,53.00000 M104.50468,240.00000 L104.00000,239.72658 M137.89650,251.00000 L137.00000,250.86859 M7.25835,134.00000 L7.00000,133.22249 M188.00000,50.97081 L188.01741,51.00000 M250.54437,135.00000 L250.71169,136.00000 M208.00000,234.84901 L207.77525,235.00000 M6.92638,71.00000 L7.00000,70.77751 M58.00000,12.20040 L58.41327,12.00000 M99.00000,236.79950 L98.00000,236.16626 M209.23531,70.00000 L210.00000,70.53886 M15.00000,151.30356 L14.82795,151.00000 M224.00000,221.39651 L223.41345,222.00000 M154.00000,16.58376 L154.67677,17.00000 M15.98259,51.00000 L16.00000,50.97081 M56.00000,13.20831 L56.40605,13.00000 M184.00000,44.76470 L184.16420,45.00000 M75.16288,216.00000 L75.00000,215.80365 M155.00000,17.20050 L156.00000,17.83374 M14.00000,149.49533 L13.73360,149.00000 M200.00000,64.27341 L201.00000,64.82795 M239.17206,103.00000 L239.72658,104.00000 M202.00000,238.60220 L201.30356,239.00000 M13.20831,56.00000 L13.73360,55.00000 M51.00000,15.98259 L52.00000,15.39780 M71.00000,6.92638 L72.00000,6.60619 M218.00000,76.87376 L218.14326,77.00000 M11.71732,145.00000 L11.24777,144.00000 M248.00000,124.00000 L248.28596,125.00000 M234.16420,209.00000 L234.00000,209.23531 M2.84861,89.00000 L2.98485,88.00000 M246.74165,184.00000 L246.39796,185.00000 M191.00000,56.40605 L191.30261,57.00000 M63.73360,199.00000 L63.20831,198.00000 M118.00000,246.04253 L117.88388,246.00000 M84.00000,3.63338 L85.00000,3.45563 M2.32052,110.00000 L2.24530,109.00000 M171.39651,30.00000 L172.00000,30.58654 M251.95499,155.00000 L251.91997,156.00000 M244.00000,112.80982 L244.08142,113.00000 M210.64171,233.00000 L210.00000,233.46114 M2.18017,96.00000 L2.24530,95.00000 M60.54165,11.00000 L61.00000,10.79159 M116.00000,245.29509 L115.24623,245.00000 M79.61983,221.00000 L79.00000,220.34384 M212.00000,72.00000 L213.00000,72.76028 M2.00500,103.00000 L2.00000,102.00000 M251.59416,143.00000 L251.67947,144.00000 M2.04501,99.00000 L2.08004,98.00000 M251.01515,166.00000 L251.00000,166.10350 M166.10350,251.00000 L166.00000,251.01515 M137.00000,8.32517 L138.00000,8.70491 M77.76443,219.00000 L77.00000,218.14326 M5.71404,129.00000 L5.43923,128.00000 M38.19635,179.00000 L38.00000,178.83713 M165.00000,24.34106 L165.80365,25.00000 M227.12625,86.00000 L227.99341,87.00000 M186.16626,48.00000 L186.79950,49.00000 M5.17546,77.00000 L5.43923,76.00000 M35.00000,27.76443 L35.85674,27.00000 M127.69362,249.00000 L127.00000,248.82454 M56.00000,190.79169 L55.00000,190.26640 M183.00000,247.07362 L182.00000,247.39381 M4.22990,123.00000 L4.02041,122.00000 M32.60348,174.00000 L32.00000,173.41345 M239.72658,104.00000 L240.00000,104.50468 M3.28832,86.00000 L3.45563,85.00000 M238.00000,203.02919 L237.41624,204.00000 M31.58070,31.00000 L32.00000,30.58654 M175.32053,34.00000 L176.00000,34.74009 M96.22474,235.00000 L96.00000,234.84901 M49.00000,186.79950 L48.00000,186.16626 M47.00000,185.51602 L46.22474,185.00000 M174.00000,32.60348 L174.38017,33.00000 M248.00000,180.00000 L247.70258,181.00000 M234.00000,94.76469 L234.16420,95.00000 M193.00000,243.20840 L192.00000,243.65132 M48.00000,17.83374 L49.00000,17.20050 M94.00000,233.46114 L93.35830,233.00000 M64.00000,9.50155 L65.00000,9.09689 M122.00000,4.02041 L123.00000,4.22990 M194.00000,61.24777 L195.00000,61.71732 M45.00000,184.16420 L44.76470,184.00000 M236.00000,97.74260 L236.16626,98.00000 M245.00000,188.75377 L244.90311,189.00000 M44.00000,20.53886 L44.76470,20.00000 M145.00000,251.75470 L144.00000,251.67947 M89.00000,2.84861 L90.00000,2.72262 M62.69738,197.00000 L62.20040,196.00000 M116.10351,3.00000 L117.00000,3.13141 M40.69040,181.00000 L40.00000,180.45956 M143.00000,251.59416 L142.00000,251.49873 M251.59416,161.00000 L251.49873,162.00000 M229.00000,88.19635 L229.65894,89.00000 M170.00000,28.67948 L170.34384,29.00000 M21.26009,43.00000 L22.00000,42.00000 M105.00000,2.04501 L106.00000,2.08004 M134.00000,7.25835 L135.00000,7.60204 M165.80365,25.00000 L166.00000,25.16288 M241.00000,106.40604 L241.30261,107.00000 M19.15099,158.00000 L19.00000,157.77525 M209.00000,69.83580 L209.23531,70.00000 M225.32053,220.00000 L225.00000,220.34384 M18.48399,47.00000 L19.00000,46.22474 M156.00000,251.91997 L155.00000,251.95499 M99.32323,237.00000 L99.00000,236.79950 M128.00000,5.43923 L129.00000,5.71404 M16.58376,154.00000 L16.00000,153.02919 M154.00000,251.98000 L153.00000,251.99500 M239.72658,200.00000 L239.17206,201.00000 M178.00000,248.56078 L177.00000,248.82454 M17.20050,49.00000 L17.83374,48.00000 M76.00000,5.43923 L77.00000,5.17546 M204.00000,237.41624 L203.02919,238.00000 M126.00000,4.92273 L126.30638,5.00000 M179.00000,248.28596 L178.00000,248.56078 M29.61983,171.00000 L29.00000,170.34384 M223.00000,81.58070 L223.41345,82.00000 M203.00000,65.98259 L203.02919,66.00000 M249.54993,130.00000 L249.77010,131.00000 M220.34384,225.00000 L220.00000,225.32053 M28.67948,34.00000 L29.00000,33.65616 M71.00000,210.64171 L70.53886,210.00000 M94.76469,234.00000 L94.00000,233.46114 M26.00659,167.00000 L26.00000,166.99228 M236.00000,206.25740 L235.51602,207.00000 M149.00000,251.95499 L148.00000,251.91997 M23.54043,40.00000 L24.00000,39.42324 M84.00000,225.32053 L83.65617,225.00000 M213.00000,231.23972 L212.00000,232.00000 M87.00000,3.13141 L87.89649,3.00000 M144.00000,11.24777 L145.00000,11.71732 M229.65894,89.00000 L230.00000,89.42323 M9.50155,140.00000 L9.09689,139.00000 M211.00000,71.26009 L212.00000,72.00000 M251.49873,142.00000 L251.59416,143.00000 M227.12625,218.00000 L227.00000,218.14326 M9.00000,65.24623 L9.09689,65.00000 M80.00000,4.45007 L81.00000,4.22990 M105.00000,240.26640 L104.50468,240.00000 M7.60204,135.00000 L7.25835,134.00000 M251.87492,147.00000 L251.91997,148.00000 M241.00000,197.59395 L240.79169,198.00000 M160.00000,20.53886 L160.64171,21.00000 M8.00000,67.88388 L8.32517,67.00000 M78.00000,4.92273 L79.00000,4.68099 M188.00000,245.29509 L187.00000,245.67482 M103.00000,2.00500 L104.00000,2.02000 M161.00000,21.26009 L162.00000,22.00000 M6.92638,133.00000 L6.60619,132.00000 M186.79950,49.00000 L187.00000,49.32323 M250.17839,133.00000 L250.36662,134.00000 M207.00000,235.51602 L206.25740,236.00000 M16.00000,50.97081 L16.58376,50.00000 M56.40605,13.00000 L57.00000,12.69738 M76.00000,216.99228 L75.16288,216.00000 M203.02919,66.00000 L204.00000,66.58376 M14.27341,150.00000 L14.00000,149.49533 M223.00000,222.41930 L222.41930,223.00000 M152.00000,252.00000 L151.00000,251.99500 M12.20040,58.00000 L12.69738,57.00000 M248.82454,177.00000 L248.56078,178.00000 M195.00000,242.28268 L194.00000,242.75223 M49.32323,17.00000 L50.00000,16.58376 M69.15099,208.00000 L69.00000,207.77525 M10.79159,143.00000 L10.34869,142.00000 M193.45836,61.00000 L194.00000,61.24777 M235.51602,97.00000 L236.00000,97.74260 M215.80365,229.00000 L215.00000,229.65894 M2.98485,88.00000 L3.00000,87.89649 M64.00000,199.49533 L63.73360,199.00000 M122.00000,247.39381 L121.00000,247.07362 M84.74009,226.00000 L84.00000,225.32053 M216.99228,76.00000 L217.00000,76.00659 M2.40583,111.00000 L2.32052,110.00000 M247.39381,122.00000 L247.70258,123.00000 M229.65894,215.00000 L229.00000,215.80365 M2.60686,91.00000 L2.72262,90.00000 M246.04253,186.00000 L246.00000,186.11612 M171.89754,250.00000 L171.00000,250.17839 M62.80982,10.00000 L63.00000,9.91858 M117.00000,3.13141 L118.00000,3.28832 M82.60349,224.00000 L82.00000,223.41345 M2.18017,108.00000 L2.12508,107.00000 M170.00000,250.36662 L169.00000,250.54437 M251.87492,157.00000 L251.81984,158.00000 M243.20840,111.00000 L243.65132,112.00000 M190.26640,55.00000 L190.79169,56.00000 M2.08004,98.00000 L2.12508,97.00000 M134.00000,250.36662 L133.00000,250.17839 M78.00000,219.25990 L77.76443,219.00000 M187.00000,245.67482 L186.11612,246.00000 M6.00000,130.00000 L5.71404,129.00000 M37.00000,177.99341 L36.00000,177.12625 M250.36662,134.00000 L250.54437,135.00000 M4.68099,79.00000 L4.92273,78.00000 M249.54993,174.00000 L249.31900,175.00000 M35.85674,27.00000 L36.00000,26.87376 M180.00000,248.00000 L179.00000,248.28596 M128.00000,249.07727 L127.69362,249.00000 M54.00000,189.72658 L53.00000,189.17206 M3.82162,121.00000 L3.63338,120.00000 M33.00000,174.38017 L32.60348,174.00000 M178.83713,38.00000 L179.00000,38.19635 M222.41930,81.00000 L223.00000,81.58070 M198.00000,240.79169 L197.59395,241.00000 M3.45563,85.00000 L3.63338,84.00000 M34.00000,28.67948 L34.74009,28.00000 M126.00000,248.56078 L125.00000,248.28596 M49.32323,187.00000 L49.00000,186.79950 M199.49533,64.00000 L200.00000,64.27341 M31.58070,173.00000 L31.00000,172.41930 M239.00000,102.69644 L239.17206,103.00000 M237.00000,204.67677 L236.79950,205.00000 M49.00000,17.20050 L49.32323,17.00000 M174.00000,249.54993 L173.00000,249.77010 M95.00000,2.24530 L96.00000,2.18017 M66.00000,203.02919 L65.98259,203.00000 M123.00000,4.22990 L124.00000,4.45007 M46.00000,184.84901 L45.00000,184.16420 M149.49533,14.00000 L150.00000,14.27341 M247.39381,182.00000 L247.07362,183.00000 M233.00000,93.35830 L233.46114,94.00000 M192.00000,243.65132 L191.19017,244.00000 M42.00000,22.00000 L43.00000,21.26009 M87.00000,227.99341 L86.00000,227.12625 M63.00000,9.91858 L64.00000,9.50155 M114.00000,244.49846 L113.00000,244.08142 M171.00000,29.61983 L171.39651,30.00000 M39.00000,179.65894 L38.19635,179.00000 M243.65132,112.00000 L244.00000,112.80982 M251.81984,146.00000 L251.87492,147.00000 M242.00000,195.58673 L241.79961,196.00000 M22.00000,42.00000 L22.76028,41.00000 M137.00000,250.86859 L136.00000,250.71169 M106.00000,2.08004 L107.00000,2.12508 M135.00000,7.60204 L136.00000,7.95748 M19.83580,159.00000 L19.15099,158.00000 M160.00000,251.67947 L159.00000,251.75470 M250.36662,170.00000 L250.17839,171.00000 M163.00000,251.39314 L162.00000,251.49873 M20.53886,44.00000 L21.00000,43.35830 M103.00000,239.17206 L102.69644,239.00000 M209.00000,234.16420 L208.00000,234.84901 M132.10246,250.00000 L132.00000,249.97958 M164.00000,251.27737 L163.00000,251.39314 M227.00000,85.85674 L227.12625,86.00000 M18.48399,157.00000 L18.00000,156.25740 M207.77525,69.00000 L208.00000,69.15099 M224.38017,221.00000 L224.00000,221.39651 M17.83374,48.00000 L18.00000,47.74260 M154.67677,17.00000 L155.00000,17.20050 M76.00659,217.00000 L76.00000,216.99228 M126.30638,5.00000 L127.00000,5.17546 M30.00000,171.39651 L29.61983,171.00000 M153.00000,15.98259 L153.02919,16.00000 M239.00000,201.30356 L238.60220,202.00000 M177.00000,248.82454 L176.30638,249.00000 M27.00000,35.85674 L27.76443,35.00000 M69.83580,209.00000 L69.15099,208.00000 M217.00000,227.99341 L216.99228,228.00000 M92.00000,232.00000 L91.00000,231.23972 M173.00000,249.77010 L172.00000,249.97958 M25.00000,165.80365 L24.34106,165.00000 M233.46114,94.00000 L234.00000,94.76469 M216.00000,75.16288 L216.99228,76.00000 M247.07362,121.00000 L247.39381,122.00000 M231.00000,213.30960 L230.45956,214.00000 M24.00000,39.42324 L24.34106,39.00000 M85.00000,3.45563 L86.00000,3.28832 M87.00772,228.00000 L87.00000,227.99341 M9.91858,141.00000 L9.50155,140.00000 M243.65132,192.00000 L243.20840,193.00000 M141.00000,251.39314 L140.00000,251.27737 M10.34868,142.00000 L10.00000,141.19017 M251.98000,154.00000 L251.95499,155.00000 M83.00000,3.82162 L84.00000,3.63338 M211.00000,232.73991 L210.64171,233.00000 M109.00000,242.28268 L108.41327,242.00000 M142.00000,251.49873 L141.00000,251.39314 M228.83713,88.00000 L229.00000,88.19635 M9.00000,138.75377 L8.70491,138.00000 M190.79169,56.00000 L191.00000,56.40605 M251.27737,140.00000 L251.39314,141.00000 M8.32517,67.00000 L8.70491,66.00000 M78.67947,220.00000 L78.00000,219.25990 M104.00000,2.02000 L105.00000,2.04501 M208.00000,69.15099 L209.00000,69.83580 M7.00000,133.22249 L6.92638,133.00000 M227.00000,218.14326 L226.23557,219.00000 M158.00000,251.81984 L157.00000,251.87492 M15.00000,52.69644 L15.39780,52.00000 M54.50467,14.00000 L55.00000,13.73360 M183.00000,43.35830 L183.46114,44.00000 M74.00000,214.57677 L73.54043,214.00000 M153.02919,16.00000 L154.00000,16.58376 M13.20831,148.00000 L13.00000,147.59395 M199.00000,63.73360 L199.49533,64.00000 M238.60220,102.00000 L239.00000,102.69644 M201.00000,239.17206 L200.00000,239.72658 M12.69738,57.00000 L13.00000,56.40605 M50.00000,16.58376 L50.97081,16.00000 M70.00000,7.25835 L70.77751,7.00000 M202.00000,65.39780 L203.00000,65.98259 M11.00000,143.45836 L10.79159,143.00000 M249.31900,129.00000 L249.54993,130.00000 M233.46114,210.00000 L233.00000,210.64171 M11.71732,59.00000 L12.00000,58.41327 M248.28596,179.00000 L248.00000,180.00000 M193.45836,243.00000 L193.00000,243.20840 M66.58376,204.00000 L66.00000,203.02919 M123.00000,247.70258 L122.00000,247.39381 M68.00000,206.25740 L67.83373,206.00000 M2.98485,116.00000 L2.84861,115.00000 M192.28268,59.00000 L192.75223,60.00000 M245.67482,117.00000 L246.00000,117.88388 M214.57677,230.00000 L214.00000,230.45956 M2.72262,90.00000 L2.84861,89.00000 M63.00000,197.59395 L62.69738,197.00000 M115.00000,2.84861 L116.00000,2.98485 M83.00000,224.38017 L82.60349,224.00000 M210.64171,71.00000 L211.00000,71.26009 M2.24530,109.00000 L2.18017,108.00000 M251.39314,141.00000 L251.49873,142.00000 M228.83713,216.00000 L228.00000,216.99228 M2.00500,101.00000 L2.02000,100.00000 M250.86859,167.00000 L250.71169,168.00000 M165.00000,251.15140 L164.00000,251.27737 M135.00000,250.54437 L134.00000,250.36662 M76.87376,218.00000 L76.00659,217.00000 M5.17546,127.00000 L5.00000,126.30638 M37.00772,178.00000 L37.00000,177.99341 M163.30960,23.00000 L164.00000,23.54043 M226.23557,85.00000 L227.00000,85.85674 M185.51602,47.00000 L186.00000,47.74260 M4.92273,78.00000 L5.00000,77.69362 M38.19635,25.00000 L39.00000,24.34106 M133.00000,6.92638 L133.22249,7.00000 M54.50467,190.00000 L54.00000,189.72658 M186.11612,246.00000 L186.00000,246.04253 M4.00000,121.89753 L3.82162,121.00000 M35.85674,177.00000 L35.00000,176.23557 M250.00000,132.10246 L250.17839,133.00000 M4.22990,81.00000 L4.45007,80.00000 M240.00000,199.49533 L239.72658,200.00000 M34.74009,28.00000 L35.00000,27.76443 M179.00000,38.19635 L179.65894,39.00000 M127.00000,5.17546 L128.00000,5.43923 M52.69644,189.00000 L52.00000,188.60220 M3.45563,119.00000 L3.28832,118.00000 M32.00000,173.41345 L31.58070,173.00000 M177.12625,36.00000 L177.99341,37.00000 M249.31900,175.00000 L249.07727,176.00000 M221.39651,80.00000 L222.00000,80.58654 M197.00000,241.30261 L196.00000,241.79961 M47.00000,18.48399 L47.74260,18.00000 M93.00000,2.40583 L94.00000,2.32052 M67.00000,8.32517 L67.88388,8.00000 M120.77751,247.00000 L120.00000,246.74165 M193.00000,60.54165 L193.45836,61.00000 M44.00000,183.46114 L43.35830,183.00000 M235.00000,96.22474 L235.51602,97.00000 M244.49846,190.00000 L244.08142,191.00000 M43.00000,21.26009 L43.35830,21.00000 M143.45836,11.00000 L144.00000,11.24777 M87.89649,3.00000 L88.00000,2.98485 M61.71732,195.00000 L61.24777,194.00000 M115.00000,244.90311 L114.00000,244.49846 M39.42324,180.00000 L39.00000,179.65894 M141.19017,10.00000 L142.00000,10.34869 M251.39314,163.00000 L251.27737,164.00000 M228.00000,87.00772 L228.83713,88.00000 M168.14326,27.00000 L169.00000,27.76443 M40.69040,23.00000 L41.00000,22.76028 M110.00000,2.32052 L111.00000,2.40583 M112.80982,244.00000 L112.00000,243.65132 M169.25990,28.00000 L170.00000,28.67948 M243.00000,110.54165 L243.20840,111.00000 M22.00000,162.00000 L21.26009,161.00000 M241.30261,197.00000 L241.00000,197.59395 M21.00000,43.35830 L21.26009,43.00000 M160.64171,21.00000 L161.00000,21.26009 M104.00000,239.72658 L103.00000,239.17206 M133.00000,250.17839 L132.10246,250.00000 M19.00000,157.77525 L18.48399,157.00000 M159.00000,19.83580 L159.23531,20.00000 M250.00000,171.89754 L249.97958,172.00000 M182.00000,247.39381 L181.00000,247.70258 M16.58376,50.00000 L17.00000,49.32323 M74.34106,215.00000 L74.00000,214.57677 M203.00000,238.01741 L202.00000,238.60220 M124.00000,4.45007 L125.00000,4.68099 M178.00000,37.00772 L178.83713,38.00000 M28.67948,170.00000 L28.00000,169.25990 M222.00000,80.58654 L222.41930,81.00000 M201.30356,65.00000 L202.00000,65.39780 M249.07727,128.00000 L249.31900,129.00000 M219.25990,226.00000 L219.00000,226.23557 M27.76443,35.00000 L28.00000,34.74009 M70.00000,209.23531 L69.83580,209.00000 M93.00000,232.73991 L92.00000,232.00000 M25.16288,166.00000 L25.00000,165.80365 "/>

<script>
let svgs = document.children[0];
let paths = Array.from(svgs.children).filter(function(c) {
    var orig = c.style.stroke;
    c.onmouseover = function() {
        c.style.stroke = "rgb(0, 0, 255)";
    };
    c.onmouseout = function () {
        c.style.stroke = orig;
    };
    c.onclick = function () {
        svgs.removeChild()
    }
});

for (let path of paths) {
    console.log(path);
}
</script></svg>