<svg xmlns="http://www.w3.org/2000/svg">
    <path fill-rule="evenodd" style="fill: none; stroke: rgb(0, 0, 0); stroke-width: 0.2;" d="M12.00000,10.00000 L12.00000,11.00000 M7.00000,12.00000 L6.00000,12.00000 M2.00000,9.00000 L2.00000,8.00000 M12.00000,6.00000 L12.00000,7.00000 M5.00000,12.00000 L4.00000,12.00000 M2.00000,2.00000 L3.00000,2.00000 M11.00000,12.00000 L10.00000,12.00000 M5.00000,2.00000 L6.00000,2.00000 M9.00000,12.00000 L8.00000,12.00000 M3.00000,2.00000 L4.00000,2.00000 M12.00000,9.00000 L12.00000,10.00000 M9.00000,2.00000 L10.00000,2.00000 M2.00000,8.00000 L2.00000,7.00000 M12.00000,5.00000 L12.00000,6.00000 M7.00000,2.00000 L8.00000,2.00000 M2.00000,3.00000 L2.00000,2.00000 M12.00000,4.00000 L12.00000,5.00000 M4.00000,12.00000 L3.00000,12.00000 M11.00000,2.00000 L12.00000,2.00000 M2.00000,12.00000 L2.00000,11.00000 M2.00000,7.00000 L2.00000,6.00000 M12.00000,12.00000 L11.00000,12.00000 M8.00000,12.00000 L7.00000,12.00000 M2.00000,6.00000 L2.00000,5.00000 M12.00000,8.00000 L12.00000,9.00000 M6.00000,12.00000 L5.00000,12.00000 M4.00000,2.00000 L5.00000,2.00000 M12.00000,3.00000 L12.00000,4.00000 M2.00000,11.00000 L2.00000,10.00000 M10.00000,12.00000 L9.00000,12.00000 M8.00000,2.00000 L9.00000,2.00000 M2.00000,5.00000 L2.00000,4.00000 M12.00000,11.00000 L12.00000,12.00000 M6.00000,2.00000 L7.00000,2.00000 M2.00000,4.00000 L2.00000,3.00000 M12.00000,7.00000 L12.00000,8.00000 M12.00000,2.00000 L12.00000,3.00000 M3.00000,12.00000 L2.00000,12.00000 M10.00000,2.00000 L11.00000,2.00000 M2.00000,10.00000 L2.00000,9.00000 "/>

<script>
let svgs = document.children[0];
let paths = Array.from(svgs.children).filter(function(c) {
    var orig = c.style.stroke;
    c.onmouseover = function() {
        c.style.stroke = "rgb(0, 0, 255)";
    };
    c.onmouseout = function () {
        c.style.stroke = orig;
    };
    c.onclick = function () {
        svgs.removeChild()
    }
});

for (let path of paths) {
    console.log(path);
}
</script></svg>