<svg xmlns="http://www.w3.org/2000/svg">
    <path fill-rule="evenodd" style="fill: none; stroke: rgb(0, 0, 0); stroke-width: 0.2;" d="M162.00000,132.00000 L162.00000,133.00000 L162.00000,134.00000 L162.00000,135.00000 L162.00000,136.00000 L162.00000,137.00000 L162.00000,138.00000 L162.00000,139.00000 L162.00000,140.00000 L162.00000,141.00000 L162.00000,142.00000 L162.00000,143.00000 L162.00000,144.00000 L162.00000,145.00000 L162.00000,146.00000 L162.00000,147.00000 L162.00000,148.00000 L162.00000,149.00000 L162.00000,150.00000 L162.00000,151.00000 L162.00000,152.00000 L162.00000,153.00000 L162.00000,154.00000 L162.00000,155.00000 L162.00000,156.00000 L162.00000,157.00000 L162.00000,158.00000 L162.00000,159.00000 L162.00000,160.00000 L162.00000,161.00000 L162.00000,162.00000 L161.00000,162.00000 L160.00000,162.00000 L159.00000,162.00000 L158.00000,162.00000 L157.00000,162.00000 L156.00000,162.00000 L155.00000,162.00000 L154.00000,162.00000 L153.00000,162.00000 L152.00000,162.00000 L151.00000,162.00000 L150.00000,162.00000 L149.00000,162.00000 L148.00000,162.00000 L147.00000,162.00000 L146.00000,162.00000 L145.00000,162.00000 L144.00000,162.00000 L143.00000,162.00000 L142.00000,162.00000 L141.00000,162.00000 L140.00000,162.00000 L139.00000,162.00000 L138.00000,162.00000 L137.00000,162.00000 L136.00000,162.00000 L135.00000,162.00000 L134.00000,162.00000 L133.00000,162.00000 L132.00000,162.00000 L131.00000,162.00000 L130.00000,162.00000 L129.00000,162.00000 L128.00000,162.00000 L127.00000,162.00000 L126.00000,162.00000 L125.00000,162.00000 L124.00000,162.00000 L123.00000,162.00000 L122.00000,162.00000 L121.00000,162.00000 L120.00000,162.00000 L119.00000,162.00000 L118.00000,162.00000 L117.00000,162.00000 L116.00000,162.00000 L115.00000,162.00000 L114.00000,162.00000 L113.00000,162.00000 L112.00000,162.00000 L111.00000,162.00000 L110.00000,162.00000 L109.00000,162.00000 L108.00000,162.00000 L107.00000,162.00000 L106.00000,162.00000 L105.00000,162.00000 L104.00000,162.00000 L103.00000,162.00000 L102.00000,162.00000 L101.00000,162.00000 L100.00000,162.00000 L99.00000,162.00000 L98.00000,162.00000 L97.00000,162.00000 L96.00000,162.00000 L95.00000,162.00000 L94.00000,162.00000 L93.00000,162.00000 L92.00000,162.00000 L91.00000,162.00000 L90.00000,162.00000 L89.00000,162.00000 L88.00000,162.00000 L87.00000,162.00000 L86.00000,162.00000 L85.00000,162.00000 L84.00000,162.00000 L83.00000,162.00000 L82.00000,162.00000 L81.00000,162.00000 L80.00000,162.00000 L79.00000,162.00000 L78.00000,162.00000 L77.00000,162.00000 L76.00000,162.00000 L75.00000,162.00000 L74.00000,162.00000 L73.00000,162.00000 L72.00000,162.00000 L71.00000,162.00000 L70.00000,162.00000 L69.00000,162.00000 L68.00000,162.00000 L67.00000,162.00000 L66.00000,162.00000 L65.00000,162.00000 L64.00000,162.00000 L63.00000,162.00000 L62.00000,162.00000 L61.00000,162.00000 L60.00000,162.00000 L59.00000,162.00000 L58.00000,162.00000 L57.00000,162.00000 L56.00000,162.00000 L55.00000,162.00000 L54.00000,162.00000 L53.00000,162.00000 L52.00000,162.00000 L51.00000,162.00000 L50.00000,162.00000 L49.00000,162.00000 L48.00000,162.00000 L47.00000,162.00000 L46.00000,162.00000 L45.00000,162.00000 L44.00000,162.00000 L43.00000,162.00000 L42.00000,162.00000 L41.00000,162.00000 L40.00000,162.00000 L39.00000,162.00000 L38.00000,162.00000 L37.00000,162.00000 L36.00000,162.00000 L35.00000,162.00000 L34.00000,162.00000 L33.00000,162.00000 L32.00000,162.00000 L31.00000,162.00000 L30.00000,162.00000 L29.00000,162.00000 L28.00000,162.00000 L27.00000,162.00000 L26.00000,162.00000 L25.00000,162.00000 L24.00000,162.00000 L23.00000,162.00000 L22.00000,162.00000 L21.00000,162.00000 L20.00000,162.00000 L19.00000,162.00000 L18.00000,162.00000 L17.00000,162.00000 L16.00000,162.00000 L15.00000,162.00000 L14.00000,162.00000 L13.00000,162.00000 L12.00000,162.00000 L11.00000,162.00000 L10.00000,162.00000 L9.00000,162.00000 L8.00000,162.00000 L7.00000,162.00000 L6.00000,162.00000 L5.00000,162.00000 L4.00000,162.00000 L3.00000,162.00000 L2.00000,162.00000 L2.00000,161.00000 L2.00000,160.00000 L2.00000,159.00000 L2.00000,158.00000 L2.00000,157.00000 L2.00000,156.00000 L2.00000,155.00000 L2.00000,154.00000 L2.00000,153.00000 L2.00000,152.00000 L2.00000,151.00000 L2.00000,150.00000 L2.00000,149.00000 L2.00000,148.00000 L2.00000,147.00000 L2.00000,146.00000 L2.00000,145.00000 L2.00000,144.00000 L2.00000,143.00000 L2.00000,142.00000 L2.00000,141.00000 L2.00000,140.00000 L2.00000,139.00000 L2.00000,138.00000 L2.00000,137.00000 L2.00000,136.00000 L2.00000,135.00000 L2.00000,134.00000 L2.00000,133.00000 L2.00000,132.00000 L2.00000,131.00000 L2.00000,130.00000 L2.00000,129.00000 L2.00000,128.00000 L2.00000,127.00000 L2.00000,126.00000 L2.00000,125.00000 L2.00000,124.00000 L2.00000,123.00000 L2.00000,122.00000 L2.00000,121.00000 L2.00000,120.00000 L2.00000,119.00000 L2.00000,118.00000 L2.00000,117.00000 L2.00000,116.00000 L2.00000,115.00000 L2.00000,114.00000 L2.00000,113.00000 L2.00000,112.00000 L2.00000,111.00000 L2.00000,110.00000 L2.00000,109.00000 L2.00000,108.00000 L2.00000,107.00000 L2.00000,106.00000 L3.00000,106.16402 L4.00000,106.53821 L5.00000,106.79761 L6.00000,106.94985 L7.00000,107.00000 L8.00000,106.94985 L9.00000,106.79761 L10.00000,106.53821 L11.00000,106.16402 L11.33830,106.00000 L12.00000,105.65691 L13.00000,105.00000 L14.00000,104.13756 L14.13756,104.00000 L15.00000,103.00000 L15.65690,102.00000 L16.00000,101.33829 L16.16402,101.00000 L16.53821,100.00000 L16.79761,99.00000 L16.94985,98.00000 L17.00000,97.00000 L16.94985,96.00000 L16.79761,95.00000 L16.53821,94.00000 L16.16402,93.00000 L16.00000,92.66171 L15.65690,92.00000 L15.00000,91.00000 L14.13756,90.00000 L14.00000,89.86244 L13.00000,89.00000 L12.00000,88.34309 L11.33830,88.00000 L11.00000,87.83598 L10.00000,87.46179 L9.00000,87.20239 L8.00000,87.05015 L7.00000,87.00000 L6.00000,87.05015 L5.00000,87.20239 L4.00000,87.46179 L3.00000,87.83598 L2.00000,88.00000 L2.00000,87.00000 L2.00000,86.00000 L2.00000,85.00000 L2.00000,84.00000 L2.00000,83.00000 L2.00000,82.00000 L1.99999,81.00000 L2.00000,80.00000 L2.00000,79.00000 L2.00000,78.00000 L2.00000,77.00000 L1.99999,76.00000 L3.00000,76.16402 L4.00000,76.53821 L5.00000,76.79761 L6.00000,76.94985 L7.00000,77.00000 L8.00000,76.94985 L9.00000,76.79761 L10.00000,76.53821 L11.00000,76.16402 L11.33830,76.00000 L12.00000,75.65691 L13.00000,75.00000 L14.00000,74.13756 L14.13756,74.00000 L15.00000,73.00000 L15.65690,72.00000 L16.00000,71.33829 L16.16402,71.00000 L16.53821,70.00000 L16.79761,69.00000 L16.94985,68.00000 L17.00000,67.00000 L16.94985,66.00000 L16.79761,65.00000 L16.53821,64.00000 L16.16402,63.00000 L16.00000,62.66170 L15.65690,62.00000 L15.00000,61.00000 L14.13756,60.00000 L14.00000,59.86245 L13.00000,59.00000 L12.00000,58.34310 L11.33830,58.00000 L11.00000,57.83598 L10.00000,57.46179 L9.00000,57.20239 L8.00000,57.05015 L7.00000,57.00000 L6.00000,57.05015 L5.00000,57.20239 L4.00000,57.46179 L3.00000,57.83598 L2.00003,58.00000 L2.00000,57.00000 L1.99999,56.00000 L2.00000,55.00000 L2.00000,54.00000 L2.00000,53.00000 L2.00000,52.00000 L1.99999,51.00000 L2.00000,50.00000 L2.00000,49.00000 L2.00000,48.00000 L2.00000,47.00000 L1.99999,46.00000 L3.00000,46.16402 L4.00000,46.53821 L5.00000,46.79761 L6.00000,46.94985 L7.00000,47.00000 L8.00000,46.94985 L9.00000,46.79761 L10.00000,46.53821 L11.00000,46.16402 L11.33830,46.00000 L12.00000,45.65690 L13.00000,45.00000 L14.00000,44.13755 L14.13756,44.00000 L15.00000,43.00000 L15.65690,42.00000 L16.00000,41.33830 L16.16402,41.00000 L16.53821,40.00000 L16.79761,39.00000 L16.94985,38.00000 L17.00000,37.00000 L16.94985,36.00000 L16.79761,35.00000 L16.53821,34.00000 L16.16402,33.00000 L16.00000,32.66170 L15.65690,32.00000 L15.00000,31.00000 L14.13756,30.00000 L14.00000,29.86244 L13.00000,29.00000 L12.00000,28.34310 L11.33830,28.00000 L11.00000,27.83598 L10.00000,27.46179 L9.00000,27.20239 L8.00000,27.05015 L7.00000,27.00000 L6.00000,27.05015 L5.00000,27.20239 L4.00000,27.46179 L3.00000,27.83598 L2.00003,28.00000 L2.00000,27.00000 L1.99999,26.00000 L2.00000,25.00000 L1.99999,24.00000 L2.00000,23.00000 L2.00000,22.00000 L1.99999,21.00000 L2.00000,20.00000 L1.99999,19.00000 L2.00000,18.00000 L2.00000,17.00000 L1.99999,16.00000 L3.00000,16.16402 L4.00000,16.53821 L5.00000,16.79761 L6.00000,16.94985 L7.00000,17.00000 L8.00000,16.94985 L9.00000,16.79761 L10.00000,16.53821 L11.00000,16.16402 L11.33830,16.00000 L12.00000,15.65690 L13.00000,15.00000 L14.00000,14.13756 L14.13756,14.00000 L15.00000,13.00000 L15.65690,12.00000 L16.00000,11.33830 L16.16402,11.00000 L16.53821,10.00000 L16.79761,9.00000 L16.94985,8.00000 L17.00000,7.00000 L16.94985,6.00000 L16.79761,5.00000 L16.53821,4.00000 L16.16402,3.00000 L16.00000,2.00000 L17.00000,2.00000 L18.00000,2.00000 L19.00000,2.00000 L20.00000,2.00000 L21.00000,2.00000 L22.00000,2.00000 L23.00000,2.00000 L24.00000,2.00000 L25.00000,2.00000 L26.00000,2.00000 L27.00000,2.00000 L28.00000,2.00000 L27.83598,3.00000 L27.46179,4.00000 L27.20239,5.00000 L27.05015,6.00000 L27.00000,7.00000 L27.05015,8.00000 L27.20239,9.00000 L27.46179,10.00000 L27.83598,11.00000 L28.00000,11.33830 L28.34310,12.00000 L29.00000,13.00000 L29.86244,14.00000 L30.00000,14.13756 L31.00000,15.00000 L32.00000,15.65690 L32.66170,16.00000 L33.00000,16.16402 L34.00000,16.53821 L35.00000,16.79761 L36.00000,16.94985 L37.00000,17.00000 L38.00000,16.94985 L39.00000,16.79761 L40.00000,16.53821 L41.00000,16.16402 L41.33830,16.00000 L42.00000,15.65690 L43.00000,15.00000 L44.00000,14.13756 L44.13755,14.00000 L45.00000,13.00000 L45.65690,12.00000 L46.00000,11.33830 L46.16402,11.00000 L46.53821,10.00000 L46.79761,9.00000 L46.94985,8.00000 L47.00000,7.00000 L46.94985,6.00000 L46.79761,5.00000 L46.53821,4.00000 L46.16402,3.00000 L46.00000,2.00000 L47.00000,2.00000 L48.00000,2.00000 L49.00000,2.00000 L50.00000,2.00000 L51.00000,2.00000 L52.00000,2.00000 L53.00000,2.00000 L54.00000,2.00000 L55.00000,2.00000 L56.00000,2.00000 L57.00000,2.00000 L58.00000,2.00000 L57.83598,3.00000 L57.46179,4.00000 L57.20239,5.00000 L57.05015,6.00000 L57.00000,7.00000 L57.05015,8.00000 L57.20239,9.00000 L57.46179,10.00000 L57.83598,11.00000 L58.00000,11.33830 L58.34310,12.00000 L59.00000,13.00000 L59.86245,14.00000 L60.00000,14.13756 L61.00000,15.00000 L62.00000,15.65690 L62.66170,16.00000 L63.00000,16.16402 L64.00000,16.53821 L65.00000,16.79761 L66.00000,16.94985 L67.00000,17.00000 L68.00000,16.94985 L69.00000,16.79761 L70.00000,16.53821 L71.00000,16.16402 L71.33829,16.00000 L72.00000,15.65690 L73.00000,15.00000 L74.00000,14.13756 L74.13756,14.00000 L75.00000,13.00000 L75.65691,12.00000 L76.00000,11.33830 L76.16402,11.00000 L76.53821,10.00000 L76.79761,9.00000 L76.94985,8.00000 L77.00000,7.00000 L76.94985,6.00000 L76.79761,5.00000 L76.53821,4.00000 L76.16402,3.00000 L76.00000,2.00000 L77.00000,2.00000 L78.00000,2.00000 L79.00000,2.00000 L80.00000,2.00000 L81.00000,2.00000 L82.00000,2.00000 L83.00000,1.99999 L84.00000,2.00000 L85.00000,2.00000 L86.00000,2.00000 L87.00000,2.00000 L88.00000,1.99999 L87.83598,3.00000 L87.46179,4.00000 L87.20239,5.00000 L87.05015,6.00000 L87.00000,7.00000 L87.05015,8.00000 L87.20239,9.00000 L87.46179,10.00000 L87.83598,11.00000 L88.00000,11.33830 L88.34309,12.00000 L89.00000,13.00000 L89.86244,14.00000 L90.00000,14.13756 L91.00000,15.00000 L92.00000,15.65690 L92.66171,16.00000 L93.00000,16.16402 L94.00000,16.53821 L95.00000,16.79761 L96.00000,16.94985 L97.00000,17.00000 L98.00000,16.94985 L99.00000,16.79761 L100.00000,16.53821 L101.00000,16.16402 L101.33829,16.00000 L102.00000,15.65690 L103.00000,15.00000 L104.00000,14.13756 L104.13756,14.00000 L105.00000,13.00000 L105.65691,12.00000 L106.00000,11.33830 L106.16402,11.00000 L106.53821,10.00000 L106.79761,9.00000 L106.94985,8.00000 L107.00000,7.00000 L106.94985,6.00000 L106.79761,5.00000 L106.53821,4.00000 L106.16402,3.00000 L106.00000,2.00000 L107.00000,2.00000 L108.00000,1.99999 L109.00000,2.00000 L110.00000,2.00000 L111.00000,2.00000 L112.00000,2.00000 L113.00000,1.99999 L114.00000,2.00000 L115.00000,2.00000 L116.00000,2.00000 L117.00000,2.00000 L118.00000,1.99999 L119.00000,2.00000 L120.00000,2.00000 L121.00000,2.00000 L122.00000,2.00000 L123.00000,1.99999 L124.00000,2.00000 L125.00000,2.00000 L126.00000,2.00000 L127.00000,2.00000 L128.00000,1.99999 L129.00000,2.00000 L130.00000,1.99999 L131.00000,2.00000 L132.00000,2.00000 L133.00000,1.99999 L134.00000,2.00000 L135.00000,1.99999 L136.00000,2.00000 L137.00000,2.00000 L138.00000,2.00000 L139.00000,2.00000 L140.00000,2.00000 L141.00000,2.00000 L142.00000,2.00000 L143.00000,2.00000 L144.00000,2.00000 L145.00000,2.00000 L146.00000,2.00000 L147.00000,2.00000 L148.00000,2.00000 L149.00000,2.00000 L150.00000,2.00000 L151.00000,2.00000 L152.00000,2.00000 L153.00000,2.00000 L154.00000,2.00000 L155.00000,2.00000 L156.00000,2.00000 L157.00000,2.00000 L158.00000,2.00000 L159.00000,2.00000 L160.00000,2.00000 L161.00000,2.00000 L162.00000,2.00000 L162.00000,3.00000 L162.00000,4.00000 L162.00000,5.00000 L162.00000,6.00000 L162.00000,7.00000 L162.00000,8.00000 L162.00000,9.00000 L162.00000,10.00000 L162.00000,11.00000 L162.00000,12.00000 L162.00000,13.00000 L162.00000,14.00000 L162.00000,15.00000 L162.00000,16.00000 L162.00000,17.00000 L162.00000,18.00000 L162.00000,19.00000 L162.00000,20.00000 L162.00000,21.00000 L162.00000,22.00000 L162.00000,23.00000 L162.00000,24.00000 L162.00000,25.00000 L162.00000,26.00000 L162.00000,27.00000 L162.00000,28.00000 L162.00000,29.00000 L162.00000,30.00000 L162.00000,31.00000 L162.00000,32.00000 L162.00000,33.00000 L162.00000,34.00000 L162.00000,35.00000 L162.00000,36.00000 L162.00000,37.00000 L162.00000,38.00000 L162.00000,39.00000 L162.00000,40.00000 L162.00000,41.00000 L162.00000,42.00000 L162.00000,43.00000 L162.00000,44.00000 L162.00000,45.00000 L162.00000,46.00000 L162.00000,47.00000 L162.00000,48.00000 L162.00000,49.00000 L162.00000,50.00000 L162.00000,51.00000 L162.00000,52.00000 L162.00000,53.00000 L162.00000,54.00000 L162.00000,55.00000 L162.00000,56.00000 L162.00000,57.00000 L162.00000,58.00000 L162.00000,59.00000 L162.00000,60.00000 L162.00000,61.00000 L162.00000,62.00000 L162.00000,63.00000 L162.00000,64.00000 L162.00000,65.00000 L162.00000,66.00000 L162.00000,67.00000 L162.00000,68.00000 L162.00000,69.00000 L162.00000,70.00000 L162.00000,71.00000 L162.00000,72.00000 L162.00000,73.00000 L162.00000,74.00000 L162.00000,75.00000 L162.00000,76.00000 L162.00000,77.00000 L162.00000,78.00000 L162.00000,79.00000 L162.00000,80.00000 L162.00000,81.00000 L162.00000,82.00000 L162.00000,83.00000 L162.00000,84.00000 L162.00000,85.00000 L162.00000,86.00000 L162.00000,87.00000 L162.00000,88.00000 L162.00000,89.00000 L162.00000,90.00000 L162.00000,91.00000 L162.00000,92.00000 L162.00000,93.00000 L162.00000,94.00000 L162.00000,95.00000 L162.00000,96.00000 L162.00000,97.00000 L162.00000,98.00000 L162.00000,99.00000 L162.00000,100.00000 L162.00000,101.00000 L162.00000,102.00000 L162.00000,103.00000 L162.00000,104.00000 L162.00000,105.00000 L162.00000,106.00000 L162.00000,107.00000 L162.00000,108.00000 L162.00000,109.00000 L162.00000,110.00000 L162.00000,111.00000 L162.00000,112.00000 L162.00000,113.00000 L162.00000,114.00000 L162.00000,115.00000 L162.00000,116.00000 L162.00000,117.00000 L162.00000,118.00000 L162.00000,119.00000 L162.00000,120.00000 L162.00000,121.00000 L162.00000,122.00000 L162.00000,123.00000 L162.00000,124.00000 L162.00000,125.00000 L162.00000,126.00000 L162.00000,127.00000 L162.00000,128.00000 L162.00000,129.00000 L162.00000,130.00000 L162.00000,131.00000 L162.00000,132.00000 "/>
    <path fill-rule="evenodd" style="fill: none; stroke: rgb(0, 0, 0); stroke-width: 0.2;" d="M46.00000,32.66170 L45.65690,32.00000 L45.00000,31.00000 L44.13755,30.00000 L44.00000,29.86244 L43.00000,29.00000 L42.00000,28.34310 L41.33830,28.00000 L41.00000,27.83598 L40.00000,27.46179 L39.00000,27.20239 L38.00000,27.05015 L37.00000,27.00000 L36.00000,27.05015 L35.00000,27.20239 L34.00000,27.46179 L33.00000,27.83598 L32.66170,28.00000 L32.00000,28.34310 L31.00000,29.00000 L30.00000,29.86244 L29.86244,30.00000 L29.00000,31.00000 L28.34310,32.00000 L28.00000,32.66170 L27.83598,33.00000 L27.46179,34.00000 L27.20239,35.00000 L27.05015,36.00000 L27.00000,37.00000 L27.05015,38.00000 L27.20239,39.00000 L27.46179,40.00000 L27.83598,41.00000 L28.00000,41.33830 L28.34310,42.00000 L29.00000,43.00000 L29.86244,44.00000 L30.00000,44.13755 L31.00000,45.00000 L32.00000,45.65690 L32.66170,46.00000 L33.00000,46.16402 L34.00000,46.53821 L35.00000,46.79761 L36.00000,46.94985 L37.00000,47.00000 L38.00000,46.94985 L39.00000,46.79761 L40.00000,46.53821 L41.00000,46.16402 L41.33830,46.00000 L42.00000,45.65690 L43.00000,45.00000 L44.00000,44.13755 L44.13755,44.00000 L45.00000,43.00000 L45.65690,42.00000 L46.00000,41.33830 L46.16402,41.00000 L46.53821,40.00000 L46.79761,39.00000 L46.94985,38.00000 L47.00000,37.00000 L46.94985,36.00000 L46.79761,35.00000 L46.53821,34.00000 L46.16402,33.00000 L46.00000,32.66170 "/>
    <path fill-rule="evenodd" style="fill: none; stroke: rgb(0, 0, 0); stroke-width: 0.2;" d="M62.00000,75.65691 L62.66170,76.00000 L63.00000,76.16402 L64.00000,76.53821 L65.00000,76.79761 L66.00000,76.94985 L67.00000,77.00000 L68.00000,76.94985 L69.00000,76.79761 L70.00000,76.53821 L71.00000,76.16402 L71.33829,76.00000 L72.00000,75.65691 L73.00000,75.00000 L74.00000,74.13756 L74.13756,74.00000 L75.00000,73.00000 L75.65691,72.00000 L76.00000,71.33829 L76.16402,71.00000 L76.53821,70.00000 L76.79761,69.00000 L76.94985,68.00000 L77.00000,67.00000 L76.94985,66.00000 L76.79761,65.00000 L76.53821,64.00000 L76.16402,63.00000 L76.00000,62.66170 L75.65691,62.00000 L75.00000,61.00000 L74.13756,60.00000 L74.00000,59.86245 L73.00000,59.00000 L72.00000,58.34310 L71.33829,58.00000 L71.00000,57.83598 L70.00000,57.46179 L69.00000,57.20239 L68.00000,57.05015 L67.00000,57.00000 L66.00000,57.05015 L65.00000,57.20239 L64.00000,57.46179 L63.00000,57.83598 L62.66170,58.00000 L62.00000,58.34310 L61.00000,59.00000 L60.00000,59.86245 L59.86245,60.00000 L59.00000,61.00000 L58.34310,62.00000 L58.00000,62.66170 L57.83598,63.00000 L57.46179,64.00000 L57.20239,65.00000 L57.05015,66.00000 L57.00000,67.00000 L57.05015,68.00000 L57.20239,69.00000 L57.46179,70.00000 L57.83598,71.00000 L58.00000,71.33829 L58.34310,72.00000 L59.00000,73.00000 L59.86245,74.00000 L60.00000,74.13756 L61.00000,75.00000 L62.00000,75.65691 "/>
    <path fill-rule="evenodd" style="fill: none; stroke: rgb(0, 0, 0); stroke-width: 0.2;" d="M33.00000,87.83598 L32.66170,88.00000 L32.00000,88.34309 L31.00000,89.00000 L30.00000,89.86244 L29.86244,90.00000 L29.00000,91.00000 L28.34310,92.00000 L28.00000,92.66171 L27.83598,93.00000 L27.46179,94.00000 L27.20239,95.00000 L27.05015,96.00000 L27.00000,97.00000 L27.05015,98.00000 L27.20239,99.00000 L27.46179,100.00000 L27.83598,101.00000 L28.00000,101.33829 L28.34310,102.00000 L29.00000,103.00000 L29.86244,104.00000 L30.00000,104.13756 L31.00000,105.00000 L32.00000,105.65691 L32.66170,106.00000 L33.00000,106.16402 L34.00000,106.53821 L35.00000,106.79761 L36.00000,106.94985 L37.00000,107.00000 L38.00000,106.94985 L39.00000,106.79761 L40.00000,106.53821 L41.00000,106.16402 L41.33830,106.00000 L42.00000,105.65691 L43.00000,105.00000 L44.00000,104.13756 L44.13755,104.00000 L45.00000,103.00000 L45.65690,102.00000 L46.00000,101.33829 L46.16402,101.00000 L46.53821,100.00000 L46.79761,99.00000 L46.94985,98.00000 L47.00000,97.00000 L46.94985,96.00000 L46.79761,95.00000 L46.53821,94.00000 L46.16402,93.00000 L46.00000,92.66171 L45.65690,92.00000 L45.00000,91.00000 L44.13755,90.00000 L44.00000,89.86244 L43.00000,89.00000 L42.00000,88.34309 L41.33830,88.00000 L41.00000,87.83598 L40.00000,87.46179 L39.00000,87.20239 L38.00000,87.05015 L37.00000,87.00000 L36.00000,87.05015 L35.00000,87.20239 L34.00000,87.46179 L33.00000,87.83598 "/>
    <path fill-rule="evenodd" style="fill: none; stroke: rgb(0, 0, 0); stroke-width: 0.2;" d="M87.00000,37.00000 L87.05015,38.00000 L87.20239,39.00000 L87.46179,40.00000 L87.83598,41.00000 L88.00000,41.33830 L88.34309,42.00000 L89.00000,43.00000 L89.86244,44.00000 L90.00000,44.13755 L91.00000,45.00000 L92.00000,45.65690 L92.66171,46.00000 L93.00000,46.16402 L94.00000,46.53821 L95.00000,46.79761 L96.00000,46.94985 L97.00000,47.00000 L98.00000,46.94985 L99.00000,46.79761 L100.00000,46.53821 L101.00000,46.16402 L101.33829,46.00000 L102.00000,45.65690 L103.00000,45.00000 L104.00000,44.13755 L104.13756,44.00000 L105.00000,43.00000 L105.65691,42.00000 L106.00000,41.33830 L106.16402,41.00000 L106.53821,40.00000 L106.79761,39.00000 L106.94985,38.00000 L107.00000,37.00000 L106.94985,36.00000 L106.79761,35.00000 L106.53821,34.00000 L106.16402,33.00000 L106.00000,32.66170 L105.65691,32.00000 L105.00000,31.00000 L104.13756,30.00000 L104.00000,29.86244 L103.00000,29.00000 L102.00000,28.34310 L101.33829,28.00000 L101.00000,27.83598 L100.00000,27.46179 L99.00000,27.20239 L98.00000,27.05015 L97.00000,27.00000 L96.00000,27.05015 L95.00000,27.20239 L94.00000,27.46179 L93.00000,27.83598 L92.66171,28.00000 L92.00000,28.34310 L91.00000,29.00000 L90.00000,29.86244 L89.86244,30.00000 L89.00000,31.00000 L88.34309,32.00000 L88.00000,32.66170 L87.83598,33.00000 L87.46179,34.00000 L87.20239,35.00000 L87.05015,36.00000 L87.00000,37.00000 "/>
    <path fill-rule="evenodd" style="fill: none; stroke: rgb(0, 0, 0); stroke-width: 0.2;" d="M88.00000,92.66171 L87.83598,93.00000 L87.46179,94.00000 L87.20239,95.00000 L87.05015,96.00000 L87.00000,97.00000 L87.05015,98.00000 L87.20239,99.00000 L87.46179,100.00000 L87.83598,101.00000 L88.00000,101.33829 L88.34309,102.00000 L89.00000,103.00000 L89.86244,104.00000 L90.00000,104.13756 L91.00000,105.00000 L92.00000,105.65691 L92.66171,106.00000 L93.00000,106.16402 L94.00000,106.53821 L95.00000,106.79761 L96.00000,106.94985 L97.00000,107.00000 L98.00000,106.94985 L99.00000,106.79761 L100.00000,106.53821 L101.00000,106.16402 L101.33829,106.00000 L102.00000,105.65691 L103.00000,105.00000 L104.00000,104.13756 L104.13756,104.00000 L105.00000,103.00000 L105.65691,102.00000 L106.00000,101.33829 L106.16402,101.00000 L106.53821,100.00000 L106.79761,99.00000 L106.94985,98.00000 L107.00000,97.00000 L106.94985,96.00000 L106.79761,95.00000 L106.53821,94.00000 L106.16402,93.00000 L106.00000,92.66171 L105.65691,92.00000 L105.00000,91.00000 L104.13756,90.00000 L104.00000,89.86244 L103.00000,89.00000 L102.00000,88.34309 L101.33829,88.00000 L101.00000,87.83598 L100.00000,87.46179 L99.00000,87.20239 L98.00000,87.05015 L97.00000,87.00000 L96.00000,87.05015 L95.00000,87.20239 L94.00000,87.46179 L93.00000,87.83598 L92.66171,88.00000 L92.00000,88.34309 L91.00000,89.00000 L90.00000,89.86244 L89.86244,90.00000 L89.00000,91.00000 L88.34309,92.00000 L88.00000,92.66171 "/>
    <path fill-rule="evenodd" style="fill: none; stroke: rgb(0, 0, 0); stroke-width: 0.2;" d="M59.00000,31.00000 L58.34310,32.00000 L58.00000,32.66170 L57.83598,33.00000 L57.46179,34.00000 L57.20239,35.00000 L57.05015,36.00000 L57.00000,37.00000 L57.05015,38.00000 L57.20239,39.00000 L57.46179,40.00000 L57.83598,41.00000 L58.00000,41.33830 L58.34310,42.00000 L59.00000,43.00000 L59.86245,44.00000 L60.00000,44.13755 L61.00000,45.00000 L62.00000,45.65690 L62.66170,46.00000 L63.00000,46.16402 L64.00000,46.53821 L65.00000,46.79761 L66.00000,46.94985 L67.00000,47.00000 L68.00000,46.94985 L69.00000,46.79761 L70.00000,46.53821 L71.00000,46.16402 L71.33829,46.00000 L72.00000,45.65690 L73.00000,45.00000 L74.00000,44.13755 L74.13756,44.00000 L75.00000,43.00000 L75.65691,42.00000 L76.00000,41.33830 L76.16402,41.00000 L76.53821,40.00000 L76.79761,39.00000 L76.94985,38.00000 L77.00000,37.00000 L76.94985,36.00000 L76.79761,35.00000 L76.53821,34.00000 L76.16402,33.00000 L76.00000,32.66170 L75.65691,32.00000 L75.00000,31.00000 L74.13756,30.00000 L74.00000,29.86244 L73.00000,29.00000 L72.00000,28.34310 L71.33829,28.00000 L71.00000,27.83598 L70.00000,27.46179 L69.00000,27.20239 L68.00000,27.05015 L67.00000,27.00000 L66.00000,27.05015 L65.00000,27.20239 L64.00000,27.46179 L63.00000,27.83598 L62.66170,28.00000 L62.00000,28.34310 L61.00000,29.00000 L60.00000,29.86244 L59.86245,30.00000 L59.00000,31.00000 "/>
    <path fill-rule="evenodd" style="fill: none; stroke: rgb(0, 0, 0); stroke-width: 0.2;" d="M33.00000,57.83598 L32.66170,58.00000 L32.00000,58.34310 L31.00000,59.00000 L30.00000,59.86245 L29.86244,60.00000 L29.00000,61.00000 L28.34310,62.00000 L28.00000,62.66170 L27.83598,63.00000 L27.46179,64.00000 L27.20239,65.00000 L27.05015,66.00000 L27.00000,67.00000 L27.05015,68.00000 L27.20239,69.00000 L27.46179,70.00000 L27.83598,71.00000 L28.00000,71.33829 L28.34310,72.00000 L29.00000,73.00000 L29.86244,74.00000 L30.00000,74.13756 L31.00000,75.00000 L32.00000,75.65691 L32.66170,76.00000 L33.00000,76.16402 L34.00000,76.53821 L35.00000,76.79761 L36.00000,76.94985 L37.00000,77.00000 L38.00000,76.94985 L39.00000,76.79761 L40.00000,76.53821 L41.00000,76.16402 L41.33830,76.00000 L42.00000,75.65691 L43.00000,75.00000 L44.00000,74.13756 L44.13755,74.00000 L45.00000,73.00000 L45.65690,72.00000 L46.00000,71.33829 L46.16402,71.00000 L46.53821,70.00000 L46.79761,69.00000 L46.94985,68.00000 L47.00000,67.00000 L46.94985,66.00000 L46.79761,65.00000 L46.53821,64.00000 L46.16402,63.00000 L46.00000,62.66170 L45.65690,62.00000 L45.00000,61.00000 L44.13755,60.00000 L44.00000,59.86245 L43.00000,59.00000 L42.00000,58.34310 L41.33830,58.00000 L41.00000,57.83598 L40.00000,57.46179 L39.00000,57.20239 L38.00000,57.05015 L37.00000,57.00000 L36.00000,57.05015 L35.00000,57.20239 L34.00000,57.46179 L33.00000,57.83598 "/>
    <path fill-rule="evenodd" style="fill: none; stroke: rgb(0, 0, 0); stroke-width: 0.2;" d="M87.46179,70.00000 L87.83598,71.00000 L88.00000,71.33829 L88.34309,72.00000 L89.00000,73.00000 L89.86244,74.00000 L90.00000,74.13756 L91.00000,75.00000 L92.00000,75.65691 L92.66171,76.00000 L93.00000,76.16402 L94.00000,76.53821 L95.00000,76.79761 L96.00000,76.94985 L97.00000,77.00000 L98.00000,76.94985 L99.00000,76.79761 L100.00000,76.53821 L101.00000,76.16402 L101.33829,76.00000 L102.00000,75.65691 L103.00000,75.00000 L104.00000,74.13756 L104.13756,74.00000 L105.00000,73.00000 L105.65691,72.00000 L106.00000,71.33829 L106.16402,71.00000 L106.53821,70.00000 L106.79761,69.00000 L106.94985,68.00000 L107.00000,67.00000 L106.94985,66.00000 L106.79761,65.00000 L106.53821,64.00000 L106.16402,63.00000 L106.00000,62.66170 L105.65691,62.00000 L105.00000,61.00000 L104.13756,60.00000 L104.00000,59.86245 L103.00000,59.00000 L102.00000,58.34310 L101.33829,58.00000 L101.00000,57.83598 L100.00000,57.46179 L99.00000,57.20239 L98.00000,57.05015 L97.00000,57.00000 L96.00000,57.05015 L95.00000,57.20239 L94.00000,57.46179 L93.00000,57.83598 L92.66171,58.00000 L92.00000,58.34310 L91.00000,59.00000 L90.00000,59.86245 L89.86244,60.00000 L89.00000,61.00000 L88.34309,62.00000 L88.00000,62.66170 L87.83598,63.00000 L87.46179,64.00000 L87.20239,65.00000 L87.05015,66.00000 L87.00000,67.00000 L87.05015,68.00000 L87.20239,69.00000 L87.46179,70.00000 "/>
    <path fill-rule="evenodd" style="fill: none; stroke: rgb(0, 0, 0); stroke-width: 0.2;" d="M65.00000,106.79761 L66.00000,106.94985 L67.00000,107.00000 L68.00000,106.94985 L69.00000,106.79761 L70.00000,106.53821 L71.00000,106.16402 L71.33829,106.00000 L72.00000,105.65691 L73.00000,105.00000 L74.00000,104.13756 L74.13756,104.00000 L75.00000,103.00000 L75.65691,102.00000 L76.00000,101.33829 L76.16402,101.00000 L76.53821,100.00000 L76.79761,99.00000 L76.94985,98.00000 L77.00000,97.00000 L76.94985,96.00000 L76.79761,95.00000 L76.53821,94.00000 L76.16402,93.00000 L76.00000,92.66171 L75.65691,92.00000 L75.00000,91.00000 L74.13756,90.00000 L74.00000,89.86244 L73.00000,89.00000 L72.00000,88.34309 L71.33829,88.00000 L71.00000,87.83598 L70.00000,87.46179 L69.00000,87.20239 L68.00000,87.05015 L67.00000,87.00000 L66.00000,87.05015 L65.00000,87.20239 L64.00000,87.46179 L63.00000,87.83598 L62.66170,88.00000 L62.00000,88.34309 L61.00000,89.00000 L60.00000,89.86244 L59.86245,90.00000 L59.00000,91.00000 L58.34310,92.00000 L58.00000,92.66171 L57.83598,93.00000 L57.46179,94.00000 L57.20239,95.00000 L57.05015,96.00000 L57.00000,97.00000 L57.05015,98.00000 L57.20239,99.00000 L57.46179,100.00000 L57.83598,101.00000 L58.00000,101.33829 L58.34310,102.00000 L59.00000,103.00000 L59.86245,104.00000 L60.00000,104.13756 L61.00000,105.00000 L62.00000,105.65691 L62.66170,106.00000 L63.00000,106.16402 L64.00000,106.53821 L65.00000,106.79761 "/>

<script>
let svgs = document.children[0];
let paths = Array.from(svgs.children).filter(function(c) {
    var orig = c.style.stroke;
    c.onmouseover = function() {
        c.style.stroke = "rgb(0, 0, 255)";
    };
    c.onmouseout = function () {
        c.style.stroke = orig;
    };
    c.onclick = function () {
        svgs.removeChild()
    }
});

for (let path of paths) {
    console.log(path);
}
</script></svg>