<svg xmlns="http://www.w3.org/2000/svg">
    <path fill-rule="evenodd" style="fill: none; stroke: rgb(0, 0, 0); stroke-width: 0.2;" d="M85.36553,47.00000 L85.00000,47.15358 M62.68023,15.00000 L62.51951,14.00000 M72.96197,71.00000 L73.00000,70.98111 M82.71192,3.00000 L83.00000,2.71192 M45.00000,66.62975 L44.00000,66.73697 M88.00000,82.88783 L88.04918,83.00000 M16.11425,83.00000 L16.48535,84.00000 M70.83210,75.00000 L70.75906,74.00000 M92.00000,15.26798 L91.86687,15.00000 M32.68023,45.00000 L32.51951,44.00000 M56.62975,55.00000 L56.03202,56.00000 M82.26675,4.00000 L82.71192,3.00000 M35.16825,56.00000 L35.00000,56.10149 M45.00000,81.34805 L46.00000,81.82211 M15.98182,64.00000 L15.81745,65.00000 M62.01400,34.00000 L62.40180,33.00000 M91.82211,36.00000 L91.34805,35.00000 M56.36562,45.00000 L56.00000,45.60613 M65.00000,87.66702 L64.00000,87.74089 M94.00000,6.48535 L93.00000,6.11425 M62.00000,55.79020 L61.60746,55.00000 M96.40155,13.00000 L96.73697,14.00000 M85.00000,2.40670 L85.78266,3.00000 M12.85794,86.00000 L12.13316,85.00000 M91.52477,46.00000 L91.08863,45.00000 M34.77541,15.00000 L34.00000,15.21432 M72.40180,23.00000 L73.00000,22.40180 M82.00000,56.56858 L81.52477,56.00000 M41.52477,96.00000 L41.08863,95.00000 M84.00000,77.99165 L83.00000,77.78237 M12.13316,85.00000 L12.01400,84.00000 M91.00000,91.14952 L91.14952,91.00000 M67.00000,75.97653 L66.98776,76.00000 M96.00000,98.39157 L95.00000,98.68632 M64.00000,61.26071 L65.00000,61.34805 M98.12097,86.00000 L98.00000,86.21828 M44.00000,71.51177 L45.00000,71.60746 M6.00000,92.85794 L6.11425,93.00000 M71.91177,62.00000 L72.00000,61.91176 M33.56964,4.00000 L34.00000,3.56964 M53.00000,42.40180 L54.00000,42.01400 M74.00000,31.76284 L75.00000,31.86688 M36.23373,54.00000 L36.10149,55.00000 M46.00000,81.82211 L46.21283,82.00000 M95.65709,90.00000 L96.00000,90.10629 M5.47015,54.00000 L5.22453,55.00000 M84.00000,2.26676 L85.00000,2.40670 M53.00000,15.06100 L52.95376,15.00000 M73.08003,57.00000 L73.00000,56.97614 M76.89388,45.00000 L76.35060,46.00000 M66.00000,76.98776 L65.97653,77.00000 M81.51177,34.00000 L81.80611,33.00000 M55.47015,4.00000 L55.22453,5.00000 M90.00000,92.81525 L90.36080,92.00000 M14.00000,43.02687 L15.00000,43.31137 M25.78266,63.00000 L26.00000,63.39335 M97.27361,56.00000 L97.00000,56.38190 M33.03604,43.00000 L34.00000,42.51951 M95.00000,21.60746 L95.79020,22.00000 M55.72599,14.00000 L55.52099,15.00000 M13.56964,24.00000 L14.00000,23.56964 M83.00000,46.97614 L82.00000,46.21283 M71.36546,97.00000 L71.00000,96.54544 M57.66702,95.00000 L57.27361,96.00000 M73.00000,36.40155 L72.50073,36.00000 M76.56859,62.00000 L77.00000,62.56943 M45.16825,46.00000 L45.00000,46.10149 M86.03202,26.00000 L86.00000,26.03202 M14.00000,13.84103 L14.33511,14.00000 M71.00000,91.92670 L71.92670,91.00000 M92.00000,56.92434 L91.22742,56.00000 M97.00000,61.72048 L97.24003,62.00000 M55.00000,25.81745 L54.00000,25.98182 M25.26798,82.00000 L26.00000,82.50073 M80.75906,64.00000 L80.98111,63.00000 M45.26798,62.00000 L46.00000,62.50073 M81.00000,91.53812 L81.53812,91.00000 M33.00000,76.40155 L32.50073,76.00000 M88.49254,94.00000 L88.43240,95.00000 M13.03604,63.00000 L14.00000,62.51951 M55.00000,3.31137 L55.47015,4.00000 M63.00000,32.40180 L64.00000,32.01400 M96.73697,14.00000 L96.62975,15.00000 M57.00000,75.36553 L56.66918,76.00000 M13.00000,82.40180 L14.00000,82.01400 M88.00000,85.55972 L87.84267,86.00000 M32.26676,54.00000 L32.71192,53.00000 M42.68023,35.00000 L42.51951,34.00000 M78.17849,95.00000 L78.00000,95.55972 M32.71041,82.00000 L33.00000,81.80611 M82.09986,67.00000 L82.00000,66.92434 M56.40155,53.00000 L56.73697,54.00000 M4.00000,33.56964 L4.90717,34.00000 M87.47415,97.00000 L87.00000,97.47415 M65.00000,97.92374 L64.00000,97.99165 M94.00000,57.74089 L93.00000,57.51416 M91.53812,81.00000 L92.00000,80.65285 M62.09168,43.00000 L63.00000,42.09168 M98.57062,93.00000 L98.74297,94.00000 M82.00000,66.92434 L81.22742,66.00000 M3.00000,92.40180 L4.00000,92.01400 M65.00000,51.60746 L65.79020,52.00000 M26.73697,84.00000 L26.62975,85.00000 M50.75906,94.00000 L50.98111,93.00000 M42.00000,86.21283 L41.82211,86.00000 M34.00000,66.48535 L33.00000,66.11425 M93.00000,57.51416 L92.09986,57.00000 M2.77227,64.00000 L3.00000,63.54313 M84.00000,41.26071 L85.00000,41.34805 M47.15358,85.00000 L47.00000,85.36553 M91.00000,97.34418 L90.69848,97.00000 M67.00000,82.09986 L67.51416,83.00000 M75.00000,61.08863 L76.00000,61.52477 M64.00000,46.73697 L63.00000,46.40155 M77.14571,97.00000 L77.00000,97.14571 M53.00000,90.98111 L54.00000,90.75906 M86.62975,25.00000 L86.03202,26.00000 M2.40180,93.00000 L3.00000,92.40180 M96.00000,36.66918 L95.36553,37.00000 M41.91176,92.00000 L42.00000,91.91177 M33.68609,15.00000 L33.29826,14.00000 M53.03604,23.00000 L54.00000,22.51951 M5.00000,96.36562 L4.00000,96.48535 M66.66918,66.00000 L66.00000,66.66918 M75.00000,31.86688 L75.26798,32.00000 M86.36562,15.00000 L86.00000,15.60613 M98.00000,82.29311 L98.30990,83.00000 M66.21283,62.00000 L66.97614,63.00000 M5.21432,44.00000 L5.00000,44.77541 M90.38254,86.00000 L90.06699,85.00000 M95.46259,51.00000 L96.00000,51.22742 M23.56964,14.00000 L24.00000,13.56964 M46.40155,63.00000 L46.73697,64.00000 M43.68609,5.00000 L43.29826,4.00000 M74.00000,87.99165 L73.00000,87.78237 M26.00000,86.03202 L25.00000,86.62975 M76.98859,44.00000 L76.89388,45.00000 M5.00000,65.52099 L4.00000,65.72598 M90.10629,96.00000 L90.00000,95.65709 M23.00000,91.80611 L24.00000,91.51177 M52.40670,35.00000 L52.26676,34.00000 M71.51177,44.00000 L71.80611,43.00000 M61.00964,74.00000 L61.25556,73.00000 M95.00000,41.08863 L96.00000,41.52477 M52.77227,14.00000 L53.00000,13.54312 M5.00000,43.68609 L5.21432,44.00000 M22.77227,44.00000 L23.00000,43.54313 M86.10149,5.00000 L86.00000,5.16825 M43.00000,33.03604 L43.03604,33.00000 M76.00000,87.55814 L75.00000,87.92374 M25.42183,53.00000 L25.98182,54.00000 M80.65285,92.00000 L81.00000,91.53812 M55.00000,12.95376 L55.06100,13.00000 M4.00000,72.51952 L5.00000,72.68023 M86.00000,41.82211 L86.21283,42.00000 M63.00000,42.09168 L63.23837,42.00000 M22.14351,96.00000 L22.00000,95.79020 M94.00000,98.74297 L93.00000,98.57062 M88.00000,96.21828 L87.47415,97.00000 M96.89388,25.00000 L96.35060,26.00000 M80.00736,94.00000 L80.18990,93.00000 M62.96197,81.00000 L63.00000,80.98111 M25.00000,33.31137 L25.47015,34.00000 M51.25556,83.00000 L51.91176,82.00000 M35.52099,35.00000 L35.00000,35.52099 M32.00000,85.79020 L31.60746,85.00000 M42.71041,72.00000 L43.00000,71.80611 M24.00000,81.76284 L25.00000,81.86687 M45.00000,71.60746 L45.79020,72.00000 M87.49014,54.00000 L87.41030,55.00000 M65.06100,3.00000 L65.72598,4.00000 M73.00000,3.03604 L73.03604,3.00000 M62.00000,91.26314 L62.43090,91.00000 M77.51416,73.00000 L77.74090,74.00000 M53.54313,13.00000 L54.00000,12.77227 M85.00000,36.89388 L84.00000,36.98859 M92.00000,22.71041 L92.71041,22.00000 M24.00000,96.98859 L23.00000,96.68884 M93.23837,12.00000 L94.00000,11.76284 M35.21432,14.00000 L35.00000,14.77541 M26.89388,95.00000 L26.35060,96.00000 M42.40180,53.00000 L43.00000,52.40180 M54.00000,12.77227 L55.00000,12.95376 M24.00000,52.51951 L25.00000,52.68023 M65.00000,36.36562 L64.00000,36.48535 M72.68023,5.00000 L72.51952,4.00000 M67.66702,85.00000 L67.27361,86.00000 M85.00000,6.10149 L84.00000,6.23374 M96.35060,26.00000 L96.00000,26.35060 M64.00000,90.50849 L65.00000,90.57706 M86.98776,56.00000 L86.00000,56.98777 M24.00000,25.21432 L23.68609,25.00000 M44.77541,5.00000 L44.00000,5.21432 M72.14352,46.00000 L72.00000,45.79020 M41.53083,83.00000 L42.00000,82.29927 M75.00000,80.57706 L76.00000,80.93504 M26.36562,75.00000 L26.00000,75.60612 M42.00000,63.23837 L42.09168,63.00000 M86.77905,77.00000 L86.00000,77.55814 M15.47015,44.00000 L15.22453,45.00000 M44.00000,76.98859 L43.00000,76.68884 M98.39157,96.00000 L98.00000,96.70653 M66.68884,53.00000 L66.98859,54.00000 M46.98859,74.00000 L46.89388,75.00000 M15.00000,65.81744 L14.00000,65.98182 M86.38190,67.00000 L86.00000,67.27361 M36.35060,86.00000 L36.00000,86.35060 M55.81745,25.00000 L55.00000,25.81745 M74.00000,57.23938 L73.08003,57.00000 M74.00000,70.75906 L75.00000,70.83210 M46.23373,44.00000 L46.10149,45.00000 M43.03604,33.00000 L44.00000,32.51951 M84.00000,6.23374 L83.39336,6.00000 M97.54488,72.00000 L98.00000,72.88783 M14.77541,35.00000 L14.00000,35.21432 M61.22742,86.00000 L61.00000,85.46259 M95.00000,50.83210 L95.46259,51.00000 M89.67613,94.00000 L89.90435,93.00000 M55.52099,15.00000 L55.00000,15.52099 M76.00000,97.84267 L75.55972,98.00000 M81.52477,56.00000 L81.08863,55.00000 M71.26314,82.00000 L72.00000,81.26314 M60.83210,85.00000 L60.75906,84.00000 M92.00000,90.36080 L92.81525,90.00000 M14.00000,82.01400 L15.00000,82.13316 M45.47015,14.00000 L45.22453,15.00000 M33.08003,97.00000 L33.00000,96.97614 M43.00000,35.42183 L42.68023,35.00000 M97.00000,52.09986 L97.51416,53.00000 M22.00000,85.26798 L21.86688,85.00000 M45.21432,4.00000 L45.00000,4.77541 M86.00000,46.66918 L85.36553,47.00000 M63.00000,46.40155 L62.50073,46.00000 M73.00000,41.80611 L74.00000,41.51177 M76.00000,25.60613 L75.60612,26.00000 M81.25556,53.00000 L81.91177,52.00000 M51.82211,76.00000 L51.34805,75.00000 M92.00000,61.26314 L92.43090,61.00000 M22.01400,74.00000 L22.40180,73.00000 M33.00000,81.80611 L34.00000,81.51177 M55.00000,66.89388 L54.00000,66.98859 M81.00000,76.10385 L80.93504,76.00000 M36.00000,62.85794 L36.11425,63.00000 M52.00000,53.23837 L52.09168,53.00000 M21.51177,94.00000 L21.80611,93.00000 M57.24594,83.00000 L57.49014,84.00000 M57.00000,82.56943 L57.24594,83.00000 M65.98182,14.00000 L65.81745,15.00000 M96.66918,36.00000 L96.00000,36.66918 M62.40180,33.00000 L63.00000,32.40180 M16.36562,85.00000 L16.00000,85.60612 M85.00000,80.32203 L86.00000,80.65878 M92.00000,25.79020 L91.60746,25.00000 M32.71192,53.00000 L33.00000,52.71192 M73.00000,22.40180 L74.00000,22.01400 M82.29927,42.00000 L83.00000,41.53083 M35.22453,25.00000 L35.00000,25.22453 M85.00000,57.41030 L84.00000,57.49014 M16.00000,75.16824 L15.16825,76.00000 M91.58746,52.00000 L92.00000,51.58745 M67.78237,93.00000 L67.99165,94.00000 M65.00000,41.86688 L65.26798,42.00000 M45.00000,46.10149 L44.00000,46.23373 M12.40670,75.00000 L12.26676,74.00000 M67.24003,92.00000 L67.78237,93.00000 M85.00000,12.13316 L86.00000,12.85794 M34.00000,71.76284 L35.00000,71.86687 M56.00000,56.03202 L55.00000,56.62975 M72.09168,33.00000 L73.00000,32.09168 M41.00964,94.00000 L41.25556,93.00000 M44.00000,87.23938 L43.08003,87.00000 M84.00000,47.23938 L83.08003,47.00000 M96.00000,67.55814 L95.00000,67.92374 M61.58745,82.00000 L62.00000,81.58746 M11.76284,94.00000 L12.00000,93.23837 M86.48535,14.00000 L86.36562,15.00000 M53.00000,97.51416 L52.09986,97.00000 M72.00000,61.91176 L73.00000,61.25556 M77.15358,55.00000 L77.00000,55.36553 M66.56859,72.00000 L67.00000,72.56943 M90.71738,63.00000 L91.00000,62.43090 M6.10149,85.00000 L6.00000,85.16824 M34.00000,3.56964 L34.90717,4.00000 M98.00000,72.88783 L98.04918,73.00000 M36.36562,65.00000 L36.00000,65.60612 M95.26798,12.00000 L96.00000,12.50073 M5.60613,96.00000 L5.00000,96.36562 M84.00000,12.01400 L85.00000,12.13316 M72.00000,45.79020 L71.60746,45.00000 M61.25556,73.00000 L61.91176,72.00000 M73.39336,16.00000 L73.00000,15.78266 M77.00000,76.38190 L76.38190,77.00000 M46.00000,45.16825 L45.16825,46.00000 M90.45364,73.00000 L90.94492,72.00000 M5.81745,75.00000 L5.00000,75.81744 M71.76284,34.00000 L72.00000,33.23837 M92.40180,3.00000 L93.00000,2.40180 M96.00000,12.50073 L96.40155,13.00000 M53.00000,23.03604 L53.03604,23.00000 M26.00000,92.14352 L26.68884,93.00000 M76.92434,72.00000 L77.00000,72.09986 M46.00000,62.50073 L46.40155,63.00000 M81.60746,35.00000 L81.51177,34.00000 M36.03202,76.00000 L36.00000,76.03202 M92.09986,57.00000 L92.00000,56.92434 M14.00000,45.47015 L13.31137,45.00000 M52.85794,46.00000 L52.13316,45.00000 M63.23837,42.00000 L64.00000,41.76284 M95.00000,26.89388 L94.00000,26.98859 M97.00000,71.36546 L97.54488,72.00000 M55.26798,52.00000 L56.00000,52.50073 M14.00000,23.56964 L14.90717,24.00000 M92.00000,67.24003 L91.72048,67.00000 M25.47015,34.00000 L25.22453,35.00000 M73.00000,61.25556 L74.00000,61.00964 M80.93504,76.00000 L80.57706,75.00000 M33.00000,86.68884 L32.14351,86.00000 M81.00000,62.96197 L81.58746,62.00000 M55.00000,51.86688 L55.26798,52.00000 M13.29826,34.00000 L14.00000,33.29826 M88.04918,83.00000 L88.24210,84.00000 M66.00000,25.16825 L65.16824,26.00000 M96.98859,24.00000 L96.89388,25.00000 M57.27361,96.00000 L57.00000,96.38190 M82.40669,5.00000 L82.26675,4.00000 M13.00000,53.54313 L13.54312,53.00000 M65.52099,5.00000 L65.00000,5.52099 M32.00000,92.29927 L32.29927,92.00000 M54.00000,25.98182 L53.00000,25.42183 M42.71192,43.00000 L43.00000,42.71192 M32.29927,92.00000 L33.00000,91.53083 M94.00000,26.98859 L93.00000,26.68884 M3.54312,63.00000 L4.00000,62.77227 M85.00000,21.86688 L85.26798,22.00000 M54.00000,3.02687 L55.00000,3.31137 M91.60746,25.00000 L91.51177,24.00000 M67.92374,95.00000 L67.55814,96.00000 M77.54488,92.00000 L78.00000,92.88783 M65.00000,26.10149 L64.00000,26.23374 M82.00000,77.24003 L81.72048,77.00000 M56.10149,35.00000 L56.00000,35.16825 M87.00000,66.38190 L86.38190,67.00000 M3.02687,54.00000 L4.00000,53.02687 M26.98859,94.00000 L26.89388,95.00000 M96.21283,32.00000 L96.97614,33.00000 M42.40670,45.00000 L42.26676,44.00000 M34.00000,76.73697 L33.00000,76.40155 M56.23373,34.00000 L56.10149,35.00000 M2.95376,65.00000 L2.77227,64.00000 M84.00000,51.00964 L85.00000,51.08863 M65.00000,77.41030 L64.00000,77.49014 M61.60746,55.00000 L61.51177,54.00000 M75.36553,57.00000 L75.00000,57.15358 M86.98859,34.00000 L86.89388,35.00000 M3.00000,73.03604 L3.03604,73.00000 M66.98776,76.00000 L66.00000,76.98776 M91.00000,66.10385 L90.93504,66.00000 M93.00000,80.18990 L94.00000,80.00736 M47.23938,84.00000 L47.15358,85.00000 M26.40155,83.00000 L26.73697,84.00000 M75.00000,67.41030 L74.00000,67.49014 M42.00000,65.26798 L41.86688,65.00000 M77.27361,76.00000 L77.00000,76.38190 M34.00000,45.98182 L33.00000,45.42183 M90.94492,72.00000 L91.00000,71.92670 M2.40670,85.00000 L2.26676,84.00000 M47.00000,83.08003 L47.23938,84.00000 M72.00000,52.29927 L72.29927,52.00000 M64.00000,26.23374 L63.39335,26.00000 M95.60612,6.00000 L95.00000,6.36562 M53.00000,71.53083 L54.00000,71.26071 M5.42183,73.00000 L5.98182,74.00000 M23.03604,53.00000 L24.00000,52.51951 M90.50849,64.00000 L90.71738,63.00000 M43.08003,87.00000 L43.00000,86.97614 M74.00000,98.24210 L73.00000,98.04918 M26.00000,96.35060 L25.00000,96.89388 M76.73697,34.00000 L76.62975,35.00000 M52.96197,91.00000 L53.00000,90.98111 M5.00000,75.81744 L4.00000,75.98182 M89.75197,95.00000 L89.67613,94.00000 M66.00000,66.66918 L65.36553,67.00000 M23.00000,62.71192 L24.00000,62.26676 M95.00000,78.17849 L94.00000,78.24210 M92.00000,77.54488 L91.36546,77.00000 M97.00000,81.01043 L97.84975,82.00000 M76.36562,25.00000 L76.00000,25.60613 M4.00000,86.23373 L3.39335,86.00000 M63.00000,77.24594 L62.56943,77.00000 M22.95376,45.00000 L22.77227,44.00000 M52.00000,65.79020 L51.60746,65.00000 M43.00000,42.71192 L44.00000,42.26676 M25.00000,96.89388 L24.00000,96.98859 M94.00000,67.99165 L93.00000,67.78237 M4.00000,43.29826 L5.00000,43.68609 M22.40180,73.00000 L23.00000,72.40180 M51.86688,55.00000 L51.76284,54.00000 M88.12097,96.00000 L88.00000,96.21828 M66.00000,32.85794 L66.11425,33.00000 M76.00000,32.50073 L76.40155,33.00000 M57.15358,75.00000 L57.00000,75.36553 M80.18990,93.00000 L80.65285,92.00000 M54.00000,77.23938 L53.08003,77.00000 M83.00000,12.40180 L84.00000,12.01400 M22.51951,54.00000 L23.00000,53.03604 M96.56859,42.00000 L97.00000,42.56943 M36.00000,65.60612 L35.60613,66.00000 M32.00000,96.21283 L31.82211,96.00000 M54.00000,90.75906 L55.00000,90.83210 M25.00000,35.22453 L24.00000,35.47015 M63.00000,22.71192 L64.00000,22.26676 M75.97653,67.00000 L75.00000,67.41030 M70.98111,73.00000 L71.00000,72.96197 M85.00000,88.17849 L84.00000,88.24210 M62.71192,23.00000 L63.00000,22.71192 M24.77541,25.00000 L24.00000,25.21432 M85.55972,88.00000 L85.00000,88.17849 M45.00000,76.89388 L44.00000,76.98859 M35.26798,72.00000 L36.00000,72.50073 M73.00000,5.42183 L72.68023,5.00000 M31.86688,75.00000 L31.76284,74.00000 M77.78237,83.00000 L77.99165,84.00000 M42.50073,66.00000 L42.00000,65.26798 M87.00000,87.14571 L86.00000,87.84267 M24.00000,62.26676 L25.00000,62.40670 M45.00000,52.13316 L46.00000,52.85794 M65.00000,80.83210 L65.46259,81.00000 M62.00000,71.91177 L63.00000,71.25556 M51.08863,85.00000 L51.00964,84.00000 M23.84103,4.00000 L24.00000,3.84103 M87.00000,43.08003 L87.23938,44.00000 M41.08863,95.00000 L41.00964,94.00000 M72.29927,52.00000 L73.00000,51.53083 M26.48535,74.00000 L26.36562,75.00000 M75.00000,51.34805 L76.00000,51.82211 M47.00000,92.56943 L47.24594,93.00000 M41.60746,75.00000 L41.51177,74.00000 M86.54544,81.00000 L87.00000,81.36546 M98.04918,73.00000 L98.24210,74.00000 M15.06100,53.00000 L15.72598,54.00000 M64.00000,36.48535 L63.00000,36.11425 M93.00000,21.80611 L94.00000,21.51177 M90.65285,82.00000 L91.00000,81.53812 M75.00000,5.81745 L74.00000,5.98182 M72.00000,35.26798 L71.86687,35.00000 M63.39335,26.00000 L63.00000,25.78266 M92.88783,78.00000 L92.00000,77.54488 M15.00000,76.10149 L14.00000,76.23373 M46.00000,76.35060 L45.00000,76.89388 M36.40155,73.00000 L36.73697,74.00000 M43.23837,62.00000 L44.00000,61.76284 M96.00000,2.85794 L96.11425,3.00000 M15.00000,33.68609 L15.21432,34.00000 M46.00000,52.85794 L46.11425,53.00000 M89.90435,93.00000 L90.00000,92.81525 M66.00000,71.52477 L66.56859,72.00000 M74.00000,2.51951 L75.00000,2.68023 M76.10149,15.00000 L76.00000,15.16825 M81.91177,52.00000 L82.00000,51.91176 M52.13316,45.00000 L52.01400,44.00000 M92.43090,61.00000 L93.00000,60.71738 M15.00000,45.22453 L14.00000,45.47015 M95.00000,16.62975 L94.00000,16.73697 M97.80258,97.00000 L97.00000,97.80258 M36.10149,55.00000 L36.00000,55.16825 M55.60613,46.00000 L55.00000,46.36562 M81.53083,43.00000 L82.00000,42.29927 M43.00000,86.97614 L42.00000,86.21283 M52.29927,72.00000 L53.00000,71.53083 M14.00000,86.48535 L13.00000,86.11425 M61.00000,92.43090 L61.26314,92.00000 M55.36553,77.00000 L55.00000,77.15358 M73.00000,90.45364 L74.00000,90.25793 M71.08863,65.00000 L71.00964,64.00000 M97.00000,56.38190 L96.38190,57.00000 M60.50849,94.00000 L60.71738,93.00000 M22.13316,75.00000 L22.01400,74.00000 M83.00000,57.24594 L82.56943,57.00000 M45.22453,15.00000 L45.00000,15.22453 M33.00000,91.53083 L34.00000,91.26071 M73.00000,46.68884 L72.14352,46.00000 M76.00000,51.82211 L76.21283,52.00000 M81.00000,86.54544 L80.65878,86.00000 M36.00000,72.50073 L36.40155,73.00000 M83.00000,31.80611 L84.00000,31.51177 M21.76284,84.00000 L22.00000,83.23837 M63.00000,25.78266 L62.40670,25.00000 M51.58745,92.00000 L52.00000,91.58746 M16.00000,92.50073 L16.40155,93.00000 M70.57706,85.00000 L70.50849,84.00000 M85.00000,90.06699 L86.00000,90.38254 M32.40180,63.00000 L33.00000,62.40180 M56.38190,97.00000 L56.00000,97.27361 M72.88783,98.00000 L72.00000,97.54488 M35.00000,86.89388 L34.00000,86.98859 M45.00000,61.86688 L45.26798,62.00000 M85.00000,26.62975 L84.00000,26.73697 M98.49254,84.00000 L98.43240,85.00000 M62.00000,81.58746 L62.96197,81.00000 M15.60613,86.00000 L15.00000,86.36562 M87.00000,52.56943 L87.24594,53.00000 M56.11425,43.00000 L56.48535,44.00000 M72.40669,15.00000 L72.26675,14.00000 M82.00000,80.94492 L83.00000,80.45364 M65.00000,67.15358 L64.00000,67.23938 M61.91176,72.00000 L62.00000,71.91177 M87.15358,45.00000 L87.00000,45.36553 M12.51951,64.00000 L13.00000,63.03604 M34.00000,81.51177 L35.00000,81.60746 M41.25556,93.00000 L41.91176,92.00000 M93.00000,70.45364 L94.00000,70.25793 M12.00000,93.23837 L12.09168,93.00000 M86.56859,52.00000 L87.00000,52.56943 M67.51416,83.00000 L67.74090,84.00000 M64.00000,41.76284 L65.00000,41.86688 M72.00000,71.58746 L72.96197,71.00000 M82.00000,51.91176 L83.00000,51.25556 M44.00000,52.01400 L45.00000,52.13316 M91.00000,71.92670 L91.92670,71.00000 M12.09168,93.00000 L13.00000,92.09168 M67.00000,91.72048 L67.24003,92.00000 M91.01043,87.00000 L91.00000,86.98702 M96.00000,90.10629 L97.00000,90.69848 M53.02687,4.00000 L54.00000,3.02687 M34.00000,52.26676 L35.00000,52.40670 M77.23938,54.00000 L77.15358,55.00000 M44.00000,66.73697 L43.00000,66.40155 M37.00000,93.08003 L37.23938,94.00000 M6.11425,93.00000 L6.48535,94.00000 M93.00000,12.09168 L93.23837,12.00000 M53.00000,76.97614 L52.00000,76.21283 M66.36562,35.00000 L66.00000,35.60613 M95.36553,37.00000 L95.00000,37.15358 M96.00000,22.14351 L96.68884,23.00000 M56.00000,45.60613 L55.60613,46.00000 M6.00000,83.39336 L6.23374,84.00000 M92.50073,16.00000 L92.00000,15.26798 M26.03202,86.00000 L26.00000,86.03202 M74.00000,22.01400 L75.00000,22.13317 M76.98776,66.00000 L76.00000,66.98776 M36.11425,63.00000 L36.48535,64.00000 M81.36546,87.00000 L81.00000,86.54544 M55.46259,91.00000 L56.00000,91.22742 M14.00000,55.72599 L13.00000,55.06100 M92.00000,80.65285 L93.00000,80.18990 M71.25556,63.00000 L71.91177,62.00000 M97.15358,35.00000 L97.00000,35.36553 M61.00000,96.10385 L60.93503,96.00000 M97.24594,43.00000 L97.49014,44.00000 M45.81745,35.00000 L45.00000,35.81745 M81.00000,96.98702 L80.38254,96.00000 M13.54312,53.00000 L14.00000,52.77227 M71.00000,72.96197 L71.58746,72.00000 M25.06100,43.00000 L25.72598,44.00000 M55.00000,5.22453 L54.00000,5.47015 M73.00000,32.09168 L73.23837,32.00000 M33.00000,55.78266 L32.40670,55.00000 M45.06100,23.00000 L45.72599,24.00000 M96.77905,67.00000 L96.00000,67.55814 M13.00000,86.11425 L12.85794,86.00000 M82.96197,61.00000 L83.00000,60.98111 M54.00000,81.00964 L55.00000,81.08863 M80.25793,84.00000 L80.45364,83.00000 M63.00000,13.03604 L63.03604,13.00000 M82.50073,26.00000 L82.00000,25.26798 M56.97614,73.00000 L57.00000,73.08003 M86.00000,12.85794 L86.11425,13.00000 M13.00000,63.03604 L13.03604,63.00000 M32.01400,64.00000 L32.40180,63.00000 M32.40670,55.00000 L32.26676,54.00000 M57.00000,73.08003 L57.23938,74.00000 M3.68609,45.00000 L3.29826,44.00000 M85.00000,31.60746 L85.79020,32.00000 M65.81744,15.00000 L65.00000,15.81745 M62.00000,86.92434 L61.22742,86.00000 M78.04918,93.00000 L78.24210,94.00000 M85.60612,16.00000 L85.00000,16.36562 M4.00000,24.33511 L3.84103,24.00000 M65.26798,42.00000 L66.00000,42.50073 M87.54488,82.00000 L88.00000,82.88783 M94.00000,50.75906 L95.00000,50.83210 M54.00000,5.47015 L53.31137,5.00000 M32.00000,73.23837 L32.09168,73.00000 M77.55814,86.00000 L77.00000,86.77905 M42.51951,34.00000 L43.00000,33.03604 M82.01400,14.00000 L82.40180,13.00000 M35.00000,25.22453 L34.00000,25.47015 M87.27361,66.00000 L87.00000,66.38190 M3.03604,73.00000 L4.00000,72.51952 M51.22742,96.00000 L51.00000,95.46259 M67.55814,96.00000 L67.00000,96.77905 M65.00000,5.52099 L64.00000,5.72599 M93.00000,89.90435 L94.00000,89.67613 M56.00000,86.98776 L55.97654,87.00000 M3.00000,82.71192 L4.00000,82.26675 M91.00000,76.54544 L90.65878,76.00000 M26.62975,85.00000 L26.03202,86.00000 M41.76284,64.00000 L42.00000,63.23837 M75.00000,77.66702 L74.00000,77.74089 M34.00000,56.23373 L33.39335,56.00000 M77.00000,97.14571 L76.00000,97.84267 M53.00000,87.24594 L52.56943,87.00000 M2.68023,75.00000 L2.51951,74.00000 M90.65878,76.00000 L90.32203,75.00000 M66.40155,43.00000 L66.73697,44.00000 M93.00000,47.24594 L92.56943,47.00000 M92.71041,22.00000 L93.00000,21.80611 M96.00000,31.82211 L96.21283,32.00000 M77.00000,53.08003 L77.23938,54.00000 M5.00000,92.13316 L6.00000,92.85794 M66.03202,46.00000 L66.00000,46.03202 M23.29826,24.00000 L24.00000,23.29826 M46.21283,82.00000 L46.97614,83.00000 M43.29826,4.00000 L44.00000,3.29826 M26.00000,65.16824 L25.16825,66.00000 M95.00000,47.41030 L94.00000,47.49014 M97.74090,54.00000 L97.66702,55.00000 M5.00000,44.77541 L4.77541,45.00000 M23.00000,72.40180 L24.00000,72.01400 M52.14351,66.00000 L52.00000,65.79020 M92.00000,87.84975 L91.01043,87.00000 M71.26071,54.00000 L71.53083,53.00000 M76.10385,81.00000 L77.00000,81.72048 M61.00000,82.96197 L61.58745,82.00000 M76.40155,33.00000 L76.73697,34.00000 M52.56943,87.00000 L52.00000,86.56859 M83.00000,90.18990 L84.00000,90.00736 M4.00000,96.48535 L3.00000,96.11425 M23.00000,86.40155 L22.50073,86.00000 M97.00000,45.97654 L96.98776,46.00000 M43.00000,91.25556 L44.00000,91.00964 M25.16825,66.00000 L25.00000,66.10149 M52.71192,33.00000 L53.00000,32.71192 M4.00000,53.02687 L5.00000,53.31137 M23.00000,43.54313 L23.54313,43.00000 M63.03604,13.00000 L64.00000,12.51951 M76.00000,80.93504 L76.10385,81.00000 M83.00000,60.98111 L84.00000,60.75906 M4.00000,65.72598 L3.00000,65.06100 M63.00000,56.68884 L62.14351,56.00000 M22.71041,92.00000 L23.00000,91.80611 M86.00000,56.98777 L85.97653,57.00000 M94.00000,89.67613 L95.00000,89.75197 M51.91176,82.00000 L52.00000,81.91177 M76.00000,36.03202 L75.00000,36.62975 M36.00000,76.03202 L35.00000,76.62975 M80.50849,74.00000 L80.71738,73.00000 M25.00000,76.36562 L24.00000,76.48535 M86.00000,32.14351 L86.68884,33.00000 M25.00000,45.52099 L24.00000,45.72599 M51.60746,65.00000 L51.51177,64.00000 M65.97653,77.00000 L65.00000,77.41030 M62.50073,46.00000 L62.00000,45.26798 M54.00000,56.73697 L53.00000,56.40155 M24.00000,76.48535 L23.00000,76.11425 M85.78266,3.00000 L86.00000,3.39335 M35.00000,91.34805 L36.00000,91.82211 M73.00000,15.78266 L72.40669,15.00000 M32.00000,75.26798 L31.86688,75.00000 M77.49014,64.00000 L77.41030,65.00000 M53.39335,36.00000 L53.00000,35.78266 M42.13316,55.00000 L42.01400,54.00000 M87.00000,55.97654 L86.98776,56.00000 M65.00000,15.81745 L64.00000,15.98182 M24.00000,33.02687 L25.00000,33.31137 M87.00000,91.01043 L87.84975,92.00000 M93.08003,37.00000 L93.00000,36.97614 M75.00000,87.92374 L74.00000,87.99165 M67.41030,75.00000 L67.00000,75.97653 M64.00000,71.00964 L65.00000,71.08863 M91.34805,35.00000 L91.26071,34.00000 M24.00000,4.33511 L23.84103,4.00000 M44.00000,81.26071 L45.00000,81.34805 M41.26071,84.00000 L41.53083,83.00000 M26.10149,65.00000 L26.00000,65.16824 M41.80611,73.00000 L42.00000,72.71041 M96.00000,80.38254 L96.98702,81.00000 M15.21432,34.00000 L15.00000,34.77541 M44.00000,56.48535 L43.00000,56.11425 M90.69848,97.00000 L90.10629,96.00000 M66.48535,34.00000 L66.36562,35.00000 M72.00000,76.92434 L71.22742,76.00000 M75.00000,16.10149 L74.00000,16.23374 M46.73697,64.00000 L46.62975,65.00000 M91.08863,45.00000 L91.00964,44.00000 M15.42183,63.00000 L15.98182,64.00000 M95.00000,98.68632 L94.00000,98.74297 M98.30990,83.00000 L98.49254,84.00000 M37.00000,95.36553 L36.66918,96.00000 M44.00000,22.77227 L45.00000,22.95376 M46.98777,96.00000 L46.00000,96.98776 M15.00000,82.13316 L16.00000,82.85794 M64.00000,15.98182 L63.00000,15.42183 M56.00000,52.50073 L56.40155,53.00000 M74.00000,51.26071 L75.00000,51.34805 M71.86687,35.00000 L71.76284,34.00000 M96.00000,5.60613 L95.60612,6.00000 M61.26314,92.00000 L62.00000,91.26314 M97.84975,82.00000 L98.00000,82.29311 M84.00000,21.76284 L85.00000,21.86688 M15.00000,55.52099 L14.00000,55.72599 M46.00000,55.60613 L45.60613,56.00000 M74.00000,5.98182 L73.00000,5.42183 M36.21283,92.00000 L36.97614,93.00000 M76.35060,46.00000 L76.00000,46.35060 M81.58746,62.00000 L82.00000,61.58745 M43.00000,97.24594 L42.56943,97.00000 M83.39336,6.00000 L83.00000,5.78266 M14.00000,96.73697 L13.00000,96.40155 M45.97654,97.00000 L45.00000,97.41030 M97.49014,44.00000 L97.41030,45.00000 M63.08003,67.00000 L63.00000,66.97614 M52.00000,96.92434 L51.22742,96.00000 M22.00000,83.23837 L22.09168,83.00000 M83.00000,67.51416 L82.09986,67.00000 M33.00000,62.40180 L34.00000,62.01400 M55.00000,46.36562 L54.00000,46.48535 M73.00000,56.97614 L72.00000,56.21283 M76.00000,22.85794 L76.11425,23.00000 M51.80611,63.00000 L52.00000,62.71041 M35.81745,45.00000 L35.00000,45.81745 M83.00000,2.71192 L84.00000,2.26676 M57.00000,92.09986 L57.51416,93.00000 M16.40155,93.00000 L16.73697,94.00000 M85.97653,57.00000 L85.00000,57.41030 M56.98777,86.00000 L56.00000,86.98776 M75.55972,98.00000 L75.00000,98.17849 M82.56943,57.00000 L82.00000,56.56858 M65.78266,23.00000 L66.00000,23.39335 M62.13316,35.00000 L62.01400,34.00000 M87.92374,75.00000 L87.55814,76.00000 M16.03202,96.00000 L16.00000,96.03202 M32.50073,76.00000 L32.00000,75.26798 M35.00000,97.15358 L34.00000,97.23938 M94.00000,41.00964 L95.00000,41.08863 M15.78266,73.00000 L16.00000,73.39336 M87.00000,62.09986 L87.51416,63.00000 M70.93504,86.00000 L70.57706,85.00000 M65.00000,22.40670 L65.78266,23.00000 M72.50073,36.00000 L72.00000,35.26798 M82.29311,98.00000 L82.00000,97.84975 M45.00000,25.52099 L44.00000,25.72598 M87.55814,76.00000 L87.00000,76.77905 M16.00000,73.39336 L16.23374,74.00000 M70.25793,94.00000 L70.45364,93.00000 M91.76284,14.00000 L92.00000,13.23836 M35.00000,32.95376 L35.06100,33.00000 M56.21283,72.00000 L56.97614,73.00000 M82.00000,87.54488 L81.36546,87.00000 M35.00000,66.36562 L34.00000,66.48535 M45.00000,42.40670 L45.78266,43.00000 M12.68023,65.00000 L12.51951,64.00000 M62.00000,62.29927 L62.29927,62.00000 M91.53083,33.00000 L92.00000,32.29927 M56.00000,91.22742 L56.92434,92.00000 M67.00000,65.36553 L66.66918,66.00000 M93.00000,78.04918 L92.88783,78.00000 M61.76284,44.00000 L62.00000,43.23837 M96.03202,16.00000 L96.00000,16.03202 M84.00000,60.75906 L85.00000,60.83210 M12.26676,74.00000 L12.71192,73.00000 M91.14952,91.00000 L92.00000,90.36080 M34.00000,62.01400 L35.00000,62.13316 M72.00000,97.54488 L71.36546,97.00000 M77.24594,63.00000 L77.49014,64.00000 M37.15358,95.00000 L37.00000,95.36553 M6.36562,95.00000 L6.00000,95.60612 M92.81525,90.00000 L93.00000,89.90435 M71.92670,91.00000 L72.00000,90.94492 M96.00000,57.27361 L95.00000,57.66702 M64.00000,22.26676 L65.00000,22.40670 M97.99165,64.00000 L97.92374,65.00000 M46.10149,45.00000 L46.00000,45.16825 M81.72048,77.00000 L81.00000,76.10385 M5.52099,65.00000 L5.00000,65.52099 M71.53083,53.00000 L72.00000,52.29927 M26.00000,72.85794 L26.11425,73.00000 M52.95376,15.00000 L52.77227,14.00000 M73.23837,32.00000 L74.00000,31.76284 M36.00000,82.14352 L36.68884,83.00000 M46.00000,43.39335 L46.23373,44.00000 M97.00000,77.14571 L96.00000,77.84267 M14.00000,24.90717 L13.56964,24.00000 M83.00000,77.78237 L82.00000,77.24003 M52.68023,25.00000 L52.51951,24.00000 M73.00000,67.24594 L72.56943,67.00000 M76.48535,24.00000 L76.36562,25.00000 M63.00000,90.71738 L64.00000,90.50849 M81.01043,97.00000 L81.00000,96.98702 M55.00000,97.66702 L54.00000,97.74089 M86.00000,90.38254 L86.98702,91.00000 M13.68609,35.00000 L13.29826,34.00000 M25.21432,24.00000 L25.00000,24.77541 M33.00000,66.11425 L32.85794,66.00000 M94.00000,80.00736 L95.00000,80.06699 M55.22453,5.00000 L55.00000,5.22453 M13.00000,96.40155 L12.50073,96.00000 M83.00000,5.78266 L82.40669,5.00000 M71.00000,96.54544 L70.65878,96.00000 M57.00000,96.38190 L56.38190,97.00000 M80.83210,65.00000 L80.75906,64.00000 M86.00000,61.22742 L86.92434,62.00000 M13.23836,92.00000 L14.00000,91.76284 M66.00000,42.50073 L66.40155,43.00000 M88.24210,84.00000 L88.17849,85.00000 M96.98776,46.00000 L96.00000,46.98777 M54.00000,87.49014 L53.00000,87.24594 M25.00000,81.86687 L25.26798,82.00000 M80.32203,85.00000 L80.25793,84.00000 M82.88783,88.00000 L82.00000,87.54488 M33.00000,35.06100 L32.95376,35.00000 M13.00000,65.42183 L12.68023,65.00000 M88.00000,92.29311 L88.30990,93.00000 M54.00000,61.51177 L55.00000,61.60746 M70.94492,92.00000 L71.00000,91.92670 M62.95376,5.00000 L62.77227,4.00000 M94.00000,60.50849 L95.00000,60.57706 M56.68884,63.00000 L56.98859,64.00000 M4.00000,34.90717 L3.56964,34.00000 M87.66702,65.00000 L87.27361,66.00000 M32.00000,82.71041 L32.71041,82.00000 M42.14351,76.00000 L42.00000,75.79020 M77.74090,74.00000 L77.66702,75.00000 M35.00000,35.52099 L34.00000,35.72599 M82.00000,71.26314 L82.43090,71.00000 M56.03202,56.00000 L56.00000,56.03202 M3.31137,55.00000 L3.02687,54.00000 M87.00000,97.47415 L86.21828,98.00000 M65.00000,56.89388 L64.00000,56.98859 M94.00000,16.73697 L93.00000,16.40155 M91.25556,43.00000 L91.91177,42.00000 M62.00000,66.21283 L61.82211,66.00000 M96.11425,3.00000 L96.48535,4.00000 M82.00000,25.26798 L81.86687,25.00000 M2.85794,96.00000 L2.13316,95.00000 M66.77905,97.00000 L66.00000,97.55814 M26.11425,73.00000 L26.48535,74.00000 M47.00000,85.36553 L46.66918,86.00000 M41.82211,86.00000 L41.34805,85.00000 M34.00000,25.47015 L33.31137,25.00000 M93.00000,16.40155 L92.50073,16.00000 M98.17849,75.00000 L98.00000,75.55972 M2.01400,94.00000 L2.40180,93.00000 M46.89388,75.00000 L46.35060,76.00000 M92.85794,6.00000 L92.13316,5.00000 M72.00000,33.23837 L72.09168,33.00000 M75.00000,22.13317 L76.00000,22.85794 M64.00000,5.72599 L63.00000,5.06100 M77.00000,62.56943 L77.24594,63.00000 M53.00000,52.09168 L53.23837,52.00000 M86.23373,4.00000 L86.10149,5.00000 M5.06100,63.00000 L5.72598,64.00000 M95.97653,47.00000 L95.00000,47.41030 M44.00000,25.72598 L43.00000,25.06100 M26.00000,75.60612 L25.60613,76.00000 M53.00000,66.68884 L52.14351,66.00000 M5.00000,55.22453 L4.00000,55.47015 M23.31137,35.00000 L23.02687,34.00000 M66.23373,24.00000 L66.10149,25.00000 M74.00000,90.25793 L75.00000,90.32203 M84.00000,26.73697 L83.00000,26.40155 M97.78237,63.00000 L97.99165,64.00000 M66.00000,81.22742 L66.92434,82.00000 M5.00000,72.68023 L5.42183,73.00000 M90.00000,95.65709 L89.75197,95.00000 M95.00000,70.32203 L96.00000,70.65878 M23.00000,96.68884 L22.14351,96.00000 M52.26676,34.00000 L52.71192,33.00000 M43.02687,14.00000 L44.00000,13.02687 M76.11425,23.00000 L76.48535,24.00000 M25.79020,92.00000 L26.00000,92.14352 M76.66918,56.00000 L76.00000,56.66918 M4.33511,24.00000 L4.00000,24.33511 M86.10385,71.00000 L87.00000,71.72048 M23.00000,53.03604 L23.03604,53.00000 M52.01400,44.00000 L52.40180,43.00000 M71.00964,64.00000 L71.25556,63.00000 M60.75906,84.00000 L60.98111,83.00000 M95.00000,2.13316 L96.00000,2.85794 M55.00000,36.10149 L54.00000,36.23373 M4.00000,75.98182 L3.00000,75.42183 M22.26676,64.00000 L22.71192,63.00000 M86.00000,67.27361 L85.00000,67.66702 M35.98182,44.00000 L35.81745,45.00000 M76.00000,46.35060 L75.00000,46.89388 M25.00000,86.62975 L24.00000,86.73697 M80.06699,95.00000 L80.00736,94.00000 M54.00000,71.26071 L55.00000,71.34805 M86.00000,3.39335 L86.23373,4.00000 M24.90717,14.00000 L24.00000,14.90717 M63.00000,3.54312 L63.54313,3.00000 M87.78237,73.00000 L87.99165,74.00000 M96.54544,71.00000 L97.00000,71.36546 M77.84267,96.00000 L77.14571,97.00000 M70.75906,74.00000 L70.98111,73.00000 M62.51951,14.00000 L63.00000,13.03604 M92.00000,13.23836 L92.09168,13.00000 M24.00000,86.73697 L23.00000,86.40155 M45.00000,56.36562 L44.00000,56.48535 M35.06100,33.00000 L35.72599,34.00000 M31.60746,85.00000 L31.51177,84.00000 M42.26676,44.00000 L42.71192,43.00000 M98.74297,94.00000 L98.68632,95.00000 M24.00000,42.77227 L25.00000,42.95376 M45.00000,32.68023 L45.42183,33.00000 M87.14571,87.00000 L87.00000,87.14571 M65.00000,61.34805 L66.00000,61.82211 M72.51952,4.00000 L73.00000,3.03604 M62.00000,52.71041 L62.71041,52.00000 M75.00000,98.17849 L74.00000,98.24210 M50.98111,93.00000 L51.00000,92.96197 M84.00000,98.49254 L83.00000,98.30990 M91.78480,98.00000 L91.00000,97.34418 M24.00000,55.98182 L23.00000,55.42183 M93.00000,67.78237 L92.00000,67.24003 M35.00000,71.86687 L35.26798,72.00000 M26.23374,64.00000 L26.10149,65.00000 M42.00000,91.91177 L43.00000,91.25556 M51.00964,84.00000 L51.25556,83.00000 M24.00000,13.56964 L24.90717,14.00000 M64.00000,97.99165 L63.00000,97.78237 M72.26675,14.00000 L72.71192,13.00000 M67.23938,64.00000 L67.15358,65.00000 M84.00000,67.74089 L83.00000,67.51416 M96.00000,88.12097 L95.00000,88.43240 M64.00000,51.51177 L65.00000,51.60746 M98.43240,85.00000 L98.12097,86.00000 M15.52099,55.00000 L15.00000,55.52099 M86.66918,46.00000 L86.00000,46.66918 M44.00000,61.76284 L45.00000,61.86688 M37.23938,94.00000 L37.15358,95.00000 M72.00000,81.26314 L72.43090,81.00000 M75.00000,41.60746 L75.79020,42.00000 M44.00000,32.51951 L45.00000,32.68023 M86.40155,23.00000 L86.73697,24.00000 M15.00000,91.86687 L15.26798,92.00000 M46.11425,53.00000 L46.48535,54.00000 M98.00000,91.78480 L98.14363,92.00000 M66.35060,56.00000 L66.00000,56.35060 M46.56858,92.00000 L47.00000,92.56943 M14.90717,24.00000 L14.00000,24.90717 M84.00000,31.51177 L85.00000,31.60746 M36.00000,86.35060 L35.00000,86.89388 M55.42183,23.00000 L55.98182,24.00000 M74.00000,16.23374 L73.39336,16.00000 M76.03202,36.00000 L76.00000,36.03202 M52.09986,97.00000 L52.00000,96.92434 M43.00000,66.40155 L42.50073,66.00000 M83.00000,80.45364 L84.00000,80.25793 M97.24003,62.00000 L97.78237,63.00000 M14.00000,65.98182 L13.00000,65.42183 M60.93503,96.00000 L60.57706,95.00000 M95.00000,11.86688 L95.26798,12.00000 M86.00000,77.55814 L85.00000,77.92374 M55.06100,13.00000 L55.72599,14.00000 M76.00000,56.66918 L75.36553,57.00000 M81.08863,55.00000 L81.00964,54.00000 M71.00000,86.10385 L70.93504,86.00000 M57.49014,84.00000 L57.41030,85.00000 M92.00000,51.58745 L92.96197,51.00000 M22.00000,92.71041 L22.71041,92.00000 M45.00000,97.41030 L44.00000,97.49014 M33.00000,72.09168 L33.23837,72.00000 M36.00000,53.39335 L36.23373,54.00000 M96.97614,33.00000 L97.00000,33.08003 M16.62975,95.00000 L16.03202,96.00000 M86.00000,5.16825 L85.16824,6.00000 M63.00000,5.06100 L62.95376,5.00000 M75.78266,13.00000 L76.00000,13.39335 M81.00000,81.92670 L81.92670,81.00000 M51.34805,75.00000 L51.26071,74.00000 M88.30990,93.00000 L88.49254,94.00000 M21.60746,95.00000 L21.51177,94.00000 M33.00000,43.03604 L33.03604,43.00000 M56.98859,64.00000 L56.89388,65.00000 M82.71041,32.00000 L83.00000,31.80611 M35.60613,66.00000 L35.00000,66.36562 M51.53083,73.00000 L52.00000,72.29927 M16.10149,75.00000 L16.00000,75.16824 M62.40670,25.00000 L62.26676,24.00000 M92.00000,32.29927 L92.29927,32.00000 M56.73697,54.00000 L56.62975,55.00000 M65.46259,81.00000 L66.00000,81.22742 M94.00000,47.49014 L93.00000,47.24594 M62.00000,97.24003 L61.72048,97.00000 M16.00000,82.85794 L16.11425,83.00000 M85.00000,41.34805 L86.00000,41.82211 M91.80611,23.00000 L92.00000,22.71041 M35.00000,42.68023 L35.42183,43.00000 M72.71192,13.00000 L73.00000,12.71192 M82.00000,97.84975 L81.01043,97.00000 M35.00000,76.62975 L34.00000,76.73697 M85.00000,16.36562 L84.00000,16.48535 M12.77227,54.00000 L13.00000,53.54313 M91.26071,34.00000 L91.53083,33.00000 M67.24594,73.00000 L67.49014,74.00000 M96.38190,57.00000 L96.00000,57.27361 M65.00000,2.95376 L65.06100,3.00000 M45.00000,4.77541 L44.77541,5.00000 M11.86688,95.00000 L11.76284,94.00000 M67.00000,72.56943 L67.24594,73.00000 M84.00000,70.50849 L85.00000,70.57706 M34.00000,32.77227 L35.00000,32.95376 M53.00000,81.25556 L54.00000,81.00964 M72.00000,66.56859 L71.52477,66.00000 M36.73697,74.00000 L36.62975,75.00000 M44.00000,46.23373 L43.39335,46.00000 M96.00000,26.35060 L95.00000,26.89388 M6.00000,85.16824 L5.16825,86.00000 M86.11425,13.00000 L86.48535,14.00000 M53.00000,56.40155 L52.50073,56.00000 M74.00000,26.48535 L73.00000,26.11425 M77.00000,65.97653 L76.98776,66.00000 M66.11425,33.00000 L66.48535,34.00000 M81.80611,33.00000 L82.00000,32.71041 M55.98182,24.00000 L55.81745,25.00000 M90.36080,92.00000 L91.00000,91.14952 M5.72598,64.00000 L5.52099,65.00000 M26.00000,82.50073 L26.40155,83.00000 M97.66702,55.00000 L97.27361,56.00000 M36.00000,91.82211 L36.21283,92.00000 M95.00000,60.57706 L96.00000,60.93503 M56.00000,42.85794 L56.11425,43.00000 M14.00000,35.21432 L13.68609,35.00000 M83.00000,88.04918 L82.88783,88.00000 M71.80611,43.00000 L72.00000,42.71041 M60.98111,83.00000 L61.00000,82.96197 M73.00000,77.51416 L72.09986,77.00000 M76.97614,53.00000 L77.00000,53.08003 M45.60613,56.00000 L45.00000,56.36562 M90.00736,84.00000 L90.18990,83.00000 M14.00000,52.77227 L15.00000,52.95376 M71.34805,55.00000 L71.26071,54.00000 M92.00000,98.14363 L91.78480,98.00000 M97.14571,77.00000 L97.00000,77.14571 M52.71041,62.00000 L53.00000,61.80611 M25.81745,55.00000 L25.00000,55.81745 M76.54544,91.00000 L77.00000,91.36546 M45.79020,72.00000 L46.00000,72.14352 M81.26314,72.00000 L82.00000,71.26314 M33.23837,72.00000 L34.00000,71.76284 M92.00000,70.94492 L93.00000,70.45364 M13.84103,14.00000 L14.00000,13.84103 M55.00000,42.13316 L56.00000,42.85794 M63.00000,71.25556 L64.00000,71.00964 M94.00000,88.49254 L93.00000,88.30990 M97.00000,33.08003 L97.23938,34.00000 M55.00000,77.15358 L54.00000,77.23938 M13.31137,45.00000 L13.02687,44.00000 M88.43240,95.00000 L88.12097,96.00000 M25.00000,91.60746 L25.79020,92.00000 M80.45364,83.00000 L80.94492,82.00000 M33.00000,45.42183 L32.68023,45.00000 M82.43090,71.00000 L83.00000,70.71738 M56.92434,92.00000 L57.00000,92.09986 M13.00000,75.78266 L12.40670,75.00000 M87.84267,86.00000 L87.14571,87.00000 M65.60612,36.00000 L65.00000,36.36562 M96.70653,98.00000 L96.00000,98.39157 M91.86687,15.00000 L91.76284,14.00000 M62.43090,91.00000 L63.00000,90.71738 M82.09168,23.00000 L83.00000,22.09168 M3.56964,34.00000 L4.00000,33.56964 M65.00000,90.57706 L66.00000,90.93504 M31.76284,74.00000 L32.00000,73.23837 M53.31137,5.00000 L53.02687,4.00000 M42.29927,82.00000 L43.00000,81.53083 M34.90717,4.00000 L34.00000,4.90717 M93.00000,98.57062 L92.00000,98.14363 M3.00000,85.78266 L2.40670,85.00000 M84.00000,80.25793 L85.00000,80.32203 M51.00000,92.96197 L51.58745,92.00000 M91.26314,62.00000 L92.00000,61.26314 M67.27361,86.00000 L67.00000,86.38190 M75.16824,16.00000 L75.00000,16.10149 M64.00000,87.74089 L63.00000,87.51416 M82.00000,35.79020 L81.60746,35.00000 M56.00000,66.35060 L55.00000,66.89388 M86.98702,91.00000 L87.00000,91.01043 M3.00000,63.54313 L3.54312,63.00000 M26.35060,96.00000 L26.00000,96.35060 M96.00000,77.84267 L95.55972,78.00000 M42.00000,96.56859 L41.52477,96.00000 M34.00000,35.72599 L33.00000,35.06100 M56.00000,81.52477 L56.56858,82.00000 M2.26676,84.00000 L2.71192,83.00000 M66.98859,54.00000 L66.89388,55.00000 M75.00000,70.83210 L75.46259,71.00000 M86.68884,33.00000 L86.98859,34.00000 M98.24210,74.00000 L98.17849,75.00000 M66.62975,45.00000 L66.03202,46.00000 M2.51951,74.00000 L3.00000,73.03604 M93.00000,41.25556 L94.00000,41.00964 M90.75906,54.00000 L90.98111,53.00000 M46.97614,83.00000 L47.00000,83.08003 M75.00000,26.36562 L74.00000,26.48535 M44.00000,35.98182 L43.00000,35.42183 M77.00000,86.77905 L76.77905,87.00000 M34.00000,4.90717 L33.56964,4.00000 M90.57706,65.00000 L90.50849,64.00000 M5.16825,86.00000 L5.00000,86.10149 M23.54313,43.00000 L24.00000,42.77227 M46.62975,65.00000 L46.03202,66.00000 M71.82211,56.00000 L71.34805,55.00000 M61.52477,76.00000 L61.08863,75.00000 M95.00000,80.06699 L96.00000,80.38254 M53.00000,32.71192 L54.00000,32.26676 M5.00000,82.40669 L5.78266,83.00000 M23.00000,65.78266 L22.40670,65.00000 M90.06699,85.00000 L90.00736,84.00000 M43.00000,71.80611 L44.00000,71.51177 M76.23373,14.00000 L76.10149,15.00000 M25.98182,54.00000 L25.81745,55.00000 M76.38190,77.00000 L76.00000,77.27361 M52.51951,24.00000 L53.00000,23.03604 M4.90717,34.00000 L4.00000,34.90717 M86.00000,80.65878 L86.54544,81.00000 M63.00000,80.98111 L64.00000,80.75906 M22.71192,63.00000 L23.00000,62.71192 M95.00000,37.15358 L94.00000,37.23938 M92.00000,36.21283 L91.82211,36.00000 M97.00000,42.56943 L97.24594,43.00000 M80.57706,75.00000 L80.50849,74.00000 M4.00000,45.21432 L3.68609,45.00000 M63.00000,36.11425 L62.85794,36.00000 M22.40670,65.00000 L22.26676,64.00000 M51.76284,54.00000 L52.00000,53.23837 M36.00000,55.16825 L35.16825,56.00000 M25.00000,55.81745 L24.00000,55.98182 M25.00000,24.77541 L24.77541,25.00000 M51.51177,64.00000 L51.80611,63.00000 M87.84975,92.00000 L88.00000,92.29311 M65.72598,4.00000 L65.52099,5.00000 M75.79020,42.00000 L76.00000,42.14351 M62.29927,62.00000 L63.00000,61.53083 M77.99165,84.00000 L77.92374,85.00000 M54.00000,36.23373 L53.39335,36.00000 M85.00000,77.92374 L84.00000,77.99165 M25.00000,42.95376 L25.06100,43.00000 M94.00000,37.23938 L93.08003,37.00000 M35.72599,34.00000 L35.52099,35.00000 M31.80611,83.00000 L32.00000,82.71041 M42.77227,24.00000 L43.00000,23.54313 M54.00000,51.76284 L55.00000,51.86688 M24.00000,91.51177 L25.00000,91.60746 M62.77227,4.00000 L63.00000,3.54312 M73.00000,12.71192 L74.00000,12.26676 M70.50849,84.00000 L70.71738,83.00000 M85.00000,47.15358 L84.00000,47.23938 M65.00000,32.13316 L66.00000,32.85794 M24.00000,66.23373 L23.39335,66.00000 M87.00000,71.72048 L87.24003,72.00000 M45.00000,35.81745 L44.00000,35.98182 M35.00000,81.60746 L35.79020,82.00000 M72.56943,67.00000 L72.00000,66.56859 M31.26071,94.00000 L31.53083,93.00000 M75.46259,71.00000 L76.00000,71.22742 M42.01400,54.00000 L42.40180,53.00000 M87.00000,45.36553 L86.66918,46.00000 M24.00000,23.29826 L25.00000,23.68609 M45.00000,13.31137 L45.47015,14.00000 M67.00000,63.08003 L67.23938,64.00000 M61.86688,45.00000 L61.76284,44.00000 M47.41030,95.00000 L47.00000,95.97653 M15.16825,76.00000 L15.00000,76.10149 M86.73697,24.00000 L86.62975,25.00000 M36.89388,85.00000 L36.35060,86.00000 M72.00000,90.94492 L73.00000,90.45364 M75.00000,12.40670 L75.78266,13.00000 M44.00000,3.29826 L45.00000,3.68609 M46.68884,73.00000 L46.98859,74.00000 M86.21283,42.00000 L86.97614,43.00000 M97.92374,65.00000 L97.55814,66.00000 M63.54313,3.00000 L64.00000,2.77227 M15.00000,62.68023 L15.42183,63.00000 M95.00000,89.75197 L95.65709,90.00000 M90.18990,83.00000 L90.65285,82.00000 M56.00000,33.39335 L56.23373,34.00000 M74.00000,67.49014 L73.00000,67.24594 M81.82211,46.00000 L81.34805,45.00000 M71.72048,87.00000 L71.00000,86.10385 M61.08863,75.00000 L61.00964,74.00000 M92.29927,32.00000 L93.00000,31.53083 M15.00000,34.77541 L14.77541,35.00000 M45.98182,34.00000 L45.81745,35.00000 M36.00000,96.66918 L35.36553,97.00000 M43.00000,76.68884 L42.14351,76.00000 M97.00000,90.69848 L97.34418,91.00000 M14.00000,76.23373 L13.39335,76.00000 M45.72599,24.00000 L45.52099,25.00000 M86.00000,87.84267 L85.55972,88.00000 M63.00000,87.51416 L62.09986,87.00000 M73.00000,80.71738 L74.00000,80.50849 M76.00000,66.98776 L75.97653,67.00000 M81.53812,91.00000 L82.00000,90.65285 M52.00000,76.21283 L51.82211,76.00000 M92.01400,4.00000 L92.40180,3.00000 M14.00000,91.76284 L15.00000,91.86687 M94.00000,78.24210 L93.00000,78.04918 M97.47415,87.00000 L97.00000,87.47415 M33.29826,14.00000 L34.00000,13.29826 M55.16825,36.00000 L55.00000,36.10149 M81.22742,66.00000 L81.00000,65.46259 M43.00000,45.78266 L42.40670,45.00000 M52.00000,91.58746 L52.96197,91.00000 M22.00000,95.79020 L21.60746,95.00000 M60.57706,95.00000 L60.50849,94.00000 M55.00000,81.08863 L56.00000,81.52477 M73.00000,51.53083 L74.00000,51.26071 M66.00000,56.35060 L65.00000,56.89388 M96.98702,81.00000 L97.00000,81.01043 M57.23938,74.00000 L57.15358,75.00000 M21.80611,93.00000 L22.00000,92.71041 M83.00000,16.11425 L82.85794,16.00000 M33.00000,52.71192 L34.00000,52.26676 M76.00000,13.39335 L76.23373,14.00000 M82.85794,16.00000 L82.13316,15.00000 M35.78266,53.00000 L36.00000,53.39335 M85.00000,98.43240 L84.00000,98.49254 M16.23374,74.00000 L16.10149,75.00000 M91.91177,42.00000 L92.00000,41.91176 M70.65878,96.00000 L70.32203,95.00000 M62.85794,36.00000 L62.13316,35.00000 M45.00000,87.15358 L44.00000,87.23938 M15.72598,54.00000 L15.52099,55.00000 M67.74090,84.00000 L67.66702,85.00000 M85.00000,51.08863 L86.00000,51.52477 M35.00000,13.68609 L35.21432,14.00000 M56.00000,97.27361 L55.00000,97.66702 M72.43090,81.00000 L73.00000,80.71738 M35.00000,45.81745 L34.00000,45.98182 M45.00000,22.95376 L45.06100,23.00000 M84.00000,88.24210 L83.00000,88.04918 M96.10385,61.00000 L97.00000,61.72048 M62.00000,43.23837 L62.09168,43.00000 M12.40180,83.00000 L13.00000,82.40180 M86.89388,35.00000 L86.35060,36.00000 M56.00000,71.82211 L56.21283,72.00000 M72.01400,24.00000 L72.40180,23.00000 M82.00000,42.29927 L82.29927,42.00000 M66.97614,63.00000 L67.00000,63.08003 M61.53083,63.00000 L62.00000,62.29927 M91.00000,62.43090 L91.26314,62.00000 M12.00000,95.26798 L11.86688,95.00000 M34.00000,42.51951 L35.00000,42.68023 M98.14363,92.00000 L98.57062,93.00000 M36.97614,93.00000 L37.00000,93.08003 M93.00000,31.53083 L94.00000,31.26071 M6.00000,95.60612 L5.60613,96.00000 M86.21828,98.00000 L86.00000,98.12097 M67.00000,96.77905 L66.77905,97.00000 M64.00000,2.77227 L65.00000,2.95376 M74.00000,36.73697 L73.00000,36.40155 M77.24003,82.00000 L77.78237,83.00000 M46.00000,86.66918 L45.36553,87.00000 M90.83210,55.00000 L90.75906,54.00000 M6.23374,84.00000 L6.10149,85.00000 M72.00000,42.71041 L72.71041,42.00000 M92.96197,51.00000 L93.00000,50.98111 M96.00000,51.22742 L96.92434,52.00000 M53.00000,61.80611 L54.00000,61.51177 M34.00000,13.29826 L35.00000,13.68609 M77.00000,72.09986 L77.51416,73.00000 M46.03202,66.00000 L46.00000,66.03202 M82.00000,23.23836 L82.09168,23.00000 M36.48535,64.00000 L36.36562,65.00000 M92.56943,47.00000 L92.00000,46.56858 M5.78266,83.00000 L6.00000,83.39336 M53.00000,35.78266 L52.40670,35.00000 M66.00000,97.55814 L65.00000,97.92374 M95.00000,67.92374 L94.00000,67.99165 M97.23938,34.00000 L97.15358,35.00000 M55.78266,33.00000 L56.00000,33.39335 M14.00000,62.51951 L15.00000,62.68023 M92.09168,13.00000 L93.00000,12.09168 M26.00000,63.39335 L26.23374,64.00000 M73.03604,3.00000 L74.00000,2.51951 M76.62975,35.00000 L76.03202,36.00000 M33.31137,25.00000 L33.02687,24.00000 M81.00964,54.00000 L81.25556,53.00000 M55.00000,90.83210 L55.46259,91.00000 M14.00000,14.33511 L13.84103,14.00000 M92.00000,41.91176 L93.00000,41.25556 M71.00000,75.46259 L70.83210,75.00000 M97.00000,66.77905 L96.77905,67.00000 M60.71738,93.00000 L61.00000,92.43090 M45.36553,87.00000 L45.00000,87.15358 M80.98111,63.00000 L81.00000,62.96197 M13.00000,92.09168 L13.23836,92.00000 M66.00000,23.39335 L66.23373,24.00000 M25.00000,62.40670 L25.78266,63.00000 M54.00000,66.98859 L53.00000,66.68884 M32.77227,34.00000 L33.00000,33.54313 M96.48535,4.00000 L96.36562,5.00000 M12.95376,55.00000 L12.77227,54.00000 M85.00000,60.83210 L85.46259,61.00000 M54.00000,42.01400 L55.00000,42.13316 M91.92670,71.00000 L92.00000,70.94492 M70.71738,83.00000 L71.00000,82.43090 M78.00000,92.88783 L78.04918,93.00000 M62.71041,52.00000 L63.00000,51.80611 M82.13316,15.00000 L82.01400,14.00000 M56.48535,44.00000 L56.36562,45.00000 M85.46259,61.00000 L86.00000,61.22742 M3.84103,24.00000 L4.00000,23.84103 M31.82211,96.00000 L31.34805,95.00000 M98.68632,95.00000 L98.39157,96.00000 M42.85794,56.00000 L42.13316,55.00000 M35.00000,14.77541 L34.77541,15.00000 M56.66918,76.00000 L56.00000,76.66918 M3.00000,96.11425 L2.85794,96.00000 M84.00000,90.00736 L85.00000,90.06699 M65.36553,67.00000 L65.00000,67.15358 M62.00000,45.26798 L61.86688,45.00000 M77.66702,75.00000 L77.27361,76.00000 M87.00000,76.77905 L86.77905,77.00000 M3.29826,44.00000 L4.00000,43.29826 M65.00000,71.08863 L66.00000,71.52477 M87.23938,44.00000 L87.15358,45.00000 M94.00000,11.76284 L95.00000,11.86688 M51.00000,95.46259 L50.83210,95.00000 M31.34805,95.00000 L31.26071,94.00000 M75.26798,32.00000 L76.00000,32.50073 M42.09168,63.00000 L43.00000,62.09168 M82.00000,61.58745 L82.96197,61.00000 M34.00000,86.98859 L33.00000,86.68884 M91.00000,81.53812 L91.53812,81.00000 M3.00000,65.06100 L2.95376,65.00000 M47.49014,94.00000 L47.41030,95.00000 M67.15358,65.00000 L67.00000,65.36553 M64.00000,67.23938 L63.08003,67.00000 M93.00000,50.98111 L94.00000,50.75906 M53.08003,77.00000 L53.00000,76.97614 M2.71192,83.00000 L3.00000,82.71192 M90.93504,66.00000 L90.57706,65.00000 M44.00000,5.21432 L43.68609,5.00000 M75.00000,36.62975 L74.00000,36.73697 M34.00000,15.21432 L33.68609,15.00000 M77.00000,55.36553 L76.66918,56.00000 M53.00000,46.11425 L52.85794,46.00000 M5.22453,55.00000 L5.00000,55.22453 M90.25793,74.00000 L90.45364,73.00000 M66.10149,25.00000 L66.00000,25.16825 M23.02687,34.00000 L24.00000,33.02687 M95.55972,78.00000 L95.00000,78.17849 M92.13316,5.00000 L92.01400,4.00000 M95.79020,22.00000 L96.00000,22.14351 M76.68884,43.00000 L76.98859,44.00000 M5.00000,53.31137 L5.47015,54.00000 M66.00000,61.82211 L66.21283,62.00000 M23.00000,76.11425 L22.85794,76.00000 M52.09168,53.00000 L53.00000,52.09168 M43.00000,81.53083 L44.00000,81.26071 M25.52099,45.00000 L25.00000,45.52099 M95.00000,6.36562 L94.00000,6.48535 M97.34418,91.00000 L98.00000,91.78480 M4.00000,82.26675 L5.00000,82.40669 M22.85794,76.00000 L22.13316,75.00000 M52.00000,81.91177 L53.00000,81.25556 M92.00000,46.56858 L91.52477,46.00000 M71.00000,82.43090 L71.26314,82.00000 M76.00000,71.22742 L76.92434,72.00000 M57.74089,94.00000 L57.66702,95.00000 M80.65878,86.00000 L80.32203,85.00000 M55.00000,15.52099 L54.00000,15.72598 M83.00000,51.25556 L84.00000,51.00964 M4.00000,55.47015 L3.31137,55.00000 M23.00000,45.06100 L22.95376,45.00000 M96.92434,52.00000 L97.00000,52.09986 M43.00000,52.40180 L44.00000,52.01400 M25.00000,66.10149 L24.00000,66.23373 M55.00000,32.40670 L55.78266,33.00000 M22.50073,86.00000 L22.00000,85.26798 M63.00000,61.53083 L64.00000,61.26071 M76.00000,42.14351 L76.68884,43.00000 M83.00000,22.09168 L83.23837,22.00000 M63.00000,15.42183 L62.68023,15.00000 M25.00000,52.68023 L25.42183,53.00000 M86.00000,15.60613 L85.60612,16.00000 M51.52477,86.00000 L51.08863,85.00000 M35.79020,82.00000 L36.00000,82.14352 M75.81744,5.00000 L75.00000,5.81745 M32.09168,73.00000 L33.00000,72.09168 M78.24210,94.00000 L78.17849,95.00000 M42.95376,25.00000 L42.77227,24.00000 M85.79020,32.00000 L86.00000,32.14351 M24.33511,4.00000 L24.00000,4.33511 M45.00000,91.08863 L46.00000,91.52477 M65.42183,13.00000 L65.98182,14.00000 M62.09986,87.00000 L62.00000,86.92434 M54.00000,15.72598 L53.00000,15.06100 M24.00000,35.47015 L23.31137,35.00000 M87.00000,81.36546 L87.54488,82.00000 M35.00000,52.40670 L35.78266,53.00000 M72.71041,42.00000 L73.00000,41.80611 M31.51177,84.00000 L31.80611,83.00000 M75.00000,90.32203 L76.00000,90.65878 M50.83210,95.00000 L50.75906,94.00000 M42.00000,72.71041 L42.71041,72.00000 M86.92434,62.00000 L87.00000,62.09986 M64.00000,77.49014 L63.00000,77.24594 M23.68609,25.00000 L23.29826,24.00000 M90.98111,53.00000 L91.00000,52.96197 M93.00000,60.71738 L94.00000,60.50849 M75.00000,46.89388 L74.00000,46.98859 M67.00000,86.38190 L66.38190,87.00000 M64.00000,32.01400 L65.00000,32.13316 M91.00964,44.00000 L91.25556,43.00000 M15.22453,45.00000 L15.00000,45.22453 M44.00000,42.26676 L45.00000,42.40670 M36.98859,84.00000 L36.89388,85.00000 M44.00000,13.02687 L45.00000,13.31137 M96.00000,41.52477 L96.56859,42.00000 M15.00000,72.40669 L15.78266,73.00000 M46.00000,91.52477 L46.56858,92.00000 M90.32203,75.00000 L90.25793,74.00000 M66.10385,91.00000 L67.00000,91.72048 M74.00000,41.51177 L75.00000,41.60746 M74.00000,77.74089 L73.00000,77.51416 M46.35060,76.00000 L46.00000,76.35060 M93.00000,2.40180 L94.00000,2.01400 M15.00000,86.36562 L14.00000,86.48535 M95.00000,57.66702 L94.00000,57.74089 M98.00000,86.21828 L97.47415,87.00000 M36.62975,75.00000 L36.03202,76.00000 M56.00000,35.16825 L55.16825,36.00000 M81.86687,25.00000 L81.76284,24.00000 M43.31137,15.00000 L43.02687,14.00000 M46.48535,54.00000 L46.36562,55.00000 M15.00000,43.31137 L15.47015,44.00000 M61.34805,65.00000 L61.26071,64.00000 M55.79020,62.00000 L56.00000,62.14351 M74.00000,12.26676 L75.00000,12.40670 M71.52477,66.00000 L71.08863,65.00000 M97.00000,97.80258 L96.70653,98.00000 M61.00000,85.46259 L60.83210,85.00000 M97.51416,53.00000 L97.74090,54.00000 M83.00000,98.30990 L82.29311,98.00000 M14.33511,14.00000 L14.00000,14.33511 M45.78266,43.00000 L46.00000,43.39335 M73.00000,87.78237 L72.00000,87.24003 M33.39335,56.00000 L33.00000,55.78266 M76.00000,90.65878 L76.54544,91.00000 M81.26071,44.00000 L81.53083,43.00000 M43.00000,56.11425 L42.85794,56.00000 M83.00000,70.71738 L84.00000,70.50849 M22.09168,83.00000 L23.00000,82.09168 M45.42183,33.00000 L45.98182,34.00000 M63.00000,66.97614 L62.00000,66.21283 M52.00000,55.26798 L51.86688,55.00000 M16.48535,84.00000 L16.36562,85.00000 M83.00000,26.40155 L82.50073,26.00000 M32.85794,66.00000 L32.13316,65.00000 M56.89388,65.00000 L56.35060,66.00000 M75.60612,26.00000 L75.00000,26.36562 M35.36553,97.00000 L35.00000,97.15358 M51.26071,74.00000 L51.53083,73.00000 M85.00000,67.66702 L84.00000,67.74089 M16.00000,85.60612 L15.60613,86.00000 M62.14351,56.00000 L62.00000,55.79020 M85.16824,6.00000 L85.00000,6.10149 M56.56858,82.00000 L57.00000,82.56943 M72.85794,26.00000 L72.13316,25.00000 M82.14352,36.00000 L82.00000,35.79020 M65.16824,26.00000 L65.00000,26.10149 M62.00000,76.56859 L61.52477,76.00000 M87.51416,63.00000 L87.74090,64.00000 M15.81745,65.00000 L15.00000,65.81744 M35.00000,23.31137 L35.47015,24.00000 M35.00000,56.10149 L34.00000,56.23373 M94.00000,2.01400 L95.00000,2.13316 M12.50073,96.00000 L12.00000,95.26798 M86.97614,43.00000 L87.00000,43.08003 M70.32203,95.00000 L70.25793,94.00000 M64.00000,80.75906 L65.00000,80.83210 M72.09986,77.00000 L72.00000,76.92434 M82.00000,90.65285 L83.00000,90.18990 M44.00000,91.00964 L45.00000,91.08863 M87.24003,72.00000 L87.78237,73.00000 M12.71192,73.00000 L13.00000,72.71192 M67.49014,74.00000 L67.41030,75.00000 M91.36546,77.00000 L91.00000,76.54544 M96.36562,5.00000 L96.00000,5.60613 M56.00000,76.66918 L55.36553,77.00000 M34.00000,91.26071 L35.00000,91.34805 M82.00000,46.21283 L81.82211,46.00000 M45.00000,3.68609 L45.21432,4.00000 M41.34805,85.00000 L41.26071,84.00000 M12.01400,84.00000 L12.40180,83.00000 M61.80611,53.00000 L62.00000,52.71041 M91.22742,56.00000 L91.00000,55.46259 M53.23837,52.00000 L54.00000,51.76284 M66.73697,44.00000 L66.62975,45.00000 M93.00000,36.97614 L92.00000,36.21283 M96.00000,60.93503 L96.10385,61.00000 M6.48535,94.00000 L6.36562,95.00000 M93.00000,6.11425 L92.85794,6.00000 M34.00000,23.02687 L35.00000,23.31137 M74.00000,61.00964 L75.00000,61.08863 M77.00000,81.72048 L77.24003,82.00000 M36.66918,96.00000 L36.00000,96.66918 M81.76284,24.00000 L82.00000,23.23836 M55.97654,87.00000 L55.00000,87.41030 M5.98182,74.00000 L5.81745,75.00000 M92.14352,26.00000 L92.00000,25.79020 M71.58746,72.00000 L72.00000,71.58746 M96.00000,16.03202 L95.00000,16.62975 M61.51177,54.00000 L61.80611,53.00000 M97.55814,66.00000 L97.00000,66.77905 M46.00000,66.03202 L45.00000,66.62975 M81.34805,45.00000 L81.26071,44.00000 M14.00000,33.29826 L15.00000,33.68609 M71.22742,76.00000 L71.00000,75.46259 M25.60613,76.00000 L25.00000,76.36562 M52.50073,56.00000 L52.00000,55.26798 M73.00000,70.98111 L74.00000,70.75906 M33.00000,96.97614 L32.00000,96.21283 M45.52099,25.00000 L45.00000,25.52099 M97.00000,35.36553 L96.66918,36.00000 M13.39335,76.00000 L13.00000,75.78266 M83.00000,36.68884 L82.14352,36.00000 M55.00000,22.68023 L55.42183,23.00000 M73.00000,26.11425 L72.85794,26.00000 M80.71738,73.00000 L81.00000,72.43090 M63.00000,51.80611 L64.00000,51.51177 M81.00000,65.46259 L80.83210,65.00000 M55.00000,56.62975 L54.00000,56.73697 M86.00000,51.52477 L86.56859,52.00000 M13.02687,44.00000 L14.00000,43.02687 M25.00000,72.13316 L26.00000,72.85794 M32.95376,35.00000 L32.77227,34.00000 M55.00000,71.34805 L56.00000,71.82211 M13.00000,55.06100 L12.95376,55.00000 M85.00000,70.57706 L86.00000,70.93504 M66.00000,46.03202 L65.00000,46.62975 M62.26676,24.00000 L62.71192,23.00000 M80.38254,96.00000 L80.06699,95.00000 M86.00000,22.50073 L86.40155,23.00000 M13.00000,72.71192 L14.00000,72.26675 M65.79020,52.00000 L66.00000,52.14351 M87.99165,74.00000 L87.92374,75.00000 M96.68884,23.00000 L96.98859,24.00000 M54.00000,46.48535 L53.00000,46.11425 M32.13316,65.00000 L32.01400,64.00000 M78.00000,95.55972 L77.84267,96.00000 M43.00000,23.54313 L43.54313,23.00000 M82.40180,13.00000 L83.00000,12.40180 M32.51951,44.00000 L33.00000,43.03604 M87.74090,64.00000 L87.66702,65.00000 M4.00000,23.84103 L4.33511,24.00000 M54.00000,22.51951 L55.00000,22.68023 M70.45364,93.00000 L70.94492,92.00000 M65.00000,46.62975 L64.00000,46.73697 M94.00000,21.51177 L95.00000,21.60746 M56.35060,66.00000 L56.00000,66.35060 M3.39335,86.00000 L3.00000,85.78266 M87.24594,53.00000 L87.49014,54.00000 M31.53083,93.00000 L32.00000,92.29927 M42.00000,75.79020 L41.60746,75.00000 M75.42183,3.00000 L75.98182,4.00000 M34.00000,97.23938 L33.08003,97.00000 M82.00000,32.71041 L82.71041,32.00000 M56.00000,62.14351 L56.68884,63.00000 M3.00000,75.42183 L2.68023,75.00000 M91.00000,52.96197 L91.58746,52.00000 M66.89388,55.00000 L66.35060,56.00000 M93.00000,88.30990 L92.29311,88.00000 M91.00000,86.98702 L90.38254,86.00000 M61.82211,66.00000 L61.34805,65.00000 M96.00000,70.65878 L96.54544,71.00000 M77.00000,91.36546 L77.54488,92.00000 M2.13316,95.00000 L2.01400,94.00000 M66.38190,87.00000 L66.00000,87.27361 M46.66918,86.00000 L46.00000,86.66918 M44.00000,15.47015 L43.31137,15.00000 M33.54313,33.00000 L34.00000,32.77227 M95.00000,88.43240 L94.00000,88.49254 M98.00000,75.55972 L97.84267,76.00000 M5.00000,86.10149 L4.00000,86.23373 M23.23836,82.00000 L24.00000,81.76284 M46.36562,55.00000 L46.00000,55.60613 M92.29311,88.00000 L92.00000,87.84975 M71.60746,45.00000 L71.51177,44.00000 M74.00000,80.50849 L75.00000,80.57706 M61.26071,64.00000 L61.53083,63.00000 M76.77905,87.00000 L76.00000,87.55814 M53.00000,13.54312 L53.54313,13.00000 M84.00000,16.48535 L83.00000,16.11425 M5.00000,62.95376 L5.06100,63.00000 M23.39335,66.00000 L23.00000,65.78266 M97.00000,87.47415 L96.21828,88.00000 M43.39335,46.00000 L43.00000,45.78266 M25.72598,44.00000 L25.52099,45.00000 M53.00000,25.42183 L52.68023,25.00000 M4.00000,92.01400 L5.00000,92.13316 M23.00000,82.09168 L23.23836,82.00000 M66.00000,87.27361 L65.00000,87.66702 M76.21283,52.00000 L76.97614,53.00000 M83.08003,47.00000 L83.00000,46.97614 M97.41030,45.00000 L97.00000,45.97654 M63.00000,97.78237 L62.00000,97.24003 M4.77541,45.00000 L4.00000,45.21432 M86.00000,98.12097 L85.00000,98.43240 M95.00000,31.34805 L96.00000,31.82211 M23.00000,55.42183 L22.68023,55.00000 M52.00000,86.56859 L51.52477,86.00000 M43.00000,62.09168 L43.23837,62.00000 M76.00000,77.27361 L75.00000,77.66702 M25.22453,35.00000 L25.00000,35.22453 M80.94492,82.00000 L81.00000,81.92670 M4.00000,62.77227 L5.00000,62.95376 M86.00000,70.93504 L86.10385,71.00000 M22.68023,55.00000 L22.51951,54.00000 M52.00000,62.71041 L52.71041,62.00000 M66.00000,52.14351 L66.68884,53.00000 M57.41030,85.00000 L57.00000,85.97653 M54.00000,97.74089 L53.00000,97.51416 M25.00000,23.68609 L25.21432,24.00000 M86.00000,26.03202 L85.00000,26.62975 M35.42183,43.00000 L35.98182,44.00000 M75.98182,4.00000 L75.81745,5.00000 M32.14351,86.00000 L32.00000,85.79020 M77.92374,85.00000 L77.55814,86.00000 M54.00000,32.26676 L55.00000,32.40670 M42.56943,97.00000 L42.00000,96.56859 M85.26798,22.00000 L86.00000,22.50073 M62.56943,77.00000 L62.00000,76.56859 M24.00000,72.01400 L25.00000,72.13316 M87.41030,55.00000 L87.00000,55.97654 M94.00000,31.26071 L95.00000,31.34805 M77.41030,65.00000 L77.00000,65.97653 M67.99165,94.00000 L67.92374,95.00000 M65.00000,12.68023 L65.42183,13.00000 M91.72048,67.00000 L91.00000,66.10385 M24.00000,45.72599 L23.00000,45.06100 M45.00000,15.22453 L44.00000,15.47015 M35.00000,62.13316 L36.00000,62.85794 M26.68884,93.00000 L26.98859,94.00000 M42.00000,82.29927 L42.29927,82.00000 M96.21828,88.00000 L96.00000,88.12097 M24.00000,3.84103 L24.33511,4.00000 M44.00000,97.49014 L43.00000,97.24594 M91.00000,55.46259 L90.83210,55.00000 M66.92434,82.00000 L67.00000,82.09986 M72.13316,25.00000 L72.01400,24.00000 M61.72048,97.00000 L61.00000,96.10385 M75.00000,57.15358 L74.00000,57.23938 M47.00000,95.97653 L46.98777,96.00000 M84.00000,57.49014 L83.00000,57.24594 M91.51177,24.00000 L91.80611,23.00000 M24.00000,14.90717 L23.56964,14.00000 M93.00000,26.68884 L92.14352,26.00000 M41.51177,74.00000 L41.80611,73.00000 M41.86688,65.00000 L41.76284,64.00000 M47.24594,93.00000 L47.49014,94.00000 M15.26798,92.00000 L16.00000,92.50073 M64.00000,56.98859 L63.00000,56.68884 M72.00000,87.24003 L71.72048,87.00000 M72.00000,56.21283 L71.82211,56.00000 M96.00000,46.98777 L95.97653,47.00000 M64.00000,12.51951 L65.00000,12.68023 M98.00000,96.70653 L97.80258,97.00000 M86.35060,36.00000 L86.00000,36.35060 M15.00000,96.62975 L14.00000,96.73697 M46.00000,96.98776 L45.97654,97.00000 M74.00000,46.98859 L73.00000,46.68884 M36.68884,83.00000 L36.98859,84.00000 M75.00000,2.68023 L75.42183,3.00000 M81.92670,81.00000 L82.00000,80.94492 M43.54313,23.00000 L44.00000,22.77227 M84.00000,36.98859 L83.00000,36.68884 M15.00000,52.95376 L15.06100,53.00000 M46.00000,72.14352 L46.68884,73.00000 M97.84267,76.00000 L97.14571,77.00000 M66.00000,90.93504 L66.10385,91.00000 M52.40180,43.00000 L53.00000,42.40180 M14.00000,72.26675 L15.00000,72.40669 M83.23837,22.00000 L84.00000,21.76284 M33.02687,24.00000 L34.00000,23.02687 M55.00000,87.41030 L54.00000,87.49014 M73.00000,98.04918 L72.88783,98.00000 M76.00000,61.52477 L76.56859,62.00000 M52.00000,72.29927 L52.29927,72.00000 M43.00000,25.06100 L42.95376,25.00000 M83.00000,41.53083 L84.00000,41.26071 M57.51416,93.00000 L57.74089,94.00000 M21.86688,85.00000 L21.76284,84.00000 M86.00000,36.35060 L85.00000,36.89388 M94.00000,70.25793 L95.00000,70.32203 M55.00000,61.60746 L55.79020,62.00000 M76.00000,15.16825 L75.16824,16.00000 M81.00000,72.43090 L81.26314,72.00000 M66.00000,35.60613 L65.60612,36.00000 M57.00000,85.97653 L56.98777,86.00000 M88.17849,85.00000 L88.00000,85.55972 M16.73697,94.00000 L16.62975,95.00000 M33.00000,33.54313 L33.54313,33.00000 M35.47015,24.00000 L35.22453,25.00000 M96.62975,15.00000 L96.03202,16.00000 M16.00000,96.03202 L15.00000,96.62975 "/>

<script>
let svgs = document.children[0];
let paths = Array.from(svgs.children).filter(function(c) {
    var orig = c.style.stroke;
    c.onmouseover = function() {
        c.style.stroke = "rgb(0, 0, 255)";
    };
    c.onmouseout = function () {
        c.style.stroke = orig;
    };
    c.onclick = function () {
        svgs.removeChild()
    }
});

for (let path of paths) {
    console.log(path);
}
</script></svg>