<svg xmlns="http://www.w3.org/2000/svg">
    <path fill-rule="evenodd" style="fill: none; stroke: rgb(0, 0, 0); stroke-width: 0.2;" d="M36.00,36.21 L35.20,37.00 L35.20,37.00 L35.00,37.18 L35.00,37.18 L34.00,37.90 L34.00,37.90 L33.86,38.00 L33.86,38.00 L33.00,38.61 L32.45,39.00 L32.00,39.30 L31.00,39.82 L30.65,40.00 L30.00,40.32 L29.00,40.70 L28.21,41.00 L28.21,41.00 L28.00,41.08 L28.00,41.08 L27.00,41.34 L26.00,41.59 L25.00,41.75 L24.00,41.90 L23.00,41.95 L22.00,42.00 L21.00,41.95 L20.00,41.90 L19.00,41.75 L18.00,41.59 L17.00,41.31 L16.00,41.02 L16.00,41.02 L15.93,41.00 L15.93,41.00 L15.00,40.72 L14.00,40.30 L13.32,40.00 L13.00,39.85 L12.00,39.28 L11.52,39.00 L11.00,38.68 L10.08,38.00 L10.08,38.00 L10.00,37.94 L10.00,37.94 L9.00,37.17 L9.00,37.17 L8.80,37.00 L8.80,37.00 L8.00,36.21 L8.00,36.21 L7.79,36.00 L7.79,36.00 L7.00,35.20 L7.00,35.20 L6.82,35.00 L6.82,35.00 L6.10,34.00 L6.10,34.00 L6.00,33.86 L6.00,33.86 L5.39,33.00 L5.00,32.45 L4.70,32.00 L4.18,31.00 L4.00,30.65 L3.68,30.00 L3.30,29.00 L3.00,28.21 L3.00,28.21 L2.92,28.00 L2.92,28.00 L2.66,27.00 L2.41,26.00 L2.25,25.00 L2.10,24.00 L2.05,23.00 L2.00,22.00 L2.05,21.00 L2.10,20.00 L2.25,19.00 L2.41,18.00 L2.69,17.00 L2.98,16.00 L2.98,16.00 L3.00,15.93 L3.00,15.93 L3.28,15.00 L3.70,14.00 L4.00,13.32 L4.15,13.00 L4.72,12.00 L5.00,11.52 L5.32,11.00 L6.00,10.08 L6.00,10.08 L6.06,10.00 L6.06,10.00 L6.83,9.00 L6.83,9.00 L7.00,8.80 L7.00,8.80 L7.79,8.00 L7.79,8.00 L8.00,7.79 L8.00,7.79 L8.80,7.00 L8.80,7.00 L9.00,6.82 L9.00,6.82 L10.00,6.10 L10.00,6.10 L10.14,6.00 L10.14,6.00 L11.00,5.39 L11.55,5.00 L12.00,4.70 L13.00,4.18 L13.35,4.00 L14.00,3.68 L15.00,3.30 L15.79,3.00 L15.79,3.00 L16.00,2.92 L16.00,2.92 L17.00,2.66 L18.00,2.41 L19.00,2.25 L20.00,2.10 L21.00,2.05 L22.00,2.00 L23.00,2.05 L24.00,2.10 L25.00,2.25 L26.00,2.41 L27.00,2.69 L28.00,2.98 L28.00,2.98 L28.07,3.00 L28.07,3.00 L29.00,3.28 L30.00,3.70 L30.68,4.00 L31.00,4.15 L32.00,4.72 L32.48,5.00 L33.00,5.32 L33.92,6.00 L33.92,6.00 L34.00,6.06 L34.00,6.06 L35.00,6.83 L35.00,6.83 L35.20,7.00 L35.20,7.00 L36.00,7.77 L36.00,7.77 L36.23,8.00 L36.23,8.00 L37.00,8.71 L37.78,8.00 L37.78,8.00 L38.00,7.79 L38.00,7.79 L38.80,7.00 L38.80,7.00 L39.00,6.82 L39.00,6.82 L40.00,6.10 L40.00,6.10 L40.14,6.00 L40.14,6.00 L41.00,5.39 L41.55,5.00 L42.00,4.70 L43.00,4.18 L43.35,4.00 L44.00,3.68 L45.00,3.29 L45.82,3.00 L45.82,3.00 L46.00,2.94 L46.00,2.94 L47.00,2.67 L48.00,2.41 L49.00,2.25 L50.00,2.10 L51.00,2.05 L52.00,2.00 L53.00,2.05 L54.00,2.10 L55.00,2.25 L56.00,2.41 L57.00,2.69 L58.00,2.98 L58.00,2.98 L58.07,3.00 L58.07,3.00 L59.00,3.28 L60.00,3.70 L60.68,4.00 L60.68,4.00 L61.00,4.15 L61.00,4.15 L62.00,4.72 L62.48,5.00 L63.00,5.32 L63.92,6.00 L63.92,6.00 L64.00,6.06 L64.00,6.06 L65.00,6.83 L65.00,6.83 L65.20,7.00 L65.20,7.00 L66.00,7.79 L66.00,7.79 L66.21,8.00 L66.21,8.00 L67.00,8.80 L67.00,8.80 L67.18,9.00 L67.18,9.00 L67.90,10.00 L67.90,10.00 L68.00,10.14 L68.00,10.14 L68.61,11.00 L69.00,11.55 L69.30,12.00 L69.82,13.00 L70.00,13.35 L70.32,14.00 L70.70,15.00 L71.00,15.79 L71.00,15.79 L71.08,16.00 L71.08,16.00 L71.34,17.00 L71.59,18.00 L71.75,19.00 L71.90,20.00 L71.95,21.00 L72.00,22.00 L71.95,23.00 L71.90,24.00 L71.75,25.00 L71.59,26.00 L71.31,27.00 L71.02,28.00 L71.02,28.00 L71.00,28.07 L71.00,28.07 L70.72,29.00 L70.30,30.00 L70.00,30.68 L70.00,30.68 L69.85,31.00 L69.85,31.00 L69.28,32.00 L69.00,32.48 L68.68,33.00 L68.00,33.92 L68.00,33.92 L67.94,34.00 L67.94,34.00 L67.17,35.00 L67.17,35.00 L67.00,35.20 L67.00,35.20 L66.21,36.00 L66.21,36.00 L66.00,36.21 L66.00,36.21 L65.20,37.00 L65.20,37.00 L65.00,37.18 L65.00,37.18 L64.00,37.90 L64.00,37.90 L63.86,38.00 L63.86,38.00 L63.00,38.61 L62.45,39.00 L62.00,39.30 L61.00,39.82 L60.65,40.00 L60.00,40.32 L59.00,40.70 L58.21,41.00 L58.21,41.00 L58.00,41.08 L58.00,41.08 L57.00,41.34 L56.00,41.59 L55.00,41.75 L54.00,41.90 L53.00,41.95 L52.00,42.00 L51.00,41.95 L50.00,41.90 L49.00,41.75 L48.00,41.59 L47.00,41.31 L46.00,41.02 L46.00,41.02 L45.93,41.00 L45.93,41.00 L45.00,40.72 L44.00,40.30 L43.32,40.00 L43.00,39.85 L42.00,39.28 L41.52,39.00 L41.00,38.68 L40.08,38.00 L40.08,38.00 L40.00,37.94 L40.00,37.94 L39.00,37.17 L39.00,37.17 L38.80,37.00 L38.80,37.00 L38.00,36.23 L38.00,36.23 L37.77,36.00 L37.77,36.00 L37.00,35.29 L36.22,36.00 L36.22,36.00 L36.00,36.21 L36.00,36.21 "/>

<script>
let svgs = document.children[0];
let paths = Array.from(svgs.children).filter(function(c) {
    var orig = c.style.stroke;
    c.onmouseover = function() {
        c.style.stroke = "rgb(0, 0, 255)";
    };
    c.onmouseout = function () {
        c.style.stroke = orig;
    };
    c.onclick = function () {
        svgs.removeChild()
    }
});

for (let path of paths) {
    console.log(path);
}
</script></svg>