<svg xmlns="http://www.w3.org/2000/svg">
    <path fill-rule="evenodd" style="fill: none; stroke: rgb(0, 0, 0); stroke-width: 0.2;" d="M62.00000,39.31298 L61.00000,39.85687 M28.00000,17.48612 L27.51353,18.00000 M41.00000,31.53165 L41.47084,31.00000 M46.00000,41.07754 L45.77124,41.00000 M12.00000,39.31298 L11.48061,39.00000 M33.00000,5.30543 L34.00000,6.00000 M47.48779,25.00000 L48.00000,24.51135 M40.47107,31.00000 L40.00000,31.54053 M52.00000,2.00000 L53.00000,2.02508 M26.51221,19.00000 L26.00000,19.48865 M31.00000,14.47910 L30.51997,15.00000 M71.89927,24.00000 L71.77227,25.00000 M44.00000,16.48225 L44.48488,17.00000 M13.29727,40.00000 L13.00000,39.85688 M32.00000,29.52473 L31.51989,29.00000 M40.00000,32.54266 L40.46218,32.00000 M53.00000,41.97492 L52.00000,42.00000 M25.51020,23.00000 L25.00000,22.51040 M30.51997,15.00000 L30.00000,15.48212 M45.77124,41.00000 L45.00000,40.73054 M10.00000,38.00000 L9.00000,37.19118 M25.51020,21.00000 L26.00000,20.48866 M38.78090,37.00000 L38.00000,36.27245 M69.31297,12.00000 L69.85686,13.00000 M5.30543,11.00000 L6.00000,10.00000 M29.51724,28.00000 L30.00000,28.51788 M49.00000,21.48960 L49.49057,22.00000 M8.78090,7.00000 L9.00000,6.80882 M24.50943,22.00000 L25.00000,21.48960 M35.21910,7.00000 L36.00000,7.72754 M69.85686,31.00000 L69.31297,32.00000 M3.67548,14.00000 L4.00000,13.29728 M30.00000,16.48225 L30.51718,16.00000 M44.48276,28.00000 L45.00000,27.51562 M22.00000,2.00000 L23.00000,2.02508 M43.00000,39.85688 L42.00000,39.31298 M63.00000,5.30543 L64.00000,6.00000 M4.14313,13.00000 L4.68702,12.00000 M29.00000,26.51555 L28.51349,26.00000 M48.00000,24.51135 L49.00000,24.51058 M17.00000,41.36148 L16.00000,41.07754 M43.00000,4.14313 L43.29728,4.00000 M68.69456,33.00000 L68.00000,34.00000 M2.92246,28.00000 L2.63852,27.00000 M71.89927,20.00000 L71.97492,21.00000 M48.48980,23.00000 L48.00000,23.51134 M35.00000,6.80882 L35.21910,7.00000 M60.00000,3.67548 L60.70272,4.00000 M28.22876,41.00000 L28.00000,41.07754 M42.00000,13.47483 L41.47084,13.00000 M45.77124,3.00000 L46.00000,2.92246 M2.40685,18.00000 L2.63852,17.00000 M33.53782,32.00000 L34.00000,32.54266 M60.70272,40.00000 L60.00000,40.32452 M27.51218,25.00000 L27.00000,24.51246 M42.00000,30.52517 L42.47629,30.00000 M65.00000,37.19118 L64.00000,38.00000 M16.00000,41.07754 L15.77124,41.00000 M71.36148,17.00000 L71.59316,18.00000 M47.00000,24.51246 L46.48782,25.00000 M32.52359,14.00000 L33.00000,13.46926 M40.00000,38.00000 L39.00000,37.19118 M51.00000,21.49099 L50.48995,21.00000 M28.00000,2.92246 L28.22876,3.00000 M41.47084,31.00000 L42.00000,30.52517 M71.59316,26.00000 L71.36148,27.00000 M45.00000,27.51562 L45.48483,27.00000 M12.00000,4.68702 L13.00000,4.14313 M31.52371,30.00000 L32.00000,30.52517 M58.22876,3.00000 L59.00000,3.26946 M40.00000,6.00000 L41.00000,5.30543 M27.00000,18.48751 L26.51221,19.00000 M31.52371,14.00000 L31.00000,14.47910 M45.48483,27.00000 L46.00000,26.51388 M8.78090,37.00000 L8.00000,36.27246 M25.00000,21.48960 L25.51020,21.00000 M37.72755,36.00000 L37.00000,35.29904 M68.69456,11.00000 L69.00000,11.48061 M26.51110,20.00000 L27.00000,19.48754 M30.70272,4.00000 L31.00000,4.14313 M50.48995,23.00000 L51.00000,22.50901 M7.72754,36.00000 L7.00000,35.21910 M24.00000,2.10073 L25.00000,2.22773 M38.78090,7.00000 L39.00000,6.80882 M52.00000,42.00000 L51.00000,41.97492 M6.00000,34.00000 L5.30543,33.00000 M29.51724,16.00000 L29.00000,16.48438 M44.00000,27.51775 L43.48282,28.00000 M24.00000,41.89927 L23.00000,41.97492 M36.00000,36.27245 L35.21910,37.00000 M67.00000,8.78090 L67.19118,9.00000 M3.67548,30.00000 L3.26946,29.00000 M28.51517,27.00000 L29.00000,27.51562 M48.00000,2.40685 L49.00000,2.22773 M23.00000,2.02508 L24.00000,2.10073 M44.00000,3.67549 L45.00000,3.26946 M67.19118,35.00000 L67.00000,35.21910 M2.40685,26.00000 L2.22773,25.00000 M34.00000,32.54266 L34.53719,32.00000 M50.00000,23.50973 L50.48995,23.00000 M58.22876,41.00000 L58.00000,41.07754 M21.00000,2.02508 L22.00000,2.00000 M43.00000,28.52067 L42.48011,29.00000 M47.00000,2.63852 L48.00000,2.40685 M2.10073,20.00000 L2.22773,19.00000 M33.00000,38.69457 L32.51939,39.00000 M28.51349,26.00000 L28.00000,25.51384 M42.00000,4.68702 L43.00000,4.14313 M63.00000,38.69457 L62.51939,39.00000 M15.00000,40.73054 L14.00000,40.32452 M71.00000,15.77124 L71.07755,16.00000 M48.00000,41.59315 L47.00000,41.36148 M33.53782,12.00000 L33.00000,12.46835 M56.00000,2.40685 L57.00000,2.63852 M27.51218,19.00000 L28.00000,18.48616 M41.00000,30.53074 L40.47107,31.00000 M45.00000,3.26946 L45.77124,3.00000 M16.00000,2.92246 L17.00000,2.63852 M32.52916,31.00000 L33.00000,31.53165 M41.00000,13.46926 L41.47641,14.00000 M57.00000,41.36148 L56.00000,41.59315 M26.51110,24.00000 L26.00000,23.51134 M31.00000,29.52090 L31.52371,30.00000 M46.48647,26.00000 L47.00000,25.51249 M13.00000,39.85688 L12.00000,39.31298 M32.51939,5.00000 L33.00000,5.30543 M40.00000,31.54053 L39.46281,32.00000 M70.73055,15.00000 L71.00000,15.77124 M26.00000,20.48866 L26.51110,20.00000 M30.51718,28.00000 L30.00000,27.51775 M71.36148,27.00000 L71.07755,28.00000 M50.00000,20.49027 L49.48910,20.00000 M11.48060,5.00000 L12.00000,4.68702 M25.00000,41.77227 L24.00000,41.89927 M37.72754,8.00000 L38.00000,7.72754 M51.00000,22.50901 L51.49070,22.00000 M5.00000,32.51939 L4.68702,32.00000 M30.70272,40.00000 L30.00000,40.32452 M45.00000,40.73054 L44.00000,40.32452 M8.00000,36.27246 L7.72754,36.00000 M23.51005,23.00000 L24.00000,23.50973 M35.00000,37.19118 L34.00000,38.00000 M66.00000,7.72755 L66.27245,8.00000 M6.00000,10.00000 L6.80882,9.00000 M30.00000,15.48212 L29.51724,16.00000 M49.00000,24.51058 L49.48910,24.00000 M21.00000,41.97492 L20.00000,41.89927 M43.48003,15.00000 L43.00000,14.47910 M70.00000,30.70272 L69.85686,31.00000 M4.00000,30.70272 L3.67548,30.00000 M29.51512,17.00000 L30.00000,16.48225 M49.48910,24.00000 L50.00000,23.50973 M62.51939,5.00000 L63.00000,5.30543 M19.00000,2.22773 L20.00000,2.10073 M42.48011,29.00000 L42.00000,29.52473 M46.48647,18.00000 L46.00000,17.48612 M3.26946,15.00000 L3.67548,14.00000 M34.53719,32.00000 L34.00000,31.54053 M47.48890,20.00000 L48.00000,20.48866 M28.00000,41.07754 L27.00000,41.36148 M43.00000,15.47933 L43.48282,16.00000 M67.00000,35.21910 L66.27245,36.00000 M2.22773,25.00000 L2.10073,24.00000 M71.97492,21.00000 L72.00000,22.00000 M48.00000,19.48865 L47.48779,19.00000 M33.00000,31.53165 L33.53782,32.00000 M54.00000,2.10073 L55.00000,2.22773 M28.51349,18.00000 L29.00000,17.48445 M42.00000,29.52473 L41.47641,30.00000 M46.00000,2.92246 L47.00000,2.63852 M15.00000,3.26946 L15.77124,3.00000 M32.51939,39.00000 L32.00000,39.31298 M40.47107,13.00000 L41.00000,13.46926 M61.00000,39.85687 L60.70272,40.00000 M27.51353,26.00000 L28.00000,26.51388 M41.48061,5.00000 L42.00000,4.68702 M46.00000,25.51384 L45.48651,26.00000 M11.48061,39.00000 L11.00000,38.69457 M32.00000,14.47527 L32.52359,14.00000 M47.00000,41.36148 L46.00000,41.07754 M39.46281,32.00000 L40.00000,32.54266 M70.00000,13.29728 L70.32452,14.00000 M27.00000,25.51249 L27.51353,26.00000 M31.51989,29.00000 L31.00000,28.52067 M71.00000,28.22877 L70.73055,29.00000 M44.48488,17.00000 L45.00000,17.48445 M10.00000,6.00000 L11.00000,5.30543 M25.00000,19.48942 L24.51090,20.00000 M40.00000,12.45947 L40.47107,13.00000 M56.00000,41.59315 L55.00000,41.77227 M26.00000,41.59315 L25.00000,41.77227 M30.51718,16.00000 L31.00000,15.47933 M45.00000,16.48438 L44.48276,16.00000 M7.00000,35.21910 L6.80882,35.00000 M25.00000,24.51058 L26.00000,24.51135 M38.00000,36.27245 L37.72755,36.00000 M69.00000,11.48061 L69.31297,12.00000 M5.00000,11.48060 L5.30543,11.00000 M29.51512,27.00000 L29.00000,26.51555 M49.00000,2.22773 L50.00000,2.10073 M8.00000,7.72755 L8.78090,7.00000 M24.00000,23.50973 L24.51090,24.00000 M37.00000,8.70096 L37.72754,8.00000 M69.31297,32.00000 L69.00000,32.51939 M3.26946,29.00000 L3.00000,28.22876 M29.00000,17.48445 L29.51512,17.00000 M44.00000,40.32452 L43.29727,40.00000 M61.00000,4.14313 L62.00000,4.68702 M23.00000,41.97492 L22.00000,42.00000 M43.48282,28.00000 L43.00000,28.52067 M65.21910,37.00000 L65.00000,37.19118 M2.92246,16.00000 L3.00000,15.77124 M34.00000,31.54053 L33.52893,31.00000 M47.00000,25.51249 L47.48779,25.00000 M20.00000,41.89927 L19.00000,41.77227 M42.48011,15.00000 L43.00000,15.47933 M66.00000,36.27245 L65.21910,37.00000 M2.02508,23.00000 L2.00000,22.00000 M71.77227,19.00000 L71.89927,20.00000 M49.00000,41.77227 L48.00000,41.59315 M34.53719,12.00000 L34.00000,11.45734 M59.00000,3.26946 L60.00000,3.67548 M28.00000,26.51388 L28.51517,27.00000 M41.48061,39.00000 L41.00000,38.69457 M45.48651,18.00000 L46.00000,18.48616 M2.22773,19.00000 L2.40685,18.00000 M33.52893,31.00000 L33.00000,30.53074 M60.00000,40.32452 L59.00000,40.73054 M27.00000,41.36148 L26.00000,41.59315 M41.47084,13.00000 L41.00000,12.46835 M64.00000,38.00000 L63.00000,38.69457 M15.77124,41.00000 L15.00000,40.73054 M33.00000,13.46926 L33.52893,13.00000 M47.00000,18.48751 L46.48647,18.00000 M41.00000,12.46835 L40.46218,12.00000 M53.00000,2.02508 L54.00000,2.10073 M27.00000,2.63852 L28.00000,2.92246 M31.00000,28.52067 L30.51718,28.00000 M71.97492,23.00000 L71.89927,24.00000 M44.00000,28.51788 L44.48276,28.00000 M14.00000,3.67548 L15.00000,3.26946 M32.00000,39.31298 L31.00000,39.85687 M39.46281,12.00000 L40.00000,12.45947 M54.00000,41.89927 L53.00000,41.97492 M26.00000,19.48865 L25.00000,19.48942 M31.51989,15.00000 L32.00000,14.47527 M46.00000,17.48612 L45.48483,17.00000 M11.00000,38.69457 L10.00000,38.00000 M25.00000,2.22773 L26.00000,2.40685 M37.00000,35.29904 L36.27245,36.00000 M68.00000,10.00000 L68.69456,11.00000 M26.00000,24.51135 L26.51221,25.00000 M30.51997,29.00000 L31.00000,29.52090 M50.00000,41.89927 L49.00000,41.77227 M7.00000,8.78090 L7.72755,8.00000 M23.51005,21.00000 L23.00000,21.49099 M36.00000,7.72754 L36.27246,8.00000 M51.49070,22.00000 L51.00000,21.49099 M5.30543,33.00000 L5.00000,32.51939 M30.00000,28.51788 L30.51997,29.00000 M44.00000,15.48212 L43.48003,15.00000 M22.50930,22.00000 L23.00000,22.50901 M43.29728,4.00000 L44.00000,3.67548 M64.00000,6.00000 L65.00000,6.80881 M4.68702,12.00000 L5.00000,11.48060 M29.00000,40.73054 L28.22876,41.00000 M48.48980,21.00000 L49.00000,21.48960 M18.00000,41.59315 L17.00000,41.36148 M43.48282,16.00000 L44.00000,16.48225 M69.00000,32.51939 L68.69456,33.00000 M3.00000,28.22876 L2.92246,28.00000 M34.00000,12.45947 L34.53719,12.00000 M49.00000,19.48942 L48.00000,19.48865 M58.00000,2.92246 L58.22876,3.00000 M20.00000,2.10073 L21.00000,2.02508 M43.00000,14.47910 L42.47629,14.00000 M46.48782,19.00000 L47.00000,19.48754 M2.02508,21.00000 L2.10073,20.00000 M33.00000,30.53074 L32.52359,30.00000 M28.22876,3.00000 L29.00000,3.26946 M42.47629,14.00000 L42.00000,13.47483 M62.51939,39.00000 L62.00000,39.31298 M14.00000,40.32452 L13.29727,40.00000 M71.59316,18.00000 L71.77227,19.00000 M48.00000,23.51134 L47.48890,24.00000 M32.52916,13.00000 L32.00000,13.47483 M40.46218,32.00000 L41.00000,31.53165 M51.00000,41.97492 L50.00000,41.89927 M28.00000,18.48616 L28.51349,18.00000 M41.47641,30.00000 L41.00000,30.53074 M71.77227,25.00000 L71.59316,26.00000 M45.48483,17.00000 L45.00000,16.48438 M13.00000,4.14313 L13.29728,4.00000 M32.00000,13.47483 L31.52371,14.00000 M59.00000,40.73054 L58.22876,41.00000 M41.00000,5.30543 L41.48061,5.00000 M27.00000,24.51246 L26.51110,24.00000 M31.00000,15.47933 L31.51989,15.00000 M45.48651,26.00000 L45.00000,26.51555 M9.00000,37.19118 L8.78090,37.00000 M32.00000,30.52517 L32.52916,31.00000 M40.00000,11.45734 L39.46281,12.00000 M70.32452,14.00000 L70.73055,15.00000 M26.00000,2.40685 L27.00000,2.63852 M30.00000,40.32452 L29.00000,40.73054 M71.07755,28.00000 L71.00000,28.22877 M49.49057,22.00000 L49.00000,22.51040 M11.00000,5.30543 L11.48060,5.00000 M25.00000,22.51040 L24.50943,22.00000 M39.00000,6.80882 L40.00000,6.00000 M51.00000,2.02508 L52.00000,2.00000 M4.68702,32.00000 L4.14313,31.00000 M30.00000,3.67548 L30.70272,4.00000 M45.00000,26.51555 L44.48488,27.00000 M7.72755,8.00000 L8.00000,7.72755 M24.51090,20.00000 L24.00000,20.49027 M36.27246,8.00000 L37.00000,8.70096 M67.19118,9.00000 L68.00000,10.00000 M4.00000,13.29728 L4.14313,13.00000 M29.00000,16.48438 L28.51517,17.00000 M48.00000,20.48866 L48.48980,21.00000 M23.00000,22.50901 L23.51005,23.00000 M43.29727,40.00000 L43.00000,39.85688 M68.00000,34.00000 L67.19118,35.00000 M2.63852,27.00000 L2.40685,26.00000 M29.00000,27.51562 L29.51724,28.00000 M50.48995,21.00000 L50.00000,20.49027 M62.00000,4.68702 L62.51939,5.00000 M18.00000,2.40685 L19.00000,2.22773 M42.47629,30.00000 L43.00000,29.52090 M46.00000,26.51388 L46.48647,26.00000 M3.00000,15.77124 L3.26946,15.00000 M34.00000,38.00000 L33.00000,38.69457 M47.48779,19.00000 L47.00000,18.48751 M28.00000,25.51384 L27.51218,25.00000 M42.00000,14.47527 L42.48011,15.00000 M66.27245,36.00000 L66.00000,36.27245 M2.10073,24.00000 L2.02508,23.00000 M71.07755,16.00000 L71.36148,17.00000 M47.48890,24.00000 L47.00000,24.51246 M34.00000,6.00000 L35.00000,6.80882 M57.00000,2.63852 L58.00000,2.92246 M27.51353,18.00000 L27.00000,18.48751 M41.00000,38.69457 L40.00000,38.00000 M45.00000,17.48445 L45.48651,18.00000 M17.00000,2.63852 L18.00000,2.40685 M33.00000,12.46835 L32.52916,13.00000 M40.46218,12.00000 L40.00000,11.45734 M58.00000,41.07754 L57.00000,41.36148 M26.51221,25.00000 L27.00000,25.51249 M41.47641,14.00000 L42.00000,14.47527 M46.48782,25.00000 L46.00000,25.51384 M13.29728,4.00000 L14.00000,3.67548 M32.00000,4.68702 L32.51939,5.00000 M39.00000,37.19118 L38.78090,37.00000 M69.85686,13.00000 L70.00000,13.29728 M27.00000,19.48754 L27.51218,19.00000 M31.00000,39.85687 L30.70272,40.00000 M70.73055,29.00000 L70.32452,30.00000 M44.48276,16.00000 L44.00000,15.48212 M9.00000,6.80882 L10.00000,6.00000 M24.51090,24.00000 L25.00000,24.51058 M38.00000,7.72754 L38.78090,7.00000 M55.00000,41.77227 L54.00000,41.89927 M26.00000,23.51134 L25.51020,23.00000 M31.00000,4.14313 L32.00000,4.68702 M44.48488,27.00000 L44.00000,27.51775 M6.80882,9.00000 L7.00000,8.78090 M24.00000,20.49027 L23.51005,21.00000 M35.21910,37.00000 L35.00000,37.19118 M66.27245,8.00000 L67.00000,8.78090 M6.80882,35.00000 L6.00000,34.00000 M30.00000,27.51775 L29.51512,27.00000 M49.48910,20.00000 L49.00000,19.48942 M22.00000,42.00000 L21.00000,41.97492 M36.27245,36.00000 L36.00000,36.27245 M70.32452,30.00000 L70.00000,30.70272 M4.14313,31.00000 L4.00000,30.70272 M29.00000,3.26946 L30.00000,3.67548 M50.00000,2.10073 L51.00000,2.02508 M60.70272,4.00000 L61.00000,4.14313 M23.00000,21.49099 L22.50930,22.00000 M43.48003,29.00000 L44.00000,28.51788 M65.00000,6.80881 L65.21911,7.00000 M2.63852,17.00000 L2.92246,16.00000 M34.00000,11.45734 L33.53782,12.00000 M47.00000,19.48754 L47.48890,20.00000 M19.00000,41.77227 L18.00000,41.59315 M43.00000,29.52090 L43.48003,29.00000 M65.21911,7.00000 L66.00000,7.72755 M2.00000,22.00000 L2.02508,21.00000 M72.00000,22.00000 L71.97492,23.00000 M49.00000,22.51040 L48.48980,23.00000 M33.52893,13.00000 L34.00000,12.45947 M55.00000,2.22773 L56.00000,2.40685 M28.51517,17.00000 L28.00000,17.48612 M42.00000,39.31298 L41.48061,39.00000 M46.00000,18.48616 L46.48782,19.00000 M15.77124,3.00000 L16.00000,2.92246 M32.52359,30.00000 L32.00000,29.52473 "/>

<script>
let svgs = document.children[0];
let paths = Array.from(svgs.children).filter(function(c) {
    var orig = c.style.stroke;
    c.onmouseover = function() {
        c.style.stroke = "rgb(0, 0, 255)";
    };
    c.onmouseout = function () {
        c.style.stroke = orig;
    };
    c.onclick = function () {
        svgs.removeChild()
    }
});

for (let path of paths) {
    console.log(path);
}
</script></svg>