<svg xmlns="http://www.w3.org/2000/svg">
    <path fill-rule="evenodd" style="fill: none; stroke: rgb(0, 0, 0); stroke-width: 0.2;" d="M2.00,22.00 L2.05,21.00 M2.05,23.00 L2.00,22.00 M2.05,21.00 L2.10,20.00 M2.10,20.00 L2.25,19.00 M2.10,24.00 L2.05,23.00 M2.25,19.00 L2.41,18.00 M2.25,25.00 L2.10,24.00 M2.41,26.00 L2.25,25.00 M2.41,18.00 L2.69,17.00 M2.66,27.00 L2.41,26.00 M2.69,17.00 L2.98,16.00 M2.92,28.00 L2.66,27.00 M2.98,16.00 L3.00,15.93 M3.00,15.93 L3.28,15.00 M3.00,28.21 L2.92,28.00 M3.28,15.00 L3.70,14.00 M3.30,29.00 L3.00,28.21 M3.68,30.00 L3.30,29.00 M3.70,14.00 L4.00,13.32 M4.00,13.32 L4.15,13.00 M4.00,30.65 L3.68,30.00 M4.15,13.00 L4.72,12.00 M4.18,31.00 L4.00,30.65 M4.70,32.00 L4.18,31.00 M4.72,12.00 L5.00,11.52 M5.00,11.52 L5.32,11.00 M5.00,32.45 L4.70,32.00 M5.32,11.00 L6.00,10.08 M5.39,33.00 L5.00,32.45 M6.00,10.08 L6.06,10.00 M6.00,33.86 L5.39,33.00 M6.06,10.00 L6.83,9.00 M6.10,34.00 L6.00,33.86 M6.82,35.00 L6.10,34.00 M6.83,9.00 L7.00,8.80 M7.00,8.80 L7.79,8.00 M7.00,35.20 L6.82,35.00 M7.79,8.00 L8.00,7.79 M7.79,36.00 L7.00,35.20 M8.00,7.79 L8.80,7.00 M8.00,36.21 L7.79,36.00 M8.80,7.00 L9.00,6.82 M8.80,37.00 L8.00,36.21 M9.00,6.82 L10.00,6.10 M9.00,37.17 L8.80,37.00 M10.00,6.10 L10.14,6.00 M10.00,37.94 L9.00,37.17 M10.08,38.00 L10.00,37.94 M10.14,6.00 L11.00,5.39 M11.00,5.39 L11.55,5.00 M11.00,38.68 L10.08,38.00 M11.52,39.00 L11.00,38.68 M11.55,5.00 L12.00,4.70 M12.00,4.70 L13.00,4.18 M12.00,39.28 L11.52,39.00 M13.00,4.18 L13.35,4.00 M13.00,39.85 L12.00,39.28 M13.32,40.00 L13.00,39.85 M13.35,4.00 L14.00,3.68 M14.00,3.68 L15.00,3.30 M14.00,40.30 L13.32,40.00 M15.00,3.30 L15.79,3.00 M15.00,40.72 L14.00,40.30 M15.79,3.00 L16.00,2.92 M15.93,41.00 L15.00,40.72 M16.00,2.92 L17.00,2.66 M16.00,41.02 L15.93,41.00 M17.00,2.66 L18.00,2.41 M17.00,41.31 L16.00,41.02 M18.00,2.41 L19.00,2.25 M18.00,41.59 L17.00,41.31 M19.00,2.25 L20.00,2.10 M19.00,41.75 L18.00,41.59 M20.00,2.10 L21.00,2.05 M20.00,41.90 L19.00,41.75 M21.00,2.05 L22.00,2.00 M21.00,41.95 L20.00,41.90 M22.00,2.00 L23.00,2.05 M22.00,42.00 L21.00,41.95 M23.00,2.05 L24.00,2.10 M23.00,41.95 L22.00,42.00 M24.00,2.10 L25.00,2.25 M24.00,41.90 L23.00,41.95 M25.00,2.25 L26.00,2.41 M25.00,41.75 L24.00,41.90 M26.00,2.41 L27.00,2.69 M26.00,41.59 L25.00,41.75 M27.00,2.69 L28.00,2.98 M27.00,41.34 L26.00,41.59 M28.00,2.98 L28.07,3.00 M28.00,41.08 L27.00,41.34 M28.07,3.00 L29.00,3.28 M28.21,41.00 L28.00,41.08 M29.00,3.28 L30.00,3.70 M29.00,40.70 L28.21,41.00 M30.00,3.70 L30.68,4.00 M30.00,40.32 L29.00,40.70 M30.65,40.00 L30.00,40.32 M30.68,4.00 L31.00,4.15 M31.00,4.15 L32.00,4.72 M31.00,39.82 L30.65,40.00 M32.00,4.72 L32.48,5.00 M32.00,39.30 L31.00,39.82 M32.45,39.00 L32.00,39.30 M32.48,5.00 L33.00,5.32 M33.00,5.32 L33.92,6.00 M33.00,38.61 L32.45,39.00 M33.86,38.00 L33.00,38.61 M33.92,6.00 L34.00,6.06 M34.00,6.06 L35.00,6.83 M34.00,37.90 L33.86,38.00 M35.00,6.83 L35.20,7.00 M35.00,37.18 L34.00,37.90 M35.20,37.00 L35.00,37.18 M35.20,7.00 L36.00,7.77 M36.00,7.77 L36.23,8.00 M36.00,36.21 L35.20,37.00 M36.22,36.00 L36.00,36.21 M36.23,8.00 L37.00,8.71 M37.00,8.71 L37.78,8.00 M37.00,35.29 L36.22,36.00 M37.77,36.00 L37.00,35.29 M37.78,8.00 L38.00,7.79 M38.00,7.79 L38.80,7.00 M38.00,36.23 L37.77,36.00 M38.80,37.00 L38.00,36.23 M38.80,7.00 L39.00,6.82 M39.00,6.82 L40.00,6.10 M39.00,37.17 L38.80,37.00 M40.00,6.10 L40.14,6.00 M40.00,37.94 L39.00,37.17 M40.08,38.00 L40.00,37.94 M40.14,6.00 L41.00,5.39 M41.00,5.39 L41.55,5.00 M41.00,38.68 L40.08,38.00 M41.52,39.00 L41.00,38.68 M41.55,5.00 L42.00,4.70 M42.00,4.70 L43.00,4.18 M42.00,39.28 L41.52,39.00 M43.00,4.18 L43.35,4.00 M43.00,39.85 L42.00,39.28 M43.32,40.00 L43.00,39.85 M43.35,4.00 L44.00,3.68 M44.00,3.68 L45.00,3.29 M44.00,40.30 L43.32,40.00 M45.00,3.29 L45.82,3.00 M45.00,40.72 L44.00,40.30 M45.82,3.00 L46.00,2.94 M45.93,41.00 L45.00,40.72 M46.00,2.94 L47.00,2.67 M46.00,41.02 L45.93,41.00 M47.00,2.67 L48.00,2.41 M47.00,41.31 L46.00,41.02 M48.00,2.41 L49.00,2.25 M48.00,41.59 L47.00,41.31 M49.00,2.25 L50.00,2.10 M49.00,41.75 L48.00,41.59 M50.00,2.10 L51.00,2.05 M50.00,41.90 L49.00,41.75 M51.00,2.05 L52.00,2.00 M51.00,41.95 L50.00,41.90 M52.00,2.00 L53.00,2.05 M52.00,42.00 L51.00,41.95 M53.00,2.05 L54.00,2.10 M53.00,41.95 L52.00,42.00 M54.00,2.10 L55.00,2.25 M54.00,41.90 L53.00,41.95 M55.00,2.25 L56.00,2.41 M55.00,41.75 L54.00,41.90 M56.00,2.41 L57.00,2.69 M56.00,41.59 L55.00,41.75 M57.00,2.69 L58.00,2.98 M57.00,41.34 L56.00,41.59 M58.00,2.98 L58.07,3.00 M58.00,41.08 L57.00,41.34 M58.07,3.00 L59.00,3.28 M58.21,41.00 L58.00,41.08 M59.00,3.28 L60.00,3.70 M59.00,40.70 L58.21,41.00 M60.00,3.70 L60.68,4.00 M60.00,40.32 L59.00,40.70 M60.65,40.00 L60.00,40.32 M60.68,4.00 L61.00,4.15 M61.00,4.15 L62.00,4.72 M61.00,39.82 L60.65,40.00 M62.00,4.72 L62.48,5.00 M62.00,39.30 L61.00,39.82 M62.45,39.00 L62.00,39.30 M62.48,5.00 L63.00,5.32 M63.00,5.32 L63.92,6.00 M63.00,38.61 L62.45,39.00 M63.86,38.00 L63.00,38.61 M63.92,6.00 L64.00,6.06 M64.00,6.06 L65.00,6.83 M64.00,37.90 L63.86,38.00 M65.00,6.83 L65.20,7.00 M65.00,37.18 L64.00,37.90 M65.20,7.00 L66.00,7.79 M65.20,37.00 L65.00,37.18 M66.00,7.79 L66.21,8.00 M66.00,36.21 L65.20,37.00 M66.21,8.00 L67.00,8.80 M66.21,36.00 L66.00,36.21 M67.00,8.80 L67.18,9.00 M67.00,35.20 L66.21,36.00 M67.17,35.00 L67.00,35.20 M67.18,9.00 L67.90,10.00 M67.90,10.00 L68.00,10.14 M67.94,34.00 L67.17,35.00 M68.00,10.14 L68.61,11.00 M68.00,33.92 L67.94,34.00 M68.61,11.00 L69.00,11.55 M68.68,33.00 L68.00,33.92 M69.00,11.55 L69.30,12.00 M69.00,32.48 L68.68,33.00 M69.28,32.00 L69.00,32.48 M69.30,12.00 L69.82,13.00 M69.82,13.00 L70.00,13.35 M69.85,31.00 L69.28,32.00 M70.00,13.35 L70.32,14.00 M70.00,30.68 L69.85,31.00 M70.30,30.00 L70.00,30.68 M70.32,14.00 L70.70,15.00 M70.70,15.00 L71.00,15.79 M70.72,29.00 L70.30,30.00 M71.00,15.79 L71.08,16.00 M71.00,28.07 L70.72,29.00 M71.02,28.00 L71.00,28.07 M71.08,16.00 L71.34,17.00 M71.31,27.00 L71.02,28.00 M71.34,17.00 L71.59,18.00 M71.59,26.00 L71.31,27.00 M71.59,18.00 L71.75,19.00 M71.75,19.00 L71.90,20.00 M71.75,25.00 L71.59,26.00 M71.90,20.00 L71.95,21.00 M71.90,24.00 L71.75,25.00 M71.95,21.00 L72.00,22.00 M71.95,23.00 L71.90,24.00 M72.00,22.00 L71.95,23.00 "/>

<script>
let svgs = document.children[0];
let paths = Array.from(svgs.children).filter(function(c) {
    var orig = c.style.stroke;
    c.onmouseover = function() {
        c.style.stroke = "rgb(0, 0, 255)";
    };
    c.onmouseout = function () {
        c.style.stroke = orig;
    };
    c.onclick = function () {
        svgs.removeChild();
    }
});

for (let path of paths) {
    console.log(path);
}
</script></svg>