<svg xmlns="http://www.w3.org/2000/svg">
<path d="M231,143 L231.33333,144 L231.66667,145 L232,146 L232,146 L232.33333,147 L232.66667,148 L233,149 L233,149 L233.33333,150 L233.66667,151 L234,152 L234,152 L234.33333,153 L234.66667,154 L235,155 L235,155 L235.33333,156 L235.66667,157 L236,158 L236,158 L236.33333,159 L236.66667,160 L237,161 L237,161 L237.33333,162 L237.66667,163 L238,164 L238,164 L238.33333,165 L238.66667,166 L239,167 L239,167 L239.33333,168 L239.66667,169 L240,170 L240,170 L240.33333,171 L240.66667,172 L241,173 L241,173 L241.33333,174 L241.66666,175 L242,176 L242,176 L242.33333,177 L242.66667,178 L243,179 L243,179 L243.33333,180 L243.66667,181 L244,182 L244,182 L244.33333,183 L244.66666,184 L245,185 L245,185 L245.33333,186 L245.66667,187 L246,188 L246,188 L246.33333,189 L246.66667,190 L247,191 L247,191 L247.33333,192 L247.66666,193 L248,194 L248,194 L248.33333,195 L248.66667,196 L249,197 L249.33333,198 L249,199 L248,198 L247,197 L246,196 L245,195 L244,194 L243,193 L242,192 L241,191 L240,190 L239,189 L238,188 L237,187 L236,186 L235,185 L234,184 L233,183 L232,182 L231,181 L230,180 L229,179 L228,178 L227,177 L226,176 L225,175 L224,174 L223,173 L222,172 L221,171 L220,170 L219,169 L218,168 L217,167 L216,166 L215,165 L214,164 L213,163 L212,162 L211,161 L210,160 L209,159 L208,158 L207,157 L206,156 L205,155 L204,154 L203,153 L202,152 L201,151 L200,150 L199,149 L198,148 L197,147 L196,146 L195,145 L194,144 L193,143 L192,142 L191,141 L190,140 L189,139 L188,138 L187,137 L186,136 L185,135 L184,134 L183,133 L182,132 L181,131 L180,130 L179,129 L178,128 L177,127 L176,126 L175,125.00001 L174.99998,125 L174,124.00001 L173.99998,124 L173,123.00001 L172.99998,123 L172,122 L171,121 L170,120 L169,119.00001 L168.99998,119 L168,118.00001 L167.99998,118 L167,117.00001 L166.99998,117 L166,116 L165,115 L164,114 L163,113.00001 L162.99998,113 L162,112.00001 L161.99998,112 L161,111.00001 L160.99998,111 L160,110 L159,109 L158,108 L157,107.00001 L156.99998,107 L156,106.00001 L155.99998,106 L155,105.00001 L154.99998,105 L154,104 L153,103 L152,102 L151,101.00001 L150.99998,101 L150,100 L149,99.5 L148,99 L147,98.5 L146,98 L145,97.5 L144,97 L143,96.5 L142,96 L141,95.5 L140,95 L139,94.5 L138,94 L137,93.5 L136,93 L135,92.5 L134,92 L133,91.5 L132,91 L131,90.5 L130,90 L129,89.5 L128,89 L127,88.5 L126,88 L125,87.5 L124,87 L123,86.5 L122,86 L121,85.5 L120,85 L119,84.5 L118,84 L117,83.5 L116,83 L115,82.5 L114,82 L113,81.5 L112,81 L111,80.5 L110,80 L109,79.5 L108,79 L107,78.5 L106,78 L105,77.5 L104,77 L103,76.5 L102,76 L101,75.5 L100,75 L99,74.5 L98,74 L97,73.5 L96,73 L95,72.5 L94,72 L93,71.5 L92,71 L91,70.5 L90,70 L89,69.5 L88,69 L87,68.5 L86,68 L85,67.5 L84,67 L83,66.5 L82,66 L81,65.5 L80,65 L79,64.5 L78,64 L77,63.5 L76,63 L75,62.5 L74,62 L73,61.5 L72,61 L71,60.5 L70,60.000008 L69.999985,60 L69,59.5 L68,59 L67,58.5 L66,58 L65,57.5 L64,57.000008 L63.99998,57 L63,56.5 L62,56 L61,55.5 L60,55.000004 L59.999992,55 L59,54.5 L58,54.000008 L57.99999,54 L57,53.5 L56,53 L55,52.5 L54,52.000004 L53.999992,52 L53,51.5 L52,51.000008 L51.99999,51 L52,50 L53,50 L54,50 L55,50 L56,50 L57,50 L58,50 L59,50 L60,50 L61,50 L62,50 L63,50 L64,50 L65,50 L66,50 L67,50 L68,50 L69,50 L70,50 L71,50 L72,50 L73,50 L74,50 L75,50 L76,50 L77,50 L78,50 L79,50 L80,50 L81,50 L82,50 L83,50 L84,50 L85,50 L86,50 L87,50 L88,50 L89,50 L90,50 L91,50 L92,50 L93,50 L94,50 L95,50 L96,50 L97,50 L98,50 L99,50 L100,50 L101,50 L102,50 L103,50 L104,50 L105,50 L106,50 L107,50 L108,50 L109,50 L110,50 L111,50 L112,50 L113,50 L114,50 L115,50 L116,50 L117,50 L118,50 L119,50 L120,50 L121,50 L122,50 L123,50 L124,50 L125,50 L126,50 L127,50 L128,50 L129,50 L130,50 L131,50 L132,50 L133,50 L134,50 L135,50 L136,50 L137,50 L138,50 L139,50 L140,50 L141,50 L142,50 L143,50 L144,50 L145,50 L146,50 L147,50 L148,50 L149,50 L150,50 L151,50 L152,50 L153,50 L154,50 L155,50 L156,50 L157,50 L158,50 L159,50 L160,50 L161,50 L162,50 L163,50 L164,50 L165,50 L166,50 L167,50 L168,50 L169,50 L170,50 L171,50 L172,50 L173,50 L174,50 L175,50 L176,50 L177,50 L178,50 L179,50 L180,50 L181,50 L182,50 L183,50 L184,50 L185,50 L186,50 L187,50 L188,50 L189,50 L190,50 L191,50 L192,50 L193,50 L194,50 L195,50 L196,50 L197,50 L198,50 L199,50 L200,50 L200.33333,51 L200.66667,52 L201,53 L201,53 L201.33333,54 L201.66667,55 L202,56 L202,56 L202.33333,57 L202.66667,58 L203,59 L203,59 L203.33333,60 L203.66667,61 L204,62 L204,62 L204.33333,63 L204.66667,64 L205,65 L205,65 L205.33333,66 L205.66667,67 L206,68 L206,68 L206.33333,69 L206.66667,70 L207,71 L207,71 L207.33333,72 L207.66667,73 L208,74 L208,74 L208.33333,75 L208.66667,76 L209,77 L209,77 L209.33333,78 L209.66667,79 L210,80 L210,80 L210.33333,81 L210.66667,82 L211,83 L211,83 L211.33333,84 L211.66667,85 L212,86 L212,86 L212.33333,87 L212.66667,88 L213,89 L213,89 L213.33333,90 L213.66667,91 L214,92 L214,92 L214.33333,93 L214.66667,94 L215,95 L215,95 L215.33333,96 L215.66667,97 L216,98 L216,98 L216.33333,99 L216.66667,100 L217,101 L217,101 L217.33333,102 L217.66667,103 L218,104 L218,104 L218.33333,105 L218.66667,106 L219,107 L219,107 L219.33333,108 L219.66667,109 L220,110 L220,110 L220.33333,111 L220.66667,112 L221,113 L221,113 L221.33333,114 L221.66667,115 L222,116 L222,116 L222.33333,117 L222.66667,118 L223,119 L223,119 L223.33333,120 L223.66667,121 L224,122 L224,122 L224.33333,123 L224.66667,124 L225,125 L225,125 L225.33333,126 L225.66666,127 L226,128 L226,128 L226.33333,129 L226.66667,130 L227,131 L227,131 L227.33333,132 L227.66667,133 L228,134 L228,134 L228.33333,135 L228.66666,136 L229,137 L229,137 L229.33333,138 L229.66667,139 L230,140 L230,140 L230.33333,141 L230.66667,142 L231,143" fill="none" stroke="black" stroke-width="3"/>
</svg>