<svg xmlns="http://www.w3.org/2000/svg">
    <path fill-rule="evenodd" style="fill: rgb(0, 0, 0); stroke: none; stroke-width: none;" d="M15.00000,2.00000 L14.00000,2.00000 L13.00000,2.00000 L12.00000,2.00000 L11.00000,2.00000 L10.00000,2.00000 L9.00000,2.00000 L8.00000,2.00000 L7.00000,2.00000 L6.00000,2.00000 L5.00000,2.00000 L4.00000,2.00000 L3.00000,2.00000 L2.00000,2.00000 L2.00000,3.00000 L2.00000,4.00000 L2.00000,5.00000 L2.00000,6.00000 L2.00000,7.00000 L2.00000,8.00000 L2.00000,9.00000 L2.00000,10.00000 L2.00000,11.00000 L2.00000,12.00000 L2.00000,13.00000 L2.00000,14.00000 L2.00000,15.00000 L2.00000,16.00000 L2.00000,17.00000 L2.00000,18.00000 L2.00000,19.00000 L2.00000,20.00000 L2.00000,21.00000 L2.00000,22.00000 L2.00000,23.00000 L2.00000,24.00000 L2.00000,25.00000 L2.00000,26.00000 L2.00000,27.00000 L2.00000,28.00000 L2.00000,29.00000 L2.00000,30.00000 L2.00000,31.00000 L2.00000,32.00000 L2.00000,33.00000 L2.00000,34.00000 L2.00000,35.00000 L2.00000,36.00000 L2.00000,37.00000 L2.00000,38.00000 L2.00000,39.00000 L2.00000,40.00000 L2.00000,41.00000 L2.00000,42.00000 L2.00000,43.00000 L2.00000,44.00000 L2.00000,45.00000 L2.00000,46.00000 L2.00000,47.00000 L2.00000,48.00000 L2.00000,49.00000 L2.00000,50.00000 L2.00000,51.00000 L2.00000,52.00000 L2.00000,53.00000 L2.00000,54.00000 L2.00000,55.00000 L2.00000,56.00000 L2.00000,57.00000 L2.00000,58.00000 L2.00000,59.00000 L2.00000,60.00000 L2.00000,61.00000 L2.00000,62.00000 L2.00000,63.00000 L2.00000,64.00000 L2.00000,65.00000 L2.00000,66.00000 L2.00000,67.00000 L2.00000,68.00000 L2.00000,69.00000 L2.00000,70.00000 L2.00000,71.00000 L2.00000,72.00000 L2.00000,73.00000 L2.00000,74.00000 L2.00000,75.00000 L2.00000,76.00000 L2.00000,77.00000 L2.00000,78.00000 L2.00000,79.00000 L2.00000,80.00000 L2.00000,81.00000 L2.00000,82.00000 L2.00000,83.00000 L2.00000,84.00000 L2.00000,85.00000 L2.00000,86.00000 L2.00000,87.00000 L2.00000,88.00000 L2.00000,89.00000 L2.00000,90.00000 L2.00000,91.00000 L2.00000,92.00000 L3.00000,92.00000 L4.00000,92.00000 L5.00000,92.00000 L6.00000,92.00000 L7.00000,92.00000 L8.00000,92.00000 L9.00000,92.00000 L10.00000,92.00000 L11.00000,92.00000 L12.00000,92.00000 L13.00000,92.00000 L14.00000,92.00000 L15.00000,92.00000 L16.00000,92.00000 L17.00000,92.00000 L18.00000,92.00000 L19.00000,92.00000 L20.00000,92.00000 L21.00000,92.00000 L22.00000,92.00000 L23.00000,92.00000 L24.00000,92.00000 L25.00000,92.00000 L26.00000,92.00000 L27.00000,92.00000 L28.00000,92.00000 L29.00000,92.00000 L30.00000,92.00000 L31.00000,92.00000 L32.00000,92.00000 L32.00000,91.00000 L32.00000,90.00000 L32.00000,89.00000 L32.00000,88.00000 L32.00000,87.00000 L32.00000,86.00000 L32.00000,85.00000 L32.00000,84.00000 L32.00000,83.00000 L32.00000,82.00000 L32.00000,81.00000 L32.00000,80.00000 L32.00000,79.00000 L32.00000,78.00000 L32.00000,77.00000 L32.00000,76.00000 L32.00000,75.00000 L32.00000,74.00000 L32.00000,73.00000 L32.00000,72.00000 L32.00000,71.00000 L32.00000,70.00000 L32.00000,69.00000 L32.00000,68.00000 L32.00000,67.00000 L32.00000,66.00000 L32.00000,65.00000 L32.00000,64.00000 L32.00000,63.00000 L32.00000,62.00000 L32.00000,61.00000 L32.00000,60.00000 L32.00000,59.00000 L32.00000,58.00000 L32.00000,57.00000 L32.00000,56.00000 L32.00000,55.00000 L32.00000,54.00000 L32.00000,53.00000 L32.00000,52.00000 L32.00000,51.00000 L32.00000,50.00000 L32.00000,49.00000 L32.00000,48.00000 L32.00000,47.00000 L32.00000,46.00000 L32.00000,45.00000 L32.00000,44.00000 L32.00000,43.00000 L32.00000,42.00000 L32.00000,41.00000 L32.00000,40.00000 L32.00000,39.00000 L32.00000,38.00000 L32.00000,37.00000 L32.00000,36.00000 L32.00000,35.00000 L32.00000,34.00000 L32.00000,33.00000 L32.00000,32.00000 L32.00000,31.00000 L32.00000,30.00000 L32.00000,29.00000 L32.00000,28.00000 L32.00000,27.00000 L32.00000,26.00000 L32.00000,25.00000 L32.00000,24.00000 L32.00000,23.00000 L32.00000,22.00000 L32.00000,21.00000 L32.00000,20.00000 L32.00000,19.00000 L32.00000,18.00000 L32.00000,17.00000 L32.00000,16.00000 L32.00000,15.00000 L32.00000,14.00000 L32.00000,13.00000 L32.00000,12.00000 L32.00000,11.00000 L32.00000,10.00000 L32.00000,9.00000 L32.00000,8.00000 L32.00000,7.00000 L32.00000,6.00000 L32.00000,5.00000 L32.00000,4.00000 L32.00000,3.00000 L32.00000,2.00000 L31.00000,2.00000 L30.00000,2.00000 L29.00000,2.00000 L28.00000,2.00000 L27.00000,2.00000 L26.00000,2.00000 L25.00000,2.00000 L24.00000,2.00000 L23.00000,2.00000 L22.00000,2.00000 L21.00000,2.00000 L20.00000,2.00000 L19.00000,2.00000 L18.00000,2.00000 L17.00000,2.00000 L16.00000,2.00000 L15.00000,2.00000 "/>

<script>
let svgs = document.children[0];
let paths = Array.from(svgs.children).filter(function(c) {
    var orig = c.style.stroke;
    c.onmouseover = function() {
        c.style.stroke = "rgb(0, 0, 255)";
    };
    c.onmouseout = function () {
        c.style.stroke = orig;
    };
    c.onclick = function () {
        svgs.removeChild()
    }
});

for (let path of paths) {
    console.log(path);
}
</script></svg>