<svg xmlns="http://www.w3.org/2000/svg">
<path d="M70,95.8255 L74,93.863106 L79,90.73 L84,86.65918 L88.41745,82 L91.423706,78 L94.39538,73 L96.64729,68 L98.28029,63 L99.35579,58 L99.90991,53 L99.959984,48 L99.50752,43 L98.5385,38 L97,32.94267 L94.89969,28 L92.70766,24 L90,20 L85.70571,15 L81,10.770768 L77,7.917009 L73,5.6046224 L68,3.3527036 L63,1.7197093 L58,0.64420795 L53,0.090085 L48,0.04001817 L43,0.49247387 L38,1.4615042 L32.94267,3 L28,5.10031 L24,7.292346 L20,10 L15,14.294291 L10.770768,19 L7.917009,23 L5.6046224,27 L3.3527036,32 L1.7197094,37 L0.64420795,42 L0.09008503,47 L0.04001814,52 L0.49247378,57 L1.4615043,62 L3,67.057335 L5.10031,72 L7.292346,76 L10,80 L14.294291,85 L19,89.22923 L23,92.08299 L27,94.39538 L32,96.64729 L37,98.28029 L42,99.35579 L47,99.90991 L52,99.959984 L57,99.50752 L62,98.5385 L67.057335,97 L69.59069,96 L70,95.8255" fill="none" stroke="black" stroke-width="3"/>
</svg>