<svg xmlns="http://www.w3.org/2000/svg">
    <path fill-rule="evenodd" d="M70,95.82550048828125 L74,93.86310577392578 L79,90.7300033569336 L84,86.6591796875 L88.41744995117188,82 L91.4237060546875,78 L94.39537811279297,73 L96.64729309082031,68 L98.28028869628906,63 L99.35578918457031,58 L99.909912109375,53 L99.9599838256836,48 L99.50752258300781,43 L98.53849792480469,38 L97,32.94266891479492 L94.89968872070313,28 L92.70765686035156,24 L90,20 L85.7057113647461,15 L81,10.770768165588379 L77,7.917008876800537 L73,5.6046223640441895 L68,3.35270357131958 L63,1.7197092771530151 L58,0.6442079544067383 L53,0.0900849997997284 L48,0.040018171072006226 L43,0.49247387051582336 L38,1.4615042209625244 L32.94266891479492,3 L28,5.1003098487854 L24,7.292346000671387 L20,10 L15,14.294290542602539 L10.770768165588379,19 L7.917008876800537,23 L5.6046223640441895,27 L3.35270357131958,32 L1.7197093963623047,37 L0.6442079544067383,42 L0.09008502960205078,47 L0.04001814126968384,52 L0.4924737811088562,57 L1.461504340171814,62 L3,67.05733489990234 L5.1003098487854,72 L7.292346000671387,76 L10,80 L14.294290542602539,85 L19,89.22923278808594 L23,92.08299255371094 L27,94.39537811279297 L32,96.64729309082031 L37,98.28028869628906 L42,99.35578918457031 L47,99.909912109375 L52,99.9599838256836 L57,99.50752258300781 L62,98.53849792480469 L67.05733489990234,97 L69.59069061279297,96 L70,95.82550048828125 "/>
</svg>