<svg xmlns="http://www.w3.org/2000/svg">
<path d="M70,95.8255 L71,95.37575 L71.79141,95 L72,94.89969 L73,94.39538 L73.745575,94 L74,93.863106 L75,93.30067 L75.51108,93 L76,92.70766 L77,92.08299 L77.127884,92 L78,91.423706 L78.61539,91 L79,90.73 L80,90 L81,89.22923 L81.286995,89 L82,88.41745 L82.493935,88 L83,87.56185 L83.62843,87 L84,86.65918 L84.69712,86 L85,85.70571 L85.70571,85 L86,84.69712 L86.65918,84 L87,83.62843 L87.56185,83 L88,82.493935 L88.41745,82 L89,81.286995 L89.22923,81 L90,80 L90.73,79 L91,78.61539 L91.423706,78 L92,77.127884 L92.08299,77 L92.70766,76 L93,75.51108 L93.30067,75 L93.863106,74 L94,73.745575 L94.39538,73 L94.89969,72 L95,71.79141 L95.37575,71 L95.8255,70 L96,69.59069 L96.24903,69 L96.64729,68 L97,67.057335 L97.02125,67 L97.37063,66 L97.69676,65 L98,64 L98.28029,63 L98.5385,62 L98.77491,61 L98.98979,60 L99,59.947468 L99.18328,59 L99.35579,58 L99.50752,57 L99.638664,56 L99.74935,55 L99.83974,54 L99.90991,53 L99.959984,52 L99.99,51 L100,50 L99.99,49 L99.959984,48 L99.90991,47 L99.83974,46 L99.74935,45 L99.638664,44 L99.50752,43 L99.35579,42 L99.18328,41 L99,40.052532 L98.98979,40 L98.77491,39 L98.5385,38 L98.28029,37 L98,36 L97.69676,35 L97.37063,34 L97.02125,33 L97,32.94267 L96.64729,32 L96.24903,31 L96,30.409313 L95.8255,30 L95.37575,29 L95,28.208591 L94.89969,28 L94.39538,27 L94,26.254425 L93.863106,26 L93.30067,25 L93,24.48892 L92.70766,24 L92.08299,23 L92,22.872118 L91.423706,22 L91,21.384611 L90.73,21 L90,20 L89.22923,19 L89,18.713005 L88.41745,18 L88,17.50607 L87.56185,17 L87,16.371565 L86.65918,16 L86,15.302882 L85.70571,15 L85,14.294291 L84.69712,14 L84,13.340818 L83.62843,13 L83,12.43815 L82.493935,12 L82,11.582549 L81.286995,11 L81,10.770768 L80,10 L79,9.269996 L78.61539,9 L78,8.576291 L77.127884,8 L77,7.917009 L76,7.292346 L75.51108,7 L75,6.6993313 L74,6.1368914 L73.745575,6 L73,5.6046224 L72,5.10031 L71.79141,5 L71,4.624249 L70,4.174497 L69.59069,4 L69,3.7509663 L68,3.3527036 L67.057335,3 L67,2.978753 L66,2.6293736 L65,2.3032396 L64,2 L63,1.7197093 L62,1.4615042 L61,1.2250929 L60,1.0102086 L59.947468,1 L59,0.8167187 L58,0.64420795 L57,0.49247387 L56,0.36133847 L55,0.250647 L54,0.16026515 L53,0.090085 L52,0.04001817 L51,0.010000378 L50,0 L49,0.010000378 L48,0.04001817 L47,0.090085 L46,0.16026515 L45,0.250647 L44,0.36133847 L43,0.49247387 L42,0.64420795 L41,0.8167187 L40.052532,1 L40,1.0102086 L39,1.2250929 L38,1.4615042 L37,1.7197093 L36,2 L36,2 L35,2.3032396 L34,2.6293736 L33,2.978753 L32.94267,3 L32,3.3527036 L31,3.7509663 L30.409313,4 L30,4.174497 L29,4.624249 L28.208591,5 L28,5.10031 L27,5.6046224 L26.254425,6 L26,6.1368914 L25,6.6993313 L24.48892,7 L24,7.292346 L23,7.917009 L22.872118,8 L22,8.576291 L21.384611,9 L21,9.269996 L20,10 L20,10 L19,10.770768 L18.713005,11 L18,11.582549 L17.50607,12 L17,12.43815 L16.371565,13 L16,13.340818 L15.302882,14 L15,14.294291 L14.294291,15 L14,15.302882 L13.340818,16 L13,16.371565 L12.43815,17 L12,17.50607 L11.582549,18 L11,18.713005 L10.770768,19 L10,20 L10,20 L9.269996,21 L9,21.384611 L8.576291,22 L8,22.872118 L7.917009,23 L7.292346,24 L7,24.48892 L6.6993313,25 L6.1368914,26 L6,26.254425 L5.6046224,27 L5.10031,28 L5,28.208591 L4.624249,29 L4.174497,30 L4,30.409313 L3.7509663,31 L3.3527036,32 L3,32.94267 L2.978753,33 L2.6293736,34 L2.3032396,35 L2,36 L2,36 L1.7197094,37 L1.4615043,38 L1.2250929,39 L1.0102086,40 L1,40.052532 L0.8167187,41 L0.64420795,42 L0.49247378,43 L0.36133844,44 L0.250647,45 L0.16026515,46 L0.09008503,47 L0.04001814,48 L0.0100002885,49 L0,50 L0.0100002885,51 L0.04001814,52 L0.09008503,53 L0.16026515,54 L0.250647,55 L0.36133844,56 L0.49247378,57 L0.64420795,58 L0.8167187,59 L1,59.947468 L1.0102086,60 L1.2250929,61 L1.4615043,62 L1.7197094,63 L2,64 L2,64 L2.3032396,65 L2.6293736,66 L2.978753,67 L3,67.057335 L3.3527036,68 L3.7509663,69 L4,69.59069 L4.174497,70 L4.624249,71 L5,71.79141 L5.10031,72 L5.6046224,73 L6,73.745575 L6.1368914,74 L6.6993313,75 L7,75.51108 L7.292346,76 L7.917009,77 L8,77.127884 L8.576291,78 L9,78.61539 L9.269996,79 L10,80 L10,80 L10.770768,81 L11,81.286995 L11.582549,82 L12,82.493935 L12.43815,83 L13,83.62843 L13.340818,84 L14,84.69712 L14.294291,85 L15,85.70571 L15.302882,86 L16,86.65918 L16.371565,87 L17,87.56185 L17.50607,88 L18,88.41745 L18.713005,89 L19,89.22923 L20,90 L20,90 L21,90.73 L21.384611,91 L22,91.423706 L22.872118,92 L23,92.08299 L24,92.70766 L24.48892,93 L25,93.30067 L26,93.863106 L26.254425,94 L27,94.39538 L28,94.89969 L28.208591,95 L29,95.37575 L30,95.8255 L30.409313,96 L31,96.24903 L32,96.64729 L32.94267,97 L33,97.02125 L34,97.37063 L35,97.69676 L36,98 L36,98 L37,98.28029 L38,98.5385 L39,98.77491 L40,98.98979 L40.052532,99 L41,99.18328 L42,99.35579 L43,99.50752 L44,99.638664 L45,99.74935 L46,99.83974 L47,99.90991 L48,99.959984 L49,99.99 L50,100 L51,99.99 L52,99.959984 L53,99.90991 L54,99.83974 L55,99.74935 L56,99.638664 L57,99.50752 L58,99.35579 L59,99.18328 L59.947468,99 L60,98.98979 L61,98.77491 L62,98.5385 L63,98.28029 L64,98 L65,97.69676 L66,97.37063 L67,97.02125 L67.057335,97 L68,96.64729 L69,96.24903 L69.59069,96 L70,95.8255" fill="none" stroke="black" stroke-width="3"/>
</svg>