<svg xmlns="http://www.w3.org/2000/svg">
    <path fill-rule="evenodd" style="fill: rgb(0, 0, 0); stroke: none; stroke-width: none;" d="M2.00,22.00 L2.10,24.00 L2.40,26.00 L2.92,28.00 L3.67,30.00 L4.68,32.00 L6.00,34.00 L7.72,36.00 L10.00,38.00 L11.47,39.00 L110.00,88.39 L110.72,89.00 L208.77,187.00 L211.00,188.70 L213.00,189.86 L215.00,190.73 L218.00,191.60 L220.00,191.90 L222.00,192.00 L224.00,191.90 L226.00,191.60 L228.00,191.08 L230.00,190.33 L232.00,189.32 L235.00,187.20 L237.00,185.23 L238.70,183.00 L239.86,181.00 L240.73,179.00 L241.36,177.00 L241.77,175.00 L241.97,173.00 L241.97,171.00 L241.77,169.00 L241.36,167.00 L190.33,14.00 L189.32,12.00 L187.20,9.00 L185.23,7.00 L183.00,5.30 L181.00,4.14 L178.00,2.92 L177.00,2.64 L175.00,2.23 L173.00,2.03 L20.00,2.10 L18.00,2.40 L16.00,2.92 L14.00,3.67 L12.00,4.68 L9.00,6.80 L7.00,8.77 L5.30,11.00 L4.14,13.00 L3.27,15.00 L2.40,18.00 L2.10,20.00 L2.00,22.00 "/>

<script>
let paths = Array.from(document.children[0].children).filter(function(c) {
    var orig = c.style.stroke;
    c.onmouseover = function() {
        c.style.stroke = "rgb(0, 0, 255)";
    };
    c.onmouseout = function () {
        c.style.stroke = orig;
    };
});

for (let path of paths) {
    console.log(path);
}
</script></svg>