<svg xmlns="http://www.w3.org/2000/svg">
    <path fill-rule="evenodd" style="fill: rgb(0, 0, 0); stroke: none; stroke-width: none;" d="M2.04,50.00 L2.09,55.00 L2.64,60.00 L3.72,65.00 L5.35,70.00 L7.60,75.00 L9.92,79.00 L12.77,83.00 L17.00,87.71 L22.00,92.00 L26.00,94.71 L30.00,96.90 L34.94,99.00 L40.00,100.54 L45.00,101.51 L50.00,101.96 L55.00,101.91 L60.00,101.36 L65.00,100.28 L70.00,98.65 L75.00,96.40 L79.00,94.08 L83.00,91.23 L87.71,87.00 L92.00,82.00 L94.71,78.00 L96.90,74.00 L99.02,69.00 L99.02,69.00 L100.54,64.00 L101.51,59.00 L101.96,54.00 L101.91,49.00 L101.36,44.00 L100.28,39.00 L98.65,34.00 L96.40,29.00 L94.08,25.00 L91.23,21.00 L87.00,16.29 L82.00,12.00 L78.00,9.29 L74.00,7.10 L69.06,5.00 L64.00,3.46 L59.00,2.49 L54.00,2.04 L49.00,2.09 L44.00,2.64 L39.00,3.72 L34.00,5.35 L29.00,7.60 L25.00,9.92 L21.00,12.77 L16.29,17.00 L12.00,22.00 L9.29,26.00 L7.10,30.00 L5.00,34.94 L3.46,40.00 L2.49,45.00 L2.04,50.00 "/>

<script>
let paths = Array.from(document.children[0].children).filter(function(c) {
    var orig = c.style.stroke;
    c.onmouseover = function() {
        c.style.stroke = "rgb(0, 0, 255)";
    };
    c.onmouseout = function () {
        c.style.stroke = orig;
    };
});

for (let path of paths) {
    console.log(path);
}
</script></svg>