<svg xmlns="http://www.w3.org/2000/svg">
    <path fill-rule="evenodd" style="fill: none; stroke: rgb(255, 0, 0); stroke-width: 0.2;" d="M38.00,36.28 L37.72,36.00 "/>
    <path fill-rule="evenodd" style="fill: none; stroke: rgb(255, 0, 0); stroke-width: 0.2;" d="M71.08,16.00 L71.36,17.00 L71.60,18.00 L71.77,19.00 L71.90,20.00 L71.97,21.00 L72.00,22.00 L71.97,23.00 L71.90,24.00 L71.77,25.00 L71.60,26.00 L71.36,27.00 L71.08,28.00 "/>
    <path fill-rule="evenodd" style="fill: none; stroke: rgb(255, 0, 0); stroke-width: 0.2;" d="M15.77,41.00 L15.00,40.73 L14.00,40.33 L13.29,40.00 L13.00,39.86 L12.00,39.32 L11.47,39.00 L11.00,38.70 L10.00,38.00 L9.00,37.20 "/>
    <path fill-rule="evenodd" style="fill: none; stroke: rgb(255, 0, 0); stroke-width: 0.2;" d="M60.71,4.00 L61.00,4.14 "/>
    <path fill-rule="evenodd" style="fill: none; stroke: rgb(255, 0, 0); stroke-width: 0.2;" d="M35.00,6.80 L35.23,7.00 "/>
    <path fill-rule="evenodd" style="fill: none; stroke: rgb(255, 0, 0); stroke-width: 0.2;" d="M58.00,41.08 L57.00,41.36 L56.00,41.60 L55.00,41.77 L54.00,41.90 L53.00,41.97 L52.00,42.00 L51.00,41.97 L50.00,41.90 L49.00,41.77 L48.00,41.60 L47.00,41.36 L46.00,41.08 "/>
    <path fill-rule="evenodd" style="fill: none; stroke: rgb(255, 0, 0); stroke-width: 0.2;" d="M9.00,6.80 L10.00,6.00 L11.00,5.30 L11.47,5.00 L12.00,4.68 L13.00,4.14 L13.29,4.00 L14.00,3.67 L15.00,3.27 L15.77,3.00 "/>
    <path fill-rule="evenodd" style="fill: none; stroke: rgb(255, 0, 0); stroke-width: 0.2;" d="M31.00,39.86 L30.71,40.00 "/>
    <path fill-rule="evenodd" style="fill: none; stroke: rgb(255, 0, 0); stroke-width: 0.2;" d="M46.00,2.92 L47.00,2.64 L48.00,2.40 L49.00,2.23 L50.00,2.10 L51.00,2.03 L52.00,2.00 L53.00,2.03 L54.00,2.10 L55.00,2.23 L56.00,2.40 L57.00,2.64 L58.00,2.92 "/>
    <path fill-rule="evenodd" style="fill: none; stroke: rgb(255, 0, 0); stroke-width: 0.2;" d="M28.23,3.00 L29.00,3.27 L30.00,3.67 L30.71,4.00 L31.00,4.14 L32.00,4.68 L32.53,5.00 L33.00,5.30 L34.00,6.00 L35.00,6.80 "/>
    <path fill-rule="evenodd" style="fill: none; stroke: rgb(255, 0, 0); stroke-width: 0.2;" d="M71.00,28.23 L70.73,29.00 L70.33,30.00 L70.00,30.71 L69.86,31.00 L69.32,32.00 L69.00,32.53 L68.70,33.00 L68.00,34.00 L67.20,35.00 "/>
    <path fill-rule="evenodd" style="fill: none; stroke: rgb(255, 0, 0); stroke-width: 0.2;" d="M3.00,15.77 L3.27,15.00 L3.67,14.00 L4.00,13.29 L4.14,13.00 L4.68,12.00 L5.00,11.47 L5.30,11.00 L6.00,10.00 L6.80,9.00 "/>
    <path fill-rule="evenodd" style="fill: none; stroke: rgb(255, 0, 0); stroke-width: 0.2;" d="M45.77,41.00 L45.00,40.73 L44.00,40.33 L43.29,40.00 L43.00,39.86 L42.00,39.32 L41.47,39.00 L41.00,38.70 L40.00,38.00 L39.00,37.20 "/>
    <path fill-rule="evenodd" style="fill: none; stroke: rgb(255, 0, 0); stroke-width: 0.2;" d="M8.77,7.00 L9.00,6.80 "/>
    <path fill-rule="evenodd" style="fill: none; stroke: rgb(255, 0, 0); stroke-width: 0.2;" d="M28.00,41.08 L27.00,41.36 L26.00,41.60 L25.00,41.77 L24.00,41.90 L23.00,41.97 L22.00,42.00 L21.00,41.97 L20.00,41.90 L19.00,41.77 L18.00,41.60 L17.00,41.36 L16.00,41.08 "/>
    <path fill-rule="evenodd" style="fill: none; stroke: rgb(255, 0, 0); stroke-width: 0.2;" d="M67.00,8.77 L67.20,9.00 "/>
    <path fill-rule="evenodd" style="fill: none; stroke: rgb(255, 0, 0); stroke-width: 0.2;" d="M6.80,35.00 L6.00,34.00 L5.30,33.00 L5.00,32.53 L4.68,32.00 L4.14,31.00 L4.00,30.71 L3.67,30.00 L3.27,29.00 L3.00,28.23 "/>
    <path fill-rule="evenodd" style="fill: none; stroke: rgb(255, 0, 0); stroke-width: 0.2;" d="M16.00,2.92 L17.00,2.64 L18.00,2.40 L19.00,2.23 L20.00,2.10 L21.00,2.03 L22.00,2.00 L23.00,2.03 L24.00,2.10 L25.00,2.23 L26.00,2.40 L27.00,2.64 L28.00,2.92 "/>
    <path fill-rule="evenodd" style="fill: none; stroke: rgb(255, 0, 0); stroke-width: 0.2;" d="M2.92,28.00 L2.64,27.00 L2.40,26.00 L2.23,25.00 L2.10,24.00 L2.03,23.00 L2.00,22.00 L2.03,21.00 L2.10,20.00 L2.23,19.00 L2.40,18.00 L2.64,17.00 L2.92,16.00 "/>
    <path fill-rule="evenodd" style="fill: none; stroke: rgb(255, 0, 0); stroke-width: 0.2;" d="M65.23,7.00 L66.00,7.72 L66.28,8.00 L67.00,8.77 "/>
    <path fill-rule="evenodd" style="fill: none; stroke: rgb(255, 0, 0); stroke-width: 0.2;" d="M39.00,6.80 L40.00,6.00 L41.00,5.30 L41.47,5.00 L42.00,4.68 L43.00,4.14 L43.29,4.00 L44.00,3.67 L45.00,3.27 L45.77,3.00 "/>
    <path fill-rule="evenodd" style="fill: none; stroke: rgb(255, 0, 0); stroke-width: 0.2;" d="M65.00,37.20 L64.00,38.00 L63.00,38.70 L62.53,39.00 L62.00,39.32 L61.00,39.86 L60.71,40.00 L60.00,40.33 L59.00,40.73 L58.23,41.00 "/>
    <path fill-rule="evenodd" style="fill: none; stroke: rgb(255, 0, 0); stroke-width: 0.2;" d="M37.72,36.00 L37.00,35.23 L36.28,36.00 L36.00,36.28 L35.23,37.00 "/>
    <path fill-rule="evenodd" style="fill: none; stroke: rgb(255, 0, 0); stroke-width: 0.2;" d="M16.00,41.08 L15.77,41.00 "/>
    <path fill-rule="evenodd" style="fill: none; stroke: rgb(255, 0, 0); stroke-width: 0.2;" d="M58.23,3.00 L59.00,3.27 L60.00,3.67 L60.71,4.00 "/>
    <path fill-rule="evenodd" style="fill: none; stroke: rgb(255, 0, 0); stroke-width: 0.2;" d="M71.08,28.00 L71.00,28.23 "/>
    <path fill-rule="evenodd" style="fill: none; stroke: rgb(255, 0, 0); stroke-width: 0.2;" d="M35.23,7.00 L36.00,7.72 L36.28,8.00 L37.00,8.77 L37.72,8.00 L38.00,7.72 L38.77,7.00 "/>
    <path fill-rule="evenodd" style="fill: none; stroke: rgb(255, 0, 0); stroke-width: 0.2;" d="M67.20,9.00 L68.00,10.00 L68.70,11.00 L69.00,11.47 L69.32,12.00 L69.86,13.00 L70.00,13.29 L70.33,14.00 L70.73,15.00 L71.00,15.77 "/>
    <path fill-rule="evenodd" style="fill: none; stroke: rgb(255, 0, 0); stroke-width: 0.2;" d="M35.23,37.00 L35.00,37.20 "/>
    <path fill-rule="evenodd" style="fill: none; stroke: rgb(255, 0, 0); stroke-width: 0.2;" d="M8.77,37.00 L8.00,36.28 L7.72,36.00 L7.00,35.23 "/>
    <path fill-rule="evenodd" style="fill: none; stroke: rgb(255, 0, 0); stroke-width: 0.2;" d="M7.72,8.00 L8.00,7.72 "/>
    <path fill-rule="evenodd" style="fill: none; stroke: rgb(255, 0, 0); stroke-width: 0.2;" d="M28.00,2.92 L28.23,3.00 "/>
    <path fill-rule="evenodd" style="fill: none; stroke: rgb(255, 0, 0); stroke-width: 0.2;" d="M67.20,35.00 L67.00,35.23 "/>
    <path fill-rule="evenodd" style="fill: none; stroke: rgb(255, 0, 0); stroke-width: 0.2;" d="M61.00,4.14 L62.00,4.68 L62.53,5.00 L63.00,5.30 L64.00,6.00 L65.00,6.80 "/>
    <path fill-rule="evenodd" style="fill: none; stroke: rgb(255, 0, 0); stroke-width: 0.2;" d="M35.00,37.20 L34.00,38.00 L33.00,38.70 L32.53,39.00 L32.00,39.32 L31.00,39.86 "/>
    <path fill-rule="evenodd" style="fill: none; stroke: rgb(255, 0, 0); stroke-width: 0.2;" d="M30.71,40.00 L30.00,40.33 L29.00,40.73 L28.23,41.00 "/>
    <path fill-rule="evenodd" style="fill: none; stroke: rgb(255, 0, 0); stroke-width: 0.2;" d="M66.28,36.00 L66.00,36.28 "/>
    <path fill-rule="evenodd" style="fill: none; stroke: rgb(255, 0, 0); stroke-width: 0.2;" d="M66.00,36.28 L65.23,37.00 "/>
    <path fill-rule="evenodd" style="fill: none; stroke: rgb(255, 0, 0); stroke-width: 0.2;" d="M39.00,37.20 L38.77,37.00 "/>
    <path fill-rule="evenodd" style="fill: none; stroke: rgb(255, 0, 0); stroke-width: 0.2;" d="M58.23,41.00 L58.00,41.08 "/>
    <path fill-rule="evenodd" style="fill: none; stroke: rgb(255, 0, 0); stroke-width: 0.2;" d="M71.00,15.77 L71.08,16.00 "/>
    <path fill-rule="evenodd" style="fill: none; stroke: rgb(255, 0, 0); stroke-width: 0.2;" d="M7.00,35.23 L6.80,35.00 "/>
    <path fill-rule="evenodd" style="fill: none; stroke: rgb(255, 0, 0); stroke-width: 0.2;" d="M8.00,7.72 L8.77,7.00 "/>
    <path fill-rule="evenodd" style="fill: none; stroke: rgb(255, 0, 0); stroke-width: 0.2;" d="M2.92,16.00 L3.00,15.77 "/>
    <path fill-rule="evenodd" style="fill: none; stroke: rgb(255, 0, 0); stroke-width: 0.2;" d="M7.00,8.77 L7.72,8.00 "/>
    <path fill-rule="evenodd" style="fill: none; stroke: rgb(255, 0, 0); stroke-width: 0.2;" d="M3.00,28.23 L2.92,28.00 "/>
    <path fill-rule="evenodd" style="fill: none; stroke: rgb(255, 0, 0); stroke-width: 0.2;" d="M65.00,6.80 L65.23,7.00 "/>
    <path fill-rule="evenodd" style="fill: none; stroke: rgb(255, 0, 0); stroke-width: 0.2;" d="M38.77,7.00 L39.00,6.80 "/>
    <path fill-rule="evenodd" style="fill: none; stroke: rgb(255, 0, 0); stroke-width: 0.2;" d="M9.00,37.20 L8.77,37.00 "/>
    <path fill-rule="evenodd" style="fill: none; stroke: rgb(255, 0, 0); stroke-width: 0.2;" d="M58.00,2.92 L58.23,3.00 "/>
    <path fill-rule="evenodd" style="fill: none; stroke: rgb(255, 0, 0); stroke-width: 0.2;" d="M45.77,3.00 L46.00,2.92 "/>
    <path fill-rule="evenodd" style="fill: none; stroke: rgb(255, 0, 0); stroke-width: 0.2;" d="M65.23,37.00 L65.00,37.20 "/>
    <path fill-rule="evenodd" style="fill: none; stroke: rgb(255, 0, 0); stroke-width: 0.2;" d="M38.77,37.00 L38.00,36.28 "/>
    <path fill-rule="evenodd" style="fill: none; stroke: rgb(255, 0, 0); stroke-width: 0.2;" d="M28.23,41.00 L28.00,41.08 "/>
    <path fill-rule="evenodd" style="fill: none; stroke: rgb(255, 0, 0); stroke-width: 0.2;" d="M67.00,35.23 L66.28,36.00 "/>
    <path fill-rule="evenodd" style="fill: none; stroke: rgb(255, 0, 0); stroke-width: 0.2;" d="M6.80,9.00 L7.00,8.77 "/>
    <path fill-rule="evenodd" style="fill: none; stroke: rgb(255, 0, 0); stroke-width: 0.2;" d="M46.00,41.08 L45.77,41.00 "/>
    <path fill-rule="evenodd" style="fill: none; stroke: rgb(255, 0, 0); stroke-width: 0.2;" d="M15.77,3.00 L16.00,2.92 "/>

<script>
let svgs = document.children[0];
let paths = Array.from(svgs.children).filter(function(c) {
    var orig = c.style.stroke;
    c.onmouseover = function() {
        c.style.stroke = "rgb(0, 0, 255)";
    };
    c.onmouseout = function () {
        c.style.stroke = orig;
    };
    c.onclick = function () {
        svgs.removeChild();
    }
});

for (let path of paths) {
    console.log(path);
}
</script></svg>