<svg xmlns="http://www.w3.org/2000/svg">
    <path fill-rule="evenodd" style="fill: none; stroke: rgb(0, 0, 0); stroke-width: 0.2;" d="M2.00000,22.00000 L2.00000,22.00000 M2.00000,22.00000 L2.00000,22.00000 M2.00000,22.00000 L2.02502,21.00000 M2.02502,21.00000 L2.10027,20.00000 M2.02502,23.00000 L2.00000,22.00000 M2.10027,20.00000 L2.22638,19.00000 M2.10027,24.00000 L2.02502,23.00000 M2.22638,19.00000 L2.40433,18.00000 M2.22638,25.00000 L2.10027,24.00000 M2.40433,18.00000 L2.63545,17.00000 M2.40433,26.00000 L2.22638,25.00000 M2.63545,17.00000 L2.92138,16.00000 M2.63545,27.00000 L2.40433,26.00000 M2.92138,16.00000 L3.00000,15.76779 M2.92138,28.00000 L2.63545,27.00000 M3.00000,15.76779 L3.26566,15.00000 M3.00000,28.23221 L2.92138,28.00000 M3.26566,29.00000 L3.00000,28.23221 M3.26566,15.00000 L3.67065,14.00000 M3.67065,14.00000 L4.00000,13.29190 M3.67065,30.00000 L3.26566,29.00000 M4.00000,13.29190 L4.14013,13.00000 M4.00000,30.70810 L3.67065,30.00000 M4.14013,13.00000 L4.68104,12.00000 M4.14013,31.00000 L4.00000,30.70810 M4.68104,12.00000 L5.00000,11.47291 M4.68104,32.00000 L4.14013,31.00000 M5.00000,11.47291 L5.29864,11.00000 M5.00000,32.52708 L4.68104,32.00000 M5.29864,11.00000 L6.00000,10.00000 M5.29864,33.00000 L5.00000,32.52708 M6.00000,10.00000 L6.00000,10.00000 M6.00000,10.00000 L6.80346,9.00000 M6.00000,34.00000 L5.29864,33.00000 M6.00000,34.00000 L6.00000,34.00000 M6.80346,9.00000 L7.00000,8.77489 M6.80346,35.00000 L6.00000,34.00000 M7.00000,8.77489 L7.72055,8.00000 M7.00000,35.22511 L6.80346,35.00000 M7.72055,8.00000 L8.00000,7.72055 M7.72055,36.00000 L7.00000,35.22511 M8.00000,7.72055 L8.77489,7.00000 M8.00000,36.27945 L7.72055,36.00000 M8.77489,7.00000 L9.00000,6.80346 M8.77489,37.00000 L8.00000,36.27945 M9.00000,6.80346 L10.00000,6.00000 M9.00000,37.19654 L8.77489,37.00000 M10.00000,6.00000 L10.00000,6.00000 M10.00000,6.00000 L11.00000,5.29864 M10.00000,38.00000 L9.00000,37.19654 M10.00000,38.00000 L10.00000,38.00000 M11.00000,5.29864 L11.47291,5.00000 M11.00000,38.70136 L10.00000,38.00000 M11.47291,5.00000 L12.00000,4.68104 M11.47291,39.00000 L11.00000,38.70136 M12.00000,4.68104 L13.00000,4.14013 M12.00000,39.31896 L11.47291,39.00000 M13.00000,4.14013 L13.29190,4.00000 M13.00000,39.85987 L12.00000,39.31896 M13.29190,4.00000 L14.00000,3.67065 M13.29190,40.00000 L13.00000,39.85987 M14.00000,3.67065 L15.00000,3.26566 M14.00000,40.32935 L13.29190,40.00000 M15.00000,3.26566 L15.76779,3.00000 M15.00000,40.73434 L14.00000,40.32935 M15.76779,3.00000 L16.00000,2.92138 M15.76779,41.00000 L15.00000,40.73434 M16.00000,2.92138 L17.00000,2.63545 M16.00000,41.07862 L15.76779,41.00000 M17.00000,2.63545 L18.00000,2.40433 M17.00000,41.36455 L16.00000,41.07862 M18.00000,2.40433 L19.00000,2.22638 M18.00000,41.59567 L17.00000,41.36455 M19.00000,2.22638 L20.00000,2.10027 M19.00000,41.77362 L18.00000,41.59567 M20.00000,2.10027 L21.00000,2.02502 M20.00000,41.89973 L19.00000,41.77362 M21.00000,2.02502 L22.00000,2.00000 M21.00000,41.97498 L20.00000,41.89973 M22.00000,2.00000 L22.00000,2.00000 M22.00000,2.00000 L22.00000,2.00000 M22.00000,2.00000 L23.00000,2.02502 M22.00000,42.00000 L21.00000,41.97498 M22.00000,42.00000 L22.00000,42.00000 M22.00000,42.00000 L22.00000,42.00000 M23.00000,2.02502 L24.00000,2.10027 M23.00000,41.97498 L22.00000,42.00000 M24.00000,2.10027 L25.00000,2.22638 M24.00000,41.89973 L23.00000,41.97498 M25.00000,2.22638 L26.00000,2.40433 M25.00000,41.77362 L24.00000,41.89973 M26.00000,2.40433 L27.00000,2.63545 M26.00000,41.59567 L25.00000,41.77362 M27.00000,2.63545 L28.00000,2.92138 M27.00000,41.36455 L26.00000,41.59567 M28.00000,2.92138 L28.23221,3.00000 M28.00000,41.07862 L27.00000,41.36455 M28.23221,3.00000 L29.00000,3.26566 M28.23221,41.00000 L28.00000,41.07862 M29.00000,3.26566 L30.00000,3.67065 M29.00000,40.73434 L28.23221,41.00000 M30.00000,3.67065 L30.70810,4.00000 M30.00000,40.32935 L29.00000,40.73434 M30.70810,4.00000 L31.00000,4.14013 M30.70810,40.00000 L30.00000,40.32935 M31.00000,4.14013 L32.00000,4.68104 M31.00000,39.85987 L30.70810,40.00000 M32.00000,4.68104 L32.52708,5.00000 M32.00000,39.31896 L31.00000,39.85987 M32.52708,5.00000 L33.00000,5.29864 M32.52708,39.00000 L32.00000,39.31896 M33.00000,5.29864 L34.00000,6.00000 M33.00000,38.70136 L32.52708,39.00000 M34.00000,6.00000 L34.00000,6.00000 M34.00000,6.00000 L35.00000,6.80346 M34.00000,38.00000 L33.00000,38.70136 M34.00000,38.00000 L34.00000,38.00000 M35.00000,6.80346 L35.22511,7.00000 M35.00000,37.19654 L34.00000,38.00000 M35.22511,7.00000 L36.00000,7.72055 M35.22511,37.00000 L35.00000,37.19654 M36.00000,7.72055 L36.27945,8.00000 M36.00000,36.27945 L35.22511,37.00000 M36.27945,8.00000 L37.00000,8.77489 M36.27945,36.00000 L36.00000,36.27945 M37.00000,8.77489 L37.72055,8.00000 M37.00000,35.22511 L36.27945,36.00000 M37.72055,8.00000 L38.00000,7.72055 M37.72055,36.00000 L37.00000,35.22511 M38.00000,7.72055 L38.77489,7.00000 M38.00000,36.27945 L37.72055,36.00000 M38.77489,7.00000 L39.00000,6.80346 M38.77489,37.00000 L38.00000,36.27945 M39.00000,6.80346 L40.00000,6.00000 M39.00000,37.19654 L38.77489,37.00000 M40.00000,6.00000 L40.00000,6.00000 M40.00000,6.00000 L41.00000,5.29864 M40.00000,38.00000 L39.00000,37.19654 M40.00000,38.00000 L40.00000,38.00000 M41.00000,5.29864 L41.47292,5.00000 M41.00000,38.70136 L40.00000,38.00000 M41.47292,5.00000 L42.00000,4.68104 M41.47292,39.00000 L41.00000,38.70136 M42.00000,4.68104 L43.00000,4.14013 M42.00000,39.31896 L41.47292,39.00000 M43.00000,4.14013 L43.29190,4.00000 M43.00000,39.85987 L42.00000,39.31896 M43.29190,4.00000 L44.00000,3.67065 M43.29190,40.00000 L43.00000,39.85987 M44.00000,3.67065 L45.00000,3.26566 M44.00000,40.32935 L43.29190,40.00000 M45.00000,3.26566 L45.76779,3.00000 M45.00000,40.73434 L44.00000,40.32935 M45.76779,3.00000 L46.00000,2.92138 M45.76779,41.00000 L45.00000,40.73434 M46.00000,2.92138 L47.00000,2.63545 M46.00000,41.07862 L45.76779,41.00000 M47.00000,2.63545 L48.00000,2.40433 M47.00000,41.36455 L46.00000,41.07862 M48.00000,2.40433 L49.00000,2.22638 M48.00000,41.59567 L47.00000,41.36455 M49.00000,2.22638 L50.00000,2.10027 M49.00000,41.77362 L48.00000,41.59567 M50.00000,2.10027 L51.00000,2.02502 M50.00000,41.89973 L49.00000,41.77362 M51.00000,2.02502 L52.00000,2.00000 M51.00000,41.97498 L50.00000,41.89973 M52.00000,2.00000 L52.00000,2.00000 M52.00000,2.00000 L52.00000,2.00000 M52.00000,2.00000 L53.00000,2.02502 M52.00000,42.00000 L51.00000,41.97498 M52.00000,42.00000 L52.00000,42.00000 M52.00000,42.00000 L52.00000,42.00000 M53.00000,2.02502 L54.00000,2.10027 M53.00000,41.97498 L52.00000,42.00000 M54.00000,2.10027 L55.00000,2.22638 M54.00000,41.89973 L53.00000,41.97498 M55.00000,2.22638 L56.00000,2.40433 M55.00000,41.77362 L54.00000,41.89973 M56.00000,2.40433 L57.00000,2.63545 M56.00000,41.59567 L55.00000,41.77362 M57.00000,2.63545 L58.00000,2.92138 M57.00000,41.36455 L56.00000,41.59567 M58.00000,2.92138 L58.23221,3.00000 M58.00000,41.07862 L57.00000,41.36455 M58.23221,3.00000 L59.00000,3.26566 M58.23221,41.00000 L58.00000,41.07862 M59.00000,3.26566 L60.00000,3.67065 M59.00000,40.73434 L58.23221,41.00000 M60.00000,3.67065 L60.70810,4.00000 M60.00000,40.32935 L59.00000,40.73434 M60.70810,4.00000 L61.00000,4.14013 M60.70810,40.00000 L60.00000,40.32935 M61.00000,4.14013 L62.00000,4.68104 M61.00000,39.85987 L60.70810,40.00000 M62.00000,4.68104 L62.52708,5.00000 M62.00000,39.31896 L61.00000,39.85987 M62.52708,5.00000 L63.00000,5.29864 M62.52708,39.00000 L62.00000,39.31896 M63.00000,5.29864 L64.00000,6.00000 M63.00000,38.70136 L62.52708,39.00000 M64.00000,6.00000 L64.00000,6.00000 M64.00000,6.00000 L65.00000,6.80346 M64.00000,38.00000 L63.00000,38.70136 M64.00000,38.00000 L64.00000,38.00000 M65.00000,6.80346 L65.22511,7.00000 M65.00000,37.19654 L64.00000,38.00000 M65.22511,7.00000 L66.00000,7.72055 M65.22511,37.00000 L65.00000,37.19654 M66.00000,7.72055 L66.27946,8.00000 M66.00000,36.27945 L65.22511,37.00000 M66.27946,8.00000 L67.00000,8.77489 M66.27946,36.00000 L66.00000,36.27945 M67.00000,8.77489 L67.19654,9.00000 M67.00000,35.22511 L66.27946,36.00000 M67.19654,9.00000 L68.00000,10.00000 M67.19654,35.00000 L67.00000,35.22511 M68.00000,10.00000 L68.00000,10.00000 M68.00000,10.00000 L68.70136,11.00000 M68.00000,34.00000 L67.19654,35.00000 M68.00000,34.00000 L68.00000,34.00000 M68.70136,11.00000 L69.00000,11.47291 M68.70136,33.00000 L68.00000,34.00000 M69.00000,11.47291 L69.31896,12.00000 M69.00000,32.52708 L68.70136,33.00000 M69.31896,12.00000 L69.85986,13.00000 M69.31896,32.00000 L69.00000,32.52708 M69.85986,13.00000 L70.00000,13.29190 M69.85986,31.00000 L69.31896,32.00000 M70.00000,13.29190 L70.32935,14.00000 M70.00000,30.70810 L69.85986,31.00000 M70.32935,14.00000 L70.73434,15.00000 M70.32935,30.00000 L70.00000,30.70810 M70.73434,15.00000 L71.00000,15.76779 M70.73434,29.00000 L70.32935,30.00000 M71.00000,15.76779 L71.07862,16.00000 M71.00000,28.23221 L70.73434,29.00000 M71.07862,16.00000 L71.36455,17.00000 M71.07862,28.00000 L71.00000,28.23221 M71.36455,17.00000 L71.59567,18.00000 M71.36455,27.00000 L71.07862,28.00000 M71.59567,18.00000 L71.77362,19.00000 M71.59567,26.00000 L71.36455,27.00000 M71.77362,19.00000 L71.89973,20.00000 M71.77362,25.00000 L71.59567,26.00000 M71.89973,20.00000 L71.97498,21.00000 M71.89973,24.00000 L71.77362,25.00000 M71.97498,21.00000 L72.00000,22.00000 M71.97498,23.00000 L71.89973,24.00000 M72.00000,22.00000 L71.97498,23.00000 M72.00000,22.00000 L72.00000,22.00000 M72.00000,22.00000 L72.00000,22.00000 "/>

<script>
let svgs = document.children[0];
let paths = Array.from(svgs.children).filter(function(c) {
    var orig = c.style.stroke;
    c.onmouseover = function() {
        c.style.stroke = "rgb(0, 0, 255)";
    };
    c.onmouseout = function () {
        c.style.stroke = orig;
    };
    c.onclick = function () {
        svgs.removeChild()
    }
});

for (let path of paths) {
    console.log(path);
}
</script></svg>