<svg xmlns="http://www.w3.org/2000/svg">
    <path fill-rule="evenodd" style="fill: none; stroke: rgb(0, 0, 0); stroke-width: 0.2;" d="M2.00,22.00 L2.03,21.00 M2.03,21.00 L2.10,20.00 M2.03,23.00 L2.00,22.00 M2.10,20.00 L2.23,19.00 M2.10,24.00 L2.03,23.00 M2.23,19.00 L2.40,18.00 M2.23,25.00 L2.10,24.00 M2.40,18.00 L2.64,17.00 M2.40,26.00 L2.23,25.00 M2.64,17.00 L2.92,16.00 M2.64,27.00 L2.40,26.00 M2.92,16.00 L3.00,15.77 M2.92,28.00 L2.64,27.00 M3.00,15.77 L3.27,15.00 M3.00,28.23 L2.92,28.00 M3.27,29.00 L3.00,28.23 M3.27,15.00 L3.67,14.00 M3.67,14.00 L4.00,13.29 M3.67,30.00 L3.27,29.00 M4.00,13.29 L4.14,13.00 M4.00,30.71 L3.67,30.00 M4.14,13.00 L4.68,12.00 M4.14,31.00 L4.00,30.71 M4.68,12.00 L5.00,11.47 M4.68,32.00 L4.14,31.00 M5.00,11.47 L5.30,11.00 M5.00,32.53 L4.68,32.00 M5.30,11.00 L6.00,10.00 M5.30,33.00 L5.00,32.53 M6.00,10.00 L6.80,9.00 M6.00,34.00 L5.30,33.00 M6.80,9.00 L7.00,8.77 M6.80,35.00 L6.00,34.00 M7.00,8.77 L7.72,8.00 M7.00,35.23 L6.80,35.00 M7.72,8.00 L8.00,7.72 M7.72,36.00 L7.00,35.23 M8.00,7.72 L8.77,7.00 M8.00,36.28 L7.72,36.00 M8.77,7.00 L9.00,6.80 M8.77,37.00 L8.00,36.28 M9.00,6.80 L10.00,6.00 M9.00,37.20 L8.77,37.00 M10.00,6.00 L11.00,5.30 M10.00,38.00 L9.00,37.20 M11.00,5.30 L11.47,5.00 M11.00,38.70 L10.00,38.00 M11.47,5.00 L12.00,4.68 M11.47,39.00 L11.00,38.70 M12.00,4.68 L13.00,4.14 M12.00,39.32 L11.47,39.00 M13.00,4.14 L13.29,4.00 M13.00,39.86 L12.00,39.32 M13.29,4.00 L14.00,3.67 M13.29,40.00 L13.00,39.86 M14.00,3.67 L15.00,3.27 M14.00,40.33 L13.29,40.00 M15.00,3.27 L15.77,3.00 M15.00,40.73 L14.00,40.33 M15.77,3.00 L16.00,2.92 M15.77,41.00 L15.00,40.73 M16.00,2.92 L17.00,2.64 M16.00,41.08 L15.77,41.00 M17.00,2.64 L18.00,2.40 M17.00,41.36 L16.00,41.08 M18.00,2.40 L19.00,2.23 M18.00,41.60 L17.00,41.36 M19.00,2.23 L20.00,2.10 M19.00,41.77 L18.00,41.60 M20.00,2.10 L21.00,2.03 M20.00,41.90 L19.00,41.77 M21.00,2.03 L22.00,2.00 M21.00,41.97 L20.00,41.90 M22.00,2.00 L23.00,2.03 M22.00,42.00 L21.00,41.97 M23.00,2.03 L24.00,2.10 M23.00,41.97 L22.00,42.00 M24.00,2.10 L25.00,2.23 M24.00,41.90 L23.00,41.97 M25.00,2.23 L26.00,2.40 M25.00,41.77 L24.00,41.90 M26.00,2.40 L27.00,2.64 M26.00,41.60 L25.00,41.77 M27.00,2.64 L28.00,2.92 M27.00,41.36 L26.00,41.60 M28.00,2.92 L28.23,3.00 M28.00,41.08 L27.00,41.36 M28.23,3.00 L29.00,3.27 M28.23,41.00 L28.00,41.08 M29.00,3.27 L30.00,3.67 M29.00,40.73 L28.23,41.00 M30.00,3.67 L30.71,4.00 M30.00,40.33 L29.00,40.73 M30.71,4.00 L31.00,4.14 M30.71,40.00 L30.00,40.33 M31.00,4.14 L32.00,4.68 M31.00,39.86 L30.71,40.00 M32.00,4.68 L32.53,5.00 M32.00,39.32 L31.00,39.86 M32.53,5.00 L33.00,5.30 M32.53,39.00 L32.00,39.32 M33.00,5.30 L34.00,6.00 M33.00,38.70 L32.53,39.00 M34.00,6.00 L35.00,6.80 M34.00,38.00 L33.00,38.70 M35.00,6.80 L35.23,7.00 M35.00,37.20 L34.00,38.00 M35.23,7.00 L36.00,7.72 M35.23,37.00 L35.00,37.20 M36.00,7.72 L36.28,8.00 M36.00,36.28 L35.23,37.00 M36.28,8.00 L37.00,8.77 M36.28,36.00 L36.00,36.28 M37.00,8.77 L37.72,8.00 M37.00,35.23 L36.28,36.00 M37.72,8.00 L38.00,7.72 M37.72,36.00 L37.00,35.23 M38.00,7.72 L38.77,7.00 M38.00,36.28 L37.72,36.00 M38.77,7.00 L39.00,6.80 M38.77,37.00 L38.00,36.28 M39.00,6.80 L40.00,6.00 M39.00,37.20 L38.77,37.00 M40.00,6.00 L41.00,5.30 M40.00,38.00 L39.00,37.20 M41.00,5.30 L41.47,5.00 M41.00,38.70 L40.00,38.00 M41.47,5.00 L42.00,4.68 M41.47,39.00 L41.00,38.70 M42.00,4.68 L43.00,4.14 M42.00,39.32 L41.47,39.00 M43.00,4.14 L43.29,4.00 M43.00,39.86 L42.00,39.32 M43.29,4.00 L44.00,3.67 M43.29,40.00 L43.00,39.86 M44.00,3.67 L45.00,3.27 M44.00,40.33 L43.29,40.00 M45.00,3.27 L45.77,3.00 M45.00,40.73 L44.00,40.33 M45.77,3.00 L46.00,2.92 M45.77,41.00 L45.00,40.73 M46.00,2.92 L47.00,2.64 M46.00,41.08 L45.77,41.00 M47.00,2.64 L48.00,2.40 M47.00,41.36 L46.00,41.08 M48.00,2.40 L49.00,2.23 M48.00,41.60 L47.00,41.36 M49.00,2.23 L50.00,2.10 M49.00,41.77 L48.00,41.60 M50.00,2.10 L51.00,2.03 M50.00,41.90 L49.00,41.77 M51.00,2.03 L52.00,2.00 M51.00,41.97 L50.00,41.90 M52.00,2.00 L53.00,2.03 M52.00,42.00 L51.00,41.97 M53.00,2.03 L54.00,2.10 M53.00,41.97 L52.00,42.00 M54.00,2.10 L55.00,2.23 M54.00,41.90 L53.00,41.97 M55.00,2.23 L56.00,2.40 M55.00,41.77 L54.00,41.90 M56.00,2.40 L57.00,2.64 M56.00,41.60 L55.00,41.77 M57.00,2.64 L58.00,2.92 M57.00,41.36 L56.00,41.60 M58.00,2.92 L58.23,3.00 M58.00,41.08 L57.00,41.36 M58.23,3.00 L59.00,3.27 M58.23,41.00 L58.00,41.08 M59.00,3.27 L60.00,3.67 M59.00,40.73 L58.23,41.00 M60.00,3.67 L60.71,4.00 M60.00,40.33 L59.00,40.73 M60.71,4.00 L61.00,4.14 M60.71,40.00 L60.00,40.33 M61.00,4.14 L62.00,4.68 M61.00,39.86 L60.71,40.00 M62.00,4.68 L62.53,5.00 M62.00,39.32 L61.00,39.86 M62.53,5.00 L63.00,5.30 M62.53,39.00 L62.00,39.32 M63.00,5.30 L64.00,6.00 M63.00,38.70 L62.53,39.00 M64.00,6.00 L65.00,6.80 M64.00,38.00 L63.00,38.70 M65.00,6.80 L65.23,7.00 M65.00,37.20 L64.00,38.00 M65.23,7.00 L66.00,7.72 M65.23,37.00 L65.00,37.20 M66.00,7.72 L66.28,8.00 M66.00,36.28 L65.23,37.00 M66.28,8.00 L67.00,8.77 M66.28,36.00 L66.00,36.28 M67.00,8.77 L67.20,9.00 M67.00,35.23 L66.28,36.00 M67.20,9.00 L68.00,10.00 M67.20,35.00 L67.00,35.23 M68.00,10.00 L68.70,11.00 M68.00,34.00 L67.20,35.00 M68.70,11.00 L69.00,11.47 M68.70,33.00 L68.00,34.00 M69.00,11.47 L69.32,12.00 M69.00,32.53 L68.70,33.00 M69.32,12.00 L69.86,13.00 M69.32,32.00 L69.00,32.53 M69.86,13.00 L70.00,13.29 M69.86,31.00 L69.32,32.00 M70.00,13.29 L70.33,14.00 M70.00,30.71 L69.86,31.00 M70.33,14.00 L70.73,15.00 M70.33,30.00 L70.00,30.71 M70.73,15.00 L71.00,15.77 M70.73,29.00 L70.33,30.00 M71.00,15.77 L71.08,16.00 M71.00,28.23 L70.73,29.00 M71.08,16.00 L71.36,17.00 M71.08,28.00 L71.00,28.23 M71.36,17.00 L71.60,18.00 M71.36,27.00 L71.08,28.00 M71.60,18.00 L71.77,19.00 M71.60,26.00 L71.36,27.00 M71.77,19.00 L71.90,20.00 M71.77,25.00 L71.60,26.00 M71.90,20.00 L71.97,21.00 M71.90,24.00 L71.77,25.00 M71.97,21.00 L72.00,22.00 M71.97,23.00 L71.90,24.00 M72.00,22.00 L71.97,23.00 "/>

<script>
let svgs = document.children[0];
let paths = Array.from(svgs.children).filter(function(c) {
    var orig = c.style.stroke;
    c.onmouseover = function() {
        c.style.stroke = "rgb(0, 0, 255)";
    };
    c.onmouseout = function () {
        c.style.stroke = orig;
    };
    c.onclick = function () {
        svgs.removeChild();
    }
});

for (let path of paths) {
    console.log(path);
}
</script></svg>