<svg xmlns="http://www.w3.org/2000/svg">
    <path fill-rule="evenodd" style="fill: none; stroke: rgb(0, 0, 0); stroke-width: 0.2;" d="M29.00,3.27 L30.00,3.68 M46.00,41.08 L45.77,41.00 M60.70,40.00 L60.00,40.32 M12.00,39.31 L11.48,39.00 M38.78,7.00 L39.00,6.81 M65.00,37.19 L64.00,38.00 M45.77,3.00 L46.00,2.92 M71.36,17.00 L71.59,18.00 M34.00,6.00 L35.00,6.81 M13.30,40.00 L13.00,39.86 M36.00,36.27 L35.22,37.00 M71.59,26.00 L71.36,27.00 M58.23,3.00 L59.00,3.27 M10.00,38.00 L9.00,37.19 M5.31,11.00 L6.00,10.00 M32.00,4.69 L32.52,5.00 M68.69,11.00 L69.00,11.48 M8.78,7.00 L9.00,6.81 M41.48,39.00 L41.00,38.69 M3.68,14.00 L4.00,13.30 M32.00,39.31 L31.00,39.86 M52.00,42.00 L51.00,41.97 M22.00,2.00 L23.00,2.03 M4.14,13.00 L4.69,12.00 M31.00,4.14 L32.00,4.69 M67.00,8.78 L67.19,9.00 M17.00,41.36 L16.00,41.08 M2.92,28.00 L2.64,27.00 M67.19,35.00 L67.00,35.22 M48.00,2.41 L49.00,2.23 M58.23,41.00 L58.00,41.08 M2.41,18.00 L2.64,17.00 M40.00,32.54 L40.46,32.00 M28.23,41.00 L28.00,41.08 M16.00,41.08 L15.77,41.00 M37.73,8.00 L38.00,7.73 M63.00,38.69 L62.52,39.00 M71.00,15.77 L71.08,16.00 M47.00,2.64 L48.00,2.41 M56.00,2.41 L57.00,2.64 M12.00,4.69 L13.00,4.14 M35.00,37.19 L34.00,38.00 M44.00,40.32 L43.30,40.00 M35.00,6.81 L35.22,7.00 M57.00,41.36 L56.00,41.59 M8.78,37.00 L8.00,36.27 M70.73,15.00 L71.00,15.77 M7.73,36.00 L7.00,35.22 M24.00,2.10 L25.00,2.23 M43.30,4.00 L44.00,3.68 M71.36,27.00 L71.08,28.00 M6.00,34.00 L5.31,33.00 M24.00,41.90 L23.00,41.97 M3.68,30.00 L3.27,29.00 M66.00,7.73 L66.27,8.00 M23.00,2.03 L24.00,2.10 M2.41,26.00 L2.23,25.00 M70.00,30.70 L69.86,31.00 M21.00,2.03 L22.00,2.00 M49.00,41.77 L48.00,41.59 M62.52,5.00 L63.00,5.31 M2.10,20.00 L2.23,19.00 M39.46,32.00 L40.00,32.54 M15.00,40.73 L14.00,40.32 M40.00,31.54 L39.46,32.00 M67.00,35.22 L66.27,36.00 M71.97,21.00 L72.00,22.00 M28.00,41.08 L27.00,41.36 M54.00,2.10 L55.00,2.23 M16.00,2.92 L17.00,2.64 M38.00,36.27 L37.73,36.00 M27.00,2.64 L28.00,2.92 M34.00,32.54 L34.54,32.00 M61.00,39.86 L60.70,40.00 M13.00,39.86 L12.00,39.31 M37.00,8.70 L37.73,8.00 M45.00,3.27 L45.77,3.00 M33.00,5.31 L34.00,6.00 M70.00,13.30 L70.32,14.00 M11.48,5.00 L12.00,4.69 M25.00,41.77 L24.00,41.90 M71.00,28.23 L70.73,29.00 M5.00,32.52 L4.69,32.00 M33.00,38.69 L32.52,39.00 M56.00,41.59 L55.00,41.77 M8.00,36.27 L7.73,36.00 M41.48,5.00 L42.00,4.69 M6.00,10.00 L6.81,9.00 M69.00,11.48 L69.31,12.00 M21.00,41.97 L20.00,41.90 M4.00,30.70 L3.68,30.00 M31.00,39.86 L30.70,40.00 M69.31,32.00 L69.00,32.52 M19.00,2.23 L20.00,2.10 M61.00,4.14 L62.00,4.69 M3.27,15.00 L3.68,14.00 M65.22,37.00 L65.00,37.19 M2.23,25.00 L2.10,24.00 M39.46,12.00 L40.00,12.46 M66.00,36.27 L65.22,37.00 M71.77,19.00 L71.90,20.00 M59.00,3.27 L60.00,3.68 M15.00,3.27 L15.77,3.00 M37.00,35.30 L36.27,36.00 M47.00,41.36 L46.00,41.08 M60.00,40.32 L59.00,40.73 M11.48,39.00 L11.00,38.69 M36.00,7.73 L36.27,8.00 M64.00,38.00 L63.00,38.69 M34.54,32.00 L34.00,31.54 M53.00,2.03 L54.00,2.10 M10.00,6.00 L11.00,5.31 M71.97,23.00 L71.90,24.00 M54.00,41.90 L53.00,41.97 M7.00,35.22 L6.81,35.00 M43.30,40.00 L43.00,39.86 M5.00,11.48 L5.31,11.00 M68.00,10.00 L68.69,11.00 M8.00,7.73 L8.78,7.00 M3.27,29.00 L3.00,28.23 M30.70,4.00 L31.00,4.14 M23.00,41.97 L22.00,42.00 M2.92,16.00 L3.00,15.77 M41.00,5.31 L41.48,5.00 M64.00,6.00 L65.00,6.81 M20.00,41.90 L19.00,41.77 M49.00,2.23 L50.00,2.10 M2.03,23.00 L2.00,22.00 M41.00,38.69 L40.00,38.00 M69.00,32.52 L68.69,33.00 M29.00,40.73 L28.23,41.00 M58.00,2.92 L58.23,3.00 M2.23,19.00 L2.41,18.00 M40.00,11.46 L39.46,12.00 M15.77,41.00 L15.00,40.73 M39.00,6.81 L40.00,6.00 M62.52,39.00 L62.00,39.31 M46.00,2.92 L47.00,2.64 M71.59,18.00 L71.77,19.00 M27.00,41.36 L26.00,41.59 M34.00,12.46 L34.54,12.00 M51.00,41.97 L50.00,41.90 M14.00,3.68 L15.00,3.27 M36.27,8.00 L37.00,8.70 M71.77,25.00 L71.59,26.00 M34.54,12.00 L34.00,11.46 M59.00,40.73 L58.23,41.00 M11.00,38.69 L10.00,38.00 M25.00,2.23 L26.00,2.41 M43.00,4.14 L43.30,4.00 M26.00,41.59 L25.00,41.77 M70.32,14.00 L70.73,15.00 M7.00,8.78 L7.73,8.00 M71.08,28.00 L71.00,28.23 M5.31,33.00 L5.00,32.52 M32.52,39.00 L32.00,39.31 M51.00,2.03 L52.00,2.00 M50.00,2.10 L51.00,2.03 M4.69,12.00 L5.00,11.48 M67.19,9.00 L68.00,10.00 M18.00,41.59 L17.00,41.36 M50.00,41.90 L49.00,41.77 M3.00,28.23 L2.92,28.00 M68.00,34.00 L67.19,35.00 M20.00,2.10 L21.00,2.03 M62.00,4.69 L62.52,5.00 M2.03,21.00 L2.10,20.00 M39.00,37.19 L38.78,37.00 M30.00,3.68 L30.70,4.00 M14.00,40.32 L13.30,40.00 M38.00,7.73 L38.78,7.00 M66.27,36.00 L66.00,36.27 M71.08,16.00 L71.36,17.00 M57.00,2.64 L58.00,2.92 M13.00,4.14 L13.30,4.00 M35.22,37.00 L35.00,37.19 M45.77,41.00 L45.00,40.73 M28.00,2.92 L28.23,3.00 M34.00,11.46 L33.54,12.00 M58.00,41.08 L57.00,41.36 M9.00,37.19 L8.78,37.00 M36.27,36.00 L36.00,36.27 M26.00,2.41 L27.00,2.64 M69.86,13.00 L70.00,13.30 M11.00,5.31 L11.48,5.00 M70.73,29.00 L70.32,30.00 M4.69,32.00 L4.14,31.00 M55.00,41.77 L54.00,41.90 M7.73,8.00 L8.00,7.73 M4.00,13.30 L4.14,13.00 M30.70,40.00 L30.00,40.32 M66.27,8.00 L67.00,8.78 M2.64,27.00 L2.41,26.00 M70.32,30.00 L70.00,30.70 M18.00,2.41 L19.00,2.23 M60.70,4.00 L61.00,4.14 M3.00,15.77 L3.27,15.00 M65.00,6.81 L65.22,7.00 M2.10,24.00 L2.03,23.00 M40.00,38.00 L39.00,37.19 M65.22,7.00 L66.00,7.73 M72.00,22.00 L71.97,23.00 M28.23,3.00 L29.00,3.27 M55.00,2.23 L56.00,2.41 M17.00,2.64 L18.00,2.41 M38.78,37.00 L38.00,36.27 M45.00,40.73 L44.00,40.32 M62.00,39.31 L61.00,39.86 M13.30,4.00 L14.00,3.68 M35.22,7.00 L36.00,7.73 M44.00,3.68 L45.00,3.27 M34.00,38.00 L33.00,38.69 M52.00,2.00 L53.00,2.03 M9.00,6.81 L10.00,6.00 M43.00,39.86 L42.00,39.31 M71.90,24.00 L71.77,25.00 M33.54,32.00 L34.00,32.54 M53.00,41.97 L52.00,42.00 M6.81,9.00 L7.00,8.78 M42.00,4.69 L43.00,4.14 M6.81,35.00 L6.00,34.00 M32.52,5.00 L33.00,5.31 M69.31,12.00 L69.86,13.00 M22.00,42.00 L21.00,41.97 M42.00,39.31 L41.48,39.00 M4.14,31.00 L4.00,30.70 M69.86,31.00 L69.31,32.00 M2.64,17.00 L2.92,16.00 M40.46,12.00 L40.00,11.46 M63.00,5.31 L64.00,6.00 M19.00,41.77 L18.00,41.59 M2.00,22.00 L2.03,21.00 M40.00,6.00 L41.00,5.31 M68.69,33.00 L68.00,34.00 M71.90,20.00 L71.97,21.00 M30.00,40.32 L29.00,40.73 M48.00,41.59 L47.00,41.36 M60.00,3.68 L60.70,4.00 M15.77,3.00 L16.00,2.92 M37.73,36.00 L37.00,35.30 "/>

<script>
let paths = Array.from(document.children[0].children).filter(function(c) {
    var orig = c.style.stroke;
    c.onmouseover = function() {
        c.style.stroke = "rgb(0, 0, 255)";
    };
    c.onmouseout = function () {
        c.style.stroke = orig;
    };
});

for (let path of paths) {
    console.log(path);
}
</script></svg>