<svg xmlns="http://www.w3.org/2000/svg">
    <path fill-rule="evenodd" style="fill: none; stroke: rgb(0, 0, 0); stroke-width: 0.2;" d="M192.67,124.00 L193.00,125.00 L193.33,126.00 L193.67,127.00 L194.00,128.00 L194.33,129.00 L194.67,130.00 L195.00,131.00 L195.33,132.00 L195.67,133.00 L196.00,134.00 L196.33,135.00 L196.67,136.00 L197.00,137.00 L197.33,138.00 L197.67,139.00 L198.00,140.00 L198.33,141.00 L198.67,142.00 L199.00,143.00 L199.33,144.00 L199.67,145.00 L200.00,146.00 L200.33,147.00 L200.67,148.00 L201.00,149.00 L201.32,150.00 L201.00,151.00 L200.00,150.00 L199.00,149.00 L198.00,148.00 L197.00,147.00 L196.00,146.00 L195.00,145.00 L194.00,144.00 L193.00,143.00 L192.00,142.00 L191.00,141.00 L190.00,140.00 L189.00,139.00 L188.00,138.00 L187.00,137.00 L186.00,136.00 L185.00,135.00 L184.00,134.00 L183.00,133.00 L182.00,132.00 L181.00,131.00 L180.00,130.00 L179.00,129.00 L178.00,128.00 L177.00,127.00 L176.00,126.00 L175.00,125.00 L174.00,124.00 L173.00,123.00 L172.00,122.00 L171.00,121.00 L170.00,120.00 L169.00,119.00 L168.00,118.00 L167.00,117.00 L166.00,116.00 L165.00,115.00 L164.00,114.00 L163.00,113.00 L162.00,112.00 L161.00,111.00 L160.00,110.00 L159.00,109.00 L158.00,108.00 L157.00,107.00 L156.00,106.00 L155.00,105.00 L154.00,104.00 L153.00,103.00 L152.00,102.00 L151.00,101.00 L150.00,100.00 L149.00,99.00 L148.00,98.00 L147.00,97.00 L146.00,96.00 L145.00,95.00 L144.00,94.00 L143.00,93.00 L142.00,92.00 L141.00,91.00 L140.00,90.00 L139.00,89.00 L138.00,88.00 L137.00,87.00 L136.00,86.00 L135.00,85.00 L134.00,84.00 L133.00,83.00 L132.00,82.00 L131.00,81.00 L130.00,80.00 L129.00,79.00 L128.00,78.00 L127.00,77.00 L126.00,76.00 L125.00,75.00 L124.00,74.00 L123.00,73.00 L122.00,72.00 L121.00,71.00 L120.00,70.00 L119.00,69.00 L118.00,68.00 L117.00,67.00 L116.00,66.00 L115.00,65.00 L114.00,64.00 L113.00,63.00 L112.00,62.00 L111.00,61.00 L110.00,60.00 L109.00,59.00 L108.00,58.00 L107.00,57.00 L106.00,56.00 L105.00,55.00 L104.00,54.00 L103.00,53.00 L102.00,52.00 L101.00,51.50 L100.00,51.00 L99.00,50.50 L98.00,50.00 L97.00,49.50 L96.00,49.00 L95.00,48.50 L94.00,48.00 L93.00,47.50 L92.00,47.00 L91.00,46.50 L90.00,46.00 L89.00,45.50 L88.00,45.00 L87.00,44.50 L86.00,44.00 L85.00,43.50 L84.00,43.00 L83.00,42.50 L82.00,42.00 L81.00,41.50 L80.00,41.00 L79.00,40.50 L78.00,40.00 L77.00,39.50 L76.00,39.00 L75.00,38.50 L74.00,38.00 L73.00,37.50 L72.00,37.00 L71.00,36.50 L70.00,36.00 L69.00,35.50 L68.00,35.00 L67.00,34.50 L66.00,34.00 L65.00,33.50 L64.00,33.00 L63.00,32.50 L62.00,32.00 L61.00,31.50 L60.00,31.00 L59.00,30.50 L58.00,30.00 L57.00,29.50 L56.00,29.00 L55.00,28.50 L54.00,28.00 L53.00,27.50 L52.00,27.00 L51.00,26.50 L50.00,26.00 L49.00,25.50 L48.00,25.00 L47.00,24.50 L46.00,24.00 L45.00,23.50 L44.00,23.00 L43.00,22.50 L42.00,22.00 L41.00,21.50 L40.00,21.00 L39.00,20.50 L38.00,20.00 L37.00,19.50 L36.00,19.00 L35.00,18.50 L34.00,18.00 L33.00,17.50 L32.00,17.00 L31.00,16.50 L30.00,16.00 L29.00,15.50 L28.00,15.00 L27.00,14.50 L26.00,14.00 L25.00,13.50 L24.00,13.00 L23.00,12.50 L22.00,12.00 L21.00,11.50 L20.00,11.00 L19.00,10.50 L18.00,10.00 L17.00,9.50 L16.00,9.00 L15.00,8.50 L14.00,8.00 L13.00,7.50 L12.00,7.00 L11.00,6.50 L10.00,6.00 L9.00,5.50 L8.00,5.00 L7.00,4.50 L6.00,4.00 L5.00,3.50 L4.00,3.00 L3.00,2.00 L4.00,2.00 L5.00,2.00 L6.00,2.00 L7.00,2.00 L8.00,2.00 L9.00,2.00 L10.00,2.00 L11.00,2.00 L12.00,2.00 L13.00,2.00 L14.00,2.00 L15.00,2.00 L16.00,2.00 L17.00,2.00 L18.00,2.00 L19.00,2.00 L20.00,2.00 L21.00,2.00 L22.00,2.00 L23.00,2.00 L24.00,2.00 L25.00,2.00 L26.00,2.00 L27.00,2.00 L28.00,2.00 L29.00,2.00 L30.00,2.00 L31.00,2.00 L32.00,2.00 L33.00,2.00 L34.00,2.00 L35.00,2.00 L36.00,2.00 L37.00,2.00 L38.00,2.00 L39.00,2.00 L40.00,2.00 L41.00,2.00 L42.00,2.00 L43.00,2.00 L44.00,2.00 L45.00,2.00 L46.00,2.00 L47.00,2.00 L48.00,2.00 L49.00,2.00 L50.00,2.00 L51.00,2.00 L52.00,2.00 L53.00,2.00 L54.00,2.00 L55.00,2.00 L56.00,2.00 L57.00,2.00 L58.00,2.00 L59.00,2.00 L60.00,2.00 L61.00,2.00 L62.00,2.00 L63.00,2.00 L64.00,2.00 L65.00,2.00 L66.00,2.00 L67.00,2.00 L68.00,2.00 L69.00,2.00 L70.00,2.00 L71.00,2.00 L72.00,2.00 L73.00,2.00 L74.00,2.00 L75.00,2.00 L76.00,2.00 L77.00,2.00 L78.00,2.00 L79.00,2.00 L80.00,2.00 L81.00,2.00 L82.00,2.00 L83.00,2.00 L84.00,2.00 L85.00,2.00 L86.00,2.00 L87.00,2.00 L88.00,2.00 L89.00,2.00 L90.00,2.00 L91.00,2.00 L92.00,2.00 L93.00,2.00 L94.00,2.00 L95.00,2.00 L96.00,2.00 L97.00,2.00 L98.00,2.00 L99.00,2.00 L100.00,2.00 L101.00,2.00 L102.00,2.00 L103.00,2.00 L104.00,2.00 L105.00,2.00 L106.00,2.00 L107.00,2.00 L108.00,2.00 L109.00,2.00 L110.00,2.00 L111.00,2.00 L112.00,2.00 L113.00,2.00 L114.00,2.00 L115.00,2.00 L116.00,2.00 L117.00,2.00 L118.00,2.00 L119.00,2.00 L120.00,2.00 L121.00,2.00 L122.00,2.00 L123.00,2.00 L124.00,2.00 L125.00,2.00 L126.00,2.00 L127.00,2.00 L128.00,2.00 L129.00,2.00 L130.00,2.00 L131.00,2.00 L132.00,2.00 L133.00,2.00 L134.00,2.00 L135.00,2.00 L136.00,2.00 L137.00,2.00 L138.00,2.00 L139.00,2.00 L140.00,2.00 L141.00,2.00 L142.00,2.00 L143.00,2.00 L144.00,2.00 L145.00,2.00 L146.00,2.00 L147.00,2.00 L148.00,2.00 L149.00,2.00 L150.00,2.00 L151.00,2.00 L152.00,2.00 L152.33,3.00 L152.67,4.00 L153.00,5.00 L153.33,6.00 L153.67,7.00 L154.00,8.00 L154.33,9.00 L154.67,10.00 L155.00,11.00 L155.33,12.00 L155.67,13.00 L156.00,14.00 L156.33,15.00 L156.67,16.00 L157.00,17.00 L157.33,18.00 L157.67,19.00 L158.00,20.00 L158.33,21.00 L158.67,22.00 L159.00,23.00 L159.33,24.00 L159.67,25.00 L160.00,26.00 L160.33,27.00 L160.67,28.00 L161.00,29.00 L161.33,30.00 L161.67,31.00 L162.00,32.00 L162.33,33.00 L162.67,34.00 L163.00,35.00 L163.33,36.00 L163.67,37.00 L164.00,38.00 L164.33,39.00 L164.67,40.00 L165.00,41.00 L165.33,42.00 L165.67,43.00 L166.00,44.00 L166.33,45.00 L166.67,46.00 L167.00,47.00 L167.33,48.00 L167.67,49.00 L168.00,50.00 L168.33,51.00 L168.67,52.00 L169.00,53.00 L169.33,54.00 L169.67,55.00 L170.00,56.00 L170.33,57.00 L170.67,58.00 L171.00,59.00 L171.33,60.00 L171.67,61.00 L172.00,62.00 L172.33,63.00 L172.67,64.00 L173.00,65.00 L173.33,66.00 L173.67,67.00 L174.00,68.00 L174.33,69.00 L174.67,70.00 L175.00,71.00 L175.33,72.00 L175.67,73.00 L176.00,74.00 L176.33,75.00 L176.67,76.00 L177.00,77.00 L177.33,78.00 L177.67,79.00 L178.00,80.00 L178.33,81.00 L178.67,82.00 L179.00,83.00 L179.33,84.00 L179.67,85.00 L180.00,86.00 L180.33,87.00 L180.67,88.00 L181.00,89.00 L181.33,90.00 L181.67,91.00 L182.00,92.00 L182.33,93.00 L182.67,94.00 L183.00,95.00 L183.33,96.00 L183.67,97.00 L184.00,98.00 L184.33,99.00 L184.67,100.00 L185.00,101.00 L185.33,102.00 L185.67,103.00 L186.00,104.00 L186.33,105.00 L186.67,106.00 L187.00,107.00 L187.33,108.00 L187.67,109.00 L188.00,110.00 L188.33,111.00 L188.67,112.00 L189.00,113.00 L189.33,114.00 L189.67,115.00 L190.00,116.00 L190.33,117.00 L190.67,118.00 L191.00,119.00 L191.33,120.00 L191.67,121.00 L192.00,122.00 L192.33,123.00 L192.67,124.00 "/>

<script>
let svgs = document.children[0];
let paths = Array.from(svgs.children).filter(function(c) {
    var orig = c.style.stroke;
    c.onmouseover = function() {
        c.style.stroke = "rgb(0, 0, 255)";
    };
    c.onmouseout = function () {
        c.style.stroke = orig;
    };
    c.onclick = function () {
        svgs.removeChild()
    }
});

for (let path of paths) {
    console.log(path);
}
</script></svg>