<svg xmlns="http://www.w3.org/2000/svg">
    <path fill-rule="evenodd" style="fill: none; stroke: rgb(0, 0, 0); stroke-width: 0.2;" d="M11.00,2.00 L12.00,2.00 L12.00,3.00 L12.00,4.00 L12.00,5.00 L12.00,6.00 L12.00,7.00 L12.00,8.00 L12.00,9.00 L12.00,10.00 L12.00,11.00 L12.00,12.00 L11.00,12.00 L10.00,12.00 L9.00,12.00 L8.00,12.00 L7.00,12.00 L6.00,12.00 L5.00,12.00 L4.00,12.00 L3.00,12.00 L2.00,12.00 L2.00,11.00 L2.00,10.00 L2.00,9.00 L2.00,8.00 L2.00,7.00 L2.00,6.00 L2.00,5.00 L2.00,4.00 L2.00,3.00 L2.00,2.00 L3.00,2.00 L4.00,2.00 L5.00,2.00 L6.00,2.00 L7.00,2.00 L8.00,2.00 L9.00,2.00 L10.00,2.00 L11.00,2.00 "/>

<script>
let svgs = document.children[0];
let paths = Array.from(svgs.children).filter(function(c) {
    var orig = c.style.stroke;
    c.onmouseover = function() {
        c.style.stroke = "rgb(0, 0, 255)";
    };
    c.onmouseout = function () {
        c.style.stroke = orig;
    };
    c.onclick = function () {
        svgs.removeChild();
    }
});

for (let path of paths) {
    console.log(path);
}
</script></svg>