<svg xmlns="http://www.w3.org/2000/svg">
<path d="M9.999996,58 L10,57 L9.999996,56 L10,55 L9.999996,54 L10,53 L10,52 L10,51 L10,50 L10,49 L10,48 L10,47 L10,46 L10,45 L10,44 L10,43 L10,42 L10,41 L10,40 L10,39 L10,38 L10,37 L10,36 L10,35 L10,34 L10,33 L10,32 L9.999998,31 L10,30 L9.999998,29 L10,28 L9.999998,27 L10,26 L9.999998,25 L10,24 L9.999998,23 L10,22 L9.999998,21 L10,20 L11,20 L12,20 L13,20 L14,20 L15,20 L16,20 L17,20 L18,20 L19,20 L20,20 L21,20 L22,20 L23,20 L24,20 L25,20 L26,20 L27,20 L28,20 L29,20 L30,20 L31,20 L32,20 L33,20 L34,20 L35,20 L36,20 L37,20 L38,20 L39,20 L40,21 L40,22 L40,23 L40,24 L40,25 L40,26 L40,27 L40,28 L40,29 L40,30 L40,31 L40,32 L40,33 L40,34 L40,35 L40,36 L40,37 L40,38 L40,39 L40,40 L40,41 L40,42 L40,43 L40,44 L40,45 L40,46 L40,47 L40,48 L40,49 L40,50 L40,51 L40,52 L40,53 L40,54 L40,55 L40,56 L40,57 L40,58 L40,59 L40,60 L40,61 L40,62 L40,63 L40,64 L40,65 L40,66 L40,67 L40,68 L40,69 L40,70 L40,71 L40,72 L40,73 L40,74 L40,75 L40,76 L40,77 L40,78 L40,79 L40,80 L40,81 L40,82 L40,83 L40,84 L40,85 L40,86 L40,87 L40,88 L40,89 L40,90 L40,91 L40,92 L40,93 L40,94 L40,95 L40,96 L40,97 L40,98 L40,99 L40,100 L40,101 L40,102 L40,103 L40,104 L40,105 L40,106 L40,107 L40,108 L40,109 L39,110 L38,110 L37,110 L36,110 L35,110 L34,110 L33,110 L32,110 L31,110 L30,110 L29,110 L28,110 L27,110 L26,110 L25,110 L24,110 L23,110 L22,110 L21,110 L20,110 L19,110 L18,110 L18,110 L17,110 L16,110 L16,110 L15,110 L14,110 L14,110 L13,110 L12,110 L12,110 L11,110 L10,110 L10,109 L10,108 L10,107 L10,106 L10,105 L10,104 L10,103 L10,102 L10,101 L10,100 L10,99 L10,98 L10,97 L10,96 L10,95 L10,94 L10,93 L10,92 L10,91 L10,90 L10,89 L10,88 L10,87 L10,86 L10,85 L10,84 L10,83 L10,82 L10,81 L10,80 L10,79 L10,78 L10,77 L10,76 L10,75 L10,74 L10,73 L10,72 L10,71 L10,70 L10,69 L10,68 L10,67 L10,66 L10,65 L10,64 L10,63 L9.999996,62 L10,61 L9.999996,60 L10,59 L9.999996,58" fill="none" stroke="black" stroke-width="3"/>
</svg>