<svg xmlns="http://www.w3.org/2000/svg">
    <path fill-rule="evenodd" style="fill: none; stroke: rgb(255, 0, 0); stroke-width: 0.2;" d="M72.00000,27.00000 L72.10146,26.00000 L72.42185,25.00000 L73.00000,24.00000 L74.00000,23.00000 L75.00000,22.42185 L76.00000,22.10146 L77.00000,22.00000 "/>
    <path fill-rule="evenodd" style="fill: none; stroke: rgb(255, 0, 0); stroke-width: 0.2;" d="M62.00000,17.00000 L61.89854,18.00000 L61.57815,19.00000 L61.00000,20.00000 L60.00000,21.00000 L59.00000,21.57815 L58.00000,21.89854 L57.00000,22.00000 "/>
    <path fill-rule="evenodd" style="fill: none; stroke: rgb(255, 0, 0); stroke-width: 0.2;" d="M12.00000,97.00000 L11.89854,98.00000 L11.57815,99.00000 L11.00000,100.00000 L10.00000,101.00000 L9.00000,101.57815 L8.00000,101.89854 L7.00000,102.00000 L6.00000,101.89854 L5.00000,101.57815 L4.00000,101.00000 L3.00000,100.00000 L2.42185,99.00000 L2.10146,98.00000 L2.00000,97.00000 L2.10146,96.00000 L2.42185,95.00000 L3.00000,94.00000 L4.00000,93.00000 L5.00000,92.42185 L6.00000,92.10146 L7.00000,92.00000 "/>
    <path fill-rule="evenodd" style="fill: none; stroke: rgb(255, 0, 0); stroke-width: 0.2;" d="M87.00000,42.00000 L86.00000,41.89854 L85.00000,41.57815 L84.00000,41.00000 L83.00000,40.00000 L82.42185,39.00000 L82.10146,38.00000 L82.00000,37.00000 "/>
    <path fill-rule="evenodd" style="fill: none; stroke: rgb(255, 0, 0); stroke-width: 0.2;" d="M67.00000,32.00000 L68.00000,32.10146 L69.00000,32.42185 L70.00000,33.00000 L71.00000,34.00000 L71.57815,35.00000 L71.89854,36.00000 L72.00000,37.00000 "/>
    <path fill-rule="evenodd" style="fill: none; stroke: rgb(255, 0, 0); stroke-width: 0.2;" d="M87.00000,92.00000 L86.00000,91.89854 L85.00000,91.57815 L84.00000,91.00000 L83.00000,90.00000 L82.42185,89.00000 L82.10146,88.00000 L82.00000,87.00000 "/>
    <path fill-rule="evenodd" style="fill: none; stroke: rgb(255, 0, 0); stroke-width: 0.2;" d="M7.00000,82.00000 L6.00000,81.89854 L5.00000,81.57815 L4.00000,81.00000 L3.00000,80.00000 L2.42185,79.00000 L2.10146,78.00000 L2.00000,77.00000 L2.10146,76.00000 L2.42185,75.00000 L3.00000,74.00000 L4.00000,73.00000 L5.00000,72.42185 L6.00000,72.10146 L7.00000,72.00000 "/>
    <path fill-rule="evenodd" style="fill: none; stroke: rgb(255, 0, 0); stroke-width: 0.2;" d="M27.00000,12.00000 L26.00000,11.89854 L25.00000,11.57815 L24.00000,11.00000 L23.00000,10.00000 L22.42185,9.00000 L22.10146,8.00000 L22.00000,7.00000 "/>
    <path fill-rule="evenodd" style="fill: none; stroke: rgb(255, 0, 0); stroke-width: 0.2;" d="M57.00000,62.00000 L56.00000,61.89854 L55.00000,61.57815 L54.00000,61.00000 L53.00000,60.00000 L52.42185,59.00000 L52.10146,58.00000 L52.00000,57.00000 "/>
    <path fill-rule="evenodd" style="fill: none; stroke: rgb(255, 0, 0); stroke-width: 0.2;" d="M22.00000,47.00000 L21.89854,48.00000 L21.57815,49.00000 L21.00000,50.00000 L20.00000,51.00000 L19.00000,51.57815 L18.00000,51.89854 L17.00000,52.00000 "/>
    <path fill-rule="evenodd" style="fill: none; stroke: rgb(255, 0, 0); stroke-width: 0.2;" d="M42.00000,27.00000 L41.89854,28.00000 L41.57815,29.00000 L41.00000,30.00000 L40.00000,31.00000 L39.00000,31.57815 L38.00000,31.89854 L37.00000,32.00000 "/>
    <path fill-rule="evenodd" style="fill: none; stroke: rgb(255, 0, 0); stroke-width: 0.2;" d="M67.00000,92.00000 L66.00000,91.89854 L65.00000,91.57815 L64.00000,91.00000 L63.00000,90.00000 L62.42185,89.00000 L62.10146,88.00000 L62.00000,87.00000 "/>
    <path fill-rule="evenodd" style="fill: none; stroke: rgb(255, 0, 0); stroke-width: 0.2;" d="M97.00000,52.00000 L98.00000,52.10146 L99.00000,52.42185 L100.00000,53.00000 L101.00000,54.00000 L101.57815,55.00000 L101.89854,56.00000 L102.00000,57.00000 L101.89854,58.00000 L101.57815,59.00000 L101.00000,60.00000 L100.00000,61.00000 L99.00000,61.57815 L98.00000,61.89854 L97.00000,62.00000 "/>
    <path fill-rule="evenodd" style="fill: none; stroke: rgb(255, 0, 0); stroke-width: 0.2;" d="M92.00000,47.00000 L91.89854,48.00000 L91.57815,49.00000 L91.00000,50.00000 L90.00000,51.00000 L89.00000,51.57815 L88.00000,51.89854 L87.00000,52.00000 "/>
    <path fill-rule="evenodd" style="fill: none; stroke: rgb(255, 0, 0); stroke-width: 0.2;" d="M67.00000,82.00000 L68.00000,82.10146 L69.00000,82.42185 L70.00000,83.00000 L71.00000,84.00000 L71.57815,85.00000 L71.89854,86.00000 L72.00000,87.00000 "/>
    <path fill-rule="evenodd" style="fill: none; stroke: rgb(255, 0, 0); stroke-width: 0.2;" d="M12.00000,7.00000 L12.10146,6.00000 L12.42185,5.00000 L13.00000,4.00000 L14.00000,3.00000 L15.00000,2.42185 L16.00000,2.10146 L17.00000,2.00000 L18.00000,2.10146 L19.00000,2.42185 L20.00000,3.00000 L21.00000,4.00000 L21.57815,5.00000 L21.89854,6.00000 L22.00000,7.00000 "/>
    <path fill-rule="evenodd" style="fill: none; stroke: rgb(255, 0, 0); stroke-width: 0.2;" d="M12.00000,17.00000 L11.89854,18.00000 L11.57815,19.00000 L11.00000,20.00000 L10.00000,21.00000 L9.00000,21.57815 L8.00000,21.89854 L7.00000,22.00000 "/>
    <path fill-rule="evenodd" style="fill: none; stroke: rgb(255, 0, 0); stroke-width: 0.2;" d="M87.00000,12.00000 L86.00000,11.89854 L85.00000,11.57815 L84.00000,11.00000 L83.00000,10.00000 L82.42185,9.00000 L82.10146,8.00000 L82.00000,7.00000 "/>
    <path fill-rule="evenodd" style="fill: none; stroke: rgb(255, 0, 0); stroke-width: 0.2;" d="M17.00000,52.00000 L16.00000,51.89854 L15.00000,51.57815 L14.00000,51.00000 L13.00000,50.00000 L12.42185,49.00000 L12.10146,48.00000 L12.00000,47.00000 "/>
    <path fill-rule="evenodd" style="fill: none; stroke: rgb(255, 0, 0); stroke-width: 0.2;" d="M47.00000,62.00000 L46.00000,61.89854 L45.00000,61.57815 L44.00000,61.00000 L43.00000,60.00000 L42.42185,59.00000 L42.10146,58.00000 L42.00000,57.00000 "/>
    <path fill-rule="evenodd" style="fill: none; stroke: rgb(255, 0, 0); stroke-width: 0.2;" d="M92.00000,57.00000 L92.10146,56.00000 L92.42185,55.00000 L93.00000,54.00000 L94.00000,53.00000 L95.00000,52.42185 L96.00000,52.10146 L97.00000,52.00000 "/>
    <path fill-rule="evenodd" style="fill: none; stroke: rgb(255, 0, 0); stroke-width: 0.2;" d="M22.00000,27.00000 L21.89854,28.00000 L21.57815,29.00000 L21.00000,30.00000 L20.00000,31.00000 L19.00000,31.57815 L18.00000,31.89854 L17.00000,32.00000 "/>
    <path fill-rule="evenodd" style="fill: none; stroke: rgb(255, 0, 0); stroke-width: 0.2;" d="M67.00000,82.00000 L66.00000,81.89854 L65.00000,81.57815 L64.00000,81.00000 L63.00000,80.00000 L62.42185,79.00000 L62.10146,78.00000 L62.00000,77.00000 "/>
    <path fill-rule="evenodd" style="fill: none; stroke: rgb(255, 0, 0); stroke-width: 0.2;" d="M17.00000,12.00000 L18.00000,12.10146 L19.00000,12.42185 L20.00000,13.00000 L21.00000,14.00000 L21.57815,15.00000 L21.89854,16.00000 L22.00000,17.00000 "/>
    <path fill-rule="evenodd" style="fill: none; stroke: rgb(255, 0, 0); stroke-width: 0.2;" d="M42.00000,7.00000 L42.10146,6.00000 L42.42185,5.00000 L43.00000,4.00000 L44.00000,3.00000 L45.00000,2.42185 L46.00000,2.10146 L47.00000,2.00000 L48.00000,2.10146 L49.00000,2.42185 L50.00000,3.00000 L51.00000,4.00000 L51.57815,5.00000 L51.89854,6.00000 L52.00000,7.00000 "/>
    <path fill-rule="evenodd" style="fill: none; stroke: rgb(255, 0, 0); stroke-width: 0.2;" d="M42.00000,17.00000 L42.10146,16.00000 L42.42185,15.00000 L43.00000,14.00000 L44.00000,13.00000 L45.00000,12.42185 L46.00000,12.10146 L47.00000,12.00000 "/>
    <path fill-rule="evenodd" style="fill: none; stroke: rgb(255, 0, 0); stroke-width: 0.2;" d="M62.00000,87.00000 L62.10146,86.00000 L62.42185,85.00000 L63.00000,84.00000 L64.00000,83.00000 L65.00000,82.42185 L66.00000,82.10146 L67.00000,82.00000 "/>
    <path fill-rule="evenodd" style="fill: none; stroke: rgb(255, 0, 0); stroke-width: 0.2;" d="M7.00000,92.00000 L6.00000,91.89854 L5.00000,91.57815 L4.00000,91.00000 L3.00000,90.00000 L2.42185,89.00000 L2.10146,88.00000 L2.00000,87.00000 L2.10146,86.00000 L2.42185,85.00000 L3.00000,84.00000 L4.00000,83.00000 L5.00000,82.42185 L6.00000,82.10146 L7.00000,82.00000 "/>
    <path fill-rule="evenodd" style="fill: none; stroke: rgb(255, 0, 0); stroke-width: 0.2;" d="M82.00000,47.00000 L81.89854,48.00000 L81.57815,49.00000 L81.00000,50.00000 L80.00000,51.00000 L79.00000,51.57815 L78.00000,51.89854 L77.00000,52.00000 "/>
    <path fill-rule="evenodd" style="fill: none; stroke: rgb(255, 0, 0); stroke-width: 0.2;" d="M32.00000,7.00000 L32.10146,6.00000 L32.42185,5.00000 L33.00000,4.00000 L34.00000,3.00000 L35.00000,2.42185 L36.00000,2.10146 L37.00000,2.00000 L38.00000,2.10146 L39.00000,2.42185 L40.00000,3.00000 L41.00000,4.00000 L41.57815,5.00000 L41.89854,6.00000 L42.00000,7.00000 "/>
    <path fill-rule="evenodd" style="fill: none; stroke: rgb(255, 0, 0); stroke-width: 0.2;" d="M92.00000,67.00000 L91.89854,68.00000 L91.57815,69.00000 L91.00000,70.00000 L90.00000,71.00000 L89.00000,71.57815 L88.00000,71.89854 L87.00000,72.00000 "/>
    <path fill-rule="evenodd" style="fill: none; stroke: rgb(255, 0, 0); stroke-width: 0.2;" d="M22.00000,57.00000 L22.10146,56.00000 L22.42185,55.00000 L23.00000,54.00000 L24.00000,53.00000 L25.00000,52.42185 L26.00000,52.10146 L27.00000,52.00000 "/>
    <path fill-rule="evenodd" style="fill: none; stroke: rgb(255, 0, 0); stroke-width: 0.2;" d="M67.00000,52.00000 L68.00000,52.10146 L69.00000,52.42185 L70.00000,53.00000 L71.00000,54.00000 L71.57815,55.00000 L71.89854,56.00000 L72.00000,57.00000 "/>
    <path fill-rule="evenodd" style="fill: none; stroke: rgb(255, 0, 0); stroke-width: 0.2;" d="M12.00000,37.00000 L12.10146,36.00000 L12.42185,35.00000 L13.00000,34.00000 L14.00000,33.00000 L15.00000,32.42185 L16.00000,32.10146 L17.00000,32.00000 "/>
    <path fill-rule="evenodd" style="fill: none; stroke: rgb(255, 0, 0); stroke-width: 0.2;" d="M37.00000,22.00000 L36.00000,21.89854 L35.00000,21.57815 L34.00000,21.00000 L33.00000,20.00000 L32.42185,19.00000 L32.10146,18.00000 L32.00000,17.00000 "/>
    <path fill-rule="evenodd" style="fill: none; stroke: rgb(255, 0, 0); stroke-width: 0.2;" d="M22.00000,67.00000 L22.10146,66.00000 L22.42185,65.00000 L23.00000,64.00000 L24.00000,63.00000 L25.00000,62.42185 L26.00000,62.10146 L27.00000,62.00000 "/>
    <path fill-rule="evenodd" style="fill: none; stroke: rgb(255, 0, 0); stroke-width: 0.2;" d="M37.00000,62.00000 L36.00000,61.89854 L35.00000,61.57815 L34.00000,61.00000 L33.00000,60.00000 L32.42185,59.00000 L32.10146,58.00000 L32.00000,57.00000 "/>
    <path fill-rule="evenodd" style="fill: none; stroke: rgb(255, 0, 0); stroke-width: 0.2;" d="M82.00000,37.00000 L82.10146,36.00000 L82.42185,35.00000 L83.00000,34.00000 L84.00000,33.00000 L85.00000,32.42185 L86.00000,32.10146 L87.00000,32.00000 "/>
    <path fill-rule="evenodd" style="fill: none; stroke: rgb(255, 0, 0); stroke-width: 0.2;" d="M82.00000,47.00000 L82.10146,46.00000 L82.42185,45.00000 L83.00000,44.00000 L84.00000,43.00000 L85.00000,42.42185 L86.00000,42.10146 L87.00000,42.00000 "/>
    <path fill-rule="evenodd" style="fill: none; stroke: rgb(255, 0, 0); stroke-width: 0.2;" d="M17.00000,42.00000 L16.00000,41.89854 L15.00000,41.57815 L14.00000,41.00000 L13.00000,40.00000 L12.42185,39.00000 L12.10146,38.00000 L12.00000,37.00000 "/>
    <path fill-rule="evenodd" style="fill: none; stroke: rgb(255, 0, 0); stroke-width: 0.2;" d="M47.00000,92.00000 L48.00000,92.10146 L49.00000,92.42185 L50.00000,93.00000 L51.00000,94.00000 L51.57815,95.00000 L51.89854,96.00000 L52.00000,97.00000 "/>
    <path fill-rule="evenodd" style="fill: none; stroke: rgb(255, 0, 0); stroke-width: 0.2;" d="M97.00000,92.00000 L96.00000,91.89854 L95.00000,91.57815 L94.00000,91.00000 L93.00000,90.00000 L92.42185,89.00000 L92.10146,88.00000 L92.00000,87.00000 "/>
    <path fill-rule="evenodd" style="fill: none; stroke: rgb(255, 0, 0); stroke-width: 0.2;" d="M17.00000,72.00000 L16.00000,71.89854 L15.00000,71.57815 L14.00000,71.00000 L13.00000,70.00000 L12.42185,69.00000 L12.10146,68.00000 L12.00000,67.00000 "/>
    <path fill-rule="evenodd" style="fill: none; stroke: rgb(255, 0, 0); stroke-width: 0.2;" d="M72.00000,67.00000 L72.10146,66.00000 L72.42185,65.00000 L73.00000,64.00000 L74.00000,63.00000 L75.00000,62.42185 L76.00000,62.10146 L77.00000,62.00000 "/>
    <path fill-rule="evenodd" style="fill: none; stroke: rgb(255, 0, 0); stroke-width: 0.2;" d="M27.00000,72.00000 L26.00000,71.89854 L25.00000,71.57815 L24.00000,71.00000 L23.00000,70.00000 L22.42185,69.00000 L22.10146,68.00000 L22.00000,67.00000 "/>
    <path fill-rule="evenodd" style="fill: none; stroke: rgb(255, 0, 0); stroke-width: 0.2;" d="M92.00000,7.00000 L91.89854,8.00000 L91.57815,9.00000 L91.00000,10.00000 L90.00000,11.00000 L89.00000,11.57815 L88.00000,11.89854 L87.00000,12.00000 "/>
    <path fill-rule="evenodd" style="fill: none; stroke: rgb(255, 0, 0); stroke-width: 0.2;" d="M82.00000,77.00000 L81.89854,78.00000 L81.57815,79.00000 L81.00000,80.00000 L80.00000,81.00000 L79.00000,81.57815 L78.00000,81.89854 L77.00000,82.00000 "/>
    <path fill-rule="evenodd" style="fill: none; stroke: rgb(255, 0, 0); stroke-width: 0.2;" d="M22.00000,97.00000 L22.10146,96.00000 L22.42185,95.00000 L23.00000,94.00000 L24.00000,93.00000 L25.00000,92.42185 L26.00000,92.10146 L27.00000,92.00000 "/>
    <path fill-rule="evenodd" style="fill: none; stroke: rgb(255, 0, 0); stroke-width: 0.2;" d="M92.00000,87.00000 L92.10146,86.00000 L92.42185,85.00000 L93.00000,84.00000 L94.00000,83.00000 L95.00000,82.42185 L96.00000,82.10146 L97.00000,82.00000 "/>
    <path fill-rule="evenodd" style="fill: none; stroke: rgb(255, 0, 0); stroke-width: 0.2;" d="M92.00000,77.00000 L91.89854,78.00000 L91.57815,79.00000 L91.00000,80.00000 L90.00000,81.00000 L89.00000,81.57815 L88.00000,81.89854 L87.00000,82.00000 "/>
    <path fill-rule="evenodd" style="fill: none; stroke: rgb(255, 0, 0); stroke-width: 0.2;" d="M7.00000,92.00000 L8.00000,92.10146 L9.00000,92.42185 L10.00000,93.00000 L11.00000,94.00000 L11.57815,95.00000 L11.89854,96.00000 L12.00000,97.00000 "/>
    <path fill-rule="evenodd" style="fill: none; stroke: rgb(255, 0, 0); stroke-width: 0.2;" d="M57.00000,12.00000 L58.00000,12.10146 L59.00000,12.42185 L60.00000,13.00000 L61.00000,14.00000 L61.57815,15.00000 L61.89854,16.00000 L62.00000,17.00000 "/>
    <path fill-rule="evenodd" style="fill: none; stroke: rgb(255, 0, 0); stroke-width: 0.2;" d="M7.00000,82.00000 L8.00000,82.10146 L9.00000,82.42185 L10.00000,83.00000 L11.00000,84.00000 L11.57815,85.00000 L11.89854,86.00000 L12.00000,87.00000 "/>
    <path fill-rule="evenodd" style="fill: none; stroke: rgb(255, 0, 0); stroke-width: 0.2;" d="M57.00000,42.00000 L58.00000,42.10146 L59.00000,42.42185 L60.00000,43.00000 L61.00000,44.00000 L61.57815,45.00000 L61.89854,46.00000 L62.00000,47.00000 "/>
    <path fill-rule="evenodd" style="fill: none; stroke: rgb(255, 0, 0); stroke-width: 0.2;" d="M7.00000,22.00000 L6.00000,21.89854 L5.00000,21.57815 L4.00000,21.00000 L3.00000,20.00000 L2.42185,19.00000 L2.10146,18.00000 L2.00000,17.00000 L2.10146,16.00000 L2.42185,15.00000 L3.00000,14.00000 L4.00000,13.00000 L5.00000,12.42185 L6.00000,12.10146 L7.00000,12.00000 "/>
    <path fill-rule="evenodd" style="fill: none; stroke: rgb(255, 0, 0); stroke-width: 0.2;" d="M77.00000,22.00000 L76.00000,21.89854 L75.00000,21.57815 L74.00000,21.00000 L73.00000,20.00000 L72.42185,19.00000 L72.10146,18.00000 L72.00000,17.00000 "/>
    <path fill-rule="evenodd" style="fill: none; stroke: rgb(255, 0, 0); stroke-width: 0.2;" d="M42.00000,17.00000 L41.89854,18.00000 L41.57815,19.00000 L41.00000,20.00000 L40.00000,21.00000 L39.00000,21.57815 L38.00000,21.89854 L37.00000,22.00000 "/>
    <path fill-rule="evenodd" style="fill: none; stroke: rgb(255, 0, 0); stroke-width: 0.2;" d="M57.00000,52.00000 L56.00000,51.89854 L55.00000,51.57815 L54.00000,51.00000 L53.00000,50.00000 L52.42185,49.00000 L52.10146,48.00000 L52.00000,47.00000 "/>
    <path fill-rule="evenodd" style="fill: none; stroke: rgb(255, 0, 0); stroke-width: 0.2;" d="M57.00000,32.00000 L58.00000,32.10146 L59.00000,32.42185 L60.00000,33.00000 L61.00000,34.00000 L61.57815,35.00000 L61.89854,36.00000 L62.00000,37.00000 "/>
    <path fill-rule="evenodd" style="fill: none; stroke: rgb(255, 0, 0); stroke-width: 0.2;" d="M82.00000,7.00000 L82.10146,6.00000 L82.42185,5.00000 L83.00000,4.00000 L84.00000,3.00000 L85.00000,2.42185 L86.00000,2.10146 L87.00000,2.00000 L88.00000,2.10146 L89.00000,2.42185 L90.00000,3.00000 L91.00000,4.00000 L91.57815,5.00000 L91.89854,6.00000 L92.00000,7.00000 "/>
    <path fill-rule="evenodd" style="fill: none; stroke: rgb(255, 0, 0); stroke-width: 0.2;" d="M52.00000,27.00000 L51.89854,28.00000 L51.57815,29.00000 L51.00000,30.00000 L50.00000,31.00000 L49.00000,31.57815 L48.00000,31.89854 L47.00000,32.00000 "/>
    <path fill-rule="evenodd" style="fill: none; stroke: rgb(255, 0, 0); stroke-width: 0.2;" d="M57.00000,32.00000 L56.00000,31.89854 L55.00000,31.57815 L54.00000,31.00000 L53.00000,30.00000 L52.42185,29.00000 L52.10146,28.00000 L52.00000,27.00000 "/>
    <path fill-rule="evenodd" style="fill: none; stroke: rgb(255, 0, 0); stroke-width: 0.2;" d="M22.00000,7.00000 L22.10146,6.00000 L22.42185,5.00000 L23.00000,4.00000 L24.00000,3.00000 L25.00000,2.42185 L26.00000,2.10146 L27.00000,2.00000 L28.00000,2.10146 L29.00000,2.42185 L30.00000,3.00000 L31.00000,4.00000 L31.57815,5.00000 L31.89854,6.00000 L32.00000,7.00000 "/>
    <path fill-rule="evenodd" style="fill: none; stroke: rgb(255, 0, 0); stroke-width: 0.2;" d="M52.00000,47.00000 L52.10146,46.00000 L52.42185,45.00000 L53.00000,44.00000 L54.00000,43.00000 L55.00000,42.42185 L56.00000,42.10146 L57.00000,42.00000 "/>
    <path fill-rule="evenodd" style="fill: none; stroke: rgb(255, 0, 0); stroke-width: 0.2;" d="M62.00000,97.00000 L62.10146,96.00000 L62.42185,95.00000 L63.00000,94.00000 L64.00000,93.00000 L65.00000,92.42185 L66.00000,92.10146 L67.00000,92.00000 "/>
    <path fill-rule="evenodd" style="fill: none; stroke: rgb(255, 0, 0); stroke-width: 0.2;" d="M92.00000,97.00000 L91.89854,98.00000 L91.57815,99.00000 L91.00000,100.00000 L90.00000,101.00000 L89.00000,101.57815 L88.00000,101.89854 L87.00000,102.00000 L86.00000,101.89854 L85.00000,101.57815 L84.00000,101.00000 L83.00000,100.00000 L82.42185,99.00000 L82.10146,98.00000 L82.00000,97.00000 "/>
    <path fill-rule="evenodd" style="fill: none; stroke: rgb(255, 0, 0); stroke-width: 0.2;" d="M82.00000,67.00000 L81.89854,68.00000 L81.57815,69.00000 L81.00000,70.00000 L80.00000,71.00000 L79.00000,71.57815 L78.00000,71.89854 L77.00000,72.00000 "/>
    <path fill-rule="evenodd" style="fill: none; stroke: rgb(255, 0, 0); stroke-width: 0.2;" d="M77.00000,12.00000 L78.00000,12.10146 L79.00000,12.42185 L80.00000,13.00000 L81.00000,14.00000 L81.57815,15.00000 L81.89854,16.00000 L82.00000,17.00000 "/>
    <path fill-rule="evenodd" style="fill: none; stroke: rgb(255, 0, 0); stroke-width: 0.2;" d="M32.00000,37.00000 L32.10146,36.00000 L32.42185,35.00000 L33.00000,34.00000 L34.00000,33.00000 L35.00000,32.42185 L36.00000,32.10146 L37.00000,32.00000 "/>
    <path fill-rule="evenodd" style="fill: none; stroke: rgb(255, 0, 0); stroke-width: 0.2;" d="M47.00000,32.00000 L48.00000,32.10146 L49.00000,32.42185 L50.00000,33.00000 L51.00000,34.00000 L51.57815,35.00000 L51.89854,36.00000 L52.00000,37.00000 "/>
    <path fill-rule="evenodd" style="fill: none; stroke: rgb(255, 0, 0); stroke-width: 0.2;" d="M92.00000,57.00000 L91.89854,58.00000 L91.57815,59.00000 L91.00000,60.00000 L90.00000,61.00000 L89.00000,61.57815 L88.00000,61.89854 L87.00000,62.00000 "/>
    <path fill-rule="evenodd" style="fill: none; stroke: rgb(255, 0, 0); stroke-width: 0.2;" d="M77.00000,62.00000 L78.00000,62.10146 L79.00000,62.42185 L80.00000,63.00000 L81.00000,64.00000 L81.57815,65.00000 L81.89854,66.00000 L82.00000,67.00000 "/>
    <path fill-rule="evenodd" style="fill: none; stroke: rgb(255, 0, 0); stroke-width: 0.2;" d="M97.00000,22.00000 L98.00000,22.10146 L99.00000,22.42185 L100.00000,23.00000 L101.00000,24.00000 L101.57815,25.00000 L101.89854,26.00000 L102.00000,27.00000 L101.89854,28.00000 L101.57815,29.00000 L101.00000,30.00000 L100.00000,31.00000 L99.00000,31.57815 L98.00000,31.89854 L97.00000,32.00000 "/>
    <path fill-rule="evenodd" style="fill: none; stroke: rgb(255, 0, 0); stroke-width: 0.2;" d="M97.00000,92.00000 L98.00000,92.10146 L99.00000,92.42185 L100.00000,93.00000 L101.00000,94.00000 L101.57815,95.00000 L101.89854,96.00000 L102.00000,97.00000 L101.89854,98.00000 L101.57815,99.00000 L101.00000,100.00000 L100.00000,101.00000 L99.00000,101.57815 L98.00000,101.89854 L97.00000,102.00000 L96.00000,101.89854 L95.00000,101.57815 L94.00000,101.00000 L93.00000,100.00000 L92.42185,99.00000 L92.10146,98.00000 L92.00000,97.00000 "/>
    <path fill-rule="evenodd" style="fill: none; stroke: rgb(255, 0, 0); stroke-width: 0.2;" d="M62.00000,57.00000 L62.10146,56.00000 L62.42185,55.00000 L63.00000,54.00000 L64.00000,53.00000 L65.00000,52.42185 L66.00000,52.10146 L67.00000,52.00000 "/>
    <path fill-rule="evenodd" style="fill: none; stroke: rgb(255, 0, 0); stroke-width: 0.2;" d="M22.00000,97.00000 L21.89854,98.00000 L21.57815,99.00000 L21.00000,100.00000 L20.00000,101.00000 L19.00000,101.57815 L18.00000,101.89854 L17.00000,102.00000 L16.00000,101.89854 L15.00000,101.57815 L14.00000,101.00000 L13.00000,100.00000 L12.42185,99.00000 L12.10146,98.00000 L12.00000,97.00000 "/>
    <path fill-rule="evenodd" style="fill: none; stroke: rgb(255, 0, 0); stroke-width: 0.2;" d="M52.00000,7.00000 L52.10146,6.00000 L52.42185,5.00000 L53.00000,4.00000 L54.00000,3.00000 L55.00000,2.42185 L56.00000,2.10146 L57.00000,2.00000 L58.00000,2.10146 L59.00000,2.42185 L60.00000,3.00000 L61.00000,4.00000 L61.57815,5.00000 L61.89854,6.00000 L62.00000,7.00000 "/>
    <path fill-rule="evenodd" style="fill: none; stroke: rgb(255, 0, 0); stroke-width: 0.2;" d="M72.00000,97.00000 L71.89854,98.00000 L71.57815,99.00000 L71.00000,100.00000 L70.00000,101.00000 L69.00000,101.57815 L68.00000,101.89854 L67.00000,102.00000 L66.00000,101.89854 L65.00000,101.57815 L64.00000,101.00000 L63.00000,100.00000 L62.42185,99.00000 L62.10146,98.00000 L62.00000,97.00000 "/>
    <path fill-rule="evenodd" style="fill: none; stroke: rgb(255, 0, 0); stroke-width: 0.2;" d="M77.00000,42.00000 L78.00000,42.10146 L79.00000,42.42185 L80.00000,43.00000 L81.00000,44.00000 L81.57815,45.00000 L81.89854,46.00000 L82.00000,47.00000 "/>
    <path fill-rule="evenodd" style="fill: none; stroke: rgb(255, 0, 0); stroke-width: 0.2;" d="M67.00000,42.00000 L66.00000,41.89854 L65.00000,41.57815 L64.00000,41.00000 L63.00000,40.00000 L62.42185,39.00000 L62.10146,38.00000 L62.00000,37.00000 "/>
    <path fill-rule="evenodd" style="fill: none; stroke: rgb(255, 0, 0); stroke-width: 0.2;" d="M82.00000,87.00000 L82.10146,86.00000 L82.42185,85.00000 L83.00000,84.00000 L84.00000,83.00000 L85.00000,82.42185 L86.00000,82.10146 L87.00000,82.00000 "/>
    <path fill-rule="evenodd" style="fill: none; stroke: rgb(255, 0, 0); stroke-width: 0.2;" d="M17.00000,12.00000 L16.00000,11.89854 L15.00000,11.57815 L14.00000,11.00000 L13.00000,10.00000 L12.42185,9.00000 L12.10146,8.00000 L12.00000,7.00000 "/>
    <path fill-rule="evenodd" style="fill: none; stroke: rgb(255, 0, 0); stroke-width: 0.2;" d="M92.00000,37.00000 L92.10146,36.00000 L92.42185,35.00000 L93.00000,34.00000 L94.00000,33.00000 L95.00000,32.42185 L96.00000,32.10146 L97.00000,32.00000 "/>
    <path fill-rule="evenodd" style="fill: none; stroke: rgb(255, 0, 0); stroke-width: 0.2;" d="M72.00000,7.00000 L72.10146,6.00000 L72.42185,5.00000 L73.00000,4.00000 L74.00000,3.00000 L75.00000,2.42185 L76.00000,2.10146 L77.00000,2.00000 L78.00000,2.10146 L79.00000,2.42185 L80.00000,3.00000 L81.00000,4.00000 L81.57815,5.00000 L81.89854,6.00000 L82.00000,7.00000 "/>
    <path fill-rule="evenodd" style="fill: none; stroke: rgb(255, 0, 0); stroke-width: 0.2;" d="M37.00000,12.00000 L36.00000,11.89854 L35.00000,11.57815 L34.00000,11.00000 L33.00000,10.00000 L32.42185,9.00000 L32.10146,8.00000 L32.00000,7.00000 "/>
    <path fill-rule="evenodd" style="fill: none; stroke: rgb(255, 0, 0); stroke-width: 0.2;" d="M97.00000,32.00000 L96.00000,31.89854 L95.00000,31.57815 L94.00000,31.00000 L93.00000,30.00000 L92.42185,29.00000 L92.10146,28.00000 L92.00000,27.00000 "/>
    <path fill-rule="evenodd" style="fill: none; stroke: rgb(255, 0, 0); stroke-width: 0.2;" d="M72.00000,57.00000 L71.89854,58.00000 L71.57815,59.00000 L71.00000,60.00000 L70.00000,61.00000 L69.00000,61.57815 L68.00000,61.89854 L67.00000,62.00000 "/>
    <path fill-rule="evenodd" style="fill: none; stroke: rgb(255, 0, 0); stroke-width: 0.2;" d="M72.00000,87.00000 L71.89854,88.00000 L71.57815,89.00000 L71.00000,90.00000 L70.00000,91.00000 L69.00000,91.57815 L68.00000,91.89854 L67.00000,92.00000 "/>
    <path fill-rule="evenodd" style="fill: none; stroke: rgb(255, 0, 0); stroke-width: 0.2;" d="M27.00000,92.00000 L28.00000,92.10146 L29.00000,92.42185 L30.00000,93.00000 L31.00000,94.00000 L31.57815,95.00000 L31.89854,96.00000 L32.00000,97.00000 "/>
    <path fill-rule="evenodd" style="fill: none; stroke: rgb(255, 0, 0); stroke-width: 0.2;" d="M12.00000,37.00000 L11.89854,38.00000 L11.57815,39.00000 L11.00000,40.00000 L10.00000,41.00000 L9.00000,41.57815 L8.00000,41.89854 L7.00000,42.00000 "/>
    <path fill-rule="evenodd" style="fill: none; stroke: rgb(255, 0, 0); stroke-width: 0.2;" d="M37.00000,12.00000 L38.00000,12.10146 L39.00000,12.42185 L40.00000,13.00000 L41.00000,14.00000 L41.57815,15.00000 L41.89854,16.00000 L42.00000,17.00000 "/>
    <path fill-rule="evenodd" style="fill: none; stroke: rgb(255, 0, 0); stroke-width: 0.2;" d="M42.00000,77.00000 L42.10146,76.00000 L42.42185,75.00000 L43.00000,74.00000 L44.00000,73.00000 L45.00000,72.42185 L46.00000,72.10146 L47.00000,72.00000 "/>
    <path fill-rule="evenodd" style="fill: none; stroke: rgb(255, 0, 0); stroke-width: 0.2;" d="M62.00000,77.00000 L61.89854,78.00000 L61.57815,79.00000 L61.00000,80.00000 L60.00000,81.00000 L59.00000,81.57815 L58.00000,81.89854 L57.00000,82.00000 "/>
    <path fill-rule="evenodd" style="fill: none; stroke: rgb(255, 0, 0); stroke-width: 0.2;" d="M97.00000,12.00000 L96.00000,11.89854 L95.00000,11.57815 L94.00000,11.00000 L93.00000,10.00000 L92.42185,9.00000 L92.10146,8.00000 L92.00000,7.00000 "/>
    <path fill-rule="evenodd" style="fill: none; stroke: rgb(255, 0, 0); stroke-width: 0.2;" d="M22.00000,77.00000 L21.89854,78.00000 L21.57815,79.00000 L21.00000,80.00000 L20.00000,81.00000 L19.00000,81.57815 L18.00000,81.89854 L17.00000,82.00000 "/>
    <path fill-rule="evenodd" style="fill: none; stroke: rgb(255, 0, 0); stroke-width: 0.2;" d="M22.00000,17.00000 L21.89854,18.00000 L21.57815,19.00000 L21.00000,20.00000 L20.00000,21.00000 L19.00000,21.57815 L18.00000,21.89854 L17.00000,22.00000 "/>
    <path fill-rule="evenodd" style="fill: none; stroke: rgb(255, 0, 0); stroke-width: 0.2;" d="M72.00000,57.00000 L72.10146,56.00000 L72.42185,55.00000 L73.00000,54.00000 L74.00000,53.00000 L75.00000,52.42185 L76.00000,52.10146 L77.00000,52.00000 "/>
    <path fill-rule="evenodd" style="fill: none; stroke: rgb(255, 0, 0); stroke-width: 0.2;" d="M52.00000,97.00000 L51.89854,98.00000 L51.57815,99.00000 L51.00000,100.00000 L50.00000,101.00000 L49.00000,101.57815 L48.00000,101.89854 L47.00000,102.00000 L46.00000,101.89854 L45.00000,101.57815 L44.00000,101.00000 L43.00000,100.00000 L42.42185,99.00000 L42.10146,98.00000 L42.00000,97.00000 "/>
    <path fill-rule="evenodd" style="fill: none; stroke: rgb(255, 0, 0); stroke-width: 0.2;" d="M87.00000,72.00000 L86.00000,71.89854 L85.00000,71.57815 L84.00000,71.00000 L83.00000,70.00000 L82.42185,69.00000 L82.10146,68.00000 L82.00000,67.00000 "/>
    <path fill-rule="evenodd" style="fill: none; stroke: rgb(255, 0, 0); stroke-width: 0.2;" d="M22.00000,87.00000 L21.89854,88.00000 L21.57815,89.00000 L21.00000,90.00000 L20.00000,91.00000 L19.00000,91.57815 L18.00000,91.89854 L17.00000,92.00000 "/>
    <path fill-rule="evenodd" style="fill: none; stroke: rgb(255, 0, 0); stroke-width: 0.2;" d="M47.00000,62.00000 L48.00000,62.10146 L49.00000,62.42185 L50.00000,63.00000 L51.00000,64.00000 L51.57815,65.00000 L51.89854,66.00000 L52.00000,67.00000 "/>
    <path fill-rule="evenodd" style="fill: none; stroke: rgb(255, 0, 0); stroke-width: 0.2;" d="M22.00000,17.00000 L22.10146,16.00000 L22.42185,15.00000 L23.00000,14.00000 L24.00000,13.00000 L25.00000,12.42185 L26.00000,12.10146 L27.00000,12.00000 "/>
    <path fill-rule="evenodd" style="fill: none; stroke: rgb(255, 0, 0); stroke-width: 0.2;" d="M27.00000,82.00000 L26.00000,81.89854 L25.00000,81.57815 L24.00000,81.00000 L23.00000,80.00000 L22.42185,79.00000 L22.10146,78.00000 L22.00000,77.00000 "/>
    <path fill-rule="evenodd" style="fill: none; stroke: rgb(255, 0, 0); stroke-width: 0.2;" d="M37.00000,52.00000 L38.00000,52.10146 L39.00000,52.42185 L40.00000,53.00000 L41.00000,54.00000 L41.57815,55.00000 L41.89854,56.00000 L42.00000,57.00000 "/>
    <path fill-rule="evenodd" style="fill: none; stroke: rgb(255, 0, 0); stroke-width: 0.2;" d="M27.00000,42.00000 L28.00000,42.10146 L29.00000,42.42185 L30.00000,43.00000 L31.00000,44.00000 L31.57815,45.00000 L31.89854,46.00000 L32.00000,47.00000 "/>
    <path fill-rule="evenodd" style="fill: none; stroke: rgb(255, 0, 0); stroke-width: 0.2;" d="M32.00000,77.00000 L31.89854,78.00000 L31.57815,79.00000 L31.00000,80.00000 L30.00000,81.00000 L29.00000,81.57815 L28.00000,81.89854 L27.00000,82.00000 "/>
    <path fill-rule="evenodd" style="fill: none; stroke: rgb(255, 0, 0); stroke-width: 0.2;" d="M12.00000,67.00000 L11.89854,68.00000 L11.57815,69.00000 L11.00000,70.00000 L10.00000,71.00000 L9.00000,71.57815 L8.00000,71.89854 L7.00000,72.00000 "/>
    <path fill-rule="evenodd" style="fill: none; stroke: rgb(255, 0, 0); stroke-width: 0.2;" d="M17.00000,32.00000 L18.00000,32.10146 L19.00000,32.42185 L20.00000,33.00000 L21.00000,34.00000 L21.57815,35.00000 L21.89854,36.00000 L22.00000,37.00000 "/>
    <path fill-rule="evenodd" style="fill: none; stroke: rgb(255, 0, 0); stroke-width: 0.2;" d="M52.00000,97.00000 L52.10146,96.00000 L52.42185,95.00000 L53.00000,94.00000 L54.00000,93.00000 L55.00000,92.42185 L56.00000,92.10146 L57.00000,92.00000 "/>
    <path fill-rule="evenodd" style="fill: none; stroke: rgb(255, 0, 0); stroke-width: 0.2;" d="M27.00000,52.00000 L26.00000,51.89854 L25.00000,51.57815 L24.00000,51.00000 L23.00000,50.00000 L22.42185,49.00000 L22.10146,48.00000 L22.00000,47.00000 "/>
    <path fill-rule="evenodd" style="fill: none; stroke: rgb(255, 0, 0); stroke-width: 0.2;" d="M37.00000,32.00000 L36.00000,31.89854 L35.00000,31.57815 L34.00000,31.00000 L33.00000,30.00000 L32.42185,29.00000 L32.10146,28.00000 L32.00000,27.00000 "/>
    <path fill-rule="evenodd" style="fill: none; stroke: rgb(255, 0, 0); stroke-width: 0.2;" d="M57.00000,12.00000 L56.00000,11.89854 L55.00000,11.57815 L54.00000,11.00000 L53.00000,10.00000 L52.42185,9.00000 L52.10146,8.00000 L52.00000,7.00000 "/>
    <path fill-rule="evenodd" style="fill: none; stroke: rgb(255, 0, 0); stroke-width: 0.2;" d="M47.00000,72.00000 L46.00000,71.89854 L45.00000,71.57815 L44.00000,71.00000 L43.00000,70.00000 L42.42185,69.00000 L42.10146,68.00000 L42.00000,67.00000 "/>
    <path fill-rule="evenodd" style="fill: none; stroke: rgb(255, 0, 0); stroke-width: 0.2;" d="M17.00000,92.00000 L16.00000,91.89854 L15.00000,91.57815 L14.00000,91.00000 L13.00000,90.00000 L12.42185,89.00000 L12.10146,88.00000 L12.00000,87.00000 "/>
    <path fill-rule="evenodd" style="fill: none; stroke: rgb(255, 0, 0); stroke-width: 0.2;" d="M27.00000,32.00000 L28.00000,32.10146 L29.00000,32.42185 L30.00000,33.00000 L31.00000,34.00000 L31.57815,35.00000 L31.89854,36.00000 L32.00000,37.00000 "/>
    <path fill-rule="evenodd" style="fill: none; stroke: rgb(255, 0, 0); stroke-width: 0.2;" d="M87.00000,52.00000 L88.00000,52.10146 L89.00000,52.42185 L90.00000,53.00000 L91.00000,54.00000 L91.57815,55.00000 L91.89854,56.00000 L92.00000,57.00000 "/>
    <path fill-rule="evenodd" style="fill: none; stroke: rgb(255, 0, 0); stroke-width: 0.2;" d="M92.00000,7.00000 L92.10146,6.00000 L92.42185,5.00000 L93.00000,4.00000 L94.00000,3.00000 L95.00000,2.42185 L96.00000,2.10146 L97.00000,2.00000 L98.00000,2.10146 L99.00000,2.42185 L100.00000,3.00000 L101.00000,4.00000 L101.57815,5.00000 L101.89854,6.00000 L102.00000,7.00000 L101.89854,8.00000 L101.57815,9.00000 L101.00000,10.00000 L100.00000,11.00000 L99.00000,11.57815 L98.00000,11.89854 L97.00000,12.00000 "/>
    <path fill-rule="evenodd" style="fill: none; stroke: rgb(255, 0, 0); stroke-width: 0.2;" d="M62.00000,47.00000 L62.10146,46.00000 L62.42185,45.00000 L63.00000,44.00000 L64.00000,43.00000 L65.00000,42.42185 L66.00000,42.10146 L67.00000,42.00000 "/>
    <path fill-rule="evenodd" style="fill: none; stroke: rgb(255, 0, 0); stroke-width: 0.2;" d="M12.00000,97.00000 L12.10146,96.00000 L12.42185,95.00000 L13.00000,94.00000 L14.00000,93.00000 L15.00000,92.42185 L16.00000,92.10146 L17.00000,92.00000 "/>
    <path fill-rule="evenodd" style="fill: none; stroke: rgb(255, 0, 0); stroke-width: 0.2;" d="M92.00000,47.00000 L92.10146,46.00000 L92.42185,45.00000 L93.00000,44.00000 L94.00000,43.00000 L95.00000,42.42185 L96.00000,42.10146 L97.00000,42.00000 "/>
    <path fill-rule="evenodd" style="fill: none; stroke: rgb(255, 0, 0); stroke-width: 0.2;" d="M12.00000,87.00000 L11.89854,88.00000 L11.57815,89.00000 L11.00000,90.00000 L10.00000,91.00000 L9.00000,91.57815 L8.00000,91.89854 L7.00000,92.00000 "/>
    <path fill-rule="evenodd" style="fill: none; stroke: rgb(255, 0, 0); stroke-width: 0.2;" d="M57.00000,92.00000 L58.00000,92.10146 L59.00000,92.42185 L60.00000,93.00000 L61.00000,94.00000 L61.57815,95.00000 L61.89854,96.00000 L62.00000,97.00000 "/>
    <path fill-rule="evenodd" style="fill: none; stroke: rgb(255, 0, 0); stroke-width: 0.2;" d="M37.00000,82.00000 L38.00000,82.10146 L39.00000,82.42185 L40.00000,83.00000 L41.00000,84.00000 L41.57815,85.00000 L41.89854,86.00000 L42.00000,87.00000 "/>
    <path fill-rule="evenodd" style="fill: none; stroke: rgb(255, 0, 0); stroke-width: 0.2;" d="M77.00000,82.00000 L78.00000,82.10146 L79.00000,82.42185 L80.00000,83.00000 L81.00000,84.00000 L81.57815,85.00000 L81.89854,86.00000 L82.00000,87.00000 "/>
    <path fill-rule="evenodd" style="fill: none; stroke: rgb(255, 0, 0); stroke-width: 0.2;" d="M32.00000,87.00000 L31.89854,88.00000 L31.57815,89.00000 L31.00000,90.00000 L30.00000,91.00000 L29.00000,91.57815 L28.00000,91.89854 L27.00000,92.00000 "/>
    <path fill-rule="evenodd" style="fill: none; stroke: rgb(255, 0, 0); stroke-width: 0.2;" d="M62.00000,27.00000 L61.89854,28.00000 L61.57815,29.00000 L61.00000,30.00000 L60.00000,31.00000 L59.00000,31.57815 L58.00000,31.89854 L57.00000,32.00000 "/>
    <path fill-rule="evenodd" style="fill: none; stroke: rgb(255, 0, 0); stroke-width: 0.2;" d="M12.00000,27.00000 L11.89854,28.00000 L11.57815,29.00000 L11.00000,30.00000 L10.00000,31.00000 L9.00000,31.57815 L8.00000,31.89854 L7.00000,32.00000 "/>
    <path fill-rule="evenodd" style="fill: none; stroke: rgb(255, 0, 0); stroke-width: 0.2;" d="M67.00000,12.00000 L68.00000,12.10146 L69.00000,12.42185 L70.00000,13.00000 L71.00000,14.00000 L71.57815,15.00000 L71.89854,16.00000 L72.00000,17.00000 "/>
    <path fill-rule="evenodd" style="fill: none; stroke: rgb(255, 0, 0); stroke-width: 0.2;" d="M72.00000,77.00000 L71.89854,78.00000 L71.57815,79.00000 L71.00000,80.00000 L70.00000,81.00000 L69.00000,81.57815 L68.00000,81.89854 L67.00000,82.00000 "/>
    <path fill-rule="evenodd" style="fill: none; stroke: rgb(255, 0, 0); stroke-width: 0.2;" d="M22.00000,77.00000 L22.10146,76.00000 L22.42185,75.00000 L23.00000,74.00000 L24.00000,73.00000 L25.00000,72.42185 L26.00000,72.10146 L27.00000,72.00000 "/>
    <path fill-rule="evenodd" style="fill: none; stroke: rgb(255, 0, 0); stroke-width: 0.2;" d="M77.00000,92.00000 L78.00000,92.10146 L79.00000,92.42185 L80.00000,93.00000 L81.00000,94.00000 L81.57815,95.00000 L81.89854,96.00000 L82.00000,97.00000 "/>
    <path fill-rule="evenodd" style="fill: none; stroke: rgb(255, 0, 0); stroke-width: 0.2;" d="M47.00000,52.00000 L46.00000,51.89854 L45.00000,51.57815 L44.00000,51.00000 L43.00000,50.00000 L42.42185,49.00000 L42.10146,48.00000 L42.00000,47.00000 "/>
    <path fill-rule="evenodd" style="fill: none; stroke: rgb(255, 0, 0); stroke-width: 0.2;" d="M37.00000,32.00000 L38.00000,32.10146 L39.00000,32.42185 L40.00000,33.00000 L41.00000,34.00000 L41.57815,35.00000 L41.89854,36.00000 L42.00000,37.00000 "/>
    <path fill-rule="evenodd" style="fill: none; stroke: rgb(255, 0, 0); stroke-width: 0.2;" d="M57.00000,22.00000 L58.00000,22.10146 L59.00000,22.42185 L60.00000,23.00000 L61.00000,24.00000 L61.57815,25.00000 L61.89854,26.00000 L62.00000,27.00000 "/>
    <path fill-rule="evenodd" style="fill: none; stroke: rgb(255, 0, 0); stroke-width: 0.2;" d="M47.00000,22.00000 L48.00000,22.10146 L49.00000,22.42185 L50.00000,23.00000 L51.00000,24.00000 L51.57815,25.00000 L51.89854,26.00000 L52.00000,27.00000 "/>
    <path fill-rule="evenodd" style="fill: none; stroke: rgb(255, 0, 0); stroke-width: 0.2;" d="M92.00000,17.00000 L92.10146,16.00000 L92.42185,15.00000 L93.00000,14.00000 L94.00000,13.00000 L95.00000,12.42185 L96.00000,12.10146 L97.00000,12.00000 "/>
    <path fill-rule="evenodd" style="fill: none; stroke: rgb(255, 0, 0); stroke-width: 0.2;" d="M92.00000,87.00000 L91.89854,88.00000 L91.57815,89.00000 L91.00000,90.00000 L90.00000,91.00000 L89.00000,91.57815 L88.00000,91.89854 L87.00000,92.00000 "/>
    <path fill-rule="evenodd" style="fill: none; stroke: rgb(255, 0, 0); stroke-width: 0.2;" d="M82.00000,97.00000 L81.89854,98.00000 L81.57815,99.00000 L81.00000,100.00000 L80.00000,101.00000 L79.00000,101.57815 L78.00000,101.89854 L77.00000,102.00000 L76.00000,101.89854 L75.00000,101.57815 L74.00000,101.00000 L73.00000,100.00000 L72.42185,99.00000 L72.10146,98.00000 L72.00000,97.00000 "/>
    <path fill-rule="evenodd" style="fill: none; stroke: rgb(255, 0, 0); stroke-width: 0.2;" d="M12.00000,67.00000 L12.10146,66.00000 L12.42185,65.00000 L13.00000,64.00000 L14.00000,63.00000 L15.00000,62.42185 L16.00000,62.10146 L17.00000,62.00000 "/>
    <path fill-rule="evenodd" style="fill: none; stroke: rgb(255, 0, 0); stroke-width: 0.2;" d="M37.00000,52.00000 L36.00000,51.89854 L35.00000,51.57815 L34.00000,51.00000 L33.00000,50.00000 L32.42185,49.00000 L32.10146,48.00000 L32.00000,47.00000 "/>
    <path fill-rule="evenodd" style="fill: none; stroke: rgb(255, 0, 0); stroke-width: 0.2;" d="M37.00000,92.00000 L36.00000,91.89854 L35.00000,91.57815 L34.00000,91.00000 L33.00000,90.00000 L32.42185,89.00000 L32.10146,88.00000 L32.00000,87.00000 "/>
    <path fill-rule="evenodd" style="fill: none; stroke: rgb(255, 0, 0); stroke-width: 0.2;" d="M32.00000,27.00000 L32.10146,26.00000 L32.42185,25.00000 L33.00000,24.00000 L34.00000,23.00000 L35.00000,22.42185 L36.00000,22.10146 L37.00000,22.00000 "/>
    <path fill-rule="evenodd" style="fill: none; stroke: rgb(255, 0, 0); stroke-width: 0.2;" d="M87.00000,82.00000 L86.00000,81.89854 L85.00000,81.57815 L84.00000,81.00000 L83.00000,80.00000 L82.42185,79.00000 L82.10146,78.00000 L82.00000,77.00000 "/>
    <path fill-rule="evenodd" style="fill: none; stroke: rgb(255, 0, 0); stroke-width: 0.2;" d="M82.00000,67.00000 L82.10146,66.00000 L82.42185,65.00000 L83.00000,64.00000 L84.00000,63.00000 L85.00000,62.42185 L86.00000,62.10146 L87.00000,62.00000 "/>
    <path fill-rule="evenodd" style="fill: none; stroke: rgb(255, 0, 0); stroke-width: 0.2;" d="M42.00000,57.00000 L41.89854,58.00000 L41.57815,59.00000 L41.00000,60.00000 L40.00000,61.00000 L39.00000,61.57815 L38.00000,61.89854 L37.00000,62.00000 "/>
    <path fill-rule="evenodd" style="fill: none; stroke: rgb(255, 0, 0); stroke-width: 0.2;" d="M57.00000,82.00000 L56.00000,81.89854 L55.00000,81.57815 L54.00000,81.00000 L53.00000,80.00000 L52.42185,79.00000 L52.10146,78.00000 L52.00000,77.00000 "/>
    <path fill-rule="evenodd" style="fill: none; stroke: rgb(255, 0, 0); stroke-width: 0.2;" d="M67.00000,72.00000 L66.00000,71.89854 L65.00000,71.57815 L64.00000,71.00000 L63.00000,70.00000 L62.42185,69.00000 L62.10146,68.00000 L62.00000,67.00000 "/>
    <path fill-rule="evenodd" style="fill: none; stroke: rgb(255, 0, 0); stroke-width: 0.2;" d="M57.00000,82.00000 L58.00000,82.10146 L59.00000,82.42185 L60.00000,83.00000 L61.00000,84.00000 L61.57815,85.00000 L61.89854,86.00000 L62.00000,87.00000 "/>
    <path fill-rule="evenodd" style="fill: none; stroke: rgb(255, 0, 0); stroke-width: 0.2;" d="M87.00000,22.00000 L88.00000,22.10146 L89.00000,22.42185 L90.00000,23.00000 L91.00000,24.00000 L91.57815,25.00000 L91.89854,26.00000 L92.00000,27.00000 "/>
    <path fill-rule="evenodd" style="fill: none; stroke: rgb(255, 0, 0); stroke-width: 0.2;" d="M32.00000,97.00000 L31.89854,98.00000 L31.57815,99.00000 L31.00000,100.00000 L30.00000,101.00000 L29.00000,101.57815 L28.00000,101.89854 L27.00000,102.00000 L26.00000,101.89854 L25.00000,101.57815 L24.00000,101.00000 L23.00000,100.00000 L22.42185,99.00000 L22.10146,98.00000 L22.00000,97.00000 "/>
    <path fill-rule="evenodd" style="fill: none; stroke: rgb(255, 0, 0); stroke-width: 0.2;" d="M7.00000,62.00000 L6.00000,61.89854 L5.00000,61.57815 L4.00000,61.00000 L3.00000,60.00000 L2.42185,59.00000 L2.10146,58.00000 L2.00000,57.00000 L2.10146,56.00000 L2.42185,55.00000 L3.00000,54.00000 L4.00000,53.00000 L5.00000,52.42185 L6.00000,52.10146 L7.00000,52.00000 "/>
    <path fill-rule="evenodd" style="fill: none; stroke: rgb(255, 0, 0); stroke-width: 0.2;" d="M32.00000,77.00000 L32.10146,76.00000 L32.42185,75.00000 L33.00000,74.00000 L34.00000,73.00000 L35.00000,72.42185 L36.00000,72.10146 L37.00000,72.00000 "/>
    <path fill-rule="evenodd" style="fill: none; stroke: rgb(255, 0, 0); stroke-width: 0.2;" d="M72.00000,87.00000 L72.10146,86.00000 L72.42185,85.00000 L73.00000,84.00000 L74.00000,83.00000 L75.00000,82.42185 L76.00000,82.10146 L77.00000,82.00000 "/>
    <path fill-rule="evenodd" style="fill: none; stroke: rgb(255, 0, 0); stroke-width: 0.2;" d="M42.00000,97.00000 L42.10146,96.00000 L42.42185,95.00000 L43.00000,94.00000 L44.00000,93.00000 L45.00000,92.42185 L46.00000,92.10146 L47.00000,92.00000 "/>
    <path fill-rule="evenodd" style="fill: none; stroke: rgb(255, 0, 0); stroke-width: 0.2;" d="M7.00000,72.00000 L6.00000,71.89854 L5.00000,71.57815 L4.00000,71.00000 L3.00000,70.00000 L2.42185,69.00000 L2.10146,68.00000 L2.00000,67.00000 L2.10146,66.00000 L2.42185,65.00000 L3.00000,64.00000 L4.00000,63.00000 L5.00000,62.42185 L6.00000,62.10146 L7.00000,62.00000 "/>
    <path fill-rule="evenodd" style="fill: none; stroke: rgb(255, 0, 0); stroke-width: 0.2;" d="M87.00000,12.00000 L88.00000,12.10146 L89.00000,12.42185 L90.00000,13.00000 L91.00000,14.00000 L91.57815,15.00000 L91.89854,16.00000 L92.00000,17.00000 "/>
    <path fill-rule="evenodd" style="fill: none; stroke: rgb(255, 0, 0); stroke-width: 0.2;" d="M22.00000,87.00000 L22.10146,86.00000 L22.42185,85.00000 L23.00000,84.00000 L24.00000,83.00000 L25.00000,82.42185 L26.00000,82.10146 L27.00000,82.00000 "/>
    <path fill-rule="evenodd" style="fill: none; stroke: rgb(255, 0, 0); stroke-width: 0.2;" d="M42.00000,27.00000 L42.10146,26.00000 L42.42185,25.00000 L43.00000,24.00000 L44.00000,23.00000 L45.00000,22.42185 L46.00000,22.10146 L47.00000,22.00000 "/>
    <path fill-rule="evenodd" style="fill: none; stroke: rgb(255, 0, 0); stroke-width: 0.2;" d="M7.00000,62.00000 L8.00000,62.10146 L9.00000,62.42185 L10.00000,63.00000 L11.00000,64.00000 L11.57815,65.00000 L11.89854,66.00000 L12.00000,67.00000 "/>
    <path fill-rule="evenodd" style="fill: none; stroke: rgb(255, 0, 0); stroke-width: 0.2;" d="M12.00000,47.00000 L12.10146,46.00000 L12.42185,45.00000 L13.00000,44.00000 L14.00000,43.00000 L15.00000,42.42185 L16.00000,42.10146 L17.00000,42.00000 "/>
    <path fill-rule="evenodd" style="fill: none; stroke: rgb(255, 0, 0); stroke-width: 0.2;" d="M42.00000,77.00000 L41.89854,78.00000 L41.57815,79.00000 L41.00000,80.00000 L40.00000,81.00000 L39.00000,81.57815 L38.00000,81.89854 L37.00000,82.00000 "/>
    <path fill-rule="evenodd" style="fill: none; stroke: rgb(255, 0, 0); stroke-width: 0.2;" d="M97.00000,82.00000 L96.00000,81.89854 L95.00000,81.57815 L94.00000,81.00000 L93.00000,80.00000 L92.42185,79.00000 L92.10146,78.00000 L92.00000,77.00000 "/>
    <path fill-rule="evenodd" style="fill: none; stroke: rgb(255, 0, 0); stroke-width: 0.2;" d="M27.00000,52.00000 L28.00000,52.10146 L29.00000,52.42185 L30.00000,53.00000 L31.00000,54.00000 L31.57815,55.00000 L31.89854,56.00000 L32.00000,57.00000 "/>
    <path fill-rule="evenodd" style="fill: none; stroke: rgb(255, 0, 0); stroke-width: 0.2;" d="M82.00000,57.00000 L81.89854,58.00000 L81.57815,59.00000 L81.00000,60.00000 L80.00000,61.00000 L79.00000,61.57815 L78.00000,61.89854 L77.00000,62.00000 "/>
    <path fill-rule="evenodd" style="fill: none; stroke: rgb(255, 0, 0); stroke-width: 0.2;" d="M92.00000,17.00000 L91.89854,18.00000 L91.57815,19.00000 L91.00000,20.00000 L90.00000,21.00000 L89.00000,21.57815 L88.00000,21.89854 L87.00000,22.00000 "/>
    <path fill-rule="evenodd" style="fill: none; stroke: rgb(255, 0, 0); stroke-width: 0.2;" d="M7.00000,32.00000 L6.00000,31.89854 L5.00000,31.57815 L4.00000,31.00000 L3.00000,30.00000 L2.42185,29.00000 L2.10146,28.00000 L2.00000,27.00000 L2.10146,26.00000 L2.42185,25.00000 L3.00000,24.00000 L4.00000,23.00000 L5.00000,22.42185 L6.00000,22.10146 L7.00000,22.00000 "/>
    <path fill-rule="evenodd" style="fill: none; stroke: rgb(255, 0, 0); stroke-width: 0.2;" d="M97.00000,72.00000 L98.00000,72.10146 L99.00000,72.42185 L100.00000,73.00000 L101.00000,74.00000 L101.57815,75.00000 L101.89854,76.00000 L102.00000,77.00000 L101.89854,78.00000 L101.57815,79.00000 L101.00000,80.00000 L100.00000,81.00000 L99.00000,81.57815 L98.00000,81.89854 L97.00000,82.00000 "/>
    <path fill-rule="evenodd" style="fill: none; stroke: rgb(255, 0, 0); stroke-width: 0.2;" d="M17.00000,52.00000 L18.00000,52.10146 L19.00000,52.42185 L20.00000,53.00000 L21.00000,54.00000 L21.57815,55.00000 L21.89854,56.00000 L22.00000,57.00000 "/>
    <path fill-rule="evenodd" style="fill: none; stroke: rgb(255, 0, 0); stroke-width: 0.2;" d="M22.00000,37.00000 L21.89854,38.00000 L21.57815,39.00000 L21.00000,40.00000 L20.00000,41.00000 L19.00000,41.57815 L18.00000,41.89854 L17.00000,42.00000 "/>
    <path fill-rule="evenodd" style="fill: none; stroke: rgb(255, 0, 0); stroke-width: 0.2;" d="M32.00000,67.00000 L31.89854,68.00000 L31.57815,69.00000 L31.00000,70.00000 L30.00000,71.00000 L29.00000,71.57815 L28.00000,71.89854 L27.00000,72.00000 "/>
    <path fill-rule="evenodd" style="fill: none; stroke: rgb(255, 0, 0); stroke-width: 0.2;" d="M32.00000,47.00000 L32.10146,46.00000 L32.42185,45.00000 L33.00000,44.00000 L34.00000,43.00000 L35.00000,42.42185 L36.00000,42.10146 L37.00000,42.00000 "/>
    <path fill-rule="evenodd" style="fill: none; stroke: rgb(255, 0, 0); stroke-width: 0.2;" d="M72.00000,67.00000 L71.89854,68.00000 L71.57815,69.00000 L71.00000,70.00000 L70.00000,71.00000 L69.00000,71.57815 L68.00000,71.89854 L67.00000,72.00000 "/>
    <path fill-rule="evenodd" style="fill: none; stroke: rgb(255, 0, 0); stroke-width: 0.2;" d="M37.00000,22.00000 L38.00000,22.10146 L39.00000,22.42185 L40.00000,23.00000 L41.00000,24.00000 L41.57815,25.00000 L41.89854,26.00000 L42.00000,27.00000 "/>
    <path fill-rule="evenodd" style="fill: none; stroke: rgb(255, 0, 0); stroke-width: 0.2;" d="M37.00000,72.00000 L36.00000,71.89854 L35.00000,71.57815 L34.00000,71.00000 L33.00000,70.00000 L32.42185,69.00000 L32.10146,68.00000 L32.00000,67.00000 "/>
    <path fill-rule="evenodd" style="fill: none; stroke: rgb(255, 0, 0); stroke-width: 0.2;" d="M52.00000,37.00000 L51.89854,38.00000 L51.57815,39.00000 L51.00000,40.00000 L50.00000,41.00000 L49.00000,41.57815 L48.00000,41.89854 L47.00000,42.00000 "/>
    <path fill-rule="evenodd" style="fill: none; stroke: rgb(255, 0, 0); stroke-width: 0.2;" d="M27.00000,22.00000 L28.00000,22.10146 L29.00000,22.42185 L30.00000,23.00000 L31.00000,24.00000 L31.57815,25.00000 L31.89854,26.00000 L32.00000,27.00000 "/>
    <path fill-rule="evenodd" style="fill: none; stroke: rgb(255, 0, 0); stroke-width: 0.2;" d="M72.00000,37.00000 L71.89854,38.00000 L71.57815,39.00000 L71.00000,40.00000 L70.00000,41.00000 L69.00000,41.57815 L68.00000,41.89854 L67.00000,42.00000 "/>
    <path fill-rule="evenodd" style="fill: none; stroke: rgb(255, 0, 0); stroke-width: 0.2;" d="M52.00000,17.00000 L52.10146,16.00000 L52.42185,15.00000 L53.00000,14.00000 L54.00000,13.00000 L55.00000,12.42185 L56.00000,12.10146 L57.00000,12.00000 "/>
    <path fill-rule="evenodd" style="fill: none; stroke: rgb(255, 0, 0); stroke-width: 0.2;" d="M27.00000,72.00000 L28.00000,72.10146 L29.00000,72.42185 L30.00000,73.00000 L31.00000,74.00000 L31.57815,75.00000 L31.89854,76.00000 L32.00000,77.00000 "/>
    <path fill-rule="evenodd" style="fill: none; stroke: rgb(255, 0, 0); stroke-width: 0.2;" d="M47.00000,42.00000 L46.00000,41.89854 L45.00000,41.57815 L44.00000,41.00000 L43.00000,40.00000 L42.42185,39.00000 L42.10146,38.00000 L42.00000,37.00000 "/>
    <path fill-rule="evenodd" style="fill: none; stroke: rgb(255, 0, 0); stroke-width: 0.2;" d="M92.00000,27.00000 L92.10146,26.00000 L92.42185,25.00000 L93.00000,24.00000 L94.00000,23.00000 L95.00000,22.42185 L96.00000,22.10146 L97.00000,22.00000 "/>
    <path fill-rule="evenodd" style="fill: none; stroke: rgb(255, 0, 0); stroke-width: 0.2;" d="M87.00000,92.00000 L88.00000,92.10146 L89.00000,92.42185 L90.00000,93.00000 L91.00000,94.00000 L91.57815,95.00000 L91.89854,96.00000 L92.00000,97.00000 "/>
    <path fill-rule="evenodd" style="fill: none; stroke: rgb(255, 0, 0); stroke-width: 0.2;" d="M67.00000,32.00000 L66.00000,31.89854 L65.00000,31.57815 L64.00000,31.00000 L63.00000,30.00000 L62.42185,29.00000 L62.10146,28.00000 L62.00000,27.00000 "/>
    <path fill-rule="evenodd" style="fill: none; stroke: rgb(255, 0, 0); stroke-width: 0.2;" d="M97.00000,32.00000 L98.00000,32.10146 L99.00000,32.42185 L100.00000,33.00000 L101.00000,34.00000 L101.57815,35.00000 L101.89854,36.00000 L102.00000,37.00000 L101.89854,38.00000 L101.57815,39.00000 L101.00000,40.00000 L100.00000,41.00000 L99.00000,41.57815 L98.00000,41.89854 L97.00000,42.00000 "/>
    <path fill-rule="evenodd" style="fill: none; stroke: rgb(255, 0, 0); stroke-width: 0.2;" d="M72.00000,7.00000 L71.89854,8.00000 L71.57815,9.00000 L71.00000,10.00000 L70.00000,11.00000 L69.00000,11.57815 L68.00000,11.89854 L67.00000,12.00000 "/>
    <path fill-rule="evenodd" style="fill: none; stroke: rgb(255, 0, 0); stroke-width: 0.2;" d="M17.00000,42.00000 L18.00000,42.10146 L19.00000,42.42185 L20.00000,43.00000 L21.00000,44.00000 L21.57815,45.00000 L21.89854,46.00000 L22.00000,47.00000 "/>
    <path fill-rule="evenodd" style="fill: none; stroke: rgb(255, 0, 0); stroke-width: 0.2;" d="M7.00000,52.00000 L8.00000,52.10146 L9.00000,52.42185 L10.00000,53.00000 L11.00000,54.00000 L11.57815,55.00000 L11.89854,56.00000 L12.00000,57.00000 "/>
    <path fill-rule="evenodd" style="fill: none; stroke: rgb(255, 0, 0); stroke-width: 0.2;" d="M37.00000,92.00000 L38.00000,92.10146 L39.00000,92.42185 L40.00000,93.00000 L41.00000,94.00000 L41.57815,95.00000 L41.89854,96.00000 L42.00000,97.00000 "/>
    <path fill-rule="evenodd" style="fill: none; stroke: rgb(255, 0, 0); stroke-width: 0.2;" d="M62.00000,77.00000 L62.10146,76.00000 L62.42185,75.00000 L63.00000,74.00000 L64.00000,73.00000 L65.00000,72.42185 L66.00000,72.10146 L67.00000,72.00000 "/>
    <path fill-rule="evenodd" style="fill: none; stroke: rgb(255, 0, 0); stroke-width: 0.2;" d="M72.00000,17.00000 L71.89854,18.00000 L71.57815,19.00000 L71.00000,20.00000 L70.00000,21.00000 L69.00000,21.57815 L68.00000,21.89854 L67.00000,22.00000 "/>
    <path fill-rule="evenodd" style="fill: none; stroke: rgb(255, 0, 0); stroke-width: 0.2;" d="M87.00000,52.00000 L86.00000,51.89854 L85.00000,51.57815 L84.00000,51.00000 L83.00000,50.00000 L82.42185,49.00000 L82.10146,48.00000 L82.00000,47.00000 "/>
    <path fill-rule="evenodd" style="fill: none; stroke: rgb(255, 0, 0); stroke-width: 0.2;" d="M87.00000,42.00000 L88.00000,42.10146 L89.00000,42.42185 L90.00000,43.00000 L91.00000,44.00000 L91.57815,45.00000 L91.89854,46.00000 L92.00000,47.00000 "/>
    <path fill-rule="evenodd" style="fill: none; stroke: rgb(255, 0, 0); stroke-width: 0.2;" d="M17.00000,72.00000 L18.00000,72.10146 L19.00000,72.42185 L20.00000,73.00000 L21.00000,74.00000 L21.57815,75.00000 L21.89854,76.00000 L22.00000,77.00000 "/>
    <path fill-rule="evenodd" style="fill: none; stroke: rgb(255, 0, 0); stroke-width: 0.2;" d="M82.00000,27.00000 L81.89854,28.00000 L81.57815,29.00000 L81.00000,30.00000 L80.00000,31.00000 L79.00000,31.57815 L78.00000,31.89854 L77.00000,32.00000 "/>
    <path fill-rule="evenodd" style="fill: none; stroke: rgb(255, 0, 0); stroke-width: 0.2;" d="M7.00000,72.00000 L8.00000,72.10146 L9.00000,72.42185 L10.00000,73.00000 L11.00000,74.00000 L11.57815,75.00000 L11.89854,76.00000 L12.00000,77.00000 "/>
    <path fill-rule="evenodd" style="fill: none; stroke: rgb(255, 0, 0); stroke-width: 0.2;" d="M72.00000,17.00000 L72.10146,16.00000 L72.42185,15.00000 L73.00000,14.00000 L74.00000,13.00000 L75.00000,12.42185 L76.00000,12.10146 L77.00000,12.00000 "/>
    <path fill-rule="evenodd" style="fill: none; stroke: rgb(255, 0, 0); stroke-width: 0.2;" d="M27.00000,42.00000 L26.00000,41.89854 L25.00000,41.57815 L24.00000,41.00000 L23.00000,40.00000 L22.42185,39.00000 L22.10146,38.00000 L22.00000,37.00000 "/>
    <path fill-rule="evenodd" style="fill: none; stroke: rgb(255, 0, 0); stroke-width: 0.2;" d="M62.00000,97.00000 L61.89854,98.00000 L61.57815,99.00000 L61.00000,100.00000 L60.00000,101.00000 L59.00000,101.57815 L58.00000,101.89854 L57.00000,102.00000 L56.00000,101.89854 L55.00000,101.57815 L54.00000,101.00000 L53.00000,100.00000 L52.42185,99.00000 L52.10146,98.00000 L52.00000,97.00000 "/>
    <path fill-rule="evenodd" style="fill: none; stroke: rgb(255, 0, 0); stroke-width: 0.2;" d="M52.00000,67.00000 L51.89854,68.00000 L51.57815,69.00000 L51.00000,70.00000 L50.00000,71.00000 L49.00000,71.57815 L48.00000,71.89854 L47.00000,72.00000 "/>
    <path fill-rule="evenodd" style="fill: none; stroke: rgb(255, 0, 0); stroke-width: 0.2;" d="M52.00000,87.00000 L51.89854,88.00000 L51.57815,89.00000 L51.00000,90.00000 L50.00000,91.00000 L49.00000,91.57815 L48.00000,91.89854 L47.00000,92.00000 "/>
    <path fill-rule="evenodd" style="fill: none; stroke: rgb(255, 0, 0); stroke-width: 0.2;" d="M47.00000,12.00000 L46.00000,11.89854 L45.00000,11.57815 L44.00000,11.00000 L43.00000,10.00000 L42.42185,9.00000 L42.10146,8.00000 L42.00000,7.00000 "/>
    <path fill-rule="evenodd" style="fill: none; stroke: rgb(255, 0, 0); stroke-width: 0.2;" d="M77.00000,72.00000 L76.00000,71.89854 L75.00000,71.57815 L74.00000,71.00000 L73.00000,70.00000 L72.42185,69.00000 L72.10146,68.00000 L72.00000,67.00000 "/>
    <path fill-rule="evenodd" style="fill: none; stroke: rgb(255, 0, 0); stroke-width: 0.2;" d="M67.00000,62.00000 L66.00000,61.89854 L65.00000,61.57815 L64.00000,61.00000 L63.00000,60.00000 L62.42185,59.00000 L62.10146,58.00000 L62.00000,57.00000 "/>
    <path fill-rule="evenodd" style="fill: none; stroke: rgb(255, 0, 0); stroke-width: 0.2;" d="M82.00000,37.00000 L81.89854,38.00000 L81.57815,39.00000 L81.00000,40.00000 L80.00000,41.00000 L79.00000,41.57815 L78.00000,41.89854 L77.00000,42.00000 "/>
    <path fill-rule="evenodd" style="fill: none; stroke: rgb(255, 0, 0); stroke-width: 0.2;" d="M32.00000,37.00000 L31.89854,38.00000 L31.57815,39.00000 L31.00000,40.00000 L30.00000,41.00000 L29.00000,41.57815 L28.00000,41.89854 L27.00000,42.00000 "/>
    <path fill-rule="evenodd" style="fill: none; stroke: rgb(255, 0, 0); stroke-width: 0.2;" d="M22.00000,7.00000 L21.89854,8.00000 L21.57815,9.00000 L21.00000,10.00000 L20.00000,11.00000 L19.00000,11.57815 L18.00000,11.89854 L17.00000,12.00000 "/>
    <path fill-rule="evenodd" style="fill: none; stroke: rgb(255, 0, 0); stroke-width: 0.2;" d="M72.00000,47.00000 L71.89854,48.00000 L71.57815,49.00000 L71.00000,50.00000 L70.00000,51.00000 L69.00000,51.57815 L68.00000,51.89854 L67.00000,52.00000 "/>
    <path fill-rule="evenodd" style="fill: none; stroke: rgb(255, 0, 0); stroke-width: 0.2;" d="M67.00000,12.00000 L66.00000,11.89854 L65.00000,11.57815 L64.00000,11.00000 L63.00000,10.00000 L62.42185,9.00000 L62.10146,8.00000 L62.00000,7.00000 "/>
    <path fill-rule="evenodd" style="fill: none; stroke: rgb(255, 0, 0); stroke-width: 0.2;" d="M97.00000,42.00000 L96.00000,41.89854 L95.00000,41.57815 L94.00000,41.00000 L93.00000,40.00000 L92.42185,39.00000 L92.10146,38.00000 L92.00000,37.00000 "/>
    <path fill-rule="evenodd" style="fill: none; stroke: rgb(255, 0, 0); stroke-width: 0.2;" d="M57.00000,22.00000 L56.00000,21.89854 L55.00000,21.57815 L54.00000,21.00000 L53.00000,20.00000 L52.42185,19.00000 L52.10146,18.00000 L52.00000,17.00000 "/>
    <path fill-rule="evenodd" style="fill: none; stroke: rgb(255, 0, 0); stroke-width: 0.2;" d="M57.00000,72.00000 L58.00000,72.10146 L59.00000,72.42185 L60.00000,73.00000 L61.00000,74.00000 L61.57815,75.00000 L61.89854,76.00000 L62.00000,77.00000 "/>
    <path fill-rule="evenodd" style="fill: none; stroke: rgb(255, 0, 0); stroke-width: 0.2;" d="M22.00000,27.00000 L22.10146,26.00000 L22.42185,25.00000 L23.00000,24.00000 L24.00000,23.00000 L25.00000,22.42185 L26.00000,22.10146 L27.00000,22.00000 "/>
    <path fill-rule="evenodd" style="fill: none; stroke: rgb(255, 0, 0); stroke-width: 0.2;" d="M52.00000,57.00000 L52.10146,56.00000 L52.42185,55.00000 L53.00000,54.00000 L54.00000,53.00000 L55.00000,52.42185 L56.00000,52.10146 L57.00000,52.00000 "/>
    <path fill-rule="evenodd" style="fill: none; stroke: rgb(255, 0, 0); stroke-width: 0.2;" d="M77.00000,82.00000 L76.00000,81.89854 L75.00000,81.57815 L74.00000,81.00000 L73.00000,80.00000 L72.42185,79.00000 L72.10146,78.00000 L72.00000,77.00000 "/>
    <path fill-rule="evenodd" style="fill: none; stroke: rgb(255, 0, 0); stroke-width: 0.2;" d="M12.00000,27.00000 L12.10146,26.00000 L12.42185,25.00000 L13.00000,24.00000 L14.00000,23.00000 L15.00000,22.42185 L16.00000,22.10146 L17.00000,22.00000 "/>
    <path fill-rule="evenodd" style="fill: none; stroke: rgb(255, 0, 0); stroke-width: 0.2;" d="M27.00000,92.00000 L26.00000,91.89854 L25.00000,91.57815 L24.00000,91.00000 L23.00000,90.00000 L22.42185,89.00000 L22.10146,88.00000 L22.00000,87.00000 "/>
    <path fill-rule="evenodd" style="fill: none; stroke: rgb(255, 0, 0); stroke-width: 0.2;" d="M22.00000,67.00000 L21.89854,68.00000 L21.57815,69.00000 L21.00000,70.00000 L20.00000,71.00000 L19.00000,71.57815 L18.00000,71.89854 L17.00000,72.00000 "/>
    <path fill-rule="evenodd" style="fill: none; stroke: rgb(255, 0, 0); stroke-width: 0.2;" d="M17.00000,82.00000 L18.00000,82.10146 L19.00000,82.42185 L20.00000,83.00000 L21.00000,84.00000 L21.57815,85.00000 L21.89854,86.00000 L22.00000,87.00000 "/>
    <path fill-rule="evenodd" style="fill: none; stroke: rgb(255, 0, 0); stroke-width: 0.2;" d="M62.00000,37.00000 L61.89854,38.00000 L61.57815,39.00000 L61.00000,40.00000 L60.00000,41.00000 L59.00000,41.57815 L58.00000,41.89854 L57.00000,42.00000 "/>
    <path fill-rule="evenodd" style="fill: none; stroke: rgb(255, 0, 0); stroke-width: 0.2;" d="M97.00000,72.00000 L96.00000,71.89854 L95.00000,71.57815 L94.00000,71.00000 L93.00000,70.00000 L92.42185,69.00000 L92.10146,68.00000 L92.00000,67.00000 "/>
    <path fill-rule="evenodd" style="fill: none; stroke: rgb(255, 0, 0); stroke-width: 0.2;" d="M77.00000,92.00000 L76.00000,91.89854 L75.00000,91.57815 L74.00000,91.00000 L73.00000,90.00000 L72.42185,89.00000 L72.10146,88.00000 L72.00000,87.00000 "/>
    <path fill-rule="evenodd" style="fill: none; stroke: rgb(255, 0, 0); stroke-width: 0.2;" d="M87.00000,62.00000 L88.00000,62.10146 L89.00000,62.42185 L90.00000,63.00000 L91.00000,64.00000 L91.57815,65.00000 L91.89854,66.00000 L92.00000,67.00000 "/>
    <path fill-rule="evenodd" style="fill: none; stroke: rgb(255, 0, 0); stroke-width: 0.2;" d="M32.00000,57.00000 L32.10146,56.00000 L32.42185,55.00000 L33.00000,54.00000 L34.00000,53.00000 L35.00000,52.42185 L36.00000,52.10146 L37.00000,52.00000 "/>
    <path fill-rule="evenodd" style="fill: none; stroke: rgb(255, 0, 0); stroke-width: 0.2;" d="M62.00000,7.00000 L62.10146,6.00000 L62.42185,5.00000 L63.00000,4.00000 L64.00000,3.00000 L65.00000,2.42185 L66.00000,2.10146 L67.00000,2.00000 L68.00000,2.10146 L69.00000,2.42185 L70.00000,3.00000 L71.00000,4.00000 L71.57815,5.00000 L71.89854,6.00000 L72.00000,7.00000 "/>
    <path fill-rule="evenodd" style="fill: none; stroke: rgb(255, 0, 0); stroke-width: 0.2;" d="M82.00000,17.00000 L82.10146,16.00000 L82.42185,15.00000 L83.00000,14.00000 L84.00000,13.00000 L85.00000,12.42185 L86.00000,12.10146 L87.00000,12.00000 "/>
    <path fill-rule="evenodd" style="fill: none; stroke: rgb(255, 0, 0); stroke-width: 0.2;" d="M37.00000,82.00000 L36.00000,81.89854 L35.00000,81.57815 L34.00000,81.00000 L33.00000,80.00000 L32.42185,79.00000 L32.10146,78.00000 L32.00000,77.00000 "/>
    <path fill-rule="evenodd" style="fill: none; stroke: rgb(255, 0, 0); stroke-width: 0.2;" d="M72.00000,77.00000 L72.10146,76.00000 L72.42185,75.00000 L73.00000,74.00000 L74.00000,73.00000 L75.00000,72.42185 L76.00000,72.10146 L77.00000,72.00000 "/>
    <path fill-rule="evenodd" style="fill: none; stroke: rgb(255, 0, 0); stroke-width: 0.2;" d="M62.00000,17.00000 L62.10146,16.00000 L62.42185,15.00000 L63.00000,14.00000 L64.00000,13.00000 L65.00000,12.42185 L66.00000,12.10146 L67.00000,12.00000 "/>
    <path fill-rule="evenodd" style="fill: none; stroke: rgb(255, 0, 0); stroke-width: 0.2;" d="M42.00000,57.00000 L42.10146,56.00000 L42.42185,55.00000 L43.00000,54.00000 L44.00000,53.00000 L45.00000,52.42185 L46.00000,52.10146 L47.00000,52.00000 "/>
    <path fill-rule="evenodd" style="fill: none; stroke: rgb(255, 0, 0); stroke-width: 0.2;" d="M67.00000,42.00000 L68.00000,42.10146 L69.00000,42.42185 L70.00000,43.00000 L71.00000,44.00000 L71.57815,45.00000 L71.89854,46.00000 L72.00000,47.00000 "/>
    <path fill-rule="evenodd" style="fill: none; stroke: rgb(255, 0, 0); stroke-width: 0.2;" d="M77.00000,42.00000 L76.00000,41.89854 L75.00000,41.57815 L74.00000,41.00000 L73.00000,40.00000 L72.42185,39.00000 L72.10146,38.00000 L72.00000,37.00000 "/>
    <path fill-rule="evenodd" style="fill: none; stroke: rgb(255, 0, 0); stroke-width: 0.2;" d="M52.00000,77.00000 L51.89854,78.00000 L51.57815,79.00000 L51.00000,80.00000 L50.00000,81.00000 L49.00000,81.57815 L48.00000,81.89854 L47.00000,82.00000 "/>
    <path fill-rule="evenodd" style="fill: none; stroke: rgb(255, 0, 0); stroke-width: 0.2;" d="M17.00000,92.00000 L18.00000,92.10146 L19.00000,92.42185 L20.00000,93.00000 L21.00000,94.00000 L21.57815,95.00000 L21.89854,96.00000 L22.00000,97.00000 "/>
    <path fill-rule="evenodd" style="fill: none; stroke: rgb(255, 0, 0); stroke-width: 0.2;" d="M37.00000,72.00000 L38.00000,72.10146 L39.00000,72.42185 L40.00000,73.00000 L41.00000,74.00000 L41.57815,75.00000 L41.89854,76.00000 L42.00000,77.00000 "/>
    <path fill-rule="evenodd" style="fill: none; stroke: rgb(255, 0, 0); stroke-width: 0.2;" d="M87.00000,72.00000 L88.00000,72.10146 L89.00000,72.42185 L90.00000,73.00000 L91.00000,74.00000 L91.57815,75.00000 L91.89854,76.00000 L92.00000,77.00000 "/>
    <path fill-rule="evenodd" style="fill: none; stroke: rgb(255, 0, 0); stroke-width: 0.2;" d="M42.00000,67.00000 L41.89854,68.00000 L41.57815,69.00000 L41.00000,70.00000 L40.00000,71.00000 L39.00000,71.57815 L38.00000,71.89854 L37.00000,72.00000 "/>
    <path fill-rule="evenodd" style="fill: none; stroke: rgb(255, 0, 0); stroke-width: 0.2;" d="M17.00000,62.00000 L18.00000,62.10146 L19.00000,62.42185 L20.00000,63.00000 L21.00000,64.00000 L21.57815,65.00000 L21.89854,66.00000 L22.00000,67.00000 "/>
    <path fill-rule="evenodd" style="fill: none; stroke: rgb(255, 0, 0); stroke-width: 0.2;" d="M27.00000,12.00000 L28.00000,12.10146 L29.00000,12.42185 L30.00000,13.00000 L31.00000,14.00000 L31.57815,15.00000 L31.89854,16.00000 L32.00000,17.00000 "/>
    <path fill-rule="evenodd" style="fill: none; stroke: rgb(255, 0, 0); stroke-width: 0.2;" d="M12.00000,57.00000 L12.10146,56.00000 L12.42185,55.00000 L13.00000,54.00000 L14.00000,53.00000 L15.00000,52.42185 L16.00000,52.10146 L17.00000,52.00000 "/>
    <path fill-rule="evenodd" style="fill: none; stroke: rgb(255, 0, 0); stroke-width: 0.2;" d="M42.00000,87.00000 L41.89854,88.00000 L41.57815,89.00000 L41.00000,90.00000 L40.00000,91.00000 L39.00000,91.57815 L38.00000,91.89854 L37.00000,92.00000 "/>
    <path fill-rule="evenodd" style="fill: none; stroke: rgb(255, 0, 0); stroke-width: 0.2;" d="M97.00000,22.00000 L96.00000,21.89854 L95.00000,21.57815 L94.00000,21.00000 L93.00000,20.00000 L92.42185,19.00000 L92.10146,18.00000 L92.00000,17.00000 "/>
    <path fill-rule="evenodd" style="fill: none; stroke: rgb(255, 0, 0); stroke-width: 0.2;" d="M97.00000,82.00000 L98.00000,82.10146 L99.00000,82.42185 L100.00000,83.00000 L101.00000,84.00000 L101.57815,85.00000 L101.89854,86.00000 L102.00000,87.00000 L101.89854,88.00000 L101.57815,89.00000 L101.00000,90.00000 L100.00000,91.00000 L99.00000,91.57815 L98.00000,91.89854 L97.00000,92.00000 "/>
    <path fill-rule="evenodd" style="fill: none; stroke: rgb(255, 0, 0); stroke-width: 0.2;" d="M97.00000,62.00000 L98.00000,62.10146 L99.00000,62.42185 L100.00000,63.00000 L101.00000,64.00000 L101.57815,65.00000 L101.89854,66.00000 L102.00000,67.00000 L101.89854,68.00000 L101.57815,69.00000 L101.00000,70.00000 L100.00000,71.00000 L99.00000,71.57815 L98.00000,71.89854 L97.00000,72.00000 "/>
    <path fill-rule="evenodd" style="fill: none; stroke: rgb(255, 0, 0); stroke-width: 0.2;" d="M12.00000,57.00000 L11.89854,58.00000 L11.57815,59.00000 L11.00000,60.00000 L10.00000,61.00000 L9.00000,61.57815 L8.00000,61.89854 L7.00000,62.00000 "/>
    <path fill-rule="evenodd" style="fill: none; stroke: rgb(255, 0, 0); stroke-width: 0.2;" d="M87.00000,22.00000 L86.00000,21.89854 L85.00000,21.57815 L84.00000,21.00000 L83.00000,20.00000 L82.42185,19.00000 L82.10146,18.00000 L82.00000,17.00000 "/>
    <path fill-rule="evenodd" style="fill: none; stroke: rgb(255, 0, 0); stroke-width: 0.2;" d="M87.00000,32.00000 L86.00000,31.89854 L85.00000,31.57815 L84.00000,31.00000 L83.00000,30.00000 L82.42185,29.00000 L82.10146,28.00000 L82.00000,27.00000 "/>
    <path fill-rule="evenodd" style="fill: none; stroke: rgb(255, 0, 0); stroke-width: 0.2;" d="M7.00000,12.00000 L6.00000,11.89854 L5.00000,11.57815 L4.00000,11.00000 L3.00000,10.00000 L2.42185,9.00000 L2.10146,8.00000 L2.00000,7.00000 L2.10146,6.00000 L2.42185,5.00000 L3.00000,4.00000 L4.00000,3.00000 L5.00000,2.42185 L6.00000,2.10146 L7.00000,2.00000 L8.00000,2.10146 L9.00000,2.42185 L10.00000,3.00000 L11.00000,4.00000 L11.57815,5.00000 L11.89854,6.00000 L12.00000,7.00000 "/>
    <path fill-rule="evenodd" style="fill: none; stroke: rgb(255, 0, 0); stroke-width: 0.2;" d="M67.00000,22.00000 L68.00000,22.10146 L69.00000,22.42185 L70.00000,23.00000 L71.00000,24.00000 L71.57815,25.00000 L71.89854,26.00000 L72.00000,27.00000 "/>
    <path fill-rule="evenodd" style="fill: none; stroke: rgb(255, 0, 0); stroke-width: 0.2;" d="M7.00000,52.00000 L6.00000,51.89854 L5.00000,51.57815 L4.00000,51.00000 L3.00000,50.00000 L2.42185,49.00000 L2.10146,48.00000 L2.00000,47.00000 L2.10146,46.00000 L2.42185,45.00000 L3.00000,44.00000 L4.00000,43.00000 L5.00000,42.42185 L6.00000,42.10146 L7.00000,42.00000 "/>
    <path fill-rule="evenodd" style="fill: none; stroke: rgb(255, 0, 0); stroke-width: 0.2;" d="M52.00000,67.00000 L52.10146,66.00000 L52.42185,65.00000 L53.00000,64.00000 L54.00000,63.00000 L55.00000,62.42185 L56.00000,62.10146 L57.00000,62.00000 "/>
    <path fill-rule="evenodd" style="fill: none; stroke: rgb(255, 0, 0); stroke-width: 0.2;" d="M82.00000,57.00000 L82.10146,56.00000 L82.42185,55.00000 L83.00000,54.00000 L84.00000,53.00000 L85.00000,52.42185 L86.00000,52.10146 L87.00000,52.00000 "/>
    <path fill-rule="evenodd" style="fill: none; stroke: rgb(255, 0, 0); stroke-width: 0.2;" d="M57.00000,72.00000 L56.00000,71.89854 L55.00000,71.57815 L54.00000,71.00000 L53.00000,70.00000 L52.42185,69.00000 L52.10146,68.00000 L52.00000,67.00000 "/>
    <path fill-rule="evenodd" style="fill: none; stroke: rgb(255, 0, 0); stroke-width: 0.2;" d="M82.00000,77.00000 L82.10146,76.00000 L82.42185,75.00000 L83.00000,74.00000 L84.00000,73.00000 L85.00000,72.42185 L86.00000,72.10146 L87.00000,72.00000 "/>
    <path fill-rule="evenodd" style="fill: none; stroke: rgb(255, 0, 0); stroke-width: 0.2;" d="M77.00000,62.00000 L76.00000,61.89854 L75.00000,61.57815 L74.00000,61.00000 L73.00000,60.00000 L72.42185,59.00000 L72.10146,58.00000 L72.00000,57.00000 "/>
    <path fill-rule="evenodd" style="fill: none; stroke: rgb(255, 0, 0); stroke-width: 0.2;" d="M42.00000,97.00000 L41.89854,98.00000 L41.57815,99.00000 L41.00000,100.00000 L40.00000,101.00000 L39.00000,101.57815 L38.00000,101.89854 L37.00000,102.00000 L36.00000,101.89854 L35.00000,101.57815 L34.00000,101.00000 L33.00000,100.00000 L32.42185,99.00000 L32.10146,98.00000 L32.00000,97.00000 "/>
    <path fill-rule="evenodd" style="fill: none; stroke: rgb(255, 0, 0); stroke-width: 0.2;" d="M17.00000,32.00000 L16.00000,31.89854 L15.00000,31.57815 L14.00000,31.00000 L13.00000,30.00000 L12.42185,29.00000 L12.10146,28.00000 L12.00000,27.00000 "/>
    <path fill-rule="evenodd" style="fill: none; stroke: rgb(255, 0, 0); stroke-width: 0.2;" d="M87.00000,82.00000 L88.00000,82.10146 L89.00000,82.42185 L90.00000,83.00000 L91.00000,84.00000 L91.57815,85.00000 L91.89854,86.00000 L92.00000,87.00000 "/>
    <path fill-rule="evenodd" style="fill: none; stroke: rgb(255, 0, 0); stroke-width: 0.2;" d="M72.00000,47.00000 L72.10146,46.00000 L72.42185,45.00000 L73.00000,44.00000 L74.00000,43.00000 L75.00000,42.42185 L76.00000,42.10146 L77.00000,42.00000 "/>
    <path fill-rule="evenodd" style="fill: none; stroke: rgb(255, 0, 0); stroke-width: 0.2;" d="M7.00000,22.00000 L8.00000,22.10146 L9.00000,22.42185 L10.00000,23.00000 L11.00000,24.00000 L11.57815,25.00000 L11.89854,26.00000 L12.00000,27.00000 "/>
    <path fill-rule="evenodd" style="fill: none; stroke: rgb(255, 0, 0); stroke-width: 0.2;" d="M52.00000,37.00000 L52.10146,36.00000 L52.42185,35.00000 L53.00000,34.00000 L54.00000,33.00000 L55.00000,32.42185 L56.00000,32.10146 L57.00000,32.00000 "/>
    <path fill-rule="evenodd" style="fill: none; stroke: rgb(255, 0, 0); stroke-width: 0.2;" d="M82.00000,17.00000 L81.89854,18.00000 L81.57815,19.00000 L81.00000,20.00000 L80.00000,21.00000 L79.00000,21.57815 L78.00000,21.89854 L77.00000,22.00000 "/>
    <path fill-rule="evenodd" style="fill: none; stroke: rgb(255, 0, 0); stroke-width: 0.2;" d="M42.00000,37.00000 L42.10146,36.00000 L42.42185,35.00000 L43.00000,34.00000 L44.00000,33.00000 L45.00000,32.42185 L46.00000,32.10146 L47.00000,32.00000 "/>
    <path fill-rule="evenodd" style="fill: none; stroke: rgb(255, 0, 0); stroke-width: 0.2;" d="M32.00000,47.00000 L31.89854,48.00000 L31.57815,49.00000 L31.00000,50.00000 L30.00000,51.00000 L29.00000,51.57815 L28.00000,51.89854 L27.00000,52.00000 "/>
    <path fill-rule="evenodd" style="fill: none; stroke: rgb(255, 0, 0); stroke-width: 0.2;" d="M12.00000,17.00000 L12.10146,16.00000 L12.42185,15.00000 L13.00000,14.00000 L14.00000,13.00000 L15.00000,12.42185 L16.00000,12.10146 L17.00000,12.00000 "/>
    <path fill-rule="evenodd" style="fill: none; stroke: rgb(255, 0, 0); stroke-width: 0.2;" d="M7.00000,12.00000 L8.00000,12.10146 L9.00000,12.42185 L10.00000,13.00000 L11.00000,14.00000 L11.57815,15.00000 L11.89854,16.00000 L12.00000,17.00000 "/>
    <path fill-rule="evenodd" style="fill: none; stroke: rgb(255, 0, 0); stroke-width: 0.2;" d="M97.00000,42.00000 L98.00000,42.10146 L99.00000,42.42185 L100.00000,43.00000 L101.00000,44.00000 L101.57815,45.00000 L101.89854,46.00000 L102.00000,47.00000 L101.89854,48.00000 L101.57815,49.00000 L101.00000,50.00000 L100.00000,51.00000 L99.00000,51.57815 L98.00000,51.89854 L97.00000,52.00000 "/>
    <path fill-rule="evenodd" style="fill: none; stroke: rgb(255, 0, 0); stroke-width: 0.2;" d="M47.00000,82.00000 L46.00000,81.89854 L45.00000,81.57815 L44.00000,81.00000 L43.00000,80.00000 L42.42185,79.00000 L42.10146,78.00000 L42.00000,77.00000 "/>
    <path fill-rule="evenodd" style="fill: none; stroke: rgb(255, 0, 0); stroke-width: 0.2;" d="M57.00000,62.00000 L58.00000,62.10146 L59.00000,62.42185 L60.00000,63.00000 L61.00000,64.00000 L61.57815,65.00000 L61.89854,66.00000 L62.00000,67.00000 "/>
    <path fill-rule="evenodd" style="fill: none; stroke: rgb(255, 0, 0); stroke-width: 0.2;" d="M42.00000,37.00000 L41.89854,38.00000 L41.57815,39.00000 L41.00000,40.00000 L40.00000,41.00000 L39.00000,41.57815 L38.00000,41.89854 L37.00000,42.00000 "/>
    <path fill-rule="evenodd" style="fill: none; stroke: rgb(255, 0, 0); stroke-width: 0.2;" d="M47.00000,12.00000 L48.00000,12.10146 L49.00000,12.42185 L50.00000,13.00000 L51.00000,14.00000 L51.57815,15.00000 L51.89854,16.00000 L52.00000,17.00000 "/>
    <path fill-rule="evenodd" style="fill: none; stroke: rgb(255, 0, 0); stroke-width: 0.2;" d="M97.00000,12.00000 L98.00000,12.10146 L99.00000,12.42185 L100.00000,13.00000 L101.00000,14.00000 L101.57815,15.00000 L101.89854,16.00000 L102.00000,17.00000 L101.89854,18.00000 L101.57815,19.00000 L101.00000,20.00000 L100.00000,21.00000 L99.00000,21.57815 L98.00000,21.89854 L97.00000,22.00000 "/>
    <path fill-rule="evenodd" style="fill: none; stroke: rgb(255, 0, 0); stroke-width: 0.2;" d="M32.00000,57.00000 L31.89854,58.00000 L31.57815,59.00000 L31.00000,60.00000 L30.00000,61.00000 L29.00000,61.57815 L28.00000,61.89854 L27.00000,62.00000 "/>
    <path fill-rule="evenodd" style="fill: none; stroke: rgb(255, 0, 0); stroke-width: 0.2;" d="M57.00000,92.00000 L56.00000,91.89854 L55.00000,91.57815 L54.00000,91.00000 L53.00000,90.00000 L52.42185,89.00000 L52.10146,88.00000 L52.00000,87.00000 "/>
    <path fill-rule="evenodd" style="fill: none; stroke: rgb(255, 0, 0); stroke-width: 0.2;" d="M17.00000,62.00000 L16.00000,61.89854 L15.00000,61.57815 L14.00000,61.00000 L13.00000,60.00000 L12.42185,59.00000 L12.10146,58.00000 L12.00000,57.00000 "/>
    <path fill-rule="evenodd" style="fill: none; stroke: rgb(255, 0, 0); stroke-width: 0.2;" d="M32.00000,17.00000 L31.89854,18.00000 L31.57815,19.00000 L31.00000,20.00000 L30.00000,21.00000 L29.00000,21.57815 L28.00000,21.89854 L27.00000,22.00000 "/>
    <path fill-rule="evenodd" style="fill: none; stroke: rgb(255, 0, 0); stroke-width: 0.2;" d="M77.00000,32.00000 L78.00000,32.10146 L79.00000,32.42185 L80.00000,33.00000 L81.00000,34.00000 L81.57815,35.00000 L81.89854,36.00000 L82.00000,37.00000 "/>
    <path fill-rule="evenodd" style="fill: none; stroke: rgb(255, 0, 0); stroke-width: 0.2;" d="M47.00000,32.00000 L46.00000,31.89854 L45.00000,31.57815 L44.00000,31.00000 L43.00000,30.00000 L42.42185,29.00000 L42.10146,28.00000 L42.00000,27.00000 "/>
    <path fill-rule="evenodd" style="fill: none; stroke: rgb(255, 0, 0); stroke-width: 0.2;" d="M47.00000,52.00000 L48.00000,52.10146 L49.00000,52.42185 L50.00000,53.00000 L51.00000,54.00000 L51.57815,55.00000 L51.89854,56.00000 L52.00000,57.00000 "/>
    <path fill-rule="evenodd" style="fill: none; stroke: rgb(255, 0, 0); stroke-width: 0.2;" d="M47.00000,82.00000 L48.00000,82.10146 L49.00000,82.42185 L50.00000,83.00000 L51.00000,84.00000 L51.57815,85.00000 L51.89854,86.00000 L52.00000,87.00000 "/>
    <path fill-rule="evenodd" style="fill: none; stroke: rgb(255, 0, 0); stroke-width: 0.2;" d="M27.00000,62.00000 L26.00000,61.89854 L25.00000,61.57815 L24.00000,61.00000 L23.00000,60.00000 L22.42185,59.00000 L22.10146,58.00000 L22.00000,57.00000 "/>
    <path fill-rule="evenodd" style="fill: none; stroke: rgb(255, 0, 0); stroke-width: 0.2;" d="M32.00000,97.00000 L32.10146,96.00000 L32.42185,95.00000 L33.00000,94.00000 L34.00000,93.00000 L35.00000,92.42185 L36.00000,92.10146 L37.00000,92.00000 "/>
    <path fill-rule="evenodd" style="fill: none; stroke: rgb(255, 0, 0); stroke-width: 0.2;" d="M42.00000,87.00000 L42.10146,86.00000 L42.42185,85.00000 L43.00000,84.00000 L44.00000,83.00000 L45.00000,82.42185 L46.00000,82.10146 L47.00000,82.00000 "/>
    <path fill-rule="evenodd" style="fill: none; stroke: rgb(255, 0, 0); stroke-width: 0.2;" d="M47.00000,92.00000 L46.00000,91.89854 L45.00000,91.57815 L44.00000,91.00000 L43.00000,90.00000 L42.42185,89.00000 L42.10146,88.00000 L42.00000,87.00000 "/>
    <path fill-rule="evenodd" style="fill: none; stroke: rgb(255, 0, 0); stroke-width: 0.2;" d="M52.00000,47.00000 L51.89854,48.00000 L51.57815,49.00000 L51.00000,50.00000 L50.00000,51.00000 L49.00000,51.57815 L48.00000,51.89854 L47.00000,52.00000 "/>
    <path fill-rule="evenodd" style="fill: none; stroke: rgb(255, 0, 0); stroke-width: 0.2;" d="M47.00000,22.00000 L46.00000,21.89854 L45.00000,21.57815 L44.00000,21.00000 L43.00000,20.00000 L42.42185,19.00000 L42.10146,18.00000 L42.00000,17.00000 "/>
    <path fill-rule="evenodd" style="fill: none; stroke: rgb(255, 0, 0); stroke-width: 0.2;" d="M77.00000,12.00000 L76.00000,11.89854 L75.00000,11.57815 L74.00000,11.00000 L73.00000,10.00000 L72.42185,9.00000 L72.10146,8.00000 L72.00000,7.00000 "/>
    <path fill-rule="evenodd" style="fill: none; stroke: rgb(255, 0, 0); stroke-width: 0.2;" d="M62.00000,67.00000 L61.89854,68.00000 L61.57815,69.00000 L61.00000,70.00000 L60.00000,71.00000 L59.00000,71.57815 L58.00000,71.89854 L57.00000,72.00000 "/>
    <path fill-rule="evenodd" style="fill: none; stroke: rgb(255, 0, 0); stroke-width: 0.2;" d="M62.00000,27.00000 L62.10146,26.00000 L62.42185,25.00000 L63.00000,24.00000 L64.00000,23.00000 L65.00000,22.42185 L66.00000,22.10146 L67.00000,22.00000 "/>
    <path fill-rule="evenodd" style="fill: none; stroke: rgb(255, 0, 0); stroke-width: 0.2;" d="M42.00000,47.00000 L42.10146,46.00000 L42.42185,45.00000 L43.00000,44.00000 L44.00000,43.00000 L45.00000,42.42185 L46.00000,42.10146 L47.00000,42.00000 "/>
    <path fill-rule="evenodd" style="fill: none; stroke: rgb(255, 0, 0); stroke-width: 0.2;" d="M12.00000,87.00000 L12.10146,86.00000 L12.42185,85.00000 L13.00000,84.00000 L14.00000,83.00000 L15.00000,82.42185 L16.00000,82.10146 L17.00000,82.00000 "/>
    <path fill-rule="evenodd" style="fill: none; stroke: rgb(255, 0, 0); stroke-width: 0.2;" d="M22.00000,37.00000 L22.10146,36.00000 L22.42185,35.00000 L23.00000,34.00000 L24.00000,33.00000 L25.00000,32.42185 L26.00000,32.10146 L27.00000,32.00000 "/>
    <path fill-rule="evenodd" style="fill: none; stroke: rgb(255, 0, 0); stroke-width: 0.2;" d="M82.00000,87.00000 L81.89854,88.00000 L81.57815,89.00000 L81.00000,90.00000 L80.00000,91.00000 L79.00000,91.57815 L78.00000,91.89854 L77.00000,92.00000 "/>
    <path fill-rule="evenodd" style="fill: none; stroke: rgb(255, 0, 0); stroke-width: 0.2;" d="M37.00000,42.00000 L36.00000,41.89854 L35.00000,41.57815 L34.00000,41.00000 L33.00000,40.00000 L32.42185,39.00000 L32.10146,38.00000 L32.00000,37.00000 "/>
    <path fill-rule="evenodd" style="fill: none; stroke: rgb(255, 0, 0); stroke-width: 0.2;" d="M82.00000,97.00000 L82.10146,96.00000 L82.42185,95.00000 L83.00000,94.00000 L84.00000,93.00000 L85.00000,92.42185 L86.00000,92.10146 L87.00000,92.00000 "/>
    <path fill-rule="evenodd" style="fill: none; stroke: rgb(255, 0, 0); stroke-width: 0.2;" d="M27.00000,32.00000 L26.00000,31.89854 L25.00000,31.57815 L24.00000,31.00000 L23.00000,30.00000 L22.42185,29.00000 L22.10146,28.00000 L22.00000,27.00000 "/>
    <path fill-rule="evenodd" style="fill: none; stroke: rgb(255, 0, 0); stroke-width: 0.2;" d="M72.00000,97.00000 L72.10146,96.00000 L72.42185,95.00000 L73.00000,94.00000 L74.00000,93.00000 L75.00000,92.42185 L76.00000,92.10146 L77.00000,92.00000 "/>
    <path fill-rule="evenodd" style="fill: none; stroke: rgb(255, 0, 0); stroke-width: 0.2;" d="M32.00000,17.00000 L32.10146,16.00000 L32.42185,15.00000 L33.00000,14.00000 L34.00000,13.00000 L35.00000,12.42185 L36.00000,12.10146 L37.00000,12.00000 "/>
    <path fill-rule="evenodd" style="fill: none; stroke: rgb(255, 0, 0); stroke-width: 0.2;" d="M27.00000,22.00000 L26.00000,21.89854 L25.00000,21.57815 L24.00000,21.00000 L23.00000,20.00000 L22.42185,19.00000 L22.10146,18.00000 L22.00000,17.00000 "/>
    <path fill-rule="evenodd" style="fill: none; stroke: rgb(255, 0, 0); stroke-width: 0.2;" d="M62.00000,57.00000 L61.89854,58.00000 L61.57815,59.00000 L61.00000,60.00000 L60.00000,61.00000 L59.00000,61.57815 L58.00000,61.89854 L57.00000,62.00000 "/>
    <path fill-rule="evenodd" style="fill: none; stroke: rgb(255, 0, 0); stroke-width: 0.2;" d="M42.00000,7.00000 L41.89854,8.00000 L41.57815,9.00000 L41.00000,10.00000 L40.00000,11.00000 L39.00000,11.57815 L38.00000,11.89854 L37.00000,12.00000 "/>
    <path fill-rule="evenodd" style="fill: none; stroke: rgb(255, 0, 0); stroke-width: 0.2;" d="M22.00000,57.00000 L21.89854,58.00000 L21.57815,59.00000 L21.00000,60.00000 L20.00000,61.00000 L19.00000,61.57815 L18.00000,61.89854 L17.00000,62.00000 "/>
    <path fill-rule="evenodd" style="fill: none; stroke: rgb(255, 0, 0); stroke-width: 0.2;" d="M52.00000,7.00000 L51.89854,8.00000 L51.57815,9.00000 L51.00000,10.00000 L50.00000,11.00000 L49.00000,11.57815 L48.00000,11.89854 L47.00000,12.00000 "/>
    <path fill-rule="evenodd" style="fill: none; stroke: rgb(255, 0, 0); stroke-width: 0.2;" d="M57.00000,52.00000 L58.00000,52.10146 L59.00000,52.42185 L60.00000,53.00000 L61.00000,54.00000 L61.57815,55.00000 L61.89854,56.00000 L62.00000,57.00000 "/>
    <path fill-rule="evenodd" style="fill: none; stroke: rgb(255, 0, 0); stroke-width: 0.2;" d="M82.00000,7.00000 L81.89854,8.00000 L81.57815,9.00000 L81.00000,10.00000 L80.00000,11.00000 L79.00000,11.57815 L78.00000,11.89854 L77.00000,12.00000 "/>
    <path fill-rule="evenodd" style="fill: none; stroke: rgb(255, 0, 0); stroke-width: 0.2;" d="M32.00000,7.00000 L31.89854,8.00000 L31.57815,9.00000 L31.00000,10.00000 L30.00000,11.00000 L29.00000,11.57815 L28.00000,11.89854 L27.00000,12.00000 "/>
    <path fill-rule="evenodd" style="fill: none; stroke: rgb(255, 0, 0); stroke-width: 0.2;" d="M47.00000,42.00000 L48.00000,42.10146 L49.00000,42.42185 L50.00000,43.00000 L51.00000,44.00000 L51.57815,45.00000 L51.89854,46.00000 L52.00000,47.00000 "/>
    <path fill-rule="evenodd" style="fill: none; stroke: rgb(255, 0, 0); stroke-width: 0.2;" d="M17.00000,82.00000 L16.00000,81.89854 L15.00000,81.57815 L14.00000,81.00000 L13.00000,80.00000 L12.42185,79.00000 L12.10146,78.00000 L12.00000,77.00000 "/>
    <path fill-rule="evenodd" style="fill: none; stroke: rgb(255, 0, 0); stroke-width: 0.2;" d="M7.00000,32.00000 L8.00000,32.10146 L9.00000,32.42185 L10.00000,33.00000 L11.00000,34.00000 L11.57815,35.00000 L11.89854,36.00000 L12.00000,37.00000 "/>
    <path fill-rule="evenodd" style="fill: none; stroke: rgb(255, 0, 0); stroke-width: 0.2;" d="M92.00000,97.00000 L92.10146,96.00000 L92.42185,95.00000 L93.00000,94.00000 L94.00000,93.00000 L95.00000,92.42185 L96.00000,92.10146 L97.00000,92.00000 "/>
    <path fill-rule="evenodd" style="fill: none; stroke: rgb(255, 0, 0); stroke-width: 0.2;" d="M32.00000,87.00000 L32.10146,86.00000 L32.42185,85.00000 L33.00000,84.00000 L34.00000,83.00000 L35.00000,82.42185 L36.00000,82.10146 L37.00000,82.00000 "/>
    <path fill-rule="evenodd" style="fill: none; stroke: rgb(255, 0, 0); stroke-width: 0.2;" d="M42.00000,47.00000 L41.89854,48.00000 L41.57815,49.00000 L41.00000,50.00000 L40.00000,51.00000 L39.00000,51.57815 L38.00000,51.89854 L37.00000,52.00000 "/>
    <path fill-rule="evenodd" style="fill: none; stroke: rgb(255, 0, 0); stroke-width: 0.2;" d="M52.00000,87.00000 L52.10146,86.00000 L52.42185,85.00000 L53.00000,84.00000 L54.00000,83.00000 L55.00000,82.42185 L56.00000,82.10146 L57.00000,82.00000 "/>
    <path fill-rule="evenodd" style="fill: none; stroke: rgb(255, 0, 0); stroke-width: 0.2;" d="M12.00000,7.00000 L11.89854,8.00000 L11.57815,9.00000 L11.00000,10.00000 L10.00000,11.00000 L9.00000,11.57815 L8.00000,11.89854 L7.00000,12.00000 "/>
    <path fill-rule="evenodd" style="fill: none; stroke: rgb(255, 0, 0); stroke-width: 0.2;" d="M52.00000,57.00000 L51.89854,58.00000 L51.57815,59.00000 L51.00000,60.00000 L50.00000,61.00000 L49.00000,61.57815 L48.00000,61.89854 L47.00000,62.00000 "/>
    <path fill-rule="evenodd" style="fill: none; stroke: rgb(255, 0, 0); stroke-width: 0.2;" d="M42.00000,67.00000 L42.10146,66.00000 L42.42185,65.00000 L43.00000,64.00000 L44.00000,63.00000 L45.00000,62.42185 L46.00000,62.10146 L47.00000,62.00000 "/>
    <path fill-rule="evenodd" style="fill: none; stroke: rgb(255, 0, 0); stroke-width: 0.2;" d="M12.00000,77.00000 L11.89854,78.00000 L11.57815,79.00000 L11.00000,80.00000 L10.00000,81.00000 L9.00000,81.57815 L8.00000,81.89854 L7.00000,82.00000 "/>
    <path fill-rule="evenodd" style="fill: none; stroke: rgb(255, 0, 0); stroke-width: 0.2;" d="M7.00000,42.00000 L8.00000,42.10146 L9.00000,42.42185 L10.00000,43.00000 L11.00000,44.00000 L11.57815,45.00000 L11.89854,46.00000 L12.00000,47.00000 "/>
    <path fill-rule="evenodd" style="fill: none; stroke: rgb(255, 0, 0); stroke-width: 0.2;" d="M7.00000,42.00000 L6.00000,41.89854 L5.00000,41.57815 L4.00000,41.00000 L3.00000,40.00000 L2.42185,39.00000 L2.10146,38.00000 L2.00000,37.00000 L2.10146,36.00000 L2.42185,35.00000 L3.00000,34.00000 L4.00000,33.00000 L5.00000,32.42185 L6.00000,32.10146 L7.00000,32.00000 "/>
    <path fill-rule="evenodd" style="fill: none; stroke: rgb(255, 0, 0); stroke-width: 0.2;" d="M67.00000,22.00000 L66.00000,21.89854 L65.00000,21.57815 L64.00000,21.00000 L63.00000,20.00000 L62.42185,19.00000 L62.10146,18.00000 L62.00000,17.00000 "/>
    <path fill-rule="evenodd" style="fill: none; stroke: rgb(255, 0, 0); stroke-width: 0.2;" d="M12.00000,77.00000 L12.10146,76.00000 L12.42185,75.00000 L13.00000,74.00000 L14.00000,73.00000 L15.00000,72.42185 L16.00000,72.10146 L17.00000,72.00000 "/>
    <path fill-rule="evenodd" style="fill: none; stroke: rgb(255, 0, 0); stroke-width: 0.2;" d="M62.00000,87.00000 L61.89854,88.00000 L61.57815,89.00000 L61.00000,90.00000 L60.00000,91.00000 L59.00000,91.57815 L58.00000,91.89854 L57.00000,92.00000 "/>
    <path fill-rule="evenodd" style="fill: none; stroke: rgb(255, 0, 0); stroke-width: 0.2;" d="M87.00000,32.00000 L88.00000,32.10146 L89.00000,32.42185 L90.00000,33.00000 L91.00000,34.00000 L91.57815,35.00000 L91.89854,36.00000 L92.00000,37.00000 "/>
    <path fill-rule="evenodd" style="fill: none; stroke: rgb(255, 0, 0); stroke-width: 0.2;" d="M92.00000,77.00000 L92.10146,76.00000 L92.42185,75.00000 L93.00000,74.00000 L94.00000,73.00000 L95.00000,72.42185 L96.00000,72.10146 L97.00000,72.00000 "/>
    <path fill-rule="evenodd" style="fill: none; stroke: rgb(255, 0, 0); stroke-width: 0.2;" d="M37.00000,62.00000 L38.00000,62.10146 L39.00000,62.42185 L40.00000,63.00000 L41.00000,64.00000 L41.57815,65.00000 L41.89854,66.00000 L42.00000,67.00000 "/>
    <path fill-rule="evenodd" style="fill: none; stroke: rgb(255, 0, 0); stroke-width: 0.2;" d="M17.00000,22.00000 L16.00000,21.89854 L15.00000,21.57815 L14.00000,21.00000 L13.00000,20.00000 L12.42185,19.00000 L12.10146,18.00000 L12.00000,17.00000 "/>
    <path fill-rule="evenodd" style="fill: none; stroke: rgb(255, 0, 0); stroke-width: 0.2;" d="M97.00000,52.00000 L96.00000,51.89854 L95.00000,51.57815 L94.00000,51.00000 L93.00000,50.00000 L92.42185,49.00000 L92.10146,48.00000 L92.00000,47.00000 "/>
    <path fill-rule="evenodd" style="fill: none; stroke: rgb(255, 0, 0); stroke-width: 0.2;" d="M12.00000,47.00000 L11.89854,48.00000 L11.57815,49.00000 L11.00000,50.00000 L10.00000,51.00000 L9.00000,51.57815 L8.00000,51.89854 L7.00000,52.00000 "/>
    <path fill-rule="evenodd" style="fill: none; stroke: rgb(255, 0, 0); stroke-width: 0.2;" d="M77.00000,52.00000 L78.00000,52.10146 L79.00000,52.42185 L80.00000,53.00000 L81.00000,54.00000 L81.57815,55.00000 L81.89854,56.00000 L82.00000,57.00000 "/>
    <path fill-rule="evenodd" style="fill: none; stroke: rgb(255, 0, 0); stroke-width: 0.2;" d="M52.00000,77.00000 L52.10146,76.00000 L52.42185,75.00000 L53.00000,74.00000 L54.00000,73.00000 L55.00000,72.42185 L56.00000,72.10146 L57.00000,72.00000 "/>
    <path fill-rule="evenodd" style="fill: none; stroke: rgb(255, 0, 0); stroke-width: 0.2;" d="M82.00000,27.00000 L82.10146,26.00000 L82.42185,25.00000 L83.00000,24.00000 L84.00000,23.00000 L85.00000,22.42185 L86.00000,22.10146 L87.00000,22.00000 "/>
    <path fill-rule="evenodd" style="fill: none; stroke: rgb(255, 0, 0); stroke-width: 0.2;" d="M92.00000,37.00000 L91.89854,38.00000 L91.57815,39.00000 L91.00000,40.00000 L90.00000,41.00000 L89.00000,41.57815 L88.00000,41.89854 L87.00000,42.00000 "/>
    <path fill-rule="evenodd" style="fill: none; stroke: rgb(255, 0, 0); stroke-width: 0.2;" d="M92.00000,27.00000 L91.89854,28.00000 L91.57815,29.00000 L91.00000,30.00000 L90.00000,31.00000 L89.00000,31.57815 L88.00000,31.89854 L87.00000,32.00000 "/>
    <path fill-rule="evenodd" style="fill: none; stroke: rgb(255, 0, 0); stroke-width: 0.2;" d="M57.00000,42.00000 L56.00000,41.89854 L55.00000,41.57815 L54.00000,41.00000 L53.00000,40.00000 L52.42185,39.00000 L52.10146,38.00000 L52.00000,37.00000 "/>
    <path fill-rule="evenodd" style="fill: none; stroke: rgb(255, 0, 0); stroke-width: 0.2;" d="M67.00000,52.00000 L66.00000,51.89854 L65.00000,51.57815 L64.00000,51.00000 L63.00000,50.00000 L62.42185,49.00000 L62.10146,48.00000 L62.00000,47.00000 "/>
    <path fill-rule="evenodd" style="fill: none; stroke: rgb(255, 0, 0); stroke-width: 0.2;" d="M17.00000,22.00000 L18.00000,22.10146 L19.00000,22.42185 L20.00000,23.00000 L21.00000,24.00000 L21.57815,25.00000 L21.89854,26.00000 L22.00000,27.00000 "/>
    <path fill-rule="evenodd" style="fill: none; stroke: rgb(255, 0, 0); stroke-width: 0.2;" d="M77.00000,72.00000 L78.00000,72.10146 L79.00000,72.42185 L80.00000,73.00000 L81.00000,74.00000 L81.57815,75.00000 L81.89854,76.00000 L82.00000,77.00000 "/>
    <path fill-rule="evenodd" style="fill: none; stroke: rgb(255, 0, 0); stroke-width: 0.2;" d="M67.00000,62.00000 L68.00000,62.10146 L69.00000,62.42185 L70.00000,63.00000 L71.00000,64.00000 L71.57815,65.00000 L71.89854,66.00000 L72.00000,67.00000 "/>
    <path fill-rule="evenodd" style="fill: none; stroke: rgb(255, 0, 0); stroke-width: 0.2;" d="M37.00000,42.00000 L38.00000,42.10146 L39.00000,42.42185 L40.00000,43.00000 L41.00000,44.00000 L41.57815,45.00000 L41.89854,46.00000 L42.00000,47.00000 "/>
    <path fill-rule="evenodd" style="fill: none; stroke: rgb(255, 0, 0); stroke-width: 0.2;" d="M67.00000,72.00000 L68.00000,72.10146 L69.00000,72.42185 L70.00000,73.00000 L71.00000,74.00000 L71.57815,75.00000 L71.89854,76.00000 L72.00000,77.00000 "/>
    <path fill-rule="evenodd" style="fill: none; stroke: rgb(255, 0, 0); stroke-width: 0.2;" d="M27.00000,82.00000 L28.00000,82.10146 L29.00000,82.42185 L30.00000,83.00000 L31.00000,84.00000 L31.57815,85.00000 L31.89854,86.00000 L32.00000,87.00000 "/>
    <path fill-rule="evenodd" style="fill: none; stroke: rgb(255, 0, 0); stroke-width: 0.2;" d="M47.00000,72.00000 L48.00000,72.10146 L49.00000,72.42185 L50.00000,73.00000 L51.00000,74.00000 L51.57815,75.00000 L51.89854,76.00000 L52.00000,77.00000 "/>
    <path fill-rule="evenodd" style="fill: none; stroke: rgb(255, 0, 0); stroke-width: 0.2;" d="M27.00000,62.00000 L28.00000,62.10146 L29.00000,62.42185 L30.00000,63.00000 L31.00000,64.00000 L31.57815,65.00000 L31.89854,66.00000 L32.00000,67.00000 "/>
    <path fill-rule="evenodd" style="fill: none; stroke: rgb(255, 0, 0); stroke-width: 0.2;" d="M77.00000,52.00000 L76.00000,51.89854 L75.00000,51.57815 L74.00000,51.00000 L73.00000,50.00000 L72.42185,49.00000 L72.10146,48.00000 L72.00000,47.00000 "/>
    <path fill-rule="evenodd" style="fill: none; stroke: rgb(255, 0, 0); stroke-width: 0.2;" d="M72.00000,37.00000 L72.10146,36.00000 L72.42185,35.00000 L73.00000,34.00000 L74.00000,33.00000 L75.00000,32.42185 L76.00000,32.10146 L77.00000,32.00000 "/>
    <path fill-rule="evenodd" style="fill: none; stroke: rgb(255, 0, 0); stroke-width: 0.2;" d="M77.00000,32.00000 L76.00000,31.89854 L75.00000,31.57815 L74.00000,31.00000 L73.00000,30.00000 L72.42185,29.00000 L72.10146,28.00000 L72.00000,27.00000 "/>
    <path fill-rule="evenodd" style="fill: none; stroke: rgb(255, 0, 0); stroke-width: 0.2;" d="M32.00000,27.00000 L31.89854,28.00000 L31.57815,29.00000 L31.00000,30.00000 L30.00000,31.00000 L29.00000,31.57815 L28.00000,31.89854 L27.00000,32.00000 "/>
    <path fill-rule="evenodd" style="fill: none; stroke: rgb(255, 0, 0); stroke-width: 0.2;" d="M62.00000,67.00000 L62.10146,66.00000 L62.42185,65.00000 L63.00000,64.00000 L64.00000,63.00000 L65.00000,62.42185 L66.00000,62.10146 L67.00000,62.00000 "/>
    <path fill-rule="evenodd" style="fill: none; stroke: rgb(255, 0, 0); stroke-width: 0.2;" d="M97.00000,62.00000 L96.00000,61.89854 L95.00000,61.57815 L94.00000,61.00000 L93.00000,60.00000 L92.42185,59.00000 L92.10146,58.00000 L92.00000,57.00000 "/>
    <path fill-rule="evenodd" style="fill: none; stroke: rgb(255, 0, 0); stroke-width: 0.2;" d="M62.00000,7.00000 L61.89854,8.00000 L61.57815,9.00000 L61.00000,10.00000 L60.00000,11.00000 L59.00000,11.57815 L58.00000,11.89854 L57.00000,12.00000 "/>
    <path fill-rule="evenodd" style="fill: none; stroke: rgb(255, 0, 0); stroke-width: 0.2;" d="M77.00000,22.00000 L78.00000,22.10146 L79.00000,22.42185 L80.00000,23.00000 L81.00000,24.00000 L81.57815,25.00000 L81.89854,26.00000 L82.00000,27.00000 "/>
    <path fill-rule="evenodd" style="fill: none; stroke: rgb(255, 0, 0); stroke-width: 0.2;" d="M62.00000,37.00000 L62.10146,36.00000 L62.42185,35.00000 L63.00000,34.00000 L64.00000,33.00000 L65.00000,32.42185 L66.00000,32.10146 L67.00000,32.00000 "/>
    <path fill-rule="evenodd" style="fill: none; stroke: rgb(255, 0, 0); stroke-width: 0.2;" d="M52.00000,27.00000 L52.10146,26.00000 L52.42185,25.00000 L53.00000,24.00000 L54.00000,23.00000 L55.00000,22.42185 L56.00000,22.10146 L57.00000,22.00000 "/>
    <path fill-rule="evenodd" style="fill: none; stroke: rgb(255, 0, 0); stroke-width: 0.2;" d="M32.00000,67.00000 L32.10146,66.00000 L32.42185,65.00000 L33.00000,64.00000 L34.00000,63.00000 L35.00000,62.42185 L36.00000,62.10146 L37.00000,62.00000 "/>
    <path fill-rule="evenodd" style="fill: none; stroke: rgb(255, 0, 0); stroke-width: 0.2;" d="M92.00000,67.00000 L92.10146,66.00000 L92.42185,65.00000 L93.00000,64.00000 L94.00000,63.00000 L95.00000,62.42185 L96.00000,62.10146 L97.00000,62.00000 "/>
    <path fill-rule="evenodd" style="fill: none; stroke: rgb(255, 0, 0); stroke-width: 0.2;" d="M87.00000,62.00000 L86.00000,61.89854 L85.00000,61.57815 L84.00000,61.00000 L83.00000,60.00000 L82.42185,59.00000 L82.10146,58.00000 L82.00000,57.00000 "/>
    <path fill-rule="evenodd" style="fill: none; stroke: rgb(255, 0, 0); stroke-width: 0.2;" d="M22.00000,47.00000 L22.10146,46.00000 L22.42185,45.00000 L23.00000,44.00000 L24.00000,43.00000 L25.00000,42.42185 L26.00000,42.10146 L27.00000,42.00000 "/>
    <path fill-rule="evenodd" style="fill: none; stroke: rgb(255, 0, 0); stroke-width: 0.2;" d="M52.00000,17.00000 L51.89854,18.00000 L51.57815,19.00000 L51.00000,20.00000 L50.00000,21.00000 L49.00000,21.57815 L48.00000,21.89854 L47.00000,22.00000 "/>
    <path fill-rule="evenodd" style="fill: none; stroke: rgb(255, 0, 0); stroke-width: 0.2;" d="M67.00000,92.00000 L68.00000,92.10146 L69.00000,92.42185 L70.00000,93.00000 L71.00000,94.00000 L71.57815,95.00000 L71.89854,96.00000 L72.00000,97.00000 "/>
    <path fill-rule="evenodd" style="fill: none; stroke: rgb(255, 0, 0); stroke-width: 0.2;" d="M62.00000,47.00000 L61.89854,48.00000 L61.57815,49.00000 L61.00000,50.00000 L60.00000,51.00000 L59.00000,51.57815 L58.00000,51.89854 L57.00000,52.00000 "/>
    <path fill-rule="evenodd" style="fill: none; stroke: rgb(255, 0, 0); stroke-width: 0.2;" d="M72.00000,27.00000 L71.89854,28.00000 L71.57815,29.00000 L71.00000,30.00000 L70.00000,31.00000 L69.00000,31.57815 L68.00000,31.89854 L67.00000,32.00000 "/>

<script>
let svgs = document.children[0];
let paths = Array.from(svgs.children).filter(function(c) {
    var orig = c.style.stroke;
    c.onmouseover = function() {
        c.style.stroke = "rgb(0, 0, 255)";
    };
    c.onmouseout = function () {
        c.style.stroke = orig;
    };
    c.onclick = function () {
        svgs.removeChild()
    }
});

for (let path of paths) {
    console.log(path);
}
</script></svg>