<svg viewBox="0 0 1100 1100" xmlns="http://www.w3.org/2000/svg">
    <path fill-rule="evenodd" style="fill: rgb(0, 0, 0); stroke: none; stroke-width: none;" d="M2.04,50.00 L2.09,55.00 L2.64,60.00 L3.72,65.00 L5.35,70.00 L7.60,75.00 L10.58,80.00 L13.58,84.00 L18.00,88.66 L23.00,92.73 L28.00,95.86 L32.00,97.83 L37.00,99.70 L42.00,100.99 L47.00,101.75 L52.00,102.00 L49.00,102.09 L44.00,102.64 L39.00,103.72 L34.00,105.35 L29.00,107.60 L25.00,109.92 L21.00,112.77 L16.29,117.00 L12.00,122.00 L9.29,126.00 L7.10,130.00 L5.00,134.94 L3.46,140.00 L2.49,145.00 L2.04,150.00 L2.09,155.00 L2.64,160.00 L3.72,165.00 L5.35,170.00 L7.60,175.00 L9.92,179.00 L12.77,183.00 L17.00,187.71 L22.00,192.00 L26.00,194.71 L30.00,196.90 L34.94,199.00 L40.00,200.54 L45.00,201.51 L50.00,201.96 L55.00,201.91 L60.00,201.36 L65.00,200.28 L70.00,198.65 L75.00,196.40 L80.00,193.42 L84.00,190.42 L88.66,186.00 L92.73,181.00 L95.86,176.00 L97.83,172.00 L99.70,167.00 L100.99,162.00 L101.75,157.00 L102.00,152.00 L102.09,155.00 L102.64,160.00 L103.72,165.00 L105.35,170.00 L107.60,175.00 L110.58,180.00 L113.58,184.00 L118.00,188.66 L123.00,192.73 L128.00,195.86 L132.00,197.83 L137.00,199.70 L142.00,200.99 L147.00,201.75 L152.00,202.00 L149.00,202.09 L144.00,202.64 L139.00,203.72 L134.00,205.35 L129.00,207.60 L124.00,210.58 L120.00,213.58 L115.34,218.00 L111.27,223.00 L108.14,228.00 L106.17,232.00 L104.30,237.00 L103.01,242.00 L102.25,247.00 L101.91,255.00 L101.36,260.00 L100.28,265.00 L98.65,270.00 L96.40,275.00 L93.42,280.00 L90.42,284.00 L86.00,288.66 L81.00,292.73 L76.00,295.86 L72.00,297.83 L67.00,299.70 L62.00,300.99 L57.00,301.75 L49.00,302.09 L44.00,302.64 L39.00,303.72 L34.00,305.35 L29.00,307.60 L25.00,309.92 L21.00,312.77 L16.29,317.00 L12.00,322.00 L9.29,326.00 L7.10,330.00 L5.00,334.94 L3.46,340.00 L2.49,345.00 L2.04,350.00 L2.09,355.00 L2.64,360.00 L3.72,365.00 L5.35,370.00 L7.60,375.00 L9.92,379.00 L12.77,383.00 L17.00,387.71 L22.00,392.00 L26.00,394.71 L30.00,396.90 L34.94,399.00 L40.00,400.54 L45.00,401.51 L50.00,401.96 L55.00,401.91 L60.00,401.36 L65.00,400.28 L70.00,398.65 L75.00,396.40 L80.00,393.42 L84.00,390.42 L88.66,386.00 L92.73,381.00 L95.86,376.00 L97.83,372.00 L99.70,367.00 L100.99,362.00 L101.75,357.00 L102.00,352.00 L102.09,355.00 L102.64,360.00 L103.72,365.00 L105.35,370.00 L107.60,375.00 L109.92,379.00 L112.77,383.00 L117.00,387.71 L122.00,392.00 L126.00,394.71 L130.00,396.90 L134.94,399.00 L140.00,400.54 L145.00,401.51 L150.00,401.96 L155.00,401.91 L160.00,401.36 L165.00,400.28 L170.00,398.65 L175.00,396.40 L180.00,393.42 L184.00,390.42 L188.66,386.00 L192.73,381.00 L195.86,376.00 L197.83,372.00 L199.70,367.00 L200.99,362.00 L201.75,357.00 L202.00,352.00 L202.09,355.00 L202.64,360.00 L203.72,365.00 L205.35,370.00 L207.60,375.00 L209.92,379.00 L212.77,383.00 L217.00,387.71 L222.00,392.00 L226.00,394.71 L230.00,396.90 L234.94,399.00 L240.00,400.54 L245.00,401.51 L250.00,401.96 L255.00,401.91 L260.00,401.36 L265.00,400.28 L270.00,398.65 L275.00,396.40 L279.00,394.08 L283.00,391.23 L287.71,387.00 L292.00,382.00 L294.71,378.00 L296.90,374.00 L299.00,369.06 L300.54,364.00 L301.51,359.00 L301.96,354.00 L301.91,349.00 L301.36,344.00 L300.28,339.00 L298.65,334.00 L296.40,329.00 L294.08,325.00 L291.23,321.00 L287.00,316.29 L282.00,312.00 L278.00,309.29 L274.00,307.10 L269.06,305.00 L264.00,303.46 L259.00,302.49 L254.00,302.04 L249.00,302.09 L244.00,302.64 L239.00,303.72 L234.00,305.35 L229.00,307.60 L224.00,310.58 L220.00,313.58 L215.34,318.00 L211.27,323.00 L208.14,328.00 L206.17,332.00 L204.30,337.00 L203.01,342.00 L202.25,347.00 L202.00,352.00 L201.91,349.00 L201.36,344.00 L200.28,339.00 L198.65,334.00 L196.40,329.00 L193.42,324.00 L190.42,320.00 L186.00,315.34 L181.00,311.27 L176.00,308.14 L172.00,306.17 L167.00,304.30 L162.00,303.01 L157.00,302.25 L152.00,302.00 L155.00,301.91 L160.00,301.36 L165.00,300.28 L170.00,298.65 L175.00,296.40 L180.00,293.42 L184.00,290.42 L188.66,286.00 L192.73,281.00 L195.86,276.00 L197.83,272.00 L199.70,267.00 L200.99,262.00 L201.75,257.00 L202.00,252.00 L202.09,255.00 L202.64,260.00 L203.72,265.00 L205.35,270.00 L207.60,275.00 L209.92,279.00 L212.77,283.00 L217.00,287.71 L222.00,292.00 L226.00,294.71 L230.00,296.90 L234.94,299.00 L240.00,300.54 L245.00,301.51 L250.00,301.96 L255.00,301.91 L260.00,301.36 L265.00,300.28 L270.00,298.65 L275.00,296.40 L280.00,293.42 L284.00,290.42 L288.66,286.00 L292.73,281.00 L295.86,276.00 L297.83,272.00 L299.70,267.00 L300.99,262.00 L301.75,257.00 L302.09,249.00 L302.64,244.00 L303.72,239.00 L305.35,234.00 L307.60,229.00 L309.92,225.00 L312.77,221.00 L317.00,216.29 L322.00,212.00 L326.00,209.29 L330.00,207.10 L334.94,205.00 L340.00,203.46 L345.00,202.49 L350.00,202.04 L355.00,202.09 L360.00,202.64 L365.00,203.72 L370.00,205.35 L375.00,207.60 L379.00,209.92 L383.00,212.77 L387.71,217.00 L392.00,222.00 L394.71,226.00 L396.90,230.00 L399.00,234.94 L400.54,240.00 L401.51,245.00 L401.96,250.00 L401.91,255.00 L401.36,260.00 L400.28,265.00 L398.65,270.00 L396.40,275.00 L393.42,280.00 L390.42,284.00 L386.00,288.66 L381.00,292.73 L376.00,295.86 L372.00,297.83 L367.00,299.70 L362.00,300.99 L357.00,301.75 L349.00,302.09 L344.00,302.64 L339.00,303.72 L334.00,305.35 L329.00,307.60 L325.00,309.92 L321.00,312.77 L316.29,317.00 L312.00,322.00 L309.29,326.00 L307.10,330.00 L305.00,334.94 L303.46,340.00 L302.49,345.00 L302.04,350.00 L302.09,355.00 L302.64,360.00 L303.72,365.00 L305.35,370.00 L307.60,375.00 L309.92,379.00 L312.77,383.00 L317.00,387.71 L322.00,392.00 L326.00,394.71 L330.00,396.90 L334.94,399.00 L340.00,400.54 L345.00,401.51 L350.00,401.96 L355.00,401.91 L360.00,401.36 L365.00,400.28 L370.00,398.65 L375.00,396.40 L380.00,393.42 L384.00,390.42 L388.66,386.00 L392.73,381.00 L395.86,376.00 L397.83,372.00 L399.70,367.00 L400.99,362.00 L401.75,357.00 L402.00,352.00 L402.09,355.00 L402.64,360.00 L403.72,365.00 L405.35,370.00 L407.60,375.00 L410.58,380.00 L413.58,384.00 L418.00,388.66 L423.00,392.73 L428.00,395.86 L432.00,397.83 L437.00,399.70 L442.00,400.99 L447.00,401.75 L452.00,402.00 L449.00,402.09 L444.00,402.64 L439.00,403.72 L434.00,405.35 L429.00,407.60 L424.00,410.58 L420.00,413.58 L415.34,418.00 L411.27,423.00 L408.14,428.00 L406.17,432.00 L404.30,437.00 L403.01,442.00 L402.25,447.00 L401.91,455.00 L401.36,460.00 L400.28,465.00 L398.65,470.00 L396.40,475.00 L394.08,479.00 L391.23,483.00 L387.00,487.71 L382.00,492.00 L378.00,494.71 L374.00,496.90 L369.06,499.00 L364.00,500.54 L359.00,501.51 L354.00,501.96 L349.00,501.91 L344.00,501.36 L339.00,500.28 L334.00,498.65 L329.00,496.40 L324.00,493.42 L320.00,490.42 L315.34,486.00 L311.27,481.00 L308.14,476.00 L306.17,472.00 L304.30,467.00 L303.01,462.00 L302.25,457.00 L302.00,452.00 L301.91,455.00 L301.36,460.00 L300.28,465.00 L298.65,470.00 L296.40,475.00 L294.08,479.00 L291.23,483.00 L287.00,487.71 L282.00,492.00 L278.00,494.71 L274.00,496.90 L269.06,499.00 L264.00,500.54 L259.00,501.51 L254.00,501.96 L249.00,501.91 L244.00,501.36 L239.00,500.28 L234.00,498.65 L229.00,496.40 L224.00,493.42 L220.00,490.42 L215.34,486.00 L211.27,481.00 L208.14,476.00 L206.17,472.00 L204.30,467.00 L203.01,462.00 L202.25,457.00 L202.00,452.00 L201.91,455.00 L201.36,460.00 L200.28,465.00 L198.65,470.00 L196.40,475.00 L194.08,479.00 L191.23,483.00 L187.00,487.71 L182.00,492.00 L178.00,494.71 L174.00,496.90 L169.06,499.00 L164.00,500.54 L159.00,501.51 L154.00,501.96 L149.00,501.91 L144.00,501.36 L139.00,500.28 L134.00,498.65 L129.00,496.40 L124.00,493.42 L120.00,490.42 L115.34,486.00 L111.27,481.00 L108.14,476.00 L106.17,472.00 L104.30,467.00 L103.01,462.00 L102.25,457.00 L102.00,452.00 L101.91,455.00 L101.36,460.00 L100.28,465.00 L98.65,470.00 L96.40,475.00 L93.42,480.00 L90.42,484.00 L86.00,488.66 L81.00,492.73 L76.00,495.86 L72.00,497.83 L67.00,499.70 L62.00,500.99 L57.00,501.75 L49.00,502.09 L44.00,502.64 L39.00,503.72 L34.00,505.35 L29.00,507.60 L25.00,509.92 L21.00,512.77 L16.29,517.00 L12.00,522.00 L9.29,526.00 L7.10,530.00 L5.00,534.94 L3.46,540.00 L2.49,545.00 L2.04,550.00 L2.09,555.00 L2.64,560.00 L3.72,565.00 L5.35,570.00 L7.60,575.00 L9.92,579.00 L12.77,583.00 L17.00,587.71 L22.00,592.00 L26.00,594.71 L30.00,596.90 L34.94,599.00 L40.00,600.54 L45.00,601.51 L50.00,601.96 L55.00,601.91 L60.00,601.36 L65.00,600.28 L70.00,598.65 L75.00,596.40 L80.00,593.42 L84.00,590.42 L88.66,586.00 L92.73,581.00 L95.86,576.00 L97.83,572.00 L99.70,567.00 L100.99,562.00 L101.75,557.00 L102.09,549.00 L102.64,544.00 L103.72,539.00 L105.35,534.00 L107.60,529.00 L109.92,525.00 L112.77,521.00 L117.00,516.29 L122.00,512.00 L126.00,509.29 L130.00,507.10 L134.94,505.00 L140.00,503.46 L145.00,502.49 L150.00,502.04 L155.00,502.09 L160.00,502.64 L165.00,503.72 L170.00,505.35 L175.00,507.60 L179.00,509.92 L183.00,512.77 L187.71,517.00 L192.00,522.00 L194.71,526.00 L196.90,530.00 L199.00,534.94 L200.54,540.00 L201.51,545.00 L201.96,550.00 L201.91,555.00 L201.36,560.00 L200.28,565.00 L198.65,570.00 L196.40,575.00 L193.42,580.00 L190.42,584.00 L186.00,588.66 L181.00,592.73 L176.00,595.86 L172.00,597.83 L167.00,599.70 L162.00,600.99 L157.00,601.75 L152.00,602.00 L155.00,602.09 L160.00,602.64 L165.00,603.72 L170.00,605.35 L175.00,607.60 L179.00,609.92 L183.00,612.77 L187.71,617.00 L192.00,622.00 L194.71,626.00 L196.90,630.00 L199.00,634.94 L200.54,640.00 L201.51,645.00 L201.96,650.00 L201.91,655.00 L201.36,660.00 L200.28,665.00 L198.65,670.00 L196.40,675.00 L194.08,679.00 L191.23,683.00 L187.00,687.71 L182.00,692.00 L178.00,694.71 L174.00,696.90 L169.06,699.00 L164.00,700.54 L159.00,701.51 L154.00,701.96 L149.00,701.91 L144.00,701.36 L139.00,700.28 L134.00,698.65 L129.00,696.40 L124.00,693.42 L120.00,690.42 L115.34,686.00 L111.27,681.00 L108.14,676.00 L106.17,672.00 L104.30,667.00 L103.01,662.00 L102.25,657.00 L102.00,652.00 L101.91,655.00 L101.36,660.00 L100.28,665.00 L98.65,670.00 L96.40,675.00 L93.42,680.00 L90.42,684.00 L86.00,688.66 L81.00,692.73 L76.00,695.86 L72.00,697.83 L67.00,699.70 L62.00,700.99 L57.00,701.75 L49.00,702.09 L44.00,702.64 L39.00,703.72 L34.00,705.35 L29.00,707.60 L25.00,709.92 L21.00,712.77 L16.29,717.00 L12.00,722.00 L9.29,726.00 L7.10,730.00 L5.00,734.94 L3.46,740.00 L2.49,745.00 L2.04,750.00 L2.09,755.00 L2.64,760.00 L3.72,765.00 L5.35,770.00 L7.60,775.00 L10.58,780.00 L13.58,784.00 L18.00,788.66 L23.00,792.73 L28.00,795.86 L32.00,797.83 L37.00,799.70 L42.00,800.99 L47.00,801.75 L52.00,802.00 L49.00,802.09 L44.00,802.64 L39.00,803.72 L34.00,805.35 L29.00,807.60 L25.00,809.92 L21.00,812.77 L16.29,817.00 L12.00,822.00 L9.29,826.00 L7.10,830.00 L5.00,834.94 L3.46,840.00 L2.49,845.00 L2.04,850.00 L2.09,855.00 L2.64,860.00 L3.72,865.00 L5.35,870.00 L7.60,875.00 L9.92,879.00 L12.77,883.00 L17.00,887.71 L22.00,892.00 L26.00,894.71 L30.00,896.90 L34.94,899.00 L40.00,900.54 L45.00,901.51 L50.00,901.96 L55.00,901.91 L60.00,901.36 L65.00,900.28 L70.00,898.65 L75.00,896.40 L79.00,894.08 L83.00,891.23 L87.71,887.00 L92.00,882.00 L94.71,878.00 L96.90,874.00 L99.00,869.06 L100.54,864.00 L101.51,859.00 L101.96,854.00 L101.91,849.00 L101.36,844.00 L100.28,839.00 L98.65,834.00 L96.40,829.00 L93.42,824.00 L90.42,820.00 L86.00,815.34 L81.00,811.27 L76.00,808.14 L72.00,806.17 L67.00,804.30 L62.00,803.01 L57.00,802.25 L52.00,802.00 L55.00,801.91 L60.00,801.36 L65.00,800.28 L70.00,798.65 L75.00,796.40 L80.00,793.42 L84.00,790.42 L88.66,786.00 L92.73,781.00 L95.86,776.00 L97.83,772.00 L99.70,767.00 L100.99,762.00 L101.75,757.00 L102.00,752.00 L102.09,755.00 L102.64,760.00 L103.72,765.00 L105.35,770.00 L107.60,775.00 L109.92,779.00 L112.77,783.00 L117.00,787.71 L122.00,792.00 L126.00,794.71 L130.00,796.90 L134.94,799.00 L140.00,800.54 L145.00,801.51 L150.00,801.96 L155.00,801.91 L160.00,801.36 L165.00,800.28 L170.00,798.65 L175.00,796.40 L180.00,793.42 L184.00,790.42 L188.66,786.00 L192.73,781.00 L195.86,776.00 L197.83,772.00 L199.70,767.00 L200.99,762.00 L201.75,757.00 L202.00,752.00 L202.09,755.00 L202.64,760.00 L203.72,765.00 L205.35,770.00 L207.60,775.00 L209.92,779.00 L212.77,783.00 L217.00,787.71 L222.00,792.00 L226.00,794.71 L230.00,796.90 L234.94,799.00 L240.00,800.54 L245.00,801.51 L250.00,801.96 L255.00,801.91 L260.00,801.36 L265.00,800.28 L270.00,798.65 L275.00,796.40 L279.00,794.08 L283.00,791.23 L287.71,787.00 L292.00,782.00 L294.71,778.00 L296.90,774.00 L299.00,769.06 L300.54,764.00 L301.51,759.00 L301.96,754.00 L301.91,749.00 L301.36,744.00 L300.28,739.00 L298.65,734.00 L296.40,729.00 L293.42,724.00 L290.42,720.00 L286.00,715.34 L281.00,711.27 L276.00,708.14 L272.00,706.17 L267.00,704.30 L262.00,703.01 L257.00,702.25 L252.00,702.00 L255.00,701.91 L260.00,701.36 L265.00,700.28 L270.00,698.65 L275.00,696.40 L280.00,693.42 L284.00,690.42 L288.66,686.00 L292.73,681.00 L295.86,676.00 L297.83,672.00 L299.70,667.00 L300.99,662.00 L301.75,657.00 L302.09,649.00 L302.64,644.00 L303.72,639.00 L305.35,634.00 L307.60,629.00 L310.58,624.00 L313.58,620.00 L318.00,615.34 L323.00,611.27 L328.00,608.14 L332.00,606.17 L337.00,604.30 L342.00,603.01 L347.00,602.25 L352.00,602.00 L349.00,601.91 L344.00,601.36 L339.00,600.28 L334.00,598.65 L329.00,596.40 L324.00,593.42 L320.00,590.42 L315.34,586.00 L311.27,581.00 L308.14,576.00 L306.17,572.00 L304.30,567.00 L303.01,562.00 L302.25,557.00 L302.00,552.00 L301.91,555.00 L301.36,560.00 L300.28,565.00 L298.65,570.00 L296.40,575.00 L294.08,579.00 L291.23,583.00 L287.00,587.71 L282.00,592.00 L278.00,594.71 L274.00,596.90 L269.06,599.00 L264.00,600.54 L259.00,601.51 L254.00,601.96 L249.00,601.91 L244.00,601.36 L239.00,600.28 L234.00,598.65 L229.00,596.40 L225.00,594.08 L221.00,591.23 L216.29,587.00 L212.00,582.00 L209.29,578.00 L207.10,574.00 L205.00,569.06 L203.46,564.00 L202.49,559.00 L202.04,554.00 L202.09,549.00 L202.64,544.00 L203.72,539.00 L205.35,534.00 L207.60,529.00 L209.92,525.00 L212.77,521.00 L217.00,516.29 L222.00,512.00 L226.00,509.29 L230.00,507.10 L234.94,505.00 L240.00,503.46 L245.00,502.49 L250.00,502.04 L255.00,502.09 L260.00,502.64 L265.00,503.72 L270.00,505.35 L275.00,507.60 L280.00,510.58 L284.00,513.58 L288.66,518.00 L292.73,523.00 L295.86,528.00 L297.83,532.00 L299.70,537.00 L300.99,542.00 L301.75,547.00 L302.00,552.00 L302.09,549.00 L302.64,544.00 L303.72,539.00 L305.35,534.00 L307.60,529.00 L309.92,525.00 L312.77,521.00 L317.00,516.29 L322.00,512.00 L326.00,509.29 L330.00,507.10 L334.94,505.00 L340.00,503.46 L345.00,502.49 L350.00,502.04 L355.00,502.09 L360.00,502.64 L365.00,503.72 L370.00,505.35 L375.00,507.60 L380.00,510.58 L384.00,513.58 L388.66,518.00 L392.73,523.00 L395.86,528.00 L397.83,532.00 L399.70,537.00 L400.99,542.00 L401.75,547.00 L402.00,552.00 L402.09,549.00 L402.64,544.00 L403.72,539.00 L405.35,534.00 L407.60,529.00 L410.58,524.00 L413.58,520.00 L418.00,515.34 L423.00,511.27 L428.00,508.14 L432.00,506.17 L437.00,504.30 L442.00,503.01 L447.00,502.25 L455.00,501.91 L460.00,501.36 L465.00,500.28 L470.00,498.65 L475.00,496.40 L480.00,493.42 L484.00,490.42 L488.66,486.00 L492.73,481.00 L495.86,476.00 L497.83,472.00 L499.70,467.00 L500.99,462.00 L501.75,457.00 L502.00,452.00 L502.09,455.00 L502.64,460.00 L503.72,465.00 L505.35,470.00 L507.60,475.00 L509.92,479.00 L512.77,483.00 L517.00,487.71 L522.00,492.00 L526.00,494.71 L530.00,496.90 L534.94,499.00 L540.00,500.54 L545.00,501.51 L550.00,501.96 L555.00,501.91 L560.00,501.36 L565.00,500.28 L570.00,498.65 L575.00,496.40 L580.00,493.42 L584.00,490.42 L588.66,486.00 L592.73,481.00 L595.86,476.00 L597.83,472.00 L599.70,467.00 L600.99,462.00 L601.75,457.00 L602.09,449.00 L602.64,444.00 L603.72,439.00 L605.35,434.00 L607.60,429.00 L609.92,425.00 L612.77,421.00 L617.00,416.29 L622.00,412.00 L626.00,409.29 L630.00,407.10 L634.94,405.00 L640.00,403.46 L645.00,402.49 L650.00,402.04 L655.00,402.09 L660.00,402.64 L665.00,403.72 L670.00,405.35 L675.00,407.60 L679.00,409.92 L683.00,412.77 L687.71,417.00 L692.00,422.00 L694.71,426.00 L696.90,430.00 L699.00,434.94 L700.54,440.00 L701.51,445.00 L701.96,450.00 L701.91,455.00 L701.36,460.00 L700.28,465.00 L698.65,470.00 L696.40,475.00 L693.42,480.00 L690.42,484.00 L686.00,488.66 L681.00,492.73 L676.00,495.86 L672.00,497.83 L667.00,499.70 L662.00,500.99 L657.00,501.75 L649.00,502.09 L644.00,502.64 L639.00,503.72 L634.00,505.35 L629.00,507.60 L624.00,510.58 L620.00,513.58 L615.34,518.00 L611.27,523.00 L608.14,528.00 L606.17,532.00 L604.30,537.00 L603.01,542.00 L602.25,547.00 L601.91,555.00 L601.36,560.00 L600.28,565.00 L598.65,570.00 L596.40,575.00 L593.42,580.00 L590.42,584.00 L586.00,588.66 L581.00,592.73 L576.00,595.86 L572.00,597.83 L567.00,599.70 L562.00,600.99 L557.00,601.75 L552.00,602.00 L555.00,602.09 L560.00,602.64 L565.00,603.72 L570.00,605.35 L575.00,607.60 L579.00,609.92 L583.00,612.77 L587.71,617.00 L592.00,622.00 L594.71,626.00 L596.90,630.00 L599.00,634.94 L600.54,640.00 L601.51,645.00 L601.96,650.00 L601.91,655.00 L601.36,660.00 L600.28,665.00 L598.65,670.00 L596.40,675.00 L594.08,679.00 L591.23,683.00 L587.00,687.71 L582.00,692.00 L578.00,694.71 L574.00,696.90 L569.06,699.00 L564.00,700.54 L559.00,701.51 L554.00,701.96 L549.00,701.91 L544.00,701.36 L539.00,700.28 L534.00,698.65 L529.00,696.40 L525.00,694.08 L521.00,691.23 L516.29,687.00 L512.00,682.00 L509.29,678.00 L507.10,674.00 L505.00,669.06 L503.46,664.00 L502.49,659.00 L502.04,654.00 L502.09,649.00 L502.64,644.00 L503.72,639.00 L505.35,634.00 L507.60,629.00 L510.58,624.00 L513.58,620.00 L518.00,615.34 L523.00,611.27 L528.00,608.14 L532.00,606.17 L537.00,604.30 L542.00,603.01 L547.00,602.25 L552.00,602.00 L549.00,601.91 L544.00,601.36 L539.00,600.28 L534.00,598.65 L529.00,596.40 L524.00,593.42 L520.00,590.42 L515.34,586.00 L511.27,581.00 L508.14,576.00 L506.17,572.00 L504.30,567.00 L503.01,562.00 L502.25,557.00 L502.00,552.00 L501.91,555.00 L501.36,560.00 L500.28,565.00 L498.65,570.00 L496.40,575.00 L494.08,579.00 L491.23,583.00 L487.00,587.71 L482.00,592.00 L478.00,594.71 L474.00,596.90 L469.06,599.00 L464.00,600.54 L459.00,601.51 L454.00,601.96 L449.00,601.91 L444.00,601.36 L439.00,600.28 L434.00,598.65 L429.00,596.40 L424.00,593.42 L420.00,590.42 L415.34,586.00 L411.27,581.00 L408.14,576.00 L406.17,572.00 L404.30,567.00 L403.01,562.00 L402.25,557.00 L402.00,552.00 L401.91,555.00 L401.36,560.00 L400.28,565.00 L398.65,570.00 L396.40,575.00 L393.42,580.00 L390.42,584.00 L386.00,588.66 L381.00,592.73 L376.00,595.86 L372.00,597.83 L367.00,599.70 L362.00,600.99 L357.00,601.75 L352.00,602.00 L355.00,602.09 L360.00,602.64 L365.00,603.72 L370.00,605.35 L375.00,607.60 L380.00,610.58 L384.00,613.58 L388.66,618.00 L392.73,623.00 L395.86,628.00 L397.83,632.00 L399.70,637.00 L400.99,642.00 L401.75,647.00 L402.00,652.00 L402.09,649.00 L402.64,644.00 L403.72,639.00 L405.35,634.00 L407.60,629.00 L409.92,625.00 L412.77,621.00 L417.00,616.29 L422.00,612.00 L426.00,609.29 L430.00,607.10 L434.94,605.00 L440.00,603.46 L445.00,602.49 L450.00,602.04 L455.00,602.09 L460.00,602.64 L465.00,603.72 L470.00,605.35 L475.00,607.60 L479.00,609.92 L483.00,612.77 L487.71,617.00 L492.00,622.00 L494.71,626.00 L496.90,630.00 L499.00,634.94 L500.54,640.00 L501.51,645.00 L501.96,650.00 L501.91,655.00 L501.36,660.00 L500.28,665.00 L498.65,670.00 L496.40,675.00 L494.08,679.00 L491.23,683.00 L487.00,687.71 L482.00,692.00 L478.00,694.71 L474.00,696.90 L469.06,699.00 L464.00,700.54 L459.00,701.51 L454.00,701.96 L449.00,701.91 L444.00,701.36 L439.00,700.28 L434.00,698.65 L429.00,696.40 L424.00,693.42 L420.00,690.42 L415.34,686.00 L411.27,681.00 L408.14,676.00 L406.17,672.00 L404.30,667.00 L403.01,662.00 L402.25,657.00 L402.00,652.00 L401.91,655.00 L401.36,660.00 L400.28,665.00 L398.65,670.00 L396.40,675.00 L393.42,680.00 L390.42,684.00 L386.00,688.66 L381.00,692.73 L376.00,695.86 L372.00,697.83 L367.00,699.70 L362.00,700.99 L357.00,701.75 L352.00,702.00 L355.00,702.09 L360.00,702.64 L365.00,703.72 L370.00,705.35 L375.00,707.60 L379.00,709.92 L383.00,712.77 L387.71,717.00 L392.00,722.00 L394.71,726.00 L396.90,730.00 L399.00,734.94 L400.54,740.00 L401.51,745.00 L401.96,750.00 L401.91,755.00 L401.36,760.00 L400.28,765.00 L398.65,770.00 L396.40,775.00 L393.42,780.00 L390.42,784.00 L386.00,788.66 L381.00,792.73 L376.00,795.86 L372.00,797.83 L367.00,799.70 L362.00,800.99 L357.00,801.75 L349.00,802.09 L344.00,802.64 L339.00,803.72 L334.00,805.35 L329.00,807.60 L324.00,810.58 L320.00,813.58 L315.34,818.00 L311.27,823.00 L308.14,828.00 L306.17,832.00 L304.30,837.00 L303.01,842.00 L302.25,847.00 L302.00,852.00 L301.91,849.00 L301.36,844.00 L300.28,839.00 L298.65,834.00 L296.40,829.00 L294.08,825.00 L291.23,821.00 L287.00,816.29 L282.00,812.00 L278.00,809.29 L274.00,807.10 L269.06,805.00 L264.00,803.46 L259.00,802.49 L254.00,802.04 L249.00,802.09 L244.00,802.64 L239.00,803.72 L234.00,805.35 L229.00,807.60 L224.00,810.58 L220.00,813.58 L215.34,818.00 L211.27,823.00 L208.14,828.00 L206.17,832.00 L204.30,837.00 L203.01,842.00 L202.25,847.00 L201.91,855.00 L201.36,860.00 L200.28,865.00 L198.65,870.00 L196.40,875.00 L193.42,880.00 L190.42,884.00 L186.00,888.66 L181.00,892.73 L176.00,895.86 L172.00,897.83 L167.00,899.70 L162.00,900.99 L157.00,901.75 L149.00,902.09 L144.00,902.64 L139.00,903.72 L134.00,905.35 L129.00,907.60 L124.00,910.58 L120.00,913.58 L115.34,918.00 L111.27,923.00 L108.14,928.00 L106.17,932.00 L104.30,937.00 L103.01,942.00 L102.25,947.00 L101.91,955.00 L101.36,960.00 L100.28,965.00 L98.65,970.00 L96.40,975.00 L93.42,980.00 L90.42,984.00 L86.00,988.66 L81.00,992.73 L76.00,995.86 L72.00,997.83 L67.00,999.70 L62.00,1000.99 L57.00,1001.75 L52.00,1002.00 L55.00,1002.09 L60.00,1002.64 L65.00,1003.72 L70.00,1005.35 L75.00,1007.60 L80.00,1010.58 L84.00,1013.58 L88.66,1018.00 L92.73,1023.00 L95.86,1028.00 L97.83,1032.00 L99.70,1037.00 L100.99,1042.00 L101.75,1047.00 L102.00,1052.00 L102.09,1049.00 L102.64,1044.00 L103.72,1039.00 L105.35,1034.00 L107.60,1029.00 L110.58,1024.00 L113.58,1020.00 L118.00,1015.34 L123.00,1011.27 L128.00,1008.14 L132.00,1006.17 L137.00,1004.30 L142.00,1003.01 L147.00,1002.25 L155.00,1001.91 L160.00,1001.36 L165.00,1000.28 L170.00,998.65 L175.00,996.40 L180.00,993.42 L184.00,990.42 L188.66,986.00 L192.73,981.00 L195.86,976.00 L197.83,972.00 L199.70,967.00 L200.99,962.00 L201.75,957.00 L202.09,949.00 L202.64,944.00 L203.72,939.00 L205.35,934.00 L207.60,929.00 L210.58,924.00 L213.58,920.00 L218.00,915.34 L223.00,911.27 L228.00,908.14 L232.00,906.17 L237.00,904.30 L242.00,903.01 L247.00,902.25 L255.00,901.91 L260.00,901.36 L265.00,900.28 L270.00,898.65 L275.00,896.40 L280.00,893.42 L284.00,890.42 L288.66,886.00 L292.73,881.00 L295.86,876.00 L297.83,872.00 L299.70,867.00 L300.99,862.00 L301.75,857.00 L302.00,852.00 L302.09,855.00 L302.64,860.00 L303.72,865.00 L305.35,870.00 L307.60,875.00 L310.58,880.00 L313.58,884.00 L318.00,888.66 L323.00,892.73 L328.00,895.86 L332.00,897.83 L337.00,899.70 L342.00,900.99 L347.00,901.75 L352.00,902.00 L349.00,902.09 L344.00,902.64 L339.00,903.72 L334.00,905.35 L329.00,907.60 L324.00,910.58 L320.00,913.58 L315.34,918.00 L311.27,923.00 L308.14,928.00 L306.17,932.00 L304.30,937.00 L303.01,942.00 L302.25,947.00 L301.91,955.00 L301.36,960.00 L300.28,965.00 L298.65,970.00 L296.40,975.00 L293.42,980.00 L290.42,984.00 L286.00,988.66 L281.00,992.73 L276.00,995.86 L272.00,997.83 L267.00,999.70 L262.00,1000.99 L257.00,1001.75 L252.00,1002.00 L255.00,1002.09 L260.00,1002.64 L265.00,1003.72 L270.00,1005.35 L275.00,1007.60 L280.00,1010.58 L284.00,1013.58 L288.66,1018.00 L292.73,1023.00 L295.86,1028.00 L297.83,1032.00 L299.70,1037.00 L300.99,1042.00 L301.75,1047.00 L302.00,1052.00 L302.09,1049.00 L302.64,1044.00 L303.72,1039.00 L305.35,1034.00 L307.60,1029.00 L310.58,1024.00 L313.58,1020.00 L318.00,1015.34 L323.00,1011.27 L328.00,1008.14 L332.00,1006.17 L337.00,1004.30 L342.00,1003.01 L347.00,1002.25 L355.00,1001.91 L360.00,1001.36 L365.00,1000.28 L370.00,998.65 L375.00,996.40 L380.00,993.42 L384.00,990.42 L388.66,986.00 L392.73,981.00 L395.86,976.00 L397.83,972.00 L399.70,967.00 L400.99,962.00 L401.75,957.00 L402.00,952.00 L402.09,955.00 L402.64,960.00 L403.72,965.00 L405.35,970.00 L407.60,975.00 L409.92,979.00 L412.77,983.00 L417.00,987.71 L422.00,992.00 L426.00,994.71 L430.00,996.90 L434.94,999.00 L440.00,1000.54 L445.00,1001.51 L450.00,1001.96 L455.00,1001.91 L460.00,1001.36 L465.00,1000.28 L470.00,998.65 L475.00,996.40 L479.00,994.08 L483.00,991.23 L487.71,987.00 L492.00,982.00 L494.71,978.00 L496.90,974.00 L499.00,969.06 L500.54,964.00 L501.51,959.00 L501.96,954.00 L501.91,949.00 L501.36,944.00 L500.28,939.00 L498.65,934.00 L496.40,929.00 L494.08,925.00 L491.23,921.00 L487.00,916.29 L482.00,912.00 L478.00,909.29 L474.00,907.10 L469.06,905.00 L464.00,903.46 L459.00,902.49 L454.00,902.04 L449.00,902.09 L444.00,902.64 L439.00,903.72 L434.00,905.35 L429.00,907.60 L424.00,910.58 L420.00,913.58 L415.34,918.00 L411.27,923.00 L408.14,928.00 L406.17,932.00 L404.30,937.00 L403.01,942.00 L402.25,947.00 L402.00,952.00 L401.91,949.00 L401.36,944.00 L400.28,939.00 L398.65,934.00 L396.40,929.00 L393.42,924.00 L390.42,920.00 L386.00,915.34 L381.00,911.27 L376.00,908.14 L372.00,906.17 L367.00,904.30 L362.00,903.01 L357.00,902.25 L352.00,902.00 L355.00,901.91 L360.00,901.36 L365.00,900.28 L370.00,898.65 L375.00,896.40 L380.00,893.42 L384.00,890.42 L388.66,886.00 L392.73,881.00 L395.86,876.00 L397.83,872.00 L399.70,867.00 L400.99,862.00 L401.75,857.00 L402.00,852.00 L402.09,855.00 L402.64,860.00 L403.72,865.00 L405.35,870.00 L407.60,875.00 L409.92,879.00 L412.77,883.00 L417.00,887.71 L422.00,892.00 L426.00,894.71 L430.00,896.90 L434.94,899.00 L440.00,900.54 L445.00,901.51 L450.00,901.96 L455.00,901.91 L460.00,901.36 L465.00,900.28 L470.00,898.65 L475.00,896.40 L479.00,894.08 L483.00,891.23 L487.71,887.00 L492.00,882.00 L494.71,878.00 L496.90,874.00 L499.00,869.06 L500.54,864.00 L501.51,859.00 L501.96,854.00 L501.91,849.00 L501.36,844.00 L500.28,839.00 L498.65,834.00 L496.40,829.00 L493.42,824.00 L490.42,820.00 L486.00,815.34 L481.00,811.27 L476.00,808.14 L472.00,806.17 L467.00,804.30 L462.00,803.01 L457.00,802.25 L452.00,802.00 L455.00,801.91 L460.00,801.36 L465.00,800.28 L470.00,798.65 L475.00,796.40 L480.00,793.42 L484.00,790.42 L488.66,786.00 L492.73,781.00 L495.86,776.00 L497.83,772.00 L499.70,767.00 L500.99,762.00 L501.75,757.00 L502.09,749.00 L502.64,744.00 L503.72,739.00 L505.35,734.00 L507.60,729.00 L509.92,725.00 L512.77,721.00 L517.00,716.29 L522.00,712.00 L526.00,709.29 L530.00,707.10 L534.94,705.00 L540.00,703.46 L545.00,702.49 L550.00,702.04 L555.00,702.09 L560.00,702.64 L565.00,703.72 L570.00,705.35 L575.00,707.60 L579.00,709.92 L583.00,712.77 L587.71,717.00 L592.00,722.00 L594.71,726.00 L596.90,730.00 L599.00,734.94 L600.54,740.00 L601.51,745.00 L601.96,750.00 L601.91,755.00 L601.36,760.00 L600.28,765.00 L598.65,770.00 L596.40,775.00 L593.42,780.00 L590.42,784.00 L586.00,788.66 L581.00,792.73 L576.00,795.86 L572.00,797.83 L567.00,799.70 L562.00,800.99 L557.00,801.75 L549.00,802.09 L544.00,802.64 L539.00,803.72 L534.00,805.35 L529.00,807.60 L525.00,809.92 L521.00,812.77 L516.29,817.00 L512.00,822.00 L509.29,826.00 L507.10,830.00 L505.00,834.94 L503.46,840.00 L502.49,845.00 L502.04,850.00 L502.09,855.00 L502.64,860.00 L503.72,865.00 L505.35,870.00 L507.60,875.00 L509.92,879.00 L512.77,883.00 L517.00,887.71 L522.00,892.00 L526.00,894.71 L530.00,896.90 L534.94,899.00 L540.00,900.54 L545.00,901.51 L550.00,901.96 L555.00,901.91 L560.00,901.36 L565.00,900.28 L570.00,898.65 L575.00,896.40 L580.00,893.42 L584.00,890.42 L588.66,886.00 L592.73,881.00 L595.86,876.00 L597.83,872.00 L599.70,867.00 L600.99,862.00 L601.75,857.00 L602.09,849.00 L602.64,844.00 L603.72,839.00 L605.35,834.00 L607.60,829.00 L610.58,824.00 L613.58,820.00 L618.00,815.34 L623.00,811.27 L628.00,808.14 L632.00,806.17 L637.00,804.30 L642.00,803.01 L647.00,802.25 L655.00,801.91 L660.00,801.36 L665.00,800.28 L670.00,798.65 L675.00,796.40 L679.00,794.08 L683.00,791.23 L687.71,787.00 L692.00,782.00 L694.71,778.00 L696.90,774.00 L699.00,769.06 L700.54,764.00 L701.51,759.00 L701.96,754.00 L701.91,749.00 L701.36,744.00 L700.28,739.00 L698.65,734.00 L696.40,729.00 L693.42,724.00 L690.42,720.00 L686.00,715.34 L681.00,711.27 L676.00,708.14 L672.00,706.17 L667.00,704.30 L662.00,703.01 L657.00,702.25 L652.00,702.00 L655.00,701.91 L660.00,701.36 L665.00,700.28 L670.00,698.65 L675.00,696.40 L679.00,694.08 L683.00,691.23 L687.71,687.00 L692.00,682.00 L694.71,678.00 L696.90,674.00 L699.00,669.06 L700.54,664.00 L701.51,659.00 L701.96,654.00 L701.91,649.00 L701.36,644.00 L700.28,639.00 L698.65,634.00 L696.40,629.00 L693.42,624.00 L690.42,620.00 L686.00,615.34 L681.00,611.27 L676.00,608.14 L672.00,606.17 L667.00,604.30 L662.00,603.01 L657.00,602.25 L652.00,602.00 L655.00,601.91 L660.00,601.36 L665.00,600.28 L670.00,598.65 L675.00,596.40 L680.00,593.42 L684.00,590.42 L688.66,586.00 L692.73,581.00 L695.86,576.00 L697.83,572.00 L699.70,567.00 L700.99,562.00 L701.75,557.00 L702.09,549.00 L702.64,544.00 L703.72,539.00 L705.35,534.00 L707.60,529.00 L709.92,525.00 L712.77,521.00 L717.00,516.29 L722.00,512.00 L726.00,509.29 L730.00,507.10 L734.94,505.00 L740.00,503.46 L745.00,502.49 L750.00,502.04 L755.00,502.09 L760.00,502.64 L765.00,503.72 L770.00,505.35 L775.00,507.60 L779.00,509.92 L783.00,512.77 L787.71,517.00 L792.00,522.00 L794.71,526.00 L796.90,530.00 L799.00,534.94 L800.54,540.00 L801.51,545.00 L801.96,550.00 L801.91,555.00 L801.36,560.00 L800.28,565.00 L798.65,570.00 L796.40,575.00 L793.42,580.00 L790.42,584.00 L786.00,588.66 L781.00,592.73 L776.00,595.86 L772.00,597.83 L767.00,599.70 L762.00,600.99 L757.00,601.75 L752.00,602.00 L755.00,602.09 L760.00,602.64 L765.00,603.72 L770.00,605.35 L775.00,607.60 L779.00,609.92 L783.00,612.77 L787.71,617.00 L792.00,622.00 L794.71,626.00 L796.90,630.00 L799.00,634.94 L800.54,640.00 L801.51,645.00 L801.96,650.00 L801.91,655.00 L801.36,660.00 L800.28,665.00 L798.65,670.00 L796.40,675.00 L793.42,680.00 L790.42,684.00 L786.00,688.66 L781.00,692.73 L776.00,695.86 L772.00,697.83 L767.00,699.70 L762.00,700.99 L757.00,701.75 L749.00,702.09 L744.00,702.64 L739.00,703.72 L734.00,705.35 L729.00,707.60 L725.00,709.92 L721.00,712.77 L716.29,717.00 L712.00,722.00 L709.29,726.00 L707.10,730.00 L705.00,734.94 L703.46,740.00 L702.49,745.00 L702.04,750.00 L702.09,755.00 L702.64,760.00 L703.72,765.00 L705.35,770.00 L707.60,775.00 L709.92,779.00 L712.77,783.00 L717.00,787.71 L722.00,792.00 L726.00,794.71 L730.00,796.90 L734.94,799.00 L740.00,800.54 L745.00,801.51 L750.00,801.96 L755.00,801.91 L760.00,801.36 L765.00,800.28 L770.00,798.65 L775.00,796.40 L780.00,793.42 L784.00,790.42 L788.66,786.00 L792.73,781.00 L795.86,776.00 L797.83,772.00 L799.70,767.00 L800.99,762.00 L801.75,757.00 L802.00,752.00 L802.09,755.00 L802.64,760.00 L803.72,765.00 L805.35,770.00 L807.60,775.00 L810.58,780.00 L813.58,784.00 L818.00,788.66 L823.00,792.73 L828.00,795.86 L832.00,797.83 L837.00,799.70 L842.00,800.99 L847.00,801.75 L852.00,802.00 L849.00,802.09 L844.00,802.64 L839.00,803.72 L834.00,805.35 L829.00,807.60 L824.00,810.58 L820.00,813.58 L815.34,818.00 L811.27,823.00 L808.14,828.00 L806.17,832.00 L804.30,837.00 L803.01,842.00 L802.25,847.00 L801.91,855.00 L801.36,860.00 L800.28,865.00 L798.65,870.00 L796.40,875.00 L794.08,879.00 L791.23,883.00 L787.00,887.71 L782.00,892.00 L778.00,894.71 L774.00,896.90 L769.06,899.00 L764.00,900.54 L759.00,901.51 L754.00,901.96 L749.00,901.91 L744.00,901.36 L739.00,900.28 L734.00,898.65 L729.00,896.40 L724.00,893.42 L720.00,890.42 L715.34,886.00 L711.27,881.00 L708.14,876.00 L706.17,872.00 L704.30,867.00 L703.01,862.00 L702.25,857.00 L702.00,852.00 L701.91,855.00 L701.36,860.00 L700.28,865.00 L698.65,870.00 L696.40,875.00 L693.42,880.00 L690.42,884.00 L686.00,888.66 L681.00,892.73 L676.00,895.86 L672.00,897.83 L667.00,899.70 L662.00,900.99 L657.00,901.75 L649.00,902.09 L644.00,902.64 L639.00,903.72 L634.00,905.35 L629.00,907.60 L624.00,910.58 L620.00,913.58 L615.34,918.00 L611.27,923.00 L608.14,928.00 L606.17,932.00 L604.30,937.00 L603.01,942.00 L602.25,947.00 L601.91,955.00 L601.36,960.00 L600.28,965.00 L598.65,970.00 L596.40,975.00 L593.42,980.00 L590.42,984.00 L586.00,988.66 L581.00,992.73 L576.00,995.86 L572.00,997.83 L567.00,999.70 L562.00,1000.99 L557.00,1001.75 L552.00,1002.00 L555.00,1002.09 L560.00,1002.64 L565.00,1003.72 L570.00,1005.35 L575.00,1007.60 L580.00,1010.58 L584.00,1013.58 L588.66,1018.00 L592.73,1023.00 L595.86,1028.00 L597.83,1032.00 L599.70,1037.00 L600.99,1042.00 L601.75,1047.00 L602.00,1052.00 L602.09,1049.00 L602.64,1044.00 L603.72,1039.00 L605.35,1034.00 L607.60,1029.00 L610.58,1024.00 L613.58,1020.00 L618.00,1015.34 L623.00,1011.27 L628.00,1008.14 L632.00,1006.17 L637.00,1004.30 L642.00,1003.01 L647.00,1002.25 L655.00,1001.91 L660.00,1001.36 L665.00,1000.28 L670.00,998.65 L675.00,996.40 L680.00,993.42 L684.00,990.42 L688.66,986.00 L692.73,981.00 L695.86,976.00 L697.83,972.00 L699.70,967.00 L700.99,962.00 L701.75,957.00 L702.09,949.00 L702.64,944.00 L703.72,939.00 L705.35,934.00 L707.60,929.00 L709.92,925.00 L712.77,921.00 L717.00,916.29 L722.00,912.00 L726.00,909.29 L730.00,907.10 L734.94,905.00 L740.00,903.46 L745.00,902.49 L750.00,902.04 L755.00,902.09 L760.00,902.64 L765.00,903.72 L770.00,905.35 L775.00,907.60 L779.00,909.92 L783.00,912.77 L787.71,917.00 L792.00,922.00 L794.71,926.00 L796.90,930.00 L799.00,934.94 L800.54,940.00 L801.51,945.00 L801.96,950.00 L801.91,955.00 L801.36,960.00 L800.28,965.00 L798.65,970.00 L796.40,975.00 L793.42,980.00 L790.42,984.00 L786.00,988.66 L781.00,992.73 L776.00,995.86 L772.00,997.83 L767.00,999.70 L762.00,1000.99 L757.00,1001.75 L752.00,1002.00 L755.00,1002.09 L760.00,1002.64 L765.00,1003.72 L770.00,1005.35 L775.00,1007.60 L780.00,1010.58 L784.00,1013.58 L788.66,1018.00 L792.73,1023.00 L795.86,1028.00 L797.83,1032.00 L799.70,1037.00 L800.99,1042.00 L801.75,1047.00 L802.00,1052.00 L802.09,1049.00 L802.64,1044.00 L803.72,1039.00 L805.35,1034.00 L807.60,1029.00 L809.92,1025.00 L812.77,1021.00 L817.00,1016.29 L822.00,1012.00 L826.00,1009.29 L830.00,1007.10 L834.94,1005.00 L840.00,1003.46 L845.00,1002.49 L850.00,1002.04 L855.00,1002.09 L860.00,1002.64 L865.00,1003.72 L870.00,1005.35 L875.00,1007.60 L880.00,1010.58 L884.00,1013.58 L888.66,1018.00 L892.73,1023.00 L895.86,1028.00 L897.83,1032.00 L899.70,1037.00 L900.99,1042.00 L901.75,1047.00 L902.00,1052.00 L902.09,1049.00 L902.64,1044.00 L903.72,1039.00 L905.35,1034.00 L907.60,1029.00 L909.92,1025.00 L912.77,1021.00 L917.00,1016.29 L922.00,1012.00 L926.00,1009.29 L930.00,1007.10 L934.94,1005.00 L940.00,1003.46 L945.00,1002.49 L950.00,1002.04 L955.00,1002.09 L960.00,1002.64 L965.00,1003.72 L970.00,1005.35 L975.00,1007.60 L980.00,1010.58 L984.00,1013.58 L988.66,1018.00 L992.73,1023.00 L995.86,1028.00 L997.83,1032.00 L999.70,1037.00 L1000.99,1042.00 L1001.75,1047.00 L1002.00,1052.00 L1002.09,1049.00 L1002.64,1044.00 L1003.72,1039.00 L1005.35,1034.00 L1007.60,1029.00 L1010.58,1024.00 L1013.58,1020.00 L1018.00,1015.34 L1023.00,1011.27 L1028.00,1008.14 L1032.00,1006.17 L1037.00,1004.30 L1042.00,1003.01 L1047.00,1002.25 L1052.00,1002.00 L1049.00,1001.91 L1044.00,1001.36 L1039.00,1000.28 L1034.00,998.65 L1029.00,996.40 L1024.00,993.42 L1020.00,990.42 L1015.34,986.00 L1011.27,981.00 L1008.14,976.00 L1006.17,972.00 L1004.30,967.00 L1003.01,962.00 L1002.25,957.00 L1002.00,952.00 L1001.91,955.00 L1001.36,960.00 L1000.28,965.00 L998.65,970.00 L996.40,975.00 L994.08,979.00 L991.23,983.00 L987.00,987.71 L982.00,992.00 L978.00,994.71 L974.00,996.90 L969.06,999.00 L964.00,1000.54 L959.00,1001.51 L954.00,1001.96 L949.00,1001.91 L944.00,1001.36 L939.00,1000.28 L934.00,998.65 L929.00,996.40 L924.00,993.42 L920.00,990.42 L915.34,986.00 L911.27,981.00 L908.14,976.00 L906.17,972.00 L904.30,967.00 L903.01,962.00 L902.25,957.00 L902.00,952.00 L901.91,955.00 L901.36,960.00 L900.28,965.00 L898.65,970.00 L896.40,975.00 L894.08,979.00 L891.23,983.00 L887.00,987.71 L882.00,992.00 L878.00,994.71 L874.00,996.90 L869.06,999.00 L864.00,1000.54 L859.00,1001.51 L854.00,1001.96 L849.00,1001.91 L844.00,1001.36 L839.00,1000.28 L834.00,998.65 L829.00,996.40 L825.00,994.08 L821.00,991.23 L816.29,987.00 L812.00,982.00 L809.29,978.00 L807.10,974.00 L805.00,969.06 L803.46,964.00 L802.49,959.00 L802.04,954.00 L802.09,949.00 L802.64,944.00 L803.72,939.00 L805.35,934.00 L807.60,929.00 L810.58,924.00 L813.58,920.00 L818.00,915.34 L823.00,911.27 L828.00,908.14 L832.00,906.17 L837.00,904.30 L842.00,903.01 L847.00,902.25 L855.00,901.91 L860.00,901.36 L865.00,900.28 L870.00,898.65 L875.00,896.40 L880.00,893.42 L884.00,890.42 L888.66,886.00 L892.73,881.00 L895.86,876.00 L897.83,872.00 L899.70,867.00 L900.99,862.00 L901.75,857.00 L902.00,852.00 L902.09,855.00 L902.64,860.00 L903.72,865.00 L905.35,870.00 L907.60,875.00 L909.92,879.00 L912.77,883.00 L917.00,887.71 L922.00,892.00 L926.00,894.71 L930.00,896.90 L934.94,899.00 L940.00,900.54 L945.00,901.51 L950.00,901.96 L955.00,901.91 L960.00,901.36 L965.00,900.28 L970.00,898.65 L975.00,896.40 L979.00,894.08 L983.00,891.23 L987.71,887.00 L992.00,882.00 L994.71,878.00 L996.90,874.00 L999.00,869.06 L1000.54,864.00 L1001.51,859.00 L1001.96,854.00 L1001.91,849.00 L1001.36,844.00 L1000.28,839.00 L998.65,834.00 L996.40,829.00 L993.42,824.00 L990.42,820.00 L986.00,815.34 L981.00,811.27 L976.00,808.14 L970.00,805.35 L965.00,803.72 L960.00,802.64 L955.00,802.09 L950.00,802.04 L945.00,802.49 L940.00,803.46 L934.94,805.00 L934.94,805.00 L934.00,805.35 L929.00,807.60 L924.00,810.58 L920.00,813.58 L915.34,818.00 L911.27,823.00 L908.14,828.00 L906.17,832.00 L904.30,837.00 L903.01,842.00 L902.25,847.00 L902.00,852.00 L901.91,849.00 L901.36,844.00 L900.28,839.00 L898.65,834.00 L896.40,829.00 L893.42,824.00 L890.42,820.00 L886.00,815.34 L881.00,811.27 L876.00,808.14 L872.00,806.17 L867.00,804.30 L862.00,803.01 L857.00,802.25 L852.00,802.00 L855.00,801.91 L860.00,801.36 L865.00,800.28 L870.00,798.65 L875.00,796.40 L880.00,793.42 L884.00,790.42 L888.66,786.00 L892.73,781.00 L895.86,776.00 L897.83,772.00 L899.70,767.00 L900.99,762.00 L901.75,757.00 L902.00,752.00 L902.09,755.00 L902.64,760.00 L903.72,765.00 L905.35,770.00 L907.60,775.00 L909.92,779.00 L912.77,783.00 L917.00,787.71 L922.00,792.00 L926.00,794.71 L930.00,796.90 L934.94,799.00 L940.00,800.54 L945.00,801.51 L950.00,801.96 L955.00,801.91 L960.00,801.36 L965.00,800.28 L970.00,798.65 L975.00,796.40 L980.00,793.42 L984.00,790.42 L988.66,786.00 L992.73,781.00 L995.86,776.00 L997.83,772.00 L999.70,767.00 L1000.99,762.00 L1001.75,757.00 L1002.09,749.00 L1002.64,744.00 L1003.72,739.00 L1005.35,734.00 L1007.60,729.00 L1010.58,724.00 L1013.58,720.00 L1018.00,715.34 L1023.00,711.27 L1028.00,708.14 L1032.00,706.17 L1037.00,704.30 L1042.00,703.01 L1047.00,702.25 L1052.00,702.00 L1049.00,701.91 L1044.00,701.36 L1039.00,700.28 L1034.00,698.65 L1029.00,696.40 L1024.00,693.42 L1020.00,690.42 L1015.34,686.00 L1011.27,681.00 L1008.14,676.00 L1006.17,672.00 L1004.30,667.00 L1003.01,662.00 L1002.25,657.00 L1002.00,652.00 L1001.91,655.00 L1001.36,660.00 L1000.28,665.00 L998.65,670.00 L996.40,675.00 L994.08,679.00 L991.23,683.00 L987.00,687.71 L982.00,692.00 L978.00,694.71 L974.00,696.90 L969.06,699.00 L964.00,700.54 L959.00,701.51 L954.00,701.96 L949.00,701.91 L944.00,701.36 L939.00,700.28 L934.00,698.65 L929.00,696.40 L924.00,693.42 L920.00,690.42 L915.34,686.00 L911.27,681.00 L908.14,676.00 L906.17,672.00 L904.30,667.00 L903.01,662.00 L902.25,657.00 L902.00,652.00 L901.91,655.00 L901.36,660.00 L900.28,665.00 L898.65,670.00 L896.40,675.00 L894.08,679.00 L891.23,683.00 L887.00,687.71 L882.00,692.00 L878.00,694.71 L874.00,696.90 L869.06,699.00 L864.00,700.54 L859.00,701.51 L854.00,701.96 L849.00,701.91 L844.00,701.36 L839.00,700.28 L834.00,698.65 L829.00,696.40 L825.00,694.08 L821.00,691.23 L816.29,687.00 L812.00,682.00 L809.29,678.00 L807.10,674.00 L805.00,669.06 L803.46,664.00 L802.49,659.00 L802.04,654.00 L802.09,649.00 L802.64,644.00 L803.72,639.00 L805.35,634.00 L807.60,629.00 L810.58,624.00 L813.58,620.00 L818.00,615.34 L823.00,611.27 L828.00,608.14 L832.00,606.17 L837.00,604.30 L842.00,603.01 L847.00,602.25 L855.00,601.91 L860.00,601.36 L865.00,600.28 L870.00,598.65 L875.00,596.40 L880.00,593.42 L884.00,590.42 L888.66,586.00 L892.73,581.00 L895.86,576.00 L897.83,572.00 L899.70,567.00 L900.99,562.00 L901.75,557.00 L902.00,552.00 L902.09,555.00 L902.64,560.00 L903.72,565.00 L905.35,570.00 L907.60,575.00 L909.92,579.00 L912.77,583.00 L917.00,587.71 L922.00,592.00 L926.00,594.71 L930.00,596.90 L934.94,599.00 L940.00,600.54 L945.00,601.51 L950.00,601.96 L955.00,601.91 L960.00,601.36 L965.00,600.28 L970.00,598.65 L975.00,596.40 L980.00,593.42 L984.00,590.42 L988.66,586.00 L992.73,581.00 L995.86,576.00 L997.83,572.00 L999.70,567.00 L1000.99,562.00 L1001.75,557.00 L1002.09,549.00 L1002.64,544.00 L1003.72,539.00 L1005.35,534.00 L1007.60,529.00 L1010.58,524.00 L1013.58,520.00 L1018.00,515.34 L1023.00,511.27 L1028.00,508.14 L1032.00,506.17 L1037.00,504.30 L1042.00,503.01 L1047.00,502.25 L1052.00,502.00 L1049.00,501.91 L1044.00,501.36 L1039.00,500.28 L1034.00,498.65 L1029.00,496.40 L1024.00,493.42 L1020.00,490.42 L1015.34,486.00 L1011.27,481.00 L1008.14,476.00 L1006.17,472.00 L1004.30,467.00 L1003.01,462.00 L1002.25,457.00 L1002.00,452.00 L1001.91,455.00 L1001.36,460.00 L1000.28,465.00 L998.65,470.00 L996.40,475.00 L993.42,480.00 L990.42,484.00 L986.00,488.66 L981.00,492.73 L976.00,495.86 L972.00,497.83 L967.00,499.70 L962.00,500.99 L957.00,501.75 L949.00,502.09 L944.00,502.64 L939.00,503.72 L934.00,505.35 L929.00,507.60 L924.00,510.58 L920.00,513.58 L915.34,518.00 L911.27,523.00 L908.14,528.00 L906.17,532.00 L904.30,537.00 L903.01,542.00 L902.25,547.00 L902.00,552.00 L901.91,549.00 L901.36,544.00 L900.28,539.00 L898.65,534.00 L896.40,529.00 L893.42,524.00 L890.42,520.00 L886.00,515.34 L881.00,511.27 L876.00,508.14 L872.00,506.17 L867.00,504.30 L862.00,503.01 L857.00,502.25 L852.00,502.00 L855.00,501.91 L860.00,501.36 L865.00,500.28 L870.00,498.65 L875.00,496.40 L879.00,494.08 L883.00,491.23 L887.71,487.00 L892.00,482.00 L894.71,478.00 L896.90,474.00 L899.00,469.06 L900.54,464.00 L901.51,459.00 L901.96,454.00 L901.91,449.00 L901.36,444.00 L900.28,439.00 L898.65,434.00 L896.40,429.00 L893.42,424.00 L890.42,420.00 L886.00,415.34 L881.00,411.27 L876.00,408.14 L872.00,406.17 L867.00,404.30 L862.00,403.01 L857.00,402.25 L852.00,402.00 L855.00,401.91 L860.00,401.36 L865.00,400.28 L870.00,398.65 L875.00,396.40 L880.00,393.42 L884.00,390.42 L888.66,386.00 L892.73,381.00 L895.86,376.00 L897.83,372.00 L899.70,367.00 L900.99,362.00 L901.75,357.00 L902.00,352.00 L902.09,355.00 L902.64,360.00 L903.72,365.00 L905.35,370.00 L907.60,375.00 L909.92,379.00 L912.77,383.00 L917.00,387.71 L922.00,392.00 L926.00,394.71 L930.00,396.90 L934.94,399.00 L940.00,400.54 L945.00,401.51 L950.00,401.96 L955.00,401.91 L960.00,401.36 L965.00,400.28 L970.00,398.65 L975.00,396.40 L979.00,394.08 L983.00,391.23 L987.71,387.00 L992.00,382.00 L994.71,378.00 L996.90,374.00 L999.00,369.06 L1000.54,364.00 L1001.51,359.00 L1001.96,354.00 L1001.91,349.00 L1001.36,344.00 L1000.28,339.00 L998.65,334.00 L996.40,329.00 L993.42,324.00 L990.42,320.00 L986.00,315.34 L981.00,311.27 L976.00,308.14 L972.00,306.17 L967.00,304.30 L962.00,303.01 L957.00,302.25 L952.00,302.00 L955.00,301.91 L960.00,301.36 L965.00,300.28 L970.00,298.65 L975.00,296.40 L980.00,293.42 L984.00,290.42 L988.66,286.00 L992.73,281.00 L995.86,276.00 L997.83,272.00 L999.70,267.00 L1000.99,262.00 L1001.75,257.00 L1002.09,249.00 L1002.64,244.00 L1003.72,239.00 L1005.35,234.00 L1007.60,229.00 L1010.58,224.00 L1013.58,220.00 L1018.00,215.34 L1023.00,211.27 L1028.00,208.14 L1032.00,206.17 L1037.00,204.30 L1042.00,203.01 L1047.00,202.25 L1052.00,202.00 L1049.00,201.91 L1044.00,201.36 L1039.00,200.28 L1034.00,198.65 L1029.00,196.40 L1024.00,193.42 L1020.00,190.42 L1015.34,186.00 L1011.27,181.00 L1008.14,176.00 L1006.17,172.00 L1004.30,167.00 L1003.01,162.00 L1002.25,157.00 L1002.00,152.00 L1001.91,155.00 L1001.36,160.00 L1000.28,165.00 L998.65,170.00 L996.40,175.00 L993.42,180.00 L990.42,184.00 L986.00,188.66 L981.00,192.73 L976.00,195.86 L972.00,197.83 L967.00,199.70 L962.00,200.99 L957.00,201.75 L949.00,202.09 L944.00,202.64 L939.00,203.72 L934.00,205.35 L929.00,207.60 L924.00,210.58 L920.00,213.58 L915.34,218.00 L911.27,223.00 L908.14,228.00 L906.17,232.00 L904.30,237.00 L903.01,242.00 L902.25,247.00 L901.91,255.00 L901.36,260.00 L900.28,265.00 L898.65,270.00 L896.40,275.00 L894.08,279.00 L891.23,283.00 L887.00,287.71 L882.00,292.00 L878.00,294.71 L874.00,296.90 L869.06,299.00 L864.00,300.54 L859.00,301.51 L854.00,301.96 L849.00,301.91 L844.00,301.36 L839.00,300.28 L834.00,298.65 L829.00,296.40 L824.00,293.42 L820.00,290.42 L815.34,286.00 L811.27,281.00 L808.14,276.00 L806.17,272.00 L804.30,267.00 L803.01,262.00 L802.25,257.00 L802.00,252.00 L801.91,255.00 L801.36,260.00 L800.28,265.00 L798.65,270.00 L796.40,275.00 L793.42,280.00 L790.42,284.00 L786.00,288.66 L781.00,292.73 L776.00,295.86 L772.00,297.83 L767.00,299.70 L762.00,300.99 L757.00,301.75 L752.00,302.00 L755.00,302.09 L760.00,302.64 L765.00,303.72 L770.00,305.35 L775.00,307.60 L779.00,309.92 L783.00,312.77 L787.71,317.00 L792.00,322.00 L794.71,326.00 L796.90,330.00 L799.00,334.94 L800.54,340.00 L801.51,345.00 L801.96,350.00 L801.91,355.00 L801.36,360.00 L800.28,365.00 L798.65,370.00 L796.40,375.00 L793.42,380.00 L790.42,384.00 L786.00,388.66 L781.00,392.73 L776.00,395.86 L772.00,397.83 L767.00,399.70 L762.00,400.99 L757.00,401.75 L752.00,402.00 L755.00,402.09 L760.00,402.64 L765.00,403.72 L770.00,405.35 L775.00,407.60 L779.00,409.92 L783.00,412.77 L787.71,417.00 L792.00,422.00 L794.71,426.00 L796.90,430.00 L799.00,434.94 L800.54,440.00 L801.51,445.00 L801.96,450.00 L801.91,455.00 L801.36,460.00 L800.28,465.00 L798.65,470.00 L796.40,475.00 L794.08,479.00 L791.23,483.00 L787.00,487.71 L782.00,492.00 L778.00,494.71 L774.00,496.90 L769.06,499.00 L764.00,500.54 L759.00,501.51 L754.00,501.96 L749.00,501.91 L744.00,501.36 L739.00,500.28 L734.00,498.65 L729.00,496.40 L725.00,494.08 L721.00,491.23 L716.29,487.00 L712.00,482.00 L709.29,478.00 L707.10,474.00 L705.00,469.06 L703.46,464.00 L702.49,459.00 L702.04,454.00 L702.09,449.00 L702.64,444.00 L703.72,439.00 L705.35,434.00 L707.60,429.00 L710.58,424.00 L713.58,420.00 L718.00,415.34 L723.00,411.27 L728.00,408.14 L732.00,406.17 L737.00,404.30 L742.00,403.01 L747.00,402.25 L752.00,402.00 L749.00,401.91 L744.00,401.36 L739.00,400.28 L734.00,398.65 L729.00,396.40 L725.00,394.08 L721.00,391.23 L716.29,387.00 L712.00,382.00 L709.29,378.00 L707.10,374.00 L705.00,369.06 L703.46,364.00 L702.49,359.00 L702.04,354.00 L702.09,349.00 L702.64,344.00 L703.72,339.00 L705.35,334.00 L707.60,329.00 L710.58,324.00 L713.58,320.00 L718.00,315.34 L723.00,311.27 L728.00,308.14 L732.00,306.17 L737.00,304.30 L742.00,303.01 L747.00,302.25 L752.00,302.00 L749.00,301.91 L744.00,301.36 L739.00,300.28 L734.00,298.65 L729.00,296.40 L725.00,294.08 L721.00,291.23 L716.29,287.00 L712.00,282.00 L709.29,278.00 L707.10,274.00 L705.00,269.06 L703.46,264.00 L702.49,259.00 L702.04,254.00 L702.09,249.00 L702.64,244.00 L703.72,239.00 L705.35,234.00 L707.60,229.00 L710.58,224.00 L713.58,220.00 L718.00,215.34 L723.00,211.27 L728.00,208.14 L732.00,206.17 L737.00,204.30 L742.00,203.01 L747.00,202.25 L755.00,201.91 L760.00,201.36 L765.00,200.28 L770.00,198.65 L775.00,196.40 L780.00,193.42 L784.00,190.42 L788.66,186.00 L792.73,181.00 L795.86,176.00 L797.83,172.00 L799.70,167.00 L800.99,162.00 L801.75,157.00 L802.00,152.00 L802.09,155.00 L802.64,160.00 L803.72,165.00 L805.35,170.00 L807.60,175.00 L809.92,179.00 L812.77,183.00 L817.00,187.71 L822.00,192.00 L826.00,194.71 L830.00,196.90 L834.94,199.00 L840.00,200.54 L845.00,201.51 L850.00,201.96 L855.00,201.91 L860.00,201.36 L865.00,200.28 L870.00,198.65 L875.00,196.40 L880.00,193.42 L884.00,190.42 L888.66,186.00 L892.73,181.00 L895.86,176.00 L897.83,172.00 L899.70,167.00 L900.99,162.00 L901.75,157.00 L902.09,149.00 L902.64,144.00 L903.72,139.00 L905.35,134.00 L907.60,129.00 L910.58,124.00 L913.58,120.00 L918.00,115.34 L923.00,111.27 L928.00,108.14 L932.00,106.17 L937.00,104.30 L942.00,103.01 L947.00,102.25 L955.00,101.91 L960.00,101.36 L965.00,100.28 L970.00,98.65 L975.00,96.40 L979.00,94.08 L983.00,91.23 L987.71,87.00 L992.00,82.00 L994.71,78.00 L996.90,74.00 L999.00,69.06 L1000.54,64.00 L1001.51,59.00 L1001.96,54.00 L1001.91,49.00 L1001.36,44.00 L1000.28,39.00 L998.65,34.00 L996.40,29.00 L994.08,25.00 L991.23,21.00 L987.00,16.29 L982.00,12.00 L978.00,9.29 L974.00,7.10 L969.06,5.00 L964.00,3.46 L959.00,2.49 L954.00,2.04 L949.00,2.09 L944.00,2.64 L939.00,3.72 L934.00,5.35 L929.00,7.60 L924.00,10.58 L920.00,13.58 L915.34,18.00 L911.27,23.00 L908.14,28.00 L906.17,32.00 L904.30,37.00 L903.01,42.00 L902.25,47.00 L901.91,55.00 L901.36,60.00 L900.28,65.00 L898.65,70.00 L896.40,75.00 L894.08,79.00 L891.23,83.00 L887.00,87.71 L882.00,92.00 L878.00,94.71 L874.00,96.90 L869.06,99.00 L864.00,100.54 L859.00,101.51 L854.00,101.96 L849.00,101.91 L844.00,101.36 L839.00,100.28 L834.00,98.65 L829.00,96.40 L824.00,93.42 L820.00,90.42 L815.34,86.00 L811.27,81.00 L808.14,76.00 L806.17,72.00 L804.30,67.00 L803.01,62.00 L802.25,57.00 L802.00,52.00 L801.91,55.00 L801.36,60.00 L800.28,65.00 L798.65,70.00 L796.40,75.00 L793.42,80.00 L790.42,84.00 L786.00,88.66 L781.00,92.73 L776.00,95.86 L772.00,97.83 L767.00,99.70 L762.00,100.99 L757.00,101.75 L749.00,102.09 L744.00,102.64 L739.00,103.72 L734.00,105.35 L729.00,107.60 L724.00,110.58 L720.00,113.58 L715.34,118.00 L711.27,123.00 L708.14,128.00 L706.17,132.00 L704.30,137.00 L703.01,142.00 L702.25,147.00 L701.91,155.00 L701.36,160.00 L700.28,165.00 L698.65,170.00 L696.40,175.00 L693.42,180.00 L690.42,184.00 L686.00,188.66 L681.00,192.73 L676.00,195.86 L672.00,197.83 L667.00,199.70 L662.00,200.99 L657.00,201.75 L652.00,202.00 L655.00,202.09 L660.00,202.64 L665.00,203.72 L670.00,205.35 L675.00,207.60 L679.00,209.92 L683.00,212.77 L687.71,217.00 L692.00,222.00 L694.71,226.00 L696.90,230.00 L699.00,234.94 L700.54,240.00 L701.51,245.00 L701.96,250.00 L701.91,255.00 L701.36,260.00 L700.28,265.00 L698.65,270.00 L696.40,275.00 L693.42,280.00 L690.42,284.00 L686.00,288.66 L681.00,292.73 L676.00,295.86 L672.00,297.83 L667.00,299.70 L662.00,300.99 L657.00,301.75 L652.00,302.00 L655.00,302.09 L660.00,302.64 L665.00,303.72 L670.00,305.35 L675.00,307.60 L679.00,309.92 L683.00,312.77 L687.71,317.00 L692.00,322.00 L694.71,326.00 L696.90,330.00 L699.00,334.94 L700.54,340.00 L701.51,345.00 L701.96,350.00 L701.91,355.00 L701.36,360.00 L700.28,365.00 L698.65,370.00 L696.40,375.00 L694.08,379.00 L691.23,383.00 L687.00,387.71 L682.00,392.00 L678.00,394.71 L674.00,396.90 L669.06,399.00 L664.00,400.54 L659.00,401.51 L654.00,401.96 L649.00,401.91 L644.00,401.36 L639.00,400.28 L634.00,398.65 L629.00,396.40 L624.00,393.42 L620.00,390.42 L615.34,386.00 L611.27,381.00 L608.14,376.00 L606.17,372.00 L604.30,367.00 L603.01,362.00 L602.25,357.00 L602.00,352.00 L601.91,355.00 L601.36,360.00 L600.28,365.00 L598.65,370.00 L596.40,375.00 L593.42,380.00 L590.42,384.00 L586.00,388.66 L581.00,392.73 L576.00,395.86 L572.00,397.83 L567.00,399.70 L562.00,400.99 L557.00,401.75 L549.00,402.09 L544.00,402.64 L539.00,403.72 L534.00,405.35 L529.00,407.60 L524.00,410.58 L520.00,413.58 L515.34,418.00 L511.27,423.00 L508.14,428.00 L506.17,432.00 L504.30,437.00 L503.01,442.00 L502.25,447.00 L502.00,452.00 L501.91,449.00 L501.36,444.00 L500.28,439.00 L498.65,434.00 L496.40,429.00 L493.42,424.00 L490.42,420.00 L486.00,415.34 L481.00,411.27 L476.00,408.14 L472.00,406.17 L467.00,404.30 L462.00,403.01 L457.00,402.25 L452.00,402.00 L455.00,401.91 L460.00,401.36 L465.00,400.28 L470.00,398.65 L475.00,396.40 L479.00,394.08 L483.00,391.23 L487.71,387.00 L492.00,382.00 L494.71,378.00 L496.90,374.00 L499.00,369.06 L500.54,364.00 L501.51,359.00 L501.96,354.00 L501.91,349.00 L501.36,344.00 L500.28,339.00 L498.65,334.00 L496.40,329.00 L493.42,324.00 L490.42,320.00 L486.00,315.34 L481.00,311.27 L476.00,308.14 L472.00,306.17 L467.00,304.30 L462.00,303.01 L457.00,302.25 L452.00,302.00 L455.00,301.91 L460.00,301.36 L465.00,300.28 L470.00,298.65 L475.00,296.40 L480.00,293.42 L484.00,290.42 L488.66,286.00 L492.73,281.00 L495.86,276.00 L497.83,272.00 L499.70,267.00 L500.99,262.00 L501.75,257.00 L502.00,252.00 L502.09,255.00 L502.64,260.00 L503.72,265.00 L505.35,270.00 L507.60,275.00 L509.92,279.00 L512.77,283.00 L517.00,287.71 L522.00,292.00 L526.00,294.71 L530.00,296.90 L534.94,299.00 L540.00,300.54 L545.00,301.51 L550.00,301.96 L555.00,301.91 L560.00,301.36 L565.00,300.28 L570.00,298.65 L575.00,296.40 L579.00,294.08 L583.00,291.23 L587.71,287.00 L592.00,282.00 L594.71,278.00 L596.90,274.00 L599.00,269.06 L600.54,264.00 L601.51,259.00 L601.96,254.00 L601.91,249.00 L601.36,244.00 L600.28,239.00 L598.65,234.00 L596.40,229.00 L593.42,224.00 L590.42,220.00 L586.00,215.34 L581.00,211.27 L576.00,208.14 L572.00,206.17 L567.00,204.30 L562.00,203.01 L557.00,202.25 L552.00,202.00 L555.00,201.91 L560.00,201.36 L565.00,200.28 L570.00,198.65 L575.00,196.40 L579.00,194.08 L583.00,191.23 L587.71,187.00 L592.00,182.00 L594.71,178.00 L596.90,174.00 L599.00,169.06 L600.54,164.00 L601.51,159.00 L601.96,154.00 L601.91,149.00 L601.36,144.00 L600.28,139.00 L598.65,134.00 L596.40,129.00 L594.08,125.00 L591.23,121.00 L587.00,116.29 L582.00,112.00 L578.00,109.29 L574.00,107.10 L569.06,105.00 L564.00,103.46 L559.00,102.49 L554.00,102.04 L549.00,102.09 L544.00,102.64 L539.00,103.72 L534.00,105.35 L529.00,107.60 L525.00,109.92 L521.00,112.77 L516.29,117.00 L512.00,122.00 L509.29,126.00 L507.10,130.00 L505.00,134.94 L503.46,140.00 L502.49,145.00 L502.04,150.00 L502.09,155.00 L502.64,160.00 L503.72,165.00 L505.35,170.00 L507.60,175.00 L510.58,180.00 L513.58,184.00 L518.00,188.66 L523.00,192.73 L528.00,195.86 L532.00,197.83 L537.00,199.70 L542.00,200.99 L547.00,201.75 L552.00,202.00 L549.00,202.09 L544.00,202.64 L539.00,203.72 L534.00,205.35 L529.00,207.60 L524.00,210.58 L520.00,213.58 L515.34,218.00 L511.27,223.00 L508.14,228.00 L506.17,232.00 L504.30,237.00 L503.01,242.00 L502.25,247.00 L502.00,252.00 L501.91,249.00 L501.36,244.00 L500.28,239.00 L498.65,234.00 L496.40,229.00 L493.42,224.00 L490.42,220.00 L486.00,215.34 L481.00,211.27 L476.00,208.14 L472.00,206.17 L467.00,204.30 L462.00,203.01 L457.00,202.25 L452.00,202.00 L455.00,201.91 L460.00,201.36 L465.00,200.28 L470.00,198.65 L475.00,196.40 L479.00,194.08 L483.00,191.23 L487.71,187.00 L492.00,182.00 L494.71,178.00 L496.90,174.00 L499.00,169.06 L500.54,164.00 L501.51,159.00 L501.96,154.00 L501.91,149.00 L501.36,144.00 L500.28,139.00 L498.65,134.00 L496.40,129.00 L493.42,124.00 L490.42,120.00 L486.00,115.34 L481.00,111.27 L476.00,108.14 L472.00,106.17 L467.00,104.30 L462.00,103.01 L457.00,102.25 L452.00,102.00 L455.00,101.91 L460.00,101.36 L465.00,100.28 L470.00,98.65 L475.00,96.40 L480.00,93.42 L484.00,90.42 L488.66,86.00 L492.73,81.00 L495.86,76.00 L497.83,72.00 L499.70,67.00 L500.99,62.00 L501.75,57.00 L502.00,52.00 L502.09,55.00 L502.64,60.00 L503.72,65.00 L505.35,70.00 L507.60,75.00 L509.92,79.00 L512.77,83.00 L517.00,87.71 L522.00,92.00 L526.00,94.71 L530.00,96.90 L534.94,99.00 L540.00,100.54 L545.00,101.51 L550.00,101.96 L555.00,101.91 L560.00,101.36 L565.00,100.28 L570.00,98.65 L575.00,96.40 L580.00,93.42 L584.00,90.42 L588.66,86.00 L592.73,81.00 L595.86,76.00 L597.83,72.00 L599.70,67.00 L600.99,62.00 L601.75,57.00 L602.00,52.00 L602.09,55.00 L602.64,60.00 L603.72,65.00 L605.35,70.00 L607.60,75.00 L609.92,79.00 L612.77,83.00 L617.00,87.71 L622.00,92.00 L626.00,94.71 L630.00,96.90 L634.94,99.00 L640.00,100.54 L645.00,101.51 L650.00,101.96 L655.00,101.91 L660.00,101.36 L665.00,100.28 L670.00,98.65 L675.00,96.40 L679.00,94.08 L683.00,91.23 L687.71,87.00 L692.00,82.00 L694.71,78.00 L696.90,74.00 L699.00,69.06 L700.54,64.00 L701.51,59.00 L701.96,54.00 L701.91,49.00 L701.36,44.00 L700.28,39.00 L698.65,34.00 L696.40,29.00 L694.08,25.00 L691.23,21.00 L687.00,16.29 L682.00,12.00 L678.00,9.29 L674.00,7.10 L669.06,5.00 L664.00,3.46 L659.00,2.49 L654.00,2.04 L649.00,2.09 L644.00,2.64 L639.00,3.72 L634.00,5.35 L629.00,7.60 L624.00,10.58 L620.00,13.58 L615.34,18.00 L611.27,23.00 L608.14,28.00 L606.17,32.00 L604.30,37.00 L603.01,42.00 L602.25,47.00 L602.00,52.00 L601.91,49.00 L601.36,44.00 L600.28,39.00 L598.65,34.00 L596.40,29.00 L594.08,25.00 L591.23,21.00 L587.00,16.29 L582.00,12.00 L578.00,9.29 L574.00,7.10 L569.06,5.00 L564.00,3.46 L559.00,2.49 L554.00,2.04 L549.00,2.09 L544.00,2.64 L539.00,3.72 L534.00,5.35 L529.00,7.60 L524.00,10.58 L520.00,13.58 L515.34,18.00 L511.27,23.00 L508.14,28.00 L506.17,32.00 L504.30,37.00 L503.01,42.00 L502.25,47.00 L502.00,52.00 L501.91,49.00 L501.36,44.00 L500.28,39.00 L498.65,34.00 L496.40,29.00 L494.08,25.00 L491.23,21.00 L487.00,16.29 L482.00,12.00 L478.00,9.29 L474.00,7.10 L469.06,5.00 L464.00,3.46 L459.00,2.49 L454.00,2.04 L449.00,2.09 L444.00,2.64 L439.00,3.72 L434.00,5.35 L429.00,7.60 L424.00,10.58 L420.00,13.58 L415.34,18.00 L411.27,23.00 L408.14,28.00 L406.17,32.00 L404.30,37.00 L403.01,42.00 L402.25,47.00 L401.91,55.00 L401.36,60.00 L400.28,65.00 L398.65,70.00 L396.40,75.00 L393.42,80.00 L390.42,84.00 L386.00,88.66 L381.00,92.73 L376.00,95.86 L372.00,97.83 L367.00,99.70 L362.00,100.99 L357.00,101.75 L352.00,102.00 L355.00,102.09 L360.00,102.64 L365.00,103.72 L370.00,105.35 L375.00,107.60 L379.00,109.92 L383.00,112.77 L387.71,117.00 L392.00,122.00 L394.71,126.00 L396.90,130.00 L399.00,134.94 L400.54,140.00 L401.51,145.00 L401.96,150.00 L401.91,155.00 L401.36,160.00 L400.28,165.00 L398.65,170.00 L396.40,175.00 L394.08,179.00 L391.23,183.00 L387.00,187.71 L382.00,192.00 L378.00,194.71 L374.00,196.90 L369.06,199.00 L364.00,200.54 L359.00,201.51 L354.00,201.96 L349.00,201.91 L344.00,201.36 L339.00,200.28 L334.00,198.65 L329.00,196.40 L324.00,193.42 L320.00,190.42 L315.34,186.00 L311.27,181.00 L308.14,176.00 L306.17,172.00 L304.30,167.00 L303.01,162.00 L302.25,157.00 L302.00,152.00 L301.91,155.00 L301.36,160.00 L300.28,165.00 L298.65,170.00 L296.40,175.00 L293.42,180.00 L290.42,184.00 L286.00,188.66 L281.00,192.73 L276.00,195.86 L272.00,197.83 L267.00,199.70 L262.00,200.99 L257.00,201.75 L249.00,202.09 L244.00,202.64 L239.00,203.72 L234.00,205.35 L229.00,207.60 L224.00,210.58 L220.00,213.58 L215.34,218.00 L211.27,223.00 L208.14,228.00 L206.17,232.00 L204.30,237.00 L203.01,242.00 L202.25,247.00 L202.00,252.00 L201.91,249.00 L201.36,244.00 L200.28,239.00 L198.65,234.00 L196.40,229.00 L193.42,224.00 L190.42,220.00 L186.00,215.34 L181.00,211.27 L176.00,208.14 L172.00,206.17 L167.00,204.30 L162.00,203.01 L157.00,202.25 L152.00,202.00 L155.00,201.91 L160.00,201.36 L165.00,200.28 L170.00,198.65 L175.00,196.40 L180.00,193.42 L184.00,190.42 L188.66,186.00 L192.73,181.00 L195.86,176.00 L197.83,172.00 L199.70,167.00 L200.99,162.00 L201.75,157.00 L202.09,149.00 L202.64,144.00 L203.72,139.00 L205.35,134.00 L207.60,129.00 L210.58,124.00 L213.58,120.00 L218.00,115.34 L223.00,111.27 L228.00,108.14 L232.00,106.17 L237.00,104.30 L242.00,103.01 L247.00,102.25 L255.00,101.91 L260.00,101.36 L265.00,100.28 L270.00,98.65 L275.00,96.40 L279.00,94.08 L283.00,91.23 L287.71,87.00 L292.00,82.00 L294.71,78.00 L296.90,74.00 L299.00,69.06 L300.54,64.00 L301.51,59.00 L301.96,54.00 L301.91,49.00 L301.36,44.00 L300.28,39.00 L298.65,34.00 L296.40,29.00 L294.08,25.00 L291.23,21.00 L287.00,16.29 L282.00,12.00 L278.00,9.29 L274.00,7.10 L269.06,5.00 L264.00,3.46 L259.00,2.49 L254.00,2.04 L249.00,2.09 L244.00,2.64 L239.00,3.72 L234.00,5.35 L229.00,7.60 L224.00,10.58 L220.00,13.58 L215.34,18.00 L211.27,23.00 L208.14,28.00 L206.17,32.00 L204.30,37.00 L203.01,42.00 L202.25,47.00 L201.91,55.00 L201.36,60.00 L200.28,65.00 L198.65,70.00 L196.40,75.00 L193.42,80.00 L190.42,84.00 L186.00,88.66 L181.00,92.73 L176.00,95.86 L172.00,97.83 L167.00,99.70 L162.00,100.99 L157.00,101.75 L149.00,102.09 L144.00,102.64 L139.00,103.72 L134.00,105.35 L129.00,107.60 L124.00,110.58 L120.00,113.58 L115.34,118.00 L111.27,123.00 L108.14,128.00 L106.17,132.00 L104.30,137.00 L103.01,142.00 L102.25,147.00 L102.00,152.00 L101.91,149.00 L101.36,144.00 L100.28,139.00 L98.65,134.00 L96.40,129.00 L93.42,124.00 L90.42,120.00 L86.00,115.34 L81.00,111.27 L76.00,108.14 L72.00,106.17 L67.00,104.30 L62.00,103.01 L57.00,102.25 L52.00,102.00 L55.00,101.91 L60.00,101.36 L65.00,100.28 L70.00,98.65 L75.00,96.40 L79.00,94.08 L83.00,91.23 L87.71,87.00 L92.00,82.00 L94.71,78.00 L96.90,74.00 L99.00,69.06 L100.54,64.00 L101.51,59.00 L101.96,54.00 L101.91,49.00 L101.36,44.00 L100.28,39.00 L98.65,34.00 L96.40,29.00 L94.08,25.00 L91.23,21.00 L87.00,16.29 L82.00,12.00 L78.00,9.29 L74.00,7.10 L69.06,5.00 L64.00,3.46 L59.00,2.49 L54.00,2.04 L49.00,2.09 L44.00,2.64 L39.00,3.72 L34.00,5.35 L29.00,7.60 L25.00,9.92 L21.00,12.77 L16.29,17.00 L12.00,22.00 L9.29,26.00 L7.10,30.00 L5.00,34.94 L3.46,40.00 L2.49,45.00 L2.04,50.00 "></path>

<script>
let svgs = document.children[0];
let paths = Array.from(svgs.children).filter(function(c) {
    var orig = c.style.stroke;
    c.onmouseover = function() {
        c.style.stroke = "rgb(0, 0, 255)";
    };
    c.onmouseout = function () {
        c.style.stroke = orig;
    };
    c.onclick = function () {
        svgs.removeChild()
    }
});

for (let path of paths) {
    console.log(path);
}
</script></svg>
