<svg viewBox="0 0 5250 5250" xmlns="http://www.w3.org/2000/svg">
    <path fill-rule="evenodd" style="fill: rgb(0, 0, 0); stroke: none; stroke-width: none;" d="M2.29,3764.00 L4.75,3789.00 L9.81,3814.00 L17.63,3839.00 L27.01,3861.00 L27.01,3861.00 L30.54,3868.00 L42.88,3889.00 L55.85,3907.00 L70.57,3924.00 L94.00,3945.74 L113.00,3959.80 L133.00,3971.86 L153.00,3981.56 L175.00,3989.85 L199.00,3996.32 L224.00,4000.43 L249.00,4001.98 L274.00,4001.03 L300.00,3997.35 L324.00,3991.41 L347.00,3983.25 L368.00,3973.46 L389.00,3961.12 L407.00,3948.15 L424.00,3933.43 L445.74,3910.00 L459.80,3891.00 L471.86,3871.00 L481.56,3851.00 L489.85,3829.00 L496.32,3805.00 L500.43,3780.00 L501.98,3755.00 L501.03,3730.00 L497.35,3704.00 L491.41,3680.00 L483.25,3657.00 L473.46,3636.00 L461.12,3615.00 L448.15,3597.00 L433.43,3580.00 L410.00,3558.26 L391.00,3544.20 L371.00,3532.14 L351.00,3522.44 L329.00,3514.15 L305.00,3507.68 L280.00,3503.57 L255.00,3502.02 L230.00,3502.97 L204.00,3506.65 L180.00,3512.59 L157.00,3520.75 L136.00,3530.54 L115.00,3542.88 L97.00,3555.85 L82.00,3568.70 L64.18,3587.00 L49.06,3606.00 L37.25,3624.00 L26.06,3645.00 L17.26,3666.00 L10.07,3689.00 L5.06,3713.00 L2.34,3739.00 L2.29,3764.00 M252.00,4502.00 L277.00,4500.75 L302.00,4496.95 L326.00,4490.80 L348.00,4482.83 L369.00,4472.93 L388.00,4461.77 L395.00,4457.06 L395.00,4457.06 L411.00,4444.92 L433.43,4424.00 L448.15,4407.00 L461.12,4389.00 L473.46,4368.00 L483.25,4347.00 L491.41,4324.00 L497.35,4300.00 L501.03,4274.00 L502.00,4252.00 L503.25,4277.00 L507.05,4302.00 L513.20,4326.00 L521.17,4348.00 L531.07,4369.00 L542.23,4388.00 L555.06,4406.00 L579.00,4432.47 L597.00,4448.15 L615.00,4461.12 L636.00,4473.46 L657.00,4483.25 L680.00,4491.41 L704.00,4497.35 L730.00,4501.03 L752.00,4502.00 L727.00,4503.25 L702.00,4507.05 L678.00,4513.20 L656.00,4521.17 L635.00,4531.07 L616.00,4542.23 L598.00,4555.06 L571.53,4579.00 L555.85,4597.00 L542.88,4615.00 L531.60,4634.00 L521.59,4655.00 L512.90,4679.00 L506.85,4703.00 L503.15,4728.00 L502.00,4752.00 L500.75,4727.00 L496.95,4702.00 L490.80,4678.00 L482.83,4656.00 L472.93,4635.00 L461.77,4616.00 L448.94,4598.00 L425.00,4571.53 L407.00,4555.85 L389.00,4542.88 L368.00,4530.54 L347.00,4520.75 L324.00,4512.59 L300.00,4506.65 L274.00,4502.97 L252.00,4502.00 M2.00,751.00 L3.15,776.00 L6.85,801.00 L12.90,825.00 L21.59,849.00 L31.60,870.00 L42.88,889.00 L55.85,907.00 L71.53,925.00 L98.00,948.94 L116.00,961.77 L135.00,972.93 L156.00,982.83 L178.00,990.80 L202.00,996.95 L227.00,1000.75 L252.00,1002.00 L230.00,1002.97 L204.00,1006.65 L180.00,1012.59 L157.00,1020.75 L136.00,1030.54 L115.00,1042.88 L97.00,1055.85 L80.00,1070.57 L58.26,1094.00 L44.20,1113.00 L32.14,1133.00 L22.44,1153.00 L14.15,1175.00 L7.68,1199.00 L3.57,1224.00 L2.02,1249.00 L2.97,1274.00 L6.65,1300.00 L12.59,1324.00 L20.75,1347.00 L30.54,1368.00 L42.88,1389.00 L55.85,1407.00 L70.57,1424.00 L94.00,1445.74 L113.00,1459.80 L131.00,1470.77 L151.00,1480.69 L174.00,1489.52 L197.00,1495.88 L223.00,1500.31 L248.00,1501.97 L274.00,1501.03 L300.00,1497.35 L324.00,1491.41 L347.00,1483.25 L368.00,1473.46 L389.00,1461.12 L407.00,1448.15 L424.00,1433.43 L445.74,1410.00 L459.80,1391.00 L471.86,1371.00 L481.56,1351.00 L489.85,1329.00 L496.32,1305.00 L500.43,1280.00 L501.98,1255.00 L501.03,1230.00 L497.35,1204.00 L491.41,1180.00 L483.25,1157.00 L473.46,1136.00 L461.12,1115.00 L448.15,1097.00 L432.47,1079.00 L406.00,1055.06 L388.00,1042.23 L369.00,1031.07 L348.00,1021.17 L326.00,1013.20 L302.00,1007.05 L277.00,1003.25 L252.00,1002.00 L276.00,1000.85 L301.00,997.15 L325.00,991.10 L349.00,982.41 L370.00,972.40 L389.00,961.12 L407.00,948.15 L425.00,932.47 L448.94,906.00 L461.77,888.00 L472.93,869.00 L482.83,848.00 L490.80,826.00 L496.95,802.00 L500.75,777.00 L502.00,752.00 L503.15,776.00 L506.85,801.00 L512.90,825.00 L521.59,849.00 L531.60,870.00 L542.88,889.00 L555.85,907.00 L570.57,924.00 L594.00,945.74 L613.00,959.80 L633.00,971.86 L654.00,981.99 L677.00,990.48 L701.00,996.74 L726.00,1000.64 L751.00,1002.00 L776.00,1000.85 L801.00,997.15 L825.00,991.10 L849.00,982.41 L870.00,972.40 L889.00,961.12 L907.00,948.15 L925.00,932.47 L948.94,906.00 L961.77,888.00 L972.93,869.00 L982.83,848.00 L990.80,826.00 L996.95,802.00 L1000.75,777.00 L1002.00,752.00 L1002.97,774.00 L1006.65,800.00 L1012.59,824.00 L1020.75,847.00 L1030.54,868.00 L1042.88,889.00 L1055.85,907.00 L1070.57,924.00 L1094.00,945.74 L1113.00,959.80 L1133.00,971.86 L1154.00,981.99 L1177.00,990.48 L1201.00,996.74 L1226.00,1000.64 L1251.00,1002.00 L1276.00,1000.85 L1301.00,997.15 L1325.00,991.10 L1349.00,982.41 L1370.00,972.40 L1389.00,961.12 L1407.00,948.15 L1424.00,933.43 L1445.74,910.00 L1459.80,891.00 L1470.77,873.00 L1480.69,853.00 L1489.52,830.00 L1495.88,807.00 L1500.31,781.00 L1501.97,756.00 L1501.03,730.00 L1497.35,704.00 L1491.41,680.00 L1483.25,657.00 L1473.46,636.00 L1461.12,615.00 L1448.15,597.00 L1433.43,580.00 L1410.00,558.26 L1391.00,544.20 L1371.00,532.14 L1350.00,522.01 L1327.00,513.52 L1303.00,507.26 L1278.00,503.36 L1253.00,502.00 L1228.00,503.15 L1203.00,506.85 L1179.00,512.90 L1155.00,521.59 L1134.00,531.60 L1115.00,542.88 L1097.00,555.85 L1079.00,571.53 L1055.06,598.00 L1042.23,616.00 L1031.07,635.00 L1021.17,656.00 L1013.20,678.00 L1007.05,702.00 L1003.25,727.00 L1002.00,752.00 L1000.85,728.00 L997.15,703.00 L991.10,679.00 L982.41,655.00 L972.40,634.00 L961.12,615.00 L948.15,597.00 L935.30,582.00 L917.00,564.18 L898.00,549.06 L880.00,537.25 L859.00,526.06 L838.00,517.26 L815.00,510.07 L791.00,505.06 L766.00,502.39 L741.00,502.24 L716.00,504.61 L691.00,509.56 L667.00,516.89 L644.00,526.53 L622.76,538.00 L622.76,538.00 L615.00,542.88 L597.00,555.85 L579.00,571.53 L555.06,598.00 L542.23,616.00 L531.07,635.00 L521.17,656.00 L513.20,678.00 L507.05,702.00 L503.25,727.00 L502.00,752.00 L500.85,728.00 L497.15,703.00 L491.10,679.00 L482.41,655.00 L472.40,634.00 L461.12,615.00 L448.15,597.00 L432.47,579.00 L406.00,555.06 L388.00,542.23 L369.00,531.07 L348.00,521.17 L326.00,513.20 L302.00,507.05 L277.00,503.25 L252.00,502.00 L276.00,500.85 L301.00,497.15 L325.00,491.10 L349.00,482.41 L370.00,472.40 L389.00,461.12 L407.00,448.15 L425.00,432.47 L448.94,406.00 L461.77,388.00 L472.93,369.00 L482.83,348.00 L490.80,326.00 L496.95,302.00 L500.75,277.00 L502.00,252.00 L503.15,276.00 L506.85,301.00 L512.90,325.00 L521.59,349.00 L531.60,370.00 L542.88,389.00 L555.85,407.00 L570.57,424.00 L594.00,445.74 L613.00,459.80 L633.00,471.86 L654.00,481.99 L677.00,490.48 L701.00,496.74 L726.00,500.64 L751.00,502.00 L776.00,500.85 L801.00,497.15 L825.00,491.10 L849.00,482.41 L870.00,472.40 L889.00,461.12 L907.00,448.15 L924.00,433.43 L945.74,410.00 L959.80,391.00 L971.86,371.00 L981.99,350.00 L990.48,327.00 L996.74,303.00 L1000.64,278.00 L1002.00,253.00 L1000.85,228.00 L997.15,203.00 L991.10,179.00 L982.41,155.00 L972.40,134.00 L961.12,115.00 L948.15,97.00 L933.43,80.00 L910.00,58.26 L891.00,44.20 L871.00,32.14 L850.00,22.01 L827.00,13.52 L803.00,7.26 L778.00,3.36 L753.00,2.00 L728.00,3.15 L703.00,6.85 L679.00,12.90 L655.00,21.59 L634.00,31.60 L615.00,42.88 L597.00,55.85 L579.00,71.53 L555.06,98.00 L542.23,116.00 L531.07,135.00 L521.17,156.00 L513.20,178.00 L507.05,202.00 L503.25,227.00 L502.00,252.00 L500.85,228.00 L497.15,203.00 L491.10,179.00 L482.41,155.00 L472.40,134.00 L461.12,115.00 L448.15,97.00 L433.43,80.00 L410.00,58.26 L391.00,44.20 L371.00,32.14 L351.00,22.44 L329.00,14.15 L305.00,7.68 L280.00,3.57 L255.00,2.02 L230.00,2.97 L204.00,6.65 L180.00,12.59 L157.00,20.75 L136.00,30.54 L115.00,42.88 L97.00,55.85 L80.00,70.57 L58.26,94.00 L44.20,113.00 L32.14,133.00 L22.44,153.00 L14.15,175.00 L7.68,199.00 L3.57,224.00 L2.02,249.00 L2.97,274.00 L6.65,300.00 L12.59,324.00 L20.75,347.00 L30.54,368.00 L42.88,389.00 L55.85,407.00 L71.53,425.00 L98.00,448.94 L116.00,461.77 L135.00,472.93 L156.00,482.83 L178.00,490.80 L202.00,496.95 L227.00,500.75 L252.00,502.00 L228.00,503.15 L203.00,506.85 L179.00,512.90 L155.00,521.59 L134.00,531.60 L115.00,542.88 L97.00,555.85 L80.00,570.57 L58.26,594.00 L44.20,613.00 L32.14,633.00 L22.01,654.00 L13.52,677.00 L7.26,701.00 L3.36,726.00 L2.00,751.00 M252.00,2002.00 L274.00,2002.97 L300.00,2006.65 L324.00,2012.59 L347.00,2020.75 L368.00,2030.54 L389.00,2042.88 L407.00,2055.85 L425.00,2071.53 L448.94,2098.00 L461.77,2116.00 L472.93,2135.00 L482.83,2156.00 L490.80,2178.00 L496.95,2202.00 L500.75,2227.00 L502.00,2252.00 L503.15,2228.00 L506.85,2203.00 L512.90,2179.00 L521.59,2155.00 L531.60,2134.00 L542.88,2115.00 L555.85,2097.00 L570.57,2080.00 L594.00,2058.26 L613.00,2044.20 L631.00,2033.23 L651.00,2023.31 L674.00,2014.48 L697.00,2008.12 L723.00,2003.69 L748.00,2002.03 L774.00,2002.97 L800.00,2006.65 L824.00,2012.59 L847.00,2020.75 L868.00,2030.54 L889.00,2042.88 L907.00,2055.85 L924.00,2070.57 L945.74,2094.00 L959.80,2113.00 L971.86,2133.00 L981.99,2154.00 L990.48,2177.00 L996.74,2201.00 L1000.64,2226.00 L1002.00,2251.00 L1000.85,2276.00 L997.15,2301.00 L991.10,2325.00 L982.41,2349.00 L972.40,2370.00 L961.12,2389.00 L948.15,2407.00 L932.47,2425.00 L906.00,2448.94 L888.00,2461.77 L869.00,2472.93 L848.00,2482.83 L826.00,2490.80 L802.00,2496.95 L777.00,2500.75 L752.00,2502.00 L774.00,2502.97 L800.00,2506.65 L824.00,2512.59 L847.00,2520.75 L868.00,2530.54 L889.00,2542.88 L907.00,2555.85 L924.00,2570.57 L945.74,2594.00 L959.80,2613.00 L971.86,2633.00 L981.99,2654.00 L990.48,2677.00 L996.74,2701.00 L1000.64,2726.00 L1002.00,2751.00 L1000.85,2776.00 L997.15,2801.00 L991.10,2825.00 L982.41,2849.00 L972.40,2870.00 L961.12,2889.00 L948.15,2907.00 L933.43,2924.00 L910.00,2945.74 L891.00,2959.80 L871.00,2971.86 L851.00,2981.56 L829.00,2989.85 L805.00,2996.32 L780.00,3000.43 L755.00,3001.98 L730.00,3001.03 L704.00,2997.35 L680.00,2991.41 L657.00,2983.25 L636.00,2973.46 L615.00,2961.12 L597.00,2948.15 L579.00,2932.47 L555.06,2906.00 L542.23,2888.00 L531.07,2869.00 L521.17,2848.00 L513.20,2826.00 L507.05,2802.00 L503.25,2777.00 L502.00,2752.00 L501.03,2774.00 L497.35,2800.00 L491.41,2824.00 L483.25,2847.00 L473.46,2868.00 L461.12,2889.00 L448.15,2907.00 L432.47,2925.00 L406.00,2948.94 L388.00,2961.77 L369.00,2972.93 L348.00,2982.83 L326.00,2990.80 L302.00,2996.95 L277.00,3000.75 L252.00,3002.00 L274.00,3002.97 L300.00,3006.65 L324.00,3012.59 L347.00,3020.75 L368.00,3030.54 L389.00,3042.88 L407.00,3055.85 L425.00,3071.53 L448.94,3098.00 L461.77,3116.00 L472.93,3135.00 L482.83,3156.00 L490.80,3178.00 L496.95,3202.00 L500.75,3227.00 L502.00,3252.00 L503.15,3228.00 L506.85,3203.00 L512.90,3179.00 L521.59,3155.00 L531.60,3134.00 L542.88,3115.00 L555.85,3097.00 L570.57,3080.00 L594.00,3058.26 L613.00,3044.20 L633.00,3032.14 L653.00,3022.44 L675.00,3014.15 L699.00,3007.68 L724.00,3003.57 L749.00,3002.02 L774.00,3002.97 L800.00,3006.65 L824.00,3012.59 L847.00,3020.75 L868.00,3030.54 L889.00,3042.88 L907.00,3055.85 L924.00,3070.57 L945.74,3094.00 L959.80,3113.00 L971.86,3133.00 L981.99,3154.00 L990.48,3177.00 L996.74,3201.00 L1000.64,3226.00 L1002.00,3251.00 L1000.85,3276.00 L997.15,3301.00 L991.10,3325.00 L982.41,3349.00 L972.40,3370.00 L961.12,3389.00 L948.15,3407.00 L932.47,3425.00 L906.00,3448.94 L888.00,3461.77 L869.00,3472.93 L848.00,3482.83 L826.00,3490.80 L802.00,3496.95 L777.00,3500.75 L752.00,3502.00 L774.00,3502.97 L800.00,3506.65 L824.00,3512.59 L847.00,3520.75 L868.00,3530.54 L889.00,3542.88 L907.00,3555.85 L925.00,3571.53 L948.94,3598.00 L961.77,3616.00 L972.93,3635.00 L982.83,3656.00 L990.80,3678.00 L996.95,3702.00 L1000.75,3727.00 L1002.00,3752.00 L1002.97,3730.00 L1006.65,3704.00 L1012.59,3680.00 L1020.75,3657.00 L1030.54,3636.00 L1042.88,3615.00 L1055.85,3597.00 L1070.57,3580.00 L1094.00,3558.26 L1113.00,3544.20 L1133.00,3532.14 L1153.00,3522.44 L1175.00,3514.15 L1199.00,3507.68 L1224.00,3503.57 L1249.00,3502.02 L1274.00,3502.97 L1300.00,3506.65 L1324.00,3512.59 L1347.00,3520.75 L1368.00,3530.54 L1389.00,3542.88 L1407.00,3555.85 L1425.00,3571.53 L1448.94,3598.00 L1461.77,3616.00 L1472.93,3635.00 L1482.83,3656.00 L1490.80,3678.00 L1496.95,3702.00 L1500.75,3727.00 L1502.00,3752.00 L1502.97,3730.00 L1506.65,3704.00 L1512.59,3680.00 L1520.75,3657.00 L1530.54,3636.00 L1542.88,3615.00 L1555.85,3597.00 L1570.57,3580.00 L1594.00,3558.26 L1613.00,3544.20 L1633.00,3532.14 L1653.00,3522.44 L1675.00,3514.15 L1699.00,3507.68 L1724.00,3503.57 L1749.00,3502.02 L1774.00,3502.97 L1800.00,3506.65 L1824.00,3512.59 L1847.00,3520.75 L1868.00,3530.54 L1889.00,3542.88 L1907.00,3555.85 L1924.00,3570.57 L1945.74,3594.00 L1959.80,3613.00 L1970.77,3631.00 L1980.69,3651.00 L1989.52,3674.00 L1995.88,3697.00 L2000.31,3723.00 L2001.97,3748.00 L2001.03,3774.00 L1997.35,3800.00 L1991.41,3824.00 L1983.25,3847.00 L1973.46,3868.00 L1961.12,3889.00 L1948.15,3907.00 L1932.47,3925.00 L1906.00,3948.94 L1888.00,3961.77 L1869.00,3972.93 L1848.00,3982.83 L1826.00,3990.80 L1802.00,3996.95 L1777.00,4000.75 L1752.00,4002.00 L1774.00,4002.97 L1800.00,4006.65 L1824.00,4012.59 L1847.00,4020.75 L1868.00,4030.54 L1889.00,4042.88 L1907.00,4055.85 L1924.00,4070.57 L1945.74,4094.00 L1959.80,4113.00 L1970.77,4131.00 L1980.69,4151.00 L1989.52,4174.00 L1995.88,4197.00 L2000.31,4223.00 L2001.97,4248.00 L2001.03,4274.00 L1997.35,4300.00 L1991.41,4324.00 L1983.25,4347.00 L1973.46,4368.00 L1961.12,4389.00 L1948.15,4407.00 L1932.47,4425.00 L1906.00,4448.94 L1888.00,4461.77 L1869.00,4472.93 L1848.00,4482.83 L1826.00,4490.80 L1802.00,4496.95 L1777.00,4500.75 L1752.00,4502.00 L1774.00,4502.97 L1800.00,4506.65 L1824.00,4512.59 L1847.00,4520.75 L1868.00,4530.54 L1889.00,4542.88 L1907.00,4555.85 L1925.00,4571.53 L1948.94,4598.00 L1961.77,4616.00 L1972.93,4635.00 L1982.83,4656.00 L1990.80,4678.00 L1996.95,4702.00 L2000.75,4727.00 L2002.00,4752.00 L2002.97,4730.00 L2006.65,4704.00 L2012.59,4680.00 L2020.75,4657.00 L2030.54,4636.00 L2042.88,4615.00 L2055.85,4597.00 L2071.53,4579.00 L2098.00,4555.06 L2116.00,4542.23 L2135.00,4531.07 L2156.00,4521.17 L2178.00,4513.20 L2202.00,4507.05 L2227.00,4503.25 L2252.00,4502.00 L2230.00,4501.03 L2204.00,4497.35 L2180.00,4491.41 L2157.00,4483.25 L2136.00,4473.46 L2115.00,4461.12 L2097.00,4448.15 L2080.00,4433.43 L2058.26,4410.00 L2044.20,4391.00 L2033.23,4373.00 L2023.31,4353.00 L2014.48,4330.00 L2008.12,4307.00 L2003.69,4281.00 L2002.03,4256.00 L2002.97,4230.00 L2006.65,4204.00 L2012.59,4180.00 L2020.75,4157.00 L2030.54,4136.00 L2042.88,4115.00 L2055.85,4097.00 L2071.53,4079.00 L2098.00,4055.06 L2116.00,4042.23 L2135.00,4031.07 L2156.00,4021.17 L2178.00,4013.20 L2202.00,4007.05 L2227.00,4003.25 L2252.00,4002.00 L2230.00,4001.03 L2204.00,3997.35 L2180.00,3991.41 L2157.00,3983.25 L2136.00,3973.46 L2115.00,3961.12 L2097.00,3948.15 L2080.00,3933.43 L2058.26,3910.00 L2044.20,3891.00 L2033.23,3873.00 L2023.31,3853.00 L2014.48,3830.00 L2008.12,3807.00 L2003.69,3781.00 L2002.03,3756.00 L2002.97,3730.00 L2006.65,3704.00 L2012.59,3680.00 L2020.75,3657.00 L2030.54,3636.00 L2042.88,3615.00 L2055.85,3597.00 L2071.53,3579.00 L2098.00,3555.06 L2116.00,3542.23 L2135.00,3531.07 L2156.00,3521.17 L2178.00,3513.20 L2202.00,3507.05 L2227.00,3503.25 L2252.00,3502.00 L2230.00,3501.03 L2204.00,3497.35 L2180.00,3491.41 L2157.00,3483.25 L2136.00,3473.46 L2115.00,3461.12 L2097.00,3448.15 L2079.00,3432.47 L2055.06,3406.00 L2042.23,3388.00 L2031.07,3369.00 L2021.17,3348.00 L2013.20,3326.00 L2007.05,3302.00 L2003.25,3277.00 L2002.00,3252.00 L2001.03,3274.00 L1997.35,3300.00 L1991.41,3324.00 L1983.25,3347.00 L1973.46,3368.00 L1961.12,3389.00 L1948.15,3407.00 L1933.43,3424.00 L1910.00,3445.74 L1891.00,3459.80 L1871.00,3471.86 L1851.00,3481.56 L1829.00,3489.85 L1805.00,3496.32 L1780.00,3500.43 L1755.00,3501.98 L1730.00,3501.03 L1704.00,3497.35 L1680.00,3491.41 L1657.00,3483.25 L1636.00,3473.46 L1615.00,3461.12 L1597.00,3448.15 L1580.00,3433.43 L1558.26,3410.00 L1544.20,3391.00 L1533.23,3373.00 L1523.31,3353.00 L1514.48,3330.00 L1508.12,3307.00 L1503.69,3281.00 L1502.03,3256.00 L1502.97,3230.00 L1506.65,3204.00 L1512.59,3180.00 L1520.75,3157.00 L1530.54,3136.00 L1542.88,3115.00 L1555.85,3097.00 L1571.53,3079.00 L1598.00,3055.06 L1616.00,3042.23 L1635.00,3031.07 L1656.00,3021.17 L1678.00,3013.20 L1702.00,3007.05 L1727.00,3003.25 L1752.00,3002.00 L1730.00,3001.03 L1704.00,2997.35 L1680.00,2991.41 L1657.00,2983.25 L1636.00,2973.46 L1615.00,2961.12 L1597.00,2948.15 L1579.00,2932.47 L1555.06,2906.00 L1542.23,2888.00 L1531.07,2869.00 L1521.17,2848.00 L1513.20,2826.00 L1507.05,2802.00 L1503.25,2777.00 L1502.00,2752.00 L1501.03,2774.00 L1497.35,2800.00 L1491.41,2824.00 L1483.25,2847.00 L1473.46,2868.00 L1461.12,2889.00 L1448.15,2907.00 L1432.47,2925.00 L1406.00,2948.94 L1388.00,2961.77 L1369.00,2972.93 L1348.00,2982.83 L1326.00,2990.80 L1302.00,2996.95 L1277.00,3000.75 L1252.00,3002.00 L1274.00,3002.97 L1300.00,3006.65 L1324.00,3012.59 L1347.00,3020.75 L1368.00,3030.54 L1389.00,3042.88 L1407.00,3055.85 L1424.00,3070.57 L1445.74,3094.00 L1459.80,3113.00 L1470.77,3131.00 L1480.69,3151.00 L1489.52,3174.00 L1495.88,3197.00 L1500.31,3223.00 L1501.97,3248.00 L1501.03,3274.00 L1497.35,3300.00 L1491.41,3324.00 L1483.25,3347.00 L1473.46,3368.00 L1461.12,3389.00 L1448.15,3407.00 L1433.43,3424.00 L1410.00,3445.74 L1391.00,3459.80 L1371.00,3471.86 L1351.00,3481.56 L1329.00,3489.85 L1305.00,3496.32 L1280.00,3500.43 L1255.00,3501.98 L1230.00,3501.03 L1204.00,3497.35 L1180.00,3491.41 L1157.00,3483.25 L1136.00,3473.46 L1115.00,3461.12 L1097.00,3448.15 L1080.00,3433.43 L1058.26,3410.00 L1044.20,3391.00 L1032.14,3371.00 L1022.44,3351.00 L1014.15,3329.00 L1007.68,3305.00 L1003.57,3280.00 L1002.02,3255.00 L1002.97,3230.00 L1006.65,3204.00 L1012.59,3180.00 L1020.75,3157.00 L1030.54,3136.00 L1042.88,3115.00 L1055.85,3097.00 L1071.53,3079.00 L1098.00,3055.06 L1116.00,3042.23 L1135.00,3031.07 L1156.00,3021.17 L1178.00,3013.20 L1202.00,3007.05 L1227.00,3003.25 L1252.00,3002.00 L1230.00,3001.03 L1204.00,2997.35 L1180.00,2991.41 L1157.00,2983.25 L1136.00,2973.46 L1115.00,2961.12 L1097.00,2948.15 L1080.00,2933.43 L1058.26,2910.00 L1044.20,2891.00 L1032.14,2871.00 L1022.44,2851.00 L1014.15,2829.00 L1007.68,2805.00 L1003.57,2780.00 L1002.02,2755.00 L1002.97,2730.00 L1006.65,2704.00 L1012.59,2680.00 L1020.75,2657.00 L1030.54,2636.00 L1042.88,2615.00 L1055.85,2597.00 L1071.53,2579.00 L1098.00,2555.06 L1116.00,2542.23 L1135.00,2531.07 L1156.00,2521.17 L1178.00,2513.20 L1202.00,2507.05 L1227.00,2503.25 L1252.00,2502.00 L1230.00,2501.03 L1204.00,2497.35 L1180.00,2491.41 L1157.00,2483.25 L1136.00,2473.46 L1115.00,2461.12 L1097.00,2448.15 L1082.00,2435.30 L1064.18,2417.00 L1049.06,2398.00 L1037.25,2380.00 L1037.25,2380.00 L1032.14,2371.00 L1022.44,2351.00 L1014.15,2329.00 L1007.68,2305.00 L1003.57,2280.00 L1002.02,2255.00 L1002.97,2230.00 L1006.65,2204.00 L1012.59,2180.00 L1020.75,2157.00 L1030.54,2136.00 L1042.88,2115.00 L1055.85,2097.00 L1071.53,2079.00 L1098.00,2055.06 L1116.00,2042.23 L1135.00,2031.07 L1156.00,2021.17 L1178.00,2013.20 L1202.00,2007.05 L1227.00,2003.25 L1252.00,2002.00 L1230.00,2001.03 L1204.00,1997.35 L1180.00,1991.41 L1157.00,1983.25 L1136.00,1973.46 L1115.00,1961.12 L1097.00,1948.15 L1080.00,1933.43 L1058.26,1910.00 L1044.20,1891.00 L1032.14,1871.00 L1022.44,1851.00 L1014.15,1829.00 L1007.68,1805.00 L1003.57,1780.00 L1002.02,1755.00 L1002.97,1730.00 L1006.65,1704.00 L1012.59,1680.00 L1020.75,1657.00 L1030.54,1636.00 L1042.88,1615.00 L1055.85,1597.00 L1071.53,1579.00 L1098.00,1555.06 L1116.00,1542.23 L1135.00,1531.07 L1156.00,1521.17 L1178.00,1513.20 L1202.00,1507.05 L1227.00,1503.25 L1252.00,1502.00 L1230.00,1501.03 L1204.00,1497.35 L1180.00,1491.41 L1157.00,1483.25 L1136.00,1473.46 L1115.00,1461.12 L1097.00,1448.15 L1079.00,1432.47 L1055.06,1406.00 L1042.23,1388.00 L1031.07,1369.00 L1021.17,1348.00 L1013.20,1326.00 L1007.05,1302.00 L1003.25,1277.00 L1002.00,1252.00 L1000.85,1276.00 L997.15,1301.00 L991.10,1325.00 L982.41,1349.00 L972.40,1370.00 L961.12,1389.00 L948.15,1407.00 L932.47,1425.00 L906.00,1448.94 L888.00,1461.77 L869.00,1472.93 L848.00,1482.83 L826.00,1490.80 L802.00,1496.95 L777.00,1500.75 L752.00,1502.00 L774.00,1502.97 L800.00,1506.65 L824.00,1512.59 L847.00,1520.75 L868.00,1530.54 L889.00,1542.88 L907.00,1555.85 L924.00,1570.57 L945.74,1594.00 L959.80,1613.00 L971.86,1633.00 L981.99,1654.00 L990.48,1677.00 L996.74,1701.00 L1000.64,1726.00 L1002.00,1751.00 L1000.85,1776.00 L997.15,1801.00 L991.10,1825.00 L982.41,1849.00 L972.40,1870.00 L961.12,1889.00 L948.15,1907.00 L933.43,1924.00 L910.00,1945.74 L891.00,1959.80 L873.00,1970.77 L853.00,1980.69 L830.00,1989.52 L807.00,1995.88 L781.00,2000.31 L756.00,2001.97 L730.00,2001.03 L704.00,1997.35 L680.00,1991.41 L657.00,1983.25 L636.00,1973.46 L615.00,1961.12 L597.00,1948.15 L579.00,1932.47 L555.06,1906.00 L542.23,1888.00 L531.07,1869.00 L521.17,1848.00 L513.20,1826.00 L507.05,1802.00 L503.25,1777.00 L502.00,1752.00 L501.03,1774.00 L497.35,1800.00 L491.41,1824.00 L483.25,1847.00 L473.46,1868.00 L461.12,1889.00 L448.15,1907.00 L432.47,1925.00 L406.00,1948.94 L388.00,1961.77 L369.00,1972.93 L348.00,1982.83 L326.00,1990.80 L302.00,1996.95 L277.00,2000.75 L252.00,2002.00 M1002.02,4249.00 L1002.97,4274.00 L1006.65,4300.00 L1012.59,4324.00 L1020.75,4347.00 L1030.54,4368.00 L1042.88,4389.00 L1055.85,4407.00 L1070.57,4424.00 L1094.00,4445.74 L1113.00,4459.80 L1133.00,4471.86 L1153.00,4481.56 L1175.00,4489.85 L1199.00,4496.32 L1224.00,4500.43 L1249.00,4501.98 L1274.00,4501.03 L1300.00,4497.35 L1324.00,4491.41 L1347.00,4483.25 L1368.00,4473.46 L1389.00,4461.12 L1407.00,4448.15 L1425.00,4432.47 L1448.94,4406.00 L1461.77,4388.00 L1472.93,4369.00 L1482.83,4348.00 L1490.80,4326.00 L1496.95,4302.00 L1500.85,4276.00 L1502.00,4251.00 L1500.64,4226.00 L1496.74,4201.00 L1490.48,4177.00 L1482.00,4154.02 L1482.00,4154.02 L1473.46,4136.00 L1461.12,4115.00 L1448.15,4097.00 L1433.43,4080.00 L1410.00,4058.26 L1391.00,4044.20 L1371.00,4032.14 L1351.00,4022.44 L1329.00,4014.15 L1305.00,4007.68 L1280.00,4003.57 L1255.00,4002.02 L1230.00,4002.97 L1204.00,4006.65 L1180.00,4012.59 L1157.00,4020.75 L1136.00,4030.54 L1115.00,4042.88 L1097.00,4055.85 L1080.00,4070.57 L1058.26,4094.00 L1044.20,4113.00 L1032.14,4133.00 L1022.44,4153.00 L1014.15,4175.00 L1007.68,4199.00 L1003.57,4224.00 L1002.02,4249.00 M1502.03,1748.00 L1502.97,1774.00 L1506.65,1800.00 L1512.59,1824.00 L1520.75,1847.00 L1530.54,1868.00 L1542.88,1889.00 L1555.85,1907.00 L1571.53,1925.00 L1598.00,1948.94 L1616.00,1961.77 L1635.00,1972.93 L1656.00,1982.83 L1678.00,1990.80 L1702.00,1996.95 L1727.00,2000.75 L1752.00,2002.00 L1730.00,2002.97 L1704.00,2006.65 L1680.00,2012.59 L1657.00,2020.75 L1636.00,2030.54 L1615.00,2042.88 L1597.00,2055.85 L1580.00,2070.57 L1558.26,2094.00 L1544.20,2113.00 L1533.23,2131.00 L1523.31,2151.00 L1514.48,2174.00 L1508.12,2197.00 L1503.69,2223.00 L1502.03,2248.00 L1502.97,2274.00 L1506.65,2300.00 L1512.59,2324.00 L1520.75,2347.00 L1530.54,2368.00 L1542.88,2389.00 L1555.85,2407.00 L1571.53,2425.00 L1598.00,2448.94 L1616.00,2461.77 L1637.00,2473.98 L1637.00,2473.98 L1653.00,2481.56 L1675.00,2489.85 L1699.00,2496.32 L1724.00,2500.43 L1749.00,2501.98 L1774.00,2501.03 L1800.00,2497.35 L1824.00,2491.41 L1847.00,2483.25 L1868.00,2473.46 L1889.00,2461.12 L1907.00,2448.15 L1924.00,2433.43 L1945.74,2410.00 L1959.80,2391.00 L1970.77,2373.00 L1980.69,2353.00 L1989.52,2330.00 L1995.88,2307.00 L2000.31,2281.00 L2001.97,2256.00 L2001.03,2230.00 L1997.35,2204.00 L1991.41,2180.00 L1983.25,2157.00 L1973.46,2136.00 L1961.12,2115.00 L1948.15,2097.00 L1932.47,2079.00 L1906.00,2055.06 L1888.00,2042.23 L1869.00,2031.07 L1848.00,2021.17 L1826.00,2013.20 L1802.00,2007.05 L1777.00,2003.25 L1752.00,2002.00 L1774.00,2001.03 L1800.00,1997.35 L1824.00,1991.41 L1847.00,1983.25 L1868.00,1973.46 L1889.00,1961.12 L1907.00,1948.15 L1924.00,1933.43 L1945.74,1910.00 L1959.80,1891.00 L1970.77,1873.00 L1980.69,1853.00 L1989.52,1830.00 L1995.88,1807.00 L2000.31,1781.00 L2001.97,1756.00 L2001.03,1730.00 L1997.35,1704.00 L1991.41,1680.00 L1983.25,1657.00 L1973.46,1636.00 L1961.12,1615.00 L1948.15,1597.00 L1933.43,1580.00 L1910.00,1558.26 L1891.00,1544.20 L1873.00,1533.23 L1853.00,1523.31 L1830.00,1514.48 L1807.00,1508.12 L1781.00,1503.69 L1756.00,1502.03 L1730.00,1502.97 L1704.00,1506.65 L1680.00,1512.59 L1657.00,1520.75 L1636.00,1530.54 L1615.00,1542.88 L1597.00,1555.85 L1580.00,1570.57 L1558.26,1594.00 L1544.20,1613.00 L1533.23,1631.00 L1523.31,1651.00 L1514.48,1674.00 L1508.12,1697.00 L1503.69,1723.00 L1502.03,1748.00 M1752.00,502.00 L1776.00,503.15 L1801.00,506.85 L1825.00,512.90 L1849.00,521.59 L1870.00,531.60 L1889.00,542.88 L1907.00,555.85 L1925.00,571.53 L1948.94,598.00 L1961.77,616.00 L1972.93,635.00 L1982.83,656.00 L1990.80,678.00 L1996.95,702.00 L2000.75,727.00 L2002.00,752.00 L2002.97,730.00 L2006.65,704.00 L2012.59,680.00 L2020.75,657.00 L2030.54,636.00 L2042.88,615.00 L2055.85,597.00 L2071.53,579.00 L2098.00,555.06 L2116.00,542.23 L2135.00,531.07 L2156.00,521.17 L2178.00,513.20 L2202.00,507.05 L2227.00,503.25 L2252.00,502.00 L2230.00,501.03 L2204.00,497.35 L2180.00,491.41 L2157.00,483.25 L2136.00,473.46 L2115.00,461.12 L2097.00,448.15 L2080.00,433.43 L2058.26,410.00 L2045.00,392.18 L2045.00,392.18 L2042.23,388.00 L2031.07,369.00 L2021.17,348.00 L2013.20,326.00 L2007.05,302.00 L2003.25,277.00 L2002.00,252.00 L2001.03,274.00 L1997.35,300.00 L1991.41,324.00 L1983.25,347.00 L1973.46,368.00 L1961.12,389.00 L1948.15,407.00 L1932.47,425.00 L1906.00,448.94 L1888.00,461.77 L1869.00,472.93 L1848.00,482.83 L1826.00,490.80 L1802.00,496.95 L1777.00,500.75 L1752.00,502.00 M2252.00,2002.00 L2274.00,2002.97 L2300.00,2006.65 L2324.00,2012.59 L2347.00,2020.75 L2368.00,2030.54 L2389.00,2042.88 L2407.00,2055.85 L2424.00,2070.57 L2445.74,2094.00 L2459.80,2113.00 L2471.86,2133.00 L2481.56,2153.00 L2489.85,2175.00 L2496.32,2199.00 L2500.43,2224.00 L2501.98,2249.00 L2501.03,2274.00 L2497.35,2300.00 L2491.41,2324.00 L2483.25,2347.00 L2473.46,2368.00 L2461.12,2389.00 L2448.15,2407.00 L2432.47,2425.00 L2406.00,2448.94 L2388.00,2461.77 L2369.00,2472.93 L2348.00,2482.83 L2326.00,2490.80 L2302.00,2496.95 L2277.00,2500.75 L2252.00,2502.00 L2274.00,2502.97 L2300.00,2506.65 L2324.00,2512.59 L2347.00,2520.75 L2368.00,2530.54 L2389.00,2542.88 L2407.00,2555.85 L2422.00,2568.70 L2440.69,2588.00 L2455.65,2607.00 L2467.93,2626.00 L2478.88,2647.00 L2487.82,2669.00 L2494.94,2693.00 L2499.68,2718.00 L2501.84,2743.00 L2501.49,2768.00 L2498.61,2793.00 L2493.13,2818.00 L2485.24,2842.00 L2475.51,2864.00 L2464.31,2884.00 L2452.00,2902.00 L2439.00,2917.92 L2439.00,2917.92 L2432.47,2925.00 L2406.00,2948.94 L2388.00,2961.77 L2369.00,2972.93 L2348.00,2982.83 L2326.00,2990.80 L2302.00,2996.95 L2277.00,3000.75 L2252.00,3002.00 L2274.00,3002.97 L2300.00,3006.65 L2324.00,3012.59 L2347.00,3020.75 L2368.00,3030.54 L2389.00,3042.88 L2407.00,3055.85 L2425.00,3071.53 L2448.94,3098.00 L2461.77,3116.00 L2472.93,3135.00 L2482.83,3156.00 L2490.80,3178.00 L2496.95,3202.00 L2500.75,3227.00 L2502.00,3252.00 L2502.97,3230.00 L2506.65,3204.00 L2512.59,3180.00 L2520.75,3157.00 L2530.54,3136.00 L2542.88,3115.00 L2555.85,3097.00 L2571.53,3079.00 L2598.00,3055.06 L2616.00,3042.23 L2635.00,3031.07 L2656.00,3021.17 L2678.00,3013.20 L2702.00,3007.05 L2727.00,3003.25 L2752.00,3002.00 L2730.00,3001.03 L2704.00,2997.35 L2680.00,2991.41 L2657.00,2983.25 L2636.00,2973.46 L2615.00,2961.12 L2597.00,2948.15 L2580.00,2933.43 L2558.26,2910.00 L2544.20,2891.00 L2532.14,2871.00 L2522.44,2851.00 L2514.15,2829.00 L2507.68,2805.00 L2503.57,2780.00 L2502.02,2755.00 L2502.97,2730.00 L2506.65,2704.00 L2512.59,2680.00 L2520.75,2657.00 L2530.54,2636.00 L2542.88,2615.00 L2555.85,2597.00 L2571.53,2579.00 L2598.00,2555.06 L2616.00,2542.23 L2635.00,2531.07 L2656.00,2521.17 L2678.00,2513.20 L2702.00,2507.05 L2727.00,2503.25 L2752.00,2502.00 L2730.00,2501.03 L2704.00,2497.35 L2680.00,2491.41 L2657.00,2483.25 L2636.00,2473.46 L2615.00,2461.12 L2597.00,2448.15 L2580.00,2433.43 L2558.26,2410.00 L2544.20,2391.00 L2532.14,2371.00 L2522.44,2351.00 L2514.15,2329.00 L2507.68,2305.00 L2503.57,2280.00 L2502.02,2255.00 L2502.97,2230.00 L2506.65,2204.00 L2512.59,2180.00 L2520.75,2157.00 L2530.54,2136.00 L2542.88,2115.00 L2555.85,2097.00 L2571.53,2079.00 L2598.00,2055.06 L2616.00,2042.23 L2635.00,2031.07 L2656.00,2021.17 L2678.00,2013.20 L2702.00,2007.05 L2727.00,2003.25 L2752.00,2002.00 L2730.00,2001.03 L2704.00,1997.35 L2680.00,1991.41 L2657.00,1983.25 L2636.00,1973.46 L2615.00,1961.12 L2597.00,1948.15 L2579.00,1932.47 L2555.06,1906.00 L2542.23,1888.00 L2531.07,1869.00 L2521.17,1848.00 L2513.20,1826.00 L2507.05,1802.00 L2503.25,1777.00 L2502.00,1752.00 L2501.03,1774.00 L2497.35,1800.00 L2491.41,1824.00 L2483.25,1847.00 L2473.46,1868.00 L2461.12,1889.00 L2448.15,1907.00 L2432.47,1925.00 L2406.00,1948.94 L2388.00,1961.77 L2369.00,1972.93 L2348.00,1982.83 L2326.00,1990.80 L2302.00,1996.95 L2277.00,2000.75 L2252.00,2002.00 M2502.02,249.00 L2502.97,274.00 L2506.65,300.00 L2512.59,324.00 L2520.75,347.00 L2530.54,368.00 L2542.88,389.00 L2556.00,407.19 L2556.00,407.19 L2570.57,424.00 L2594.00,445.74 L2613.00,459.80 L2633.00,471.86 L2653.00,481.56 L2675.00,489.85 L2699.00,496.32 L2724.00,500.43 L2749.00,501.98 L2774.00,501.03 L2800.00,497.35 L2824.00,491.41 L2847.00,483.25 L2868.00,473.46 L2889.00,461.12 L2907.00,448.15 L2924.00,433.43 L2945.74,410.00 L2959.80,391.00 L2971.86,371.00 L2981.56,351.00 L2989.85,329.00 L2996.32,305.00 L3000.43,280.00 L3001.98,255.00 L3001.03,230.00 L2997.35,204.00 L2991.41,180.00 L2983.25,157.00 L2973.46,136.00 L2961.12,115.00 L2948.15,97.00 L2933.43,80.00 L2910.00,58.26 L2891.00,44.20 L2871.00,32.14 L2851.00,22.44 L2829.00,14.15 L2805.00,7.68 L2780.00,3.57 L2755.00,2.02 L2730.00,2.97 L2704.00,6.65 L2680.00,12.59 L2657.00,20.75 L2636.00,30.54 L2615.00,42.88 L2597.00,55.85 L2580.00,70.57 L2558.26,94.00 L2544.20,113.00 L2532.14,133.00 L2522.44,153.00 L2514.15,175.00 L2507.68,199.00 L2503.57,224.00 L2502.02,249.00 M2502.02,3749.00 L2502.97,3774.00 L2506.65,3800.00 L2512.59,3824.00 L2520.75,3847.00 L2530.54,3868.00 L2542.88,3889.00 L2555.85,3907.00 L2571.53,3925.00 L2598.00,3948.94 L2616.00,3961.77 L2635.00,3972.93 L2656.00,3982.83 L2678.00,3990.80 L2702.00,3996.95 L2727.00,4000.75 L2752.00,4002.00 L2736.00,4002.51 L2711.00,4005.39 L2686.00,4010.87 L2662.00,4018.76 L2640.00,4028.49 L2620.00,4039.69 L2601.00,4052.75 L2583.00,4067.77 L2565.07,4086.00 L2565.07,4086.00 L2558.26,4094.00 L2544.20,4113.00 L2532.14,4133.00 L2522.44,4153.00 L2514.15,4175.00 L2507.68,4199.00 L2503.57,4224.00 L2502.02,4249.00 L2502.97,4274.00 L2506.65,4300.00 L2512.59,4324.00 L2520.75,4347.00 L2530.54,4368.00 L2542.88,4389.00 L2555.85,4407.00 L2571.53,4425.00 L2598.00,4448.94 L2616.00,4461.77 L2635.00,4472.93 L2656.00,4482.83 L2678.00,4490.80 L2702.00,4496.95 L2727.00,4500.75 L2752.00,4502.00 L2730.00,4502.97 L2704.00,4506.65 L2680.00,4512.59 L2657.00,4520.75 L2636.00,4530.54 L2615.00,4542.88 L2597.00,4555.85 L2580.00,4570.57 L2558.26,4594.00 L2544.20,4613.00 L2532.14,4633.00 L2522.44,4653.00 L2514.15,4675.00 L2507.68,4699.00 L2503.57,4724.00 L2502.02,4749.00 L2502.97,4774.00 L2506.65,4800.00 L2512.59,4824.00 L2520.75,4847.00 L2530.54,4868.00 L2542.88,4889.00 L2555.85,4907.00 L2570.57,4924.00 L2594.00,4945.74 L2613.00,4959.80 L2633.00,4971.86 L2653.00,4981.56 L2675.00,4989.85 L2699.00,4996.32 L2724.00,5000.43 L2749.00,5001.98 L2774.00,5001.03 L2800.00,4997.35 L2824.00,4991.41 L2847.00,4983.25 L2868.00,4973.46 L2889.00,4961.12 L2907.00,4948.15 L2924.00,4933.43 L2945.74,4910.00 L2959.80,4891.00 L2971.86,4871.00 L2981.56,4851.00 L2989.85,4829.00 L2996.32,4805.00 L3000.43,4780.00 L3001.98,4755.00 L3001.03,4730.00 L2997.35,4704.00 L2991.41,4680.00 L2983.25,4657.00 L2973.46,4636.00 L2961.12,4615.00 L2948.15,4597.00 L2932.47,4579.00 L2906.00,4555.06 L2888.00,4542.23 L2869.00,4531.07 L2848.00,4521.17 L2826.00,4513.20 L2802.00,4507.05 L2777.00,4503.25 L2752.00,4502.00 L2774.00,4501.03 L2800.00,4497.35 L2824.00,4491.41 L2847.00,4483.25 L2868.00,4473.46 L2889.00,4461.12 L2907.00,4448.15 L2924.00,4433.43 L2945.74,4410.00 L2959.80,4391.00 L2971.86,4371.00 L2981.56,4351.00 L2989.85,4329.00 L2996.32,4305.00 L3000.43,4280.00 L3001.98,4255.00 L3001.03,4230.00 L2997.35,4204.00 L2991.41,4180.00 L2983.25,4157.00 L2973.46,4136.00 L2961.12,4115.00 L2948.15,4097.00 L2932.47,4079.00 L2906.00,4055.06 L2888.00,4042.23 L2869.00,4031.07 L2848.00,4021.17 L2826.00,4013.20 L2802.00,4007.05 L2777.00,4003.25 L2752.00,4002.00 L2774.00,4001.03 L2800.00,3997.35 L2824.00,3991.41 L2847.00,3983.25 L2868.00,3973.46 L2889.00,3961.12 L2907.00,3948.15 L2924.00,3933.43 L2945.74,3910.00 L2959.80,3891.00 L2971.86,3871.00 L2981.56,3851.00 L2989.85,3829.00 L2996.32,3805.00 L3000.43,3780.00 L3001.98,3755.00 L3001.03,3730.00 L2997.35,3704.00 L2991.41,3680.00 L2983.25,3657.00 L2973.46,3636.00 L2961.12,3615.00 L2948.15,3597.00 L2933.43,3580.00 L2910.00,3558.26 L2891.00,3544.20 L2871.00,3532.14 L2851.00,3522.44 L2829.00,3514.15 L2805.00,3507.68 L2780.00,3503.57 L2755.00,3502.02 L2730.00,3502.97 L2704.00,3506.65 L2680.00,3512.59 L2657.00,3520.75 L2636.00,3530.54 L2615.00,3542.88 L2597.00,3555.85 L2580.00,3570.57 L2558.26,3594.00 L2544.20,3613.00 L2532.14,3633.00 L2522.44,3653.00 L2514.15,3675.00 L2507.68,3699.00 L2503.57,3724.00 L2502.02,3749.00 M2502.16,1243.00 L2502.51,1268.00 L2505.39,1293.00 L2510.87,1318.00 L2518.76,1342.00 L2528.49,1364.00 L2539.69,1384.00 L2552.75,1403.00 L2565.96,1419.00 L2565.96,1419.00 L2570.57,1424.00 L2594.00,1445.74 L2613.00,1459.80 L2631.00,1470.77 L2651.00,1480.69 L2674.00,1489.52 L2697.00,1495.88 L2723.00,1500.31 L2748.00,1501.97 L2774.00,1501.03 L2800.00,1497.35 L2824.00,1491.41 L2847.00,1483.25 L2868.00,1473.46 L2889.00,1461.12 L2907.00,1448.15 L2924.00,1433.43 L2945.74,1410.00 L2959.80,1391.00 L2971.86,1371.00 L2981.56,1351.00 L2989.85,1329.00 L2996.32,1305.00 L3000.43,1280.00 L3001.98,1255.00 L3001.03,1230.00 L2997.35,1204.00 L2991.41,1180.00 L2983.25,1157.00 L2973.46,1136.00 L2961.12,1115.00 L2948.15,1097.00 L2933.43,1080.00 L2910.00,1058.26 L2891.00,1044.20 L2871.00,1032.14 L2851.00,1022.44 L2829.00,1014.15 L2805.00,1007.68 L2780.00,1003.57 L2755.00,1002.02 L2730.00,1002.97 L2704.00,1006.65 L2680.00,1012.59 L2657.00,1020.75 L2636.00,1030.54 L2615.00,1042.88 L2597.00,1055.85 L2582.00,1068.70 L2563.31,1088.00 L2548.35,1107.00 L2536.07,1126.00 L2525.12,1147.00 L2516.18,1169.00 L2509.06,1193.00 L2504.32,1218.00 L2502.16,1243.00 M3002.02,1749.00 L3002.97,1774.00 L3006.65,1800.00 L3012.59,1824.00 L3020.75,1847.00 L3030.54,1868.00 L3042.88,1889.00 L3055.85,1907.00 L3071.53,1925.00 L3098.00,1948.94 L3116.00,1961.77 L3135.00,1972.93 L3156.00,1982.83 L3178.00,1990.80 L3202.00,1996.95 L3227.00,2000.75 L3252.00,2002.00 L3230.00,2002.97 L3204.00,2006.65 L3180.00,2012.59 L3157.00,2020.75 L3136.00,2030.54 L3115.00,2042.88 L3097.00,2055.85 L3082.00,2068.70 L3064.18,2087.00 L3051.25,2103.00 L3039.07,2121.00 L3027.99,2141.00 L3027.99,2141.00 L3022.44,2153.00 L3014.15,2175.00 L3007.68,2199.00 L3003.57,2224.00 L3002.02,2249.00 L3002.97,2274.00 L3006.65,2300.00 L3012.59,2324.00 L3020.75,2347.00 L3030.54,2368.00 L3042.88,2389.00 L3055.85,2407.00 L3071.53,2425.00 L3098.00,2448.94 L3116.00,2461.77 L3135.00,2472.93 L3156.00,2482.83 L3178.00,2490.80 L3202.00,2496.95 L3227.00,2500.75 L3252.00,2502.00 L3230.00,2502.97 L3204.00,2506.65 L3180.00,2512.59 L3157.00,2520.75 L3136.00,2530.54 L3115.00,2542.88 L3097.00,2555.85 L3080.00,2570.57 L3058.26,2594.00 L3044.20,2613.00 L3032.14,2633.00 L3022.44,2653.00 L3014.15,2675.00 L3007.68,2699.00 L3003.57,2724.00 L3002.02,2749.00 L3002.97,2774.00 L3006.65,2800.00 L3012.59,2824.00 L3020.75,2847.00 L3030.54,2868.00 L3042.88,2889.00 L3055.85,2907.00 L3070.57,2924.00 L3094.00,2945.74 L3113.00,2959.80 L3133.00,2971.86 L3153.00,2981.56 L3175.00,2989.85 L3199.00,2996.32 L3224.00,3000.43 L3249.00,3001.98 L3274.00,3001.03 L3300.00,2997.35 L3324.00,2991.41 L3347.00,2983.25 L3368.00,2973.46 L3389.00,2961.12 L3407.00,2948.15 L3424.00,2933.43 L3445.74,2910.00 L3459.80,2891.00 L3471.86,2871.00 L3481.56,2851.00 L3489.85,2829.00 L3496.32,2805.00 L3500.43,2780.00 L3501.98,2755.00 L3501.03,2730.00 L3497.35,2704.00 L3491.41,2680.00 L3483.25,2657.00 L3473.46,2636.00 L3461.12,2615.00 L3448.15,2597.00 L3432.47,2579.00 L3406.00,2555.06 L3388.00,2542.23 L3369.00,2531.07 L3348.00,2521.17 L3326.00,2513.20 L3302.00,2507.05 L3277.00,2503.25 L3252.00,2502.00 L3274.00,2501.03 L3300.00,2497.35 L3324.00,2491.41 L3347.00,2483.25 L3368.00,2473.46 L3389.00,2461.12 L3407.00,2448.15 L3424.00,2433.43 L3445.74,2410.00 L3459.80,2391.00 L3471.86,2371.00 L3481.56,2351.00 L3489.85,2329.00 L3496.32,2305.00 L3500.43,2280.00 L3501.98,2255.00 L3501.03,2230.00 L3497.35,2204.00 L3491.41,2180.00 L3483.25,2157.00 L3473.46,2136.00 L3461.12,2115.00 L3448.15,2097.00 L3432.47,2079.00 L3406.00,2055.06 L3388.00,2042.23 L3369.00,2031.07 L3348.00,2021.17 L3326.00,2013.20 L3302.00,2007.05 L3277.00,2003.25 L3252.00,2002.00 L3274.00,2001.03 L3300.00,1997.35 L3324.00,1991.41 L3347.00,1983.25 L3368.00,1973.46 L3389.00,1961.12 L3407.00,1948.15 L3425.00,1932.47 L3448.94,1906.00 L3461.77,1888.00 L3472.93,1869.00 L3482.83,1848.00 L3490.80,1826.00 L3496.95,1802.00 L3500.75,1777.00 L3502.00,1752.00 L3502.97,1774.00 L3506.65,1800.00 L3512.59,1824.00 L3520.75,1847.00 L3530.54,1868.00 L3542.88,1889.00 L3555.85,1907.00 L3570.57,1924.00 L3594.00,1945.74 L3613.00,1959.80 L3631.00,1970.77 L3651.00,1980.69 L3674.00,1989.52 L3697.00,1995.88 L3723.00,2000.31 L3748.00,2001.97 L3774.00,2001.03 L3800.00,1997.35 L3824.00,1991.41 L3847.00,1983.25 L3868.00,1973.46 L3889.00,1961.12 L3907.00,1948.15 L3924.00,1933.43 L3945.74,1910.00 L3959.80,1891.00 L3971.86,1871.00 L3981.56,1851.00 L3989.85,1829.00 L3996.32,1805.00 L4000.43,1780.00 L4001.98,1755.00 L4001.03,1730.00 L3997.35,1704.00 L3991.41,1680.00 L3983.25,1657.00 L3973.46,1636.00 L3961.12,1615.00 L3948.15,1597.00 L3933.43,1580.00 L3910.00,1558.26 L3891.00,1544.20 L3873.00,1533.23 L3853.00,1523.31 L3830.00,1514.48 L3807.00,1508.12 L3781.00,1503.69 L3756.00,1502.03 L3730.00,1502.97 L3704.00,1506.65 L3680.00,1512.59 L3657.00,1520.75 L3636.00,1530.54 L3615.00,1542.88 L3597.00,1555.85 L3579.00,1571.53 L3555.06,1598.00 L3542.23,1616.00 L3531.07,1635.00 L3521.17,1656.00 L3513.20,1678.00 L3507.05,1702.00 L3503.25,1727.00 L3502.00,1752.00 L3501.03,1730.00 L3497.35,1704.00 L3491.41,1680.00 L3483.25,1657.00 L3473.46,1636.00 L3461.12,1615.00 L3448.15,1597.00 L3433.43,1580.00 L3410.00,1558.26 L3391.00,1544.20 L3373.00,1533.23 L3353.00,1523.31 L3330.00,1514.48 L3307.00,1508.12 L3281.00,1503.69 L3256.00,1502.03 L3230.00,1502.97 L3204.00,1506.65 L3180.00,1512.59 L3157.00,1520.75 L3136.00,1530.54 L3115.00,1542.88 L3097.00,1555.85 L3080.00,1570.57 L3058.26,1594.00 L3044.20,1613.00 L3032.14,1633.00 L3022.44,1653.00 L3014.15,1675.00 L3007.68,1699.00 L3003.57,1724.00 L3002.02,1749.00 M3002.16,743.00 L3002.51,768.00 L3005.39,793.00 L3010.87,818.00 L3018.38,841.00 L3028.00,863.01 L3028.00,863.01 L3030.54,868.00 L3042.88,889.00 L3055.85,907.00 L3070.57,924.00 L3094.00,945.74 L3113.00,959.80 L3133.00,971.86 L3154.00,981.99 L3177.00,990.48 L3201.00,996.74 L3226.00,1000.64 L3251.00,1002.00 L3276.00,1000.85 L3301.00,997.15 L3325.00,991.10 L3349.00,982.41 L3370.00,972.40 L3389.00,961.12 L3407.00,948.15 L3424.00,933.43 L3445.74,910.00 L3459.80,891.00 L3471.86,871.00 L3481.56,851.00 L3489.85,829.00 L3496.32,805.00 L3500.43,780.00 L3501.98,755.00 L3501.03,730.00 L3497.35,704.00 L3491.41,680.00 L3483.25,657.00 L3473.46,636.00 L3461.12,615.00 L3448.15,597.00 L3433.43,580.00 L3410.00,558.26 L3391.00,544.20 L3371.00,532.14 L3350.00,522.01 L3327.00,513.52 L3303.00,507.26 L3278.00,503.36 L3253.00,502.00 L3228.00,503.15 L3203.00,506.85 L3179.00,512.90 L3155.00,521.59 L3134.00,531.60 L3115.00,542.88 L3097.00,555.85 L3082.00,568.70 L3063.31,588.00 L3048.35,607.00 L3036.07,626.00 L3025.12,647.00 L3016.18,669.00 L3009.06,693.00 L3004.32,718.00 L3002.16,743.00 M3252.00,3502.00 L3274.00,3502.97 L3300.00,3506.65 L3324.00,3512.59 L3347.00,3520.75 L3368.00,3530.54 L3389.00,3542.88 L3407.00,3555.85 L3424.00,3570.57 L3445.74,3594.00 L3459.80,3613.00 L3471.86,3633.00 L3481.56,3653.00 L3489.85,3675.00 L3496.32,3699.00 L3500.43,3724.00 L3501.98,3749.00 L3501.03,3774.00 L3497.35,3800.00 L3491.41,3824.00 L3483.25,3847.00 L3473.46,3868.00 L3461.12,3889.00 L3448.15,3907.00 L3432.47,3925.00 L3406.00,3948.94 L3388.00,3961.77 L3369.00,3972.93 L3348.00,3982.83 L3326.00,3990.80 L3302.00,3996.95 L3277.00,4000.75 L3252.00,4002.00 L3274.00,4002.97 L3300.00,4006.65 L3324.00,4012.59 L3347.00,4020.75 L3368.00,4030.54 L3389.00,4042.88 L3407.00,4055.85 L3424.00,4070.57 L3445.74,4094.00 L3459.80,4113.00 L3471.86,4133.00 L3481.56,4153.00 L3489.85,4175.00 L3496.32,4199.00 L3500.43,4224.00 L3501.98,4249.00 L3501.03,4274.00 L3497.35,4300.00 L3491.41,4324.00 L3483.25,4347.00 L3473.46,4368.00 L3461.12,4389.00 L3448.15,4407.00 L3432.47,4425.00 L3406.00,4448.94 L3388.00,4461.77 L3369.00,4472.93 L3348.00,4482.83 L3326.00,4490.80 L3302.00,4496.95 L3277.00,4500.75 L3252.00,4502.00 L3274.00,4502.97 L3300.00,4506.65 L3324.00,4512.59 L3347.00,4520.75 L3368.00,4530.54 L3389.00,4542.88 L3407.00,4555.85 L3425.00,4571.53 L3448.94,4598.00 L3461.77,4616.00 L3472.93,4635.00 L3482.83,4656.00 L3490.80,4678.00 L3496.95,4702.00 L3500.75,4727.00 L3502.00,4752.00 L3502.97,4730.00 L3506.65,4704.00 L3512.59,4680.00 L3520.75,4657.00 L3530.54,4636.00 L3542.88,4615.00 L3555.85,4597.00 L3571.53,4579.00 L3598.00,4555.06 L3616.00,4542.23 L3635.00,4531.07 L3656.00,4521.17 L3678.00,4513.20 L3702.00,4507.05 L3727.00,4503.25 L3752.00,4502.00 L3740.00,4501.71 L3715.00,4499.25 L3690.00,4494.19 L3665.00,4486.37 L3643.03,4477.00 L3643.03,4477.00 L3636.00,4473.46 L3615.00,4461.12 L3597.00,4448.15 L3580.00,4433.43 L3558.26,4410.00 L3544.20,4391.00 L3532.14,4371.00 L3522.44,4351.00 L3514.15,4329.00 L3507.68,4305.00 L3503.57,4280.00 L3502.02,4255.00 L3502.97,4230.00 L3506.65,4204.00 L3512.59,4180.00 L3520.75,4157.00 L3530.54,4136.00 L3542.88,4115.00 L3555.85,4097.00 L3571.53,4079.00 L3598.00,4055.06 L3616.00,4042.23 L3635.00,4031.07 L3656.00,4021.17 L3678.00,4013.20 L3702.00,4007.05 L3727.00,4003.25 L3752.00,4002.00 L3730.00,4001.03 L3704.00,3997.35 L3680.00,3991.41 L3657.00,3983.25 L3636.00,3973.46 L3615.00,3961.12 L3597.00,3948.15 L3580.00,3933.43 L3558.26,3910.00 L3544.20,3891.00 L3532.14,3871.00 L3522.44,3851.00 L3514.15,3829.00 L3507.68,3805.00 L3503.57,3780.00 L3502.02,3755.00 L3502.97,3730.00 L3506.65,3704.00 L3512.59,3680.00 L3520.75,3657.00 L3530.54,3636.00 L3542.88,3615.00 L3555.85,3597.00 L3571.53,3579.00 L3598.00,3555.06 L3616.00,3542.23 L3635.00,3531.07 L3656.00,3521.17 L3678.00,3513.20 L3702.00,3507.05 L3727.00,3503.25 L3752.00,3502.00 L3730.00,3501.03 L3704.00,3497.35 L3680.00,3491.41 L3657.00,3483.25 L3636.00,3473.46 L3615.00,3461.12 L3597.00,3448.15 L3579.00,3432.47 L3555.06,3406.00 L3542.23,3388.00 L3531.07,3369.00 L3521.17,3348.00 L3513.20,3326.00 L3507.05,3302.00 L3503.25,3277.00 L3502.00,3252.00 L3501.03,3274.00 L3497.35,3300.00 L3491.41,3324.00 L3483.25,3347.00 L3473.46,3368.00 L3461.12,3389.00 L3448.15,3407.00 L3432.47,3425.00 L3406.00,3448.94 L3388.00,3461.77 L3369.00,3472.93 L3348.00,3482.83 L3326.00,3490.80 L3302.00,3496.95 L3277.00,3500.75 L3252.00,3502.00 M3502.02,249.00 L3502.97,274.00 L3506.65,300.00 L3512.59,324.00 L3520.75,347.00 L3530.54,368.00 L3542.88,389.00 L3555.85,407.00 L3570.57,424.00 L3594.00,445.74 L3613.00,459.80 L3633.00,471.86 L3653.00,481.56 L3675.00,489.85 L3699.00,496.32 L3724.00,500.43 L3749.00,501.98 L3774.00,501.03 L3800.00,497.35 L3824.00,491.41 L3847.00,483.25 L3868.00,473.46 L3889.00,461.12 L3907.00,448.15 L3924.00,433.43 L3945.74,410.00 L3959.80,391.00 L3971.86,371.00 L3981.56,351.00 L3989.85,329.00 L3996.32,305.00 L4000.43,280.00 L4001.98,255.00 L4001.03,230.00 L3997.35,204.00 L3991.41,180.00 L3983.25,157.00 L3973.46,136.00 L3961.12,115.00 L3948.15,97.00 L3935.30,82.00 L3917.00,64.18 L3898.00,49.06 L3880.00,37.25 L3859.00,26.06 L3837.00,16.89 L3837.00,16.89 L3829.00,14.15 L3805.00,7.68 L3780.00,3.57 L3755.00,2.02 L3730.00,2.97 L3704.00,6.65 L3680.00,12.59 L3657.00,20.75 L3636.00,30.54 L3615.00,42.88 L3597.00,55.85 L3580.00,70.57 L3558.26,94.00 L3544.20,113.00 L3532.14,133.00 L3522.44,153.00 L3514.15,175.00 L3507.68,199.00 L3503.57,224.00 L3502.02,249.00 M3752.00,1002.00 L3774.00,1002.97 L3800.00,1006.65 L3824.00,1012.59 L3847.00,1020.75 L3868.00,1030.54 L3887.65,1042.00 L3887.65,1042.00 L3889.00,1042.88 L3907.00,1055.85 L3925.00,1071.53 L3948.94,1098.00 L3961.77,1116.00 L3972.93,1135.00 L3982.83,1156.00 L3990.80,1178.00 L3996.95,1202.00 L4000.75,1227.00 L4002.00,1252.00 L4002.97,1230.00 L4006.65,1204.00 L4012.59,1180.00 L4020.75,1157.00 L4030.54,1136.00 L4042.88,1115.00 L4055.85,1097.00 L4071.53,1079.00 L4098.00,1055.06 L4116.00,1042.23 L4135.00,1031.07 L4156.00,1021.17 L4178.00,1013.20 L4202.00,1007.05 L4227.00,1003.25 L4252.00,1002.00 L4228.00,1000.85 L4203.00,997.15 L4179.00,991.10 L4155.00,982.41 L4134.00,972.40 L4115.00,961.12 L4097.00,948.15 L4079.00,932.47 L4055.06,906.00 L4042.23,888.00 L4031.07,869.00 L4021.17,848.00 L4013.20,826.00 L4007.05,802.00 L4003.25,777.00 L4002.00,752.00 L4001.03,774.00 L3997.35,800.00 L3991.41,824.00 L3983.25,847.00 L3973.46,868.00 L3961.12,889.00 L3948.15,907.00 L3932.47,925.00 L3906.00,948.94 L3888.00,961.77 L3869.00,972.93 L3848.00,982.83 L3826.00,990.80 L3802.00,996.95 L3777.00,1000.75 L3752.00,1002.00 M3752.00,2502.00 L3753.00,2502.00 L3779.00,2503.46 L3804.00,2507.47 L3828.00,2513.83 L3851.00,2522.44 L3872.00,2532.68 L3892.00,2544.88 L3892.00,2544.88 L3907.00,2555.85 L3924.00,2570.57 L3945.74,2594.00 L3959.80,2613.00 L3971.86,2633.00 L3981.56,2653.00 L3989.85,2675.00 L3996.32,2699.00 L4000.43,2724.00 L4001.98,2749.00 L4001.03,2774.00 L3997.35,2800.00 L3991.41,2824.00 L3983.25,2847.00 L3973.46,2868.00 L3961.12,2889.00 L3948.15,2907.00 L3932.47,2925.00 L3906.00,2948.94 L3888.00,2961.77 L3869.00,2972.93 L3848.00,2982.83 L3826.00,2990.80 L3802.00,2996.95 L3777.00,3000.75 L3752.00,3002.00 L3774.00,3002.97 L3800.00,3006.65 L3824.00,3012.59 L3847.00,3020.75 L3868.00,3030.54 L3889.00,3042.88 L3907.00,3055.85 L3925.00,3071.53 L3948.94,3098.00 L3961.77,3116.00 L3972.93,3135.00 L3982.83,3156.00 L3990.80,3178.00 L3996.95,3202.00 L4000.75,3227.00 L4002.00,3252.00 L4002.97,3230.00 L4006.65,3204.00 L4012.59,3180.00 L4020.75,3157.00 L4030.54,3136.00 L4042.88,3115.00 L4055.85,3097.00 L4071.53,3079.00 L4098.00,3055.06 L4116.00,3042.23 L4135.00,3031.07 L4156.00,3021.17 L4178.00,3013.20 L4202.00,3007.05 L4227.00,3003.25 L4252.00,3002.00 L4230.00,3001.03 L4204.00,2997.35 L4180.00,2991.41 L4157.00,2983.25 L4136.00,2973.46 L4115.00,2961.12 L4097.00,2948.15 L4080.00,2933.43 L4058.26,2910.00 L4044.20,2891.00 L4032.14,2871.00 L4022.44,2851.00 L4014.15,2829.00 L4007.68,2805.00 L4003.57,2780.00 L4002.02,2755.00 L4002.97,2730.00 L4006.65,2704.00 L4012.59,2680.00 L4020.75,2657.00 L4030.54,2636.00 L4042.88,2615.00 L4055.85,2597.00 L4071.53,2579.00 L4098.00,2555.06 L4116.00,2542.23 L4135.00,2531.07 L4156.00,2521.17 L4178.00,2513.20 L4202.00,2507.05 L4227.00,2503.25 L4252.00,2502.00 L4230.00,2501.03 L4204.00,2497.35 L4180.00,2491.41 L4157.00,2483.25 L4136.00,2473.46 L4115.00,2461.12 L4097.00,2448.15 L4079.00,2432.47 L4055.06,2406.00 L4042.23,2388.00 L4031.07,2369.00 L4021.17,2348.00 L4013.20,2326.00 L4007.05,2302.00 L4003.25,2277.00 L4002.00,2252.00 L4001.03,2274.00 L3997.35,2300.00 L3991.41,2324.00 L3983.25,2347.00 L3973.46,2368.00 L3961.12,2389.00 L3948.15,2407.00 L3932.47,2425.00 L3906.00,2448.94 L3888.00,2461.77 L3869.00,2472.93 L3848.00,2482.83 L3826.00,2490.80 L3802.00,2496.95 L3777.00,2500.75 L3752.00,2502.00 M4002.02,4249.00 L4002.97,4274.00 L4006.65,4300.00 L4012.59,4324.00 L4020.75,4347.00 L4030.54,4368.00 L4042.88,4389.00 L4055.85,4407.00 L4071.53,4425.00 L4098.00,4448.94 L4116.00,4461.77 L4135.00,4472.93 L4156.00,4482.83 L4178.00,4490.80 L4202.00,4496.95 L4227.00,4500.75 L4252.00,4502.00 L4230.00,4502.97 L4204.00,4506.65 L4180.00,4512.59 L4157.00,4520.75 L4136.00,4530.54 L4115.00,4542.88 L4097.00,4555.85 L4080.00,4570.57 L4058.26,4594.00 L4044.20,4613.00 L4032.14,4633.00 L4022.44,4653.00 L4014.15,4675.00 L4007.68,4699.00 L4003.57,4724.00 L4002.02,4749.00 L4002.97,4774.00 L4006.65,4800.00 L4012.59,4824.00 L4020.75,4847.00 L4030.54,4868.00 L4042.88,4889.00 L4055.85,4907.00 L4070.57,4924.00 L4094.00,4945.74 L4113.00,4959.80 L4133.00,4971.86 L4154.00,4981.99 L4154.00,4981.99 L4175.00,4989.85 L4200.00,4996.53 L4224.00,5000.43 L4249.00,5001.98 L4274.00,5001.03 L4300.00,4997.35 L4324.00,4991.41 L4347.00,4983.25 L4368.00,4973.46 L4389.00,4961.12 L4407.00,4948.15 L4425.00,4932.47 L4448.94,4906.00 L4461.77,4888.00 L4472.93,4869.00 L4482.83,4848.00 L4490.80,4826.00 L4496.95,4802.00 L4500.75,4777.00 L4502.00,4752.00 L4502.97,4774.00 L4506.65,4800.00 L4512.59,4824.00 L4520.75,4847.00 L4530.54,4868.00 L4542.88,4889.00 L4555.85,4907.00 L4570.57,4924.00 L4594.00,4945.74 L4613.00,4959.80 L4633.00,4971.86 L4653.00,4981.56 L4675.00,4989.85 L4700.00,4996.53 L4724.00,5000.43 L4749.00,5001.98 L4774.00,5001.03 L4800.00,4997.35 L4824.00,4991.41 L4847.00,4983.25 L4868.00,4973.46 L4889.00,4961.12 L4907.00,4948.15 L4924.00,4933.43 L4945.74,4910.00 L4959.80,4891.00 L4971.86,4871.00 L4981.56,4851.00 L4989.85,4829.00 L4996.53,4804.00 L5000.43,4780.00 L5001.98,4755.00 L5001.03,4730.00 L4997.35,4704.00 L4991.41,4680.00 L4983.25,4657.00 L4973.46,4636.00 L4961.12,4615.00 L4948.15,4597.00 L4933.43,4580.00 L4910.00,4558.26 L4891.00,4544.20 L4871.00,4532.14 L4851.00,4522.44 L4829.00,4514.15 L4804.00,4507.47 L4780.00,4503.57 L4755.00,4502.02 L4730.00,4502.97 L4704.00,4506.65 L4680.00,4512.59 L4657.00,4520.75 L4636.00,4530.54 L4615.00,4542.88 L4597.00,4555.85 L4579.00,4571.53 L4555.06,4598.00 L4542.23,4616.00 L4531.07,4635.00 L4521.17,4656.00 L4513.20,4678.00 L4507.05,4702.00 L4503.25,4727.00 L4502.00,4752.00 L4501.03,4730.00 L4497.35,4704.00 L4491.41,4680.00 L4483.25,4657.00 L4473.46,4636.00 L4461.12,4615.00 L4448.15,4597.00 L4432.47,4579.00 L4406.00,4555.06 L4388.00,4542.23 L4369.00,4531.07 L4348.00,4521.17 L4326.00,4513.20 L4302.00,4507.05 L4277.00,4503.25 L4252.00,4502.00 L4274.00,4501.03 L4300.00,4497.35 L4324.00,4491.41 L4347.00,4483.25 L4368.00,4473.46 L4389.00,4461.12 L4407.00,4448.15 L4424.00,4433.43 L4445.74,4410.00 L4459.80,4391.00 L4471.86,4371.00 L4481.56,4351.00 L4489.85,4329.00 L4496.53,4304.00 L4500.43,4280.00 L4501.98,4255.00 L4501.03,4230.00 L4497.35,4204.00 L4491.41,4180.00 L4483.25,4157.00 L4473.46,4136.00 L4461.12,4115.00 L4448.15,4097.00 L4433.43,4080.00 L4410.00,4058.26 L4391.00,4044.20 L4371.00,4032.14 L4351.00,4022.44 L4329.00,4014.15 L4305.00,4007.68 L4280.00,4003.57 L4255.00,4002.02 L4230.00,4002.97 L4204.00,4006.65 L4180.00,4012.59 L4157.00,4020.75 L4136.00,4030.54 L4115.00,4042.88 L4097.00,4055.85 L4080.00,4070.57 L4058.26,4094.00 L4044.20,4113.00 L4032.14,4133.00 L4022.44,4153.00 L4014.15,4175.00 L4007.68,4199.00 L4003.57,4224.00 L4002.02,4249.00 M4252.00,1502.00 L4274.00,1502.97 L4300.00,1506.65 L4324.00,1512.59 L4347.00,1520.75 L4368.00,1530.54 L4389.00,1542.88 L4407.00,1555.85 L4424.00,1570.57 L4445.74,1594.00 L4459.80,1613.00 L4471.86,1633.00 L4481.56,1653.00 L4489.85,1675.00 L4496.32,1699.00 L4500.43,1724.00 L4501.98,1749.00 L4501.03,1774.00 L4497.35,1800.00 L4491.41,1824.00 L4483.25,1847.00 L4473.46,1868.00 L4461.12,1889.00 L4448.15,1907.00 L4432.47,1925.00 L4406.00,1948.94 L4388.00,1961.77 L4369.00,1972.93 L4348.00,1982.83 L4326.00,1990.80 L4302.00,1996.95 L4277.00,2000.75 L4252.00,2002.00 L4274.00,2002.97 L4300.00,2006.65 L4324.00,2012.59 L4347.00,2020.75 L4368.00,2030.54 L4389.00,2042.88 L4407.00,2055.85 L4425.00,2071.53 L4448.94,2098.00 L4461.77,2116.00 L4472.93,2135.00 L4482.83,2156.00 L4490.80,2178.00 L4496.95,2202.00 L4500.75,2227.00 L4502.00,2252.00 L4502.97,2230.00 L4506.65,2204.00 L4512.59,2180.00 L4520.75,2157.00 L4530.54,2136.00 L4542.88,2115.00 L4555.85,2097.00 L4571.53,2079.00 L4598.00,2055.06 L4616.00,2042.23 L4635.00,2031.07 L4656.00,2021.17 L4678.00,2013.20 L4702.00,2007.05 L4727.00,2003.25 L4752.00,2002.00 L4730.00,2001.03 L4704.00,1997.35 L4680.00,1991.41 L4657.00,1983.25 L4636.00,1973.46 L4615.00,1961.12 L4597.00,1948.15 L4580.00,1933.43 L4558.26,1910.00 L4544.20,1891.00 L4532.14,1871.00 L4522.44,1851.00 L4514.15,1829.00 L4507.68,1805.00 L4503.57,1780.00 L4502.02,1755.00 L4502.97,1730.00 L4506.65,1704.00 L4512.59,1680.00 L4520.75,1657.00 L4530.54,1636.00 L4542.88,1615.00 L4555.85,1597.00 L4571.53,1579.00 L4598.00,1555.06 L4616.00,1542.23 L4635.00,1531.07 L4656.00,1521.17 L4678.00,1513.20 L4702.00,1507.05 L4727.00,1503.25 L4752.00,1502.00 L4730.00,1501.03 L4704.00,1497.35 L4680.00,1491.41 L4657.00,1483.25 L4636.00,1473.46 L4615.00,1461.12 L4597.00,1448.15 L4580.00,1433.43 L4558.26,1410.00 L4544.20,1391.00 L4532.14,1371.00 L4522.44,1351.00 L4514.15,1329.00 L4507.68,1305.00 L4503.57,1280.00 L4502.01,1254.00 L4502.01,1254.00 L4502.00,1252.00 L4501.03,1274.00 L4497.35,1300.00 L4491.41,1324.00 L4483.25,1347.00 L4473.46,1368.00 L4461.12,1389.00 L4448.15,1407.00 L4432.47,1425.00 L4406.00,1448.94 L4388.00,1461.77 L4369.00,1472.93 L4348.00,1482.83 L4326.00,1490.80 L4302.00,1496.95 L4277.00,1500.75 L4252.00,1502.00 M4252.00,3502.00 L4277.00,3500.75 L4302.00,3496.95 L4326.00,3490.80 L4348.00,3482.83 L4369.00,3472.93 L4388.00,3461.77 L4406.00,3448.94 L4432.47,3425.00 L4448.15,3407.00 L4461.12,3389.00 L4473.46,3368.00 L4483.25,3347.00 L4491.41,3324.00 L4497.35,3300.00 L4501.03,3274.00 L4502.00,3252.00 L4503.25,3277.00 L4507.05,3302.00 L4513.20,3326.00 L4521.17,3348.00 L4531.07,3369.00 L4542.23,3388.00 L4555.06,3406.00 L4579.00,3432.47 L4597.00,3448.15 L4615.00,3461.12 L4636.00,3473.46 L4657.00,3483.25 L4680.00,3491.41 L4704.00,3497.35 L4730.00,3501.03 L4752.00,3502.00 L4727.00,3503.25 L4702.00,3507.05 L4678.00,3513.20 L4656.00,3521.17 L4635.00,3531.07 L4622.76,3538.00 L4622.76,3538.00 L4603.00,3551.25 L4587.00,3564.18 L4568.70,3582.00 L4555.85,3597.00 L4542.88,3615.00 L4530.54,3636.00 L4520.75,3657.00 L4512.59,3680.00 L4506.65,3704.00 L4502.97,3730.00 L4502.00,3752.00 L4500.75,3727.00 L4496.95,3702.00 L4490.80,3678.00 L4482.83,3656.00 L4472.93,3635.00 L4461.77,3616.00 L4448.94,3598.00 L4425.00,3571.53 L4407.00,3555.85 L4389.00,3542.88 L4368.00,3530.54 L4347.00,3520.75 L4324.00,3512.59 L4300.00,3506.65 L4274.00,3502.97 L4252.00,3502.00 M4502.02,249.00 L4502.97,274.00 L4506.65,300.00 L4512.59,324.00 L4520.75,347.00 L4530.54,368.00 L4542.88,389.00 L4555.85,407.00 L4571.53,425.00 L4598.00,448.94 L4616.00,461.77 L4635.00,472.93 L4656.00,482.83 L4678.00,490.80 L4702.00,496.95 L4727.00,500.75 L4752.00,502.00 L4728.00,503.15 L4703.00,506.85 L4679.00,512.90 L4655.00,521.59 L4634.00,531.60 L4615.00,542.88 L4597.00,555.85 L4580.00,570.57 L4558.26,594.00 L4544.20,613.00 L4532.14,633.00 L4522.44,653.00 L4514.15,675.00 L4507.68,699.00 L4503.57,724.00 L4502.02,749.00 L4502.97,774.00 L4506.65,800.00 L4512.59,824.00 L4520.75,847.00 L4530.54,868.00 L4542.88,889.00 L4555.85,907.00 L4570.57,924.00 L4594.00,945.74 L4613.00,959.80 L4633.00,971.86 L4654.00,981.99 L4677.00,990.48 L4701.00,996.74 L4726.00,1000.64 L4751.00,1002.00 L4776.00,1000.85 L4801.00,997.15 L4825.00,991.10 L4849.00,982.41 L4870.00,972.40 L4889.00,961.12 L4907.00,948.15 L4924.00,933.43 L4945.74,910.00 L4959.80,891.00 L4971.86,871.00 L4981.56,851.00 L4989.85,829.00 L4996.32,805.00 L5000.43,780.00 L5001.98,755.00 L5001.03,730.00 L4997.35,704.00 L4991.41,680.00 L4983.25,657.00 L4973.46,636.00 L4961.12,615.00 L4948.15,597.00 L4932.47,579.00 L4906.00,555.06 L4888.00,542.23 L4869.00,531.07 L4848.00,521.17 L4826.00,513.20 L4802.00,507.05 L4777.00,503.25 L4752.00,502.00 L4774.00,501.03 L4800.00,497.35 L4824.00,491.41 L4847.00,483.25 L4868.00,473.46 L4889.00,461.12 L4907.00,448.15 L4924.00,433.43 L4945.74,410.00 L4959.80,391.00 L4971.86,371.00 L4981.56,351.00 L4989.85,329.00 L4996.32,305.00 L5000.43,280.00 L5001.98,255.00 L5001.03,230.00 L4997.35,204.00 L4991.41,180.00 L4983.25,157.00 L4973.46,136.00 L4961.12,115.00 L4948.15,97.00 L4933.43,80.00 L4910.00,58.26 L4891.00,44.20 L4873.00,33.23 L4853.00,23.31 L4830.00,14.48 L4807.00,8.13 L4781.00,3.69 L4756.00,2.03 L4731.00,2.88 L4706.00,6.27 L4682.00,12.00 L4659.00,19.94 L4659.00,19.94 L4657.00,20.75 L4636.00,30.54 L4615.00,42.88 L4597.00,55.85 L4580.00,70.57 L4558.26,94.00 L4544.20,113.00 L4532.14,133.00 L4522.44,153.00 L4514.15,175.00 L4507.68,199.00 L4503.57,224.00 L4502.02,249.00 M4502.02,2749.00 L4502.97,2774.00 L4506.65,2800.00 L4512.59,2824.00 L4520.75,2847.00 L4530.54,2868.00 L4542.88,2889.00 L4555.85,2907.00 L4568.70,2922.00 L4587.00,2939.82 L4606.00,2954.94 L4624.00,2966.75 L4645.00,2977.94 L4666.00,2986.74 L4689.00,2993.93 L4713.00,2998.94 L4738.00,3001.61 L4763.00,3001.76 L4788.00,2999.39 L4813.00,2994.44 L4837.00,2987.11 L4860.00,2977.47 L4881.00,2966.15 L4881.00,2966.15 L4889.00,2961.12 L4907.00,2948.15 L4924.00,2933.43 L4945.74,2910.00 L4959.80,2891.00 L4971.86,2871.00 L4981.56,2851.00 L4989.85,2829.00 L4996.32,2805.00 L5000.43,2780.00 L5001.98,2755.00 L5001.03,2730.00 L4997.35,2704.00 L4991.41,2680.00 L4983.25,2657.00 L4973.46,2636.00 L4961.12,2615.00 L4948.15,2597.00 L4933.43,2580.00 L4910.00,2558.26 L4891.00,2544.20 L4871.00,2532.14 L4851.00,2522.44 L4829.00,2514.15 L4805.00,2507.68 L4780.00,2503.57 L4755.00,2502.02 L4730.00,2502.97 L4704.00,2506.65 L4680.00,2512.59 L4657.00,2520.75 L4636.00,2530.54 L4615.00,2542.88 L4597.00,2555.85 L4580.00,2570.57 L4558.26,2594.00 L4544.20,2613.00 L4532.14,2633.00 L4522.44,2653.00 L4514.15,2675.00 L4507.68,2699.00 L4503.57,2724.00 L4502.02,2749.00 "></path>
</svg>
