<svg xmlns="http://www.w3.org/2000/svg">
<path d="M220,175 L220,169 L220,175" fill="none" stroke="black" stroke-width="3"/>
<path d="M27,45.48892 L24.624249,50 L22.629374,55 L21.225094,60 L21,61.052532 L20.000021,62 L20,20 L62,20 L61,21.010208 L56,22.30324 L51,24.174498 L47,26.136892 L42,29.269997 L37,33.340816 L31.58255,39 L28.576292,43 L27.292347,45 L27,45.48892" fill="none" stroke="black" stroke-width="3"/>
<path d="M220,53 L220,20 L179,20 L178.94746,21 L184,22.30324 L189,24.174498 L193,26.136892 L198,29.269997 L203,33.340816 L208.41745,39 L211.4237,43 L214.39537,48 L216.6473,53 L218.28029,58 L219,61.052532 L220,62 L220,54 L220,53" fill="none" stroke="black" stroke-width="3"/>
<path d="M62,220 L59,220.00002 L62,220" fill="none" stroke="black" stroke-width="3"/>
<path d="M169,20 L175,20 L169,20" fill="none" stroke="black" stroke-width="3"/>
<path d="M20,71 L19.999996,62 L20,71" fill="none" stroke="black" stroke-width="3"/>
<path d="M220.00002,199 L220.00002,205 L220.00002,199" fill="none" stroke="black" stroke-width="3"/>
<path d="M220.00002,186 L220.00002,193 L220.00002,186" fill="none" stroke="black" stroke-width="3"/>
<path d="M220.00002,219 L220,220 L179,220 L178.94746,219 L184,217.69676 L189,215.8255 L193,213.86311 L198,210.73001 L203,206.65918 L208.41745,201 L211.4237,197 L214.39537,192 L216.6473,187 L218.28029,182 L219,178.94746 L220,179 L220.00002,183 L220.00002,219" fill="none" stroke="black" stroke-width="3"/>
<path d="M220.00002,217 L220.00002,211 L220.00002,217" fill="none" stroke="black" stroke-width="3"/>
<path d="M56,220.00002 L47,220.00002 L56,220.00002" fill="none" stroke="black" stroke-width="3"/>
<path d="M21,220.00002 L20,220 L20,179 L21,178.94746 L22.30324,184 L24.174498,189 L26.136892,193 L29.269997,198 L33.340816,203 L39,208.41745 L43,211.4237 L48,214.39537 L53,216.6473 L58,218.28029 L61.052532,219 L62,219.99998 L71,220 L21,220.00002" fill="none" stroke="black" stroke-width="3"/>
<path d="M30,220.00002 L23,220.00002 L30,220.00002" fill="none" stroke="black" stroke-width="3"/>
<path d="M43,220.00002 L35,220.00002 L43,220.00002" fill="none" stroke="black" stroke-width="3"/>
</svg>