<svg xmlns="http://www.w3.org/2000/svg">
<path d="M220,175 L219.99998,174 L219.99998,173 L219.99998,172 L219.99998,171 L219.99998,170 L220,169 L220,175" fill="none" stroke="black" stroke-width="3"/>
<path d="M27,45.48892 L26.699331,46 L26.136892,47 L26,47.254425 L25.604622,48 L25.10031,49 L25,49.20859 L24.624249,50 L24.174498,51 L24,51.409313 L23.750967,52 L23.352703,53 L23,53.94267 L22.978752,54 L22.629374,55 L22.30324,56 L22,57 L22,57 L21.71971,58 L21.461504,59 L21.225094,60 L21.010208,61 L21,61.052532 L20.000021,62 L19.999996,61 L19.999996,60 L19.999985,59 L19.999989,58 L19.999989,57 L19.999989,56 L19.999992,55 L19.999992,54 L19.999992,53 L19.999992,52 L19.999992,51 L19.999996,50 L19.999996,49 L19.999996,48 L19.999985,47 L19.999989,46 L19.999989,45 L19.999989,44 L19.999989,43 L19.999992,42 L19.999992,41 L19.999992,40 L19.999992,39 L19.999996,38 L19.999996,37 L19.999996,36 L19.999985,35 L19.999985,34 L19.999989,33 L19.999989,32 L19.999989,31 L19.99999,30 L19.999992,29 L19.999992,28 L19.999992,27 L19.999994,26 L19.999996,25 L19.999996,24 L19.999985,23 L19.999987,22 L19.999987,21 L20,20 L21,20 L22,20 L23,20 L24,20 L25,20 L26,20 L27,20 L28,20 L29,20 L30,20 L31,20 L32,20 L33,20 L34,20 L35,20 L36,20 L37,20 L38,20 L39,20 L40,20 L41,20 L42,20 L43,20 L44,20 L45,20 L46,19.999996 L47,20 L47,20 L48,20 L49,19.999996 L50,20 L50,20 L51,20 L52,19.999996 L53,20 L53,20 L54,20 L55,19.999996 L56,20 L56,20 L57,20 L58,19.999996 L59,20 L59,20 L60,20 L61,19.999996 L62,20 L61.052532,21 L61,21.010208 L60,21.225094 L59,21.461504 L58,21.71971 L57,22 L57,22 L56,22.30324 L55,22.629374 L54,22.978752 L53.94267,23 L53,23.352703 L52,23.750967 L51.409313,24 L51,24.174498 L50,24.624249 L49.20859,25 L49,25.10031 L48,25.604622 L47.254425,26 L47,26.136892 L46,26.699331 L45.48892,27 L45,27.292347 L44,27.91701 L43.87212,28 L43,28.576292 L42.38461,29 L42,29.269997 L41,30 L41,30 L40,30.77077 L39.713005,31 L39,31.58255 L38.50607,32 L38,32.43815 L37.371563,33 L37,33.340816 L36.302883,34 L36,34.294292 L35.28932,35 L35,35.28932 L34.294292,36 L34,36.302883 L33.340816,37 L33,37.371563 L32.43815,38 L32,38.50607 L31.58255,39 L31,39.713005 L30.77077,40 L30,41 L30,41 L29.269997,42 L29,42.38461 L28.576292,43 L28,43.87212 L27.91701,44 L27.292347,45 L27,45.48892" fill="none" stroke="black" stroke-width="3"/>
<path d="M220,53 L220,53 L220,52 L220,51 L220,50 L220,50 L220,49 L220,48 L220,47 L220,47 L220,46 L220,45 L220,44 L220,43 L220,42 L220,41 L220,40 L220,39 L220,38 L220,37 L220,36 L220,35 L220,34 L220,33 L220,32 L220,31 L220,30 L220,29 L220,28 L220,27 L220,26 L220,25 L220,24 L220,23 L220,22 L220,21 L220,20 L219,19.999985 L218,19.999985 L217,19.999985 L216,20 L215,20 L214,20 L213,20 L212,20 L211,19.999985 L210,19.999985 L209,19.999985 L208,19.999985 L207,19.999985 L206,19.999985 L205,19.999985 L204,20 L203,20 L202,20 L201,20 L200,20 L199,19.999985 L198,19.999985 L197,19.999985 L196,19.999985 L195,19.999985 L194,19.999985 L193,19.999985 L192,20 L191,20 L190,20 L189,20 L188,20 L187,20 L186,19.999985 L185,19.999985 L184,19.999985 L183,19.999985 L182,19.999985 L181,19.999985 L180,20 L179,20 L178.94746,21 L179,21.010208 L180,21.225094 L181,21.461504 L182,21.71971 L183,22 L183,22 L184,22.30324 L185,22.629374 L186,22.978752 L186.05733,23 L187,23.352703 L188,23.750967 L188.59068,24 L189,24.174498 L190,24.624249 L190.79141,25 L191,25.10031 L192,25.604622 L192.74557,26 L193,26.136892 L194,26.699331 L194.51108,27 L195,27.292347 L196,27.91701 L196.12788,28 L197,28.576292 L197.61539,29 L198,29.269997 L199,30 L199,30 L200,30.77077 L200.287,31 L201,31.58255 L201.49393,32 L202,32.43815 L202.62843,33 L203,33.340816 L203.69711,34 L204,34.294292 L204.71068,35 L205,35.28932 L205.7057,36 L206,36.302883 L206.65918,37 L207,37.371563 L207.56184,38 L208,38.50607 L208.41745,39 L209,39.713005 L209.22923,40 L210,41 L210,41 L210.73001,42 L211,42.38461 L211.4237,43 L212,43.87212 L212.083,44 L212.70766,45 L213,45.48892 L213.30067,46 L213.86311,47 L214,47.254425 L214.39537,48 L214.89969,49 L215,49.20859 L215.37575,50 L215.8255,51 L216,51.409313 L216.24904,52 L216.6473,53 L217,53.94267 L217.02124,54 L217.37062,55 L217.69676,56 L218,57 L218,57 L218.28029,58 L218.5385,59 L218.7749,60 L218.98979,61 L219,61.052532 L220,62 L220,61 L220,60 L220,59 L220,59 L220,58 L220,57 L220,56 L220,56 L220,55 L220,54 L220,53" fill="none" stroke="black" stroke-width="3"/>
<path d="M62,220 L61,220 L60,220 L59,220.00002 L62,220" fill="none" stroke="black" stroke-width="3"/>
<path d="M169,20 L170,19.999985 L171,19.999985 L172,19.999985 L173,19.999985 L174,19.999985 L175,20 L169,20" fill="none" stroke="black" stroke-width="3"/>
<path d="M20,71 L19.999985,70 L19.999992,69 L19.999992,68 L19.999992,67 L19.999992,66 L19.999992,65 L19.999992,64 L19.999996,63 L19.999996,62 L20,71" fill="none" stroke="black" stroke-width="3"/>
<path d="M220.00002,199 L220,200 L220,200 L220,201 L220,202 L220,203 L220,204 L220,204 L220.00002,205 L220.00002,199" fill="none" stroke="black" stroke-width="3"/>
<path d="M220.00002,186 L220,187 L220,187 L220,188 L220,189 L220,190 L220,191 L220,192 L220,192 L220.00002,193 L220.00002,186" fill="none" stroke="black" stroke-width="3"/>
<path d="M220.00002,219 L220,220 L219,220 L218,220 L217,220 L216,220 L215,220 L214,220 L213,220 L212,220 L211,220 L210,220 L209,220 L208,220 L207,220 L206,220 L205,220 L204,220 L203,220 L202,220 L201,220 L200,220 L199,220 L198,220 L197,220 L196,220 L195,220 L194,220 L193,220 L192,220 L191,220 L190,220 L189,220 L188,220 L187,220 L186,220 L185,220 L184,220 L183,220 L182,220 L181,220 L180,220 L179,220 L178.94746,219 L179,218.98979 L180,218.7749 L181,218.5385 L182,218.28029 L183,218 L183,218 L184,217.69676 L185,217.37062 L186,217.02124 L186.05733,217 L187,216.6473 L188,216.24904 L188.59068,216 L189,215.8255 L190,215.37575 L190.79141,215 L191,214.89969 L192,214.39537 L192.74557,214 L193,213.86311 L194,213.30067 L194.51108,213 L195,212.70766 L196,212.083 L196.12788,212 L197,211.4237 L197.61539,211 L198,210.73001 L199,210 L200,209.22923 L200.287,209 L201,208.41745 L201.49393,208 L202,207.56184 L202.62843,207 L203,206.65918 L203.69711,206 L204,205.7057 L204.71068,205 L205,204.71068 L205.7057,204 L206,203.69711 L206.65918,203 L207,202.62843 L207.56184,202 L208,201.49393 L208.41745,201 L209,200.287 L209.22923,200 L210,199 L210.73001,198 L211,197.61539 L211.4237,197 L212,196.12788 L212.083,196 L212.70766,195 L213,194.51108 L213.30067,194 L213.86311,193 L214,192.74557 L214.39537,192 L214.89969,191 L215,190.79141 L215.37575,190 L215.8255,189 L216,188.59068 L216.24904,188 L216.6473,187 L217,186.05733 L217.02124,186 L217.37062,185 L217.69676,184 L218,183 L218.28029,182 L218.5385,181 L218.7749,180 L218.98979,179 L219,178.94746 L220,179 L220,180 L220,180 L220.00002,181 L220.00002,182 L220.00002,183 L220.00002,219" fill="none" stroke="black" stroke-width="3"/>
<path d="M220.00002,217 L220,216 L220,216 L220,215 L220,214 L220,213 L220,212 L220,212 L220.00002,211 L220.00002,217" fill="none" stroke="black" stroke-width="3"/>
<path d="M56,220.00002 L55,220 L54,220 L53,220 L52,220 L51,220 L50,220 L49,220 L48,220 L47,220.00002 L56,220.00002" fill="none" stroke="black" stroke-width="3"/>
<path d="M21,220.00002 L20,220 L20,219 L20,218 L20,217 L20,216 L20,215 L20,214 L20,213 L20,212 L20,211 L20,210 L20,209 L20,208 L20,207 L20,206 L20,205 L20,204 L20,203 L20,202 L20,201 L20,200 L20,199 L20,198 L20,197 L20,196 L20,195 L20,194 L20,193 L20,192 L20,191 L20,190 L20,189 L20,188 L20,187 L20,186 L20,185 L20,184 L20,183 L20,182 L20,181 L20,180 L20,179 L21,178.94746 L21.010208,179 L21.225094,180 L21.461504,181 L21.71971,182 L22,183 L22,183 L22.30324,184 L22.629374,185 L22.978752,186 L23,186.05733 L23.352703,187 L23.750967,188 L24,188.59068 L24.174498,189 L24.624249,190 L25,190.79141 L25.10031,191 L25.604622,192 L26,192.74557 L26.136892,193 L26.699331,194 L27,194.51108 L27.292347,195 L27.91701,196 L28,196.12788 L28.576292,197 L29,197.61539 L29.269997,198 L30,199 L30,199 L30.77077,200 L31,200.287 L31.58255,201 L32,201.49393 L32.43815,202 L33,202.62843 L33.340816,203 L34,203.69711 L34.294292,204 L35,204.71068 L35.28932,205 L36,205.7057 L36.302883,206 L37,206.65918 L37.371563,207 L38,207.56184 L38.50607,208 L39,208.41745 L39.713005,209 L40,209.22923 L41,210 L41,210 L42,210.73001 L42.38461,211 L43,211.4237 L43.87212,212 L44,212.083 L45,212.70766 L45.48892,213 L46,213.30067 L47,213.86311 L47.254425,214 L48,214.39537 L49,214.89969 L49.20859,215 L50,215.37575 L51,215.8255 L51.409313,216 L52,216.24904 L53,216.6473 L53.94267,217 L54,217.02124 L55,217.37062 L56,217.69676 L57,218 L57,218 L58,218.28029 L59,218.5385 L60,218.7749 L61,218.98979 L61.052532,219 L62,219.99998 L63,219.99998 L64,219.99998 L65,219.99998 L66,219.99998 L67,219.99998 L68,219.99998 L69,219.99998 L70,219.99998 L71,220 L21,220.00002" fill="none" stroke="black" stroke-width="3"/>
<path d="M30,220.00002 L29,220 L28,220 L27,220 L26,220 L25,220 L24,220 L23,220.00002 L30,220.00002" fill="none" stroke="black" stroke-width="3"/>
<path d="M43,220.00002 L42,220 L41,220 L40,220 L39,220 L38,220 L37,220 L36,220 L35,220.00002 L43,220.00002" fill="none" stroke="black" stroke-width="3"/>
</svg>