<svg xmlns="http://www.w3.org/2000/svg">
    <path fill-rule="evenodd" style="fill: none; stroke: rgb(0, 0, 0); stroke-width: 0.2;" d="M2.00,52.00 L2.01,51.00 M2.01,51.00 L2.04,50.00 M2.01,53.00 L2.00,52.00 M2.04,50.00 L2.09,49.00 M2.04,54.00 L2.01,53.00 M2.09,49.00 L2.16,48.00 M2.09,55.00 L2.04,54.00 M2.16,48.00 L2.25,47.00 M2.16,56.00 L2.09,55.00 M2.25,47.00 L2.36,46.00 M2.25,57.00 L2.16,56.00 M2.36,46.00 L2.49,45.00 M2.36,58.00 L2.25,57.00 M2.49,45.00 L2.64,44.00 M2.49,59.00 L2.36,58.00 M2.64,44.00 L2.82,43.00 M2.64,60.00 L2.49,59.00 M2.82,43.00 L3.00,42.05 M2.82,61.00 L2.64,60.00 M3.00,42.05 L3.01,42.00 M3.00,61.95 L2.82,61.00 M3.01,42.00 L3.23,41.00 M3.01,62.00 L3.00,61.95 M3.23,41.00 L3.46,40.00 M3.23,63.00 L3.01,62.00 M3.46,40.00 L3.72,39.00 M3.46,64.00 L3.23,63.00 M3.72,39.00 L4.00,38.00 M3.72,65.00 L3.46,64.00 M4.00,38.00 L4.30,37.00 M4.00,66.00 L3.72,65.00 M4.30,37.00 L4.63,36.00 M4.30,67.00 L4.00,66.00 M4.63,36.00 L4.98,35.00 M4.63,68.00 L4.30,67.00 M4.98,35.00 L5.00,34.94 M4.98,69.00 L4.63,68.00 M5.00,34.94 L5.35,34.00 M5.00,69.06 L4.98,69.00 M5.35,34.00 L5.75,33.00 M5.35,70.00 L5.00,69.06 M5.75,33.00 L6.00,32.41 M5.75,71.00 L5.35,70.00 M6.00,32.41 L6.17,32.00 M6.00,71.59 L5.75,71.00 M6.17,32.00 L6.62,31.00 M6.17,72.00 L6.00,71.59 M6.62,31.00 L7.00,30.21 M6.62,73.00 L6.17,72.00 M7.00,30.21 L7.10,30.00 M7.00,73.79 L6.62,73.00 M7.10,30.00 L7.60,29.00 M7.10,74.00 L7.00,73.79 M7.60,29.00 L8.00,28.25 M7.60,75.00 L7.10,74.00 M8.00,28.25 L8.14,28.00 M8.00,75.75 L7.60,75.00 M8.14,28.00 L8.70,27.00 M8.14,76.00 L8.00,75.75 M8.70,27.00 L9.00,26.49 M8.70,77.00 L8.14,76.00 M9.00,26.49 L9.29,26.00 M9.00,77.51 L8.70,77.00 M9.29,26.00 L9.92,25.00 M9.29,78.00 L9.00,77.51 M9.92,25.00 L10.00,24.87 M9.92,79.00 L9.29,78.00 M10.00,24.87 L10.58,24.00 M10.00,79.13 L9.92,79.00 M10.58,24.00 L11.00,23.38 M10.58,80.00 L10.00,79.13 M11.00,23.38 L11.27,23.00 M11.00,80.62 L10.58,80.00 M11.27,23.00 L12.00,22.00 M11.27,81.00 L11.00,80.62 M12.00,22.00 L12.77,21.00 M12.00,82.00 L11.27,81.00 M12.77,21.00 L13.00,20.71 M12.77,83.00 L12.00,82.00 M13.00,20.71 L13.58,20.00 M13.00,83.29 L12.77,83.00 M13.58,20.00 L14.00,19.51 M13.58,84.00 L13.00,83.29 M14.00,19.51 L14.44,19.00 M14.00,84.49 L13.58,84.00 M14.44,19.00 L15.00,18.37 M14.44,85.00 L14.00,84.49 M15.00,18.37 L15.34,18.00 M15.00,85.63 L14.44,85.00 M15.34,18.00 L16.00,17.30 M15.34,86.00 L15.00,85.63 M16.00,17.30 L16.29,17.00 M16.00,86.70 L15.34,86.00 M16.29,17.00 L17.00,16.29 M16.29,87.00 L16.00,86.70 M17.00,16.29 L17.30,16.00 M17.00,87.71 L16.29,87.00 M17.30,16.00 L18.00,15.34 M17.30,88.00 L17.00,87.71 M18.00,15.34 L18.37,15.00 M18.00,88.66 L17.30,88.00 M18.37,15.00 L19.00,14.44 M18.37,89.00 L18.00,88.66 M19.00,14.44 L19.51,14.00 M19.00,89.56 L18.37,89.00 M19.51,14.00 L20.00,13.58 M19.51,90.00 L19.00,89.56 M20.00,13.58 L20.71,13.00 M20.00,90.42 L19.51,90.00 M20.71,13.00 L21.00,12.77 M20.71,91.00 L20.00,90.42 M21.00,12.77 L22.00,12.00 M21.00,91.23 L20.71,91.00 M22.00,12.00 L23.00,11.27 M22.00,92.00 L21.00,91.23 M23.00,11.27 L23.38,11.00 M23.00,92.73 L22.00,92.00 M23.38,11.00 L24.00,10.58 M23.38,93.00 L23.00,92.73 M24.00,10.58 L24.87,10.00 M24.00,93.42 L23.38,93.00 M24.87,10.00 L25.00,9.92 M24.87,94.00 L24.00,93.42 M25.00,9.92 L26.00,9.29 M25.00,94.08 L24.87,94.00 M26.00,9.29 L26.49,9.00 M26.00,94.71 L25.00,94.08 M26.49,9.00 L27.00,8.70 M26.49,95.00 L26.00,94.71 M27.00,8.70 L28.00,8.14 M27.00,95.30 L26.49,95.00 M28.00,8.14 L28.25,8.00 M28.00,95.86 L27.00,95.30 M28.25,8.00 L29.00,7.60 M28.25,96.00 L28.00,95.86 M29.00,7.60 L30.00,7.10 M29.00,96.40 L28.25,96.00 M30.00,7.10 L30.21,7.00 M30.00,96.90 L29.00,96.40 M30.21,7.00 L31.00,6.62 M30.21,97.00 L30.00,96.90 M31.00,6.62 L32.00,6.17 M31.00,97.38 L30.21,97.00 M32.00,6.17 L32.41,6.00 M32.00,97.83 L31.00,97.38 M32.41,6.00 L33.00,5.75 M32.41,98.00 L32.00,97.83 M33.00,5.75 L34.00,5.35 M33.00,98.25 L32.41,98.00 M34.00,5.35 L34.94,5.00 M34.00,98.65 L33.00,98.25 M34.94,5.00 L35.00,4.98 M34.94,99.00 L34.00,98.65 M35.00,4.98 L36.00,4.63 M35.00,99.02 L34.94,99.00 M36.00,4.63 L37.00,4.30 M36.00,99.37 L35.00,99.02 M37.00,4.30 L38.00,4.00 M37.00,99.70 L36.00,99.37 M38.00,4.00 L39.00,3.72 M38.00,100.00 L37.00,99.70 M39.00,3.72 L40.00,3.46 M39.00,100.28 L38.00,100.00 M40.00,3.46 L41.00,3.23 M40.00,100.54 L39.00,100.28 M41.00,3.23 L42.00,3.01 M41.00,100.77 L40.00,100.54 M42.00,3.01 L42.05,3.00 M42.00,100.99 L41.00,100.77 M42.05,3.00 L43.00,2.82 M42.05,101.00 L42.00,100.99 M43.00,2.82 L44.00,2.64 M43.00,101.18 L42.05,101.00 M44.00,2.64 L45.00,2.49 M44.00,101.36 L43.00,101.18 M45.00,2.49 L46.00,2.36 M45.00,101.51 L44.00,101.36 M46.00,2.36 L47.00,2.25 M46.00,101.64 L45.00,101.51 M47.00,2.25 L48.00,2.16 M47.00,101.75 L46.00,101.64 M48.00,2.16 L49.00,2.09 M48.00,101.84 L47.00,101.75 M49.00,2.09 L50.00,2.04 M49.00,101.91 L48.00,101.84 M50.00,2.04 L51.00,2.01 M50.00,101.96 L49.00,101.91 M51.00,2.01 L52.00,2.00 M51.00,101.99 L50.00,101.96 M52.00,2.00 L53.00,2.01 M52.00,102.00 L51.00,101.99 M53.00,2.01 L54.00,2.04 M53.00,101.99 L52.00,102.00 M54.00,2.04 L55.00,2.09 M54.00,101.96 L53.00,101.99 M55.00,2.09 L56.00,2.16 M55.00,101.91 L54.00,101.96 M56.00,2.16 L57.00,2.25 M56.00,101.84 L55.00,101.91 M57.00,2.25 L58.00,2.36 M57.00,101.75 L56.00,101.84 M58.00,2.36 L59.00,2.49 M58.00,101.64 L57.00,101.75 M59.00,2.49 L60.00,2.64 M59.00,101.51 L58.00,101.64 M60.00,2.64 L61.00,2.82 M60.00,101.36 L59.00,101.51 M61.00,2.82 L61.95,3.00 M61.00,101.18 L60.00,101.36 M61.95,3.00 L62.00,3.01 M61.95,101.00 L61.00,101.18 M62.00,3.01 L63.00,3.23 M62.00,100.99 L61.95,101.00 M63.00,3.23 L64.00,3.46 M63.00,100.77 L62.00,100.99 M64.00,3.46 L65.00,3.72 M64.00,100.54 L63.00,100.77 M65.00,3.72 L66.00,4.00 M65.00,100.28 L64.00,100.54 M66.00,4.00 L67.00,4.30 M66.00,100.00 L65.00,100.28 M67.00,4.30 L68.00,4.63 M67.00,99.70 L66.00,100.00 M68.00,4.63 L69.00,4.98 M68.00,99.37 L67.00,99.70 M69.00,4.98 L69.06,5.00 M69.00,99.02 L68.00,99.37 M69.06,5.00 L70.00,5.35 M69.06,99.00 L69.00,99.02 M70.00,5.35 L71.00,5.75 M70.00,98.65 L69.06,99.00 M71.00,5.75 L71.59,6.00 M71.00,98.25 L70.00,98.65 M71.59,6.00 L72.00,6.17 M71.59,98.00 L71.00,98.25 M72.00,6.17 L73.00,6.62 M72.00,97.83 L71.59,98.00 M73.00,6.62 L73.79,7.00 M73.00,97.38 L72.00,97.83 M73.79,7.00 L74.00,7.10 M73.79,97.00 L73.00,97.38 M74.00,7.10 L75.00,7.60 M74.00,96.90 L73.79,97.00 M75.00,7.60 L75.75,8.00 M75.00,96.40 L74.00,96.90 M75.75,8.00 L76.00,8.14 M75.75,96.00 L75.00,96.40 M76.00,8.14 L77.00,8.70 M76.00,95.86 L75.75,96.00 M77.00,8.70 L77.51,9.00 M77.00,95.30 L76.00,95.86 M77.51,9.00 L78.00,9.29 M77.51,95.00 L77.00,95.30 M78.00,9.29 L79.00,9.92 M78.00,94.71 L77.51,95.00 M79.00,9.92 L79.13,10.00 M79.00,94.08 L78.00,94.71 M79.13,10.00 L80.00,10.58 M79.13,94.00 L79.00,94.08 M80.00,10.58 L80.62,11.00 M80.00,93.42 L79.13,94.00 M80.62,11.00 L81.00,11.27 M80.62,93.00 L80.00,93.42 M81.00,11.27 L82.00,12.00 M81.00,92.73 L80.62,93.00 M82.00,12.00 L83.00,12.77 M82.00,92.00 L81.00,92.73 M83.00,12.77 L83.29,13.00 M83.00,91.23 L82.00,92.00 M83.29,13.00 L84.00,13.58 M83.29,91.00 L83.00,91.23 M84.00,13.58 L84.49,14.00 M84.00,90.42 L83.29,91.00 M84.49,14.00 L85.00,14.44 M84.49,90.00 L84.00,90.42 M85.00,14.44 L85.63,15.00 M85.00,89.56 L84.49,90.00 M85.63,15.00 L86.00,15.34 M85.63,89.00 L85.00,89.56 M86.00,15.34 L86.70,16.00 M86.00,88.66 L85.63,89.00 M86.70,16.00 L87.00,16.29 M86.70,88.00 L86.00,88.66 M87.00,16.29 L87.71,17.00 M87.00,87.71 L86.70,88.00 M87.71,17.00 L88.00,17.30 M87.71,87.00 L87.00,87.71 M88.00,17.30 L88.66,18.00 M88.00,86.70 L87.71,87.00 M88.66,18.00 L89.00,18.37 M88.66,86.00 L88.00,86.70 M89.00,18.37 L89.56,19.00 M89.00,85.63 L88.66,86.00 M89.56,19.00 L90.00,19.51 M89.56,85.00 L89.00,85.63 M90.00,19.51 L90.42,20.00 M90.00,84.49 L89.56,85.00 M90.42,20.00 L91.00,20.71 M90.42,84.00 L90.00,84.49 M91.00,20.71 L91.23,21.00 M91.00,83.29 L90.42,84.00 M91.23,21.00 L92.00,22.00 M91.23,83.00 L91.00,83.29 M92.00,22.00 L92.73,23.00 M92.00,82.00 L91.23,83.00 M92.73,23.00 L93.00,23.38 M92.73,81.00 L92.00,82.00 M93.00,23.38 L93.42,24.00 M93.00,80.62 L92.73,81.00 M93.42,24.00 L94.00,24.87 M93.42,80.00 L93.00,80.62 M94.00,24.87 L94.08,25.00 M94.00,79.13 L93.42,80.00 M94.08,25.00 L94.71,26.00 M94.08,79.00 L94.00,79.13 M94.71,26.00 L95.00,26.49 M94.71,78.00 L94.08,79.00 M95.00,26.49 L95.30,27.00 M95.00,77.51 L94.71,78.00 M95.30,27.00 L95.86,28.00 M95.30,77.00 L95.00,77.51 M95.86,28.00 L96.00,28.25 M95.86,76.00 L95.30,77.00 M96.00,28.25 L96.40,29.00 M96.00,75.75 L95.86,76.00 M96.40,29.00 L96.90,30.00 M96.40,75.00 L96.00,75.75 M96.90,30.00 L97.00,30.21 M96.90,74.00 L96.40,75.00 M97.00,30.21 L97.38,31.00 M97.00,73.79 L96.90,74.00 M97.38,31.00 L97.83,32.00 M97.38,73.00 L97.00,73.79 M97.83,32.00 L98.00,32.41 M97.83,72.00 L97.38,73.00 M98.00,32.41 L98.25,33.00 M98.00,71.59 L97.83,72.00 M98.25,33.00 L98.65,34.00 M98.25,71.00 L98.00,71.59 M98.65,34.00 L99.00,34.94 M98.65,70.00 L98.25,71.00 M99.00,34.94 L99.02,35.00 M99.00,69.06 L98.65,70.00 M99.02,35.00 L99.37,36.00 M99.02,69.00 L99.00,69.06 M99.37,36.00 L99.70,37.00 M99.37,68.00 L99.02,69.00 M99.70,37.00 L100.00,38.00 M99.70,67.00 L99.37,68.00 M100.00,38.00 L100.28,39.00 M100.00,66.00 L99.70,67.00 M100.28,39.00 L100.54,40.00 M100.28,65.00 L100.00,66.00 M100.54,40.00 L100.77,41.00 M100.54,64.00 L100.28,65.00 M100.77,41.00 L100.99,42.00 M100.77,63.00 L100.54,64.00 M100.99,42.00 L101.00,42.05 M100.99,62.00 L100.77,63.00 M101.00,42.05 L101.18,43.00 M101.00,61.95 L100.99,62.00 M101.18,43.00 L101.36,44.00 M101.18,61.00 L101.00,61.95 M101.36,44.00 L101.51,45.00 M101.36,60.00 L101.18,61.00 M101.51,45.00 L101.64,46.00 M101.51,59.00 L101.36,60.00 M101.64,46.00 L101.75,47.00 M101.64,58.00 L101.51,59.00 M101.75,47.00 L101.84,48.00 M101.75,57.00 L101.64,58.00 M101.84,48.00 L101.91,49.00 M101.84,56.00 L101.75,57.00 M101.91,49.00 L101.96,50.00 M101.91,55.00 L101.84,56.00 M101.96,50.00 L101.99,51.00 M101.96,54.00 L101.91,55.00 M101.99,51.00 L102.00,52.00 M101.99,53.00 L101.96,54.00 M102.00,52.00 L101.99,53.00 "/>

<script>
let svgs = document.children[0];
let paths = Array.from(svgs.children).filter(function(c) {
    var orig = c.style.stroke;
    c.onmouseover = function() {
        c.style.stroke = "rgb(0, 0, 255)";
    };
    c.onmouseout = function () {
        c.style.stroke = orig;
    };
    c.onclick = function () {
        svgs.removeChild();
    }
});

for (let path of paths) {
    console.log(path);
}
</script></svg>