<svg xmlns="http://www.w3.org/2000/svg">
    <path fill-rule="evenodd" style="fill: rgb(0, 0, 0); stroke: none; stroke-width: none;" d="M4.97875,35.00000 L4.62937,36.00000 L4.30324,37.00000 L4.00000,38.00000 L3.71971,39.00000 L3.46150,40.00000 L3.22509,41.00000 L3.01021,42.00000 L3.00000,42.05253 L2.81672,43.00000 L2.64421,44.00000 L2.49247,45.00000 L2.36134,46.00000 L2.25065,47.00000 L2.16027,48.00000 L2.09009,49.00000 L2.04002,50.00000 L2.01000,51.00000 L2.00000,52.00000 L2.01000,53.00000 L2.04002,54.00000 L2.09009,55.00000 L2.16027,56.00000 L2.25065,57.00000 L2.36134,58.00000 L2.49247,59.00000 L2.64421,60.00000 L2.81672,61.00000 L3.00000,61.94747 L3.01021,62.00000 L3.22509,63.00000 L3.46150,64.00000 L3.71971,65.00000 L4.00000,66.00000 L4.30324,67.00000 L4.62937,68.00000 L4.97875,69.00000 L5.00000,69.05733 L5.35270,70.00000 L5.75097,71.00000 L6.00000,71.59069 L6.17450,72.00000 L6.62425,73.00000 L7.00000,73.79141 L7.10031,74.00000 L7.60462,75.00000 L8.00000,75.74557 L8.13689,76.00000 L8.69933,77.00000 L9.00000,77.51108 L9.29235,78.00000 L9.91701,79.00000 L10.00000,79.12788 L10.57629,80.00000 L11.00000,80.61539 L11.27000,81.00000 L12.00000,82.00000 L12.77077,83.00000 L13.00000,83.28699 L13.58255,84.00000 L14.00000,84.49393 L14.43815,85.00000 L15.00000,85.62843 L15.34082,86.00000 L16.00000,86.69712 L16.29429,87.00000 L17.00000,87.70571 L17.30288,88.00000 L18.00000,88.65918 L18.37156,89.00000 L19.00000,89.56185 L19.50607,90.00000 L20.00000,90.41745 L20.71301,91.00000 L21.00000,91.22923 L22.00000,92.00000 L23.00000,92.73000 L23.38461,93.00000 L24.00000,93.42371 L24.87212,94.00000 L25.00000,94.08299 L26.00000,94.70766 L26.48892,95.00000 L27.00000,95.30067 L28.00000,95.86311 L28.25443,96.00000 L29.00000,96.39538 L30.00000,96.89969 L30.20859,97.00000 L31.00000,97.37575 L32.00000,97.82550 L32.40931,98.00000 L33.00000,98.24903 L34.00000,98.64729 L34.94267,99.00000 L35.00000,99.02125 L36.00000,99.37063 L37.00000,99.69676 L38.00000,100.00000 L39.00000,100.28029 L40.00000,100.53850 L41.00000,100.77491 L42.00000,100.98979 L42.05253,101.00000 L43.00000,101.18328 L44.00000,101.35579 L45.00000,101.50752 L46.00000,101.63866 L47.00000,101.74935 L48.00000,101.83974 L49.00000,101.90991 L50.00000,101.95998 L51.00000,101.99000 L52.00000,102.00000 L52.00000,101.00000 L52.00000,100.00000 L52.00000,99.00000 L52.00000,98.00000 L52.00000,97.00000 L52.00000,96.00000 L52.00000,95.00000 L52.00000,94.00000 L52.00000,93.00000 L52.00000,92.00000 L52.00000,91.00000 L52.00000,90.00000 L52.00000,89.00000 L52.00000,88.00000 L52.00000,87.00000 L52.00000,86.00000 L52.00000,85.00000 L52.00000,84.00000 L52.00000,83.00000 L52.00000,82.00000 L52.00000,81.00000 L52.00000,80.00000 L52.00000,79.00000 L52.00000,78.00000 L52.00000,77.00000 L51.00000,76.97999 L50.00000,76.91986 L49.00000,76.81931 L48.00000,76.67781 L47.00000,76.49469 L46.00000,76.26909 L45.00000,76.00000 L44.00000,75.68497 L43.00000,75.32321 L42.20926,75.00000 L42.00000,74.91259 L41.00000,74.44888 L40.12939,74.00000 L40.00000,73.93137 L39.00000,73.35272 L38.44177,73.00000 L38.00000,72.71074 L37.00000,72.00000 L36.00000,71.20765 L35.75517,71.00000 L35.00000,70.32755 L34.65400,70.00000 L34.00000,69.34600 L33.67245,69.00000 L33.00000,68.24483 L32.79235,68.00000 L32.00000,67.00000 L31.28926,66.00000 L31.00000,65.55823 L30.64727,65.00000 L30.06863,64.00000 L30.00000,63.87061 L29.55112,63.00000 L29.08741,62.00000 L29.00000,61.79074 L28.67679,61.00000 L28.31503,60.00000 L28.00000,59.00000 L27.73091,58.00000 L27.50531,57.00000 L27.32219,56.00000 L27.18070,55.00000 L27.08014,54.00000 L27.02001,53.00000 L27.00000,52.00000 L27.02001,51.00000 L27.08014,50.00000 L27.18070,49.00000 L27.32219,48.00000 L27.50531,47.00000 L27.73091,46.00000 L28.00000,45.00000 L28.31503,44.00000 L28.67679,43.00000 L29.00000,42.20926 L29.08741,42.00000 L29.55112,41.00000 L30.00000,40.12939 L30.06863,40.00000 L30.64727,39.00000 L31.00000,38.44177 L31.28926,38.00000 L32.00000,37.00000 L32.79235,36.00000 L33.00000,35.75517 L33.67245,35.00000 L34.00000,34.65400 L34.65400,34.00000 L35.00000,33.67245 L35.75517,33.00000 L36.00000,32.79235 L37.00000,32.00000 L38.00000,31.28926 L38.44177,31.00000 L39.00000,30.64727 L40.00000,30.06863 L40.12939,30.00000 L41.00000,29.55112 L42.00000,29.08741 L42.20926,29.00000 L43.00000,28.67679 L44.00000,28.31503 L45.00000,28.00000 L46.00000,27.73091 L47.00000,27.50531 L48.00000,27.32219 L49.00000,27.18070 L50.00000,27.08014 L51.00000,27.02001 L52.00000,27.00000 L53.00000,27.02001 L54.00000,27.08014 L55.00000,27.18070 L56.00000,27.32219 L57.00000,27.50531 L58.00000,27.73091 L59.00000,28.00000 L60.00000,28.31503 L61.00000,28.67679 L61.79074,29.00000 L62.00000,29.08741 L63.00000,29.55112 L63.87061,30.00000 L64.00000,30.06863 L65.00000,30.64727 L65.55823,31.00000 L66.00000,31.28926 L67.00000,32.00000 L68.00000,32.79235 L68.24483,33.00000 L69.00000,33.67245 L69.34600,34.00000 L70.00000,34.65400 L70.32755,35.00000 L71.00000,35.75517 L71.20765,36.00000 L72.00000,37.00000 L72.71074,38.00000 L73.00000,38.44177 L73.35272,39.00000 L73.93137,40.00000 L74.00000,40.12939 L74.44888,41.00000 L74.91259,42.00000 L75.00000,42.20926 L75.32321,43.00000 L75.68497,44.00000 L76.00000,45.00000 L76.26909,46.00000 L76.49469,47.00000 L76.67781,48.00000 L76.81931,49.00000 L76.91986,50.00000 L76.97999,51.00000 L77.00000,52.00000 L78.00000,52.00000 L79.00000,52.00000 L80.00000,52.00000 L81.00000,52.00000 L82.00000,52.00000 L83.00000,52.00000 L84.00000,52.00000 L85.00000,52.00000 L86.00000,52.00000 L87.00000,52.00000 L88.00000,52.00000 L89.00000,52.00000 L90.00000,52.00000 L91.00000,52.00000 L92.00000,52.00000 L93.00000,52.00000 L94.00000,52.00000 L95.00000,52.00000 L96.00000,52.00000 L97.00000,52.00000 L98.00000,52.00000 L99.00000,52.00000 L100.00000,52.00000 L101.00000,52.00000 L102.00000,52.00000 L101.99000,51.00000 L101.95998,50.00000 L101.90991,49.00000 L101.83974,48.00000 L101.74935,47.00000 L101.63866,46.00000 L101.50752,45.00000 L101.35579,44.00000 L101.18328,43.00000 L101.00000,42.05253 L100.98979,42.00000 L100.77491,41.00000 L100.53850,40.00000 L100.28029,39.00000 L100.00000,38.00000 L99.69676,37.00000 L99.37063,36.00000 L99.02125,35.00000 L99.00000,34.94267 L98.64729,34.00000 L98.24903,33.00000 L98.00000,32.40931 L97.82550,32.00000 L97.37575,31.00000 L97.00000,30.20859 L96.89969,30.00000 L96.39538,29.00000 L96.00000,28.25443 L95.86311,28.00000 L95.30067,27.00000 L95.00000,26.48892 L94.70766,26.00000 L94.08299,25.00000 L94.00000,24.87212 L93.42371,24.00000 L93.00000,23.38461 L92.73000,23.00000 L92.00000,22.00000 L91.22923,21.00000 L91.00000,20.71301 L90.41745,20.00000 L90.00000,19.50607 L89.56185,19.00000 L89.00000,18.37156 L88.65918,18.00000 L88.00000,17.30288 L87.70571,17.00000 L87.00000,16.29429 L86.69712,16.00000 L86.00000,15.34082 L85.62843,15.00000 L85.00000,14.43815 L84.49393,14.00000 L84.00000,13.58255 L83.28699,13.00000 L83.00000,12.77077 L82.00000,12.00000 L81.00000,11.27000 L80.61539,11.00000 L80.00000,10.57629 L79.12788,10.00000 L79.00000,9.91701 L78.00000,9.29235 L77.51108,9.00000 L77.00000,8.69933 L76.00000,8.13689 L75.74557,8.00000 L75.00000,7.60462 L74.00000,7.10031 L73.79141,7.00000 L73.00000,6.62425 L72.00000,6.17450 L71.59069,6.00000 L71.00000,5.75097 L70.00000,5.35270 L69.05733,5.00000 L69.00000,4.97875 L68.00000,4.62937 L67.00000,4.30324 L66.00000,4.00000 L65.00000,3.71971 L64.00000,3.46150 L63.00000,3.22509 L62.00000,3.01021 L61.94747,3.00000 L61.00000,2.81672 L60.00000,2.64421 L59.00000,2.49247 L58.00000,2.36134 L57.00000,2.25065 L56.00000,2.16027 L55.00000,2.09009 L54.00000,2.04002 L53.00000,2.01000 L52.00000,2.00000 L51.00000,2.01000 L50.00000,2.04002 L49.00000,2.09009 L48.00000,2.16027 L47.00000,2.25065 L46.00000,2.36134 L45.00000,2.49247 L44.00000,2.64421 L43.00000,2.81672 L42.05253,3.00000 L42.00000,3.01021 L41.00000,3.22509 L40.00000,3.46150 L39.00000,3.71971 L38.00000,4.00000 L37.00000,4.30324 L36.00000,4.62937 L35.00000,4.97875 L34.94267,5.00000 L34.00000,5.35270 L33.00000,5.75097 L32.40931,6.00000 L32.00000,6.17450 L31.00000,6.62425 L30.20859,7.00000 L30.00000,7.10031 L29.00000,7.60462 L28.25443,8.00000 L28.00000,8.13689 L27.00000,8.69933 L26.48892,9.00000 L26.00000,9.29235 L25.00000,9.91701 L24.87212,10.00000 L24.00000,10.57629 L23.38461,11.00000 L23.00000,11.27000 L22.00000,12.00000 L21.00000,12.77077 L20.71301,13.00000 L20.00000,13.58255 L19.50607,14.00000 L19.00000,14.43815 L18.37156,15.00000 L18.00000,15.34082 L17.30288,16.00000 L17.00000,16.29429 L16.29429,17.00000 L16.00000,17.30288 L15.34082,18.00000 L15.00000,18.37156 L14.43815,19.00000 L14.00000,19.50607 L13.58255,20.00000 L13.00000,20.71301 L12.77077,21.00000 L12.00000,22.00000 L11.27000,23.00000 L11.00000,23.38461 L10.57629,24.00000 L10.00000,24.87212 L9.91701,25.00000 L9.29235,26.00000 L9.00000,26.48892 L8.69933,27.00000 L8.13689,28.00000 L8.00000,28.25443 L7.60462,29.00000 L7.10031,30.00000 L7.00000,30.20859 L6.62425,31.00000 L6.17450,32.00000 L6.00000,32.40931 L5.75097,33.00000 L5.35270,34.00000 L5.00000,34.94267 L4.97875,35.00000 "/>

<script>
let svgs = document.children[0];
let paths = Array.from(svgs.children).filter(function(c) {
    var orig = c.style.stroke;
    c.onmouseover = function() {
        c.style.stroke = "rgb(0, 0, 255)";
    };
    c.onmouseout = function () {
        c.style.stroke = orig;
    };
    c.onclick = function () {
        svgs.removeChild()
    }
});

for (let path of paths) {
    console.log(path);
}
</script></svg>