<svg xmlns="http://www.w3.org/2000/svg">
    <path fill-rule="evenodd" style="fill: none; stroke: rgb(0, 0, 0); stroke-width: 0.2;" d="M47.00,52.00 L47.10,53.00 L47.42,54.00 L48.00,55.00 L49.00,56.00 L50.00,56.58 L51.00,56.90 L52.00,57.00 L53.00,56.90 L54.00,56.58 L55.00,56.00 L56.00,55.00 L56.58,54.00 L56.90,53.00 L57.00,52.00 L56.90,51.00 L56.58,50.00 L56.00,49.00 L55.00,48.00 L54.00,47.42 L53.00,47.10 L52.00,47.00 L51.00,47.10 L50.00,47.42 L49.00,48.00 L48.00,49.00 L47.42,50.00 L47.10,51.00 L47.00,52.00 "/>
    <path fill-rule="evenodd" style="fill: none; stroke: rgb(255, 0, 0); stroke-width: 0.2;" d="M54.00,2.00 L55.00,2.00 L56.00,2.00 L57.00,2.00 L58.00,2.00 L59.00,2.00 L60.00,2.00 L61.00,2.00 L62.00,2.00 L63.00,2.00 L64.00,2.00 L65.00,2.00 L66.00,2.00 L67.00,2.00 L68.00,2.00 L69.00,2.00 L70.00,2.00 L71.00,2.00 L72.00,2.00 L73.00,2.00 L74.00,2.00 L75.00,2.00 L76.00,2.00 L77.00,2.00 L78.00,2.00 L79.00,2.00 L80.00,2.00 L81.00,2.00 L82.00,2.00 L82.00,3.00 L82.00,4.00 L82.00,5.00 L82.00,6.00 L82.00,7.00 L82.00,8.00 L82.00,9.00 L82.00,10.00 L82.00,11.00 L82.00,12.00 L82.00,13.00 L82.00,14.00 L82.00,15.00 L82.00,16.00 L82.00,17.00 L82.00,18.00 L82.00,19.00 L82.00,20.00 L82.00,21.00 L82.00,22.00 L82.00,23.00 L82.00,24.00 L82.00,25.00 L82.00,26.00 L82.00,27.00 L82.00,28.00 L82.00,29.00 L82.00,30.00 L82.00,31.00 L82.00,32.00 L82.00,33.00 L82.00,34.00 L82.00,35.00 L82.00,36.00 L82.00,37.00 L82.00,38.00 L82.00,39.00 L82.00,40.00 L82.00,41.00 L82.00,42.00 L82.00,43.00 L82.00,44.00 L82.00,45.00 L82.00,46.00 L82.00,47.00 L82.00,48.00 L82.00,49.00 L82.00,50.00 L82.00,51.00 L82.00,52.00 L82.00,53.00 L82.00,54.00 L82.00,55.00 L82.00,56.00 L82.00,57.00 L82.00,58.00 L82.00,59.00 L82.00,60.00 L82.00,61.00 L82.00,62.00 L82.00,63.00 L82.00,64.00 L82.00,65.00 L82.00,66.00 L82.00,67.00 L82.00,68.00 L82.00,69.00 L82.00,70.00 L82.00,71.00 L82.00,72.00 L82.00,73.00 L82.00,74.00 L82.00,75.00 L82.00,76.00 L82.00,77.00 L82.00,78.00 L82.00,79.00 L82.00,80.00 L82.00,81.00 L82.00,82.00 L81.00,82.00 L80.00,82.00 L79.00,82.00 L78.00,82.00 L77.00,82.00 L76.00,82.00 L75.00,82.00 L74.00,82.00 L73.00,82.00 L72.00,82.00 L71.00,82.00 L70.00,82.00 L69.00,82.00 L68.00,82.00 L67.00,82.00 L66.00,82.00 L65.00,82.00 L64.00,82.00 L63.00,82.00 L62.00,82.00 L61.00,82.00 L60.00,82.00 L59.00,82.00 L58.00,82.00 L57.00,82.00 L56.00,82.00 L55.00,82.00 L54.00,82.00 L53.00,82.00 L52.00,82.00 L51.00,82.00 L50.00,82.00 L49.00,82.00 L48.00,82.00 L47.00,82.00 L46.00,82.00 L45.00,82.00 L44.00,82.00 L43.00,82.00 L42.00,82.00 L41.00,82.00 L40.00,82.00 L39.00,82.00 L38.00,82.00 L37.00,82.00 L36.00,82.00 L35.00,82.00 L34.00,82.00 L33.00,82.00 L32.00,82.00 L31.00,82.00 L30.00,82.00 L29.00,82.00 L28.00,82.00 L27.00,82.00 L26.00,82.00 L25.00,82.00 L24.00,82.00 L23.00,82.00 L22.00,82.00 L21.00,82.00 L20.00,82.00 L19.00,82.00 L18.00,82.00 L17.00,82.00 L16.00,82.00 L15.00,82.00 L14.00,82.00 L13.00,82.00 L12.00,82.00 L11.00,82.00 L10.00,82.00 L9.00,82.00 L8.00,82.00 L7.00,82.00 L6.00,82.00 L5.00,82.00 L4.00,82.00 L3.00,82.00 L2.00,82.00 L2.00,81.00 L2.00,80.00 L2.00,79.00 L2.00,78.00 L2.00,77.00 L2.00,76.00 L2.00,75.00 L2.00,74.00 L2.00,73.00 L2.00,72.00 L2.00,71.00 L2.00,70.00 L2.00,69.00 L2.00,68.00 L2.00,67.00 L2.00,66.00 L2.00,65.00 L2.00,64.00 L2.00,63.00 L2.00,62.00 L2.00,61.00 L2.00,60.00 L2.00,59.00 L2.00,58.00 L2.00,57.00 L2.00,56.00 L2.00,55.00 L2.00,54.00 "/>
    <path fill-rule="evenodd" style="fill: none; stroke: rgb(255, 0, 0); stroke-width: 0.2;" d="M50.00,2.00 L49.00,3.00 L48.00,4.00 L47.42,5.00 L47.10,6.00 L47.00,7.00 L47.10,8.00 L47.42,9.00 L48.00,10.00 L49.00,11.00 L50.00,11.58 L51.00,11.90 L52.00,12.00 L53.00,11.90 L54.00,11.58 L55.00,11.00 L56.00,10.00 L56.58,9.00 L56.90,8.00 L57.00,7.00 L56.90,6.00 L56.58,5.00 L56.00,4.00 L55.00,3.00 L54.00,2.00 "/>
    <path fill-rule="evenodd" style="fill: none; stroke: rgb(255, 0, 0); stroke-width: 0.2;" d="M2.00,50.00 L2.00,49.00 L2.00,48.00 L2.00,47.00 L2.00,46.00 L2.00,45.00 L2.00,44.00 L2.00,43.00 L2.00,42.00 L2.00,41.00 L2.00,40.00 L2.00,39.00 L3.00,40.00 L4.00,41.00 L5.00,41.58 L6.00,41.90 L7.00,42.00 L8.00,41.90 L9.00,41.58 L10.00,41.00 L11.00,40.00 L11.58,39.00 L11.90,38.00 L12.00,37.00 L11.90,36.00 L11.58,35.00 L11.00,34.00 L10.00,33.00 L9.00,32.42 L8.00,32.10 L7.00,32.00 L6.00,32.10 L5.00,32.42 L4.00,33.00 L3.00,34.00 L2.00,35.00 L2.00,34.00 L2.00,33.00 L2.00,32.00 L2.00,31.00 L2.00,30.00 L2.00,29.00 L2.00,28.00 L2.00,27.00 L2.00,26.00 L2.00,25.00 L2.00,24.00 "/>
    <path fill-rule="evenodd" style="fill: none; stroke: rgb(255, 0, 0); stroke-width: 0.2;" d="M2.00,9.00 L3.00,10.00 L4.00,11.00 L5.00,11.58 L6.00,11.90 L7.00,12.00 L8.00,11.90 L9.00,11.58 L10.00,11.00 L11.00,10.00 L11.58,9.00 L11.90,8.00 L12.00,7.00 L11.90,6.00 L11.58,5.00 L11.00,4.00 L10.00,3.00 L9.00,2.00 "/>
    <path fill-rule="evenodd" style="fill: none; stroke: rgb(255, 0, 0); stroke-width: 0.2;" d="M20.00,2.00 L19.00,3.00 L18.00,4.00 L17.42,5.00 L17.10,6.00 L17.00,7.00 L17.10,8.00 L17.42,9.00 L18.00,10.00 L19.00,11.00 L20.00,11.58 L21.00,11.90 L22.00,12.00 L23.00,11.90 L24.00,11.58 L25.00,11.00 L26.00,10.00 L26.58,9.00 L26.90,8.00 L27.00,7.00 L26.90,6.00 L26.58,5.00 L26.00,4.00 L25.00,3.00 L24.00,2.00 "/>
    <path fill-rule="evenodd" style="fill: none; stroke: rgb(255, 0, 0); stroke-width: 0.2;" d="M35.00,2.00 L34.00,3.00 L33.00,4.00 L32.42,5.00 L32.10,6.00 L32.00,7.00 L32.10,8.00 L32.42,9.00 L33.00,10.00 L34.00,11.00 L35.00,11.58 L36.00,11.90 L37.00,12.00 L38.00,11.90 L39.00,11.58 L40.00,11.00 L41.00,10.00 L41.58,9.00 L41.90,8.00 L42.00,7.00 L41.90,6.00 L41.58,5.00 L41.00,4.00 L40.00,3.00 L39.00,2.00 "/>
    <path fill-rule="evenodd" style="fill: none; stroke: rgb(0, 0, 0); stroke-width: 0.2;" d="M49.00,26.00 L50.00,26.58 L51.00,26.90 L52.00,27.00 L53.00,26.90 L54.00,26.58 L55.00,26.00 L56.00,25.00 L56.58,24.00 L56.90,23.00 L57.00,22.00 L56.90,21.00 L56.58,20.00 L56.00,19.00 L55.00,18.00 L54.00,17.42 L53.00,17.10 L52.00,17.00 L51.00,17.10 L50.00,17.42 L49.00,18.00 L48.00,19.00 L47.42,20.00 L47.10,21.00 L47.00,22.00 L47.10,23.00 L47.42,24.00 L48.00,25.00 L49.00,26.00 "/>
    <path fill-rule="evenodd" style="fill: none; stroke: rgb(255, 0, 0); stroke-width: 0.2;" d="M2.00,24.00 L3.00,25.00 L4.00,26.00 L5.00,26.58 L6.00,26.90 L7.00,27.00 L8.00,26.90 L9.00,26.58 L10.00,26.00 L11.00,25.00 L11.58,24.00 L11.90,23.00 L12.00,22.00 L11.90,21.00 L11.58,20.00 L11.00,19.00 L10.00,18.00 L9.00,17.42 L8.00,17.10 L7.00,17.00 L6.00,17.10 L5.00,17.42 L4.00,18.00 L3.00,19.00 L2.00,20.00 "/>
    <path fill-rule="evenodd" style="fill: none; stroke: rgb(255, 0, 0); stroke-width: 0.2;" d="M9.00,2.00 L10.00,2.00 L11.00,2.00 L12.00,2.00 L13.00,2.00 L14.00,2.00 L15.00,2.00 L16.00,2.00 L17.00,2.00 L18.00,2.00 L19.00,2.00 L20.00,2.00 "/>
    <path fill-rule="evenodd" style="fill: none; stroke: rgb(0, 0, 0); stroke-width: 0.2;" d="M57.00,37.00 L56.90,36.00 L56.58,35.00 L56.00,34.00 L55.00,33.00 L54.00,32.42 L53.00,32.10 L52.00,32.00 L51.00,32.10 L50.00,32.42 L49.00,33.00 L48.00,34.00 L47.42,35.00 L47.10,36.00 L47.00,37.00 L47.10,38.00 L47.42,39.00 L48.00,40.00 L49.00,41.00 L50.00,41.58 L51.00,41.90 L52.00,42.00 L53.00,41.90 L54.00,41.58 L55.00,41.00 L56.00,40.00 L56.58,39.00 L56.90,38.00 L57.00,37.00 "/>
    <path fill-rule="evenodd" style="fill: none; stroke: rgb(0, 0, 0); stroke-width: 0.2;" d="M42.00,52.00 L41.90,51.00 L41.58,50.00 L41.00,49.00 L40.00,48.00 L39.00,47.42 L38.00,47.10 L37.00,47.00 L36.00,47.10 L35.00,47.42 L34.00,48.00 L33.00,49.00 L32.42,50.00 L32.10,51.00 L32.00,52.00 L32.10,53.00 L32.42,54.00 L33.00,55.00 L34.00,56.00 L35.00,56.58 L36.00,56.90 L37.00,57.00 L38.00,56.90 L39.00,56.58 L40.00,56.00 L41.00,55.00 L41.58,54.00 L41.90,53.00 L42.00,52.00 "/>
    <path fill-rule="evenodd" style="fill: none; stroke: rgb(0, 0, 0); stroke-width: 0.2;" d="M21.00,17.10 L20.00,17.42 L19.00,18.00 L18.00,19.00 L17.42,20.00 L17.10,21.00 L17.00,22.00 L17.10,23.00 L17.42,24.00 L18.00,25.00 L19.00,26.00 L20.00,26.58 L21.00,26.90 L22.00,27.00 L23.00,26.90 L24.00,26.58 L25.00,26.00 L26.00,25.00 L26.58,24.00 L26.90,23.00 L27.00,22.00 L26.90,21.00 L26.58,20.00 L26.00,19.00 L25.00,18.00 L24.00,17.42 L23.00,17.10 L22.00,17.00 L21.00,17.10 "/>
    <path fill-rule="evenodd" style="fill: none; stroke: rgb(255, 0, 0); stroke-width: 0.2;" d="M2.00,54.00 L3.00,55.00 L4.00,56.00 L5.00,56.58 L6.00,56.90 L7.00,57.00 L8.00,56.90 L9.00,56.58 L10.00,56.00 L11.00,55.00 L11.58,54.00 L11.90,53.00 L12.00,52.00 L11.90,51.00 L11.58,50.00 L11.00,49.00 L10.00,48.00 L9.00,47.42 L8.00,47.10 L7.00,47.00 L6.00,47.10 L5.00,47.42 L4.00,48.00 L3.00,49.00 L2.00,50.00 "/>
    <path fill-rule="evenodd" style="fill: none; stroke: rgb(0, 0, 0); stroke-width: 0.2;" d="M35.00,26.58 L36.00,26.90 L37.00,27.00 L38.00,26.90 L39.00,26.58 L40.00,26.00 L41.00,25.00 L41.58,24.00 L41.90,23.00 L42.00,22.00 L41.90,21.00 L41.58,20.00 L41.00,19.00 L40.00,18.00 L39.00,17.42 L38.00,17.10 L37.00,17.00 L36.00,17.10 L35.00,17.42 L34.00,18.00 L33.00,19.00 L32.42,20.00 L32.10,21.00 L32.00,22.00 L32.10,23.00 L32.42,24.00 L33.00,25.00 L34.00,26.00 L35.00,26.58 "/>
    <path fill-rule="evenodd" style="fill: none; stroke: rgb(0, 0, 0); stroke-width: 0.2;" d="M18.00,34.00 L17.42,35.00 L17.10,36.00 L17.00,37.00 L17.10,38.00 L17.42,39.00 L18.00,40.00 L19.00,41.00 L20.00,41.58 L21.00,41.90 L22.00,42.00 L23.00,41.90 L24.00,41.58 L25.00,41.00 L26.00,40.00 L26.58,39.00 L26.90,38.00 L27.00,37.00 L26.90,36.00 L26.58,35.00 L26.00,34.00 L25.00,33.00 L24.00,32.42 L23.00,32.10 L22.00,32.00 L21.00,32.10 L20.00,32.42 L19.00,33.00 L18.00,34.00 "/>
    <path fill-rule="evenodd" style="fill: none; stroke: rgb(0, 0, 0); stroke-width: 0.2;" d="M27.00,52.00 L26.90,51.00 L26.58,50.00 L26.00,49.00 L25.00,48.00 L24.00,47.42 L23.00,47.10 L22.00,47.00 L21.00,47.10 L20.00,47.42 L19.00,48.00 L18.00,49.00 L17.42,50.00 L17.10,51.00 L17.00,52.00 L17.10,53.00 L17.42,54.00 L18.00,55.00 L19.00,56.00 L20.00,56.58 L21.00,56.90 L22.00,57.00 L23.00,56.90 L24.00,56.58 L25.00,56.00 L26.00,55.00 L26.58,54.00 L26.90,53.00 L27.00,52.00 "/>
    <path fill-rule="evenodd" style="fill: none; stroke: rgb(255, 0, 0); stroke-width: 0.2;" d="M24.00,2.00 L25.00,2.00 L26.00,2.00 L27.00,2.00 L28.00,2.00 L29.00,2.00 L30.00,2.00 L31.00,2.00 L32.00,2.00 L33.00,2.00 L34.00,2.00 L35.00,2.00 "/>
    <path fill-rule="evenodd" style="fill: none; stroke: rgb(0, 0, 0); stroke-width: 0.2;" d="M40.00,33.00 L39.00,32.42 L38.00,32.10 L37.00,32.00 L36.00,32.10 L35.00,32.42 L34.00,33.00 L33.00,34.00 L32.42,35.00 L32.10,36.00 L32.00,37.00 L32.10,38.00 L32.42,39.00 L33.00,40.00 L34.00,41.00 L35.00,41.58 L36.00,41.90 L37.00,42.00 L38.00,41.90 L39.00,41.58 L40.00,41.00 L41.00,40.00 L41.58,39.00 L41.90,38.00 L42.00,37.00 L41.90,36.00 L41.58,35.00 L41.00,34.00 L40.00,33.00 "/>
    <path fill-rule="evenodd" style="fill: none; stroke: rgb(255, 0, 0); stroke-width: 0.2;" d="M2.00,5.00 L2.00,4.00 L2.00,3.00 L2.00,2.00 L3.00,2.00 L4.00,2.00 L5.00,2.00 "/>
    <path fill-rule="evenodd" style="fill: none; stroke: rgb(255, 0, 0); stroke-width: 0.2;" d="M2.00,20.00 L2.00,19.00 L2.00,18.00 L2.00,17.00 L2.00,16.00 L2.00,15.00 L2.00,14.00 L2.00,13.00 L2.00,12.00 L2.00,11.00 L2.00,10.00 L2.00,9.00 "/>
    <path fill-rule="evenodd" style="fill: none; stroke: rgb(255, 0, 0); stroke-width: 0.2;" d="M2.00,50.00 L2.00,51.00 L2.00,52.00 L2.00,53.00 L2.00,54.00 "/>
    <path fill-rule="evenodd" style="fill: none; stroke: rgb(255, 0, 0); stroke-width: 0.2;" d="M39.00,2.00 L40.00,2.00 L41.00,2.00 L42.00,2.00 L43.00,2.00 L44.00,2.00 L45.00,2.00 L46.00,2.00 L47.00,2.00 L48.00,2.00 L49.00,2.00 L50.00,2.00 "/>
    <path fill-rule="evenodd" style="fill: none; stroke: rgb(255, 0, 0); stroke-width: 0.2;" d="M20.00,2.00 L21.00,2.00 L22.00,2.00 L23.00,2.00 L24.00,2.00 "/>
    <path fill-rule="evenodd" style="fill: none; stroke: rgb(255, 0, 0); stroke-width: 0.2;" d="M5.00,2.00 L4.00,3.00 L3.00,4.00 L2.00,5.00 "/>
    <path fill-rule="evenodd" style="fill: none; stroke: rgb(255, 0, 0); stroke-width: 0.2;" d="M2.00,9.00 L2.00,8.00 L2.00,7.00 L2.00,6.00 L2.00,5.00 "/>
    <path fill-rule="evenodd" style="fill: none; stroke: rgb(255, 0, 0); stroke-width: 0.2;" d="M5.00,2.00 L6.00,2.00 L7.00,2.00 L8.00,2.00 L9.00,2.00 "/>
    <path fill-rule="evenodd" style="fill: none; stroke: rgb(255, 0, 0); stroke-width: 0.2;" d="M50.00,2.00 L51.00,2.00 L52.00,2.00 L53.00,2.00 L54.00,2.00 "/>
    <path fill-rule="evenodd" style="fill: none; stroke: rgb(255, 0, 0); stroke-width: 0.2;" d="M35.00,2.00 L36.00,2.00 L37.00,2.00 L38.00,2.00 L39.00,2.00 "/>
    <path fill-rule="evenodd" style="fill: none; stroke: rgb(255, 0, 0); stroke-width: 0.2;" d="M2.00,24.00 L2.00,23.00 L2.00,22.00 L2.00,21.00 L2.00,20.00 "/>
    <path fill-rule="evenodd" style="fill: none; stroke: rgb(255, 0, 0); stroke-width: 0.2;" d="M38.00,2.00 L37.00,2.00 "/>

<script>
let svgs = document.children[0];
let paths = Array.from(svgs.children).filter(function(c) {
    var orig = c.style.stroke;
    c.onmouseover = function() {
        c.style.stroke = "rgb(0, 0, 255)";
    };
    c.onmouseout = function () {
        c.style.stroke = orig;
    };
    c.onclick = function () {
        svgs.removeChild()
    }
});

for (let path of paths) {
    console.log(path);
}
</script></svg>