<svg xmlns="http://www.w3.org/2000/svg">
    <path fill-rule="evenodd" style="fill: none; stroke: rgb(255, 0, 0); stroke-width: 0.2;" d="M191.18,33.00 L191.00,33.39 "/>
    <path fill-rule="evenodd" style="fill: none; stroke: rgb(255, 0, 0); stroke-width: 0.2;" d="M123.00,51.82 L122.76,51.00 L122.67,50.00 L122.76,49.00 L123.00,48.18 "/>
    <path fill-rule="evenodd" style="fill: none; stroke: rgb(0, 0, 0); stroke-width: 0.2;" d="M149.71,19.00 L150.00,20.00 L149.71,21.00 L149.00,21.71 L148.00,22.00 L147.00,21.71 L146.29,21.00 L146.00,20.00 L146.29,19.00 L147.00,18.29 L148.00,18.00 L149.00,18.29 L149.71,19.00 "/>
    <path fill-rule="evenodd" style="fill: none; stroke: rgb(255, 0, 0); stroke-width: 0.2;" d="M183.06,48.00 L183.60,47.00 L183.79,46.00 L183.44,45.00 L183.33,44.00 L183.44,43.00 L183.79,42.00 L184.00,41.63 L184.44,41.00 L184.54,40.00 L184.13,39.00 L184.00,38.00 L184.13,37.00 L184.54,36.00 L185.00,35.38 L185.38,35.00 L185.35,34.00 L185.00,33.39 L184.82,33.00 L184.67,32.00 L184.82,31.00 L185.00,30.61 L185.35,30.00 L186.00,29.35 L186.61,29.00 L186.27,28.00 L186.00,27.73 L185.54,27.00 L185.33,26.00 L185.54,25.00 L186.00,24.27 L186.27,24.00 L187.00,23.54 L188.00,23.33 L189.00,23.54 L189.73,24.00 L190.00,24.27 L190.46,25.00 L190.67,26.00 L190.46,27.00 L190.00,27.73 L189.73,28.00 L189.39,29.00 L190.00,29.35 L190.65,30.00 L191.00,30.61 L191.18,31.00 L191.33,32.00 L191.18,33.00 "/>
    <path fill-rule="evenodd" style="fill: none; stroke: rgb(255, 0, 0); stroke-width: 0.2;" d="M73.00,48.18 L73.24,49.00 L73.33,50.00 L73.24,51.00 L73.00,51.82 "/>
    <path fill-rule="evenodd" style="fill: none; stroke: rgb(255, 0, 0); stroke-width: 0.2;" d="M23.06,48.00 L23.60,47.00 L23.79,46.00 L23.44,45.00 L23.33,44.00 L23.44,43.00 L23.79,42.00 L24.00,41.63 L24.44,41.00 L24.54,40.00 L24.13,39.00 L24.00,38.00 L24.13,37.00 L24.54,36.00 L25.00,35.38 L25.38,35.00 L25.35,34.00 L25.00,33.39 L24.82,33.00 L24.67,32.00 L24.82,31.00 L25.00,30.61 L25.35,30.00 L26.00,29.35 L26.61,29.00 L26.27,28.00 L26.00,27.73 L25.54,27.00 L25.33,26.00 L25.54,25.00 L26.00,24.27 L26.27,24.00 L27.00,23.54 L28.00,23.33 L29.00,23.54 L29.73,24.00 L30.00,24.27 L30.46,25.00 L30.67,26.00 L30.46,27.00 L30.00,27.73 L29.73,28.00 L29.39,29.00 L30.00,29.35 L30.65,30.00 L31.00,30.61 L31.18,31.00 L31.33,32.00 L31.18,33.00 L31.00,33.39 L30.65,34.00 L30.62,35.00 L31.00,35.38 L31.46,36.00 L31.87,37.00 L32.00,38.00 L31.87,39.00 L31.46,40.00 L31.56,41.00 L32.00,41.63 L32.21,42.00 L32.56,43.00 L32.67,44.00 L32.56,45.00 L32.21,46.00 L32.40,47.00 L32.94,48.00 "/>
    <path fill-rule="evenodd" style="fill: none; stroke: rgb(255, 0, 0); stroke-width: 0.2;" d="M143.06,48.00 L143.60,47.00 L143.79,46.00 L143.44,45.00 L143.33,44.00 L143.44,43.00 L143.79,42.00 L144.00,41.63 L144.44,41.00 L144.54,40.00 L144.13,39.00 L144.00,38.00 L144.13,37.00 L144.54,36.00 L145.00,35.38 L145.38,35.00 L145.35,34.00 L145.00,33.39 L144.82,33.00 L144.67,32.00 L144.82,31.00 L145.00,30.61 L145.35,30.00 L146.00,29.35 L146.61,29.00 L146.27,28.00 L146.00,27.73 L145.54,27.00 L145.33,26.00 L145.54,25.00 L146.00,24.27 L146.27,24.00 L147.00,23.54 L148.00,23.33 L149.00,23.54 L149.73,24.00 L150.00,24.27 L150.46,25.00 L150.67,26.00 L150.46,27.00 L150.00,27.73 L149.73,28.00 L149.39,29.00 L150.00,29.35 L150.65,30.00 L151.00,30.61 L151.18,31.00 L151.33,32.00 L151.18,33.00 L151.00,33.39 L150.65,34.00 L150.62,35.00 L151.00,35.38 L151.46,36.00 L151.87,37.00 L152.00,38.00 L151.87,39.00 L151.46,40.00 L151.56,41.00 L152.00,41.63 L152.21,42.00 L152.56,43.00 L152.67,44.00 L152.56,45.00 L152.21,46.00 L152.40,47.00 L152.94,48.00 "/>
    <path fill-rule="evenodd" style="fill: none; stroke: rgb(255, 0, 0); stroke-width: 0.2;" d="M53.00,52.23 L53.19,53.00 L53.65,54.00 L53.92,55.00 L54.00,56.00 L53.92,57.00 L53.65,58.00 L53.19,59.00 L53.00,59.30 L52.46,60.00 L52.00,60.46 L51.30,61.00 L51.00,61.19 L50.00,61.65 L49.00,61.92 L48.00,62.00 L47.00,61.92 L46.00,61.65 L45.00,61.19 L44.70,61.00 L44.00,60.46 L43.54,60.00 L43.00,59.30 L42.81,59.00 L42.35,58.00 L42.08,57.00 L42.00,56.00 L42.08,55.00 L42.35,54.00 L42.81,53.00 L43.00,52.23 "/>
    <path fill-rule="evenodd" style="fill: none; stroke: rgb(0, 0, 0); stroke-width: 0.2;" d="M108.00,8.67 L107.33,8.00 L108.00,7.33 L108.67,8.00 L108.00,8.67 "/>
    <path fill-rule="evenodd" style="fill: none; stroke: rgb(255, 0, 0); stroke-width: 0.2;" d="M43.06,48.00 L43.60,47.00 L43.79,46.00 L43.44,45.00 L43.33,44.00 L43.44,43.00 L43.79,42.00 L44.00,41.63 L44.44,41.00 L44.54,40.00 L44.13,39.00 L44.00,38.00 L44.13,37.00 L44.54,36.00 L45.00,35.38 L45.38,35.00 L45.35,34.00 L45.00,33.39 L44.82,33.00 L44.67,32.00 L44.82,31.00 L45.00,30.61 L45.35,30.00 L46.00,29.35 L46.61,29.00 L46.27,28.00 L46.00,27.73 L45.54,27.00 L45.33,26.00 L45.54,25.00 L46.00,24.27 L46.27,24.00 L47.00,23.54 L48.00,23.33 L49.00,23.54 L49.73,24.00 L50.00,24.27 L50.46,25.00 L50.67,26.00 L50.46,27.00 L50.00,27.73 L49.73,28.00 L49.39,29.00 L50.00,29.35 L50.65,30.00 L51.00,30.61 L51.18,31.00 L51.33,32.00 L51.18,33.00 L51.00,33.39 L50.65,34.00 L50.62,35.00 L51.00,35.38 L51.46,36.00 L51.87,37.00 L52.00,38.00 L51.87,39.00 L51.46,40.00 L51.56,41.00 L52.00,41.63 L52.21,42.00 L52.56,43.00 L52.67,44.00 L52.56,45.00 L52.21,46.00 L52.40,47.00 L52.94,48.00 "/>
    <path fill-rule="evenodd" style="fill: none; stroke: rgb(255, 0, 0); stroke-width: 0.2;" d="M73.00,52.23 L73.19,53.00 L73.65,54.00 L73.92,55.00 L74.00,56.00 L73.92,57.00 L73.65,58.00 L73.19,59.00 L73.00,59.30 L72.46,60.00 L72.00,60.46 L71.30,61.00 L71.00,61.19 L70.00,61.65 L69.00,61.92 L68.00,62.00 L67.00,61.92 L66.00,61.65 L65.00,61.19 L64.70,61.00 L64.00,60.46 L63.54,60.00 L63.00,59.30 L62.81,59.00 L62.35,58.00 L62.08,57.00 L62.00,56.00 L62.08,55.00 L62.35,54.00 L62.81,53.00 L63.00,52.23 "/>
    <path fill-rule="evenodd" style="fill: none; stroke: rgb(255, 0, 0); stroke-width: 0.2;" d="M113.00,48.18 L113.24,49.00 L113.33,50.00 L113.24,51.00 L113.00,51.82 "/>
    <path fill-rule="evenodd" style="fill: none; stroke: rgb(255, 0, 0); stroke-width: 0.2;" d="M113.00,52.23 L113.19,53.00 L113.65,54.00 L113.92,55.00 L114.00,56.00 L113.92,57.00 L113.65,58.00 L113.19,59.00 L113.00,59.30 L112.46,60.00 L112.00,60.46 L111.30,61.00 L111.00,61.19 L110.00,61.65 L109.00,61.92 L108.00,62.00 L107.00,61.92 L106.00,61.65 L105.00,61.19 L104.70,61.00 L104.00,60.46 L103.54,60.00 L103.00,59.30 L102.81,59.00 L102.35,58.00 L102.08,57.00 L102.00,56.00 L102.08,55.00 L102.35,54.00 L102.81,53.00 L103.00,52.23 "/>
    <path fill-rule="evenodd" style="fill: none; stroke: rgb(255, 0, 0); stroke-width: 0.2;" d="M128.80,15.00 L128.00,15.33 L127.20,15.00 "/>
    <path fill-rule="evenodd" style="fill: none; stroke: rgb(255, 0, 0); stroke-width: 0.2;" d="M112.94,48.00 L113.00,48.18 "/>
    <path fill-rule="evenodd" style="fill: none; stroke: rgb(255, 0, 0); stroke-width: 0.2;" d="M3.06,48.00 L3.60,47.00 L3.79,46.00 L3.44,45.00 L3.33,44.00 L3.44,43.00 L3.79,42.00 L4.00,41.63 L4.44,41.00 L4.54,40.00 L4.13,39.00 L4.00,38.00 L4.13,37.00 L4.54,36.00 L5.00,35.38 L5.38,35.00 L5.35,34.00 L5.00,33.39 L4.82,33.00 L4.67,32.00 L4.82,31.00 L5.00,30.61 L5.35,30.00 L6.00,29.35 L6.61,29.00 L6.27,28.00 L6.00,27.73 L5.54,27.00 L5.33,26.00 L5.54,25.00 L6.00,24.27 L6.27,24.00 L7.00,23.54 L8.00,23.33 L9.00,23.54 L9.73,24.00 L10.00,24.27 L10.46,25.00 L10.67,26.00 L10.46,27.00 L10.00,27.73 L9.73,28.00 L9.39,29.00 L10.00,29.35 L10.65,30.00 L11.00,30.61 L11.18,31.00 L11.33,32.00 L11.18,33.00 L11.00,33.39 L10.65,34.00 L10.62,35.00 L11.00,35.38 L11.46,36.00 L11.87,37.00 L12.00,38.00 L11.87,39.00 L11.46,40.00 L11.56,41.00 L12.00,41.63 L12.21,42.00 L12.56,43.00 L12.67,44.00 L12.56,45.00 L12.21,46.00 L12.40,47.00 L12.94,48.00 "/>
    <path fill-rule="evenodd" style="fill: none; stroke: rgb(255, 0, 0); stroke-width: 0.2;" d="M189.00,13.20 L189.33,14.00 L189.00,14.80 "/>
    <path fill-rule="evenodd" style="fill: none; stroke: rgb(0, 0, 0); stroke-width: 0.2;" d="M148.67,8.00 L148.00,8.67 L147.33,8.00 L148.00,7.33 L148.67,8.00 "/>
    <path fill-rule="evenodd" style="fill: none; stroke: rgb(255, 0, 0); stroke-width: 0.2;" d="M183.00,52.23 L183.06,52.00 "/>
    <path fill-rule="evenodd" style="fill: none; stroke: rgb(255, 0, 0); stroke-width: 0.2;" d="M189.00,14.80 L188.80,15.00 "/>
    <path fill-rule="evenodd" style="fill: none; stroke: rgb(255, 0, 0); stroke-width: 0.2;" d="M133.00,52.23 L133.19,53.00 L133.65,54.00 L133.92,55.00 L134.00,56.00 L133.92,57.00 L133.65,58.00 L133.19,59.00 L133.00,59.30 L132.46,60.00 L132.00,60.46 L131.30,61.00 L131.00,61.19 L130.00,61.65 L129.00,61.92 L128.00,62.00 L127.00,61.92 L126.00,61.65 L125.00,61.19 L124.70,61.00 L124.00,60.46 L123.54,60.00 L123.00,59.30 L122.81,59.00 L122.35,58.00 L122.08,57.00 L122.00,56.00 L122.08,55.00 L122.35,54.00 L122.81,53.00 L123.00,52.23 "/>
    <path fill-rule="evenodd" style="fill: none; stroke: rgb(255, 0, 0); stroke-width: 0.2;" d="M123.06,48.00 L123.60,47.00 L123.79,46.00 L123.44,45.00 L123.33,44.00 L123.44,43.00 L123.79,42.00 L124.00,41.63 L124.44,41.00 L124.54,40.00 L124.13,39.00 L124.00,38.00 L124.13,37.00 L124.54,36.00 L125.00,35.38 L125.38,35.00 L125.35,34.00 L125.00,33.39 L124.82,33.00 L124.67,32.00 L124.82,31.00 L125.00,30.61 L125.35,30.00 L126.00,29.35 L126.61,29.00 L126.27,28.00 L126.00,27.73 L125.54,27.00 L125.33,26.00 L125.54,25.00 L126.00,24.27 L126.27,24.00 L127.00,23.54 L128.00,23.33 L129.00,23.54 L129.73,24.00 L130.00,24.27 L130.46,25.00 L130.67,26.00 L130.46,27.00 L130.00,27.73 L129.73,28.00 L129.39,29.00 L130.00,29.35 L130.65,30.00 L131.00,30.61 L131.18,31.00 L131.33,32.00 L131.18,33.00 L131.00,33.39 L130.65,34.00 L130.62,35.00 L131.00,35.38 L131.46,36.00 L131.87,37.00 L132.00,38.00 L131.87,39.00 L131.46,40.00 L131.56,41.00 L132.00,41.63 L132.21,42.00 L132.56,43.00 L132.67,44.00 L132.56,45.00 L132.21,46.00 L132.40,47.00 L132.94,48.00 "/>
    <path fill-rule="evenodd" style="fill: none; stroke: rgb(255, 0, 0); stroke-width: 0.2;" d="M71.18,33.00 L71.00,33.39 "/>
    <path fill-rule="evenodd" style="fill: none; stroke: rgb(0, 0, 0); stroke-width: 0.2;" d="M8.67,8.00 L8.00,8.67 L7.33,8.00 L8.00,7.33 L8.67,8.00 "/>
    <path fill-rule="evenodd" style="fill: none; stroke: rgb(255, 0, 0); stroke-width: 0.2;" d="M49.00,14.80 L48.80,15.00 "/>
    <path fill-rule="evenodd" style="fill: none; stroke: rgb(255, 0, 0); stroke-width: 0.2;" d="M91.18,33.00 L91.00,33.39 "/>
    <path fill-rule="evenodd" style="fill: none; stroke: rgb(255, 0, 0); stroke-width: 0.2;" d="M63.00,48.18 L63.06,48.00 "/>
    <path fill-rule="evenodd" style="fill: none; stroke: rgb(255, 0, 0); stroke-width: 0.2;" d="M83.06,48.00 L83.60,47.00 L83.79,46.00 L83.44,45.00 L83.33,44.00 L83.44,43.00 L83.79,42.00 L84.00,41.63 L84.44,41.00 L84.54,40.00 L84.13,39.00 L84.00,38.00 L84.13,37.00 L84.54,36.00 L85.00,35.38 L85.38,35.00 L85.35,34.00 L85.00,33.39 L84.82,33.00 L84.67,32.00 L84.82,31.00 L85.00,30.61 L85.35,30.00 L86.00,29.35 L86.61,29.00 L86.27,28.00 L86.00,27.73 L85.54,27.00 L85.33,26.00 L85.54,25.00 L86.00,24.27 L86.27,24.00 L87.00,23.54 L88.00,23.33 L89.00,23.54 L89.73,24.00 L90.00,24.27 L90.46,25.00 L90.67,26.00 L90.46,27.00 L90.00,27.73 L89.73,28.00 L89.39,29.00 L90.00,29.35 L90.65,30.00 L91.00,30.61 L91.18,31.00 L91.33,32.00 L91.18,33.00 "/>
    <path fill-rule="evenodd" style="fill: none; stroke: rgb(255, 0, 0); stroke-width: 0.2;" d="M187.20,13.00 L188.00,12.67 L188.80,13.00 "/>
    <path fill-rule="evenodd" style="fill: none; stroke: rgb(0, 0, 0); stroke-width: 0.2;" d="M167.00,21.71 L166.29,21.00 L166.00,20.00 L166.29,19.00 L167.00,18.29 L168.00,18.00 L169.00,18.29 L169.71,19.00 L170.00,20.00 L169.71,21.00 L169.00,21.71 L168.00,22.00 L167.00,21.71 "/>
    <path fill-rule="evenodd" style="fill: none; stroke: rgb(255, 0, 0); stroke-width: 0.2;" d="M173.00,48.18 L173.24,49.00 L173.33,50.00 L173.24,51.00 L173.00,51.82 "/>
    <path fill-rule="evenodd" style="fill: none; stroke: rgb(255, 0, 0); stroke-width: 0.2;" d="M12.94,52.00 L13.00,52.23 "/>
    <path fill-rule="evenodd" style="fill: none; stroke: rgb(255, 0, 0); stroke-width: 0.2;" d="M33.00,52.23 L33.19,53.00 L33.65,54.00 L33.92,55.00 L34.00,56.00 L33.92,57.00 L33.65,58.00 L33.19,59.00 L33.00,59.30 L32.46,60.00 L32.00,60.46 L31.30,61.00 L31.00,61.19 L30.00,61.65 L29.00,61.92 L28.00,62.00 L27.00,61.92 L26.00,61.65 L25.00,61.19 L24.70,61.00 L24.00,60.46 L23.54,60.00 L23.00,59.30 L22.81,59.00 L22.35,58.00 L22.08,57.00 L22.00,56.00 L22.08,55.00 L22.35,54.00 L22.81,53.00 L23.00,52.23 "/>
    <path fill-rule="evenodd" style="fill: none; stroke: rgb(0, 0, 0); stroke-width: 0.2;" d="M48.00,22.00 L47.00,21.71 L46.29,21.00 L46.00,20.00 L46.29,19.00 L47.00,18.29 L48.00,18.00 L49.00,18.29 L49.71,19.00 L50.00,20.00 L49.71,21.00 L49.00,21.71 L48.00,22.00 "/>
    <path fill-rule="evenodd" style="fill: none; stroke: rgb(255, 0, 0); stroke-width: 0.2;" d="M103.06,48.00 L103.60,47.00 L103.79,46.00 L103.44,45.00 L103.33,44.00 L103.44,43.00 L103.79,42.00 L104.00,41.63 L104.44,41.00 L104.54,40.00 L104.13,39.00 L104.00,38.00 L104.13,37.00 L104.54,36.00 L105.00,35.38 L105.38,35.00 L105.35,34.00 L105.00,33.39 L104.82,33.00 L104.67,32.00 L104.82,31.00 L105.00,30.61 L105.35,30.00 L106.00,29.35 L106.61,29.00 L106.27,28.00 L106.00,27.73 L105.54,27.00 L105.33,26.00 L105.54,25.00 L106.00,24.27 L106.27,24.00 L107.00,23.54 L108.00,23.33 L109.00,23.54 L109.73,24.00 L110.00,24.27 L110.46,25.00 L110.67,26.00 L110.46,27.00 L110.00,27.73 L109.73,28.00 L109.39,29.00 L110.00,29.35 L110.65,30.00 L111.00,30.61 L111.18,31.00 L111.33,32.00 L111.18,33.00 L111.00,33.39 L110.65,34.00 L110.62,35.00 L111.00,35.38 L111.46,36.00 L111.87,37.00 L112.00,38.00 L111.87,39.00 L111.46,40.00 L111.56,41.00 L112.00,41.63 L112.21,42.00 L112.56,43.00 L112.67,44.00 L112.56,45.00 L112.21,46.00 L112.40,47.00 L112.94,48.00 "/>
    <path fill-rule="evenodd" style="fill: none; stroke: rgb(255, 0, 0); stroke-width: 0.2;" d="M13.00,52.23 L13.19,53.00 L13.65,54.00 L13.92,55.00 L14.00,56.00 L13.92,57.00 L13.65,58.00 L13.19,59.00 L13.00,59.30 L12.46,60.00 L12.00,60.46 L11.30,61.00 L11.00,61.19 L10.00,61.65 L9.00,61.92 L8.00,62.00 L7.00,61.92 L6.00,61.65 L5.00,61.19 L4.70,61.00 L4.00,60.46 L3.54,60.00 L3.00,59.30 L2.81,59.00 L2.35,58.00 L2.08,57.00 L2.00,56.00 L2.08,55.00 L2.35,54.00 L2.81,53.00 L3.00,52.23 "/>
    <path fill-rule="evenodd" style="fill: none; stroke: rgb(0, 0, 0); stroke-width: 0.2;" d="M110.00,20.00 L109.71,21.00 L109.00,21.71 L108.00,22.00 L107.00,21.71 L106.29,21.00 L106.00,20.00 L106.29,19.00 L107.00,18.29 L108.00,18.00 L109.00,18.29 L109.71,19.00 L110.00,20.00 "/>
    <path fill-rule="evenodd" style="fill: none; stroke: rgb(255, 0, 0); stroke-width: 0.2;" d="M153.00,52.23 L153.19,53.00 L153.65,54.00 L153.92,55.00 L154.00,56.00 L153.92,57.00 L153.65,58.00 L153.19,59.00 L153.00,59.30 L152.46,60.00 L152.00,60.46 L151.30,61.00 L151.00,61.19 L150.00,61.65 L149.00,61.92 L148.00,62.00 L147.00,61.92 L146.00,61.65 L145.00,61.19 L144.70,61.00 L144.00,60.46 L143.54,60.00 L143.00,59.30 L142.81,59.00 L142.35,58.00 L142.08,57.00 L142.00,56.00 L142.08,55.00 L142.35,54.00 L142.81,53.00 L143.00,52.23 "/>
    <path fill-rule="evenodd" style="fill: none; stroke: rgb(255, 0, 0); stroke-width: 0.2;" d="M193.00,48.18 L193.24,49.00 L193.33,50.00 L193.24,51.00 L193.00,51.82 "/>
    <path fill-rule="evenodd" style="fill: none; stroke: rgb(255, 0, 0); stroke-width: 0.2;" d="M33.00,48.18 L33.24,49.00 L33.33,50.00 L33.24,51.00 L33.00,51.82 "/>
    <path fill-rule="evenodd" style="fill: none; stroke: rgb(255, 0, 0); stroke-width: 0.2;" d="M103.00,48.18 L103.06,48.00 "/>
    <path fill-rule="evenodd" style="fill: none; stroke: rgb(255, 0, 0); stroke-width: 0.2;" d="M163.06,48.00 L163.60,47.00 L163.79,46.00 L163.44,45.00 L163.33,44.00 L163.44,43.00 L163.79,42.00 L164.00,41.63 L164.44,41.00 L164.54,40.00 L164.13,39.00 L164.00,38.00 L164.13,37.00 L164.54,36.00 L165.00,35.38 L165.38,35.00 L165.35,34.00 L165.00,33.39 L164.82,33.00 L164.67,32.00 L164.82,31.00 L165.00,30.61 L165.35,30.00 L166.00,29.35 L166.61,29.00 L166.27,28.00 L166.00,27.73 L165.54,27.00 L165.33,26.00 L165.54,25.00 L166.00,24.27 L166.27,24.00 L167.00,23.54 L168.00,23.33 L169.00,23.54 L169.73,24.00 L170.00,24.27 L170.46,25.00 L170.67,26.00 L170.46,27.00 L170.00,27.73 L169.73,28.00 L169.39,29.00 L170.00,29.35 L170.65,30.00 L171.00,30.61 L171.18,31.00 L171.33,32.00 L171.18,33.00 L171.00,33.39 L170.65,34.00 L170.62,35.00 L171.00,35.38 L171.46,36.00 L171.87,37.00 L172.00,38.00 L171.87,39.00 L171.46,40.00 L171.56,41.00 L172.00,41.63 L172.21,42.00 L172.56,43.00 L172.67,44.00 L172.56,45.00 L172.21,46.00 L172.40,47.00 L172.94,48.00 "/>
    <path fill-rule="evenodd" style="fill: none; stroke: rgb(0, 0, 0); stroke-width: 0.2;" d="M47.33,8.00 L48.00,7.33 L48.67,8.00 L48.00,8.67 L47.33,8.00 "/>
    <path fill-rule="evenodd" style="fill: none; stroke: rgb(255, 0, 0); stroke-width: 0.2;" d="M103.00,51.82 L102.76,51.00 L102.67,50.00 L102.76,49.00 L103.00,48.18 "/>
    <path fill-rule="evenodd" style="fill: none; stroke: rgb(255, 0, 0); stroke-width: 0.2;" d="M109.00,13.20 L109.33,14.00 L109.00,14.80 "/>
    <path fill-rule="evenodd" style="fill: none; stroke: rgb(0, 0, 0); stroke-width: 0.2;" d="M67.00,21.71 L66.29,21.00 L66.00,20.00 L66.29,19.00 L67.00,18.29 L68.00,18.00 L69.00,18.29 L69.71,19.00 L70.00,20.00 L69.71,21.00 L69.00,21.71 L68.00,22.00 L67.00,21.71 "/>
    <path fill-rule="evenodd" style="fill: none; stroke: rgb(255, 0, 0); stroke-width: 0.2;" d="M107.20,15.00 L107.00,14.80 "/>
    <path fill-rule="evenodd" style="fill: none; stroke: rgb(255, 0, 0); stroke-width: 0.2;" d="M129.00,14.80 L128.80,15.00 "/>
    <path fill-rule="evenodd" style="fill: none; stroke: rgb(0, 0, 0); stroke-width: 0.2;" d="M188.00,22.00 L187.00,21.71 L186.29,21.00 L186.00,20.00 L186.29,19.00 L187.00,18.29 L188.00,18.00 L189.00,18.29 L189.71,19.00 L190.00,20.00 L189.71,21.00 L189.00,21.71 L188.00,22.00 "/>
    <path fill-rule="evenodd" style="fill: none; stroke: rgb(255, 0, 0); stroke-width: 0.2;" d="M173.00,52.23 L173.19,53.00 L173.65,54.00 L173.92,55.00 L174.00,56.00 L173.92,57.00 L173.65,58.00 L173.19,59.00 L173.00,59.30 L172.46,60.00 L172.00,60.46 L171.30,61.00 L171.00,61.19 L170.00,61.65 L169.00,61.92 L168.00,62.00 L167.00,61.92 L166.00,61.65 L165.00,61.19 L164.70,61.00 L164.00,60.46 L163.54,60.00 L163.00,59.30 L162.81,59.00 L162.35,58.00 L162.08,57.00 L162.00,56.00 L162.08,55.00 L162.35,54.00 L162.81,53.00 L163.00,52.23 "/>
    <path fill-rule="evenodd" style="fill: none; stroke: rgb(255, 0, 0); stroke-width: 0.2;" d="M168.80,13.00 L169.00,13.20 "/>
    <path fill-rule="evenodd" style="fill: none; stroke: rgb(255, 0, 0); stroke-width: 0.2;" d="M93.00,52.23 L93.19,53.00 L93.65,54.00 L93.92,55.00 L94.00,56.00 L93.92,57.00 L93.65,58.00 L93.19,59.00 L93.00,59.30 L92.46,60.00 L92.00,60.46 L91.30,61.00 L91.00,61.19 L90.00,61.65 L89.00,61.92 L88.00,62.00 L87.00,61.92 L86.00,61.65 L85.00,61.19 L84.70,61.00 L84.00,60.46 L83.54,60.00 L83.00,59.30 L82.81,59.00 L82.35,58.00 L82.08,57.00 L82.00,56.00 L82.08,55.00 L82.35,54.00 L82.81,53.00 L83.00,52.23 "/>
    <path fill-rule="evenodd" style="fill: none; stroke: rgb(255, 0, 0); stroke-width: 0.2;" d="M63.06,48.00 L63.60,47.00 L63.79,46.00 L63.44,45.00 L63.33,44.00 L63.44,43.00 L63.79,42.00 L64.00,41.63 L64.44,41.00 L64.54,40.00 L64.13,39.00 L64.00,38.00 L64.13,37.00 L64.54,36.00 L65.00,35.38 L65.38,35.00 L65.35,34.00 L65.00,33.39 L64.82,33.00 L64.67,32.00 L64.82,31.00 L65.00,30.61 L65.35,30.00 L66.00,29.35 L66.61,29.00 L66.27,28.00 L66.00,27.73 L65.54,27.00 L65.33,26.00 L65.54,25.00 L66.00,24.27 L66.27,24.00 L67.00,23.54 L68.00,23.33 L69.00,23.54 L69.73,24.00 L70.00,24.27 L70.46,25.00 L70.67,26.00 L70.46,27.00 L70.00,27.73 L69.73,28.00 L69.39,29.00 L70.00,29.35 L70.65,30.00 L71.00,30.61 L71.18,31.00 L71.33,32.00 L71.18,33.00 "/>
    <path fill-rule="evenodd" style="fill: none; stroke: rgb(255, 0, 0); stroke-width: 0.2;" d="M91.00,33.39 L90.65,34.00 L90.62,35.00 L91.00,35.38 L91.46,36.00 L91.87,37.00 L92.00,38.00 L91.87,39.00 L91.46,40.00 L91.56,41.00 L92.00,41.63 L92.21,42.00 L92.56,43.00 L92.67,44.00 L92.56,45.00 L92.21,46.00 L92.40,47.00 L92.94,48.00 "/>
    <path fill-rule="evenodd" style="fill: none; stroke: rgb(0, 0, 0); stroke-width: 0.2;" d="M7.00,18.29 L8.00,18.00 L9.00,18.29 L9.71,19.00 L10.00,20.00 L9.71,21.00 L9.00,21.71 L8.00,22.00 L7.00,21.71 L6.29,21.00 L6.00,20.00 L6.29,19.00 L7.00,18.29 "/>
    <path fill-rule="evenodd" style="fill: none; stroke: rgb(0, 0, 0); stroke-width: 0.2;" d="M29.71,21.00 L29.00,21.71 L28.00,22.00 L27.00,21.71 L26.29,21.00 L26.00,20.00 L26.29,19.00 L27.00,18.29 L28.00,18.00 L29.00,18.29 L29.71,19.00 L30.00,20.00 L29.71,21.00 "/>
    <path fill-rule="evenodd" style="fill: none; stroke: rgb(255, 0, 0); stroke-width: 0.2;" d="M167.20,15.00 L167.00,14.80 "/>
    <path fill-rule="evenodd" style="fill: none; stroke: rgb(255, 0, 0); stroke-width: 0.2;" d="M29.00,13.20 L29.33,14.00 L29.00,14.80 "/>
    <path fill-rule="evenodd" style="fill: none; stroke: rgb(255, 0, 0); stroke-width: 0.2;" d="M27.20,15.00 L27.00,14.80 "/>
    <path fill-rule="evenodd" style="fill: none; stroke: rgb(255, 0, 0); stroke-width: 0.2;" d="M67.20,13.00 L68.00,12.67 L68.80,13.00 "/>
    <path fill-rule="evenodd" style="fill: none; stroke: rgb(255, 0, 0); stroke-width: 0.2;" d="M191.00,33.39 L190.65,34.00 L190.62,35.00 L191.00,35.38 L191.46,36.00 L191.87,37.00 L192.00,38.00 L191.87,39.00 L191.46,40.00 L191.56,41.00 L192.00,41.63 L192.21,42.00 L192.56,43.00 L192.67,44.00 L192.56,45.00 L192.21,46.00 L192.40,47.00 L192.94,48.00 "/>
    <path fill-rule="evenodd" style="fill: none; stroke: rgb(255, 0, 0); stroke-width: 0.2;" d="M123.00,52.23 L123.06,52.00 "/>
    <path fill-rule="evenodd" style="fill: none; stroke: rgb(255, 0, 0); stroke-width: 0.2;" d="M87.00,13.20 L87.20,13.00 "/>
    <path fill-rule="evenodd" style="fill: none; stroke: rgb(255, 0, 0); stroke-width: 0.2;" d="M73.00,51.82 L72.94,52.00 "/>
    <path fill-rule="evenodd" style="fill: none; stroke: rgb(0, 0, 0); stroke-width: 0.2;" d="M129.00,18.29 L129.71,19.00 L130.00,20.00 L129.71,21.00 L129.00,21.71 L128.00,22.00 L127.00,21.71 L126.29,21.00 L126.00,20.00 L126.29,19.00 L127.00,18.29 L128.00,18.00 L129.00,18.29 "/>
    <path fill-rule="evenodd" style="fill: none; stroke: rgb(255, 0, 0); stroke-width: 0.2;" d="M169.00,13.20 L169.33,14.00 L169.00,14.80 "/>
    <path fill-rule="evenodd" style="fill: none; stroke: rgb(255, 0, 0); stroke-width: 0.2;" d="M92.94,48.00 L93.00,48.18 "/>
    <path fill-rule="evenodd" style="fill: none; stroke: rgb(255, 0, 0); stroke-width: 0.2;" d="M93.00,51.82 L92.94,52.00 "/>
    <path fill-rule="evenodd" style="fill: none; stroke: rgb(0, 0, 0); stroke-width: 0.2;" d="M128.00,7.33 L128.67,8.00 L128.00,8.67 L127.33,8.00 L128.00,7.33 "/>
    <path fill-rule="evenodd" style="fill: none; stroke: rgb(255, 0, 0); stroke-width: 0.2;" d="M127.00,13.20 L127.20,13.00 "/>
    <path fill-rule="evenodd" style="fill: none; stroke: rgb(255, 0, 0); stroke-width: 0.2;" d="M71.00,33.39 L70.65,34.00 L70.62,35.00 L71.00,35.38 L71.46,36.00 L71.87,37.00 L72.00,38.00 L71.87,39.00 L71.46,40.00 L71.56,41.00 L72.00,41.63 L72.21,42.00 L72.56,43.00 L72.67,44.00 L72.56,45.00 L72.21,46.00 L72.40,47.00 L72.94,48.00 "/>
    <path fill-rule="evenodd" style="fill: none; stroke: rgb(255, 0, 0); stroke-width: 0.2;" d="M163.00,51.82 L162.76,51.00 L162.67,50.00 L162.76,49.00 L163.00,48.18 "/>
    <path fill-rule="evenodd" style="fill: none; stroke: rgb(255, 0, 0); stroke-width: 0.2;" d="M132.94,48.00 L133.00,48.18 "/>
    <path fill-rule="evenodd" style="fill: none; stroke: rgb(255, 0, 0); stroke-width: 0.2;" d="M23.00,51.82 L22.76,51.00 L22.67,50.00 L22.76,49.00 L23.00,48.18 "/>
    <path fill-rule="evenodd" style="fill: none; stroke: rgb(255, 0, 0); stroke-width: 0.2;" d="M63.00,51.82 L62.76,51.00 L62.67,50.00 L62.76,49.00 L63.00,48.18 "/>
    <path fill-rule="evenodd" style="fill: none; stroke: rgb(255, 0, 0); stroke-width: 0.2;" d="M152.94,52.00 L153.00,52.23 "/>
    <path fill-rule="evenodd" style="fill: none; stroke: rgb(255, 0, 0); stroke-width: 0.2;" d="M69.00,13.20 L69.33,14.00 L69.00,14.80 "/>
    <path fill-rule="evenodd" style="fill: none; stroke: rgb(255, 0, 0); stroke-width: 0.2;" d="M187.20,15.00 L187.00,14.80 "/>
    <path fill-rule="evenodd" style="fill: none; stroke: rgb(255, 0, 0); stroke-width: 0.2;" d="M13.00,48.18 L13.24,49.00 L13.33,50.00 L13.24,51.00 L13.00,51.82 "/>
    <path fill-rule="evenodd" style="fill: none; stroke: rgb(255, 0, 0); stroke-width: 0.2;" d="M68.80,15.00 L68.00,15.33 L67.20,15.00 "/>
    <path fill-rule="evenodd" style="fill: none; stroke: rgb(255, 0, 0); stroke-width: 0.2;" d="M173.00,51.82 L172.94,52.00 "/>
    <path fill-rule="evenodd" style="fill: none; stroke: rgb(0, 0, 0); stroke-width: 0.2;" d="M88.00,8.67 L87.33,8.00 L88.00,7.33 L88.67,8.00 L88.00,8.67 "/>
    <path fill-rule="evenodd" style="fill: none; stroke: rgb(0, 0, 0); stroke-width: 0.2;" d="M88.00,18.00 L89.00,18.29 L89.71,19.00 L90.00,20.00 L89.71,21.00 L89.00,21.71 L88.00,22.00 L87.00,21.71 L86.29,21.00 L86.00,20.00 L86.29,19.00 L87.00,18.29 L88.00,18.00 "/>
    <path fill-rule="evenodd" style="fill: none; stroke: rgb(255, 0, 0); stroke-width: 0.2;" d="M109.00,14.80 L108.80,15.00 "/>
    <path fill-rule="evenodd" style="fill: none; stroke: rgb(255, 0, 0); stroke-width: 0.2;" d="M52.94,48.00 L53.00,48.18 "/>
    <path fill-rule="evenodd" style="fill: none; stroke: rgb(255, 0, 0); stroke-width: 0.2;" d="M143.00,51.82 L142.76,51.00 L142.67,50.00 L142.76,49.00 L143.00,48.18 "/>
    <path fill-rule="evenodd" style="fill: none; stroke: rgb(255, 0, 0); stroke-width: 0.2;" d="M147.20,13.00 L148.00,12.67 L148.80,13.00 "/>
    <path fill-rule="evenodd" style="fill: none; stroke: rgb(255, 0, 0); stroke-width: 0.2;" d="M168.80,15.00 L168.00,15.33 L167.20,15.00 "/>
    <path fill-rule="evenodd" style="fill: none; stroke: rgb(255, 0, 0); stroke-width: 0.2;" d="M8.80,15.00 L8.00,15.33 L7.20,15.00 "/>
    <path fill-rule="evenodd" style="fill: none; stroke: rgb(255, 0, 0); stroke-width: 0.2;" d="M63.00,52.23 L63.06,52.00 "/>
    <path fill-rule="evenodd" style="fill: none; stroke: rgb(0, 0, 0); stroke-width: 0.2;" d="M187.33,8.00 L188.00,7.33 L188.67,8.00 L188.00,8.67 L187.33,8.00 "/>
    <path fill-rule="evenodd" style="fill: none; stroke: rgb(255, 0, 0); stroke-width: 0.2;" d="M147.00,14.80 L146.67,14.00 L147.00,13.20 "/>
    <path fill-rule="evenodd" style="fill: none; stroke: rgb(255, 0, 0); stroke-width: 0.2;" d="M83.00,48.18 L83.06,48.00 "/>
    <path fill-rule="evenodd" style="fill: none; stroke: rgb(255, 0, 0); stroke-width: 0.2;" d="M103.06,52.00 L103.00,51.82 "/>
    <path fill-rule="evenodd" style="fill: none; stroke: rgb(255, 0, 0); stroke-width: 0.2;" d="M92.94,52.00 L93.00,52.23 "/>
    <path fill-rule="evenodd" style="fill: none; stroke: rgb(255, 0, 0); stroke-width: 0.2;" d="M143.00,52.23 L143.06,52.00 "/>
    <path fill-rule="evenodd" style="fill: none; stroke: rgb(255, 0, 0); stroke-width: 0.2;" d="M127.20,15.00 L127.00,14.80 "/>
    <path fill-rule="evenodd" style="fill: none; stroke: rgb(255, 0, 0); stroke-width: 0.2;" d="M107.00,13.20 L107.20,13.00 "/>
    <path fill-rule="evenodd" style="fill: none; stroke: rgb(255, 0, 0); stroke-width: 0.2;" d="M67.00,14.80 L66.67,14.00 L67.00,13.20 "/>
    <path fill-rule="evenodd" style="fill: none; stroke: rgb(255, 0, 0); stroke-width: 0.2;" d="M3.00,48.18 L3.06,48.00 "/>
    <path fill-rule="evenodd" style="fill: none; stroke: rgb(255, 0, 0); stroke-width: 0.2;" d="M193.00,52.23 L193.19,53.00 L193.65,54.00 L193.92,55.00 L194.00,56.00 L193.92,57.00 L193.65,58.00 L193.19,59.00 L193.00,59.30 L192.46,60.00 L192.00,60.46 L191.30,61.00 L191.00,61.19 L190.00,61.65 L189.00,61.92 L188.00,62.00 L187.00,61.92 L186.00,61.65 L185.00,61.19 L184.70,61.00 L184.00,60.46 L183.54,60.00 L183.00,59.30 L182.81,59.00 L182.35,58.00 L182.08,57.00 L182.00,56.00 L182.08,55.00 L182.35,54.00 L182.81,53.00 L183.00,52.23 "/>
    <path fill-rule="evenodd" style="fill: none; stroke: rgb(255, 0, 0); stroke-width: 0.2;" d="M147.00,13.20 L147.20,13.00 "/>
    <path fill-rule="evenodd" style="fill: none; stroke: rgb(255, 0, 0); stroke-width: 0.2;" d="M7.20,15.00 L7.00,14.80 "/>
    <path fill-rule="evenodd" style="fill: none; stroke: rgb(255, 0, 0); stroke-width: 0.2;" d="M43.00,48.18 L43.06,48.00 "/>
    <path fill-rule="evenodd" style="fill: none; stroke: rgb(255, 0, 0); stroke-width: 0.2;" d="M167.00,14.80 L166.67,14.00 L167.00,13.20 "/>
    <path fill-rule="evenodd" style="fill: none; stroke: rgb(0, 0, 0); stroke-width: 0.2;" d="M28.00,7.33 L28.67,8.00 L28.00,8.67 L27.33,8.00 L28.00,7.33 "/>
    <path fill-rule="evenodd" style="fill: none; stroke: rgb(255, 0, 0); stroke-width: 0.2;" d="M27.00,13.20 L27.20,13.00 "/>
    <path fill-rule="evenodd" style="fill: none; stroke: rgb(255, 0, 0); stroke-width: 0.2;" d="M87.20,13.00 L88.00,12.67 L88.80,13.00 "/>
    <path fill-rule="evenodd" style="fill: none; stroke: rgb(255, 0, 0); stroke-width: 0.2;" d="M52.94,52.00 L53.00,52.23 "/>
    <path fill-rule="evenodd" style="fill: none; stroke: rgb(255, 0, 0); stroke-width: 0.2;" d="M67.00,13.20 L67.20,13.00 "/>
    <path fill-rule="evenodd" style="fill: none; stroke: rgb(255, 0, 0); stroke-width: 0.2;" d="M128.80,13.00 L129.00,13.20 "/>
    <path fill-rule="evenodd" style="fill: none; stroke: rgb(255, 0, 0); stroke-width: 0.2;" d="M113.00,51.82 L112.94,52.00 "/>
    <path fill-rule="evenodd" style="fill: none; stroke: rgb(255, 0, 0); stroke-width: 0.2;" d="M153.00,48.18 L153.24,49.00 L153.33,50.00 L153.24,51.00 L153.00,51.82 "/>
    <path fill-rule="evenodd" style="fill: none; stroke: rgb(255, 0, 0); stroke-width: 0.2;" d="M83.00,51.82 L82.76,51.00 L82.67,50.00 L82.76,49.00 L83.00,48.18 "/>
    <path fill-rule="evenodd" style="fill: none; stroke: rgb(255, 0, 0); stroke-width: 0.2;" d="M89.00,13.20 L89.33,14.00 L89.00,14.80 "/>
    <path fill-rule="evenodd" style="fill: none; stroke: rgb(255, 0, 0); stroke-width: 0.2;" d="M47.20,13.00 L48.00,12.67 L48.80,13.00 "/>
    <path fill-rule="evenodd" style="fill: none; stroke: rgb(255, 0, 0); stroke-width: 0.2;" d="M107.20,13.00 L108.00,12.67 L108.80,13.00 "/>
    <path fill-rule="evenodd" style="fill: none; stroke: rgb(255, 0, 0); stroke-width: 0.2;" d="M72.94,52.00 L73.00,52.23 "/>
    <path fill-rule="evenodd" style="fill: none; stroke: rgb(255, 0, 0); stroke-width: 0.2;" d="M107.00,14.80 L106.67,14.00 L107.00,13.20 "/>
    <path fill-rule="evenodd" style="fill: none; stroke: rgb(255, 0, 0); stroke-width: 0.2;" d="M148.80,13.00 L149.00,13.20 "/>
    <path fill-rule="evenodd" style="fill: none; stroke: rgb(255, 0, 0); stroke-width: 0.2;" d="M9.00,13.20 L9.33,14.00 L9.00,14.80 "/>
    <path fill-rule="evenodd" style="fill: none; stroke: rgb(255, 0, 0); stroke-width: 0.2;" d="M183.00,51.82 L182.76,51.00 L182.67,50.00 L182.76,49.00 L183.00,48.18 "/>
    <path fill-rule="evenodd" style="fill: none; stroke: rgb(255, 0, 0); stroke-width: 0.2;" d="M43.00,51.82 L42.76,51.00 L42.67,50.00 L42.76,49.00 L43.00,48.18 "/>
    <path fill-rule="evenodd" style="fill: none; stroke: rgb(255, 0, 0); stroke-width: 0.2;" d="M167.20,13.00 L168.00,12.67 L168.80,13.00 "/>
    <path fill-rule="evenodd" style="fill: none; stroke: rgb(255, 0, 0); stroke-width: 0.2;" d="M123.06,52.00 L123.00,51.82 "/>
    <path fill-rule="evenodd" style="fill: none; stroke: rgb(255, 0, 0); stroke-width: 0.2;" d="M108.80,15.00 L108.00,15.33 L107.20,15.00 "/>
    <path fill-rule="evenodd" style="fill: none; stroke: rgb(255, 0, 0); stroke-width: 0.2;" d="M93.00,48.18 L93.24,49.00 L93.33,50.00 L93.24,51.00 L93.00,51.82 "/>
    <path fill-rule="evenodd" style="fill: none; stroke: rgb(255, 0, 0); stroke-width: 0.2;" d="M87.00,14.80 L86.67,14.00 L87.00,13.20 "/>
    <path fill-rule="evenodd" style="fill: none; stroke: rgb(255, 0, 0); stroke-width: 0.2;" d="M3.06,52.00 L3.00,51.82 "/>
    <path fill-rule="evenodd" style="fill: none; stroke: rgb(0, 0, 0); stroke-width: 0.2;" d="M168.67,8.00 L168.00,8.67 L167.33,8.00 L168.00,7.33 L168.67,8.00 "/>
    <path fill-rule="evenodd" style="fill: none; stroke: rgb(255, 0, 0); stroke-width: 0.2;" d="M3.00,51.82 L2.76,51.00 L2.67,50.00 L2.76,49.00 L3.00,48.18 "/>
    <path fill-rule="evenodd" style="fill: none; stroke: rgb(255, 0, 0); stroke-width: 0.2;" d="M7.00,14.80 L6.67,14.00 L7.00,13.20 "/>
    <path fill-rule="evenodd" style="fill: none; stroke: rgb(255, 0, 0); stroke-width: 0.2;" d="M187.00,14.80 L186.67,14.00 L187.00,13.20 "/>
    <path fill-rule="evenodd" style="fill: none; stroke: rgb(255, 0, 0); stroke-width: 0.2;" d="M28.80,15.00 L28.00,15.33 L27.20,15.00 "/>
    <path fill-rule="evenodd" style="fill: none; stroke: rgb(255, 0, 0); stroke-width: 0.2;" d="M192.94,48.00 L193.00,48.18 "/>
    <path fill-rule="evenodd" style="fill: none; stroke: rgb(255, 0, 0); stroke-width: 0.2;" d="M88.80,15.00 L88.00,15.33 L87.20,15.00 "/>
    <path fill-rule="evenodd" style="fill: none; stroke: rgb(255, 0, 0); stroke-width: 0.2;" d="M32.94,48.00 L33.00,48.18 "/>
    <path fill-rule="evenodd" style="fill: none; stroke: rgb(255, 0, 0); stroke-width: 0.2;" d="M87.20,15.00 L87.00,14.80 "/>
    <path fill-rule="evenodd" style="fill: none; stroke: rgb(255, 0, 0); stroke-width: 0.2;" d="M43.00,52.23 L43.06,52.00 "/>
    <path fill-rule="evenodd" style="fill: none; stroke: rgb(255, 0, 0); stroke-width: 0.2;" d="M23.00,48.18 L23.06,48.00 "/>
    <path fill-rule="evenodd" style="fill: none; stroke: rgb(255, 0, 0); stroke-width: 0.2;" d="M83.00,52.23 L83.06,52.00 "/>
    <path fill-rule="evenodd" style="fill: none; stroke: rgb(255, 0, 0); stroke-width: 0.2;" d="M53.00,48.18 L53.24,49.00 L53.33,50.00 L53.24,51.00 L53.00,51.82 "/>
    <path fill-rule="evenodd" style="fill: none; stroke: rgb(255, 0, 0); stroke-width: 0.2;" d="M127.20,13.00 L128.00,12.67 L128.80,13.00 "/>
    <path fill-rule="evenodd" style="fill: none; stroke: rgb(255, 0, 0); stroke-width: 0.2;" d="M149.00,13.20 L149.33,14.00 L149.00,14.80 "/>
    <path fill-rule="evenodd" style="fill: none; stroke: rgb(255, 0, 0); stroke-width: 0.2;" d="M112.94,52.00 L113.00,52.23 "/>
    <path fill-rule="evenodd" style="fill: none; stroke: rgb(255, 0, 0); stroke-width: 0.2;" d="M133.00,48.18 L133.24,49.00 L133.33,50.00 L133.24,51.00 L133.00,51.82 "/>
    <path fill-rule="evenodd" style="fill: none; stroke: rgb(255, 0, 0); stroke-width: 0.2;" d="M188.80,13.00 L189.00,13.20 "/>
    <path fill-rule="evenodd" style="fill: none; stroke: rgb(255, 0, 0); stroke-width: 0.2;" d="M172.94,48.00 L173.00,48.18 "/>
    <path fill-rule="evenodd" style="fill: none; stroke: rgb(255, 0, 0); stroke-width: 0.2;" d="M192.94,52.00 L193.00,52.23 "/>
    <path fill-rule="evenodd" style="fill: none; stroke: rgb(255, 0, 0); stroke-width: 0.2;" d="M32.94,52.00 L33.00,52.23 "/>
    <path fill-rule="evenodd" style="fill: none; stroke: rgb(255, 0, 0); stroke-width: 0.2;" d="M47.00,13.20 L47.20,13.00 "/>
    <path fill-rule="evenodd" style="fill: none; stroke: rgb(255, 0, 0); stroke-width: 0.2;" d="M183.06,52.00 L183.00,51.82 "/>
    <path fill-rule="evenodd" style="fill: none; stroke: rgb(255, 0, 0); stroke-width: 0.2;" d="M29.00,14.80 L28.80,15.00 "/>
    <path fill-rule="evenodd" style="fill: none; stroke: rgb(255, 0, 0); stroke-width: 0.2;" d="M103.00,52.23 L103.06,52.00 "/>
    <path fill-rule="evenodd" style="fill: none; stroke: rgb(255, 0, 0); stroke-width: 0.2;" d="M27.00,14.80 L26.67,14.00 L27.00,13.20 "/>
    <path fill-rule="evenodd" style="fill: none; stroke: rgb(255, 0, 0); stroke-width: 0.2;" d="M72.94,48.00 L73.00,48.18 "/>
    <path fill-rule="evenodd" style="fill: none; stroke: rgb(255, 0, 0); stroke-width: 0.2;" d="M149.00,14.80 L148.80,15.00 "/>
    <path fill-rule="evenodd" style="fill: none; stroke: rgb(255, 0, 0); stroke-width: 0.2;" d="M163.00,48.18 L163.06,48.00 "/>
    <path fill-rule="evenodd" style="fill: none; stroke: rgb(255, 0, 0); stroke-width: 0.2;" d="M127.00,14.80 L126.67,14.00 L127.00,13.20 "/>
    <path fill-rule="evenodd" style="fill: none; stroke: rgb(255, 0, 0); stroke-width: 0.2;" d="M188.80,15.00 L188.00,15.33 L187.20,15.00 "/>
    <path fill-rule="evenodd" style="fill: none; stroke: rgb(255, 0, 0); stroke-width: 0.2;" d="M23.00,52.23 L23.06,52.00 "/>
    <path fill-rule="evenodd" style="fill: none; stroke: rgb(255, 0, 0); stroke-width: 0.2;" d="M68.80,13.00 L69.00,13.20 "/>
    <path fill-rule="evenodd" style="fill: none; stroke: rgb(255, 0, 0); stroke-width: 0.2;" d="M172.94,52.00 L173.00,52.23 "/>
    <path fill-rule="evenodd" style="fill: none; stroke: rgb(255, 0, 0); stroke-width: 0.2;" d="M47.20,15.00 L47.00,14.80 "/>
    <path fill-rule="evenodd" style="fill: none; stroke: rgb(255, 0, 0); stroke-width: 0.2;" d="M47.00,14.80 L46.67,14.00 L47.00,13.20 "/>
    <path fill-rule="evenodd" style="fill: none; stroke: rgb(255, 0, 0); stroke-width: 0.2;" d="M108.80,13.00 L109.00,13.20 "/>
    <path fill-rule="evenodd" style="fill: none; stroke: rgb(255, 0, 0); stroke-width: 0.2;" d="M7.20,13.00 L8.00,12.67 L8.80,13.00 "/>
    <path fill-rule="evenodd" style="fill: none; stroke: rgb(255, 0, 0); stroke-width: 0.2;" d="M12.94,48.00 L13.00,48.18 "/>
    <path fill-rule="evenodd" style="fill: none; stroke: rgb(255, 0, 0); stroke-width: 0.2;" d="M187.00,13.20 L187.20,13.00 "/>
    <path fill-rule="evenodd" style="fill: none; stroke: rgb(255, 0, 0); stroke-width: 0.2;" d="M13.00,51.82 L12.94,52.00 "/>
    <path fill-rule="evenodd" style="fill: none; stroke: rgb(255, 0, 0); stroke-width: 0.2;" d="M33.00,51.82 L32.94,52.00 "/>
    <path fill-rule="evenodd" style="fill: none; stroke: rgb(255, 0, 0); stroke-width: 0.2;" d="M129.00,13.20 L129.33,14.00 L129.00,14.80 "/>
    <path fill-rule="evenodd" style="fill: none; stroke: rgb(255, 0, 0); stroke-width: 0.2;" d="M43.06,52.00 L43.00,51.82 "/>
    <path fill-rule="evenodd" style="fill: none; stroke: rgb(255, 0, 0); stroke-width: 0.2;" d="M27.20,13.00 L28.00,12.67 L28.80,13.00 "/>
    <path fill-rule="evenodd" style="fill: none; stroke: rgb(255, 0, 0); stroke-width: 0.2;" d="M163.06,52.00 L163.00,51.82 "/>
    <path fill-rule="evenodd" style="fill: none; stroke: rgb(255, 0, 0); stroke-width: 0.2;" d="M23.06,52.00 L23.00,51.82 "/>
    <path fill-rule="evenodd" style="fill: none; stroke: rgb(255, 0, 0); stroke-width: 0.2;" d="M152.94,48.00 L153.00,48.18 "/>
    <path fill-rule="evenodd" style="fill: none; stroke: rgb(255, 0, 0); stroke-width: 0.2;" d="M88.80,13.00 L89.00,13.20 "/>
    <path fill-rule="evenodd" style="fill: none; stroke: rgb(255, 0, 0); stroke-width: 0.2;" d="M89.00,14.80 L88.80,15.00 "/>
    <path fill-rule="evenodd" style="fill: none; stroke: rgb(255, 0, 0); stroke-width: 0.2;" d="M123.00,48.18 L123.06,48.00 "/>
    <path fill-rule="evenodd" style="fill: none; stroke: rgb(255, 0, 0); stroke-width: 0.2;" d="M143.00,48.18 L143.06,48.00 "/>
    <path fill-rule="evenodd" style="fill: none; stroke: rgb(255, 0, 0); stroke-width: 0.2;" d="M148.80,15.00 L148.00,15.33 L147.20,15.00 "/>
    <path fill-rule="evenodd" style="fill: none; stroke: rgb(255, 0, 0); stroke-width: 0.2;" d="M8.80,13.00 L9.00,13.20 "/>
    <path fill-rule="evenodd" style="fill: none; stroke: rgb(255, 0, 0); stroke-width: 0.2;" d="M169.00,14.80 L168.80,15.00 "/>
    <path fill-rule="evenodd" style="fill: none; stroke: rgb(255, 0, 0); stroke-width: 0.2;" d="M9.00,14.80 L8.80,15.00 "/>
    <path fill-rule="evenodd" style="fill: none; stroke: rgb(255, 0, 0); stroke-width: 0.2;" d="M48.80,13.00 L49.00,13.20 "/>
    <path fill-rule="evenodd" style="fill: none; stroke: rgb(255, 0, 0); stroke-width: 0.2;" d="M67.20,15.00 L67.00,14.80 "/>
    <path fill-rule="evenodd" style="fill: none; stroke: rgb(255, 0, 0); stroke-width: 0.2;" d="M163.00,52.23 L163.06,52.00 "/>
    <path fill-rule="evenodd" style="fill: none; stroke: rgb(255, 0, 0); stroke-width: 0.2;" d="M3.00,52.23 L3.06,52.00 "/>
    <path fill-rule="evenodd" style="fill: none; stroke: rgb(255, 0, 0); stroke-width: 0.2;" d="M49.00,13.20 L49.33,14.00 L49.00,14.80 "/>
    <path fill-rule="evenodd" style="fill: none; stroke: rgb(255, 0, 0); stroke-width: 0.2;" d="M167.00,13.20 L167.20,13.00 "/>
    <path fill-rule="evenodd" style="fill: none; stroke: rgb(255, 0, 0); stroke-width: 0.2;" d="M69.00,14.80 L68.80,15.00 "/>
    <path fill-rule="evenodd" style="fill: none; stroke: rgb(0, 0, 0); stroke-width: 0.2;" d="M67.33,8.00 L68.00,7.33 L68.67,8.00 L68.00,8.67 L67.33,8.00 "/>
    <path fill-rule="evenodd" style="fill: none; stroke: rgb(255, 0, 0); stroke-width: 0.2;" d="M63.06,52.00 L63.00,51.82 "/>
    <path fill-rule="evenodd" style="fill: none; stroke: rgb(255, 0, 0); stroke-width: 0.2;" d="M48.80,15.00 L48.00,15.33 L47.20,15.00 "/>
    <path fill-rule="evenodd" style="fill: none; stroke: rgb(255, 0, 0); stroke-width: 0.2;" d="M143.06,52.00 L143.00,51.82 "/>
    <path fill-rule="evenodd" style="fill: none; stroke: rgb(255, 0, 0); stroke-width: 0.2;" d="M183.00,48.18 L183.06,48.00 "/>
    <path fill-rule="evenodd" style="fill: none; stroke: rgb(255, 0, 0); stroke-width: 0.2;" d="M132.94,52.00 L133.00,52.23 "/>
    <path fill-rule="evenodd" style="fill: none; stroke: rgb(255, 0, 0); stroke-width: 0.2;" d="M133.00,51.82 L132.94,52.00 "/>
    <path fill-rule="evenodd" style="fill: none; stroke: rgb(255, 0, 0); stroke-width: 0.2;" d="M7.00,13.20 L7.20,13.00 "/>
    <path fill-rule="evenodd" style="fill: none; stroke: rgb(255, 0, 0); stroke-width: 0.2;" d="M153.00,51.82 L152.94,52.00 "/>
    <path fill-rule="evenodd" style="fill: none; stroke: rgb(255, 0, 0); stroke-width: 0.2;" d="M28.80,13.00 L29.00,13.20 "/>
    <path fill-rule="evenodd" style="fill: none; stroke: rgb(255, 0, 0); stroke-width: 0.2;" d="M193.00,51.82 L192.94,52.00 "/>
    <path fill-rule="evenodd" style="fill: none; stroke: rgb(255, 0, 0); stroke-width: 0.2;" d="M53.00,51.82 L52.94,52.00 "/>
    <path fill-rule="evenodd" style="fill: none; stroke: rgb(255, 0, 0); stroke-width: 0.2;" d="M147.20,15.00 L147.00,14.80 "/>
    <path fill-rule="evenodd" style="fill: none; stroke: rgb(255, 0, 0); stroke-width: 0.2;" d="M83.06,52.00 L83.00,51.82 "/>

<script>
let svgs = document.children[0];
let paths = Array.from(svgs.children).filter(function(c) {
    var orig = c.style.stroke;
    c.onmouseover = function() {
        c.style.stroke = "rgb(0, 0, 255)";
    };
    c.onmouseout = function () {
        c.style.stroke = orig;
    };
    c.onclick = function () {
        svgs.removeChild()
    }
});

for (let path of paths) {
    console.log(path);
}
</script></svg>