<svg xmlns="http://www.w3.org/2000/svg">
    <path fill-rule="evenodd" style="fill: none; stroke: rgb(0, 0, 0); stroke-width: 0.01;" d="M28.23,41.00 L28.00,41.08 L27.00,41.36 L26.00,41.59 L25.00,41.77 L24.00,41.90 L23.00,41.97 L22.00,42.00 L21.00,41.97 L20.00,41.90 L19.00,41.77 L18.00,41.59 L17.00,41.36 L16.00,41.08 L15.77,41.00 L15.00,40.73 L14.00,40.32 L13.30,40.00 L13.00,39.86 L12.00,39.31 L11.48,39.00 L11.00,38.69 L10.00,38.00 L9.00,37.19 L8.78,37.00 L8.00,36.27 L7.73,36.00 L7.00,35.22 L6.81,35.00 L6.00,34.00 L5.31,33.00 L5.00,32.52 L4.69,32.00 L4.14,31.00 L4.00,30.70 L3.68,30.00 L3.27,29.00 L3.00,28.23 L2.92,28.00 L2.64,27.00 L2.41,26.00 L2.23,25.00 L2.10,24.00 L2.03,23.00 L2.00,22.00 L2.03,21.00 L2.10,20.00 L2.23,19.00 L2.41,18.00 L2.64,17.00 L2.92,16.00 L3.00,15.77 L3.27,15.00 L3.68,14.00 L4.00,13.30 L4.14,13.00 L4.69,12.00 L5.00,11.48 L5.31,11.00 L6.00,10.00 L6.00,10.00 L6.81,9.00 L7.00,8.78 L7.73,8.00 L8.00,7.73 L8.78,7.00 L9.00,6.81 L10.00,6.00 L10.00,6.00 L11.00,5.31 L11.48,5.00 L12.00,4.69 L13.00,4.14 L13.30,4.00 L14.00,3.68 L15.00,3.27 L15.77,3.00 L16.00,2.92 L17.00,2.64 L18.00,2.41 L19.00,2.23 L20.00,2.10 L21.00,2.03 L22.00,2.00 L23.00,2.03 L24.00,2.10 L25.00,2.23 L26.00,2.41 L27.00,2.64 L28.00,2.92 L28.23,3.00 L29.00,3.27 L30.00,3.68 L30.70,4.00 L31.00,4.14 L32.00,4.69 L32.52,5.00 L33.00,5.31 L34.00,6.00 L34.00,6.00 L35.00,6.81 L35.22,7.00 L36.00,7.73 L36.27,8.00 L37.00,8.70 L37.73,8.00 L38.00,7.73 L38.78,7.00 L39.00,6.81 L40.00,6.00 L40.00,6.00 L41.00,5.31 L41.48,5.00 L42.00,4.69 L43.00,4.14 L43.30,4.00 L44.00,3.68 L45.00,3.27 L45.77,3.00 L46.00,2.92 L47.00,2.64 L48.00,2.41 L49.00,2.23 L50.00,2.10 L51.00,2.03 L52.00,2.00 L53.00,2.03 L54.00,2.10 L55.00,2.23 L56.00,2.41 L57.00,2.64 L58.00,2.92 L58.23,3.00 L59.00,3.27 L60.00,3.68 L60.70,4.00 L61.00,4.14 L62.00,4.69 L62.52,5.00 L63.00,5.31 L64.00,6.00 L64.00,6.00 L65.00,6.81 L65.22,7.00 L66.00,7.73 L66.27,8.00 L67.00,8.78 L67.19,9.00 L68.00,10.00 L68.00,10.00 L68.69,11.00 L69.00,11.48 L69.31,12.00 L69.86,13.00 L70.00,13.30 L70.32,14.00 L70.73,15.00 L71.00,15.77 L71.08,16.00 L71.36,17.00 L71.59,18.00 L71.77,19.00 L71.90,20.00 L71.97,21.00 L72.00,22.00 L71.97,23.00 L71.90,24.00 L71.77,25.00 L71.59,26.00 L71.36,27.00 L71.08,28.00 L71.00,28.23 L70.73,29.00 L70.32,30.00 L70.00,30.70 L69.86,31.00 L69.31,32.00 L69.00,32.52 L68.69,33.00 L68.00,34.00 L67.19,35.00 L67.00,35.22 L66.27,36.00 L66.00,36.27 L65.22,37.00 L65.00,37.19 L64.00,38.00 L63.00,38.69 L62.52,39.00 L62.00,39.31 L61.00,39.86 L60.70,40.00 L60.00,40.32 L59.00,40.73 L58.23,41.00 L58.00,41.08 L57.00,41.36 L56.00,41.59 L55.00,41.77 L54.00,41.90 L53.00,41.97 L52.00,42.00 L51.00,41.97 L50.00,41.90 L49.00,41.77 L48.00,41.59 L47.00,41.36 L46.00,41.08 L45.77,41.00 L45.00,40.73 L44.00,40.32 L43.30,40.00 L43.00,39.86 L42.00,39.31 L41.48,39.00 L41.00,38.69 L40.00,38.00 L39.00,37.19 L38.78,37.00 L38.00,36.27 L37.73,36.00 L37.00,35.30 L36.27,36.00 L36.00,36.27 L35.22,37.00 L35.00,37.19 L34.00,38.00 L33.00,38.69 L32.52,39.00 L32.00,39.31 L31.00,39.86 L30.70,40.00 L30.00,40.32 L29.00,40.73 L28.23,41.00 "/>
    <path fill-rule="evenodd" style="fill: none; stroke: rgb(255, 0, 0); stroke-width: 0.01;" d="M44.48,16.00 L44.00,15.48 "/>
    <path fill-rule="evenodd" style="fill: none; stroke: rgb(255, 0, 0); stroke-width: 0.01;" d="M33.00,13.47 L33.53,13.00 "/>
    <path fill-rule="evenodd" style="fill: none; stroke: rgb(255, 0, 0); stroke-width: 0.01;" d="M47.00,25.51 L47.49,25.00 "/>
    <path fill-rule="evenodd" style="fill: none; stroke: rgb(255, 0, 0); stroke-width: 0.01;" d="M29.52,28.00 L30.00,28.52 "/>
    <path fill-rule="evenodd" style="fill: none; stroke: rgb(255, 0, 0); stroke-width: 0.01;" d="M43.48,16.00 L44.00,16.48 "/>
    <path fill-rule="evenodd" style="fill: none; stroke: rgb(255, 0, 0); stroke-width: 0.01;" d="M30.00,15.48 L29.52,16.00 "/>
    <path fill-rule="evenodd" style="fill: none; stroke: rgb(255, 0, 0); stroke-width: 0.01;" d="M42.48,14.00 L42.00,13.47 "/>
    <path fill-rule="evenodd" style="fill: none; stroke: rgb(255, 0, 0); stroke-width: 0.01;" d="M31.00,15.48 L31.52,15.00 "/>
    <path fill-rule="evenodd" style="fill: none; stroke: rgb(255, 0, 0); stroke-width: 0.01;" d="M40.47,13.00 L41.00,13.47 "/>
    <path fill-rule="evenodd" style="fill: none; stroke: rgb(255, 0, 0); stroke-width: 0.01;" d="M31.52,30.00 L32.00,30.53 "/>
    <path fill-rule="evenodd" style="fill: none; stroke: rgb(255, 0, 0); stroke-width: 0.01;" d="M30.52,28.00 L30.00,27.52 "/>
    <path fill-rule="evenodd" style="fill: none; stroke: rgb(255, 0, 0); stroke-width: 0.01;" d="M33.00,12.47 L32.53,13.00 "/>
    <path fill-rule="evenodd" style="fill: none; stroke: rgb(255, 0, 0); stroke-width: 0.01;" d="M29.00,16.48 L28.52,17.00 "/>
    <path fill-rule="evenodd" style="fill: none; stroke: rgb(255, 0, 0); stroke-width: 0.01;" d="M46.49,18.00 L46.00,17.49 "/>
    <path fill-rule="evenodd" style="fill: none; stroke: rgb(255, 0, 0); stroke-width: 0.01;" d="M47.00,24.51 L46.49,25.00 "/>
    <path fill-rule="evenodd" style="fill: none; stroke: rgb(255, 0, 0); stroke-width: 0.01;" d="M42.00,29.52 L41.48,30.00 "/>
    <path fill-rule="evenodd" style="fill: none; stroke: rgb(255, 0, 0); stroke-width: 0.01;" d="M34.00,12.46 L34.54,12.00 L34.00,11.46 L33.54,12.00 "/>
    <path fill-rule="evenodd" style="fill: none; stroke: rgb(255, 0, 0); stroke-width: 0.01;" d="M27.00,18.49 L26.51,19.00 "/>
    <path fill-rule="evenodd" style="fill: none; stroke: rgb(255, 0, 0); stroke-width: 0.01;" d="M31.00,14.48 L30.52,15.00 "/>
    <path fill-rule="evenodd" style="fill: none; stroke: rgb(255, 0, 0); stroke-width: 0.01;" d="M41.00,31.53 L41.47,31.00 "/>
    <path fill-rule="evenodd" style="fill: none; stroke: rgb(255, 0, 0); stroke-width: 0.01;" d="M26.51,24.00 L26.00,23.51 L25.51,23.00 L25.00,22.51 L24.51,22.00 L25.00,21.49 L25.51,21.00 L26.00,20.49 L26.51,20.00 "/>
    <path fill-rule="evenodd" style="fill: none; stroke: rgb(255, 0, 0); stroke-width: 0.01;" d="M29.52,27.00 L29.00,26.52 "/>
    <path fill-rule="evenodd" style="fill: none; stroke: rgb(255, 0, 0); stroke-width: 0.01;" d="M27.51,26.00 L28.00,26.51 "/>
    <path fill-rule="evenodd" style="fill: none; stroke: rgb(255, 0, 0); stroke-width: 0.01;" d="M45.00,27.52 L45.48,27.00 "/>
    <path fill-rule="evenodd" style="fill: none; stroke: rgb(255, 0, 0); stroke-width: 0.01;" d="M45.48,17.00 L45.00,16.48 "/>
    <path fill-rule="evenodd" style="fill: none; stroke: rgb(255, 0, 0); stroke-width: 0.01;" d="M45.00,26.52 L44.48,27.00 "/>
    <path fill-rule="evenodd" style="fill: none; stroke: rgb(255, 0, 0); stroke-width: 0.01;" d="M44.00,27.52 L43.48,28.00 "/>
    <path fill-rule="evenodd" style="fill: none; stroke: rgb(255, 0, 0); stroke-width: 0.01;" d="M33.54,32.00 L34.00,32.54 L34.54,32.00 L34.00,31.54 "/>
    <path fill-rule="evenodd" style="fill: none; stroke: rgb(255, 0, 0); stroke-width: 0.01;" d="M43.48,15.00 L43.00,14.48 "/>
    <path fill-rule="evenodd" style="fill: none; stroke: rgb(255, 0, 0); stroke-width: 0.01;" d="M28.00,17.49 L27.51,18.00 "/>
    <path fill-rule="evenodd" style="fill: none; stroke: rgb(255, 0, 0); stroke-width: 0.01;" d="M32.53,31.00 L33.00,31.53 "/>
    <path fill-rule="evenodd" style="fill: none; stroke: rgb(255, 0, 0); stroke-width: 0.01;" d="M40.46,12.00 L40.00,11.46 L39.46,12.00 L40.00,12.46 "/>
    <path fill-rule="evenodd" style="fill: none; stroke: rgb(255, 0, 0); stroke-width: 0.01;" d="M31.52,29.00 L31.00,28.52 "/>
    <path fill-rule="evenodd" style="fill: none; stroke: rgb(255, 0, 0); stroke-width: 0.01;" d="M48.00,24.51 L49.00,24.51 L49.49,24.00 L50.00,23.51 L50.49,23.00 L51.00,22.51 L51.49,22.00 L51.00,21.49 L50.49,21.00 L50.00,20.49 L49.49,20.00 L49.00,19.49 L48.00,19.49 "/>
    <path fill-rule="evenodd" style="fill: none; stroke: rgb(255, 0, 0); stroke-width: 0.01;" d="M28.00,18.49 L28.51,18.00 "/>
    <path fill-rule="evenodd" style="fill: none; stroke: rgb(255, 0, 0); stroke-width: 0.01;" d="M46.00,25.51 L45.49,26.00 "/>
    <path fill-rule="evenodd" style="fill: none; stroke: rgb(255, 0, 0); stroke-width: 0.01;" d="M43.00,29.52 L43.48,29.00 "/>
    <path fill-rule="evenodd" style="fill: none; stroke: rgb(255, 0, 0); stroke-width: 0.01;" d="M26.00,19.49 L25.00,19.49 L24.51,20.00 L24.00,20.49 L23.51,21.00 L23.00,21.49 L22.51,22.00 L23.00,22.51 L23.51,23.00 L24.00,23.51 L24.51,24.00 L25.00,24.51 L26.00,24.51 "/>
    <path fill-rule="evenodd" style="fill: none; stroke: rgb(255, 0, 0); stroke-width: 0.01;" d="M42.00,30.53 L42.48,30.00 "/>
    <path fill-rule="evenodd" style="fill: none; stroke: rgb(255, 0, 0); stroke-width: 0.01;" d="M41.48,14.00 L42.00,14.48 "/>
    <path fill-rule="evenodd" style="fill: none; stroke: rgb(255, 0, 0); stroke-width: 0.01;" d="M47.49,20.00 L48.00,20.49 L48.49,21.00 L49.00,21.49 L49.49,22.00 L49.00,22.51 L48.49,23.00 L48.00,23.51 L47.49,24.00 "/>
    <path fill-rule="evenodd" style="fill: none; stroke: rgb(255, 0, 0); stroke-width: 0.01;" d="M46.49,19.00 L47.00,19.49 "/>
    <path fill-rule="evenodd" style="fill: none; stroke: rgb(255, 0, 0); stroke-width: 0.01;" d="M28.52,27.00 L29.00,27.52 "/>
    <path fill-rule="evenodd" style="fill: none; stroke: rgb(255, 0, 0); stroke-width: 0.01;" d="M46.00,26.51 L46.49,26.00 "/>
    <path fill-rule="evenodd" style="fill: none; stroke: rgb(255, 0, 0); stroke-width: 0.01;" d="M27.51,25.00 L27.00,24.51 "/>
    <path fill-rule="evenodd" style="fill: none; stroke: rgb(255, 0, 0); stroke-width: 0.01;" d="M45.49,18.00 L46.00,18.49 "/>
    <path fill-rule="evenodd" style="fill: none; stroke: rgb(255, 0, 0); stroke-width: 0.01;" d="M26.51,25.00 L27.00,25.51 "/>
    <path fill-rule="evenodd" style="fill: none; stroke: rgb(255, 0, 0); stroke-width: 0.01;" d="M33.53,31.00 L33.00,30.53 "/>
    <path fill-rule="evenodd" style="fill: none; stroke: rgb(255, 0, 0); stroke-width: 0.01;" d="M43.00,28.52 L42.48,29.00 "/>
    <path fill-rule="evenodd" style="fill: none; stroke: rgb(255, 0, 0); stroke-width: 0.01;" d="M32.52,30.00 L32.00,29.52 "/>
    <path fill-rule="evenodd" style="fill: none; stroke: rgb(255, 0, 0); stroke-width: 0.01;" d="M41.00,30.53 L40.47,31.00 "/>
    <path fill-rule="evenodd" style="fill: none; stroke: rgb(255, 0, 0); stroke-width: 0.01;" d="M32.00,13.47 L31.52,14.00 "/>
    <path fill-rule="evenodd" style="fill: none; stroke: rgb(255, 0, 0); stroke-width: 0.01;" d="M29.00,17.48 L29.52,17.00 "/>
    <path fill-rule="evenodd" style="fill: none; stroke: rgb(255, 0, 0); stroke-width: 0.01;" d="M44.00,28.52 L44.48,28.00 "/>
    <path fill-rule="evenodd" style="fill: none; stroke: rgb(255, 0, 0); stroke-width: 0.01;" d="M44.48,17.00 L45.00,17.48 "/>
    <path fill-rule="evenodd" style="fill: none; stroke: rgb(255, 0, 0); stroke-width: 0.01;" d="M27.00,19.49 L27.51,19.00 "/>
    <path fill-rule="evenodd" style="fill: none; stroke: rgb(255, 0, 0); stroke-width: 0.01;" d="M32.00,14.48 L32.52,14.00 "/>
    <path fill-rule="evenodd" style="fill: none; stroke: rgb(255, 0, 0); stroke-width: 0.01;" d="M42.48,15.00 L43.00,15.48 "/>
    <path fill-rule="evenodd" style="fill: none; stroke: rgb(255, 0, 0); stroke-width: 0.01;" d="M41.47,13.00 L41.00,12.47 "/>
    <path fill-rule="evenodd" style="fill: none; stroke: rgb(255, 0, 0); stroke-width: 0.01;" d="M30.00,16.48 L30.52,16.00 "/>
    <path fill-rule="evenodd" style="fill: none; stroke: rgb(255, 0, 0); stroke-width: 0.01;" d="M30.52,29.00 L31.00,29.52 "/>
    <path fill-rule="evenodd" style="fill: none; stroke: rgb(255, 0, 0); stroke-width: 0.01;" d="M47.49,19.00 L47.00,18.49 "/>
    <path fill-rule="evenodd" style="fill: none; stroke: rgb(255, 0, 0); stroke-width: 0.01;" d="M40.00,31.54 L39.46,32.00 L40.00,32.54 L40.46,32.00 "/>
    <path fill-rule="evenodd" style="fill: none; stroke: rgb(255, 0, 0); stroke-width: 0.01;" d="M28.51,26.00 L28.00,25.51 "/>
</svg>