<svg xmlns="http://www.w3.org/2000/svg">
    <path fill-rule="evenodd" d="M31,96.24903106689453 L32,96.64729309082031 L32.94266891479492,97 L38,98.53849792480469 L43,99.50752258300781 L48,99.9599838256836 L53,99.909912109375 L58,99.35578918457031 L63,98.28028869628906 L68,96.64729309082031 L73,94.39537811279297 L77,92.08299255371094 L81,89.22923278808594 L85.7057113647461,85 L90,80 L92.70765686035156,76 L94.89968872070313,72 L97,67.05733489990234 L98.53849792480469,62 L99.50752258300781,57 L99.9599838256836,52 L99.909912109375,47 L99.35578918457031,42 L98.28028869628906,37 L96.64729309082031,32 L94.39537811279297,27 L92.08299255371094,23 L89.22923278808594,19 L85,14.294290542602539 L80,10 L76,7.292346000671387 L72,5.1003098487854 L67.05733489990234,3 L62,1.4615042209625244 L57,0.49247387051582336 L52,0.040018171072006226 L47,0.0900849997997284 L42,0.6442079544067383 L37,1.7197093963623047 L32,3.35270357131958 L27,5.6046223640441895 L23,7.917008876800537 L19,10.770768165588379 L14.294290542602539,15 L10,20 L7.292346000671387,24 L5.1003098487854,28 L3,32.94266891479492 L1.461504340171814,38 L0.4924737811088562,43 L0.04001814126968384,48 L0.09008502960205078,53 L0.6442079544067383,58 L1.7197092771530151,63 L3.35270357131958,68 L5.6046223640441895,73 L8.57629108428955,78 L11.582549095153809,82 L16,86.6591796875 L21,90.7300033569336 L26,93.86310577392578 L31,96.24903106689453 "/>
</svg>