<svg xmlns="http://www.w3.org/2000/svg">
<path d="M31,96.24903 L26,93.863106 L21,90.73 L16,86.65918 L11.582549,82 L8.576291,78 L5.6046224,73 L3.3527036,68 L1.7197093,63 L0.64420795,58 L0.09008503,53 L0.04001814,48 L0.49247378,43 L1.4615043,38 L3,32.94267 L5.10031,28 L7.292346,24 L10,20 L14.294291,15 L19,10.770768 L23,7.917009 L27,5.6046224 L32,3.3527036 L37,1.7197094 L42,0.64420795 L47,0.090085 L52,0.04001817 L57,0.49247387 L62,1.4615042 L67.057335,3 L72,5.10031 L76,7.292346 L80,10 L85,14.294291 L89.22923,19 L92.08299,23 L94.39538,27 L96.64729,32 L98.28029,37 L99.35579,42 L99.90991,47 L99.959984,52 L99.50752,57 L98.5385,62 L97,67.057335 L94.89969,72 L92.70766,76 L90,80 L85.70571,85 L81,89.22923 L77,92.08299 L73,94.39538 L68,96.64729 L63,98.28029 L58,99.35579 L53,99.90991 L48,99.959984 L43,99.50752 L38,98.5385 L32.94267,97 L32,96.64729 L31,96.24903" fill="none" stroke="black" stroke-width="3"/>
</svg>