<svg xmlns="http://www.w3.org/2000/svg">
    <path fill-rule="evenodd" style="fill: rgb(0, 0, 0); stroke: none; stroke-width: none;" d="M27.00,67.00 L27.05,68.00 L27.20,69.00 L27.46,70.00 L28.34,72.00 L29.00,73.00 L30.00,74.14 L31.00,75.00 L33.00,76.16 L34.00,76.54 L35.00,76.80 L36.00,76.95 L37.00,77.00 L38.00,76.95 L39.00,76.80 L40.00,76.54 L42.00,75.66 L43.00,75.00 L44.14,74.00 L45.00,73.00 L46.16,71.00 L46.54,70.00 L46.80,69.00 L46.95,68.00 L47.00,67.00 L46.95,66.00 L46.80,65.00 L46.54,64.00 L45.66,62.00 L45.00,61.00 L44.00,59.86 L44.00,59.86 L43.00,59.00 L41.00,57.84 L40.00,57.46 L39.00,57.20 L38.00,57.05 L37.00,57.00 L36.00,57.05 L35.00,57.20 L34.00,57.46 L32.00,58.34 L31.00,59.00 L29.86,60.00 L29.00,61.00 L27.84,63.00 L27.46,64.00 L27.20,65.00 L27.05,66.00 L27.00,67.00 M27.00,97.00 L27.05,98.00 L27.20,99.00 L27.46,100.00 L28.34,102.00 L29.00,103.00 L30.00,104.14 L31.00,105.00 L33.00,106.16 L34.00,106.54 L35.00,106.80 L36.00,106.95 L37.00,107.00 L38.00,106.95 L39.00,106.80 L40.00,106.54 L42.00,105.66 L43.00,105.00 L44.14,104.00 L45.00,103.00 L46.16,101.00 L46.54,100.00 L46.80,99.00 L46.95,98.00 L47.00,97.00 L46.95,96.00 L46.80,95.00 L46.54,94.00 L45.66,92.00 L45.00,91.00 L44.00,89.86 L43.00,89.00 L41.00,87.84 L41.00,87.84 L40.00,87.46 L39.00,87.20 L38.00,87.05 L37.00,87.00 L36.00,87.05 L35.00,87.20 L34.00,87.46 L32.00,88.34 L31.00,89.00 L29.86,90.00 L29.00,91.00 L27.84,93.00 L27.46,94.00 L27.20,95.00 L27.05,96.00 L27.00,97.00 M87.00,67.00 L87.05,68.00 L87.20,69.00 L87.46,70.00 L88.34,72.00 L89.00,73.00 L89.86,74.00 L89.86,74.00 L91.00,75.00 L93.00,76.16 L94.00,76.54 L95.00,76.80 L96.00,76.95 L97.00,77.00 L98.00,76.95 L99.00,76.80 L100.00,76.54 L102.00,75.66 L103.00,75.00 L104.14,74.00 L105.00,73.00 L106.16,71.00 L106.54,70.00 L106.80,69.00 L106.95,68.00 L107.00,67.00 L106.95,66.00 L106.80,65.00 L106.54,64.00 L105.66,62.00 L105.00,61.00 L104.00,59.86 L103.00,59.00 L101.00,57.84 L100.00,57.46 L99.00,57.20 L98.00,57.05 L97.00,57.00 L96.00,57.05 L95.00,57.20 L94.00,57.46 L92.00,58.34 L91.00,59.00 L89.86,60.00 L89.00,61.00 L87.84,63.00 L87.46,64.00 L87.20,65.00 L87.05,66.00 L87.00,67.00 M57.00,97.00 L57.05,98.00 L57.20,99.00 L57.46,100.00 L58.34,102.00 L59.00,103.00 L60.00,104.14 L61.00,105.00 L63.00,106.16 L64.00,106.54 L65.00,106.80 L66.00,106.95 L67.00,107.00 L68.00,106.95 L69.00,106.80 L70.00,106.54 L72.00,105.66 L73.00,105.00 L74.14,104.00 L75.00,103.00 L76.16,101.00 L76.54,100.00 L76.80,99.00 L76.95,98.00 L77.00,97.00 L76.95,96.00 L76.80,95.00 L76.54,94.00 L75.66,92.00 L75.00,91.00 L74.00,89.86 L74.00,89.86 L73.00,89.00 L71.00,87.84 L70.00,87.46 L69.00,87.20 L68.00,87.05 L67.00,87.00 L66.00,87.05 L65.00,87.20 L64.00,87.46 L62.00,88.34 L61.00,89.00 L59.86,90.00 L59.00,91.00 L57.84,93.00 L57.46,94.00 L57.20,95.00 L57.05,96.00 L57.00,97.00 M2.00,46.00 L2.00,58.00 L3.00,57.84 L4.00,57.46 L5.00,57.20 L6.00,57.05 L7.00,57.00 L8.00,57.05 L9.00,57.20 L10.00,57.46 L11.00,57.84 L13.00,59.00 L14.00,59.86 L15.00,61.00 L15.66,62.00 L16.54,64.00 L16.80,65.00 L16.95,66.00 L17.00,67.00 L16.95,68.00 L16.80,69.00 L16.54,70.00 L16.16,71.00 L15.00,73.00 L14.14,74.00 L13.00,75.00 L12.00,75.66 L10.00,76.54 L9.00,76.80 L8.00,76.95 L7.00,77.00 L6.00,76.95 L5.00,76.80 L4.00,76.54 L3.00,76.16 L2.00,76.00 L2.00,88.00 L3.00,87.84 L4.00,87.46 L5.00,87.20 L6.00,87.05 L7.00,87.00 L8.00,87.05 L9.00,87.20 L10.00,87.46 L11.00,87.84 L13.00,89.00 L14.00,89.86 L15.00,91.00 L15.66,92.00 L16.54,94.00 L16.80,95.00 L16.95,96.00 L17.00,97.00 L16.95,98.00 L16.80,99.00 L16.54,100.00 L16.16,101.00 L15.00,103.00 L14.14,104.00 L13.00,105.00 L12.00,105.66 L10.00,106.54 L9.00,106.80 L8.00,106.95 L7.00,107.00 L6.00,106.95 L5.00,106.80 L4.00,106.54 L3.00,106.16 L2.00,106.00 L2.00,162.00 L162.00,162.00 L162.00,2.00 L106.00,2.00 L106.16,3.00 L106.54,4.00 L106.80,5.00 L106.95,6.00 L107.00,7.00 L106.95,8.00 L106.80,9.00 L106.54,10.00 L106.16,11.00 L105.00,13.00 L104.14,14.00 L103.00,15.00 L102.00,15.66 L100.00,16.54 L99.00,16.80 L98.00,16.95 L97.00,17.00 L96.00,16.95 L95.00,16.80 L94.00,16.54 L93.00,16.16 L91.00,15.00 L89.86,14.00 L89.86,14.00 L89.00,13.00 L88.34,12.00 L87.46,10.00 L87.20,9.00 L87.05,8.00 L87.00,7.00 L87.05,6.00 L87.20,5.00 L87.46,4.00 L87.84,3.00 L88.00,2.00 L76.00,2.00 L76.16,3.00 L76.54,4.00 L76.80,5.00 L76.95,6.00 L77.00,7.00 L76.95,8.00 L76.80,9.00 L76.54,10.00 L76.16,11.00 L75.00,13.00 L74.14,14.00 L73.00,15.00 L72.00,15.66 L70.00,16.54 L69.00,16.80 L68.00,16.95 L67.00,17.00 L66.00,16.95 L65.00,16.80 L64.00,16.54 L63.00,16.16 L61.00,15.00 L60.00,14.14 L59.00,13.00 L58.34,12.00 L57.46,10.00 L57.20,9.00 L57.05,8.00 L57.00,7.00 L57.05,6.00 L57.20,5.00 L57.46,4.00 L57.84,3.00 L58.00,2.00 L46.00,2.00 L46.16,3.00 L46.54,4.00 L46.80,5.00 L46.95,6.00 L47.00,7.00 L46.95,8.00 L46.80,9.00 L46.54,10.00 L46.16,11.00 L45.00,13.00 L44.14,14.00 L43.00,15.00 L42.00,15.66 L40.00,16.54 L39.00,16.80 L38.00,16.95 L37.00,17.00 L36.00,16.95 L35.00,16.80 L34.00,16.54 L33.00,16.16 L31.00,15.00 L30.00,14.14 L29.00,13.00 L28.34,12.00 L27.46,10.00 L27.20,9.00 L27.05,8.00 L27.00,7.00 L27.05,6.00 L27.20,5.00 L27.46,4.00 L27.84,3.00 L28.00,2.00 L16.00,2.00 L16.16,3.00 L16.54,4.00 L16.80,5.00 L16.95,6.00 L17.00,7.00 L16.95,8.00 L16.80,9.00 L16.54,10.00 L16.16,11.00 L15.00,13.00 L14.14,14.00 L13.00,15.00 L12.00,15.66 L10.00,16.54 L9.00,16.80 L8.00,16.95 L7.00,17.00 L6.00,16.95 L5.00,16.80 L4.00,16.54 L3.00,16.16 L2.00,16.00 L2.00,28.00 L3.00,27.84 L4.00,27.46 L5.00,27.20 L6.00,27.05 L7.00,27.00 L8.00,27.05 L9.00,27.20 L10.00,27.46 L11.00,27.84 L13.00,29.00 L14.00,29.86 L15.00,31.00 L15.66,32.00 L16.54,34.00 L16.80,35.00 L16.95,36.00 L17.00,37.00 L16.95,38.00 L16.80,39.00 L16.54,40.00 L16.16,41.00 L15.00,43.00 L14.14,44.00 L13.00,45.00 L12.00,45.66 L10.00,46.54 L9.00,46.80 L8.00,46.95 L7.00,47.00 L6.00,46.95 L5.00,46.80 L4.00,46.54 L3.00,46.16 L2.00,46.00 M87.00,97.00 L87.05,98.00 L87.20,99.00 L87.46,100.00 L88.34,102.00 L89.00,103.00 L89.86,104.00 L89.86,104.00 L91.00,105.00 L93.00,106.16 L94.00,106.54 L95.00,106.80 L96.00,106.95 L97.00,107.00 L98.00,106.95 L99.00,106.80 L100.00,106.54 L102.00,105.66 L103.00,105.00 L104.14,104.00 L105.00,103.00 L106.16,101.00 L106.54,100.00 L106.80,99.00 L106.95,98.00 L107.00,97.00 L106.95,96.00 L106.80,95.00 L106.54,94.00 L105.66,92.00 L105.00,91.00 L104.00,89.86 L103.00,89.00 L101.00,87.84 L100.00,87.46 L99.00,87.20 L98.00,87.05 L97.00,87.00 L96.00,87.05 L95.00,87.20 L94.00,87.46 L92.00,88.34 L91.00,89.00 L89.86,90.00 L89.00,91.00 L87.84,93.00 L87.46,94.00 L87.20,95.00 L87.05,96.00 L87.00,97.00 M57.00,67.00 L57.05,68.00 L57.20,69.00 L57.46,70.00 L58.34,72.00 L59.00,73.00 L60.00,74.14 L61.00,75.00 L63.00,76.16 L64.00,76.54 L65.00,76.80 L66.00,76.95 L67.00,77.00 L68.00,76.95 L69.00,76.80 L70.00,76.54 L72.00,75.66 L73.00,75.00 L74.14,74.00 L75.00,73.00 L76.16,71.00 L76.54,70.00 L76.80,69.00 L76.95,68.00 L77.00,67.00 L76.95,66.00 L76.80,65.00 L76.54,64.00 L75.66,62.00 L75.00,61.00 L74.00,59.86 L73.00,59.00 L71.00,57.84 L70.00,57.46 L69.00,57.20 L68.00,57.05 L67.00,57.00 L66.00,57.05 L65.00,57.20 L64.00,57.46 L62.00,58.34 L61.00,59.00 L59.86,60.00 L59.86,60.00 L59.00,61.00 L57.84,63.00 L57.46,64.00 L57.20,65.00 L57.05,66.00 L57.00,67.00 M27.00,37.00 L27.05,38.00 L27.20,39.00 L27.46,40.00 L28.34,42.00 L29.00,43.00 L30.00,44.14 L31.00,45.00 L33.00,46.16 L34.00,46.54 L35.00,46.80 L36.00,46.95 L37.00,47.00 L38.00,46.95 L39.00,46.80 L40.00,46.54 L42.00,45.66 L43.00,45.00 L44.14,44.00 L45.00,43.00 L46.16,41.00 L46.54,40.00 L46.80,39.00 L46.95,38.00 L47.00,37.00 L46.95,36.00 L46.80,35.00 L46.54,34.00 L45.66,32.00 L45.00,31.00 L44.00,29.86 L43.00,29.00 L41.00,27.84 L40.00,27.46 L39.00,27.20 L38.00,27.05 L37.00,27.00 L36.00,27.05 L35.00,27.20 L34.00,27.46 L32.00,28.34 L31.00,29.00 L29.86,30.00 L29.86,30.00 L29.00,31.00 L27.84,33.00 L27.46,34.00 L27.20,35.00 L27.05,36.00 L27.00,37.00 M57.00,37.00 L57.05,38.00 L57.20,39.00 L57.46,40.00 L58.34,42.00 L59.00,43.00 L60.00,44.14 L61.00,45.00 L63.00,46.16 L64.00,46.54 L65.00,46.80 L66.00,46.95 L67.00,47.00 L68.00,46.95 L69.00,46.80 L70.00,46.54 L72.00,45.66 L73.00,45.00 L74.14,44.00 L75.00,43.00 L76.16,41.00 L76.54,40.00 L76.80,39.00 L76.95,38.00 L77.00,37.00 L76.95,36.00 L76.80,35.00 L76.54,34.00 L75.66,32.00 L75.00,31.00 L74.00,29.86 L73.00,29.00 L71.00,27.84 L70.00,27.46 L69.00,27.20 L68.00,27.05 L67.00,27.00 L66.00,27.05 L65.00,27.20 L64.00,27.46 L62.00,28.34 L61.00,29.00 L59.86,30.00 L59.86,30.00 L59.00,31.00 L57.84,33.00 L57.46,34.00 L57.20,35.00 L57.05,36.00 L57.00,37.00 M87.00,37.00 L87.05,38.00 L87.20,39.00 L87.46,40.00 L88.34,42.00 L89.00,43.00 L89.86,44.00 L89.86,44.00 L91.00,45.00 L93.00,46.16 L94.00,46.54 L95.00,46.80 L96.00,46.95 L97.00,47.00 L98.00,46.95 L99.00,46.80 L100.00,46.54 L102.00,45.66 L103.00,45.00 L104.14,44.00 L105.00,43.00 L106.16,41.00 L106.54,40.00 L106.80,39.00 L106.95,38.00 L107.00,37.00 L106.95,36.00 L106.80,35.00 L106.54,34.00 L105.66,32.00 L105.00,31.00 L104.00,29.86 L103.00,29.00 L101.00,27.84 L100.00,27.46 L99.00,27.20 L98.00,27.05 L97.00,27.00 L96.00,27.05 L95.00,27.20 L94.00,27.46 L92.00,28.34 L91.00,29.00 L89.86,30.00 L89.00,31.00 L87.84,33.00 L87.46,34.00 L87.20,35.00 L87.05,36.00 L87.00,37.00 "/>

<script>
let svgs = document.children[0];
let paths = Array.from(svgs.children).filter(function(c) {
    var orig = c.style.stroke;
    c.onmouseover = function() {
        c.style.stroke = "rgb(0, 0, 255)";
    };
    c.onmouseout = function () {
        c.style.stroke = orig;
    };
    c.onclick = function () {
        svgs.removeChild()
    }
});

for (let path of paths) {
    console.log(path);
}
</script></svg>