<svg xmlns="http://www.w3.org/2000/svg">
    <path fill-rule="evenodd" style="fill: none; stroke: rgb(0, 0, 0); stroke-width: 0.2;" d="M16.00,92.00 L15.00,92.00 M32.00,78.00 L32.00,79.00 M2.00,52.00 L2.00,51.00 M32.00,26.00 L32.00,27.00 M32.00,73.00 L32.00,74.00 M10.00,2.00 L11.00,2.00 M32.00,5.00 L32.00,6.00 M2.00,55.00 L2.00,54.00 M32.00,17.00 L32.00,18.00 M32.00,68.00 L32.00,69.00 M5.00,92.00 L4.00,92.00 M31.00,2.00 L32.00,2.00 M2.00,46.00 L2.00,45.00 M5.00,2.00 L6.00,2.00 M32.00,59.00 L32.00,60.00 M2.00,24.00 L2.00,23.00 M26.00,92.00 L25.00,92.00 M2.00,37.00 L2.00,36.00 M2.00,88.00 L2.00,87.00 M32.00,46.00 L32.00,47.00 M2.00,15.00 L2.00,14.00 M28.00,2.00 L29.00,2.00 M2.00,75.00 L2.00,74.00 M2.00,18.00 L2.00,17.00 M23.00,92.00 L22.00,92.00 M2.00,66.00 L2.00,65.00 M2.00,4.00 L2.00,3.00 M32.00,44.00 L32.00,45.00 M19.00,2.00 L20.00,2.00 M32.00,87.00 L32.00,88.00 M2.00,7.00 L2.00,6.00 M32.00,35.00 L32.00,36.00 M14.00,92.00 L13.00,92.00 M32.00,90.00 L32.00,91.00 M2.00,64.00 L2.00,63.00 M32.00,22.00 L32.00,23.00 M32.00,69.00 L32.00,70.00 M16.00,2.00 L17.00,2.00 M32.00,81.00 L32.00,82.00 M2.00,51.00 L2.00,50.00 M32.00,13.00 L32.00,14.00 M32.00,64.00 L32.00,65.00 M11.00,92.00 L10.00,92.00 M32.00,12.00 L32.00,13.00 M2.00,39.00 L2.00,38.00 M3.00,2.00 L4.00,2.00 M32.00,55.00 L32.00,56.00 M9.00,2.00 L10.00,2.00 M32.00,3.00 L32.00,4.00 M2.00,32.00 L2.00,31.00 M2.00,84.00 L2.00,83.00 M32.00,58.00 L32.00,59.00 M2.00,27.00 L2.00,26.00 M26.00,2.00 L27.00,2.00 M2.00,87.00 L2.00,86.00 M32.00,49.00 L32.00,50.00 M2.00,14.00 L2.00,13.00 M21.00,92.00 L20.00,92.00 M2.00,78.00 L2.00,77.00 M2.00,9.00 L2.00,8.00 M32.00,40.00 L32.00,41.00 M2.00,73.00 L2.00,72.00 M2.00,42.00 L2.00,41.00 M32.00,31.00 L32.00,32.00 M20.00,92.00 L19.00,92.00 M32.00,86.00 L32.00,87.00 M2.00,60.00 L2.00,59.00 M32.00,34.00 L32.00,35.00 M14.00,2.00 L15.00,2.00 M32.00,77.00 L32.00,78.00 M2.00,63.00 L2.00,62.00 M32.00,25.00 L32.00,26.00 M32.00,76.00 L32.00,77.00 M9.00,92.00 L8.00,92.00 M32.00,8.00 L32.00,9.00 M2.00,54.00 L2.00,53.00 M32.00,20.00 L32.00,21.00 M32.00,67.00 L32.00,68.00 M7.00,2.00 L8.00,2.00 M30.00,92.00 L29.00,92.00 M2.00,49.00 L2.00,48.00 M4.00,92.00 L3.00,92.00 M32.00,54.00 L32.00,55.00 M2.00,23.00 L2.00,22.00 M32.00,2.00 L32.00,3.00 M2.00,35.00 L2.00,34.00 M2.00,83.00 L2.00,82.00 M32.00,45.00 L32.00,46.00 M2.00,26.00 L2.00,25.00 M27.00,92.00 L26.00,92.00 M2.00,74.00 L2.00,73.00 M2.00,17.00 L2.00,16.00 M25.00,2.00 L26.00,2.00 M2.00,69.00 L2.00,68.00 M2.00,10.00 L2.00,9.00 M32.00,43.00 L32.00,44.00 M18.00,92.00 L17.00,92.00 M2.00,5.00 L2.00,4.00 M32.00,30.00 L32.00,31.00 M20.00,2.00 L21.00,2.00 M32.00,89.00 L32.00,90.00 M2.00,59.00 L2.00,58.00 M32.00,21.00 L32.00,22.00 M32.00,72.00 L32.00,73.00 M15.00,92.00 L14.00,92.00 M32.00,84.00 L32.00,85.00 M2.00,50.00 L2.00,49.00 M32.00,16.00 L32.00,17.00 M32.00,63.00 L32.00,64.00 M13.00,2.00 L14.00,2.00 M32.00,11.00 L32.00,12.00 M2.00,45.00 L2.00,44.00 M2.00,92.00 L2.00,91.00 M32.00,66.00 L32.00,67.00 M8.00,92.00 L7.00,92.00 M30.00,2.00 L31.00,2.00 M2.00,31.00 L2.00,30.00 M4.00,2.00 L5.00,2.00 M32.00,57.00 L32.00,58.00 M2.00,22.00 L2.00,21.00 M25.00,92.00 L24.00,92.00 M2.00,34.00 L2.00,33.00 M2.00,86.00 L2.00,85.00 M32.00,52.00 L32.00,53.00 M2.00,12.00 L2.00,11.00 M23.00,2.00 L24.00,2.00 M2.00,81.00 L2.00,80.00 M2.00,2.00 L3.00,2.00 M32.00,39.00 L32.00,40.00 M2.00,72.00 L2.00,71.00 M2.00,40.00 L2.00,39.00 M32.00,42.00 L32.00,43.00 M18.00,2.00 L19.00,2.00 M32.00,85.00 L32.00,86.00 M2.00,3.00 L2.00,2.00 M32.00,33.00 L32.00,34.00 M13.00,92.00 L12.00,92.00 M32.00,80.00 L32.00,81.00 M2.00,62.00 L2.00,61.00 M32.00,28.00 L32.00,29.00 M32.00,75.00 L32.00,76.00 M11.00,2.00 L12.00,2.00 M32.00,7.00 L32.00,8.00 M2.00,57.00 L2.00,56.00 M32.00,19.00 L32.00,20.00 M32.00,62.00 L32.00,63.00 M6.00,92.00 L5.00,92.00 M32.00,10.00 L32.00,11.00 M2.00,48.00 L2.00,47.00 M2.00,91.00 L2.00,90.00 M32.00,53.00 L32.00,54.00 M8.00,2.00 L9.00,2.00 M31.00,92.00 L30.00,92.00 M2.00,30.00 L2.00,29.00 M2.00,82.00 L2.00,81.00 M32.00,48.00 L32.00,49.00 M2.00,25.00 L2.00,24.00 M29.00,2.00 L30.00,2.00 M2.00,77.00 L2.00,76.00 M2.00,20.00 L2.00,19.00 M24.00,92.00 L23.00,92.00 M2.00,68.00 L2.00,67.00 M2.00,8.00 L2.00,7.00 M32.00,38.00 L32.00,39.00 M2.00,71.00 L2.00,70.00 M2.00,38.00 L2.00,37.00 M32.00,29.00 L32.00,30.00 M19.00,92.00 L18.00,92.00 M32.00,92.00 L31.00,92.00 M2.00,58.00 L2.00,57.00 M32.00,24.00 L32.00,25.00 M32.00,71.00 L32.00,72.00 M17.00,2.00 L18.00,2.00 M32.00,83.00 L32.00,84.00 M2.00,53.00 L2.00,52.00 M32.00,15.00 L32.00,16.00 M32.00,74.00 L32.00,75.00 M12.00,92.00 L11.00,92.00 M32.00,6.00 L32.00,7.00 M2.00,43.00 L2.00,42.00 M32.00,18.00 L32.00,19.00 M32.00,65.00 L32.00,66.00 M6.00,2.00 L7.00,2.00 M29.00,92.00 L28.00,92.00 M2.00,47.00 L2.00,46.00 M3.00,92.00 L2.00,92.00 M32.00,60.00 L32.00,61.00 M2.00,21.00 L2.00,20.00 M27.00,2.00 L28.00,2.00 M2.00,33.00 L2.00,32.00 M2.00,89.00 L2.00,88.00 M32.00,51.00 L32.00,52.00 M2.00,16.00 L2.00,15.00 M22.00,92.00 L21.00,92.00 M2.00,80.00 L2.00,79.00 M2.00,13.00 L2.00,12.00 M24.00,2.00 L25.00,2.00 M2.00,67.00 L2.00,66.00 M2.00,6.00 L2.00,5.00 M32.00,41.00 L32.00,42.00 M17.00,92.00 L16.00,92.00 M32.00,88.00 L32.00,89.00 M2.00,44.00 L2.00,43.00 M32.00,36.00 L32.00,37.00 M15.00,2.00 L16.00,2.00 M32.00,79.00 L32.00,80.00 M2.00,65.00 L2.00,64.00 M32.00,27.00 L32.00,28.00 M32.00,70.00 L32.00,71.00 M10.00,92.00 L9.00,92.00 M32.00,82.00 L32.00,83.00 M2.00,56.00 L2.00,55.00 M32.00,14.00 L32.00,15.00 M32.00,61.00 L32.00,62.00 M12.00,2.00 L13.00,2.00 M32.00,9.00 L32.00,10.00 M2.00,41.00 L2.00,40.00 M2.00,90.00 L2.00,89.00 M32.00,56.00 L32.00,57.00 M7.00,92.00 L6.00,92.00 M32.00,4.00 L32.00,5.00 M2.00,29.00 L2.00,28.00 M2.00,85.00 L2.00,84.00 M32.00,47.00 L32.00,48.00 M2.00,28.00 L2.00,27.00 M28.00,92.00 L27.00,92.00 M2.00,76.00 L2.00,75.00 M32.00,50.00 L32.00,51.00 M2.00,19.00 L2.00,18.00 M22.00,2.00 L23.00,2.00 M2.00,79.00 L2.00,78.00 M2.00,11.00 L2.00,10.00 M32.00,37.00 L32.00,38.00 M2.00,70.00 L2.00,69.00 M2.00,36.00 L2.00,35.00 M32.00,32.00 L32.00,33.00 M21.00,2.00 L22.00,2.00 M32.00,91.00 L32.00,92.00 M2.00,61.00 L2.00,60.00 M32.00,23.00 L32.00,24.00 "/>

<script>
let paths = Array.from(document.children[0].children).filter(function(c) {
    var orig = c.style.stroke;
    c.onmouseover = function() {
        c.style.stroke = "rgb(0, 0, 255)";
    };
    c.onmouseout = function () {
        c.style.stroke = orig;
    };
});

for (let path of paths) {
    console.log(path);
}
</script></svg>