<svg xmlns="http://www.w3.org/2000/svg">
    <path fill-rule="evenodd" style="fill: none; stroke: rgb(255, 0, 0); stroke-width: 0.2;" d="M241.08,166.00 L241.36,167.00 L241.60,168.00 L241.77,169.00 L241.90,170.00 L241.97,171.00 L242.00,172.00 L241.97,173.00 L241.90,174.00 L241.77,175.00 L241.60,176.00 L241.36,177.00 L241.08,178.00 "/>
    <path fill-rule="evenodd" style="fill: none; stroke: rgb(255, 0, 0); stroke-width: 0.2;" d="M180.71,4.00 L181.00,4.14 "/>
    <path fill-rule="evenodd" style="fill: none; stroke: rgb(255, 0, 0); stroke-width: 0.2;" d="M208.77,187.00 L208.00,186.28 L207.72,186.00 L207.00,185.28 L206.72,185.00 L206.00,184.28 L205.72,184.00 L205.00,183.28 L204.72,183.00 L204.00,182.28 L203.72,182.00 L203.00,181.28 L202.72,181.00 L202.00,180.28 L201.72,180.00 L201.00,179.28 L200.72,179.00 L200.00,178.28 L199.72,178.00 L199.00,177.28 L198.72,177.00 L198.00,176.28 L197.72,176.00 L197.00,175.28 L196.72,175.00 L196.00,174.28 L195.72,174.00 L195.00,173.28 L194.72,173.00 L194.00,172.28 L193.72,172.00 L193.00,171.28 L192.72,171.00 L192.00,170.28 L191.72,170.00 L191.00,169.28 L190.72,169.00 L190.00,168.28 L189.72,168.00 L189.00,167.28 L188.72,167.00 L188.00,166.28 L187.72,166.00 L187.00,165.28 L186.72,165.00 L186.00,164.28 L185.72,164.00 L185.00,163.28 L184.72,163.00 L184.00,162.28 L183.72,162.00 L183.00,161.28 L182.72,161.00 L182.00,160.28 L181.72,160.00 L181.00,159.28 L180.72,159.00 L180.00,158.28 L179.72,158.00 L179.00,157.28 L178.72,157.00 L178.00,156.28 L177.72,156.00 L177.00,155.28 L176.72,155.00 L176.00,154.28 L175.72,154.00 L175.00,153.28 L174.72,153.00 L174.00,152.28 L173.72,152.00 L173.00,151.28 L172.72,151.00 L172.00,150.28 L171.72,150.00 L171.00,149.28 L170.72,149.00 L170.00,148.28 L169.72,148.00 L169.00,147.28 L168.72,147.00 L168.00,146.28 L167.72,146.00 L167.00,145.28 L166.72,145.00 L166.00,144.28 L165.72,144.00 L165.00,143.28 L164.72,143.00 L164.00,142.28 L163.72,142.00 L163.00,141.28 L162.72,141.00 L162.00,140.28 L161.72,140.00 L161.00,139.28 L160.72,139.00 L160.00,138.28 L159.72,138.00 L159.00,137.28 L158.72,137.00 L158.00,136.28 L157.72,136.00 L157.00,135.28 L156.72,135.00 L156.00,134.28 L155.72,134.00 L155.00,133.28 L154.72,133.00 L154.00,132.28 L153.72,132.00 L153.00,131.28 L152.72,131.00 L152.00,130.28 L151.72,130.00 L151.00,129.28 L150.72,129.00 L150.00,128.28 L149.72,128.00 L149.00,127.28 L148.72,127.00 L148.00,126.28 L147.72,126.00 L147.00,125.28 L146.72,125.00 L146.00,124.28 L145.72,124.00 L145.00,123.28 L144.72,123.00 L144.00,122.28 L143.72,122.00 L143.00,121.28 L142.72,121.00 L142.00,120.28 L141.72,120.00 L141.00,119.28 L140.72,119.00 L140.00,118.28 L139.72,118.00 L139.00,117.28 L138.72,117.00 L138.00,116.28 L137.72,116.00 L137.00,115.28 L136.72,115.00 L136.00,114.28 L135.72,114.00 L135.00,113.28 L134.72,113.00 L134.00,112.28 L133.72,112.00 L133.00,111.28 L132.72,111.00 L132.00,110.28 L131.72,110.00 L131.00,109.28 L130.72,109.00 L130.00,108.28 L129.72,108.00 L129.00,107.28 L128.72,107.00 L128.00,106.28 L127.72,106.00 L127.00,105.28 L126.72,105.00 L126.00,104.28 L125.72,104.00 L125.00,103.28 L124.72,103.00 L124.00,102.28 L123.72,102.00 L123.00,101.28 L122.72,101.00 L122.00,100.28 L121.72,100.00 L121.00,99.28 L120.72,99.00 L120.00,98.28 L119.72,98.00 L119.00,97.28 L118.72,97.00 L118.00,96.28 L117.72,96.00 L117.00,95.28 L116.72,95.00 L116.00,94.28 L115.72,94.00 L115.00,93.28 L114.72,93.00 L114.00,92.28 L113.72,92.00 L113.00,91.28 L112.72,91.00 L112.00,90.28 L111.72,90.00 L111.00,89.28 L110.72,89.00 L110.00,88.39 L109.28,88.00 L109.00,87.86 L108.00,87.36 L107.28,87.00 L107.00,86.86 L106.00,86.36 L105.28,86.00 L105.00,85.86 L104.00,85.36 L103.28,85.00 L103.00,84.86 L102.00,84.36 L101.28,84.00 L101.00,83.86 L100.00,83.36 L99.28,83.00 L99.00,82.86 L98.00,82.36 L97.28,82.00 L97.00,81.86 L96.00,81.36 L95.28,81.00 L95.00,80.86 L94.00,80.36 L93.28,80.00 L93.00,79.86 L92.00,79.36 L91.28,79.00 L91.00,78.86 L90.00,78.36 L89.28,78.00 L89.00,77.86 L88.00,77.36 L87.28,77.00 L87.00,76.86 L86.00,76.36 L85.28,76.00 L85.00,75.86 L84.00,75.36 L83.28,75.00 L83.00,74.86 L82.00,74.36 L81.28,74.00 L81.00,73.86 L80.00,73.36 L79.28,73.00 L79.00,72.86 L78.00,72.36 L77.28,72.00 L77.00,71.86 L76.00,71.36 L75.28,71.00 L75.00,70.86 L74.00,70.36 L73.28,70.00 L73.00,69.86 L72.00,69.36 L71.28,69.00 L71.00,68.86 L70.00,68.36 L69.28,68.00 L69.00,67.86 L68.00,67.36 L67.28,67.00 L67.00,66.86 L66.00,66.36 L65.28,66.00 L65.00,65.86 L64.00,65.36 L63.28,65.00 L63.00,64.86 L62.00,64.36 L61.28,64.00 L61.00,63.86 L60.00,63.36 L59.28,63.00 L59.00,62.86 L58.00,62.36 L57.28,62.00 L57.00,61.86 L56.00,61.36 L55.28,61.00 L55.00,60.86 L54.00,60.36 L53.28,60.00 L53.00,59.86 L52.00,59.36 L51.28,59.00 L51.00,58.86 L50.00,58.36 L49.28,58.00 L49.00,57.86 L48.00,57.36 L47.28,57.00 L47.00,56.86 L46.00,56.36 L45.28,56.00 L45.00,55.86 L44.00,55.36 L43.28,55.00 L43.00,54.86 L42.00,54.36 L41.28,54.00 L41.00,53.86 L40.00,53.36 L39.28,53.00 L39.00,52.86 L38.00,52.36 L37.28,52.00 L37.00,51.86 L36.00,51.36 L35.28,51.00 L35.00,50.86 L34.00,50.36 L33.28,50.00 L33.00,49.86 L32.00,49.36 L31.28,49.00 L31.00,48.86 L30.00,48.36 L29.28,48.00 L29.00,47.86 L28.00,47.36 L27.28,47.00 L27.00,46.86 L26.00,46.36 L25.28,46.00 L25.00,45.86 L24.00,45.36 L23.28,45.00 L23.00,44.86 L22.00,44.36 L21.28,44.00 L21.00,43.86 L20.00,43.36 L19.28,43.00 L19.00,42.86 L18.00,42.36 L17.28,42.00 L17.00,41.86 L16.00,41.36 L15.28,41.00 L15.00,40.86 L14.00,40.36 L13.28,40.00 L13.00,39.86 L12.00,39.32 L11.47,39.00 L11.00,38.70 L10.00,38.00 L9.00,37.20 "/>
    <path fill-rule="evenodd" style="fill: none; stroke: rgb(255, 0, 0); stroke-width: 0.2;" d="M187.20,9.00 L188.00,10.00 L188.70,11.00 L189.00,11.47 L189.32,12.00 L189.86,13.00 L190.00,13.29 L190.33,14.00 L190.73,15.00 L191.00,15.76 "/>
    <path fill-rule="evenodd" style="fill: none; stroke: rgb(255, 0, 0); stroke-width: 0.2;" d="M209.08,70.00 L209.42,71.00 L209.75,72.00 L210.00,72.75 "/>
    <path fill-rule="evenodd" style="fill: none; stroke: rgb(255, 0, 0); stroke-width: 0.2;" d="M16.00,2.92 L17.00,2.64 L18.00,2.40 L19.00,2.23 L20.00,2.10 L21.00,2.03 L22.00,2.00 L23.00,2.00 L24.00,2.00 L25.00,2.00 L26.00,2.00 L27.00,2.00 L28.00,2.00 L29.00,2.00 L30.00,2.00 L31.00,2.00 L32.00,2.00 L33.00,2.00 L34.00,2.00 L35.00,2.00 L36.00,2.00 L37.00,2.00 L38.00,2.00 L39.00,2.00 L40.00,2.00 L41.00,2.00 L42.00,2.00 L43.00,2.00 L44.00,2.00 L45.00,2.00 L46.00,2.00 L47.00,2.00 L48.00,2.00 L49.00,2.00 L50.00,2.00 L51.00,2.00 L52.00,2.00 L53.00,2.00 L54.00,2.00 L55.00,2.00 L56.00,2.00 L57.00,2.00 L58.00,2.00 L59.00,2.00 L60.00,2.00 L61.00,2.00 L62.00,2.00 L63.00,2.00 L64.00,2.00 L65.00,2.00 L66.00,2.00 L67.00,2.00 L68.00,2.00 L69.00,2.00 L70.00,2.00 L71.00,2.00 L72.00,2.00 L73.00,2.00 L74.00,2.00 L75.00,2.00 L76.00,2.00 L77.00,2.00 L78.00,2.00 L79.00,2.00 L80.00,2.00 L81.00,2.00 L82.00,2.00 L83.00,2.00 L84.00,2.00 L85.00,2.00 L86.00,2.00 L87.00,2.00 L88.00,2.00 L89.00,2.00 L90.00,2.00 L91.00,2.00 L92.00,2.00 L93.00,2.00 L94.00,2.00 L95.00,2.00 L96.00,2.00 L97.00,2.00 L98.00,2.00 L99.00,2.00 L100.00,2.00 L101.00,2.00 L102.00,2.00 L103.00,2.00 L104.00,2.00 L105.00,2.00 L106.00,2.00 L107.00,2.00 L108.00,2.00 L109.00,2.00 L110.00,2.00 L111.00,2.00 L112.00,2.00 L113.00,2.00 L114.00,2.00 L115.00,2.00 L116.00,2.00 L117.00,2.00 L118.00,2.00 L119.00,2.00 L120.00,2.00 L121.00,2.00 L122.00,2.00 L123.00,2.00 L124.00,2.00 L125.00,2.00 L126.00,2.00 L127.00,2.00 L128.00,2.00 L129.00,2.00 L130.00,2.00 L131.00,2.00 L132.00,2.00 L133.00,2.00 L134.00,2.00 L135.00,2.00 L136.00,2.00 L137.00,2.00 L138.00,2.00 L139.00,2.00 L140.00,2.00 L141.00,2.00 L142.00,2.00 L143.00,2.00 L144.00,2.00 L145.00,2.00 L146.00,2.00 L147.00,2.00 L148.00,2.00 L149.00,2.00 L150.00,2.00 L151.00,2.00 L152.00,2.00 L153.00,2.00 L154.00,2.00 L155.00,2.00 L156.00,2.00 L157.00,2.00 L158.00,2.00 L159.00,2.00 L160.00,2.00 L161.00,2.00 L162.00,2.00 L163.00,2.00 L164.00,2.00 L165.00,2.00 L166.00,2.00 L167.00,2.00 L168.00,2.00 L169.00,2.00 L170.00,2.00 L171.00,2.00 L172.00,2.00 L173.00,2.03 L174.00,2.10 L175.00,2.23 L176.00,2.40 L177.00,2.64 L178.00,2.92 "/>
    <path fill-rule="evenodd" style="fill: none; stroke: rgb(255, 0, 0); stroke-width: 0.2;" d="M228.00,126.75 L228.08,127.00 "/>
    <path fill-rule="evenodd" style="fill: none; stroke: rgb(255, 0, 0); stroke-width: 0.2;" d="M241.00,178.23 L240.73,179.00 L240.33,180.00 L240.00,180.71 L239.86,181.00 L239.32,182.00 L239.00,182.53 L238.70,183.00 L238.00,184.00 L237.20,185.00 "/>
    <path fill-rule="evenodd" style="fill: none; stroke: rgb(255, 0, 0); stroke-width: 0.2;" d="M205.08,58.00 L205.42,59.00 L205.75,60.00 L206.00,60.75 "/>
    <path fill-rule="evenodd" style="fill: none; stroke: rgb(255, 0, 0); stroke-width: 0.2;" d="M227.00,123.75 L227.08,124.00 "/>
    <path fill-rule="evenodd" style="fill: none; stroke: rgb(255, 0, 0); stroke-width: 0.2;" d="M238.00,156.75 L238.08,157.00 "/>
    <path fill-rule="evenodd" style="fill: none; stroke: rgb(255, 0, 0); stroke-width: 0.2;" d="M204.08,55.00 L204.42,56.00 L204.75,57.00 L205.00,57.75 "/>
    <path fill-rule="evenodd" style="fill: none; stroke: rgb(255, 0, 0); stroke-width: 0.2;" d="M232.08,139.00 L232.42,140.00 L232.75,141.00 L233.00,141.75 "/>
    <path fill-rule="evenodd" style="fill: none; stroke: rgb(255, 0, 0); stroke-width: 0.2;" d="M228.00,191.08 L227.00,191.36 L226.00,191.60 L225.00,191.77 L224.00,191.90 L223.00,191.97 L222.00,192.00 L221.00,191.97 L220.00,191.90 L219.00,191.77 L218.00,191.60 L217.00,191.36 L216.00,191.08 "/>
    <path fill-rule="evenodd" style="fill: none; stroke: rgb(255, 0, 0); stroke-width: 0.2;" d="M8.77,7.00 L9.00,6.80 "/>
    <path fill-rule="evenodd" style="fill: none; stroke: rgb(255, 0, 0); stroke-width: 0.2;" d="M181.00,4.14 L182.00,4.68 L182.53,5.00 L183.00,5.30 L184.00,6.00 L185.00,6.80 "/>
    <path fill-rule="evenodd" style="fill: none; stroke: rgb(255, 0, 0); stroke-width: 0.2;" d="M214.08,85.00 L214.42,86.00 L214.75,87.00 L215.00,87.75 "/>
    <path fill-rule="evenodd" style="fill: none; stroke: rgb(255, 0, 0); stroke-width: 0.2;" d="M208.08,67.00 L208.42,68.00 L208.75,69.00 L209.00,69.75 "/>
    <path fill-rule="evenodd" style="fill: none; stroke: rgb(255, 0, 0); stroke-width: 0.2;" d="M241.00,165.76 L241.08,166.00 "/>
    <path fill-rule="evenodd" style="fill: none; stroke: rgb(255, 0, 0); stroke-width: 0.2;" d="M207.08,64.00 L207.42,65.00 L207.75,66.00 L208.00,66.75 "/>
    <path fill-rule="evenodd" style="fill: none; stroke: rgb(255, 0, 0); stroke-width: 0.2;" d="M237.08,154.00 L237.42,155.00 L237.75,156.00 L238.00,156.75 "/>
    <path fill-rule="evenodd" style="fill: none; stroke: rgb(255, 0, 0); stroke-width: 0.2;" d="M221.08,106.00 L221.42,107.00 L221.75,108.00 L222.00,108.75 "/>
    <path fill-rule="evenodd" style="fill: none; stroke: rgb(255, 0, 0); stroke-width: 0.2;" d="M232.00,138.75 L232.08,139.00 "/>
    <path fill-rule="evenodd" style="fill: none; stroke: rgb(255, 0, 0); stroke-width: 0.2;" d="M216.08,91.00 L216.42,92.00 L216.75,93.00 L217.00,93.75 "/>
    <path fill-rule="evenodd" style="fill: none; stroke: rgb(255, 0, 0); stroke-width: 0.2;" d="M215.77,191.00 L215.00,190.73 L214.00,190.33 L213.29,190.00 L213.00,189.86 L212.00,189.32 L211.47,189.00 L211.00,188.70 L210.00,188.00 L209.00,187.20 "/>
    <path fill-rule="evenodd" style="fill: none; stroke: rgb(255, 0, 0); stroke-width: 0.2;" d="M229.08,130.00 L229.42,131.00 L229.75,132.00 L230.00,132.75 "/>
    <path fill-rule="evenodd" style="fill: none; stroke: rgb(255, 0, 0); stroke-width: 0.2;" d="M196.08,31.00 L196.42,32.00 L196.75,33.00 L197.00,33.75 "/>
    <path fill-rule="evenodd" style="fill: none; stroke: rgb(255, 0, 0); stroke-width: 0.2;" d="M227.08,124.00 L227.42,125.00 L227.75,126.00 L228.00,126.75 "/>
    <path fill-rule="evenodd" style="fill: none; stroke: rgb(255, 0, 0); stroke-width: 0.2;" d="M6.80,35.00 L6.00,34.00 L5.30,33.00 L5.00,32.53 L4.68,32.00 L4.14,31.00 L4.00,30.71 L3.67,30.00 L3.27,29.00 L3.00,28.23 "/>
    <path fill-rule="evenodd" style="fill: none; stroke: rgb(255, 0, 0); stroke-width: 0.2;" d="M239.08,160.00 L239.42,161.00 L239.75,162.00 L240.00,162.75 "/>
    <path fill-rule="evenodd" style="fill: none; stroke: rgb(255, 0, 0); stroke-width: 0.2;" d="M220.08,103.00 L220.42,104.00 L220.75,105.00 L221.00,105.75 "/>
    <path fill-rule="evenodd" style="fill: none; stroke: rgb(255, 0, 0); stroke-width: 0.2;" d="M3.00,15.77 L3.27,15.00 L3.67,14.00 L4.00,13.29 L4.14,13.00 L4.68,12.00 L5.00,11.47 L5.30,11.00 L6.00,10.00 L6.80,9.00 "/>
    <path fill-rule="evenodd" style="fill: none; stroke: rgb(255, 0, 0); stroke-width: 0.2;" d="M235.00,187.20 L234.00,188.00 L233.00,188.70 L232.53,189.00 L232.00,189.32 L231.00,189.86 L230.71,190.00 L230.00,190.33 L229.00,190.73 L228.23,191.00 "/>
    <path fill-rule="evenodd" style="fill: none; stroke: rgb(255, 0, 0); stroke-width: 0.2;" d="M199.08,40.00 L199.42,41.00 L199.75,42.00 L200.00,42.75 "/>
    <path fill-rule="evenodd" style="fill: none; stroke: rgb(255, 0, 0); stroke-width: 0.2;" d="M219.08,100.00 L219.42,101.00 L219.75,102.00 L220.00,102.75 "/>
    <path fill-rule="evenodd" style="fill: none; stroke: rgb(255, 0, 0); stroke-width: 0.2;" d="M231.08,136.00 L231.42,137.00 L231.75,138.00 L232.00,138.75 "/>
    <path fill-rule="evenodd" style="fill: none; stroke: rgb(255, 0, 0); stroke-width: 0.2;" d="M2.92,28.00 L2.64,27.00 L2.40,26.00 L2.23,25.00 L2.10,24.00 L2.03,23.00 L2.00,22.00 L2.03,21.00 L2.10,20.00 L2.23,19.00 L2.40,18.00 L2.64,17.00 L2.92,16.00 "/>
    <path fill-rule="evenodd" style="fill: none; stroke: rgb(255, 0, 0); stroke-width: 0.2;" d="M198.08,37.00 L198.42,38.00 L198.75,39.00 L199.00,39.75 "/>
    <path fill-rule="evenodd" style="fill: none; stroke: rgb(255, 0, 0); stroke-width: 0.2;" d="M210.08,73.00 L210.42,74.00 L210.75,75.00 L211.00,75.75 "/>
    <path fill-rule="evenodd" style="fill: none; stroke: rgb(255, 0, 0); stroke-width: 0.2;" d="M201.00,45.75 L201.08,46.00 "/>
    <path fill-rule="evenodd" style="fill: none; stroke: rgb(255, 0, 0); stroke-width: 0.2;" d="M201.08,46.00 L201.42,47.00 L201.75,48.00 L202.00,48.75 "/>
    <path fill-rule="evenodd" style="fill: none; stroke: rgb(255, 0, 0); stroke-width: 0.2;" d="M240.08,163.00 L240.42,164.00 L240.75,165.00 L241.00,165.76 "/>
    <path fill-rule="evenodd" style="fill: none; stroke: rgb(255, 0, 0); stroke-width: 0.2;" d="M196.00,30.75 L196.08,31.00 "/>
    <path fill-rule="evenodd" style="fill: none; stroke: rgb(255, 0, 0); stroke-width: 0.2;" d="M228.23,191.00 L228.00,191.08 "/>
    <path fill-rule="evenodd" style="fill: none; stroke: rgb(255, 0, 0); stroke-width: 0.2;" d="M234.08,145.00 L234.42,146.00 L234.75,147.00 L235.00,147.75 "/>
    <path fill-rule="evenodd" style="fill: none; stroke: rgb(255, 0, 0); stroke-width: 0.2;" d="M207.00,63.75 L207.08,64.00 "/>
    <path fill-rule="evenodd" style="fill: none; stroke: rgb(255, 0, 0); stroke-width: 0.2;" d="M9.00,6.80 L10.00,6.00 L11.00,5.30 L11.47,5.00 L12.00,4.68 L13.00,4.14 L13.29,4.00 L14.00,3.67 L15.00,3.27 L15.77,3.00 "/>
    <path fill-rule="evenodd" style="fill: none; stroke: rgb(255, 0, 0); stroke-width: 0.2;" d="M185.23,7.00 L186.00,7.72 L186.28,8.00 L187.00,8.77 "/>
    <path fill-rule="evenodd" style="fill: none; stroke: rgb(255, 0, 0); stroke-width: 0.2;" d="M216.00,191.08 L215.77,191.00 "/>
    <path fill-rule="evenodd" style="fill: none; stroke: rgb(255, 0, 0); stroke-width: 0.2;" d="M8.00,36.28 L7.72,36.00 "/>
    <path fill-rule="evenodd" style="fill: none; stroke: rgb(255, 0, 0); stroke-width: 0.2;" d="M209.00,187.20 L208.77,187.00 "/>
    <path fill-rule="evenodd" style="fill: none; stroke: rgb(255, 0, 0); stroke-width: 0.2;" d="M222.08,109.00 L222.42,110.00 L222.75,111.00 L223.00,111.75 "/>
    <path fill-rule="evenodd" style="fill: none; stroke: rgb(255, 0, 0); stroke-width: 0.2;" d="M212.00,78.75 L212.08,79.00 "/>
    <path fill-rule="evenodd" style="fill: none; stroke: rgb(255, 0, 0); stroke-width: 0.2;" d="M223.08,112.00 L223.42,113.00 L223.75,114.00 L224.00,114.75 "/>
    <path fill-rule="evenodd" style="fill: none; stroke: rgb(255, 0, 0); stroke-width: 0.2;" d="M233.08,142.00 L233.42,143.00 L233.75,144.00 L234.00,144.75 "/>
    <path fill-rule="evenodd" style="fill: none; stroke: rgb(255, 0, 0); stroke-width: 0.2;" d="M212.08,79.00 L212.42,80.00 L212.75,81.00 L213.00,81.75 "/>
    <path fill-rule="evenodd" style="fill: none; stroke: rgb(255, 0, 0); stroke-width: 0.2;" d="M185.00,6.80 L185.23,7.00 "/>
    <path fill-rule="evenodd" style="fill: none; stroke: rgb(255, 0, 0); stroke-width: 0.2;" d="M217.08,94.00 L217.42,95.00 L217.75,96.00 L218.00,96.75 "/>
    <path fill-rule="evenodd" style="fill: none; stroke: rgb(255, 0, 0); stroke-width: 0.2;" d="M218.08,97.00 L218.42,98.00 L218.75,99.00 L219.00,99.75 "/>
    <path fill-rule="evenodd" style="fill: none; stroke: rgb(255, 0, 0); stroke-width: 0.2;" d="M228.08,127.00 L228.42,128.00 L228.75,129.00 L229.00,129.75 "/>
    <path fill-rule="evenodd" style="fill: none; stroke: rgb(255, 0, 0); stroke-width: 0.2;" d="M195.08,28.00 L195.42,29.00 L195.75,30.00 L196.00,30.75 "/>
    <path fill-rule="evenodd" style="fill: none; stroke: rgb(255, 0, 0); stroke-width: 0.2;" d="M233.00,141.75 L233.08,142.00 "/>
    <path fill-rule="evenodd" style="fill: none; stroke: rgb(255, 0, 0); stroke-width: 0.2;" d="M191.08,16.00 L191.42,17.00 L191.75,18.00 L192.00,18.75 "/>
    <path fill-rule="evenodd" style="fill: none; stroke: rgb(255, 0, 0); stroke-width: 0.2;" d="M224.08,115.00 L224.42,116.00 L224.75,117.00 L225.00,117.75 "/>
    <path fill-rule="evenodd" style="fill: none; stroke: rgb(255, 0, 0); stroke-width: 0.2;" d="M2.92,16.00 L3.00,15.77 "/>
    <path fill-rule="evenodd" style="fill: none; stroke: rgb(255, 0, 0); stroke-width: 0.2;" d="M202.08,49.00 L202.42,50.00 L202.75,51.00 L203.00,51.75 "/>
    <path fill-rule="evenodd" style="fill: none; stroke: rgb(255, 0, 0); stroke-width: 0.2;" d="M225.00,117.75 L225.08,118.00 "/>
    <path fill-rule="evenodd" style="fill: none; stroke: rgb(255, 0, 0); stroke-width: 0.2;" d="M231.00,135.75 L231.08,136.00 "/>
    <path fill-rule="evenodd" style="fill: none; stroke: rgb(255, 0, 0); stroke-width: 0.2;" d="M197.08,34.00 L197.42,35.00 L197.75,36.00 L198.00,36.75 "/>
    <path fill-rule="evenodd" style="fill: none; stroke: rgb(255, 0, 0); stroke-width: 0.2;" d="M230.00,132.75 L230.08,133.00 "/>
    <path fill-rule="evenodd" style="fill: none; stroke: rgb(255, 0, 0); stroke-width: 0.2;" d="M15.77,3.00 L16.00,2.92 "/>
    <path fill-rule="evenodd" style="fill: none; stroke: rgb(255, 0, 0); stroke-width: 0.2;" d="M235.08,148.00 L235.42,149.00 L235.75,150.00 L236.00,150.75 "/>
    <path fill-rule="evenodd" style="fill: none; stroke: rgb(255, 0, 0); stroke-width: 0.2;" d="M224.00,114.75 L224.08,115.00 "/>
    <path fill-rule="evenodd" style="fill: none; stroke: rgb(255, 0, 0); stroke-width: 0.2;" d="M7.00,8.77 L7.72,8.00 L8.00,7.72 L8.77,7.00 "/>
    <path fill-rule="evenodd" style="fill: none; stroke: rgb(255, 0, 0); stroke-width: 0.2;" d="M237.00,185.23 L236.28,186.00 L236.00,186.28 L235.23,187.00 "/>
    <path fill-rule="evenodd" style="fill: none; stroke: rgb(255, 0, 0); stroke-width: 0.2;" d="M202.00,48.75 L202.08,49.00 "/>
    <path fill-rule="evenodd" style="fill: none; stroke: rgb(255, 0, 0); stroke-width: 0.2;" d="M235.00,147.75 L235.08,148.00 "/>
    <path fill-rule="evenodd" style="fill: none; stroke: rgb(255, 0, 0); stroke-width: 0.2;" d="M193.00,21.75 L193.08,22.00 "/>
    <path fill-rule="evenodd" style="fill: none; stroke: rgb(255, 0, 0); stroke-width: 0.2;" d="M214.00,84.75 L214.08,85.00 "/>
    <path fill-rule="evenodd" style="fill: none; stroke: rgb(255, 0, 0); stroke-width: 0.2;" d="M208.00,66.75 L208.08,67.00 "/>
    <path fill-rule="evenodd" style="fill: none; stroke: rgb(255, 0, 0); stroke-width: 0.2;" d="M193.08,22.00 L193.42,23.00 L193.75,24.00 L194.00,24.75 "/>
    <path fill-rule="evenodd" style="fill: none; stroke: rgb(255, 0, 0); stroke-width: 0.2;" d="M187.00,8.77 L187.20,9.00 "/>
    <path fill-rule="evenodd" style="fill: none; stroke: rgb(255, 0, 0); stroke-width: 0.2;" d="M199.00,39.75 L199.08,40.00 "/>
    <path fill-rule="evenodd" style="fill: none; stroke: rgb(255, 0, 0); stroke-width: 0.2;" d="M178.23,3.00 L179.00,3.27 L180.00,3.67 L180.71,4.00 "/>
    <path fill-rule="evenodd" style="fill: none; stroke: rgb(255, 0, 0); stroke-width: 0.2;" d="M223.00,111.75 L223.08,112.00 "/>
    <path fill-rule="evenodd" style="fill: none; stroke: rgb(255, 0, 0); stroke-width: 0.2;" d="M226.00,120.75 L226.08,121.00 "/>
    <path fill-rule="evenodd" style="fill: none; stroke: rgb(255, 0, 0); stroke-width: 0.2;" d="M226.08,121.00 L226.42,122.00 L226.75,123.00 L227.00,123.75 "/>
    <path fill-rule="evenodd" style="fill: none; stroke: rgb(255, 0, 0); stroke-width: 0.2;" d="M236.08,151.00 L236.42,152.00 L236.75,153.00 L237.00,153.75 "/>
    <path fill-rule="evenodd" style="fill: none; stroke: rgb(255, 0, 0); stroke-width: 0.2;" d="M220.00,102.75 L220.08,103.00 "/>
    <path fill-rule="evenodd" style="fill: none; stroke: rgb(255, 0, 0); stroke-width: 0.2;" d="M219.00,99.75 L219.08,100.00 "/>
    <path fill-rule="evenodd" style="fill: none; stroke: rgb(255, 0, 0); stroke-width: 0.2;" d="M230.08,133.00 L230.42,134.00 L230.75,135.00 L231.00,135.75 "/>
    <path fill-rule="evenodd" style="fill: none; stroke: rgb(255, 0, 0); stroke-width: 0.2;" d="M225.08,118.00 L225.42,119.00 L225.75,120.00 L226.00,120.75 "/>
    <path fill-rule="evenodd" style="fill: none; stroke: rgb(255, 0, 0); stroke-width: 0.2;" d="M237.20,185.00 L237.00,185.23 "/>
    <path fill-rule="evenodd" style="fill: none; stroke: rgb(255, 0, 0); stroke-width: 0.2;" d="M203.08,52.00 L203.42,53.00 L203.75,54.00 L204.00,54.75 "/>
    <path fill-rule="evenodd" style="fill: none; stroke: rgb(255, 0, 0); stroke-width: 0.2;" d="M236.00,150.75 L236.08,151.00 "/>
    <path fill-rule="evenodd" style="fill: none; stroke: rgb(255, 0, 0); stroke-width: 0.2;" d="M215.00,87.75 L215.08,88.00 "/>
    <path fill-rule="evenodd" style="fill: none; stroke: rgb(255, 0, 0); stroke-width: 0.2;" d="M194.08,25.00 L194.42,26.00 L194.75,27.00 L195.00,27.75 "/>
    <path fill-rule="evenodd" style="fill: none; stroke: rgb(255, 0, 0); stroke-width: 0.2;" d="M215.08,88.00 L215.42,89.00 L215.75,90.00 L216.00,90.75 "/>
    <path fill-rule="evenodd" style="fill: none; stroke: rgb(255, 0, 0); stroke-width: 0.2;" d="M222.00,108.75 L222.08,109.00 "/>
    <path fill-rule="evenodd" style="fill: none; stroke: rgb(255, 0, 0); stroke-width: 0.2;" d="M238.08,157.00 L238.42,158.00 L238.75,159.00 L239.00,159.75 "/>
    <path fill-rule="evenodd" style="fill: none; stroke: rgb(255, 0, 0); stroke-width: 0.2;" d="M200.08,43.00 L200.42,44.00 L200.75,45.00 L201.00,45.75 "/>
    <path fill-rule="evenodd" style="fill: none; stroke: rgb(255, 0, 0); stroke-width: 0.2;" d="M191.00,15.76 L191.08,16.00 "/>
    <path fill-rule="evenodd" style="fill: none; stroke: rgb(255, 0, 0); stroke-width: 0.2;" d="M194.00,24.75 L194.08,25.00 "/>
    <path fill-rule="evenodd" style="fill: none; stroke: rgb(255, 0, 0); stroke-width: 0.2;" d="M213.08,82.00 L213.42,83.00 L213.75,84.00 L214.00,84.75 "/>
    <path fill-rule="evenodd" style="fill: none; stroke: rgb(255, 0, 0); stroke-width: 0.2;" d="M241.08,178.00 L241.00,178.23 "/>
    <path fill-rule="evenodd" style="fill: none; stroke: rgb(255, 0, 0); stroke-width: 0.2;" d="M205.00,57.75 L205.08,58.00 "/>
    <path fill-rule="evenodd" style="fill: none; stroke: rgb(255, 0, 0); stroke-width: 0.2;" d="M234.00,144.75 L234.08,145.00 "/>
    <path fill-rule="evenodd" style="fill: none; stroke: rgb(255, 0, 0); stroke-width: 0.2;" d="M200.00,42.75 L200.08,43.00 "/>
    <path fill-rule="evenodd" style="fill: none; stroke: rgb(255, 0, 0); stroke-width: 0.2;" d="M211.08,76.00 L211.42,77.00 L211.75,78.00 L212.00,78.75 "/>
    <path fill-rule="evenodd" style="fill: none; stroke: rgb(255, 0, 0); stroke-width: 0.2;" d="M8.77,37.00 L8.00,36.28 "/>
    <path fill-rule="evenodd" style="fill: none; stroke: rgb(255, 0, 0); stroke-width: 0.2;" d="M217.00,93.75 L217.08,94.00 "/>
    <path fill-rule="evenodd" style="fill: none; stroke: rgb(255, 0, 0); stroke-width: 0.2;" d="M211.00,75.75 L211.08,76.00 "/>
    <path fill-rule="evenodd" style="fill: none; stroke: rgb(255, 0, 0); stroke-width: 0.2;" d="M210.00,72.75 L210.08,73.00 "/>
    <path fill-rule="evenodd" style="fill: none; stroke: rgb(255, 0, 0); stroke-width: 0.2;" d="M221.00,105.75 L221.08,106.00 "/>
    <path fill-rule="evenodd" style="fill: none; stroke: rgb(255, 0, 0); stroke-width: 0.2;" d="M192.08,19.00 L192.42,20.00 L192.75,21.00 L193.00,21.75 "/>
    <path fill-rule="evenodd" style="fill: none; stroke: rgb(255, 0, 0); stroke-width: 0.2;" d="M216.00,90.75 L216.08,91.00 "/>
    <path fill-rule="evenodd" style="fill: none; stroke: rgb(255, 0, 0); stroke-width: 0.2;" d="M229.00,129.75 L229.08,130.00 "/>
    <path fill-rule="evenodd" style="fill: none; stroke: rgb(255, 0, 0); stroke-width: 0.2;" d="M239.00,159.75 L239.08,160.00 "/>
    <path fill-rule="evenodd" style="fill: none; stroke: rgb(255, 0, 0); stroke-width: 0.2;" d="M178.00,2.92 L178.23,3.00 "/>
    <path fill-rule="evenodd" style="fill: none; stroke: rgb(255, 0, 0); stroke-width: 0.2;" d="M235.23,187.00 L235.00,187.20 "/>
    <path fill-rule="evenodd" style="fill: none; stroke: rgb(255, 0, 0); stroke-width: 0.2;" d="M192.00,18.75 L192.08,19.00 "/>
    <path fill-rule="evenodd" style="fill: none; stroke: rgb(255, 0, 0); stroke-width: 0.2;" d="M203.00,51.75 L203.08,52.00 "/>
    <path fill-rule="evenodd" style="fill: none; stroke: rgb(255, 0, 0); stroke-width: 0.2;" d="M240.00,162.75 L240.08,163.00 "/>
    <path fill-rule="evenodd" style="fill: none; stroke: rgb(255, 0, 0); stroke-width: 0.2;" d="M206.08,61.00 L206.42,62.00 L206.75,63.00 L207.00,63.75 "/>
    <path fill-rule="evenodd" style="fill: none; stroke: rgb(255, 0, 0); stroke-width: 0.2;" d="M7.00,35.23 L6.80,35.00 "/>
    <path fill-rule="evenodd" style="fill: none; stroke: rgb(255, 0, 0); stroke-width: 0.2;" d="M206.00,60.75 L206.08,61.00 "/>
    <path fill-rule="evenodd" style="fill: none; stroke: rgb(255, 0, 0); stroke-width: 0.2;" d="M218.00,96.75 L218.08,97.00 "/>
    <path fill-rule="evenodd" style="fill: none; stroke: rgb(255, 0, 0); stroke-width: 0.2;" d="M197.00,33.75 L197.08,34.00 "/>
    <path fill-rule="evenodd" style="fill: none; stroke: rgb(255, 0, 0); stroke-width: 0.2;" d="M213.00,81.75 L213.08,82.00 "/>
    <path fill-rule="evenodd" style="fill: none; stroke: rgb(255, 0, 0); stroke-width: 0.2;" d="M3.00,28.23 L2.92,28.00 "/>
    <path fill-rule="evenodd" style="fill: none; stroke: rgb(255, 0, 0); stroke-width: 0.2;" d="M237.00,153.75 L237.08,154.00 "/>
    <path fill-rule="evenodd" style="fill: none; stroke: rgb(255, 0, 0); stroke-width: 0.2;" d="M9.00,37.20 L8.77,37.00 "/>
    <path fill-rule="evenodd" style="fill: none; stroke: rgb(255, 0, 0); stroke-width: 0.2;" d="M204.00,54.75 L204.08,55.00 "/>
    <path fill-rule="evenodd" style="fill: none; stroke: rgb(255, 0, 0); stroke-width: 0.2;" d="M7.72,36.00 L7.00,35.23 "/>
    <path fill-rule="evenodd" style="fill: none; stroke: rgb(255, 0, 0); stroke-width: 0.2;" d="M195.00,27.75 L195.08,28.00 "/>
    <path fill-rule="evenodd" style="fill: none; stroke: rgb(255, 0, 0); stroke-width: 0.2;" d="M6.80,9.00 L7.00,8.77 "/>
    <path fill-rule="evenodd" style="fill: none; stroke: rgb(255, 0, 0); stroke-width: 0.2;" d="M198.00,36.75 L198.08,37.00 "/>
    <path fill-rule="evenodd" style="fill: none; stroke: rgb(255, 0, 0); stroke-width: 0.2;" d="M209.00,69.75 L209.08,70.00 "/>

<script>
let svgs = document.children[0];
let paths = Array.from(svgs.children).filter(function(c) {
    var orig = c.style.stroke;
    c.onmouseover = function() {
        c.style.stroke = "rgb(0, 0, 255)";
    };
    c.onmouseout = function () {
        c.style.stroke = orig;
    };
    c.onclick = function () {
        svgs.removeChild();
    }
});

for (let path of paths) {
    console.log(path);
}
</script></svg>