<svg xmlns="http://www.w3.org/2000/svg">
    <path fill-rule="evenodd" style="fill: none; stroke: rgb(0, 0, 0); stroke-width: 0.2;" d="M241.07861,166.00000 L241.36455,167.00000 M180.70810,4.00000 L181.00000,4.14013 M104.00000,85.36068 L103.27864,85.00000 M188.70135,11.00000 L189.00000,11.47291 M209.41518,71.00000 L209.74852,72.00000 M12.00000,39.31896 L11.47291,39.00000 M61.00000,2.00000 L62.00000,2.00000 M79.27864,73.00000 L79.00000,72.86068 M119.71574,98.00000 L119.00000,97.28426 M228.00000,126.75443 L228.08186,127.00000 M143.00000,121.28427 L142.71573,121.00000 M189.00000,167.28427 L188.71573,167.00000 M13.27864,40.00000 L13.00000,39.85987 M57.00000,61.86068 L56.00000,61.36068 M239.31897,182.00000 L239.00000,182.52708 M77.27864,72.00000 L77.00000,71.86068 M205.08185,58.00000 L205.41518,59.00000 M227.00000,123.75443 L227.08186,124.00000 M176.00000,154.28427 L175.71573,154.00000 M102.00000,2.00000 L103.00000,2.00000 M238.00000,156.75443 L238.08185,157.00000 M10.00000,38.00000 L9.00000,37.19654 M29.27864,48.00000 L29.00000,47.86068 M74.00000,2.00000 L75.00000,2.00000 M204.41518,56.00000 L204.74852,57.00000 M136.00000,114.28427 L135.71573,114.00000 M232.74852,141.00000 L233.00000,141.75443 M160.00000,2.00000 L161.00000,2.00000 M217.00000,191.36455 L216.00000,191.07861 M8.77489,7.00000 L9.00000,6.80346 M26.00000,2.00000 L27.00000,2.00000 M69.00000,2.00000 L70.00000,2.00000 M147.71573,126.00000 L147.00000,125.28427 M96.00000,81.36068 L95.27864,81.00000 M183.00000,5.29864 L184.00000,6.00000 M214.74852,87.00000 L215.00000,87.75443 M21.00000,2.02502 L22.00000,2.00000 M91.00000,2.00000 L92.00000,2.00000 M241.77362,175.00000 L241.59567,176.00000 M129.00000,2.00000 L130.00000,2.00000 M208.74852,69.00000 L209.00000,69.75443 M152.71573,131.00000 L152.00000,130.28427 M194.00000,172.28427 L193.71573,172.00000 M241.00000,165.76048 L241.07861,166.00000 M17.00000,41.86068 L16.00000,41.36068 M89.00000,2.00000 L90.00000,2.00000 M188.00000,10.00000 L188.70135,11.00000 M207.74852,66.00000 L208.00000,66.75443 M143.00000,2.00000 L144.00000,2.00000 M112.71574,91.00000 L112.00000,90.28427 M166.71573,145.00000 L166.00000,144.28427 M221.00000,191.97498 L220.00000,191.89972 M41.00000,2.00000 L42.00000,2.00000 M85.00000,75.86068 L84.00000,75.36068 M186.71573,165.00000 L186.00000,164.28427 M101.27864,84.00000 L101.00000,83.86068 M237.74852,156.00000 L238.00000,156.75443 M126.71574,105.00000 L126.00000,104.28426 M199.71573,178.00000 L199.00000,177.28427 M221.74852,108.00000 L222.00000,108.75443 M37.00000,51.86068 L36.00000,51.36068 M86.00000,76.36068 L85.27864,76.00000 M232.00000,138.75446 L232.08185,139.00000 M141.00000,2.00000 L142.00000,2.00000 M107.27864,87.00000 L107.00000,86.86068 M190.00000,168.28427 L189.71573,168.00000 M164.71573,143.00000 L164.00000,142.28427 M200.00000,178.28427 L199.71573,178.00000 M38.00000,52.36068 L37.27864,52.00000 M83.00000,2.00000 L84.00000,2.00000 M99.00000,82.86068 L98.00000,82.36068 M216.74852,93.00000 L217.00000,93.75443 M124.71574,103.00000 L124.00000,102.28427 M190.73434,15.00000 L191.00000,15.76187 M35.00000,2.00000 L36.00000,2.00000 M55.00000,60.86068 L54.00000,60.36068 M182.52708,5.00000 L183.00000,5.29864 M215.76779,191.00000 L215.00000,190.73434 M157.71573,136.00000 L157.00000,135.28427 M180.71573,159.00000 L180.00000,158.28427 M229.74852,132.00000 L230.00000,132.75443 M33.00000,2.00000 L34.00000,2.00000 M51.27864,59.00000 L51.00000,58.86068 M195.00000,173.28427 L194.71573,173.00000 M117.71573,96.00000 L117.00000,95.28427 M169.00000,2.00000 L170.00000,2.00000 M120.00000,2.00000 L121.00000,2.00000 M196.08185,31.00000 L196.41518,32.00000 M227.08186,124.00000 L227.41518,125.00000 M6.00000,34.00000 L5.29864,33.00000 M46.00000,56.36068 L45.27864,56.00000 M239.41518,161.00000 L239.74852,162.00000 M150.00000,128.28427 L149.71573,128.00000 M220.74852,105.00000 L221.00000,105.75443 M174.00000,2.10027 L175.00000,2.22638 M204.74852,57.00000 L205.00000,57.75443 M3.67065,14.00000 L4.00000,13.29190 M43.00000,2.00000 L44.00000,2.00000 M233.00000,188.70135 L232.52708,189.00000 M110.00000,88.38929 L109.27864,88.00000 M199.08185,40.00000 L199.41518,41.00000 M219.74852,102.00000 L220.00000,102.75446 M164.00000,142.28427 L163.71573,142.00000 M134.00000,2.00000 L135.00000,2.00000 M231.41518,137.00000 L231.74852,138.00000 M2.40433,26.00000 L2.22638,25.00000 M66.00000,66.36068 L65.27864,66.00000 M189.85986,13.00000 L190.00000,13.29190 M198.41518,38.00000 L198.74852,39.00000 M124.00000,102.28427 L123.71573,102.00000 M148.00000,2.00000 L149.00000,2.00000 M210.41518,74.00000 L210.74852,75.00000 M2.10027,20.00000 L2.22638,19.00000 M63.00000,2.00000 L64.00000,2.00000 M241.89972,170.00000 L241.97498,171.00000 M162.00000,140.28427 L161.71573,140.00000 M129.00000,107.28427 L128.71573,107.00000 M201.00000,45.75443 L201.08186,46.00000 M211.00000,188.70135 L210.00000,188.00000 M15.00000,40.86068 L14.00000,40.36068 M64.00000,2.00000 L65.00000,2.00000 M122.00000,100.28427 L121.71573,100.00000 M229.08185,130.00000 L229.41518,131.00000 M146.00000,2.00000 L147.00000,2.00000 M201.41518,47.00000 L201.74852,48.00000 M16.00000,2.92138 L17.00000,2.63545 M60.00000,63.36068 L59.27864,63.00000 M240.41518,164.00000 L240.74852,165.00000 M81.00000,2.00000 L82.00000,2.00000 M196.00000,30.75443 L196.08185,31.00000 M228.23221,191.00000 L228.00000,191.07861 M178.71573,157.00000 L178.00000,156.28427 M105.00000,85.86068 L104.00000,85.36068 M239.08185,160.00000 L239.41518,161.00000 M13.00000,39.85987 L12.00000,39.31896 M58.00000,62.36068 L57.27864,62.00000 M77.00000,71.86068 L76.00000,71.36068 M205.74852,60.00000 L206.00000,60.75443 M139.00000,2.00000 L140.00000,2.00000 M234.08186,145.00000 L234.41518,146.00000 M141.00000,119.28427 L140.71573,119.00000 M207.00000,63.75443 L207.08185,64.00000 M11.47291,5.00000 L12.00000,4.68104 M29.00000,47.86068 L28.00000,47.36068 M72.00000,2.00000 L73.00000,2.00000 M171.71573,150.00000 L171.00000,149.28427 M99.27864,83.00000 L99.00000,82.86068 M185.22511,7.00000 L186.00000,7.72055 M216.00000,191.07861 L215.76779,191.00000 M8.00000,36.27945 L7.72055,36.00000 M24.00000,2.00000 L25.00000,2.00000 M68.00000,67.36068 L67.27864,67.00000 M131.71574,110.00000 L131.00000,109.28426 M210.00000,188.00000 L209.00000,187.19653 M155.00000,133.28427 L154.71573,133.00000 M181.71573,160.00000 L181.00000,159.28427 M241.77362,169.00000 L241.89972,170.00000 M20.00000,43.36068 L19.27864,43.00000 M92.00000,2.00000 L93.00000,2.00000 M200.71573,179.00000 L200.00000,178.28427 M209.00000,187.19653 L208.77489,187.00000 M145.71573,124.00000 L145.00000,123.28427 M115.00000,93.28426 L114.71574,93.00000 M169.00000,147.28427 L168.71573,147.00000 M222.74852,111.00000 L223.00000,111.75446 M18.00000,42.36068 L17.27864,42.00000 M88.00000,77.36068 L87.27864,77.00000 M188.71573,167.00000 L188.00000,166.28427 M105.00000,2.00000 L106.00000,2.00000 M239.00000,182.52708 L238.70135,183.00000 M150.71573,129.00000 L150.00000,128.28427 M212.00000,78.75443 L212.08186,79.00000 M223.08185,112.00000 L223.41518,113.00000 M40.00000,53.36068 L39.27864,53.00000 M89.27864,78.00000 L89.00000,77.86068 M233.08186,142.00000 L233.41518,143.00000 M143.71573,122.00000 L143.00000,121.28427 M110.71573,89.00000 L110.00000,88.38929 M191.71573,170.00000 L191.00000,169.28427 M167.00000,145.28427 L166.71573,145.00000 M212.41518,80.00000 L212.74852,81.00000 M41.27864,54.00000 L41.00000,53.86068 M86.00000,2.00000 L87.00000,2.00000 M102.00000,84.36068 L101.27864,84.00000 M206.71573,185.00000 L206.00000,184.28427 M127.00000,105.28426 L126.71574,105.00000 M192.00000,170.28427 L191.71573,170.00000 M38.00000,2.00000 L39.00000,2.00000 M84.00000,2.00000 L85.00000,2.00000 M185.00000,6.80346 L185.22511,7.00000 M217.08186,94.00000 L217.41518,95.00000 M160.00000,138.28427 L159.71573,138.00000 M108.00000,87.36068 L107.27864,87.00000 M162.71573,141.00000 L162.00000,140.28427 M218.74852,99.00000 L219.00000,99.75443 M36.00000,2.00000 L37.00000,2.00000 M55.00000,2.00000 L56.00000,2.00000 M183.00000,161.28427 L182.71573,161.00000 M97.00000,2.00000 L98.00000,2.00000 M122.71573,101.00000 L122.00000,100.28427 M197.71573,176.00000 L197.00000,175.28427 M228.74852,129.00000 L229.00000,129.75446 M32.00000,49.36068 L31.27864,49.00000 M49.27864,58.00000 L49.00000,57.86068 M240.73434,179.00000 L240.32935,180.00000 M153.00000,2.00000 L154.00000,2.00000 M222.08185,109.00000 L222.41518,110.00000 M176.71573,155.00000 L176.00000,154.28427 M195.41518,29.00000 L195.74852,30.00000 M5.00000,11.47291 L5.29864,11.00000 M46.00000,2.00000 L47.00000,2.00000 M234.74852,147.00000 L235.00000,147.75443 M113.00000,2.00000 L114.00000,2.00000 M211.47292,189.00000 L211.00000,188.70135 M221.08186,106.00000 L221.41518,107.00000 M167.00000,2.00000 L168.00000,2.00000 M136.71573,115.00000 L136.00000,114.28427 M233.00000,141.75443 L233.08186,142.00000 M3.26566,15.00000 L3.67065,14.00000 M44.00000,2.00000 L45.00000,2.00000 M191.08186,16.00000 L191.41518,17.00000 M199.74852,42.00000 L200.00000,42.75443 M127.00000,2.00000 L128.00000,2.00000 M172.00000,2.00000 L173.00000,2.02502 M224.08186,115.00000 L224.41518,116.00000 M2.92138,16.00000 L3.00000,15.76779 M66.00000,2.00000 L67.00000,2.00000 M190.32935,14.00000 L190.73434,15.00000 M108.00000,2.00000 L109.00000,2.00000 M165.00000,2.00000 L166.00000,2.00000 M132.00000,2.00000 L133.00000,2.00000 M202.08186,49.00000 L202.41518,50.00000 M225.00000,117.75443 L225.08186,118.00000 M2.02502,23.00000 L2.00000,22.00000 M67.00000,66.86068 L66.00000,66.36068 M125.00000,2.00000 L126.00000,2.00000 M218.08186,97.00000 L218.41518,98.00000 M148.71573,127.00000 L148.00000,126.28427 M202.74852,51.00000 L203.00000,51.75443 M2.22638,19.00000 L2.40433,18.00000 M63.27864,65.00000 L63.00000,64.86068 M231.00000,135.75443 L231.08186,136.00000 M197.08186,34.00000 L197.41518,35.00000 M230.00000,132.75443 L230.08186,133.00000 M181.00000,4.14013 L182.00000,4.68104 M130.00000,2.00000 L131.00000,2.00000 M240.32935,180.00000 L240.00000,180.70810 M15.76779,3.00000 L16.00000,2.92138 M61.27864,64.00000 L61.00000,63.86068 M80.00000,73.36068 L79.27864,73.00000 M196.41518,32.00000 L196.74852,33.00000 M120.00000,98.28426 L119.71574,98.00000 M235.74852,150.00000 L236.00000,150.75446 M144.00000,2.00000 L145.00000,2.00000 M208.08186,67.00000 L208.41518,68.00000 M14.00000,3.67065 L15.00000,3.26566 M58.00000,2.00000 L59.00000,2.00000 M75.00000,70.86068 L74.00000,70.36068 M174.00000,152.28427 L173.71573,152.00000 M103.00000,2.00000 L104.00000,2.00000 M187.19653,9.00000 L188.00000,10.00000 M206.00000,184.28427 L205.71573,184.00000 M11.00000,38.70136 L10.00000,38.00000 M27.00000,46.86068 L26.00000,46.36068 M71.27864,69.00000 L71.00000,68.86068 M134.00000,112.28427 L133.71573,112.00000 M224.00000,114.75443 L224.08186,115.00000 M158.00000,2.00000 L159.00000,2.00000 M184.00000,6.00000 L185.00000,6.80346 M7.00000,8.77489 L7.72055,8.00000 M23.27864,45.00000 L23.00000,44.86068 M236.00000,186.27945 L235.22511,187.00000 M69.27864,68.00000 L69.00000,67.86068 M202.00000,48.75443 L202.08186,49.00000 M210.74852,75.00000 L211.00000,75.75443 M148.00000,126.28427 L147.71573,126.00000 M94.00000,2.00000 L95.00000,2.00000 M21.27864,44.00000 L21.00000,43.86068 M91.27864,79.00000 L91.00000,78.86068 M201.00000,179.28427 L200.71573,179.00000 M129.71573,108.00000 L129.00000,107.28427 M240.08186,163.00000 L240.41518,164.00000 M153.00000,131.28427 L152.71573,131.00000 M213.29190,190.00000 L213.00000,189.85986 M18.00000,2.40433 L19.00000,2.22638 M93.00000,2.00000 L94.00000,2.00000 M235.00000,147.75443 L235.08186,148.00000 M146.00000,124.28427 L145.71573,124.00000 M113.00000,91.28426 L112.71574,91.00000 M193.00000,21.75443 L193.08186,22.00000 M170.00000,2.00000 L171.00000,2.00000 M214.00000,84.75443 L214.08186,85.00000 M19.00000,42.86068 L18.00000,42.36068 M89.00000,77.86068 L88.00000,77.36068 M241.36455,177.00000 L241.07861,178.00000 M105.27864,86.00000 L105.00000,85.86068 M208.00000,66.75443 L208.08186,67.00000 M151.00000,129.28427 L150.71573,129.00000 M193.41518,23.00000 L193.74852,24.00000 M41.00000,53.86068 L40.00000,53.36068 M87.00000,76.86068 L86.00000,76.36068 M187.00000,8.77489 L187.19653,9.00000 M207.00000,185.28427 L206.71573,185.00000 M141.71573,120.00000 L141.00000,119.28427 M111.00000,89.28427 L110.71573,89.00000 M165.00000,143.28427 L164.71573,143.00000 M220.08185,103.00000 L220.41518,104.00000 M39.00000,52.86068 L38.00000,52.36068 M83.27864,75.00000 L83.00000,74.86068 M185.71573,164.00000 L185.00000,163.28427 M100.00000,2.00000 L101.00000,2.00000 M237.00000,185.22511 L236.27945,186.00000 M125.00000,103.28426 L124.71574,103.00000 M199.00000,39.75443 L199.08185,40.00000 M217.74852,96.00000 L218.00000,96.75443 M35.27864,51.00000 L35.00000,50.86068 M53.00000,2.00000 L54.00000,2.00000 M231.00000,189.85986 L230.70810,190.00000 M155.71573,134.00000 L155.00000,133.28427 M179.00000,3.26566 L180.00000,3.67065 M196.74852,33.00000 L197.00000,33.75443 M30.00000,48.36068 L29.27864,48.00000 M49.00000,57.86068 L48.00000,57.36068 M115.71573,94.00000 L115.00000,93.28426 M213.00000,189.85986 L212.00000,189.31897 M223.00000,111.75446 L223.08185,112.00000 M169.71573,148.00000 L169.00000,147.28427 M118.00000,2.00000 L119.00000,2.00000 M234.41518,146.00000 L234.74852,147.00000 M4.68104,32.00000 L4.14013,31.00000 M47.00000,56.86068 L46.00000,56.36068 M192.71573,171.00000 L192.00000,170.28427 M212.00000,189.31897 L211.47292,189.00000 M151.00000,2.00000 L152.00000,2.00000 M174.71573,153.00000 L174.00000,152.28427 M226.00000,120.75446 L226.08185,121.00000 M4.00000,13.29190 L4.14013,13.00000 M43.27864,55.00000 L43.00000,54.86068 M191.74852,18.00000 L192.00000,18.75443 M111.00000,2.00000 L112.00000,2.00000 M167.71573,146.00000 L167.00000,145.28427 M134.71573,113.00000 L134.00000,112.28427 M203.71573,182.00000 L203.00000,181.28427 M226.41518,122.00000 L226.74852,123.00000 M2.63545,27.00000 L2.40433,26.00000 M45.00000,2.00000 L46.00000,2.00000 M236.08185,151.00000 L236.41518,152.00000 M127.71573,106.00000 L127.00000,105.28426 M220.00000,102.75446 L220.08185,103.00000 M172.71573,151.00000 L172.00000,150.28427 M204.00000,182.28427 L203.71573,182.00000 M3.00000,15.76779 L3.26566,15.00000 M67.00000,2.00000 L68.00000,2.00000 M232.41518,140.00000 L232.74852,141.00000 M109.00000,2.00000 L110.00000,2.00000 M198.71573,177.00000 L198.00000,176.28427 M219.00000,99.75443 L219.08185,100.00000 M163.00000,2.00000 L164.00000,2.00000 M132.71574,111.00000 L132.00000,110.28426 M230.74852,135.00000 L231.00000,135.75443 M2.10027,24.00000 L2.02502,23.00000 M65.00000,2.00000 L66.00000,2.00000 M197.74852,36.00000 L198.00000,36.75443 M123.00000,2.00000 L124.00000,2.00000 M146.71573,125.00000 L146.00000,124.28427 M209.74852,72.00000 L210.00000,72.75443 M17.00000,2.63545 L18.00000,2.40433 M61.00000,63.86068 L60.00000,63.36068 M78.00000,72.36068 L77.27864,72.00000 M241.59567,168.00000 L241.77362,169.00000 M177.00000,2.63545 L178.00000,2.92138 M106.00000,2.00000 L107.00000,2.00000 M189.31897,12.00000 L189.85986,13.00000 M207.41518,65.00000 L207.74852,66.00000 M13.29190,4.00000 L14.00000,3.67065 M56.00000,2.00000 L57.00000,2.00000 M75.00000,2.00000 L76.00000,2.00000 M137.00000,2.00000 L138.00000,2.00000 M225.41518,119.00000 L225.74852,120.00000 M139.00000,117.28427 L138.71573,117.00000 M186.00000,164.28427 L185.71573,164.00000 M9.00000,6.80346 L10.00000,6.00000 M27.00000,2.00000 L28.00000,2.00000 M237.19653,185.00000 L237.00000,185.22511 M73.00000,2.00000 L74.00000,2.00000 M203.08185,52.00000 L203.41518,53.00000 M224.41518,116.00000 L224.74852,117.00000 M172.00000,150.28427 L171.71573,150.00000 M97.00000,81.86068 L96.00000,81.36068 M236.00000,150.75446 L236.08185,151.00000 M6.80346,35.00000 L6.00000,34.00000 M25.00000,2.00000 L26.00000,2.00000 M69.00000,67.86068 L68.00000,67.36068 M202.41518,50.00000 L202.74852,51.00000 M132.00000,110.28426 L131.71574,110.00000 M230.70810,190.00000 L230.00000,190.32935 M156.00000,2.00000 L157.00000,2.00000 M215.00000,87.75443 L215.08186,88.00000 M21.00000,43.86068 L20.00000,43.36068 M70.00000,68.36068 L69.27864,68.00000 M149.00000,2.00000 L150.00000,2.00000 M116.00000,2.00000 L117.00000,2.00000 M194.08186,25.00000 L194.41518,26.00000 M215.41518,89.00000 L215.74852,90.00000 M22.00000,44.36068 L21.27864,44.00000 M92.00000,79.36068 L91.27864,79.00000 M241.97498,173.00000 L241.89972,174.00000 M130.00000,108.28427 L129.71573,108.00000 M209.08186,70.00000 L209.41518,71.00000 M154.00000,2.00000 L155.00000,2.00000 M194.74852,27.00000 L195.00000,27.75443 M241.36455,167.00000 L241.59567,168.00000 M19.00000,2.22638 L20.00000,2.10027 M90.00000,78.36068 L89.27864,78.00000 M189.00000,11.47291 L189.31897,12.00000 M208.41518,68.00000 L208.74852,69.00000 M144.00000,122.28427 L143.71573,122.00000 M114.00000,2.00000 L115.00000,2.00000 M168.00000,2.00000 L169.00000,2.00000 M222.00000,108.75443 L222.08185,109.00000 M42.00000,54.36068 L41.27864,54.00000 M87.00000,2.00000 L88.00000,2.00000 M187.71573,166.00000 L187.00000,165.28427 M103.00000,84.86068 L102.00000,84.36068 M238.41518,158.00000 L238.74852,159.00000 M128.00000,2.00000 L129.00000,2.00000 M200.08185,43.00000 L200.41518,44.00000 M219.08185,100.00000 L219.41518,101.00000 M39.00000,2.00000 L40.00000,2.00000 M81.27864,74.00000 L81.00000,73.86068 M232.52708,189.00000 L232.00000,189.31897 M158.00000,136.28427 L157.71573,136.00000 M109.00000,87.86068 L108.00000,87.36068 M191.00000,15.76187 L191.08186,16.00000 M160.71573,139.00000 L160.00000,138.28427 M198.00000,176.28427 L197.71573,176.00000 M33.27864,50.00000 L33.00000,49.86068 M52.00000,59.36068 L51.27864,59.00000 M94.00000,80.36068 L93.27864,80.00000 M214.41518,86.00000 L214.74852,87.00000 M120.71574,99.00000 L120.00000,98.28426 M30.00000,2.00000 L31.00000,2.00000 M50.00000,58.36068 L49.27864,58.00000 M194.00000,24.75443 L194.08186,25.00000 M213.41518,83.00000 L213.74852,84.00000 M153.71573,132.00000 L153.00000,131.28427 M241.07861,178.00000 L241.00000,178.23221 M177.00000,155.28427 L176.71573,155.00000 M227.41518,125.00000 L227.74852,126.00000 M5.29864,11.00000 L6.00000,10.00000 M47.00000,2.00000 L48.00000,2.00000 M193.00000,171.28427 L192.71573,171.00000 M113.71574,92.00000 L113.00000,91.28426 M170.00000,148.28427 L169.71573,148.00000 M137.00000,115.28427 L136.71573,115.00000 M205.00000,57.75443 L205.08185,58.00000 M228.00000,191.07861 L227.00000,191.36455 M3.67065,30.00000 L3.26566,29.00000 M48.00000,2.00000 L49.00000,2.00000 M237.41519,155.00000 L237.74852,156.00000 M151.71573,130.00000 L151.00000,129.28427 M221.41518,107.00000 L221.74852,108.00000 M175.00000,153.28427 L174.71573,153.00000 M205.41518,59.00000 L205.74852,60.00000 M4.14013,13.00000 L4.68104,12.00000 M44.00000,55.36068 L43.27864,55.00000 M234.00000,144.75443 L234.08186,145.00000 M111.71573,90.00000 L111.00000,89.28427 M200.00000,42.75443 L200.08185,43.00000 M220.41518,104.00000 L220.74852,105.00000 M165.71573,144.00000 L165.00000,143.28427 M135.00000,113.28427 L134.71573,113.00000 M232.08185,139.00000 L232.41518,140.00000 M2.92138,28.00000 L2.63545,27.00000 M68.00000,2.00000 L69.00000,2.00000 M190.71573,169.00000 L190.00000,168.28427 M199.00000,177.28427 L198.71573,177.00000 M125.71574,104.00000 L125.00000,103.28426 M149.00000,127.28427 L148.71573,127.00000 M211.08186,76.00000 L211.41518,77.00000 M2.40433,18.00000 L2.63545,17.00000 M64.00000,65.36068 L63.27864,65.00000 M242.00000,172.00000 L241.97498,173.00000 M179.00000,157.28427 L178.71573,157.00000 M130.71573,109.00000 L130.00000,108.28427 M201.71573,180.00000 L201.00000,179.28427 M208.77489,187.00000 L208.00000,186.27945 M16.00000,41.36068 L15.27864,41.00000 M59.00000,62.86068 L58.00000,62.36068 M78.00000,2.00000 L79.00000,2.00000 M118.00000,96.28427 L117.71573,96.00000 M227.00000,191.36455 L226.00000,191.59567 M142.00000,2.00000 L143.00000,2.00000 M188.00000,166.28427 L187.71573,166.00000 M12.00000,4.68104 L13.00000,4.14013 M55.27864,61.00000 L55.00000,60.86068 M238.74852,159.00000 L239.00000,159.75446 M76.00000,2.00000 L77.00000,2.00000 M204.71573,183.00000 L204.00000,182.28427 M226.00000,191.59567 L225.00000,191.77362 M175.00000,2.22638 L176.00000,2.40433 M100.00000,83.36068 L99.27864,83.00000 M237.08186,154.00000 L237.41519,155.00000 M8.77489,37.00000 L8.00000,36.27945 M28.00000,2.00000 L29.00000,2.00000 M72.00000,69.36068 L71.27864,69.00000 M203.74852,54.00000 L204.00000,54.75443 M135.00000,2.00000 L136.00000,2.00000 M232.00000,189.31897 L231.00000,189.85986 M158.71573,137.00000 L158.00000,136.28427 M216.08186,91.00000 L216.41518,92.00000 M7.72055,8.00000 L8.00000,7.72055 M24.00000,45.36068 L23.27864,45.00000 M73.27864,70.00000 L73.00000,69.86068 M173.00000,2.02502 L174.00000,2.10027 M95.00000,2.00000 L96.00000,2.00000 M182.00000,4.68104 L182.52708,5.00000 M217.00000,93.75443 L217.08186,94.00000 M25.27864,46.00000 L25.00000,45.86068 M70.00000,2.00000 L71.00000,2.00000 M133.00000,2.00000 L134.00000,2.00000 M211.00000,75.75443 L211.08186,76.00000 M156.71573,135.00000 L156.00000,134.28427 M182.71573,161.00000 L182.00000,160.28427 M241.97498,171.00000 L242.00000,172.00000 M22.00000,2.00000 L23.00000,2.00000 M93.27864,80.00000 L93.00000,79.86068 M201.08186,46.00000 L201.41518,47.00000 M210.00000,72.75443 L210.08185,73.00000 M147.00000,2.00000 L148.00000,2.00000 M116.71573,95.00000 L116.00000,94.28427 M170.71573,149.00000 L170.00000,148.28427 M223.41518,113.00000 L223.74852,114.00000 M20.00000,2.10027 L21.00000,2.02502 M90.00000,2.00000 L91.00000,2.00000 M189.71573,168.00000 L189.00000,167.28427 M106.00000,86.36068 L105.27864,86.00000 M239.74852,162.00000 L240.00000,162.75443 M152.00000,2.00000 L153.00000,2.00000 M212.74852,81.00000 L213.00000,81.75443 M221.00000,105.75443 L221.08186,106.00000 M42.00000,2.00000 L43.00000,2.00000 M85.00000,2.00000 L86.00000,2.00000 M234.00000,188.00000 L233.00000,188.70135 M139.71573,118.00000 L139.00000,117.28427 M112.00000,2.00000 L113.00000,2.00000 M192.08186,19.00000 L192.41518,20.00000 M163.00000,141.28427 L162.71573,141.00000 M199.41518,41.00000 L199.74852,42.00000 M37.00000,2.00000 L38.00000,2.00000 M81.00000,73.86068 L80.00000,73.36068 M97.27864,82.00000 L97.00000,81.86068 M216.00000,90.75443 L216.08186,91.00000 M123.00000,101.28427 L122.71573,101.00000 M190.00000,13.29190 L190.32935,14.00000 M33.00000,49.86068 L32.00000,49.36068 M53.27864,60.00000 L53.00000,59.86068 M181.00000,159.28427 L180.71573,159.00000 M215.00000,190.73434 L214.00000,190.32935 M156.00000,134.28427 L155.71573,134.00000 M241.89972,174.00000 L241.77362,175.00000 M179.71573,158.00000 L179.00000,157.28427 M229.00000,129.75446 L229.08185,130.00000 M31.00000,48.86068 L30.00000,48.36068 M50.00000,2.00000 L51.00000,2.00000 M194.41518,26.00000 L194.74852,27.00000 M116.00000,94.28427 L115.71573,94.00000 M118.71574,97.00000 L118.00000,96.28427 M195.71573,174.00000 L195.00000,173.28427 M229.41518,131.00000 L229.74852,132.00000 M5.00000,32.52708 L4.68104,32.00000 M51.00000,58.86068 L50.00000,58.36068 M239.00000,159.75446 L239.08185,160.00000 M154.00000,132.28427 L153.71573,132.00000 M223.00000,191.97498 L222.00000,192.00000 M178.00000,2.92138 L178.23221,3.00000 M196.00000,174.28427 L195.71573,174.00000 M6.00000,10.00000 L6.80346,9.00000 M47.27864,57.00000 L47.00000,56.86068 M235.22511,187.00000 L235.00000,187.19653 M114.00000,92.28426 L113.71574,92.00000 M212.08186,79.00000 L212.41518,80.00000 M222.00000,192.00000 L221.00000,191.97498 M168.00000,146.28427 L167.71573,146.00000 M138.00000,2.00000 L139.00000,2.00000 M233.74852,144.00000 L234.00000,144.75443 M4.00000,30.70810 L3.67065,30.00000 M45.27864,56.00000 L45.00000,55.86068 M192.00000,18.75443 L192.08186,19.00000 M200.41518,44.00000 L200.74852,45.00000 M128.00000,106.28427 L127.71573,106.00000 M173.00000,151.28427 L172.71573,151.00000 M225.00000,191.77362 L224.00000,191.89972 M3.26566,29.00000 L3.00000,28.23221 M67.27864,67.00000 L67.00000,66.86068 M191.00000,169.28427 L190.71573,169.00000 M109.27864,88.00000 L109.00000,87.86068 M161.00000,2.00000 L162.00000,2.00000 M133.00000,111.28426 L132.71574,111.00000 M203.00000,51.75443 L203.08185,52.00000 M210.08185,73.00000 L210.41518,74.00000 M2.22638,25.00000 L2.10027,24.00000 M62.00000,64.36068 L61.27864,64.00000 M121.00000,2.00000 L122.00000,2.00000 M228.41518,128.00000 L228.74852,129.00000 M144.71573,123.00000 L144.00000,122.28427 M200.74852,45.00000 L201.00000,45.75443 M15.00000,3.26566 L15.76779,3.00000 M59.00000,2.00000 L60.00000,2.00000 M240.00000,162.75443 L240.08186,163.00000 M79.00000,72.86068 L78.00000,72.36068 M195.08186,28.00000 L195.41518,29.00000 M227.74852,126.00000 L228.00000,126.75443 M177.71573,156.00000 L177.00000,155.28427 M103.27864,85.00000 L103.00000,84.86068 M238.70135,183.00000 L238.00000,184.00000 M11.47291,39.00000 L11.00000,38.70136 M57.00000,2.00000 L58.00000,2.00000 M75.27864,71.00000 L75.00000,70.86068 M205.00000,183.28427 L204.71573,183.00000 M137.71573,116.00000 L137.00000,115.28427 M233.41518,143.00000 L233.74852,144.00000 M140.00000,2.00000 L141.00000,2.00000 M206.08186,61.00000 L206.41518,62.00000 M10.00000,6.00000 L11.00000,5.29864 M27.27864,47.00000 L27.00000,46.86068 M77.00000,2.00000 L78.00000,2.00000 M175.71573,154.00000 L175.00000,153.28427 M98.00000,2.00000 L99.00000,2.00000 M184.00000,162.28427 L183.71573,162.00000 M206.74852,63.00000 L207.00000,63.75443 M7.00000,35.22511 L6.80346,35.00000 M29.00000,2.00000 L30.00000,2.00000 M73.00000,69.86068 L72.00000,69.36068 M135.71573,114.00000 L135.00000,113.28427 M224.74852,117.00000 L225.00000,117.75443 M159.00000,137.28427 L158.71573,137.00000 M185.00000,163.28427 L184.71573,163.00000 M8.00000,7.72055 L8.77489,7.00000 M25.00000,45.86068 L24.00000,45.36068 M236.74852,153.00000 L237.00000,153.75443 M71.00000,68.86068 L70.00000,68.36068 M202.71573,181.00000 L202.00000,180.28427 M211.41518,77.00000 L211.74852,78.00000 M149.71573,128.00000 L149.00000,127.28427 M95.27864,81.00000 L95.00000,80.86068 M23.00000,44.86068 L22.00000,44.36068 M93.00000,79.86068 L92.00000,79.36068 M201.74852,48.00000 L202.00000,48.75443 M131.00000,2.00000 L132.00000,2.00000 M240.74852,165.00000 L241.00000,165.76048 M154.71573,133.00000 L154.00000,132.28427 M214.00000,190.32935 L213.29190,190.00000 M222.41518,110.00000 L222.74852,111.00000 M19.27864,43.00000 L19.00000,42.86068 M88.00000,2.00000 L89.00000,2.00000 M235.41518,149.00000 L235.74852,150.00000 M142.00000,120.28427 L141.71573,120.00000 M114.71574,93.00000 L114.00000,92.28426 M193.71573,172.00000 L193.00000,171.28427 M166.00000,2.00000 L167.00000,2.00000 M211.74852,78.00000 L212.00000,78.75443 M40.00000,2.00000 L41.00000,2.00000 M84.00000,75.36068 L83.27864,75.00000 M101.00000,2.00000 L102.00000,2.00000 M206.00000,60.75443 L206.08186,61.00000 M126.00000,2.00000 L127.00000,2.00000 M191.41518,17.00000 L191.74852,18.00000 M36.00000,51.36068 L35.27864,51.00000 M82.00000,74.36068 L81.27864,74.00000 M183.71573,162.00000 L183.00000,161.28427 M216.41518,92.00000 L216.74852,93.00000 M159.00000,2.00000 L160.00000,2.00000 M107.00000,2.00000 L108.00000,2.00000 M161.00000,139.28427 L160.71573,139.00000 M218.00000,96.75443 L218.08186,97.00000 M34.00000,50.36068 L33.27864,50.00000 M53.00000,59.86068 L52.00000,59.36068 M182.00000,160.28427 L181.71573,160.00000 M95.00000,80.86068 L94.00000,80.36068 M121.00000,99.28426 L120.71574,99.00000 M197.00000,33.75443 L197.08186,34.00000 M218.41518,98.00000 L218.74852,99.00000 M31.00000,2.00000 L32.00000,2.00000 M54.00000,60.36068 L53.27864,60.00000 M240.00000,180.70810 L239.85986,181.00000 M157.00000,2.00000 L158.00000,2.00000 M180.00000,158.28427 L179.71573,158.00000 M197.41518,35.00000 L197.74852,36.00000 M32.00000,2.00000 L33.00000,2.00000 M51.00000,2.00000 L52.00000,2.00000 M117.00000,2.00000 L118.00000,2.00000 M213.74852,84.00000 L214.00000,84.75443 M223.74852,114.00000 L224.00000,114.75443 M171.00000,2.00000 L172.00000,2.00000 M119.00000,97.28426 L118.71574,97.00000 M235.08186,148.00000 L235.41518,149.00000 M5.29864,33.00000 L5.00000,32.52708 M49.00000,2.00000 L50.00000,2.00000 M193.08186,22.00000 L193.41518,23.00000 M213.00000,81.75443 L213.08185,82.00000 M152.00000,130.28427 L151.71573,130.00000 M176.00000,2.40433 L177.00000,2.63545 M226.74852,123.00000 L227.00000,123.75443 M4.68104,12.00000 L5.00000,11.47291 M45.00000,55.86068 L44.00000,55.36068 M192.41518,20.00000 L192.74852,21.00000 M112.00000,90.28427 L111.71573,90.00000 M163.71573,142.00000 L163.00000,141.28427 M136.00000,2.00000 L137.00000,2.00000 M204.08186,55.00000 L204.41518,56.00000 M224.00000,191.89972 L223.00000,191.97498 M3.00000,28.23221 L2.92138,28.00000 M65.27864,66.00000 L65.00000,65.86068 M237.00000,153.75443 L237.08186,154.00000 M123.71573,102.00000 L123.00000,101.28427 M217.41518,95.00000 L217.74852,96.00000 M147.00000,125.28427 L146.71573,125.00000 M202.00000,180.28427 L201.71573,180.00000 M2.02502,21.00000 L2.10027,20.00000 M62.00000,2.00000 L63.00000,2.00000 M230.08186,133.00000 L230.41518,134.00000 M196.71573,175.00000 L196.00000,174.28427 M229.00000,190.73434 L228.23221,191.00000 M180.00000,3.67065 L180.70810,4.00000 M128.71573,107.00000 L128.00000,106.28427 M239.85986,181.00000 L239.31897,182.00000 M14.00000,40.36068 L13.27864,40.00000 M60.00000,2.00000 L61.00000,2.00000 M79.00000,2.00000 L80.00000,2.00000 M195.74852,30.00000 L196.00000,30.75443 M119.00000,2.00000 L120.00000,2.00000 M235.00000,187.19653 L234.00000,188.00000 M142.71573,121.00000 L142.00000,120.28427 M207.71573,186.00000 L207.00000,185.28427 M13.00000,4.14013 L13.29190,4.00000 M56.00000,61.36068 L55.27864,61.00000 M80.00000,2.00000 L81.00000,2.00000 M178.00000,156.28427 L177.71573,156.00000 M101.00000,83.86068 L100.00000,83.36068 M186.27945,8.00000 L187.00000,8.77489 M208.00000,186.27945 L207.71573,186.00000 M9.00000,37.19654 L8.77489,37.00000 M57.27864,62.00000 L57.00000,61.86068 M76.00000,71.36068 L75.27864,71.00000 M138.00000,116.28427 L137.71573,116.00000 M226.08185,121.00000 L226.41518,122.00000 M140.71573,119.00000 L140.00000,118.28427 M187.00000,165.28427 L186.71573,165.00000 M11.00000,5.29864 L11.47291,5.00000 M28.00000,47.36068 L27.27864,47.00000 M238.00000,184.00000 L237.19653,185.00000 M74.00000,70.36068 L73.27864,70.00000 M204.00000,54.75443 L204.08186,55.00000 M225.08186,118.00000 L225.41518,119.00000 M173.71573,152.00000 L173.00000,151.28427 M99.00000,2.00000 L100.00000,2.00000 M236.41518,152.00000 L236.74852,153.00000 M7.72055,36.00000 L7.00000,35.22511 M26.00000,46.36068 L25.27864,46.00000 M71.00000,2.00000 L72.00000,2.00000 M203.00000,181.28427 L202.71573,181.00000 M133.71573,112.00000 L133.00000,111.28426 M231.08186,136.00000 L231.41518,137.00000 M157.00000,135.28427 L156.71573,135.00000 M215.74852,90.00000 L216.00000,90.75443 M23.00000,2.00000 L24.00000,2.00000 M91.00000,78.86068 L90.00000,78.36068 M145.00000,2.00000 L146.00000,2.00000 M117.00000,95.28427 L116.71573,95.00000 M195.00000,27.75443 L195.08186,28.00000 M168.71573,147.00000 L168.00000,146.28427 M213.08185,82.00000 L213.41518,83.00000 M17.27864,42.00000 L17.00000,41.86068 M87.27864,77.00000 L87.00000,76.86068 M241.00000,178.23221 L240.73434,179.00000 M104.00000,2.00000 L105.00000,2.00000 M207.08185,64.00000 L207.41518,65.00000 M150.00000,2.00000 L151.00000,2.00000 M192.74852,21.00000 L193.00000,21.75443 M39.27864,53.00000 L39.00000,52.86068 M85.27864,76.00000 L85.00000,75.86068 M186.00000,7.72055 L186.27945,8.00000 M206.41518,62.00000 L206.74852,63.00000 M140.00000,118.28427 L139.71573,118.00000 M110.00000,2.00000 L111.00000,2.00000 M164.00000,2.00000 L165.00000,2.00000 M219.41518,101.00000 L219.74852,102.00000 M37.27864,52.00000 L37.00000,51.86068 M82.00000,2.00000 L83.00000,2.00000 M184.71573,163.00000 L184.00000,162.28427 M98.00000,82.36068 L97.27864,82.00000 M236.27945,186.00000 L236.00000,186.27945 M124.00000,2.00000 L125.00000,2.00000 M198.08186,37.00000 L198.41518,38.00000 M220.00000,191.89972 L219.00000,191.77362 M34.00000,2.00000 L35.00000,2.00000 M83.00000,74.86068 L82.00000,74.36068 M230.41518,134.00000 L230.74852,135.00000 M159.71573,138.00000 L159.00000,137.28427 M162.00000,2.00000 L163.00000,2.00000 M198.74852,39.00000 L199.00000,39.75443 M35.00000,50.86068 L34.00000,50.36068 M54.00000,2.00000 L55.00000,2.00000 M96.00000,2.00000 L97.00000,2.00000 M215.08186,88.00000 L215.41518,89.00000 M122.00000,2.00000 L123.00000,2.00000 M31.27864,49.00000 L31.00000,48.86068 M52.00000,2.00000 L53.00000,2.00000 M194.71573,173.00000 L194.00000,172.28427 M214.08186,85.00000 L214.41518,86.00000 M155.00000,2.00000 L156.00000,2.00000 M241.59567,176.00000 L241.36455,177.00000 M178.23221,3.00000 L179.00000,3.26566 M228.08186,127.00000 L228.41518,128.00000 M6.80346,9.00000 L7.00000,8.77489 M48.00000,57.36068 L47.27864,57.00000 M193.74852,24.00000 L194.00000,24.75443 M115.00000,2.00000 L116.00000,2.00000 M166.00000,144.28427 L165.71573,144.00000 M138.71573,117.00000 L138.00000,116.28427 M205.71573,184.00000 L205.00000,183.28427 M225.74852,120.00000 L226.00000,120.75446 M4.14013,31.00000 L4.00000,30.70810 M43.00000,54.86068 L42.00000,54.36068 M238.08185,157.00000 L238.41518,158.00000 M126.00000,104.28426 L125.71574,104.00000 M219.00000,191.77362 L218.00000,191.59567 M171.00000,149.28427 L170.71573,149.00000 M203.41518,53.00000 L203.74852,54.00000 M2.63545,17.00000 L2.92138,16.00000 M65.00000,65.86068 L64.00000,65.36068 M231.74852,138.00000 L232.00000,138.75446 M107.00000,86.86068 L106.00000,86.36068 M198.00000,36.75443 L198.08186,37.00000 M218.00000,191.59567 L217.00000,191.36455 M161.71573,140.00000 L161.00000,139.28427 M131.00000,109.28426 L130.71573,109.00000 M230.00000,190.32935 L229.00000,190.73434 M2.00000,22.00000 L2.02502,21.00000 M63.00000,64.86068 L62.00000,64.36068 M197.00000,175.28427 L196.71573,175.00000 M121.71573,100.00000 L121.00000,99.28426 M145.00000,123.28427 L144.71573,123.00000 M209.00000,69.75443 L209.08186,70.00000 M15.27864,41.00000 L15.00000,40.86068 M59.27864,63.00000 L59.00000,62.86068 "/>

<script>
let svgs = document.children[0];
let paths = Array.from(svgs.children).filter(function(c) {
    var orig = c.style.stroke;
    c.onmouseover = function() {
        c.style.stroke = "rgb(0, 0, 255)";
    };
    c.onmouseout = function () {
        c.style.stroke = orig;
    };
    c.onclick = function () {
        svgs.removeChild()
    }
});

for (let path of paths) {
    console.log(path);
}
</script></svg>