<svg xmlns="http://www.w3.org/2000/svg">
    <path fill-rule="evenodd" style="fill: none; stroke: rgb(0, 0, 0); stroke-width: 0.2;" d="M2.00,22.00 L2.03,21.00 M2.03,21.00 L2.10,20.00 M2.03,23.00 L2.00,22.00 M2.10,20.00 L2.23,19.00 M2.10,24.00 L2.03,23.00 M2.23,19.00 L2.40,18.00 M2.23,25.00 L2.10,24.00 M2.40,18.00 L2.64,17.00 M2.40,26.00 L2.23,25.00 M2.64,17.00 L2.92,16.00 M2.64,27.00 L2.40,26.00 M2.92,16.00 L3.00,15.77 M2.92,28.00 L2.64,27.00 M3.00,15.77 L3.27,15.00 M3.00,28.23 L2.92,28.00 M3.27,29.00 L3.00,28.23 M3.27,15.00 L3.67,14.00 M3.67,14.00 L4.00,13.29 M3.67,30.00 L3.27,29.00 M4.00,13.29 L4.14,13.00 M4.00,30.71 L3.67,30.00 M4.14,13.00 L4.68,12.00 M4.14,31.00 L4.00,30.71 M4.68,12.00 L5.00,11.47 M4.68,32.00 L4.14,31.00 M5.00,11.47 L5.30,11.00 M5.00,32.53 L4.68,32.00 M5.30,11.00 L6.00,10.00 M5.30,33.00 L5.00,32.53 M6.00,10.00 L6.80,9.00 M6.00,34.00 L5.30,33.00 M6.80,9.00 L7.00,8.77 M6.80,35.00 L6.00,34.00 M7.00,8.77 L7.72,8.00 M7.00,35.23 L6.80,35.00 M7.72,8.00 L8.00,7.72 M7.72,36.00 L7.00,35.23 M8.00,7.72 L8.77,7.00 M8.00,36.28 L7.72,36.00 M8.77,7.00 L9.00,6.80 M8.77,37.00 L8.00,36.28 M9.00,6.80 L10.00,6.00 M9.00,37.20 L8.77,37.00 M10.00,6.00 L11.00,5.30 M10.00,38.00 L9.00,37.20 M11.00,5.30 L11.47,5.00 M11.00,38.70 L10.00,38.00 M11.47,5.00 L12.00,4.68 M11.47,39.00 L11.00,38.70 M12.00,4.68 L13.00,4.14 M12.00,39.32 L11.47,39.00 M13.00,4.14 L13.29,4.00 M13.00,39.86 L12.00,39.32 M13.28,40.00 L13.00,39.86 M13.29,4.00 L14.00,3.67 M14.00,3.67 L15.00,3.27 M14.00,40.36 L13.28,40.00 M15.00,3.27 L15.77,3.00 M15.00,40.86 L14.00,40.36 M15.28,41.00 L15.00,40.86 M15.77,3.00 L16.00,2.92 M16.00,2.92 L17.00,2.64 M16.00,41.36 L15.28,41.00 M17.00,2.64 L18.00,2.40 M17.00,41.86 L16.00,41.36 M17.28,42.00 L17.00,41.86 M18.00,2.40 L19.00,2.23 M18.00,42.36 L17.28,42.00 M19.00,2.23 L20.00,2.10 M19.00,42.86 L18.00,42.36 M19.28,43.00 L19.00,42.86 M20.00,2.10 L21.00,2.03 M20.00,43.36 L19.28,43.00 M21.00,2.03 L22.00,2.00 M21.00,43.86 L20.00,43.36 M21.28,44.00 L21.00,43.86 M22.00,2.00 L23.00,2.00 M22.00,44.36 L21.28,44.00 M23.00,2.00 L24.00,2.00 M23.00,44.86 L22.00,44.36 M23.28,45.00 L23.00,44.86 M24.00,2.00 L25.00,2.00 M24.00,45.36 L23.28,45.00 M25.00,2.00 L26.00,2.00 M25.00,45.86 L24.00,45.36 M25.28,46.00 L25.00,45.86 M26.00,2.00 L27.00,2.00 M26.00,46.36 L25.28,46.00 M27.00,2.00 L28.00,2.00 M27.00,46.86 L26.00,46.36 M27.28,47.00 L27.00,46.86 M28.00,2.00 L29.00,2.00 M28.00,47.36 L27.28,47.00 M29.00,2.00 L30.00,2.00 M29.00,47.86 L28.00,47.36 M29.28,48.00 L29.00,47.86 M30.00,2.00 L31.00,2.00 M30.00,48.36 L29.28,48.00 M31.00,2.00 L32.00,2.00 M31.00,48.86 L30.00,48.36 M31.28,49.00 L31.00,48.86 M32.00,2.00 L33.00,2.00 M32.00,49.36 L31.28,49.00 M33.00,2.00 L34.00,2.00 M33.00,49.86 L32.00,49.36 M33.28,50.00 L33.00,49.86 M34.00,2.00 L35.00,2.00 M34.00,50.36 L33.28,50.00 M35.00,2.00 L36.00,2.00 M35.00,50.86 L34.00,50.36 M35.28,51.00 L35.00,50.86 M36.00,2.00 L37.00,2.00 M36.00,51.36 L35.28,51.00 M37.00,2.00 L38.00,2.00 M37.00,51.86 L36.00,51.36 M37.28,52.00 L37.00,51.86 M38.00,2.00 L39.00,2.00 M38.00,52.36 L37.28,52.00 M39.00,2.00 L40.00,2.00 M39.00,52.86 L38.00,52.36 M39.28,53.00 L39.00,52.86 M40.00,2.00 L41.00,2.00 M40.00,53.36 L39.28,53.00 M41.00,2.00 L42.00,2.00 M41.00,53.86 L40.00,53.36 M41.28,54.00 L41.00,53.86 M42.00,2.00 L43.00,2.00 M42.00,54.36 L41.28,54.00 M43.00,2.00 L44.00,2.00 M43.00,54.86 L42.00,54.36 M43.28,55.00 L43.00,54.86 M44.00,2.00 L45.00,2.00 M44.00,55.36 L43.28,55.00 M45.00,2.00 L46.00,2.00 M45.00,55.86 L44.00,55.36 M45.28,56.00 L45.00,55.86 M46.00,2.00 L47.00,2.00 M46.00,56.36 L45.28,56.00 M47.00,2.00 L48.00,2.00 M47.00,56.86 L46.00,56.36 M47.28,57.00 L47.00,56.86 M48.00,2.00 L49.00,2.00 M48.00,57.36 L47.28,57.00 M49.00,2.00 L50.00,2.00 M49.00,57.86 L48.00,57.36 M49.28,58.00 L49.00,57.86 M50.00,2.00 L51.00,2.00 M50.00,58.36 L49.28,58.00 M51.00,2.00 L52.00,2.00 M51.00,58.86 L50.00,58.36 M51.28,59.00 L51.00,58.86 M52.00,2.00 L53.00,2.00 M52.00,59.36 L51.28,59.00 M53.00,2.00 L54.00,2.00 M53.00,59.86 L52.00,59.36 M53.28,60.00 L53.00,59.86 M54.00,2.00 L55.00,2.00 M54.00,60.36 L53.28,60.00 M55.00,2.00 L56.00,2.00 M55.00,60.86 L54.00,60.36 M55.28,61.00 L55.00,60.86 M56.00,2.00 L57.00,2.00 M56.00,61.36 L55.28,61.00 M57.00,2.00 L58.00,2.00 M57.00,61.86 L56.00,61.36 M57.28,62.00 L57.00,61.86 M58.00,2.00 L59.00,2.00 M58.00,62.36 L57.28,62.00 M59.00,2.00 L60.00,2.00 M59.00,62.86 L58.00,62.36 M59.28,63.00 L59.00,62.86 M60.00,2.00 L61.00,2.00 M60.00,63.36 L59.28,63.00 M61.00,2.00 L62.00,2.00 M61.00,63.86 L60.00,63.36 M61.28,64.00 L61.00,63.86 M62.00,2.00 L63.00,2.00 M62.00,64.36 L61.28,64.00 M63.00,2.00 L64.00,2.00 M63.00,64.86 L62.00,64.36 M63.28,65.00 L63.00,64.86 M64.00,2.00 L65.00,2.00 M64.00,65.36 L63.28,65.00 M65.00,2.00 L66.00,2.00 M65.00,65.86 L64.00,65.36 M65.28,66.00 L65.00,65.86 M66.00,2.00 L67.00,2.00 M66.00,66.36 L65.28,66.00 M67.00,2.00 L68.00,2.00 M67.00,66.86 L66.00,66.36 M67.28,67.00 L67.00,66.86 M68.00,2.00 L69.00,2.00 M68.00,67.36 L67.28,67.00 M69.00,2.00 L70.00,2.00 M69.00,67.86 L68.00,67.36 M69.28,68.00 L69.00,67.86 M70.00,2.00 L71.00,2.00 M70.00,68.36 L69.28,68.00 M71.00,2.00 L72.00,2.00 M71.00,68.86 L70.00,68.36 M71.28,69.00 L71.00,68.86 M72.00,2.00 L73.00,2.00 M72.00,69.36 L71.28,69.00 M73.00,2.00 L74.00,2.00 M73.00,69.86 L72.00,69.36 M73.28,70.00 L73.00,69.86 M74.00,2.00 L75.00,2.00 M74.00,70.36 L73.28,70.00 M75.00,2.00 L76.00,2.00 M75.00,70.86 L74.00,70.36 M75.28,71.00 L75.00,70.86 M76.00,2.00 L77.00,2.00 M76.00,71.36 L75.28,71.00 M77.00,2.00 L78.00,2.00 M77.00,71.86 L76.00,71.36 M77.28,72.00 L77.00,71.86 M78.00,2.00 L79.00,2.00 M78.00,72.36 L77.28,72.00 M79.00,2.00 L80.00,2.00 M79.00,72.86 L78.00,72.36 M79.28,73.00 L79.00,72.86 M80.00,2.00 L81.00,2.00 M80.00,73.36 L79.28,73.00 M81.00,2.00 L82.00,2.00 M81.00,73.86 L80.00,73.36 M81.28,74.00 L81.00,73.86 M82.00,2.00 L83.00,2.00 M82.00,74.36 L81.28,74.00 M83.00,2.00 L84.00,2.00 M83.00,74.86 L82.00,74.36 M83.28,75.00 L83.00,74.86 M84.00,2.00 L85.00,2.00 M84.00,75.36 L83.28,75.00 M85.00,2.00 L86.00,2.00 M85.00,75.86 L84.00,75.36 M85.28,76.00 L85.00,75.86 M86.00,2.00 L87.00,2.00 M86.00,76.36 L85.28,76.00 M87.00,2.00 L88.00,2.00 M87.00,76.86 L86.00,76.36 M87.28,77.00 L87.00,76.86 M88.00,2.00 L89.00,2.00 M88.00,77.36 L87.28,77.00 M89.00,2.00 L90.00,2.00 M89.00,77.86 L88.00,77.36 M89.28,78.00 L89.00,77.86 M90.00,2.00 L91.00,2.00 M90.00,78.36 L89.28,78.00 M91.00,2.00 L92.00,2.00 M91.00,78.86 L90.00,78.36 M91.28,79.00 L91.00,78.86 M92.00,2.00 L93.00,2.00 M92.00,79.36 L91.28,79.00 M93.00,2.00 L94.00,2.00 M93.00,79.86 L92.00,79.36 M93.28,80.00 L93.00,79.86 M94.00,2.00 L95.00,2.00 M94.00,80.36 L93.28,80.00 M95.00,2.00 L96.00,2.00 M95.00,80.86 L94.00,80.36 M95.28,81.00 L95.00,80.86 M96.00,2.00 L97.00,2.00 M96.00,81.36 L95.28,81.00 M97.00,2.00 L98.00,2.00 M97.00,81.86 L96.00,81.36 M97.28,82.00 L97.00,81.86 M98.00,2.00 L99.00,2.00 M98.00,82.36 L97.28,82.00 M99.00,2.00 L100.00,2.00 M99.00,82.86 L98.00,82.36 M99.28,83.00 L99.00,82.86 M100.00,2.00 L101.00,2.00 M100.00,83.36 L99.28,83.00 M101.00,2.00 L102.00,2.00 M101.00,83.86 L100.00,83.36 M101.28,84.00 L101.00,83.86 M102.00,2.00 L103.00,2.00 M102.00,84.36 L101.28,84.00 M103.00,2.00 L104.00,2.00 M103.00,84.86 L102.00,84.36 M103.28,85.00 L103.00,84.86 M104.00,2.00 L105.00,2.00 M104.00,85.36 L103.28,85.00 M105.00,2.00 L106.00,2.00 M105.00,85.86 L104.00,85.36 M105.28,86.00 L105.00,85.86 M106.00,2.00 L107.00,2.00 M106.00,86.36 L105.28,86.00 M107.00,2.00 L108.00,2.00 M107.00,86.86 L106.00,86.36 M107.28,87.00 L107.00,86.86 M108.00,2.00 L109.00,2.00 M108.00,87.36 L107.28,87.00 M109.00,2.00 L110.00,2.00 M109.00,87.86 L108.00,87.36 M109.28,88.00 L109.00,87.86 M110.00,2.00 L111.00,2.00 M110.00,88.39 L109.28,88.00 M110.72,89.00 L110.00,88.39 M111.00,2.00 L112.00,2.00 M111.00,89.28 L110.72,89.00 M111.72,90.00 L111.00,89.28 M112.00,2.00 L113.00,2.00 M112.00,90.28 L111.72,90.00 M112.72,91.00 L112.00,90.28 M113.00,2.00 L114.00,2.00 M113.00,91.28 L112.72,91.00 M113.72,92.00 L113.00,91.28 M114.00,2.00 L115.00,2.00 M114.00,92.28 L113.72,92.00 M114.72,93.00 L114.00,92.28 M115.00,2.00 L116.00,2.00 M115.00,93.28 L114.72,93.00 M115.72,94.00 L115.00,93.28 M116.00,2.00 L117.00,2.00 M116.00,94.28 L115.72,94.00 M116.72,95.00 L116.00,94.28 M117.00,2.00 L118.00,2.00 M117.00,95.28 L116.72,95.00 M117.72,96.00 L117.00,95.28 M118.00,2.00 L119.00,2.00 M118.00,96.28 L117.72,96.00 M118.72,97.00 L118.00,96.28 M119.00,2.00 L120.00,2.00 M119.00,97.28 L118.72,97.00 M119.72,98.00 L119.00,97.28 M120.00,2.00 L121.00,2.00 M120.00,98.28 L119.72,98.00 M120.72,99.00 L120.00,98.28 M121.00,2.00 L122.00,2.00 M121.00,99.28 L120.72,99.00 M121.72,100.00 L121.00,99.28 M122.00,2.00 L123.00,2.00 M122.00,100.28 L121.72,100.00 M122.72,101.00 L122.00,100.28 M123.00,2.00 L124.00,2.00 M123.00,101.28 L122.72,101.00 M123.72,102.00 L123.00,101.28 M124.00,2.00 L125.00,2.00 M124.00,102.28 L123.72,102.00 M124.72,103.00 L124.00,102.28 M125.00,2.00 L126.00,2.00 M125.00,103.28 L124.72,103.00 M125.72,104.00 L125.00,103.28 M126.00,2.00 L127.00,2.00 M126.00,104.28 L125.72,104.00 M126.72,105.00 L126.00,104.28 M127.00,2.00 L128.00,2.00 M127.00,105.28 L126.72,105.00 M127.72,106.00 L127.00,105.28 M128.00,2.00 L129.00,2.00 M128.00,106.28 L127.72,106.00 M128.72,107.00 L128.00,106.28 M129.00,2.00 L130.00,2.00 M129.00,107.28 L128.72,107.00 M129.72,108.00 L129.00,107.28 M130.00,2.00 L131.00,2.00 M130.00,108.28 L129.72,108.00 M130.72,109.00 L130.00,108.28 M131.00,2.00 L132.00,2.00 M131.00,109.28 L130.72,109.00 M131.72,110.00 L131.00,109.28 M132.00,2.00 L133.00,2.00 M132.00,110.28 L131.72,110.00 M132.72,111.00 L132.00,110.28 M133.00,2.00 L134.00,2.00 M133.00,111.28 L132.72,111.00 M133.72,112.00 L133.00,111.28 M134.00,2.00 L135.00,2.00 M134.00,112.28 L133.72,112.00 M134.72,113.00 L134.00,112.28 M135.00,2.00 L136.00,2.00 M135.00,113.28 L134.72,113.00 M135.72,114.00 L135.00,113.28 M136.00,2.00 L137.00,2.00 M136.00,114.28 L135.72,114.00 M136.72,115.00 L136.00,114.28 M137.00,2.00 L138.00,2.00 M137.00,115.28 L136.72,115.00 M137.72,116.00 L137.00,115.28 M138.00,2.00 L139.00,2.00 M138.00,116.28 L137.72,116.00 M138.72,117.00 L138.00,116.28 M139.00,2.00 L140.00,2.00 M139.00,117.28 L138.72,117.00 M139.72,118.00 L139.00,117.28 M140.00,2.00 L141.00,2.00 M140.00,118.28 L139.72,118.00 M140.72,119.00 L140.00,118.28 M141.00,2.00 L142.00,2.00 M141.00,119.28 L140.72,119.00 M141.72,120.00 L141.00,119.28 M142.00,2.00 L143.00,2.00 M142.00,120.28 L141.72,120.00 M142.72,121.00 L142.00,120.28 M143.00,2.00 L144.00,2.00 M143.00,121.28 L142.72,121.00 M143.72,122.00 L143.00,121.28 M144.00,2.00 L145.00,2.00 M144.00,122.28 L143.72,122.00 M144.72,123.00 L144.00,122.28 M145.00,2.00 L146.00,2.00 M145.00,123.28 L144.72,123.00 M145.72,124.00 L145.00,123.28 M146.00,2.00 L147.00,2.00 M146.00,124.28 L145.72,124.00 M146.72,125.00 L146.00,124.28 M147.00,2.00 L148.00,2.00 M147.00,125.28 L146.72,125.00 M147.72,126.00 L147.00,125.28 M148.00,2.00 L149.00,2.00 M148.00,126.28 L147.72,126.00 M148.72,127.00 L148.00,126.28 M149.00,2.00 L150.00,2.00 M149.00,127.28 L148.72,127.00 M149.72,128.00 L149.00,127.28 M150.00,2.00 L151.00,2.00 M150.00,128.28 L149.72,128.00 M150.72,129.00 L150.00,128.28 M151.00,2.00 L152.00,2.00 M151.00,129.28 L150.72,129.00 M151.72,130.00 L151.00,129.28 M152.00,2.00 L153.00,2.00 M152.00,130.28 L151.72,130.00 M152.72,131.00 L152.00,130.28 M153.00,2.00 L154.00,2.00 M153.00,131.28 L152.72,131.00 M153.72,132.00 L153.00,131.28 M154.00,2.00 L155.00,2.00 M154.00,132.28 L153.72,132.00 M154.72,133.00 L154.00,132.28 M155.00,2.00 L156.00,2.00 M155.00,133.28 L154.72,133.00 M155.72,134.00 L155.00,133.28 M156.00,2.00 L157.00,2.00 M156.00,134.28 L155.72,134.00 M156.72,135.00 L156.00,134.28 M157.00,2.00 L158.00,2.00 M157.00,135.28 L156.72,135.00 M157.72,136.00 L157.00,135.28 M158.00,2.00 L159.00,2.00 M158.00,136.28 L157.72,136.00 M158.72,137.00 L158.00,136.28 M159.00,2.00 L160.00,2.00 M159.00,137.28 L158.72,137.00 M159.72,138.00 L159.00,137.28 M160.00,2.00 L161.00,2.00 M160.00,138.28 L159.72,138.00 M160.72,139.00 L160.00,138.28 M161.00,2.00 L162.00,2.00 M161.00,139.28 L160.72,139.00 M161.72,140.00 L161.00,139.28 M162.00,2.00 L163.00,2.00 M162.00,140.28 L161.72,140.00 M162.72,141.00 L162.00,140.28 M163.00,2.00 L164.00,2.00 M163.00,141.28 L162.72,141.00 M163.72,142.00 L163.00,141.28 M164.00,2.00 L165.00,2.00 M164.00,142.28 L163.72,142.00 M164.72,143.00 L164.00,142.28 M165.00,2.00 L166.00,2.00 M165.00,143.28 L164.72,143.00 M165.72,144.00 L165.00,143.28 M166.00,2.00 L167.00,2.00 M166.00,144.28 L165.72,144.00 M166.72,145.00 L166.00,144.28 M167.00,2.00 L168.00,2.00 M167.00,145.28 L166.72,145.00 M167.72,146.00 L167.00,145.28 M168.00,2.00 L169.00,2.00 M168.00,146.28 L167.72,146.00 M168.72,147.00 L168.00,146.28 M169.00,2.00 L170.00,2.00 M169.00,147.28 L168.72,147.00 M169.72,148.00 L169.00,147.28 M170.00,2.00 L171.00,2.00 M170.00,148.28 L169.72,148.00 M170.72,149.00 L170.00,148.28 M171.00,2.00 L172.00,2.00 M171.00,149.28 L170.72,149.00 M171.72,150.00 L171.00,149.28 M172.00,2.00 L173.00,2.03 M172.00,150.28 L171.72,150.00 M172.72,151.00 L172.00,150.28 M173.00,2.03 L174.00,2.10 M173.00,151.28 L172.72,151.00 M173.72,152.00 L173.00,151.28 M174.00,2.10 L175.00,2.23 M174.00,152.28 L173.72,152.00 M174.72,153.00 L174.00,152.28 M175.00,2.23 L176.00,2.40 M175.00,153.28 L174.72,153.00 M175.72,154.00 L175.00,153.28 M176.00,2.40 L177.00,2.64 M176.00,154.28 L175.72,154.00 M176.72,155.00 L176.00,154.28 M177.00,2.64 L178.00,2.92 M177.00,155.28 L176.72,155.00 M177.72,156.00 L177.00,155.28 M178.00,2.92 L178.23,3.00 M178.00,156.28 L177.72,156.00 M178.23,3.00 L179.00,3.27 M178.72,157.00 L178.00,156.28 M179.00,3.27 L180.00,3.67 M179.00,157.28 L178.72,157.00 M179.72,158.00 L179.00,157.28 M180.00,3.67 L180.71,4.00 M180.00,158.28 L179.72,158.00 M180.71,4.00 L181.00,4.14 M180.72,159.00 L180.00,158.28 M181.00,4.14 L182.00,4.68 M181.00,159.28 L180.72,159.00 M181.72,160.00 L181.00,159.28 M182.00,4.68 L182.53,5.00 M182.00,160.28 L181.72,160.00 M182.53,5.00 L183.00,5.30 M182.72,161.00 L182.00,160.28 M183.00,5.30 L184.00,6.00 M183.00,161.28 L182.72,161.00 M183.72,162.00 L183.00,161.28 M184.00,6.00 L185.00,6.80 M184.00,162.28 L183.72,162.00 M184.72,163.00 L184.00,162.28 M185.00,6.80 L185.23,7.00 M185.00,163.28 L184.72,163.00 M185.23,7.00 L186.00,7.72 M185.72,164.00 L185.00,163.28 M186.00,7.72 L186.28,8.00 M186.00,164.28 L185.72,164.00 M186.28,8.00 L187.00,8.77 M186.72,165.00 L186.00,164.28 M187.00,8.77 L187.20,9.00 M187.00,165.28 L186.72,165.00 M187.20,9.00 L188.00,10.00 M187.72,166.00 L187.00,165.28 M188.00,10.00 L188.70,11.00 M188.00,166.28 L187.72,166.00 M188.70,11.00 L189.00,11.47 M188.72,167.00 L188.00,166.28 M189.00,11.47 L189.32,12.00 M189.00,167.28 L188.72,167.00 M189.32,12.00 L189.86,13.00 M189.72,168.00 L189.00,167.28 M189.86,13.00 L190.00,13.29 M190.00,13.29 L190.33,14.00 M190.00,168.28 L189.72,168.00 M190.33,14.00 L190.73,15.00 M190.72,169.00 L190.00,168.28 M190.73,15.00 L191.00,15.76 M191.00,15.76 L191.08,16.00 M191.00,169.28 L190.72,169.00 M191.08,16.00 L191.42,17.00 M191.42,17.00 L191.75,18.00 M191.72,170.00 L191.00,169.28 M191.75,18.00 L192.00,18.75 M192.00,18.75 L192.08,19.00 M192.00,170.28 L191.72,170.00 M192.08,19.00 L192.42,20.00 M192.42,20.00 L192.75,21.00 M192.72,171.00 L192.00,170.28 M192.75,21.00 L193.00,21.75 M193.00,21.75 L193.08,22.00 M193.00,171.28 L192.72,171.00 M193.08,22.00 L193.42,23.00 M193.42,23.00 L193.75,24.00 M193.72,172.00 L193.00,171.28 M193.75,24.00 L194.00,24.75 M194.00,24.75 L194.08,25.00 M194.00,172.28 L193.72,172.00 M194.08,25.00 L194.42,26.00 M194.42,26.00 L194.75,27.00 M194.72,173.00 L194.00,172.28 M194.75,27.00 L195.00,27.75 M195.00,27.75 L195.08,28.00 M195.00,173.28 L194.72,173.00 M195.08,28.00 L195.42,29.00 M195.42,29.00 L195.75,30.00 M195.72,174.00 L195.00,173.28 M195.75,30.00 L196.00,30.75 M196.00,30.75 L196.08,31.00 M196.00,174.28 L195.72,174.00 M196.08,31.00 L196.42,32.00 M196.42,32.00 L196.75,33.00 M196.72,175.00 L196.00,174.28 M196.75,33.00 L197.00,33.75 M197.00,33.75 L197.08,34.00 M197.00,175.28 L196.72,175.00 M197.08,34.00 L197.42,35.00 M197.42,35.00 L197.75,36.00 M197.72,176.00 L197.00,175.28 M197.75,36.00 L198.00,36.75 M198.00,36.75 L198.08,37.00 M198.00,176.28 L197.72,176.00 M198.08,37.00 L198.42,38.00 M198.42,38.00 L198.75,39.00 M198.72,177.00 L198.00,176.28 M198.75,39.00 L199.00,39.75 M199.00,39.75 L199.08,40.00 M199.00,177.28 L198.72,177.00 M199.08,40.00 L199.42,41.00 M199.42,41.00 L199.75,42.00 M199.72,178.00 L199.00,177.28 M199.75,42.00 L200.00,42.75 M200.00,42.75 L200.08,43.00 M200.00,178.28 L199.72,178.00 M200.08,43.00 L200.42,44.00 M200.42,44.00 L200.75,45.00 M200.72,179.00 L200.00,178.28 M200.75,45.00 L201.00,45.75 M201.00,45.75 L201.08,46.00 M201.00,179.28 L200.72,179.00 M201.08,46.00 L201.42,47.00 M201.42,47.00 L201.75,48.00 M201.72,180.00 L201.00,179.28 M201.75,48.00 L202.00,48.75 M202.00,48.75 L202.08,49.00 M202.00,180.28 L201.72,180.00 M202.08,49.00 L202.42,50.00 M202.42,50.00 L202.75,51.00 M202.72,181.00 L202.00,180.28 M202.75,51.00 L203.00,51.75 M203.00,51.75 L203.08,52.00 M203.00,181.28 L202.72,181.00 M203.08,52.00 L203.42,53.00 M203.42,53.00 L203.75,54.00 M203.72,182.00 L203.00,181.28 M203.75,54.00 L204.00,54.75 M204.00,54.75 L204.08,55.00 M204.00,182.28 L203.72,182.00 M204.08,55.00 L204.42,56.00 M204.42,56.00 L204.75,57.00 M204.72,183.00 L204.00,182.28 M204.75,57.00 L205.00,57.75 M205.00,57.75 L205.08,58.00 M205.00,183.28 L204.72,183.00 M205.08,58.00 L205.42,59.00 M205.42,59.00 L205.75,60.00 M205.72,184.00 L205.00,183.28 M205.75,60.00 L206.00,60.75 M206.00,60.75 L206.08,61.00 M206.00,184.28 L205.72,184.00 M206.08,61.00 L206.42,62.00 M206.42,62.00 L206.75,63.00 M206.72,185.00 L206.00,184.28 M206.75,63.00 L207.00,63.75 M207.00,63.75 L207.08,64.00 M207.00,185.28 L206.72,185.00 M207.08,64.00 L207.42,65.00 M207.42,65.00 L207.75,66.00 M207.72,186.00 L207.00,185.28 M207.75,66.00 L208.00,66.75 M208.00,66.75 L208.08,67.00 M208.00,186.28 L207.72,186.00 M208.08,67.00 L208.42,68.00 M208.42,68.00 L208.75,69.00 M208.75,69.00 L209.00,69.75 M208.77,187.00 L208.00,186.28 M209.00,69.75 L209.08,70.00 M209.00,187.20 L208.77,187.00 M209.08,70.00 L209.42,71.00 M209.42,71.00 L209.75,72.00 M209.75,72.00 L210.00,72.75 M210.00,72.75 L210.08,73.00 M210.00,188.00 L209.00,187.20 M210.08,73.00 L210.42,74.00 M210.42,74.00 L210.75,75.00 M210.75,75.00 L211.00,75.75 M211.00,75.75 L211.08,76.00 M211.00,188.70 L210.00,188.00 M211.08,76.00 L211.42,77.00 M211.42,77.00 L211.75,78.00 M211.47,189.00 L211.00,188.70 M211.75,78.00 L212.00,78.75 M212.00,78.75 L212.08,79.00 M212.00,189.32 L211.47,189.00 M212.08,79.00 L212.42,80.00 M212.42,80.00 L212.75,81.00 M212.75,81.00 L213.00,81.75 M213.00,81.75 L213.08,82.00 M213.00,189.86 L212.00,189.32 M213.08,82.00 L213.42,83.00 M213.29,190.00 L213.00,189.86 M213.42,83.00 L213.75,84.00 M213.75,84.00 L214.00,84.75 M214.00,84.75 L214.08,85.00 M214.00,190.33 L213.29,190.00 M214.08,85.00 L214.42,86.00 M214.42,86.00 L214.75,87.00 M214.75,87.00 L215.00,87.75 M215.00,87.75 L215.08,88.00 M215.00,190.73 L214.00,190.33 M215.08,88.00 L215.42,89.00 M215.42,89.00 L215.75,90.00 M215.75,90.00 L216.00,90.75 M215.77,191.00 L215.00,190.73 M216.00,90.75 L216.08,91.00 M216.00,191.08 L215.77,191.00 M216.08,91.00 L216.42,92.00 M216.42,92.00 L216.75,93.00 M216.75,93.00 L217.00,93.75 M217.00,93.75 L217.08,94.00 M217.00,191.36 L216.00,191.08 M217.08,94.00 L217.42,95.00 M217.42,95.00 L217.75,96.00 M217.75,96.00 L218.00,96.75 M218.00,96.75 L218.08,97.00 M218.00,191.60 L217.00,191.36 M218.08,97.00 L218.42,98.00 M218.42,98.00 L218.75,99.00 M218.75,99.00 L219.00,99.75 M219.00,99.75 L219.08,100.00 M219.00,191.77 L218.00,191.60 M219.08,100.00 L219.42,101.00 M219.42,101.00 L219.75,102.00 M219.75,102.00 L220.00,102.75 M220.00,102.75 L220.08,103.00 M220.00,191.90 L219.00,191.77 M220.08,103.00 L220.42,104.00 M220.42,104.00 L220.75,105.00 M220.75,105.00 L221.00,105.75 M221.00,105.75 L221.08,106.00 M221.00,191.97 L220.00,191.90 M221.08,106.00 L221.42,107.00 M221.42,107.00 L221.75,108.00 M221.75,108.00 L222.00,108.75 M222.00,108.75 L222.08,109.00 M222.00,192.00 L221.00,191.97 M222.08,109.00 L222.42,110.00 M222.42,110.00 L222.75,111.00 M222.75,111.00 L223.00,111.75 M223.00,111.75 L223.08,112.00 M223.00,191.97 L222.00,192.00 M223.08,112.00 L223.42,113.00 M223.42,113.00 L223.75,114.00 M223.75,114.00 L224.00,114.75 M224.00,114.75 L224.08,115.00 M224.00,191.90 L223.00,191.97 M224.08,115.00 L224.42,116.00 M224.42,116.00 L224.75,117.00 M224.75,117.00 L225.00,117.75 M225.00,117.75 L225.08,118.00 M225.00,191.77 L224.00,191.90 M225.08,118.00 L225.42,119.00 M225.42,119.00 L225.75,120.00 M225.75,120.00 L226.00,120.75 M226.00,120.75 L226.08,121.00 M226.00,191.60 L225.00,191.77 M226.08,121.00 L226.42,122.00 M226.42,122.00 L226.75,123.00 M226.75,123.00 L227.00,123.75 M227.00,123.75 L227.08,124.00 M227.00,191.36 L226.00,191.60 M227.08,124.00 L227.42,125.00 M227.42,125.00 L227.75,126.00 M227.75,126.00 L228.00,126.75 M228.00,126.75 L228.08,127.00 M228.00,191.08 L227.00,191.36 M228.08,127.00 L228.42,128.00 M228.23,191.00 L228.00,191.08 M228.42,128.00 L228.75,129.00 M228.75,129.00 L229.00,129.75 M229.00,129.75 L229.08,130.00 M229.00,190.73 L228.23,191.00 M229.08,130.00 L229.42,131.00 M229.42,131.00 L229.75,132.00 M229.75,132.00 L230.00,132.75 M230.00,132.75 L230.08,133.00 M230.00,190.33 L229.00,190.73 M230.08,133.00 L230.42,134.00 M230.42,134.00 L230.75,135.00 M230.71,190.00 L230.00,190.33 M230.75,135.00 L231.00,135.75 M231.00,135.75 L231.08,136.00 M231.00,189.86 L230.71,190.00 M231.08,136.00 L231.42,137.00 M231.42,137.00 L231.75,138.00 M231.75,138.00 L232.00,138.75 M232.00,138.75 L232.08,139.00 M232.00,189.32 L231.00,189.86 M232.08,139.00 L232.42,140.00 M232.42,140.00 L232.75,141.00 M232.53,189.00 L232.00,189.32 M232.75,141.00 L233.00,141.75 M233.00,141.75 L233.08,142.00 M233.00,188.70 L232.53,189.00 M233.08,142.00 L233.42,143.00 M233.42,143.00 L233.75,144.00 M233.75,144.00 L234.00,144.75 M234.00,144.75 L234.08,145.00 M234.00,188.00 L233.00,188.70 M234.08,145.00 L234.42,146.00 M234.42,146.00 L234.75,147.00 M234.75,147.00 L235.00,147.75 M235.00,147.75 L235.08,148.00 M235.00,187.20 L234.00,188.00 M235.08,148.00 L235.42,149.00 M235.23,187.00 L235.00,187.20 M235.42,149.00 L235.75,150.00 M235.75,150.00 L236.00,150.75 M236.00,150.75 L236.08,151.00 M236.00,186.28 L235.23,187.00 M236.08,151.00 L236.42,152.00 M236.28,186.00 L236.00,186.28 M236.42,152.00 L236.75,153.00 M236.75,153.00 L237.00,153.75 M237.00,153.75 L237.08,154.00 M237.00,185.23 L236.28,186.00 M237.08,154.00 L237.42,155.00 M237.20,185.00 L237.00,185.23 M237.42,155.00 L237.75,156.00 M237.75,156.00 L238.00,156.75 M238.00,156.75 L238.08,157.00 M238.00,184.00 L237.20,185.00 M238.08,157.00 L238.42,158.00 M238.42,158.00 L238.75,159.00 M238.70,183.00 L238.00,184.00 M238.75,159.00 L239.00,159.75 M239.00,159.75 L239.08,160.00 M239.00,182.53 L238.70,183.00 M239.08,160.00 L239.42,161.00 M239.32,182.00 L239.00,182.53 M239.42,161.00 L239.75,162.00 M239.75,162.00 L240.00,162.75 M239.86,181.00 L239.32,182.00 M240.00,162.75 L240.08,163.00 M240.00,180.71 L239.86,181.00 M240.08,163.00 L240.42,164.00 M240.33,180.00 L240.00,180.71 M240.42,164.00 L240.75,165.00 M240.73,179.00 L240.33,180.00 M240.75,165.00 L241.00,165.76 M241.00,165.76 L241.08,166.00 M241.00,178.23 L240.73,179.00 M241.08,166.00 L241.36,167.00 M241.08,178.00 L241.00,178.23 M241.36,167.00 L241.60,168.00 M241.36,177.00 L241.08,178.00 M241.60,168.00 L241.77,169.00 M241.60,176.00 L241.36,177.00 M241.77,169.00 L241.90,170.00 M241.77,175.00 L241.60,176.00 M241.90,170.00 L241.97,171.00 M241.90,174.00 L241.77,175.00 M241.97,171.00 L242.00,172.00 M241.97,173.00 L241.90,174.00 M242.00,172.00 L241.97,173.00 "/>

<script>
let svgs = document.children[0];
let paths = Array.from(svgs.children).filter(function(c) {
    var orig = c.style.stroke;
    c.onmouseover = function() {
        c.style.stroke = "rgb(0, 0, 255)";
    };
    c.onmouseout = function () {
        c.style.stroke = orig;
    };
    c.onclick = function () {
        svgs.removeChild();
    }
});

for (let path of paths) {
    console.log(path);
}
</script></svg>