<svg xmlns="http://www.w3.org/2000/svg">
    <path fill-rule="evenodd" style="fill: none; stroke: rgb(0, 0, 0); stroke-width: 0.2;" d="M33.57,4.00 L34.00,3.57 L34.91,4.00 L34.00,4.91 L33.57,4.00 "/>
    <path fill-rule="evenodd" style="fill: none; stroke: rgb(0, 0, 0); stroke-width: 0.2;" d="M13.57,24.00 L14.00,23.57 L14.91,24.00 L14.00,24.91 L13.57,24.00 "/>
    <path fill-rule="evenodd" style="fill: none; stroke: rgb(0, 0, 0); stroke-width: 0.2;" d="M4.00,33.57 L4.91,34.00 L4.00,34.91 L3.57,34.00 L4.00,33.57 "/>
    <path fill-rule="evenodd" style="fill: none; stroke: rgb(0, 0, 0); stroke-width: 0.2;" d="M23.57,14.00 L24.00,13.57 L24.91,14.00 L24.00,14.91 L23.57,14.00 "/>
    <path fill-rule="evenodd" style="fill: none; stroke: rgb(0, 0, 0); stroke-width: 0.2;" d="M77.00,97.15 L76.00,97.84 L76.00,97.84 L75.56,98.00 L75.56,98.00 L75.00,98.18 L74.00,98.24 L73.00,98.05 L73.00,98.05 L72.89,98.00 L72.89,98.00 L72.00,97.54 L71.37,97.00 L71.00,96.55 L70.66,96.00 L70.32,95.00 L70.26,94.00 L70.45,93.00 L70.94,92.00 L70.94,92.00 L71.00,91.93 L71.00,91.93 L71.93,91.00 L71.93,91.00 L72.00,90.94 L72.00,90.94 L73.00,90.45 L74.00,90.26 L75.00,90.32 L76.00,90.66 L76.55,91.00 L77.00,91.37 L77.54,92.00 L78.00,92.89 L78.00,92.89 L78.05,93.00 L78.05,93.00 L78.24,94.00 L78.18,95.00 L78.00,95.56 L77.84,96.00 L77.15,97.00 L77.15,97.00 L77.00,97.15 L77.00,97.15 "/>
    <path fill-rule="evenodd" style="fill: none; stroke: rgb(0, 0, 0); stroke-width: 0.2;" d="M90.00,92.82 L90.36,92.00 L91.00,91.15 L91.00,91.15 L91.15,91.00 L91.15,91.00 L92.00,90.36 L92.82,90.00 L92.82,90.00 L93.00,89.90 L93.00,89.90 L94.00,89.68 L95.00,89.75 L95.66,90.00 L95.66,90.00 L96.00,90.11 L96.00,90.11 L97.00,90.70 L97.34,91.00 L98.00,91.78 L98.00,91.78 L98.14,92.00 L98.14,92.00 L98.57,93.00 L98.74,94.00 L98.69,95.00 L98.39,96.00 L98.00,96.71 L97.80,97.00 L97.00,97.80 L96.71,98.00 L96.00,98.39 L95.00,98.69 L94.00,98.74 L93.00,98.57 L92.00,98.14 L92.00,98.14 L91.78,98.00 L91.78,98.00 L91.00,97.34 L91.00,97.34 L90.70,97.00 L90.70,97.00 L90.11,96.00 L90.11,96.00 L90.00,95.66 L90.00,95.66 L89.75,95.00 L89.68,94.00 L89.90,93.00 L89.90,93.00 L90.00,92.82 L90.00,92.82 "/>
    <path fill-rule="evenodd" style="fill: none; stroke: rgb(0, 0, 0); stroke-width: 0.2;" d="M52.00,81.91 L53.00,81.26 L54.00,81.01 L55.00,81.09 L56.00,81.52 L56.57,82.00 L57.00,82.57 L57.25,83.00 L57.49,84.00 L57.41,85.00 L57.00,85.98 L57.00,85.98 L56.99,86.00 L56.99,86.00 L56.00,86.99 L56.00,86.99 L55.98,87.00 L55.98,87.00 L55.00,87.41 L54.00,87.49 L53.00,87.25 L52.57,87.00 L52.00,86.57 L51.52,86.00 L51.09,85.00 L51.01,84.00 L51.26,83.00 L51.91,82.00 L51.91,82.00 L52.00,81.91 L52.00,81.91 "/>
    <path fill-rule="evenodd" style="fill: none; stroke: rgb(0, 0, 0); stroke-width: 0.2;" d="M72.00,52.30 L72.30,52.00 L72.30,52.00 L73.00,51.53 L74.00,51.26 L75.00,51.35 L76.00,51.82 L76.00,51.82 L76.21,52.00 L76.21,52.00 L76.98,53.00 L76.98,53.00 L77.00,53.08 L77.00,53.08 L77.24,54.00 L77.15,55.00 L77.00,55.37 L76.67,56.00 L76.00,56.67 L75.37,57.00 L75.00,57.15 L74.00,57.24 L73.08,57.00 L73.08,57.00 L73.00,56.98 L73.00,56.98 L72.00,56.21 L72.00,56.21 L71.82,56.00 L71.82,56.00 L71.35,55.00 L71.26,54.00 L71.53,53.00 L72.00,52.30 L72.00,52.30 "/>
    <path fill-rule="evenodd" style="fill: none; stroke: rgb(0, 0, 0); stroke-width: 0.2;" d="M97.24,62.00 L97.78,63.00 L97.99,64.00 L97.92,65.00 L97.56,66.00 L97.00,66.78 L97.00,66.78 L96.78,67.00 L96.78,67.00 L96.00,67.56 L95.00,67.92 L94.00,67.99 L93.00,67.78 L92.00,67.24 L91.72,67.00 L91.00,66.10 L91.00,66.10 L90.94,66.00 L90.94,66.00 L90.58,65.00 L90.51,64.00 L90.72,63.00 L91.00,62.43 L91.26,62.00 L92.00,61.26 L92.43,61.00 L93.00,60.72 L94.00,60.51 L95.00,60.58 L96.00,60.94 L96.00,60.94 L96.10,61.00 L96.10,61.00 L97.00,61.72 L97.00,61.72 L97.24,62.00 L97.24,62.00 "/>
    <path fill-rule="evenodd" style="fill: none; stroke: rgb(0, 0, 0); stroke-width: 0.2;" d="M98.00,86.22 L97.47,87.00 L97.00,87.47 L96.22,88.00 L96.22,88.00 L96.00,88.12 L96.00,88.12 L95.00,88.43 L94.00,88.49 L93.00,88.31 L92.29,88.00 L92.00,87.85 L91.01,87.00 L91.01,87.00 L91.00,86.99 L91.00,86.99 L90.38,86.00 L90.07,85.00 L90.01,84.00 L90.19,83.00 L90.65,82.00 L91.00,81.54 L91.54,81.00 L92.00,80.65 L93.00,80.19 L94.00,80.01 L95.00,80.07 L96.00,80.38 L96.99,81.00 L96.99,81.00 L97.00,81.01 L97.00,81.01 L97.85,82.00 L98.00,82.29 L98.31,83.00 L98.49,84.00 L98.43,85.00 L98.12,86.00 L98.12,86.00 L98.00,86.22 L98.00,86.22 "/>
    <path fill-rule="evenodd" style="fill: none; stroke: rgb(0, 0, 0); stroke-width: 0.2;" d="M97.27,56.00 L97.00,56.38 L97.00,56.38 L96.38,57.00 L96.00,57.27 L95.00,57.67 L94.00,57.74 L93.00,57.51 L92.10,57.00 L92.10,57.00 L92.00,56.92 L92.00,56.92 L91.23,56.00 L91.00,55.46 L90.83,55.00 L90.76,54.00 L90.98,53.00 L90.98,53.00 L91.00,52.96 L91.00,52.96 L91.59,52.00 L92.00,51.59 L92.96,51.00 L92.96,51.00 L93.00,50.98 L93.00,50.98 L94.00,50.76 L95.00,50.83 L95.46,51.00 L96.00,51.23 L96.92,52.00 L96.92,52.00 L97.00,52.10 L97.00,52.10 L97.51,53.00 L97.74,54.00 L97.67,55.00 L97.27,56.00 L97.27,56.00 "/>
    <path fill-rule="evenodd" style="fill: none; stroke: rgb(0, 0, 0); stroke-width: 0.2;" d="M76.11,23.00 L76.49,24.00 L76.37,25.00 L76.00,25.61 L75.61,26.00 L75.00,26.37 L74.00,26.49 L73.00,26.11 L73.00,26.11 L72.86,26.00 L72.86,26.00 L72.13,25.00 L72.01,24.00 L72.40,23.00 L73.00,22.40 L74.00,22.01 L75.00,22.13 L76.00,22.86 L76.00,22.86 L76.11,23.00 L76.11,23.00 "/>
    <path fill-rule="evenodd" style="fill: none; stroke: rgb(0, 0, 0); stroke-width: 0.2;" d="M4.00,24.34 L3.84,24.00 L3.84,24.00 L4.00,23.84 L4.00,23.84 L4.34,24.00 L4.34,24.00 L4.00,24.34 L4.00,24.34 "/>
    <path fill-rule="evenodd" style="fill: none; stroke: rgb(0, 0, 0); stroke-width: 0.2;" d="M53.00,15.06 L52.95,15.00 L52.95,15.00 L52.77,14.00 L53.00,13.54 L53.54,13.00 L54.00,12.77 L55.00,12.95 L55.00,12.95 L55.06,13.00 L55.06,13.00 L55.73,14.00 L55.52,15.00 L55.00,15.52 L54.00,15.73 L53.00,15.06 L53.00,15.06 "/>
    <path fill-rule="evenodd" style="fill: none; stroke: rgb(0, 0, 0); stroke-width: 0.2;" d="M53.00,90.98 L54.00,90.76 L55.00,90.83 L55.46,91.00 L56.00,91.23 L56.92,92.00 L56.92,92.00 L57.00,92.10 L57.00,92.10 L57.51,93.00 L57.74,94.00 L57.67,95.00 L57.27,96.00 L57.00,96.38 L56.38,97.00 L56.00,97.27 L55.00,97.67 L54.00,97.74 L53.00,97.51 L52.10,97.00 L52.10,97.00 L52.00,96.92 L52.00,96.92 L51.23,96.00 L51.00,95.46 L50.83,95.00 L50.76,94.00 L50.98,93.00 L50.98,93.00 L51.00,92.96 L51.00,92.96 L51.59,92.00 L52.00,91.59 L52.96,91.00 L52.96,91.00 L53.00,90.98 L53.00,90.98 "/>
    <path fill-rule="evenodd" style="fill: none; stroke: rgb(0, 0, 0); stroke-width: 0.2;" d="M12.95,55.00 L12.77,54.00 L13.00,53.54 L13.54,53.00 L14.00,52.77 L15.00,52.95 L15.00,52.95 L15.06,53.00 L15.06,53.00 L15.73,54.00 L15.52,55.00 L15.00,55.52 L14.00,55.73 L13.00,55.06 L13.00,55.06 L12.95,55.00 L12.95,55.00 "/>
    <path fill-rule="evenodd" style="fill: none; stroke: rgb(0, 0, 0); stroke-width: 0.2;" d="M22.09,83.00 L23.00,82.09 L23.00,82.09 L23.24,82.00 L23.24,82.00 L24.00,81.76 L25.00,81.87 L25.27,82.00 L26.00,82.50 L26.40,83.00 L26.74,84.00 L26.63,85.00 L26.03,86.00 L26.03,86.00 L26.00,86.03 L26.00,86.03 L25.00,86.63 L24.00,86.74 L23.00,86.40 L22.50,86.00 L22.00,85.27 L21.87,85.00 L21.76,84.00 L22.00,83.24 L22.00,83.24 L22.09,83.00 L22.09,83.00 "/>
    <path fill-rule="evenodd" style="fill: none; stroke: rgb(0, 0, 0); stroke-width: 0.2;" d="M73.24,32.00 L74.00,31.76 L75.00,31.87 L75.27,32.00 L76.00,32.50 L76.40,33.00 L76.74,34.00 L76.63,35.00 L76.03,36.00 L76.03,36.00 L76.00,36.03 L76.00,36.03 L75.00,36.63 L74.00,36.74 L73.00,36.40 L72.50,36.00 L72.00,35.27 L71.87,35.00 L71.76,34.00 L72.00,33.24 L72.00,33.24 L72.09,33.00 L72.09,33.00 L73.00,32.09 L73.00,32.09 L73.24,32.00 L73.24,32.00 "/>
    <path fill-rule="evenodd" style="fill: none; stroke: rgb(0, 0, 0); stroke-width: 0.2;" d="M73.39,16.00 L73.00,15.78 L73.00,15.78 L72.41,15.00 L72.27,14.00 L72.71,13.00 L73.00,12.71 L74.00,12.27 L75.00,12.41 L75.78,13.00 L76.00,13.39 L76.23,14.00 L76.10,15.00 L76.10,15.00 L76.00,15.17 L76.00,15.17 L75.17,16.00 L75.17,16.00 L75.00,16.10 L75.00,16.10 L74.00,16.23 L73.39,16.00 L73.39,16.00 "/>
    <path fill-rule="evenodd" style="fill: none; stroke: rgb(0, 0, 0); stroke-width: 0.2;" d="M87.00,91.01 L87.85,92.00 L88.00,92.29 L88.31,93.00 L88.49,94.00 L88.43,95.00 L88.12,96.00 L88.12,96.00 L88.00,96.22 L88.00,96.22 L87.47,97.00 L87.00,97.47 L86.22,98.00 L86.22,98.00 L86.00,98.12 L86.00,98.12 L85.00,98.43 L84.00,98.49 L83.00,98.31 L82.29,98.00 L82.29,98.00 L82.00,97.85 L82.00,97.85 L81.01,97.00 L81.01,97.00 L81.00,96.99 L81.00,96.99 L80.38,96.00 L80.07,95.00 L80.01,94.00 L80.19,93.00 L80.65,92.00 L81.00,91.54 L81.54,91.00 L82.00,90.65 L83.00,90.19 L84.00,90.01 L85.00,90.07 L86.00,90.38 L86.99,91.00 L86.99,91.00 L87.00,91.01 L87.00,91.01 "/>
    <path fill-rule="evenodd" style="fill: none; stroke: rgb(0, 0, 0); stroke-width: 0.2;" d="M45.22,15.00 L45.00,15.22 L45.00,15.22 L44.00,15.47 L43.31,15.00 L43.03,14.00 L44.00,13.03 L45.00,13.31 L45.47,14.00 L45.22,15.00 L45.22,15.00 "/>
    <path fill-rule="evenodd" style="fill: none; stroke: rgb(0, 0, 0); stroke-width: 0.2;" d="M71.00,86.10 L70.94,86.00 L70.94,86.00 L70.58,85.00 L70.51,84.00 L70.72,83.00 L71.00,82.43 L71.26,82.00 L72.00,81.26 L72.43,81.00 L73.00,80.72 L74.00,80.51 L75.00,80.58 L76.00,80.94 L76.00,80.94 L76.10,81.00 L76.10,81.00 L77.00,81.72 L77.24,82.00 L77.78,83.00 L77.99,84.00 L77.92,85.00 L77.56,86.00 L77.00,86.78 L77.00,86.78 L76.78,87.00 L76.78,87.00 L76.00,87.56 L75.00,87.92 L74.00,87.99 L73.00,87.78 L72.00,87.24 L71.72,87.00 L71.00,86.10 L71.00,86.10 "/>
    <path fill-rule="evenodd" style="fill: none; stroke: rgb(0, 0, 0); stroke-width: 0.2;" d="M53.08,77.00 L53.00,76.98 L53.00,76.98 L52.00,76.21 L52.00,76.21 L51.82,76.00 L51.82,76.00 L51.35,75.00 L51.26,74.00 L51.53,73.00 L52.00,72.30 L52.30,72.00 L53.00,71.53 L54.00,71.26 L55.00,71.35 L56.00,71.82 L56.00,71.82 L56.21,72.00 L56.21,72.00 L56.98,73.00 L56.98,73.00 L57.00,73.08 L57.00,73.08 L57.24,74.00 L57.15,75.00 L57.00,75.37 L56.67,76.00 L56.00,76.67 L55.37,77.00 L55.00,77.15 L54.00,77.24 L53.08,77.00 L53.08,77.00 "/>
    <path fill-rule="evenodd" style="fill: none; stroke: rgb(0, 0, 0); stroke-width: 0.2;" d="M63.00,42.09 L63.24,42.00 L63.24,42.00 L64.00,41.76 L65.00,41.87 L65.00,41.87 L65.27,42.00 L65.27,42.00 L66.00,42.50 L66.40,43.00 L66.74,44.00 L66.63,45.00 L66.03,46.00 L66.03,46.00 L66.00,46.03 L66.00,46.03 L65.00,46.63 L64.00,46.74 L63.00,46.40 L62.50,46.00 L62.00,45.27 L61.87,45.00 L61.76,44.00 L62.00,43.24 L62.00,43.24 L62.09,43.00 L62.09,43.00 L63.00,42.09 L63.00,42.09 "/>
    <path fill-rule="evenodd" style="fill: none; stroke: rgb(0, 0, 0); stroke-width: 0.2;" d="M65.00,80.83 L65.46,81.00 L65.46,81.00 L66.00,81.23 L66.92,82.00 L66.92,82.00 L67.00,82.10 L67.00,82.10 L67.51,83.00 L67.74,84.00 L67.67,85.00 L67.27,86.00 L67.00,86.38 L66.38,87.00 L66.00,87.27 L65.00,87.67 L64.00,87.74 L63.00,87.51 L62.10,87.00 L62.10,87.00 L62.00,86.92 L62.00,86.92 L61.23,86.00 L61.00,85.46 L60.83,85.00 L60.76,84.00 L60.98,83.00 L60.98,83.00 L61.00,82.96 L61.00,82.96 L61.59,82.00 L62.00,81.59 L62.96,81.00 L62.96,81.00 L63.00,80.98 L63.00,80.98 L64.00,80.76 L65.00,80.83 L65.00,80.83 "/>
    <path fill-rule="evenodd" style="fill: none; stroke: rgb(0, 0, 0); stroke-width: 0.2;" d="M86.00,12.86 L86.11,13.00 L86.11,13.00 L86.49,14.00 L86.37,15.00 L86.00,15.61 L85.61,16.00 L85.00,16.37 L84.00,16.49 L83.00,16.11 L83.00,16.11 L82.86,16.00 L82.86,16.00 L82.13,15.00 L82.01,14.00 L82.40,13.00 L83.00,12.40 L84.00,12.01 L85.00,12.13 L86.00,12.86 L86.00,12.86 "/>
    <path fill-rule="evenodd" style="fill: none; stroke: rgb(0, 0, 0); stroke-width: 0.2;" d="M65.98,77.00 L65.00,77.41 L64.00,77.49 L63.00,77.25 L62.57,77.00 L62.00,76.57 L61.52,76.00 L61.09,75.00 L61.01,74.00 L61.26,73.00 L61.91,72.00 L61.91,72.00 L62.00,71.91 L62.00,71.91 L63.00,71.26 L64.00,71.01 L65.00,71.09 L66.00,71.52 L66.57,72.00 L67.00,72.57 L67.25,73.00 L67.49,74.00 L67.41,75.00 L67.00,75.98 L67.00,75.98 L66.99,76.00 L66.99,76.00 L66.00,76.99 L66.00,76.99 L65.98,77.00 L65.98,77.00 "/>
    <path fill-rule="evenodd" style="fill: none; stroke: rgb(0, 0, 0); stroke-width: 0.2;" d="M47.00,92.57 L47.25,93.00 L47.25,93.00 L47.49,94.00 L47.41,95.00 L47.00,95.98 L47.00,95.98 L46.99,96.00 L46.99,96.00 L46.00,96.99 L46.00,96.99 L45.98,97.00 L45.98,97.00 L45.00,97.41 L44.00,97.49 L43.00,97.25 L42.57,97.00 L42.00,96.57 L41.52,96.00 L41.09,95.00 L41.01,94.00 L41.26,93.00 L41.91,92.00 L41.91,92.00 L42.00,91.91 L42.00,91.91 L43.00,91.26 L44.00,91.01 L45.00,91.09 L46.00,91.52 L46.57,92.00 L47.00,92.57 L47.00,92.57 "/>
    <path fill-rule="evenodd" style="fill: none; stroke: rgb(0, 0, 0); stroke-width: 0.2;" d="M25.00,42.95 L25.06,43.00 L25.06,43.00 L25.73,44.00 L25.52,45.00 L25.00,45.52 L24.00,45.73 L23.00,45.06 L23.00,45.06 L22.95,45.00 L22.95,45.00 L22.77,44.00 L23.00,43.54 L23.54,43.00 L24.00,42.77 L25.00,42.95 L25.00,42.95 "/>
    <path fill-rule="evenodd" style="fill: none; stroke: rgb(0, 0, 0); stroke-width: 0.2;" d="M66.00,32.86 L66.11,33.00 L66.11,33.00 L66.49,34.00 L66.37,35.00 L66.00,35.61 L65.61,36.00 L65.00,36.37 L64.00,36.49 L63.00,36.11 L63.00,36.11 L62.86,36.00 L62.86,36.00 L62.13,35.00 L62.01,34.00 L62.40,33.00 L63.00,32.40 L64.00,32.01 L65.00,32.13 L66.00,32.86 L66.00,32.86 "/>
    <path fill-rule="evenodd" style="fill: none; stroke: rgb(0, 0, 0); stroke-width: 0.2;" d="M53.00,52.09 L53.24,52.00 L53.24,52.00 L54.00,51.76 L55.00,51.87 L55.27,52.00 L56.00,52.50 L56.40,53.00 L56.74,54.00 L56.63,55.00 L56.03,56.00 L56.03,56.00 L56.00,56.03 L56.00,56.03 L55.00,56.63 L54.00,56.74 L53.00,56.40 L52.50,56.00 L52.00,55.27 L51.87,55.00 L51.76,54.00 L52.00,53.24 L52.00,53.24 L52.09,53.00 L52.09,53.00 L53.00,52.09 L53.00,52.09 "/>
    <path fill-rule="evenodd" style="fill: none; stroke: rgb(0, 0, 0); stroke-width: 0.2;" d="M66.21,62.00 L66.98,63.00 L66.98,63.00 L67.00,63.08 L67.00,63.08 L67.24,64.00 L67.15,65.00 L67.00,65.37 L66.67,66.00 L66.00,66.67 L65.37,67.00 L65.00,67.15 L64.00,67.24 L63.08,67.00 L63.08,67.00 L63.00,66.98 L63.00,66.98 L62.00,66.21 L62.00,66.21 L61.82,66.00 L61.82,66.00 L61.35,65.00 L61.26,64.00 L61.53,63.00 L62.00,62.30 L62.30,62.00 L63.00,61.53 L64.00,61.26 L65.00,61.35 L66.00,61.82 L66.00,61.82 L66.21,62.00 L66.21,62.00 "/>
    <path fill-rule="evenodd" style="fill: none; stroke: rgb(0, 0, 0); stroke-width: 0.2;" d="M36.35,86.00 L36.00,86.35 L36.00,86.35 L35.00,86.89 L34.00,86.99 L33.00,86.69 L32.14,86.00 L32.14,86.00 L32.00,85.79 L32.00,85.79 L31.61,85.00 L31.51,84.00 L31.81,83.00 L32.00,82.71 L32.71,82.00 L32.71,82.00 L33.00,81.81 L33.00,81.81 L34.00,81.51 L35.00,81.61 L35.79,82.00 L35.79,82.00 L36.00,82.14 L36.00,82.14 L36.69,83.00 L36.99,84.00 L36.89,85.00 L36.35,86.00 L36.35,86.00 "/>
    <path fill-rule="evenodd" style="fill: none; stroke: rgb(0, 0, 0); stroke-width: 0.2;" d="M35.00,32.95 L35.06,33.00 L35.06,33.00 L35.73,34.00 L35.52,35.00 L35.00,35.52 L34.00,35.73 L33.00,35.06 L33.00,35.06 L32.95,35.00 L32.95,35.00 L32.77,34.00 L33.00,33.54 L33.54,33.00 L34.00,32.77 L35.00,32.95 L35.00,32.95 "/>
    <path fill-rule="evenodd" style="fill: none; stroke: rgb(0, 0, 0); stroke-width: 0.2;" d="M24.00,3.84 L24.34,4.00 L24.34,4.00 L24.00,4.34 L24.00,4.34 L23.84,4.00 L23.84,4.00 L24.00,3.84 L24.00,3.84 "/>
    <path fill-rule="evenodd" style="fill: none; stroke: rgb(0, 0, 0); stroke-width: 0.2;" d="M46.10,45.00 L46.00,45.17 L46.00,45.17 L45.17,46.00 L45.17,46.00 L45.00,46.10 L45.00,46.10 L44.00,46.23 L43.39,46.00 L43.00,45.78 L42.41,45.00 L42.27,44.00 L42.71,43.00 L43.00,42.71 L44.00,42.27 L45.00,42.41 L45.78,43.00 L46.00,43.39 L46.23,44.00 L46.10,45.00 L46.10,45.00 "/>
    <path fill-rule="evenodd" style="fill: none; stroke: rgb(0, 0, 0); stroke-width: 0.2;" d="M26.00,92.14 L26.69,93.00 L26.99,94.00 L26.89,95.00 L26.35,96.00 L26.00,96.35 L25.00,96.89 L24.00,96.99 L23.00,96.69 L22.14,96.00 L22.14,96.00 L22.00,95.79 L22.00,95.79 L21.61,95.00 L21.51,94.00 L21.81,93.00 L22.00,92.71 L22.71,92.00 L23.00,91.81 L24.00,91.51 L25.00,91.61 L25.79,92.00 L25.79,92.00 L26.00,92.14 L26.00,92.14 "/>
    <path fill-rule="evenodd" style="fill: none; stroke: rgb(0, 0, 0); stroke-width: 0.2;" d="M91.93,71.00 L92.00,70.94 L92.00,70.94 L93.00,70.45 L94.00,70.26 L95.00,70.32 L96.00,70.66 L96.55,71.00 L97.00,71.37 L97.54,72.00 L98.00,72.89 L98.00,72.89 L98.05,73.00 L98.05,73.00 L98.24,74.00 L98.18,75.00 L98.00,75.56 L97.84,76.00 L97.15,77.00 L97.15,77.00 L97.00,77.15 L97.00,77.15 L96.00,77.84 L95.56,78.00 L95.00,78.18 L94.00,78.24 L93.00,78.05 L93.00,78.05 L92.89,78.00 L92.89,78.00 L92.00,77.54 L91.37,77.00 L91.00,76.55 L90.66,76.00 L90.32,75.00 L90.26,74.00 L90.45,73.00 L90.94,72.00 L90.94,72.00 L91.00,71.93 L91.00,71.93 L91.93,71.00 L91.93,71.00 "/>
    <path fill-rule="evenodd" style="fill: none; stroke: rgb(0, 0, 0); stroke-width: 0.2;" d="M56.11,43.00 L56.49,44.00 L56.37,45.00 L56.00,45.61 L55.61,46.00 L55.00,46.37 L54.00,46.49 L53.00,46.11 L53.00,46.11 L52.86,46.00 L52.86,46.00 L52.13,45.00 L52.01,44.00 L52.40,43.00 L53.00,42.40 L54.00,42.01 L55.00,42.13 L56.00,42.86 L56.00,42.86 L56.11,43.00 L56.11,43.00 "/>
    <path fill-rule="evenodd" style="fill: none; stroke: rgb(0, 0, 0); stroke-width: 0.2;" d="M86.00,56.99 L85.98,57.00 L85.98,57.00 L85.00,57.41 L84.00,57.49 L83.00,57.25 L82.57,57.00 L82.00,56.57 L81.52,56.00 L81.09,55.00 L81.01,54.00 L81.26,53.00 L81.91,52.00 L81.91,52.00 L82.00,51.91 L82.00,51.91 L83.00,51.26 L84.00,51.01 L85.00,51.09 L86.00,51.52 L86.57,52.00 L87.00,52.57 L87.25,53.00 L87.49,54.00 L87.41,55.00 L87.00,55.98 L87.00,55.98 L86.99,56.00 L86.99,56.00 L86.00,56.99 L86.00,56.99 "/>
    <path fill-rule="evenodd" style="fill: none; stroke: rgb(0, 0, 0); stroke-width: 0.2;" d="M33.00,96.98 L32.00,96.21 L32.00,96.21 L31.82,96.00 L31.82,96.00 L31.35,95.00 L31.26,94.00 L31.53,93.00 L32.00,92.30 L32.00,92.30 L32.30,92.00 L32.30,92.00 L33.00,91.53 L34.00,91.26 L35.00,91.35 L36.00,91.82 L36.00,91.82 L36.21,92.00 L36.21,92.00 L36.98,93.00 L36.98,93.00 L37.00,93.08 L37.00,93.08 L37.24,94.00 L37.15,95.00 L37.00,95.37 L36.67,96.00 L36.00,96.67 L35.37,97.00 L35.00,97.15 L34.00,97.24 L33.08,97.00 L33.08,97.00 L33.00,96.98 L33.00,96.98 "/>
    <path fill-rule="evenodd" style="fill: none; stroke: rgb(0, 0, 0); stroke-width: 0.2;" d="M83.00,88.05 L82.89,88.00 L82.89,88.00 L82.00,87.54 L81.37,87.00 L81.00,86.55 L80.66,86.00 L80.32,85.00 L80.26,84.00 L80.45,83.00 L80.94,82.00 L80.94,82.00 L81.00,81.93 L81.00,81.93 L81.93,81.00 L81.93,81.00 L82.00,80.94 L82.00,80.94 L83.00,80.45 L84.00,80.26 L85.00,80.32 L86.00,80.66 L86.55,81.00 L87.00,81.37 L87.54,82.00 L88.00,82.89 L88.00,82.89 L88.05,83.00 L88.05,83.00 L88.24,84.00 L88.18,85.00 L88.00,85.56 L88.00,85.56 L87.84,86.00 L87.84,86.00 L87.15,87.00 L87.15,87.00 L87.00,87.15 L87.00,87.15 L86.00,87.84 L85.56,88.00 L85.00,88.18 L84.00,88.24 L83.00,88.05 L83.00,88.05 "/>
    <path fill-rule="evenodd" style="fill: none; stroke: rgb(0, 0, 0); stroke-width: 0.2;" d="M92.00,15.27 L91.87,15.00 L91.87,15.00 L91.76,14.00 L92.00,13.24 L92.00,13.24 L92.09,13.00 L92.09,13.00 L93.00,12.09 L93.00,12.09 L93.24,12.00 L93.24,12.00 L94.00,11.76 L95.00,11.87 L95.27,12.00 L96.00,12.50 L96.40,13.00 L96.74,14.00 L96.63,15.00 L96.03,16.00 L96.03,16.00 L96.00,16.03 L96.00,16.03 L95.00,16.63 L94.00,16.74 L93.00,16.40 L92.50,16.00 L92.00,15.27 L92.00,15.27 "/>
    <path fill-rule="evenodd" style="fill: none; stroke: rgb(0, 0, 0); stroke-width: 0.2;" d="M46.03,66.00 L46.00,66.03 L46.00,66.03 L45.00,66.63 L44.00,66.74 L43.00,66.40 L42.50,66.00 L42.00,65.27 L41.87,65.00 L41.76,64.00 L42.00,63.24 L42.00,63.24 L42.09,63.00 L42.09,63.00 L43.00,62.09 L43.00,62.09 L43.24,62.00 L43.24,62.00 L44.00,61.76 L45.00,61.87 L45.27,62.00 L46.00,62.50 L46.40,63.00 L46.74,64.00 L46.63,65.00 L46.03,66.00 L46.03,66.00 "/>
    <path fill-rule="evenodd" style="fill: none; stroke: rgb(0, 0, 0); stroke-width: 0.2;" d="M82.71,3.00 L83.00,2.71 L83.00,2.71 L84.00,2.27 L85.00,2.41 L85.78,3.00 L86.00,3.39 L86.23,4.00 L86.10,5.00 L86.10,5.00 L86.00,5.17 L86.00,5.17 L85.17,6.00 L85.17,6.00 L85.00,6.10 L85.00,6.10 L84.00,6.23 L83.39,6.00 L83.00,5.78 L82.41,5.00 L82.27,4.00 L82.71,3.00 L82.71,3.00 "/>
    <path fill-rule="evenodd" style="fill: none; stroke: rgb(0, 0, 0); stroke-width: 0.2;" d="M66.10,91.00 L67.00,91.72 L67.24,92.00 L67.78,93.00 L67.99,94.00 L67.92,95.00 L67.56,96.00 L67.00,96.78 L67.00,96.78 L66.78,97.00 L66.78,97.00 L66.00,97.56 L65.00,97.92 L64.00,97.99 L63.00,97.78 L62.00,97.24 L61.72,97.00 L61.00,96.10 L61.00,96.10 L60.94,96.00 L60.94,96.00 L60.58,95.00 L60.51,94.00 L60.72,93.00 L61.00,92.43 L61.26,92.00 L62.00,91.26 L62.43,91.00 L63.00,90.72 L64.00,90.51 L65.00,90.58 L66.00,90.94 L66.00,90.94 L66.10,91.00 L66.10,91.00 "/>
    <path fill-rule="evenodd" style="fill: none; stroke: rgb(0, 0, 0); stroke-width: 0.2;" d="M72.10,77.00 L72.00,76.92 L72.00,76.92 L71.23,76.00 L71.00,75.46 L70.83,75.00 L70.76,74.00 L70.98,73.00 L70.98,73.00 L71.00,72.96 L71.00,72.96 L71.59,72.00 L72.00,71.59 L72.96,71.00 L72.96,71.00 L73.00,70.98 L73.00,70.98 L74.00,70.76 L75.00,70.83 L75.46,71.00 L76.00,71.23 L76.92,72.00 L76.92,72.00 L77.00,72.10 L77.00,72.10 L77.51,73.00 L77.74,74.00 L77.67,75.00 L77.27,76.00 L77.00,76.38 L76.38,77.00 L76.00,77.27 L75.00,77.67 L74.00,77.74 L73.00,77.51 L72.10,77.00 L72.10,77.00 "/>
    <path fill-rule="evenodd" style="fill: none; stroke: rgb(0, 0, 0); stroke-width: 0.2;" d="M33.00,72.09 L33.24,72.00 L33.24,72.00 L34.00,71.76 L35.00,71.87 L35.27,72.00 L36.00,72.50 L36.40,73.00 L36.74,74.00 L36.63,75.00 L36.03,76.00 L36.03,76.00 L36.00,76.03 L36.00,76.03 L35.00,76.63 L34.00,76.74 L33.00,76.40 L32.50,76.00 L32.00,75.27 L31.87,75.00 L31.76,74.00 L32.00,73.24 L32.00,73.24 L32.09,73.00 L32.09,73.00 L33.00,72.09 L33.00,72.09 "/>
    <path fill-rule="evenodd" style="fill: none; stroke: rgb(0, 0, 0); stroke-width: 0.2;" d="M25.78,63.00 L26.00,63.39 L26.00,63.39 L26.23,64.00 L26.10,65.00 L26.10,65.00 L26.00,65.17 L26.00,65.17 L25.17,66.00 L25.17,66.00 L25.00,66.10 L25.00,66.10 L24.00,66.23 L23.39,66.00 L23.00,65.78 L22.41,65.00 L22.27,64.00 L22.71,63.00 L23.00,62.71 L24.00,62.27 L25.00,62.41 L25.78,63.00 L25.78,63.00 "/>
    <path fill-rule="evenodd" style="fill: none; stroke: rgb(0, 0, 0); stroke-width: 0.2;" d="M22.86,76.00 L22.13,75.00 L22.01,74.00 L22.40,73.00 L23.00,72.40 L24.00,72.01 L25.00,72.13 L26.00,72.86 L26.00,72.86 L26.11,73.00 L26.11,73.00 L26.49,74.00 L26.37,75.00 L26.00,75.61 L25.61,76.00 L25.00,76.37 L24.00,76.49 L23.00,76.11 L23.00,76.11 L22.86,76.00 L22.86,76.00 "/>
    <path fill-rule="evenodd" style="fill: none; stroke: rgb(0, 0, 0); stroke-width: 0.2;" d="M80.94,76.00 L80.58,75.00 L80.51,74.00 L80.72,73.00 L81.00,72.43 L81.26,72.00 L82.00,71.26 L82.43,71.00 L83.00,70.72 L84.00,70.51 L85.00,70.58 L86.00,70.94 L86.00,70.94 L86.10,71.00 L86.10,71.00 L87.00,71.72 L87.24,72.00 L87.78,73.00 L87.99,74.00 L87.92,75.00 L87.56,76.00 L87.00,76.78 L87.00,76.78 L86.78,77.00 L86.78,77.00 L86.00,77.56 L85.00,77.92 L84.00,77.99 L83.00,77.78 L82.00,77.24 L81.72,77.00 L81.00,76.10 L81.00,76.10 L80.94,76.00 L80.94,76.00 "/>
    <path fill-rule="evenodd" style="fill: none; stroke: rgb(0, 0, 0); stroke-width: 0.2;" d="M96.00,31.82 L96.21,32.00 L96.21,32.00 L96.98,33.00 L96.98,33.00 L97.00,33.08 L97.00,33.08 L97.24,34.00 L97.15,35.00 L97.00,35.37 L96.67,36.00 L96.00,36.67 L95.37,37.00 L95.00,37.15 L94.00,37.24 L93.08,37.00 L93.08,37.00 L93.00,36.98 L93.00,36.98 L92.00,36.21 L92.00,36.21 L91.82,36.00 L91.82,36.00 L91.35,35.00 L91.26,34.00 L91.53,33.00 L92.00,32.30 L92.30,32.00 L93.00,31.53 L94.00,31.26 L95.00,31.35 L96.00,31.82 L96.00,31.82 "/>
    <path fill-rule="evenodd" style="fill: none; stroke: rgb(0, 0, 0); stroke-width: 0.2;" d="M86.00,41.82 L86.21,42.00 L86.21,42.00 L86.98,43.00 L86.98,43.00 L87.00,43.08 L87.00,43.08 L87.24,44.00 L87.15,45.00 L87.00,45.37 L86.67,46.00 L86.00,46.67 L85.37,47.00 L85.37,47.00 L85.00,47.15 L85.00,47.15 L84.00,47.24 L83.08,47.00 L83.08,47.00 L83.00,46.98 L83.00,46.98 L82.00,46.21 L82.00,46.21 L81.82,46.00 L81.82,46.00 L81.35,45.00 L81.26,44.00 L81.53,43.00 L82.00,42.30 L82.30,42.00 L83.00,41.53 L84.00,41.26 L85.00,41.35 L86.00,41.82 L86.00,41.82 "/>
    <path fill-rule="evenodd" style="fill: none; stroke: rgb(0, 0, 0); stroke-width: 0.2;" d="M55.17,36.00 L55.00,36.10 L55.00,36.10 L54.00,36.23 L53.39,36.00 L53.00,35.78 L52.41,35.00 L52.27,34.00 L52.71,33.00 L53.00,32.71 L54.00,32.27 L55.00,32.41 L55.78,33.00 L56.00,33.39 L56.23,34.00 L56.10,35.00 L56.10,35.00 L56.00,35.17 L56.00,35.17 L55.17,36.00 L55.17,36.00 "/>
    <path fill-rule="evenodd" style="fill: none; stroke: rgb(0, 0, 0); stroke-width: 0.2;" d="M96.00,22.14 L96.69,23.00 L96.99,24.00 L96.89,25.00 L96.35,26.00 L96.00,26.35 L95.00,26.89 L94.00,26.99 L93.00,26.69 L92.14,26.00 L92.14,26.00 L92.00,25.79 L92.00,25.79 L91.61,25.00 L91.51,24.00 L91.81,23.00 L92.00,22.71 L92.71,22.00 L93.00,21.81 L94.00,21.51 L95.00,21.61 L95.79,22.00 L95.79,22.00 L96.00,22.14 L96.00,22.14 "/>
    <path fill-rule="evenodd" style="fill: none; stroke: rgb(0, 0, 0); stroke-width: 0.2;" d="M97.00,45.98 L96.99,46.00 L96.99,46.00 L96.00,46.99 L96.00,46.99 L95.98,47.00 L95.98,47.00 L95.00,47.41 L94.00,47.49 L93.00,47.25 L92.57,47.00 L92.00,46.57 L91.52,46.00 L91.09,45.00 L91.01,44.00 L91.26,43.00 L91.91,42.00 L91.91,42.00 L92.00,41.91 L92.00,41.91 L93.00,41.26 L94.00,41.01 L95.00,41.09 L96.00,41.52 L96.57,42.00 L97.00,42.57 L97.25,43.00 L97.49,44.00 L97.41,45.00 L97.00,45.98 L97.00,45.98 "/>
    <path fill-rule="evenodd" style="fill: none; stroke: rgb(0, 0, 0); stroke-width: 0.2;" d="M86.00,32.14 L86.69,33.00 L86.99,34.00 L86.89,35.00 L86.35,36.00 L86.00,36.35 L85.00,36.89 L84.00,36.99 L83.00,36.69 L82.14,36.00 L82.14,36.00 L82.00,35.79 L82.00,35.79 L81.61,35.00 L81.51,34.00 L81.81,33.00 L82.00,32.71 L82.71,32.00 L83.00,31.81 L84.00,31.51 L85.00,31.61 L85.79,32.00 L85.79,32.00 L86.00,32.14 L86.00,32.14 "/>
    <path fill-rule="evenodd" style="fill: none; stroke: rgb(0, 0, 0); stroke-width: 0.2;" d="M65.00,2.95 L65.06,3.00 L65.06,3.00 L65.73,4.00 L65.52,5.00 L65.00,5.52 L64.00,5.73 L63.00,5.06 L63.00,5.06 L62.95,5.00 L62.95,5.00 L62.77,4.00 L63.00,3.54 L63.54,3.00 L64.00,2.77 L65.00,2.95 L65.00,2.95 "/>
    <path fill-rule="evenodd" style="fill: none; stroke: rgb(0, 0, 0); stroke-width: 0.2;" d="M15.00,76.10 L14.00,76.23 L13.39,76.00 L13.00,75.78 L12.41,75.00 L12.27,74.00 L12.71,73.00 L13.00,72.71 L14.00,72.27 L15.00,72.41 L15.78,73.00 L16.00,73.39 L16.23,74.00 L16.10,75.00 L16.10,75.00 L16.00,75.17 L16.00,75.17 L15.17,76.00 L15.17,76.00 L15.00,76.10 L15.00,76.10 "/>
    <path fill-rule="evenodd" style="fill: none; stroke: rgb(0, 0, 0); stroke-width: 0.2;" d="M72.00,61.91 L73.00,61.26 L74.00,61.01 L75.00,61.09 L76.00,61.52 L76.57,62.00 L77.00,62.57 L77.25,63.00 L77.49,64.00 L77.41,65.00 L77.00,65.98 L77.00,65.98 L76.99,66.00 L76.99,66.00 L76.00,66.99 L76.00,66.99 L75.98,67.00 L75.98,67.00 L75.00,67.41 L74.00,67.49 L73.00,67.25 L72.57,67.00 L72.00,66.57 L71.52,66.00 L71.09,65.00 L71.01,64.00 L71.26,63.00 L71.91,62.00 L71.91,62.00 L72.00,61.91 L72.00,61.91 "/>
    <path fill-rule="evenodd" style="fill: none; stroke: rgb(0, 0, 0); stroke-width: 0.2;" d="M35.22,25.00 L35.00,25.22 L35.00,25.22 L34.00,25.47 L33.31,25.00 L33.03,24.00 L34.00,23.03 L35.00,23.31 L35.47,24.00 L35.22,25.00 L35.22,25.00 "/>
    <path fill-rule="evenodd" style="fill: none; stroke: rgb(0, 0, 0); stroke-width: 0.2;" d="M76.00,42.14 L76.69,43.00 L76.99,44.00 L76.89,45.00 L76.35,46.00 L76.00,46.35 L75.00,46.89 L74.00,46.99 L73.00,46.69 L72.14,46.00 L72.14,46.00 L72.00,45.79 L72.00,45.79 L71.61,45.00 L71.51,44.00 L71.81,43.00 L72.00,42.71 L72.71,42.00 L73.00,41.81 L74.00,41.51 L75.00,41.61 L75.79,42.00 L75.79,42.00 L76.00,42.14 L76.00,42.14 "/>
    <path fill-rule="evenodd" style="fill: none; stroke: rgb(0, 0, 0); stroke-width: 0.2;" d="M2.95,65.00 L2.77,64.00 L3.00,63.54 L3.54,63.00 L4.00,62.77 L5.00,62.95 L5.00,62.95 L5.06,63.00 L5.06,63.00 L5.73,64.00 L5.52,65.00 L5.00,65.52 L4.00,65.73 L3.00,65.06 L3.00,65.06 L2.95,65.00 L2.95,65.00 "/>
    <path fill-rule="evenodd" style="fill: none; stroke: rgb(0, 0, 0); stroke-width: 0.2;" d="M86.92,62.00 L87.00,62.10 L87.00,62.10 L87.51,63.00 L87.74,64.00 L87.67,65.00 L87.27,66.00 L87.00,66.38 L86.38,67.00 L86.38,67.00 L86.00,67.27 L86.00,67.27 L85.00,67.67 L84.00,67.74 L83.00,67.51 L82.10,67.00 L82.10,67.00 L82.00,66.92 L82.00,66.92 L81.23,66.00 L81.00,65.46 L80.83,65.00 L80.76,64.00 L80.98,63.00 L80.98,63.00 L81.00,62.96 L81.00,62.96 L81.59,62.00 L82.00,61.59 L82.96,61.00 L82.96,61.00 L83.00,60.98 L83.00,60.98 L84.00,60.76 L85.00,60.83 L85.46,61.00 L86.00,61.23 L86.92,62.00 L86.92,62.00 "/>
    <path fill-rule="evenodd" style="fill: none; stroke: rgb(0, 0, 0); stroke-width: 0.2;" d="M82.00,23.24 L82.09,23.00 L82.09,23.00 L83.00,22.09 L83.00,22.09 L83.24,22.00 L83.24,22.00 L84.00,21.76 L85.00,21.87 L85.27,22.00 L86.00,22.50 L86.40,23.00 L86.74,24.00 L86.63,25.00 L86.03,26.00 L86.03,26.00 L86.00,26.03 L86.00,26.03 L85.00,26.63 L84.00,26.74 L83.00,26.40 L82.50,26.00 L82.00,25.27 L81.87,25.00 L81.76,24.00 L82.00,23.24 L82.00,23.24 "/>
    <path fill-rule="evenodd" style="fill: none; stroke: rgb(0, 0, 0); stroke-width: 0.2;" d="M5.22,55.00 L5.00,55.22 L5.00,55.22 L4.00,55.47 L3.31,55.00 L3.03,54.00 L4.00,53.03 L5.00,53.31 L5.47,54.00 L5.22,55.00 L5.22,55.00 "/>
    <path fill-rule="evenodd" style="fill: none; stroke: rgb(0, 0, 0); stroke-width: 0.2;" d="M32.86,66.00 L32.13,65.00 L32.01,64.00 L32.40,63.00 L33.00,62.40 L34.00,62.01 L35.00,62.13 L36.00,62.86 L36.00,62.86 L36.11,63.00 L36.11,63.00 L36.49,64.00 L36.37,65.00 L36.00,65.61 L35.61,66.00 L35.00,66.37 L34.00,66.49 L33.00,66.11 L33.00,66.11 L32.86,66.00 L32.86,66.00 "/>
    <path fill-rule="evenodd" style="fill: none; stroke: rgb(0, 0, 0); stroke-width: 0.2;" d="M42.95,25.00 L42.77,24.00 L43.00,23.54 L43.54,23.00 L44.00,22.77 L45.00,22.95 L45.00,22.95 L45.06,23.00 L45.06,23.00 L45.73,24.00 L45.52,25.00 L45.00,25.52 L44.00,25.73 L43.00,25.06 L43.00,25.06 L42.95,25.00 L42.95,25.00 "/>
    <path fill-rule="evenodd" style="fill: none; stroke: rgb(0, 0, 0); stroke-width: 0.2;" d="M23.69,25.00 L23.30,24.00 L24.00,23.30 L25.00,23.69 L25.21,24.00 L25.00,24.78 L25.00,24.78 L24.78,25.00 L24.78,25.00 L24.00,25.21 L24.00,25.21 L23.69,25.00 L23.69,25.00 "/>
    <path fill-rule="evenodd" style="fill: none; stroke: rgb(0, 0, 0); stroke-width: 0.2;" d="M3.00,96.11 L2.86,96.00 L2.86,96.00 L2.13,95.00 L2.01,94.00 L2.40,93.00 L3.00,92.40 L4.00,92.01 L5.00,92.13 L6.00,92.86 L6.00,92.86 L6.11,93.00 L6.11,93.00 L6.49,94.00 L6.37,95.00 L6.00,95.61 L5.61,96.00 L5.00,96.37 L4.00,96.49 L3.00,96.11 L3.00,96.11 "/>
    <path fill-rule="evenodd" style="fill: none; stroke: rgb(0, 0, 0); stroke-width: 0.2;" d="M65.79,52.00 L66.00,52.14 L66.00,52.14 L66.69,53.00 L66.99,54.00 L66.89,55.00 L66.35,56.00 L66.00,56.35 L65.00,56.89 L64.00,56.99 L63.00,56.69 L62.14,56.00 L62.14,56.00 L62.00,55.79 L62.00,55.79 L61.61,55.00 L61.51,54.00 L61.81,53.00 L62.00,52.71 L62.71,52.00 L63.00,51.81 L64.00,51.51 L65.00,51.61 L65.79,52.00 L65.79,52.00 "/>
    <path fill-rule="evenodd" style="fill: none; stroke: rgb(0, 0, 0); stroke-width: 0.2;" d="M96.11,3.00 L96.49,4.00 L96.37,5.00 L96.00,5.61 L95.61,6.00 L95.00,6.37 L94.00,6.49 L93.00,6.11 L93.00,6.11 L92.86,6.00 L92.86,6.00 L92.13,5.00 L92.01,4.00 L92.40,3.00 L93.00,2.40 L94.00,2.01 L95.00,2.13 L96.00,2.86 L96.00,2.86 L96.11,3.00 L96.11,3.00 "/>
    <path fill-rule="evenodd" style="fill: none; stroke: rgb(0, 0, 0); stroke-width: 0.2;" d="M73.00,3.04 L73.04,3.00 L73.04,3.00 L74.00,2.52 L75.00,2.68 L75.42,3.00 L75.98,4.00 L75.82,5.00 L75.00,5.82 L74.00,5.98 L73.00,5.42 L72.68,5.00 L72.52,4.00 L73.00,3.04 L73.00,3.04 "/>
    <path fill-rule="evenodd" style="fill: none; stroke: rgb(0, 0, 0); stroke-width: 0.2;" d="M41.82,86.00 L41.35,85.00 L41.26,84.00 L41.53,83.00 L42.00,82.30 L42.30,82.00 L43.00,81.53 L44.00,81.26 L45.00,81.35 L46.00,81.82 L46.00,81.82 L46.21,82.00 L46.21,82.00 L46.98,83.00 L46.98,83.00 L47.00,83.08 L47.00,83.08 L47.24,84.00 L47.15,85.00 L47.15,85.00 L47.00,85.37 L47.00,85.37 L46.67,86.00 L46.00,86.67 L45.37,87.00 L45.00,87.15 L44.00,87.24 L43.08,87.00 L43.08,87.00 L43.00,86.98 L43.00,86.98 L42.00,86.21 L42.00,86.21 L41.82,86.00 L41.82,86.00 "/>
    <path fill-rule="evenodd" style="fill: none; stroke: rgb(0, 0, 0); stroke-width: 0.2;" d="M16.00,96.03 L15.00,96.63 L14.00,96.74 L13.00,96.40 L12.50,96.00 L12.00,95.27 L11.87,95.00 L11.76,94.00 L12.00,93.24 L12.00,93.24 L12.09,93.00 L12.09,93.00 L13.00,92.09 L13.00,92.09 L13.24,92.00 L13.24,92.00 L14.00,91.76 L15.00,91.87 L15.27,92.00 L16.00,92.50 L16.40,93.00 L16.74,94.00 L16.63,95.00 L16.03,96.00 L16.03,96.00 L16.00,96.03 L16.00,96.03 "/>
    <path fill-rule="evenodd" style="fill: none; stroke: rgb(0, 0, 0); stroke-width: 0.2;" d="M6.00,85.17 L5.17,86.00 L5.17,86.00 L5.00,86.10 L5.00,86.10 L4.00,86.23 L3.39,86.00 L3.00,85.78 L2.41,85.00 L2.27,84.00 L2.71,83.00 L3.00,82.71 L4.00,82.27 L5.00,82.41 L5.78,83.00 L6.00,83.39 L6.23,84.00 L6.10,85.00 L6.10,85.00 L6.00,85.17 L6.00,85.17 "/>
    <path fill-rule="evenodd" style="fill: none; stroke: rgb(0, 0, 0); stroke-width: 0.2;" d="M14.00,13.84 L14.34,14.00 L14.34,14.00 L14.00,14.34 L14.00,14.34 L13.84,14.00 L13.84,14.00 L14.00,13.84 L14.00,13.84 "/>
    <path fill-rule="evenodd" style="fill: none; stroke: rgb(0, 0, 0); stroke-width: 0.2;" d="M46.00,72.14 L46.69,73.00 L46.99,74.00 L46.89,75.00 L46.35,76.00 L46.00,76.35 L45.00,76.89 L44.00,76.99 L43.00,76.69 L42.14,76.00 L42.14,76.00 L42.00,75.79 L42.00,75.79 L41.61,75.00 L41.51,74.00 L41.81,73.00 L42.00,72.71 L42.71,72.00 L43.00,71.81 L44.00,71.51 L45.00,71.61 L45.79,72.00 L45.79,72.00 L46.00,72.14 L46.00,72.14 "/>
    <path fill-rule="evenodd" style="fill: none; stroke: rgb(0, 0, 0); stroke-width: 0.2;" d="M66.10,25.00 L66.00,25.17 L66.00,25.17 L65.17,26.00 L65.17,26.00 L65.00,26.10 L65.00,26.10 L64.00,26.23 L63.39,26.00 L63.00,25.78 L62.41,25.00 L62.27,24.00 L62.71,23.00 L63.00,22.71 L64.00,22.27 L65.00,22.41 L65.78,23.00 L66.00,23.39 L66.23,24.00 L66.10,25.00 L66.10,25.00 "/>
    <path fill-rule="evenodd" style="fill: none; stroke: rgb(0, 0, 0); stroke-width: 0.2;" d="M42.86,56.00 L42.13,55.00 L42.01,54.00 L42.40,53.00 L43.00,52.40 L44.00,52.01 L45.00,52.13 L46.00,52.86 L46.00,52.86 L46.11,53.00 L46.11,53.00 L46.49,54.00 L46.37,55.00 L46.00,55.61 L45.61,56.00 L45.00,56.37 L44.00,56.49 L43.00,56.11 L43.00,56.11 L42.86,56.00 L42.86,56.00 "/>
    <path fill-rule="evenodd" style="fill: none; stroke: rgb(0, 0, 0); stroke-width: 0.2;" d="M35.17,56.00 L35.00,56.10 L35.00,56.10 L34.00,56.23 L33.39,56.00 L33.00,55.78 L32.41,55.00 L32.27,54.00 L32.71,53.00 L33.00,52.71 L34.00,52.27 L35.00,52.41 L35.78,53.00 L36.00,53.39 L36.23,54.00 L36.10,55.00 L36.10,55.00 L36.00,55.17 L36.00,55.17 L35.17,56.00 L35.17,56.00 "/>
    <path fill-rule="evenodd" style="fill: none; stroke: rgb(0, 0, 0); stroke-width: 0.2;" d="M56.00,62.14 L56.69,63.00 L56.99,64.00 L56.89,65.00 L56.35,66.00 L56.00,66.35 L55.00,66.89 L54.00,66.99 L53.00,66.69 L52.14,66.00 L52.14,66.00 L52.00,65.79 L52.00,65.79 L51.61,65.00 L51.51,64.00 L51.81,63.00 L52.00,62.71 L52.71,62.00 L53.00,61.81 L54.00,61.51 L55.00,61.61 L55.79,62.00 L55.79,62.00 L56.00,62.14 L56.00,62.14 "/>
    <path fill-rule="evenodd" style="fill: none; stroke: rgb(0, 0, 0); stroke-width: 0.2;" d="M55.00,5.22 L54.00,5.47 L53.31,5.00 L53.03,4.00 L54.00,3.03 L55.00,3.31 L55.47,4.00 L55.22,5.00 L55.22,5.00 L55.00,5.22 L55.00,5.22 "/>
    <path fill-rule="evenodd" style="fill: none; stroke: rgb(0, 0, 0); stroke-width: 0.2;" d="M13.00,86.11 L12.86,86.00 L12.86,86.00 L12.13,85.00 L12.01,84.00 L12.40,83.00 L13.00,82.40 L14.00,82.01 L15.00,82.13 L16.00,82.86 L16.00,82.86 L16.11,83.00 L16.11,83.00 L16.49,84.00 L16.37,85.00 L16.00,85.61 L15.61,86.00 L15.00,86.37 L14.00,86.49 L13.00,86.11 L13.00,86.11 "/>
    <path fill-rule="evenodd" style="fill: none; stroke: rgb(0, 0, 0); stroke-width: 0.2;" d="M4.78,45.00 L4.00,45.21 L3.69,45.00 L3.30,44.00 L4.00,43.30 L5.00,43.69 L5.21,44.00 L5.00,44.78 L5.00,44.78 L4.78,45.00 L4.78,45.00 "/>

<script>
let svgs = document.children[0];
let paths = Array.from(svgs.children).filter(function(c) {
    var orig = c.style.stroke;
    c.onmouseover = function() {
        c.style.stroke = "rgb(0, 0, 255)";
    };
    c.onmouseout = function () {
        c.style.stroke = orig;
    };
    c.onclick = function () {
        svgs.removeChild()
    }
});

for (let path of paths) {
    console.log(path);
}
</script></svg>