<svg xmlns="http://www.w3.org/2000/svg">
    <path fill-rule="evenodd" style="fill: none; stroke: rgb(0, 0, 0); stroke-width: 0.2;" d="M124.00000,90.44572 L123.30194,91.00000 L123.00000,91.23624 L122.00000,92.00000 L121.00000,92.73659 L120.63309,93.00000 L120.00000,93.44850 L119.20060,94.00000 L119.00000,94.13665 L118.00000,94.80090 L117.69213,95.00000 L117.00000,95.44234 L116.10159,96.00000 L116.00000,96.06235 L115.00000,96.66020 L114.41415,97.00000 L114.00000,97.23769 L113.00000,97.79485 L112.62046,98.00000 L112.00000,98.33213 L111.00000,98.85038 L110.70211,99.00000 L110.00000,99.34950 L109.00000,99.83048 L108.63557,100.00000 L108.00000,100.29323 L107.00000,100.73841 L106.39045,101.00000 L106.00000,101.16631 L105.00000,101.57705 L104.00000,101.97140 L103.92469,102.00000 L103.00000,102.34894 L102.00000,102.00000 L101.00000,101.00000 L100.00000,100.00000 L99.00000,99.00000 L98.00000,98.00000 L97.00000,97.00000 L96.00000,96.00000 L95.00000,95.00000 L94.00000,94.00000 L93.00000,93.00000 L92.00000,92.00000 L91.00000,91.00000 L90.00000,90.00000 L89.00000,89.00000 L88.00000,88.00000 L87.00000,87.00000 L86.00000,86.00000 L85.00000,85.00000 L84.00000,84.00000 L83.00000,83.00000 L82.00000,82.00000 L81.00000,81.00000 L80.00000,80.00000 L79.00000,79.00000 L78.00000,78.00000 L77.00000,77.00001 L76.00000,76.00001 L75.00000,75.00001 L74.00000,74.00000 L73.00000,73.00000 L72.00000,72.00000 L71.00000,71.00001 L70.00000,70.00001 L69.00000,69.00001 L68.00000,68.00000 L67.00000,67.00000 L66.00000,66.00000 L65.00000,65.00001 L64.00000,64.00001 L63.00000,63.00001 L62.00000,62.00000 L61.00000,61.00000 L60.00000,60.00000 L59.00000,59.00001 L58.00000,58.00001 L57.00000,57.00001 L56.00000,56.00000 L55.00000,55.00000 L54.00000,54.00000 L53.00000,53.00001 L52.00000,52.00000 L51.00000,51.50000 L50.00000,51.00000 L49.00000,50.50000 L48.00000,50.00000 L47.00000,49.50000 L46.00000,49.00000 L45.00000,48.50000 L44.00000,48.00000 L43.00000,47.50000 L42.00000,47.00000 L41.00000,46.50000 L40.00000,46.00000 L39.00000,45.50000 L38.00000,45.00000 L37.00000,44.50000 L36.00000,44.00000 L35.00000,43.50000 L34.00000,43.00000 L33.00000,42.50000 L32.00000,42.00000 L31.00000,41.50000 L30.00000,41.00000 L29.00000,40.50000 L28.00000,40.00000 L27.00000,39.50000 L26.00000,39.00000 L25.00000,38.50000 L24.00000,38.00000 L23.00000,37.50000 L22.00000,37.00000 L21.00000,36.50000 L20.00000,36.00000 L19.00000,35.50000 L18.00000,35.00000 L17.00000,34.50000 L16.00000,34.00000 L15.00000,33.50000 L14.00000,33.00000 L13.00000,32.50000 L12.00000,32.00000 L11.00000,31.50000 L10.00000,31.00000 L9.00000,30.50000 L8.00000,30.00000 L7.00000,29.50000 L6.00000,29.00000 L5.00000,28.50000 L4.00000,28.00000 L3.00000,27.50000 L2.27128,27.00000 L2.24039,26.00000 L2.32739,25.00000 L2.42791,24.00000 L2.54198,23.00000 L2.66968,22.00000 L2.81108,21.00000 L2.96623,20.00000 L3.00000,19.79983 L3.13528,19.00000 L3.31831,18.00000 L3.51537,17.00000 L3.72660,16.00000 L3.95208,15.00000 L4.00000,14.79974 L4.19209,14.00000 L4.44668,13.00000 L4.71594,12.00000 L5.00000,11.00000 L5.29936,10.00000 L5.61388,9.00000 L5.94372,8.00000 L6.00000,7.83644 L6.28948,7.00000 L6.65106,6.00000 L7.00000,5.07531 L7.02861,5.00000 L7.42295,4.00000 L7.83368,3.00000 L8.00000,2.60955 L9.00000,2.00000 L10.00000,2.00000 L11.00000,2.00000 L12.00000,2.00000 L13.00000,2.00000 L14.00000,2.00000 L15.00000,2.00000 L16.00000,2.00000 L17.00000,2.00000 L18.00000,2.00000 L19.00000,2.00000 L20.00000,2.00000 L21.00000,2.00000 L22.00000,2.00000 L23.00000,2.00000 L24.00000,2.00000 L25.00000,2.00000 L26.00000,2.00000 L27.00000,2.00000 L28.00000,2.00000 L29.00000,2.00000 L30.00000,2.00000 L31.00000,2.00000 L32.00000,2.00000 L33.00000,2.00000 L34.00000,2.00000 L35.00000,2.00000 L36.00000,2.00000 L37.00000,2.00000 L38.00000,2.00000 L39.00000,2.00000 L40.00000,2.00000 L41.00000,2.00000 L42.00000,2.00000 L43.00000,2.00000 L44.00000,2.00000 L45.00000,2.00000 L46.00000,2.00000 L47.00000,2.00000 L48.00000,2.00000 L49.00000,2.00000 L50.00000,2.00000 L51.00000,2.00000 L52.00000,2.00000 L53.00000,2.00000 L54.00000,2.00000 L55.00000,2.00000 L56.00000,2.00000 L57.00000,2.00000 L58.00000,2.00000 L59.00000,2.00000 L60.00000,2.00000 L61.00000,2.00000 L62.00000,2.00000 L63.00000,2.00000 L64.00000,2.00000 L65.00000,2.00000 L66.00000,2.00000 L67.00000,2.00000 L68.00000,2.00000 L69.00000,2.00000 L70.00000,2.00000 L71.00000,2.00000 L72.00000,2.00000 L73.00000,2.00000 L74.00000,2.00000 L75.00000,2.00000 L76.00000,2.00000 L77.00000,2.00000 L78.00000,2.00000 L79.00000,2.00000 L80.00000,2.00000 L81.00000,2.00000 L82.00000,2.00000 L83.00000,2.00000 L84.00000,2.00000 L85.00000,2.00000 L86.00000,2.00000 L87.00000,2.00000 L88.00000,2.00000 L89.00000,2.00000 L90.00000,2.00000 L91.00000,2.00000 L92.00000,2.00000 L93.00000,2.00000 L94.00000,2.00000 L95.00000,2.00000 L96.00000,2.00000 L97.00000,2.00000 L98.00000,2.00000 L99.00000,2.00000 L100.00000,2.00000 L101.00000,2.00000 L102.00000,2.00000 L102.33334,3.00000 L102.66666,4.00000 L103.00000,5.00000 L103.33334,6.00000 L103.66666,7.00000 L104.00000,8.00000 L104.33334,9.00000 L104.66666,10.00000 L105.00000,11.00000 L105.33334,12.00000 L105.66666,13.00000 L106.00000,14.00000 L106.33334,15.00000 L106.66666,16.00000 L107.00000,17.00000 L107.33334,18.00000 L107.66666,19.00000 L108.00000,20.00000 L108.33334,21.00000 L108.66666,22.00000 L109.00000,23.00000 L109.33334,24.00000 L109.66666,25.00000 L110.00000,26.00000 L110.33334,27.00000 L110.66666,28.00000 L111.00000,29.00000 L111.33334,30.00000 L111.66666,31.00000 L112.00000,32.00000 L112.33334,33.00000 L112.66666,34.00000 L113.00000,35.00000 L113.33334,36.00000 L113.66666,37.00000 L114.00000,38.00000 L114.33334,39.00000 L114.66666,40.00000 L115.00000,41.00000 L115.33334,42.00000 L115.66666,43.00000 L116.00000,44.00000 L116.33334,45.00000 L116.66666,46.00000 L117.00000,47.00000 L117.33334,48.00000 L117.66666,49.00000 L118.00000,50.00000 L118.33334,51.00000 L118.66666,52.00000 L119.00000,53.00000 L119.33334,54.00000 L119.66666,55.00000 L120.00000,56.00000 L120.33334,57.00000 L120.66666,58.00000 L121.00000,59.00000 L121.33334,60.00000 L121.66666,61.00000 L122.00000,62.00000 L122.33334,63.00000 L122.66666,64.00000 L123.00000,65.00000 L123.33334,66.00000 L123.66666,67.00000 L124.00000,68.00000 L124.33334,69.00000 L124.66666,70.00000 L125.00000,71.00000 L125.33334,72.00000 L125.66666,73.00000 L126.00000,74.00000 L126.33334,75.00000 L126.66666,76.00000 L127.00000,77.00000 L127.33334,78.00000 L127.66666,79.00000 L128.00000,80.00000 L128.33333,81.00000 L128.66667,82.00000 L129.00000,83.00000 L129.33333,84.00000 L129.66667,85.00000 L129.04784,86.00000 L129.00000,86.04608 L128.00000,86.99087 L127.99014,87.00000 L127.00000,87.90134 L126.88933,88.00000 L126.00000,88.77963 L125.74310,89.00000 L125.00000,89.62729 L124.54842,90.00000 L124.00000,90.44572 "/>

<script>
let svgs = document.children[0];
let paths = Array.from(svgs.children).filter(function(c) {
    var orig = c.style.stroke;
    c.onmouseover = function() {
        c.style.stroke = "rgb(0, 0, 255)";
    };
    c.onmouseout = function () {
        c.style.stroke = orig;
    };
    c.onclick = function () {
        svgs.removeChild()
    }
});

for (let path of paths) {
    console.log(path);
}
</script></svg>