<svg xmlns="http://www.w3.org/2000/svg">
    <path fill-rule="evenodd" style="fill: none; stroke: rgb(0, 0, 0); stroke-width: 0.2;" d="M2.24,26.00 L2.33,25.00 M2.27,27.00 L2.24,26.00 M2.33,25.00 L2.43,24.00 M2.43,24.00 L2.54,23.00 M2.54,23.00 L2.67,22.00 M2.67,22.00 L2.81,21.00 M2.81,21.00 L2.97,20.00 M2.97,20.00 L3.00,19.80 M3.00,19.80 L3.14,19.00 M3.00,27.50 L2.27,27.00 M3.14,19.00 L3.32,18.00 M3.32,18.00 L3.52,17.00 M3.52,17.00 L3.73,16.00 M3.73,16.00 L3.95,15.00 M3.95,15.00 L4.00,14.80 M4.00,14.80 L4.19,14.00 M4.00,28.00 L3.00,27.50 M4.19,14.00 L4.45,13.00 M4.45,13.00 L4.72,12.00 M4.72,12.00 L5.00,11.00 M5.00,11.00 L5.30,10.00 M5.00,28.50 L4.00,28.00 M5.30,10.00 L5.61,9.00 M5.61,9.00 L5.94,8.00 M5.94,8.00 L6.00,7.84 M6.00,7.84 L6.29,7.00 M6.00,29.00 L5.00,28.50 M6.29,7.00 L6.65,6.00 M6.65,6.00 L7.00,5.08 M7.00,5.08 L7.03,5.00 M7.00,29.50 L6.00,29.00 M7.03,5.00 L7.42,4.00 M7.42,4.00 L7.83,3.00 M7.83,3.00 L8.00,2.61 M8.00,2.61 L9.00,2.00 M8.00,30.00 L7.00,29.50 M9.00,2.00 L10.00,2.00 M9.00,30.50 L8.00,30.00 M10.00,2.00 L11.00,2.00 M10.00,31.00 L9.00,30.50 M11.00,2.00 L12.00,2.00 M11.00,31.50 L10.00,31.00 M12.00,2.00 L13.00,2.00 M12.00,32.00 L11.00,31.50 M13.00,2.00 L14.00,2.00 M13.00,32.50 L12.00,32.00 M14.00,2.00 L15.00,2.00 M14.00,33.00 L13.00,32.50 M15.00,2.00 L16.00,2.00 M15.00,33.50 L14.00,33.00 M16.00,2.00 L17.00,2.00 M16.00,34.00 L15.00,33.50 M17.00,2.00 L18.00,2.00 M17.00,34.50 L16.00,34.00 M18.00,2.00 L19.00,2.00 M18.00,35.00 L17.00,34.50 M19.00,2.00 L20.00,2.00 M19.00,35.50 L18.00,35.00 M20.00,2.00 L21.00,2.00 M20.00,36.00 L19.00,35.50 M21.00,2.00 L22.00,2.00 M21.00,36.50 L20.00,36.00 M22.00,2.00 L23.00,2.00 M22.00,37.00 L21.00,36.50 M23.00,2.00 L24.00,2.00 M23.00,37.50 L22.00,37.00 M24.00,2.00 L25.00,2.00 M24.00,38.00 L23.00,37.50 M25.00,2.00 L26.00,2.00 M25.00,38.50 L24.00,38.00 M26.00,2.00 L27.00,2.00 M26.00,39.00 L25.00,38.50 M27.00,2.00 L28.00,2.00 M27.00,39.50 L26.00,39.00 M28.00,2.00 L29.00,2.00 M28.00,40.00 L27.00,39.50 M29.00,2.00 L30.00,2.00 M29.00,40.50 L28.00,40.00 M30.00,2.00 L31.00,2.00 M30.00,41.00 L29.00,40.50 M31.00,2.00 L32.00,2.00 M31.00,41.50 L30.00,41.00 M32.00,2.00 L33.00,2.00 M32.00,42.00 L31.00,41.50 M33.00,2.00 L34.00,2.00 M33.00,42.50 L32.00,42.00 M34.00,2.00 L35.00,2.00 M34.00,43.00 L33.00,42.50 M35.00,2.00 L36.00,2.00 M35.00,43.50 L34.00,43.00 M36.00,2.00 L37.00,2.00 M36.00,44.00 L35.00,43.50 M37.00,2.00 L38.00,2.00 M37.00,44.50 L36.00,44.00 M38.00,2.00 L39.00,2.00 M38.00,45.00 L37.00,44.50 M39.00,2.00 L40.00,2.00 M39.00,45.50 L38.00,45.00 M40.00,2.00 L41.00,2.00 M40.00,46.00 L39.00,45.50 M41.00,2.00 L42.00,2.00 M41.00,46.50 L40.00,46.00 M42.00,2.00 L43.00,2.00 M42.00,47.00 L41.00,46.50 M43.00,2.00 L44.00,2.00 M43.00,47.50 L42.00,47.00 M44.00,2.00 L45.00,2.00 M44.00,48.00 L43.00,47.50 M45.00,2.00 L46.00,2.00 M45.00,48.50 L44.00,48.00 M46.00,2.00 L47.00,2.00 M46.00,49.00 L45.00,48.50 M47.00,2.00 L48.00,2.00 M47.00,49.50 L46.00,49.00 M48.00,2.00 L49.00,2.00 M48.00,50.00 L47.00,49.50 M49.00,2.00 L50.00,2.00 M49.00,50.50 L48.00,50.00 M50.00,2.00 L51.00,2.00 M50.00,51.00 L49.00,50.50 M51.00,2.00 L52.00,2.00 M51.00,51.50 L50.00,51.00 M52.00,2.00 L53.00,2.00 M52.00,52.00 L51.00,51.50 M53.00,53.00 L52.00,52.00 M53.00,2.00 L54.00,2.00 M53.00,53.00 L53.00,53.00 M54.00,2.00 L55.00,2.00 M54.00,54.00 L53.00,53.00 M55.00,2.00 L56.00,2.00 M55.00,55.00 L54.00,54.00 M56.00,2.00 L57.00,2.00 M56.00,56.00 L55.00,55.00 M57.00,57.00 L56.00,56.00 M57.00,2.00 L58.00,2.00 M57.00,57.00 L57.00,57.00 M58.00,58.00 L57.00,57.00 M58.00,2.00 L59.00,2.00 M58.00,58.00 L58.00,58.00 M59.00,59.00 L58.00,58.00 M59.00,2.00 L60.00,2.00 M59.00,59.00 L59.00,59.00 M60.00,2.00 L61.00,2.00 M60.00,60.00 L59.00,59.00 M61.00,2.00 L62.00,2.00 M61.00,61.00 L60.00,60.00 M62.00,2.00 L63.00,2.00 M62.00,62.00 L61.00,61.00 M63.00,63.00 L62.00,62.00 M63.00,2.00 L64.00,2.00 M63.00,63.00 L63.00,63.00 M64.00,64.00 L63.00,63.00 M64.00,2.00 L65.00,2.00 M64.00,64.00 L64.00,64.00 M65.00,65.00 L64.00,64.00 M65.00,2.00 L66.00,2.00 M65.00,65.00 L65.00,65.00 M66.00,2.00 L67.00,2.00 M66.00,66.00 L65.00,65.00 M67.00,2.00 L68.00,2.00 M67.00,67.00 L66.00,66.00 M68.00,2.00 L69.00,2.00 M68.00,68.00 L67.00,67.00 M69.00,69.00 L68.00,68.00 M69.00,2.00 L70.00,2.00 M69.00,69.00 L69.00,69.00 M70.00,70.00 L69.00,69.00 M70.00,2.00 L71.00,2.00 M70.00,70.00 L70.00,70.00 M71.00,71.00 L70.00,70.00 M71.00,2.00 L72.00,2.00 M71.00,71.00 L71.00,71.00 M72.00,2.00 L73.00,2.00 M72.00,72.00 L71.00,71.00 M73.00,2.00 L74.00,2.00 M73.00,73.00 L72.00,72.00 M74.00,2.00 L75.00,2.00 M74.00,74.00 L73.00,73.00 M75.00,75.00 L74.00,74.00 M75.00,2.00 L76.00,2.00 M75.00,75.00 L75.00,75.00 M76.00,76.00 L75.00,75.00 M76.00,2.00 L77.00,2.00 M76.00,76.00 L76.00,76.00 M77.00,77.00 L76.00,76.00 M77.00,2.00 L78.00,2.00 M77.00,77.00 L77.00,77.00 M78.00,2.00 L79.00,2.00 M78.00,78.00 L77.00,77.00 M79.00,2.00 L80.00,2.00 M79.00,79.00 L78.00,78.00 M80.00,2.00 L81.00,2.00 M80.00,80.00 L79.00,79.00 M81.00,2.00 L82.00,2.00 M81.00,81.00 L80.00,80.00 M82.00,2.00 L83.00,2.00 M82.00,82.00 L81.00,81.00 M83.00,2.00 L84.00,2.00 M83.00,83.00 L82.00,82.00 M84.00,2.00 L85.00,2.00 M84.00,84.00 L83.00,83.00 M85.00,2.00 L86.00,2.00 M85.00,85.00 L84.00,84.00 M86.00,2.00 L87.00,2.00 M86.00,86.00 L85.00,85.00 M87.00,2.00 L88.00,2.00 M87.00,87.00 L86.00,86.00 M88.00,2.00 L89.00,2.00 M88.00,88.00 L87.00,87.00 M89.00,2.00 L90.00,2.00 M89.00,89.00 L88.00,88.00 M90.00,2.00 L91.00,2.00 M90.00,90.00 L89.00,89.00 M91.00,2.00 L92.00,2.00 M91.00,91.00 L90.00,90.00 M92.00,2.00 L93.00,2.00 M92.00,92.00 L91.00,91.00 M93.00,2.00 L94.00,2.00 M93.00,93.00 L92.00,92.00 M94.00,2.00 L95.00,2.00 M94.00,94.00 L93.00,93.00 M95.00,2.00 L96.00,2.00 M95.00,95.00 L94.00,94.00 M96.00,2.00 L97.00,2.00 M96.00,96.00 L95.00,95.00 M97.00,2.00 L98.00,2.00 M97.00,97.00 L96.00,96.00 M98.00,2.00 L99.00,2.00 M98.00,98.00 L97.00,97.00 M99.00,2.00 L100.00,2.00 M99.00,99.00 L98.00,98.00 M100.00,2.00 L101.00,2.00 M100.00,100.00 L99.00,99.00 M101.00,2.00 L102.00,2.00 M101.00,101.00 L100.00,100.00 M102.00,2.00 L102.33,3.00 M102.00,102.00 L101.00,101.00 M102.33,3.00 L102.67,4.00 M102.67,4.00 L103.00,5.00 M103.00,5.00 L103.33,6.00 M103.00,102.35 L102.00,102.00 M103.33,6.00 L103.67,7.00 M103.67,7.00 L104.00,8.00 M103.92,102.00 L103.00,102.35 M104.00,8.00 L104.33,9.00 M104.00,101.97 L103.92,102.00 M104.33,9.00 L104.67,10.00 M104.67,10.00 L105.00,11.00 M105.00,11.00 L105.33,12.00 M105.00,101.58 L104.00,101.97 M105.33,12.00 L105.67,13.00 M105.67,13.00 L106.00,14.00 M106.00,14.00 L106.33,15.00 M106.00,101.17 L105.00,101.58 M106.33,15.00 L106.67,16.00 M106.39,101.00 L106.00,101.17 M106.67,16.00 L107.00,17.00 M107.00,17.00 L107.33,18.00 M107.00,100.74 L106.39,101.00 M107.33,18.00 L107.67,19.00 M107.67,19.00 L108.00,20.00 M108.00,20.00 L108.33,21.00 M108.00,100.29 L107.00,100.74 M108.33,21.00 L108.67,22.00 M108.64,100.00 L108.00,100.29 M108.67,22.00 L109.00,23.00 M109.00,23.00 L109.33,24.00 M109.00,99.83 L108.64,100.00 M109.33,24.00 L109.67,25.00 M109.67,25.00 L110.00,26.00 M110.00,26.00 L110.33,27.00 M110.00,99.35 L109.00,99.83 M110.33,27.00 L110.67,28.00 M110.67,28.00 L111.00,29.00 M110.70,99.00 L110.00,99.35 M111.00,29.00 L111.33,30.00 M111.00,98.85 L110.70,99.00 M111.33,30.00 L111.67,31.00 M111.67,31.00 L112.00,32.00 M112.00,32.00 L112.33,33.00 M112.00,98.33 L111.00,98.85 M112.33,33.00 L112.67,34.00 M112.62,98.00 L112.00,98.33 M112.67,34.00 L113.00,35.00 M113.00,35.00 L113.33,36.00 M113.00,97.79 L112.62,98.00 M113.33,36.00 L113.67,37.00 M113.67,37.00 L114.00,38.00 M114.00,38.00 L114.33,39.00 M114.00,97.24 L113.00,97.79 M114.33,39.00 L114.67,40.00 M114.41,97.00 L114.00,97.24 M114.67,40.00 L115.00,41.00 M115.00,41.00 L115.33,42.00 M115.00,96.66 L114.41,97.00 M115.33,42.00 L115.67,43.00 M115.67,43.00 L116.00,44.00 M116.00,44.00 L116.33,45.00 M116.00,96.06 L115.00,96.66 M116.10,96.00 L116.00,96.06 M116.33,45.00 L116.67,46.00 M116.67,46.00 L117.00,47.00 M117.00,47.00 L117.33,48.00 M117.00,95.44 L116.10,96.00 M117.33,48.00 L117.67,49.00 M117.67,49.00 L118.00,50.00 M117.69,95.00 L117.00,95.44 M118.00,50.00 L118.33,51.00 M118.00,94.80 L117.69,95.00 M118.33,51.00 L118.67,52.00 M118.67,52.00 L119.00,53.00 M119.00,53.00 L119.33,54.00 M119.00,94.14 L118.00,94.80 M119.20,94.00 L119.00,94.14 M119.33,54.00 L119.67,55.00 M119.67,55.00 L120.00,56.00 M120.00,56.00 L120.33,57.00 M120.00,93.45 L119.20,94.00 M120.33,57.00 L120.67,58.00 M120.63,93.00 L120.00,93.45 M120.67,58.00 L121.00,59.00 M121.00,59.00 L121.33,60.00 M121.00,92.74 L120.63,93.00 M121.33,60.00 L121.67,61.00 M121.67,61.00 L122.00,62.00 M122.00,62.00 L122.33,63.00 M122.00,92.00 L121.00,92.74 M122.33,63.00 L122.67,64.00 M122.67,64.00 L123.00,65.00 M123.00,65.00 L123.33,66.00 M123.00,91.24 L122.00,92.00 M123.30,91.00 L123.00,91.24 M123.33,66.00 L123.67,67.00 M123.67,67.00 L124.00,68.00 M124.00,68.00 L124.33,69.00 M124.00,90.45 L123.30,91.00 M124.33,69.00 L124.67,70.00 M124.55,90.00 L124.00,90.45 M124.67,70.00 L125.00,71.00 M125.00,71.00 L125.33,72.00 M125.00,89.63 L124.55,90.00 M125.33,72.00 L125.67,73.00 M125.67,73.00 L126.00,74.00 M125.74,89.00 L125.00,89.63 M126.00,74.00 L126.33,75.00 M126.00,88.78 L125.74,89.00 M126.33,75.00 L126.67,76.00 M126.67,76.00 L127.00,77.00 M126.89,88.00 L126.00,88.78 M127.00,77.00 L127.33,78.00 M127.00,87.90 L126.89,88.00 M127.33,78.00 L127.67,79.00 M127.67,79.00 L128.00,80.00 M127.99,87.00 L127.00,87.90 M128.00,80.00 L128.33,81.00 M128.00,86.99 L127.99,87.00 M128.33,81.00 L128.67,82.00 M128.67,82.00 L129.00,83.00 M129.00,83.00 L129.33,84.00 M129.00,86.05 L128.00,86.99 M129.05,86.00 L129.00,86.05 M129.33,84.00 L129.67,85.00 M129.67,85.00 L129.05,86.00 "/>

<script>
let paths = Array.from(document.children[0].children).filter(function(c) {
    var orig = c.style.stroke;
    c.onmouseover = function() {
        c.style.stroke = "rgb(0, 0, 255)";
    };
    c.onmouseout = function () {
        c.style.stroke = orig;
    };
});

for (let path of paths) {
    console.log(path);
}
</script></svg>