<svg xmlns="http://www.w3.org/2000/svg">
<path d="M89,81.286995 L88.41745,82 L88,82.493935 L87.56185,83 L87,83.62843 L86.65918,84 L86,84.69712 L85.70571,85 L85,85.70571 L84.69712,86 L84,86.65918 L83.62843,87 L83,87.56185 L82.493935,88 L82,88.41745 L81.286995,89 L81,89.22923 L80,90 L80,90 L79,90.73 L78.61539,91 L78,91.423706 L77.127884,92 L77,92.08299 L76,92.70766 L75.51108,93 L75,93.30067 L74,93.863106 L73.745575,94 L73,94.39538 L72,94.89969 L71.79141,95 L71,95.37575 L70,95.8255 L69.59069,96 L69,96.24903 L68,96.64729 L67.057335,97 L67,97.02125 L66,97.37063 L65,97.69676 L64,98 L64,98 L63,98.28029 L62,98.5385 L61,98.77491 L60,98.98979 L59.947468,99 L59,99.18328 L58,99.35579 L57,99.50752 L56,99.638664 L55,99.74935 L54,99.83974 L53,99.90991 L52,99.959984 L51,99.99 L50.010002,99 L50.04002,98 L50.090084,97 L50.160267,96 L50.25065,95 L50.36134,94 L50.492474,93 L50.644207,92 L50.81672,91 L51,90.052536 L51.01021,90 L51.225094,89 L51.461506,88 L51.719707,87 L52,86 L52.303238,85 L52.62937,84 L52.978752,83 L53,82.942665 L53.352703,82 L53.750965,81 L54,80.40931 L54.174496,80 L54.62425,79 L55,78.20859 L55.10031,78 L55.60462,77 L56,76.254425 L56.13689,76 L56.69933,75 L57,74.48892 L57.292347,74 L57.917007,73 L58,72.872116 L58.57629,72 L59,71.38461 L59.269997,71 L60,70 L60.770767,69 L61,68.713005 L61.58255,68 L62,67.506065 L62.43815,67 L63,66.37157 L63.340816,66 L64,65.30288 L64.29429,65 L65,64.29429 L65.30288,64 L66,63.340816 L66.37157,63 L67,62.43815 L67.506065,62 L68,61.58255 L68.713005,61 L69,60.770767 L70,60 L71,59.269997 L71.38461,59 L72,58.57629 L72.872116,58 L73,57.917007 L74,57.292347 L74.48892,57 L75,56.69933 L76,56.13689 L76.254425,56 L77,55.60462 L78,55.10031 L78.20859,55 L79,54.62425 L80,54.174496 L80.40931,54 L81,53.750965 L82,53.352703 L82.942665,53 L83,52.978752 L84,52.62937 L85,52.303238 L86,52 L87,51.719707 L88,51.461506 L89,51.225094 L90,51.01021 L90.052536,51 L91,50.81672 L92,50.644207 L93,50.492474 L94,50.36134 L95,50.25065 L96,50.160267 L97,50.090084 L98,50.04002 L99,50.010002 L99.99,51 L99.959984,52 L99.90991,53 L99.83974,54 L99.74935,55 L99.638664,56 L99.50752,57 L99.35579,58 L99.18328,59 L99,59.947468 L98.98979,60 L98.77491,61 L98.5385,62 L98.28029,63 L98,64 L98,64 L97.69676,65 L97.37063,66 L97.02125,67 L97,67.057335 L96.64729,68 L96.24903,69 L96,69.59069 L95.8255,70 L95.37575,71 L95,71.79141 L94.89969,72 L94.39538,73 L94,73.745575 L93.863106,74 L93.30067,75 L93,75.51108 L92.70766,76 L92.08299,77 L92,77.127884 L91.423706,78 L91,78.61539 L90.73,79 L90,80 L90,80 L89.22923,81 L89,81.286995" fill="none" stroke="black" stroke-width="3"/>
</svg>