<svg xmlns="http://www.w3.org/2000/svg">
<path d="M89,81.286995 L84.69712,86 L81,89.22923 L77,92.08299 L73,94.39538 L68,96.64729 L63,98.28029 L58,99.35579 L53,99.90991 L51,99.99 L50.010002,99 L50.36134,94 L51.225094,89 L52.62937,84 L55.10031,78 L57.292347,74 L60,70 L64.29429,65 L69,60.770767 L73,57.917007 L77,55.60462 L82,53.352703 L87,51.719707 L92,50.644207 L97,50.090084 L99,50.010002 L99.99,51 L99.638664,56 L98.77491,61 L97.37063,66 L94.89969,72 L92.70766,76 L90,80 L89.22923,81 L89,81.286995" fill="none" stroke="black" stroke-width="3"/>
</svg>