<svg xmlns="http://www.w3.org/2000/svg">
    <path fill-rule="evenodd" d="M40,32.28699493408203 L40.22923278808594,32 L41,31 L43.7076530456543,27 L45.899688720703125,23 L48.370628356933594,17 L49.774906158447266,12 L50.6386604309082,7 L50.98999786376953,2 L50,1.0100003480911255 L48,1.0900850296020508 L43,1.6442079544067383 L38,2.7197093963623047 L33,4.35270357131958 L28,6.6046223640441895 L24,8.917009353637695 L20,11.770768165588379 L15.294290542602539,16 L11,21 L8.292346000671387,25 L6.1003098487854,29 L3.629373550415039,35 L2.225092887878418,40 L1.3613383769989014,45 L1.0100003480911255,50 L2,50.98999786376953 L4,50.909915924072266 L9,50.35579299926758 L14,49.28029251098633 L19,47.64729690551758 L24,45.39537811279297 L28,43.08299255371094 L32,40.22923278808594 L35.69711685180664,37 L40,32.28699493408203 "/>
</svg>