<svg xmlns="http://www.w3.org/2000/svg">
    <path fill-rule="evenodd" d="M89,81.28699493408203 L89.22923278808594,81 L90,80 L92.70765686035156,76 L94.89968872070313,72 L97.3706283569336,66 L98.77490997314453,61 L99.63866424560547,56 L99.98999786376953,51 L99,50.01000213623047 L97,50.090084075927734 L92,50.64420700073242 L87,51.71970748901367 L82,53.35270309448242 L77,55.60462188720703 L73,57.91700744628906 L69,60.77076721191406 L64.2942886352539,65 L60,70 L57.2923469543457,74 L55.100311279296875,78 L52.629371643066406,84 L51.225093841552734,89 L50.3613395690918,94 L50.01000213623047,99 L51,99.98999786376953 L53,99.909912109375 L58,99.35578918457031 L63,98.28028869628906 L68,96.64729309082031 L73,94.39537811279297 L77,92.08299255371094 L81,89.22923278808594 L84.6971206665039,86 L89,81.28699493408203 "/>
</svg>