<svg xmlns="http://www.w3.org/2000/svg">
    <path fill-rule="evenodd" d="M1.01,50.00 L2.00,50.99 L4.00,50.91 L9.00,50.36 L14.00,49.28 L19.00,47.65 L24.00,45.40 L28.00,43.08 L32.29,40.00 L33.00,39.42 L36.71,36.00 L41.00,31.00 L43.71,27.00 L45.90,23.00 L48.37,17.00 L49.77,12.00 L50.64,7.00 L50.99,2.00 L50.00,1.01 L48.00,1.09 L43.00,1.64 L38.00,2.72 L33.00,4.35 L28.00,6.60 L24.00,8.92 L20.00,11.77 L15.29,16.00 L11.00,21.00 L8.29,25.00 L6.10,29.00 L3.63,35.00 L2.23,40.00 L1.36,45.00 L1.01,50.00 "/>
</svg>