<svg xmlns="http://www.w3.org/2000/svg">
    <path fill-rule="evenodd" style="fill: rgb(0, 0, 0); stroke: none; stroke-width: none;" d="M2.01,51.00 L3.00,51.99 L4.00,51.96 L5.00,51.91 L6.00,51.84 L7.00,51.75 L8.00,51.64 L9.00,51.51 L10.00,51.36 L11.00,51.18 L11.95,51.00 L11.95,51.00 L12.00,50.99 L12.00,50.99 L13.00,50.77 L14.00,50.54 L15.00,50.28 L16.00,50.00 L17.00,49.70 L18.00,49.37 L19.00,49.02 L19.00,49.02 L19.06,49.00 L19.06,49.00 L20.00,48.65 L21.00,48.25 L21.59,48.00 L22.00,47.83 L23.00,47.38 L23.79,47.00 L23.79,47.00 L24.00,46.90 L24.00,46.90 L25.00,46.40 L25.75,46.00 L26.00,45.86 L27.00,45.30 L27.51,45.00 L28.00,44.71 L29.00,44.08 L29.00,44.08 L29.13,44.00 L29.13,44.00 L30.00,43.42 L30.62,43.00 L31.00,42.73 L32.00,42.00 L33.00,41.23 L33.29,41.00 L34.00,40.42 L34.49,40.00 L35.00,39.56 L35.63,39.00 L36.00,38.66 L36.70,38.00 L37.00,37.71 L37.71,37.00 L38.00,36.70 L38.66,36.00 L39.00,35.63 L39.56,35.00 L40.00,34.49 L40.42,34.00 L41.00,33.29 L41.23,33.00 L42.00,32.00 L42.73,31.00 L43.00,30.62 L43.42,30.00 L44.00,29.13 L44.00,29.13 L44.08,29.00 L44.08,29.00 L44.71,28.00 L45.00,27.51 L45.30,27.00 L45.86,26.00 L46.00,25.75 L46.40,25.00 L46.90,24.00 L46.90,24.00 L47.00,23.79 L47.00,23.79 L47.38,23.00 L47.83,22.00 L48.00,21.59 L48.25,21.00 L48.65,20.00 L49.00,19.06 L49.00,19.06 L49.02,19.00 L49.02,19.00 L49.37,18.00 L49.70,17.00 L50.00,16.00 L50.28,15.00 L50.54,14.00 L50.77,13.00 L50.99,12.00 L50.99,12.00 L51.00,11.95 L51.00,11.95 L51.18,11.00 L51.36,10.00 L51.51,9.00 L51.64,8.00 L51.75,7.00 L51.84,6.00 L51.91,5.00 L51.96,4.00 L51.99,3.00 L51.00,2.01 L50.00,2.04 L49.00,2.09 L48.00,2.16 L47.00,2.25 L46.00,2.36 L45.00,2.49 L44.00,2.64 L43.00,2.82 L42.05,3.00 L42.05,3.00 L42.00,3.01 L42.00,3.01 L41.00,3.23 L40.00,3.46 L39.00,3.72 L38.00,4.00 L37.00,4.30 L36.00,4.63 L35.00,4.98 L35.00,4.98 L34.94,5.00 L34.94,5.00 L34.00,5.35 L33.00,5.75 L32.41,6.00 L32.00,6.17 L31.00,6.62 L30.21,7.00 L30.21,7.00 L30.00,7.10 L30.00,7.10 L29.00,7.60 L28.25,8.00 L28.25,8.00 L28.00,8.14 L28.00,8.14 L27.00,8.70 L26.49,9.00 L26.00,9.29 L25.00,9.92 L25.00,9.92 L24.87,10.00 L24.87,10.00 L24.00,10.58 L23.38,11.00 L23.00,11.27 L22.00,12.00 L21.00,12.77 L20.71,13.00 L20.00,13.58 L19.51,14.00 L19.00,14.44 L18.37,15.00 L18.00,15.34 L17.30,16.00 L17.00,16.29 L16.29,17.00 L16.00,17.30 L15.34,18.00 L15.00,18.37 L14.44,19.00 L14.00,19.51 L13.58,20.00 L13.00,20.71 L12.77,21.00 L12.00,22.00 L11.27,23.00 L11.00,23.38 L10.58,24.00 L10.00,24.87 L10.00,24.87 L9.92,25.00 L9.92,25.00 L9.29,26.00 L9.00,26.49 L8.70,27.00 L8.14,28.00 L8.00,28.25 L7.60,29.00 L7.10,30.00 L7.10,30.00 L7.00,30.21 L7.00,30.21 L6.62,31.00 L6.17,32.00 L6.00,32.41 L5.75,33.00 L5.35,34.00 L5.00,34.94 L5.00,34.94 L4.98,35.00 L4.98,35.00 L4.63,36.00 L4.30,37.00 L4.00,38.00 L3.72,39.00 L3.46,40.00 L3.23,41.00 L3.01,42.00 L3.01,42.00 L3.00,42.05 L3.00,42.05 L2.82,43.00 L2.64,44.00 L2.49,45.00 L2.36,46.00 L2.25,47.00 L2.16,48.00 L2.09,49.00 L2.04,50.00 L2.01,51.00 "/>

<script>
let svgs = document.children[0];
let paths = Array.from(svgs.children).filter(function(c) {
    var orig = c.style.stroke;
    c.onmouseover = function() {
        c.style.stroke = "rgb(0, 0, 255)";
    };
    c.onmouseout = function () {
        c.style.stroke = orig;
    };
    c.onclick = function () {
        svgs.removeChild()
    }
});

for (let path of paths) {
    console.log(path);
}
</script></svg>