<svg xmlns="http://www.w3.org/2000/svg">
    <path fill-rule="evenodd" d="M1.00,21.00 L1.10,23.00 L1.40,25.00 L1.92,27.00 L2.67,29.00 L3.68,31.00 L5.00,33.00 L6.72,35.00 L9.00,37.00 L10.47,38.00 L109.00,87.39 L109.72,88.00 L207.77,186.00 L210.00,187.70 L212.00,188.86 L214.00,189.73 L217.00,190.60 L219.00,190.90 L221.00,191.00 L223.00,190.90 L225.00,190.60 L227.00,190.08 L229.00,189.33 L231.00,188.32 L234.00,186.20 L236.00,184.23 L237.70,182.00 L238.86,180.00 L239.73,178.00 L240.36,176.00 L240.77,174.00 L240.97,172.00 L240.97,170.00 L240.77,168.00 L240.36,166.00 L239.00,161.75 L238.75,161.00 L189.33,13.00 L188.32,11.00 L186.20,8.00 L184.23,6.00 L182.00,4.30 L180.00,3.14 L178.00,2.27 L176.00,1.64 L174.00,1.23 L172.00,1.03 L19.00,1.10 L17.00,1.40 L15.00,1.92 L13.00,2.67 L11.00,3.68 L8.00,5.80 L6.00,7.77 L4.30,10.00 L3.14,12.00 L2.27,14.00 L1.40,17.00 L1.10,19.00 L1.00,21.00 "/>
</svg>