<svg xmlns="http://www.w3.org/2000/svg">
    <path fill-rule="evenodd" d="M1,21 L1.1002742052078247,23 L1.4043307304382324,25 L1.921379566192627,27 L2.670646905899048,29 L3.6810362339019775,31 L5,33 L6.720545768737793,35 L9,37 L10.472914695739746,38 L109,87.38928985595703 L109.71572875976563,88 L207.77488708496094,186 L210,187.70135498046875 L212,188.85986328125 L214,189.73434448242188 L217,190.59567260742188 L219,190.89971923828125 L221,191 L223,190.89971923828125 L225,190.59567260742188 L227,190.07861328125 L229,189.329345703125 L231,188.3189697265625 L234,186.196533203125 L236,184.22511291503906 L237.70135498046875,182 L238.85986328125,180 L239.73434448242188,178 L240.3645477294922,176 L240.77362060546875,174 L240.9749755859375,172 L240.9749755859375,170 L240.77362060546875,168 L240.3645477294922,166 L239,161.75442504882813 L238.74851989746094,161 L189.329345703125,13 L188.3189697265625,11 L186.196533203125,8 L184.22511291503906,6 L182,4.298637390136719 L180,3.140133857727051 L178,2.2656586170196533 L176,1.6354527473449707 L174,1.226383090019226 L172,1.025017261505127 L19,1.1002742052078247 L17,1.4043307304382324 L15,1.921379566192627 L13,2.670647144317627 L11,3.6810362339019775 L8,5.803462505340576 L6,7.774888038635254 L4.298637390136719,10 L3.140133857727051,12 L2.265658378601074,14 L1.4043307304382324,17 L1.1002742052078247,19 L1,21 "/>
</svg>