<svg xmlns="http://www.w3.org/2000/svg">
    <path fill-rule="evenodd" d="M260,217.3189697265625 L260.527099609375,217 L263,215.196533203125 L265,213.22511291503906 L266.70135498046875,211 L267.85986328125,209 L268.7343444824219,207 L269.3645324707031,205 L269.77362060546875,203 L269.9749755859375,201 L269.9749755859375,199 L269.77362060546875,197 L269.3645324707031,195 L218.329345703125,42 L217.3189697265625,40 L215.196533203125,37 L213.22511291503906,35 L211,33.29863739013672 L209,32.140132904052734 L207,31.26565933227539 L205,30.635452270507813 L203,30.226383209228516 L201,30.02501678466797 L48,30.10027503967285 L46,30.40433120727539 L44,30.92137908935547 L42,31.67064666748047 L40,32.68103790283203 L37,34.803462982177734 L35,36.77488708496094 L33.29863739013672,39 L32.140132904052734,41 L31.26565933227539,43 L30.40433120727539,46 L30.10027503967285,48 L30,50 L30.10027503967285,52 L30.40433120727539,54 L30.92137908935547,56 L31.67064666748047,58 L32.68103790283203,60 L34,62 L35.72054672241211,64 L38,66 L39.47291564941406,67 L138,116.38928985595703 L138.71572875976563,117 L236.77488708496094,215 L239,216.70135498046875 L241,217.85986328125 L243,218.73434448242188 L246,219.59567260742188 L248,219.89971923828125 L250,220 L252,219.89971923828125 L254,219.59567260742188 L256,219.07861328125 L258,218.329345703125 L260,217.3189697265625 "/>
</svg>