<svg xmlns="http://www.w3.org/2000/svg">
<path d="M260,217.31897 L258,218.32935 L256,219.07861 L254,219.59567 L252,219.89972 L250,220 L248,219.89972 L246,219.59567 L243,218.73434 L241,217.85986 L239,216.70135 L236.77489,215 L138.71573,117 L138,116.38929 L39.472916,67 L38,66 L35.720547,64 L34,62 L32.681038,60 L31.670647,58 L30.92138,56 L30.404331,54 L30.100275,52 L30,50 L30.100275,48 L30.404331,46 L31.26566,43 L32.140133,41 L33.298637,39 L35,36.774887 L37,34.803463 L40,32.681038 L42,31.670647 L44,30.92138 L46,30.404331 L48,30.100275 L201,30.025017 L203,30.226383 L205,30.635452 L207,31.26566 L209,32.140133 L211,33.298637 L213.22511,35 L215.19653,37 L217.31897,40 L218.32935,42 L269.36453,195 L269.77362,197 L269.97498,199 L269.97498,201 L269.77362,203 L269.36453,205 L268.73434,207 L267.85986,209 L266.70135,211 L265,213.22511 L263,215.19653 L260.5271,217 L260,217.31897" fill="none" stroke="black" stroke-width="3"/>
</svg>