<svg xmlns="http://www.w3.org/2000/svg">
<path d="M260,217.31897 L259,217.85986 L258.7081,218 L258,218.32935 L257,218.73434 L256.2322,219 L256,219.07861 L255,219.36455 L254,219.59567 L253,219.77362 L252,219.89972 L251,219.97498 L250,220 L249,219.97498 L248,219.89972 L247,219.77362 L246,219.59567 L245,219.36455 L244,219.07861 L243.76779,219 L243,218.73434 L242,218.32935 L241.2919,218 L241,217.85986 L240,217.31897 L239.47292,217 L239,216.70135 L238,216 L237,215.19653 L236.77489,215 L236,214.27945 L235.71573,214 L235,213.28427 L234.71573,213 L234,212.28427 L233.71573,212 L233,211.28427 L232.71573,211 L232,210.28427 L231.71573,210 L231,209.28427 L230.71573,209 L230,208.28427 L229.71573,208 L229,207.28427 L228.71573,207 L228,206.28427 L227.71573,206 L227,205.28427 L226.71573,205 L226,204.28427 L225.71573,204 L225,203.28427 L224.71573,203 L224,202.28427 L223.71573,202 L223,201.28427 L222.71573,201 L222,200.28427 L221.71573,200 L221,199.28427 L220.71573,199 L220,198.28427 L219.71573,198 L219,197.28427 L218.71573,197 L218,196.28427 L217.71573,196 L217,195.28427 L216.71573,195 L216,194.28427 L215.71573,194 L215,193.28427 L214.71573,193 L214,192.28427 L213.71573,192 L213,191.28427 L212.71573,191 L212,190.28427 L211.71573,190 L211,189.28427 L210.71573,189 L210,188.28427 L209.71573,188 L209,187.28427 L208.71573,187 L208,186.28427 L207.71573,186 L207,185.28427 L206.71573,185 L206,184.28427 L205.71573,184 L205,183.28427 L204.71573,183 L204,182.28427 L203.71573,182 L203,181.28427 L202.71573,181 L202,180.28427 L201.71573,180 L201,179.28427 L200.71573,179 L200,178.28427 L199.71573,178 L199,177.28427 L198.71573,177 L198,176.28427 L197.71573,176 L197,175.28427 L196.71573,175 L196,174.28427 L195.71573,174 L195,173.28427 L194.71573,173 L194,172.28427 L193.71573,172 L193,171.28427 L192.71573,171 L192,170.28427 L191.71573,170 L191,169.28427 L190.71573,169 L190,168.28427 L189.71573,168 L189,167.28427 L188.71573,167 L188,166.28427 L187.71573,166 L187,165.28427 L186.71573,165 L186,164.28427 L185.71573,164 L185,163.28427 L184.71573,163 L184,162.28427 L183.71573,162 L183,161.28427 L182.71573,161 L182,160.28427 L181.71573,160 L181,159.28427 L180.71573,159 L180,158.28427 L179.71573,158 L179,157.28427 L178.71573,157 L178,156.28427 L177.71573,156 L177,155.28427 L176.71573,155 L176,154.28427 L175.71573,154 L175,153.28427 L174.71573,153 L174,152.28427 L173.71573,152 L173,151.28427 L172.71573,151 L172,150.28427 L171.71573,150 L171,149.28427 L170.71573,149 L170,148.28427 L169.71573,148 L169,147.28427 L168.71573,147 L168,146.28427 L167.71573,146 L167,145.28427 L166.71573,145 L166,144.28427 L165.71573,144 L165,143.28427 L164.71573,143 L164,142.28427 L163.71573,142 L163,141.28427 L162.71573,141 L162,140.28427 L161.71573,140 L161,139.28426 L160.71574,139 L160,138.28426 L159.71574,138 L159,137.28426 L158.71573,137 L158,136.28427 L157.71573,136 L157,135.28427 L156.71573,135 L156,134.28427 L155.71573,134 L155,133.28426 L154.71574,133 L154,132.28426 L153.71574,132 L153,131.28426 L152.71573,131 L152,130.28427 L151.71573,130 L151,129.28427 L150.71573,129 L150,128.28427 L149.71573,128 L149,127.28426 L148.71574,127 L148,126.28426 L147.71574,126 L147,125.28426 L146.71574,125 L146,124.28427 L145.71573,124 L145,123.28427 L144.71573,123 L144,122.28427 L143.71573,122 L143,121.28426 L142.71574,121 L142,120.28426 L141.71574,120 L141,119.28426 L140.71574,119 L140,118.28427 L139.71573,118 L139,117.28427 L138.71573,117 L138,116.38929 L137.27864,116 L137,115.86068 L136,115.36068 L135.27864,115 L135,114.86068 L134,114.36068 L133.27864,114 L133,113.86068 L132,113.36068 L131.27864,113 L131,112.86068 L130,112.36068 L129.27864,112 L129,111.86068 L128,111.36068 L127.27864,111 L127,110.86068 L126,110.36068 L125.27864,110 L125,109.86068 L124,109.36068 L123.27864,109 L123,108.86068 L122,108.36068 L121.27864,108 L121,107.86068 L120,107.36068 L119.27864,107 L119,106.86068 L118,106.36068 L117.27864,106 L117,105.86068 L116,105.36068 L115.27864,105 L115,104.86068 L114,104.36068 L113.27864,104 L113,103.86068 L112,103.36068 L111.27864,103 L111,102.86068 L110,102.36068 L109.27864,102 L109,101.86068 L108,101.36068 L107.27864,101 L107,100.86068 L106,100.36068 L105.27864,100 L105,99.86068 L104,99.36068 L103.27864,99 L103,98.86068 L102,98.36068 L101.27864,98 L101,97.86068 L100,97.36068 L99.27864,97 L99,96.86068 L98,96.36068 L97.27864,96 L97,95.86068 L96,95.36068 L95.27864,95 L95,94.86068 L94,94.36068 L93.27864,94 L93,93.86068 L92,93.36068 L91.27864,93 L91,92.86068 L90,92.36068 L89.27864,92 L89,91.86068 L88,91.36068 L87.27864,91 L87,90.86068 L86,90.36068 L85.27864,90 L85,89.86068 L84,89.36068 L83.27864,89 L83,88.86068 L82,88.36068 L81.27864,88 L81,87.86068 L80,87.36068 L79.27864,87 L79,86.86068 L78,86.36068 L77.27864,86 L77,85.86068 L76,85.36068 L75.27864,85 L75,84.86068 L74,84.36068 L73.27864,84 L73,83.86068 L72,83.36068 L71.27864,83 L71,82.86068 L70,82.36068 L69.27864,82 L69,81.86068 L68,81.36068 L67.27864,81 L67,80.86068 L66,80.36068 L65.27864,80 L65,79.86068 L64,79.36068 L63.27864,79 L63,78.86068 L62,78.36068 L61.27864,78 L61,77.86068 L60,77.36068 L59.27864,77 L59,76.86068 L58,76.36068 L57.27864,76 L57,75.86068 L56,75.36068 L55.27864,75 L55,74.86068 L54,74.36068 L53.27864,74 L53,73.86068 L52,73.36068 L51.27864,73 L51,72.86068 L50,72.36068 L49.278637,72 L49,71.86068 L48,71.36068 L47.27864,71 L47,70.86068 L46,70.36068 L45.27864,70 L45,69.86068 L44,69.36068 L43.278637,69 L43,68.86068 L42,68.36068 L41.27864,68 L41,67.85986 L40,67.31896 L39.472916,67 L39,66.70136 L38,66 L37,65.19654 L36.774887,65 L36,64.27946 L35.720547,64 L35,63.225113 L34.803463,63 L34,62 L33.298637,61 L33,60.527084 L32.681038,60 L32.140133,59 L32,58.7081 L31.670647,58 L31.26566,57 L31,56.23221 L30.92138,56 L30.635452,55 L30.404331,54 L30.226383,53 L30.100275,52 L30.025017,51 L30,50 L30.025017,49 L30.100275,48 L30.226383,47 L30.404331,46 L30.635452,45 L30.92138,44 L31,43.76779 L31.26566,43 L31.670647,42 L32,41.2919 L32.140133,41 L32.681038,40 L33,39.472916 L33.298637,39 L34,38 L34.803463,37 L35,36.774887 L35.720547,36 L36,35.720547 L36.774887,35 L37,34.803463 L38,34 L39,33.298637 L39.472916,33 L40,32.681038 L41,32.140133 L41.2919,32 L42,31.670647 L43,31.26566 L43.76779,31 L44,30.92138 L45,30.635452 L46,30.404331 L47,30.226383 L48,30.100275 L49,30.025017 L50,30 L51,30 L52,30 L53,30 L54,30 L55,30 L56,30 L57,30 L58,30 L59,30 L60,30 L61,30 L62,30 L63,30 L64,30 L65,30 L66,30 L67,30 L68,30 L69,30 L70,30 L71,30 L72,30 L73,30 L74,30 L75,30 L76,30 L77,30 L78,30 L79,30 L80,30 L81,30 L82,30 L83,30 L84,30 L85,30 L86,30 L87,30 L88,30 L89,30 L90,30 L91,30 L92,30 L93,30 L94,30 L95,30 L96,30 L97,30 L98,30 L99,30 L100,30 L101,30 L102,30 L103,30 L104,30 L105,30 L106,30 L107,30 L108,30 L109,30 L110,30 L111,30 L112,30 L113,30 L114,30 L115,30 L116,30 L117,30 L118,30 L119,30 L120,30 L121,30 L122,30 L123,30 L124,30 L125,30 L126,30 L127,30 L128,30 L129,30 L130,30 L131,30 L132,30 L133,30 L134,30 L135,30 L136,30 L137,30 L138,30 L139,30 L140,30 L141,30 L142,30 L143,30 L144,30 L145,30 L146,30 L147,30 L148,30 L149,30 L150,30 L151,30 L152,30 L153,30 L154,30 L155,30 L156,30 L157,30 L158,30 L159,30 L160,30 L161,30 L162,30 L163,30 L164,30 L165,30 L166,30 L167,30 L168,30 L169,30 L170,30 L171,30 L172,30 L173,30 L174,30 L175,30 L176,30 L177,30 L178,30 L179,30 L180,30 L181,30 L182,30 L183,30 L184,30 L185,30 L186,30 L187,30 L188,30 L189,30 L190,30 L191,30 L192,30 L193,30 L194,30 L195,30 L196,30 L197,30 L198,30 L199,30 L200,30 L201,30.025017 L202,30.100275 L203,30.226383 L204,30.404331 L205,30.635452 L206,30.92138 L206.23221,31 L207,31.26566 L208,31.670647 L208.7081,32 L209,32.140133 L210,32.681038 L210.52708,33 L211,33.298637 L212,34 L212,34 L213,34.803463 L213.22511,35 L214,35.720547 L214.27945,36 L215,36.774887 L215.19653,37 L216,38 L216,38 L216.70135,39 L217,39.472916 L217.31897,40 L217.85986,41 L218,41.2919 L218.32935,42 L218.73434,43 L219,43.76187 L219.08186,44 L219.41518,45 L219.74852,46 L220,46.75443 L220.08186,47 L220.41518,48 L220.74852,49 L221,49.75443 L221.08186,50 L221.41518,51 L221.74852,52 L222,52.75443 L222.08186,53 L222.41518,54 L222.74852,55 L223,55.75443 L223.08186,56 L223.41518,57 L223.74852,58 L224,58.754433 L224.08185,59 L224.41518,60 L224.74852,61 L225,61.75443 L225.08186,62 L225.41518,63 L225.74852,64 L226,64.754425 L226.08186,65 L226.41518,66 L226.74852,67 L227,67.75443 L227.08185,68 L227.41518,69 L227.74852,70 L228,70.75443 L228.08185,71 L228.41518,72 L228.74852,73 L229,73.754425 L229.08186,74 L229.41518,75 L229.74852,76 L230,76.754425 L230.08186,77 L230.41518,78 L230.74852,79 L231,79.75443 L231.08185,80 L231.41518,81 L231.74852,82 L232,82.754425 L232.08186,83 L232.41518,84 L232.74852,85 L233,85.75443 L233.08185,86 L233.41518,87 L233.74852,88 L234,88.754425 L234.08186,89 L234.41518,90 L234.74852,91 L235,91.75443 L235.08185,92 L235.41518,93 L235.74852,94 L236,94.754425 L236.08186,95 L236.41518,96 L236.74852,97 L237,97.754425 L237.08186,98 L237.41518,99 L237.74852,100 L238,100.75443 L238.08185,101 L238.41518,102 L238.74852,103 L239,103.754425 L239.08186,104 L239.41518,105 L239.74852,106 L240,106.754425 L240.08186,107 L240.41518,108 L240.74852,109 L241,109.75443 L241.08185,110 L241.41518,111 L241.74852,112 L242,112.754425 L242.08186,113 L242.41518,114 L242.74852,115 L243,115.754425 L243.08186,116 L243.41518,117 L243.74852,118 L244,118.754425 L244.08186,119 L244.41518,120 L244.74852,121 L245,121.75443 L245.08186,122 L245.41518,123 L245.74852,124 L246,124.75443 L246.08186,125 L246.41518,126 L246.74852,127 L247,127.75443 L247.08185,128 L247.41518,129 L247.74852,130 L248,130.75446 L248.08185,131 L248.41518,132 L248.74852,133 L249,133.75443 L249.08186,134 L249.41518,135 L249.74852,136 L250,136.75443 L250.08185,137 L250.41518,138 L250.74852,139 L251,139.75446 L251.08185,140 L251.41518,141 L251.74852,142 L252,142.75443 L252.08186,143 L252.41518,144 L252.74852,145 L253,145.75443 L253.08186,146 L253.41518,147 L253.74852,148 L254,148.75446 L254.08185,149 L254.41518,150 L254.74852,151 L255,151.75443 L255.08186,152 L255.41518,153 L255.74852,154 L256,154.75443 L256.08185,155 L256.4152,156 L256.74854,157 L257,157.75446 L257.08185,158 L257.4152,159 L257.74854,160 L258,160.75443 L258.08185,161 L258.4152,162 L258.74854,163 L259,163.75443 L259.08185,164 L259.4152,165 L259.74854,166 L260,166.75446 L260.08185,167 L260.4152,168 L260.74854,169 L261,169.75443 L261.08185,170 L261.4152,171 L261.74854,172 L262,172.75443 L262.08185,173 L262.4152,174 L262.74854,175 L263,175.75443 L263.08185,176 L263.4152,177 L263.74854,178 L264,178.75446 L264.08185,179 L264.4152,180 L264.74854,181 L265,181.75443 L265.08185,182 L265.4152,183 L265.74854,184 L266,184.75443 L266.08185,185 L266.4152,186 L266.74854,187 L267,187.75446 L267.08185,188 L267.4152,189 L267.74854,190 L268,190.75443 L268.08185,191 L268.4152,192 L268.74854,193 L269,193.76048 L269.0786,194 L269.36453,195 L269.59567,196 L269.77362,197 L269.89972,198 L269.97498,199 L270,200 L269.97498,201 L269.89972,202 L269.77362,203 L269.59567,204 L269.36453,205 L269.0786,206 L269,206.23221 L268.73434,207 L268.32935,208 L268,208.7081 L267.85986,209 L267.31897,210 L267,210.52708 L266.70135,211 L266,212 L266,212 L265.19653,213 L265,213.22511 L264.27945,214 L264,214.27945 L263.2251,215 L263,215.19653 L262,216 L262,216 L261,216.70135 L260.5271,217 L260,217.31897" fill="none" stroke="black" stroke-width="3"/>
</svg>