<svg xmlns="http://www.w3.org/2000/svg">
    <path fill-rule="evenodd" style="fill: none; stroke: rgb(0, 0, 0); stroke-width: 0.2;" d="M162.00,90.00 L162.00,91.00 M76.54,94.00 L76.16,93.00 M101.34,16.00 L102.00,15.66 M162.00,21.00 L162.00,22.00 M46.54,4.00 L46.16,3.00 M11.00,57.84 L10.00,57.46 M94.00,46.54 L95.00,46.80 M27.46,100.00 L27.84,101.00 M71.00,106.16 L71.34,106.00 M162.00,12.00 L162.00,13.00 M33.00,16.16 L34.00,16.54 M46.54,40.00 L46.80,39.00 M76.16,11.00 L76.54,10.00 M10.00,46.54 L11.00,46.16 M71.00,27.84 L70.00,27.46 M87.46,70.00 L87.84,71.00 M76.00,11.34 L76.16,11.00 M2.00,157.00 L2.00,156.00 M162.00,68.00 L162.00,69.00 M31.00,45.00 L32.00,45.66 M100.00,87.46 L99.00,87.20 M160.00,2.00 L161.00,2.00 M39.00,46.80 L40.00,46.54 M162.00,63.00 L162.00,64.00 M2.00,148.00 L2.00,147.00 M91.00,105.00 L92.00,105.66 M87.00,37.00 L87.05,38.00 M45.66,72.00 L46.00,71.34 M2.00,135.00 L2.00,134.00 M97.00,107.00 L98.00,106.95 M29.00,61.00 L28.34,62.00 M60.00,29.86 L59.86,30.00 M104.14,14.00 L105.00,13.00 M36.00,76.95 L37.00,77.00 M48.00,162.00 L47.00,162.00 M2.00,126.00 L2.00,125.00 M162.00,48.00 L162.00,49.00 M59.86,60.00 L59.00,61.00 M103.00,162.00 L102.00,162.00 M114.00,162.00 L113.00,162.00 M88.34,102.00 L89.00,103.00 M150.00,2.00 L151.00,2.00 M67.00,77.00 L68.00,76.95 M5.00,27.20 L4.00,27.46 M17.00,67.00 L16.95,66.00 M28.34,62.00 L28.00,62.66 M67.00,162.00 L66.00,162.00 M4.00,16.54 L5.00,16.80 M162.00,34.00 L162.00,35.00 M96.00,57.05 L95.00,57.20 M73.00,89.00 L72.00,88.34 M102.00,28.34 L101.34,28.00 M111.00,162.00 L110.00,162.00 M46.80,5.00 L46.54,4.00 M162.00,117.00 L162.00,118.00 M4.00,57.46 L3.00,57.84 M95.00,46.80 L96.00,46.95 M16.95,68.00 L17.00,67.00 M64.00,106.54 L65.00,106.80 M139.00,2.00 L140.00,2.00 M28.00,92.66 L27.84,93.00 M46.80,39.00 L46.95,38.00 M144.00,162.00 L143.00,162.00 M3.00,46.16 L4.00,46.54 M64.00,27.46 L63.00,27.84 M76.95,38.00 L77.00,37.00 M72.00,28.34 L71.34,28.00 M2.00,16.00 L3.00,16.16 M27.46,10.00 L27.84,11.00 M41.34,88.00 L41.00,87.84 M132.00,2.00 L133.00,2.00 M27.84,3.00 L27.46,4.00 M162.00,9.00 L162.00,10.00 M71.00,57.84 L70.00,57.46 M2.00,57.00 L2.00,56.00 M162.00,161.00 L162.00,162.00 M87.46,100.00 L87.84,101.00 M76.16,33.00 L76.00,32.66 M161.00,2.00 L162.00,2.00 M2.00,25.00 L2.00,24.00 M87.20,95.00 L87.05,96.00 M57.20,5.00 L57.05,6.00 M27.00,7.00 L27.05,8.00 M40.00,162.00 L39.00,162.00 M30.00,59.86 L29.86,60.00 M2.00,21.00 L2.00,20.00 M162.00,56.00 L162.00,57.00 M57.05,38.00 L57.20,39.00 M91.00,162.00 L90.00,162.00 M106.00,62.66 L105.66,62.00 M86.00,162.00 L85.00,162.00 M122.00,2.00 L123.00,2.00 M61.00,59.00 L60.00,59.86 M162.00,131.00 L162.00,132.00 M2.00,51.00 L2.00,50.00 M40.00,27.46 L39.00,27.20 M29.00,73.00 L29.86,74.00 M61.00,105.00 L62.00,105.66 M2.00,120.00 L2.00,119.00 M90.00,44.14 L91.00,45.00 M105.66,92.00 L105.00,91.00 M162.00,125.00 L162.00,126.00 M2.00,123.00 L2.00,122.00 M89.86,14.00 L90.00,14.14 M15.00,162.00 L14.00,162.00 M54.00,2.00 L55.00,2.00 M44.14,74.00 L45.00,73.00 M105.00,73.00 L105.66,72.00 M21.00,2.00 L22.00,2.00 M116.00,162.00 L115.00,162.00 M2.00,114.00 L2.00,113.00 M14.14,90.00 L14.00,89.86 M58.34,102.00 L59.00,103.00 M96.00,76.95 L97.00,77.00 M74.14,44.00 L75.00,43.00 M59.00,103.00 L59.86,104.00 M2.00,109.00 L2.00,108.00 M14.00,14.14 L14.14,14.00 M162.00,118.00 L162.00,119.00 M42.00,105.66 L43.00,105.00 M106.95,96.00 L106.80,95.00 M16.95,96.00 L16.80,95.00 M137.00,162.00 L136.00,162.00 M64.00,57.46 L63.00,57.84 M2.00,83.00 L2.00,82.00 M162.00,105.00 L162.00,106.00 M76.95,68.00 L77.00,67.00 M12.00,162.00 L11.00,162.00 M133.00,2.00 L134.00,2.00 M76.80,65.00 L76.54,64.00 M16.54,40.00 L16.80,39.00 M57.46,4.00 L57.20,5.00 M33.00,162.00 L32.00,162.00 M27.20,35.00 L27.05,36.00 M41.34,106.00 L42.00,105.66 M16.16,33.00 L16.00,32.66 M46.54,10.00 L46.80,9.00 M162.00,162.00 L161.00,162.00 M87.84,3.00 L87.46,4.00 M101.34,28.00 L101.00,27.84 M76.00,162.00 L75.00,162.00 M126.00,2.00 L127.00,2.00 M62.00,58.34 L61.00,59.00 M162.00,75.00 L162.00,76.00 M16.16,71.00 L16.54,70.00 M33.00,27.84 L32.66,28.00 M27.00,37.00 L27.05,38.00 M41.34,16.00 L42.00,15.66 M62.00,105.66 L62.66,106.00 M16.00,71.34 L16.16,71.00 M87.20,39.00 L87.46,40.00 M101.00,57.84 L100.00,57.46 M92.66,76.00 L93.00,76.16 M162.00,69.00 L162.00,70.00 M87.05,36.00 L87.00,37.00 M16.00,2.00 L17.00,2.00 M162.00,140.00 L162.00,141.00 M46.00,41.34 L46.16,41.00 M39.00,57.20 L38.00,57.05 M100.00,46.54 L101.00,46.16 M25.00,2.00 L26.00,2.00 M106.00,162.00 L105.00,162.00 M40.00,46.54 L41.00,46.16 M162.00,135.00 L162.00,136.00 M9.00,76.80 L10.00,76.54 M45.66,92.00 L45.00,91.00 M90.00,59.86 L89.86,60.00 M57.00,97.00 L57.05,98.00 M7.00,162.00 L6.00,162.00 M162.00,126.00 L162.00,127.00 M36.00,87.05 L35.00,87.20 M68.00,46.95 L69.00,46.80 M104.14,90.00 L104.00,89.86 M105.00,31.00 L104.14,30.00 M52.00,162.00 L51.00,162.00 M44.00,89.86 L43.00,89.00 M162.00,49.00 L162.00,50.00 M6.00,106.95 L7.00,107.00 M74.14,74.00 L75.00,73.00 M67.00,87.00 L66.00,87.05 M107.00,2.00 L108.00,2.00 M150.00,162.00 L149.00,162.00 M96.00,27.05 L95.00,27.20 M74.00,59.86 L73.00,59.00 M6.00,27.05 L5.00,27.20 M46.80,95.00 L46.54,94.00 M28.34,72.00 L29.00,73.00 M42.00,162.00 L41.00,162.00 M12.00,28.34 L11.34,28.00 M46.80,9.00 L46.95,8.00 M162.00,106.00 L162.00,107.00 M76.95,96.00 L76.80,95.00 M102.00,45.66 L103.00,45.00 M106.80,35.00 L106.54,34.00 M147.00,162.00 L146.00,162.00 M57.84,33.00 L57.46,34.00 M12.00,75.66 L13.00,75.00 M28.00,101.34 L28.34,102.00 M65.00,106.80 L66.00,106.95 M143.00,2.00 L144.00,2.00 M35.00,16.80 L36.00,16.95 M57.84,71.00 L58.00,71.34 M11.34,46.00 L12.00,45.66 M73.00,15.00 L74.00,14.14 M72.00,45.66 L73.00,45.00 M88.00,62.66 L87.84,63.00 M76.54,4.00 L76.16,3.00 M11.00,87.84 L10.00,87.46 M162.00,84.00 L162.00,85.00 M27.84,11.00 L28.00,11.34 M101.34,88.00 L101.00,87.84 M162.00,14.00 L162.00,15.00 M33.00,46.16 L34.00,46.54 M162.00,79.00 L162.00,80.00 M10.00,76.54 L11.00,76.16 M92.66,106.00 L93.00,106.16 M87.20,65.00 L87.05,66.00 M46.16,63.00 L46.00,62.66 M2.00,151.00 L2.00,150.00 M92.00,88.34 L91.00,89.00 M162.00,70.00 L162.00,71.00 M30.00,74.14 L31.00,75.00 M69.00,46.80 L70.00,46.54 M99.00,162.00 L98.00,162.00 M38.00,76.95 L39.00,76.80 M46.00,2.00 L47.00,2.00 M162.00,57.00 L162.00,58.00 M75.00,91.00 L74.14,90.00 M2.00,142.00 L2.00,141.00 M162.00,128.00 L162.00,129.00 M61.00,75.00 L62.00,75.66 M98.00,106.95 L99.00,106.80 M122.00,162.00 L121.00,162.00 M90.00,14.14 L91.00,15.00 M2.00,137.00 L2.00,136.00 M29.00,91.00 L28.34,92.00 M36.00,106.95 L37.00,107.00 M2.00,128.00 L2.00,127.00 M162.00,50.00 L162.00,51.00 M98.00,57.05 L97.00,57.00 M74.14,90.00 L74.00,89.86 M104.00,29.86 L103.00,29.00 M119.00,162.00 L118.00,162.00 M47.00,2.00 L48.00,2.00 M2.00,131.00 L2.00,130.00 M97.00,47.00 L98.00,46.95 M21.00,162.00 L20.00,162.00 M59.86,74.00 L60.00,74.14 M115.00,2.00 L116.00,2.00 M36.00,16.95 L37.00,17.00 M47.00,67.00 L46.95,66.00 M152.00,162.00 L151.00,162.00 M5.00,46.80 L6.00,46.95 M59.00,162.00 L58.00,162.00 M80.00,162.00 L79.00,162.00 M67.00,17.00 L68.00,16.95 M4.00,87.46 L3.00,87.84 M16.95,98.00 L17.00,97.00 M102.00,105.66 L103.00,105.00 M140.00,2.00 L141.00,2.00 M28.00,162.00 L27.00,162.00 M141.00,162.00 L140.00,162.00 M65.00,57.20 L64.00,57.46 M3.00,76.16 L4.00,76.54 M88.00,92.66 L87.84,93.00 M73.00,29.00 L72.00,28.34 M162.00,16.00 L162.00,17.00 M2.00,159.00 L2.00,158.00 M87.84,93.00 L87.46,94.00 M62.66,28.00 L62.00,28.34 M27.20,39.00 L27.46,40.00 M42.00,15.66 L43.00,15.00 M27.46,34.00 L27.20,35.00 M2.00,47.00 L2.00,46.00 M162.00,72.00 L162.00,73.00 M62.00,75.66 L62.66,76.00 M93.00,16.16 L94.00,16.54 M126.00,162.00 L125.00,162.00 M87.20,9.00 L87.46,10.00 M162.00,2.00 L162.00,3.00 M70.00,76.54 L71.00,76.16 M162.00,147.00 L162.00,148.00 M2.00,17.00 L2.00,16.00 M27.00,67.00 L27.05,68.00 M41.34,28.00 L41.00,27.84 M30.00,89.86 L29.86,90.00 M70.00,162.00 L69.00,162.00 M2.00,18.00 L2.00,17.00 M162.00,58.00 L162.00,59.00 M87.46,40.00 L87.84,41.00 M75.00,103.00 L75.66,102.00 M106.16,71.00 L106.54,70.00 M162.00,141.00 L162.00,142.00 M2.00,48.00 L2.00,47.00 M91.00,29.00 L90.00,29.86 M25.00,162.00 L24.00,162.00 M57.05,66.00 L57.00,67.00 M40.00,57.46 L39.00,57.20 M106.00,71.34 L106.16,71.00 M29.86,104.00 L30.00,104.14 M124.00,162.00 L123.00,162.00 M2.00,56.00 L2.00,55.00 M57.00,162.00 L56.00,162.00 M98.00,76.95 L99.00,76.80 M84.00,162.00 L83.00,162.00 M60.00,162.00 L59.00,162.00 M2.00,125.00 L2.00,124.00 M15.00,31.00 L14.14,30.00 M44.00,104.14 L44.14,104.00 M105.00,103.00 L105.66,102.00 M22.00,2.00 L23.00,2.00 M113.00,162.00 L112.00,162.00 M59.86,30.00 L59.00,31.00 M2.00,116.00 L2.00,115.00 M14.00,162.00 L13.00,162.00 M88.34,72.00 L89.00,73.00 M109.00,2.00 L110.00,2.00 M2.00,86.00 L2.00,85.00 M77.00,97.00 L76.95,96.00 M14.00,44.14 L14.14,44.00 M58.00,2.00 L57.84,3.00 M43.00,15.00 L44.00,14.14 M16.95,6.00 L16.80,5.00 M13.00,29.00 L12.00,28.34 M57.84,41.00 L58.00,41.34 M88.00,101.34 L88.34,102.00 M106.80,39.00 L106.95,38.00 M72.00,105.66 L73.00,105.00 M134.00,2.00 L135.00,2.00 M63.00,76.16 L64.00,76.54 M162.00,27.00 L162.00,28.00 M13.00,75.00 L14.00,74.14 M35.00,27.20 L34.00,27.46 M27.20,65.00 L27.05,66.00 M63.00,162.00 L62.00,162.00 M16.54,64.00 L16.16,63.00 M76.95,8.00 L77.00,7.00 M106.54,70.00 L106.80,69.00 M94.00,87.46 L93.00,87.84 M162.00,85.00 L162.00,86.00 M76.80,5.00 L76.54,4.00 M16.16,101.00 L16.54,100.00 M162.00,92.00 L162.00,93.00 M46.54,34.00 L46.16,33.00 M33.00,57.84 L32.66,58.00 M101.34,46.00 L102.00,45.66 M27.05,96.00 L27.00,97.00 M128.00,162.00 L127.00,162.00 M41.34,46.00 L42.00,45.66 M162.00,151.00 L162.00,152.00 M16.00,101.34 L16.16,101.00 M46.16,71.00 L46.54,70.00 M87.46,64.00 L87.20,65.00 M76.00,62.66 L75.66,62.00 M57.20,95.00 L57.05,96.00 M15.66,32.00 L15.00,31.00 M162.00,142.00 L162.00,143.00 M38.00,87.05 L37.00,87.00 M100.00,76.54 L101.00,76.16 M26.00,2.00 L27.00,2.00 M106.00,32.66 L105.66,32.00 M57.05,8.00 L57.20,9.00 M39.00,76.80 L40.00,76.54 M162.00,129.00 L162.00,130.00 M8.00,106.95 L9.00,106.80 M85.00,162.00 L84.00,162.00 M105.66,12.00 L106.00,11.34 M98.00,27.05 L97.00,27.00 M81.00,2.00 L82.00,2.00 M8.00,27.05 L7.00,27.00 M48.00,2.00 L49.00,2.00 M36.00,162.00 L35.00,162.00 M44.00,162.00 L43.00,162.00 M7.00,17.00 L8.00,16.95 M47.00,7.00 L46.95,6.00 M88.34,92.00 L88.00,92.66 M104.00,44.14 L104.14,44.00 M107.00,37.00 L106.95,36.00 M155.00,162.00 L154.00,162.00 M58.34,32.00 L58.00,32.66 M7.00,57.00 L6.00,57.05 M36.00,27.05 L35.00,27.20 M67.00,107.00 L68.00,106.95 M151.00,2.00 L152.00,2.00 M44.00,29.86 L43.00,29.00 M58.34,72.00 L59.00,73.00 M74.14,14.00 L75.00,13.00 M6.00,46.95 L7.00,47.00 M67.00,27.00 L66.00,27.05 M103.00,75.00 L104.00,74.14 M95.00,87.20 L94.00,87.46 M73.00,162.00 L72.00,162.00 M12.00,105.66 L13.00,105.00 M162.00,36.00 L162.00,37.00 M46.80,35.00 L46.54,34.00 M28.34,12.00 L29.00,13.00 M102.00,58.34 L101.34,58.00 M106.80,99.00 L106.95,98.00 M144.00,2.00 L145.00,2.00 M35.00,46.80 L36.00,46.95 M162.00,31.00 L162.00,32.00 M11.34,76.00 L12.00,75.66 M76.95,36.00 L76.80,35.00 M57.46,94.00 L57.20,95.00 M10.00,162.00 L9.00,162.00 M93.00,106.16 L94.00,106.54 M162.00,86.00 L162.00,87.00 M27.46,40.00 L27.84,41.00 M71.00,46.16 L71.34,46.00 M101.00,162.00 L100.00,162.00 M32.66,58.00 L32.00,58.34 M46.16,101.00 L46.54,100.00 M162.00,73.00 L162.00,74.00 M76.00,92.66 L75.66,92.00 M9.00,106.80 L10.00,106.54 M162.00,144.00 L162.00,145.00 M70.00,87.46 L69.00,87.20 M100.00,106.54 L101.00,106.16 M162.00,3.00 L162.00,4.00 M87.46,10.00 L87.84,11.00 M75.66,72.00 L76.00,71.34 M162.00,155.00 L162.00,156.00 M2.00,153.00 L2.00,152.00 M30.00,104.14 L31.00,105.00 M38.00,106.95 L39.00,106.80 M2.00,144.00 L2.00,143.00 M162.00,130.00 L162.00,131.00 M92.66,46.00 L93.00,46.16 M86.00,2.00 L87.00,2.00 M99.00,16.80 L100.00,16.54 M159.00,162.00 L158.00,162.00 M45.66,12.00 L46.00,11.34 M2.00,147.00 L2.00,146.00 M92.00,28.34 L91.00,29.00 M30.00,14.14 L31.00,15.00 M61.00,89.00 L60.00,89.86 M123.00,2.00 L124.00,2.00 M38.00,16.95 L39.00,16.80 M45.66,62.00 L45.00,61.00 M2.00,138.00 L2.00,137.00 M61.00,15.00 L62.00,15.66 M89.86,60.00 L89.00,61.00 M69.00,16.80 L70.00,16.54 M2.00,133.00 L2.00,132.00 M22.00,162.00 L21.00,162.00 M104.00,104.14 L104.14,104.00 M116.00,2.00 L117.00,2.00 M36.00,46.95 L37.00,47.00 M149.00,162.00 L148.00,162.00 M67.00,57.00 L66.00,57.05 M5.00,76.80 L6.00,76.95 M95.00,162.00 L94.00,162.00 M74.14,30.00 L74.00,29.86 M46.95,66.00 L46.80,65.00 M145.00,2.00 L146.00,2.00 M3.00,162.00 L2.00,162.00 M94.00,106.54 L95.00,106.80 M16.95,8.00 L17.00,7.00 M64.00,46.54 L65.00,46.80 M102.00,15.66 L103.00,15.00 M28.00,32.66 L27.84,33.00 M46.54,100.00 L46.80,99.00 M2.00,46.00 L3.00,46.16 M162.00,24.00 L162.00,25.00 M63.00,87.84 L62.66,88.00 M134.00,162.00 L133.00,162.00 M76.80,99.00 L76.95,98.00 M162.00,18.00 L162.00,19.00 M71.34,76.00 L72.00,75.66 M162.00,99.00 L162.00,100.00 M2.00,161.00 L2.00,160.00 M27.20,69.00 L27.46,70.00 M27.46,64.00 L27.20,65.00 M72.00,15.66 L73.00,15.00 M2.00,50.00 L2.00,49.00 M162.00,74.00 L162.00,75.00 M88.00,32.66 L87.84,33.00 M76.00,101.34 L76.16,101.00 M131.00,162.00 L130.00,162.00 M162.00,93.00 L162.00,94.00 M2.00,55.00 L2.00,54.00 M87.84,33.00 L87.46,34.00 M62.00,88.34 L61.00,89.00 M27.05,98.00 L27.20,99.00 M41.34,58.00 L41.00,57.84 M127.00,2.00 L128.00,2.00 M31.00,162.00 L30.00,162.00 M162.00,7.00 L162.00,8.00 M2.00,22.00 L2.00,21.00 M162.00,159.00 L162.00,160.00 M57.20,99.00 L57.46,100.00 M92.66,58.00 L92.00,58.34 M87.05,68.00 L87.20,69.00 M70.00,16.54 L71.00,16.16 M2.00,58.00 L2.00,57.00 M26.00,162.00 L25.00,162.00 M39.00,87.20 L38.00,87.05 M106.00,101.34 L106.16,101.00 M30.00,29.86 L29.86,30.00 M121.00,162.00 L120.00,162.00 M61.00,45.00 L62.00,45.66 M2.00,81.00 L2.00,80.00 M89.86,90.00 L89.00,91.00 M117.00,2.00 L118.00,2.00 M2.00,119.00 L2.00,118.00 M89.00,73.00 L89.86,74.00 M15.00,61.00 L14.14,60.00 M52.00,2.00 L53.00,2.00 M44.14,14.00 L45.00,13.00 M19.00,2.00 L20.00,2.00 M2.00,110.00 L2.00,109.00 M14.14,30.00 L14.00,29.86 M58.34,42.00 L59.00,43.00 M96.00,16.95 L97.00,17.00 M107.00,67.00 L106.95,66.00 M74.00,104.14 L74.14,104.00 M110.00,2.00 L111.00,2.00 M59.00,43.00 L59.86,44.00 M162.00,43.00 L162.00,44.00 M2.00,88.00 L2.00,87.00 M14.14,74.00 L15.00,73.00 M44.00,44.14 L44.14,44.00 M16.95,36.00 L16.80,35.00 M59.00,91.00 L58.34,92.00 M2.00,78.00 L2.00,77.00 M14.00,59.86 L13.00,59.00 M79.00,162.00 L78.00,162.00 M106.95,68.00 L107.00,67.00 M162.00,37.00 L162.00,38.00 M2.00,82.00 L2.00,81.00 M77.00,2.00 L78.00,2.00 M13.00,105.00 L14.00,104.14 M162.00,108.00 L162.00,109.00 M57.84,63.00 L57.46,64.00 M35.00,57.20 L34.00,57.46 M106.80,65.00 L106.54,64.00 M16.80,65.00 L16.54,64.00 M136.00,162.00 L135.00,162.00 M162.00,103.00 L162.00,104.00 M16.54,94.00 L16.16,93.00 M57.46,100.00 L57.84,101.00 M88.00,41.34 L88.34,42.00 M76.54,40.00 L76.80,39.00 M63.00,16.16 L64.00,16.54 M16.16,11.00 L16.54,10.00 M162.00,94.00 L162.00,95.00 M32.66,76.00 L33.00,76.16 M101.34,76.00 L102.00,75.66 M27.20,5.00 L27.05,6.00 M125.00,162.00 L124.00,162.00 M62.00,45.66 L62.66,46.00 M41.00,76.16 L41.34,76.00 M162.00,145.00 L162.00,146.00 M87.05,98.00 L87.20,99.00 M16.00,11.34 L16.16,11.00 M162.00,152.00 L162.00,153.00 M106.16,3.00 L106.00,2.00 M92.66,16.00 L93.00,16.16 M87.00,97.00 L87.05,98.00 M15.66,62.00 L15.00,61.00 M45.66,102.00 L46.00,101.34 M38.00,162.00 L37.00,162.00 M23.00,2.00 L24.00,2.00 M39.00,106.80 L40.00,106.54 M9.00,16.80 L10.00,16.54 M45.66,32.00 L45.00,31.00 M89.86,104.00 L90.00,104.14 M99.00,27.20 L98.00,27.05 M105.66,42.00 L106.00,41.34 M57.00,2.00 L58.00,2.00 M9.00,57.20 L8.00,57.05 M38.00,27.05 L37.00,27.00 M45.00,43.00 L45.66,42.00 M57.00,67.00 L57.05,68.00 M8.00,46.95 L9.00,46.80 M83.00,162.00 L82.00,162.00 M69.00,27.20 L68.00,27.05 M104.14,74.00 L105.00,73.00 M97.00,87.00 L96.00,87.05 M75.00,13.00 L75.66,12.00 M7.00,87.00 L6.00,87.05 M162.00,52.00 L162.00,53.00 M47.00,37.00 L46.95,36.00 M36.00,57.05 L35.00,57.20 M104.00,59.86 L103.00,59.00 M108.00,162.00 L107.00,162.00 M152.00,2.00 L153.00,2.00 M44.00,59.86 L43.00,59.00 M162.00,47.00 L162.00,48.00 M6.00,76.95 L7.00,77.00 M46.95,68.00 L47.00,67.00 M80.00,2.00 L81.00,2.00 M58.00,92.66 L57.84,93.00 M12.00,15.66 L13.00,15.00 M162.00,38.00 L162.00,39.00 M28.00,41.34 L28.34,42.00 M65.00,46.80 L66.00,46.95 M102.00,88.34 L101.34,88.00 M106.80,9.00 L106.95,8.00 M57.84,11.00 L58.00,11.34 M34.00,76.54 L35.00,76.80 M162.00,25.00 L162.00,26.00 M72.00,75.66 L73.00,75.00 M11.00,106.16 L11.34,106.00 M162.00,96.00 L162.00,97.00 M71.34,88.00 L71.00,87.84 M106.54,4.00 L106.16,3.00 M162.00,19.00 L162.00,20.00 M88.00,2.00 L87.84,3.00 M76.16,63.00 L76.00,62.66 M11.00,27.84 L10.00,27.46 M27.46,70.00 L27.84,71.00 M32.66,88.00 L32.00,88.34 M10.00,16.54 L11.00,16.16 M162.00,146.00 L162.00,147.00 M94.00,57.46 L93.00,57.84 M87.20,5.00 L87.05,6.00 M101.00,16.16 L101.34,16.00 M162.00,13.00 L162.00,14.00 M46.16,3.00 L46.00,2.00 M10.00,57.46 L9.00,57.20 M93.00,46.16 L94.00,46.54 M32.00,15.66 L32.66,16.00 M70.00,106.54 L71.00,106.16 M162.00,4.00 L162.00,5.00 M32.00,162.00 L31.00,162.00 M46.16,41.00 L46.54,40.00 M76.00,32.66 L75.66,32.00 M2.00,154.00 L2.00,153.00 M70.00,27.46 L69.00,27.20 M91.00,75.00 L92.00,75.66 M75.66,12.00 L76.00,11.34 M2.00,149.00 L2.00,148.00 M162.00,60.00 L162.00,61.00 M30.00,44.14 L31.00,45.00 M99.00,87.20 L98.00,87.05 M124.00,2.00 L125.00,2.00 M38.00,46.95 L39.00,46.80 M2.00,140.00 L2.00,139.00 M97.00,162.00 L96.00,162.00 M84.00,2.00 L85.00,2.00 M51.00,2.00 L52.00,2.00 M153.00,2.00 L154.00,2.00 M2.00,127.00 L2.00,126.00 M96.00,106.95 L97.00,107.00 M19.00,162.00 L18.00,162.00 M59.86,14.00 L60.00,14.14 M104.00,14.14 L104.14,14.00 M35.00,76.80 L36.00,76.95 M46.95,98.00 L47.00,97.00 M4.00,106.54 L5.00,106.80 M162.00,40.00 L162.00,41.00 M59.00,61.00 L58.34,62.00 M102.00,162.00 L101.00,162.00 M110.00,162.00 L109.00,162.00 M78.00,162.00 L77.00,162.00 M146.00,2.00 L147.00,2.00 M66.00,76.95 L67.00,77.00 M162.00,115.00 L162.00,116.00 M4.00,27.46 L3.00,27.84 M16.95,38.00 L17.00,37.00 M28.00,62.66 L27.84,63.00 M66.00,162.00 L65.00,162.00 M3.00,16.16 L4.00,16.54 M162.00,26.00 L162.00,27.00 M95.00,57.20 L94.00,57.46 M72.00,88.34 L71.34,88.00 M139.00,162.00 L138.00,162.00 M162.00,109.00 L162.00,110.00 M3.00,57.84 L2.00,58.00 M16.80,69.00 L16.95,68.00 M63.00,106.16 L64.00,106.54 M135.00,2.00 L136.00,2.00 M27.84,93.00 L27.46,94.00 M162.00,23.00 L162.00,24.00 M2.00,162.00 L2.00,161.00 M63.00,27.84 L62.66,28.00 M94.00,76.54 L95.00,76.80 M76.80,39.00 L76.95,38.00 M71.34,16.00 L72.00,15.66 M27.20,9.00 L27.46,10.00 M41.00,87.84 L40.00,87.46 M128.00,2.00 L129.00,2.00 M32.00,28.34 L31.00,29.00 M161.00,162.00 L160.00,162.00 M70.00,57.46 L69.00,57.20 M162.00,153.00 L162.00,154.00 M87.20,99.00 L87.46,100.00 M76.00,41.34 L76.16,41.00 M157.00,2.00 L158.00,2.00 M2.00,26.00 L2.00,25.00 M90.00,89.86 L89.86,90.00 M23.00,162.00 L22.00,162.00 M57.05,6.00 L57.00,7.00 M39.00,162.00 L38.00,162.00 M29.86,44.00 L30.00,44.14 M2.00,19.00 L2.00,18.00 M57.00,7.00 L57.05,8.00 M98.00,16.95 L99.00,16.80 M105.66,62.00 L105.00,61.00 M82.00,162.00 L81.00,162.00 M118.00,2.00 L119.00,2.00 M60.00,59.86 L59.86,60.00 M162.00,123.00 L162.00,124.00 M2.00,121.00 L2.00,120.00 M45.00,61.00 L44.14,60.00 M20.00,2.00 L21.00,2.00 M60.00,104.14 L61.00,105.00 M2.00,112.00 L2.00,111.00 M15.00,73.00 L15.66,72.00 M89.86,30.00 L89.00,31.00 M105.00,91.00 L104.14,90.00 M162.00,53.00 L162.00,54.00 M2.00,115.00 L2.00,114.00 M89.00,13.00 L89.86,14.00 M14.14,104.00 L15.00,103.00 M58.34,62.00 L58.00,62.66 M44.00,74.14 L44.14,74.00 M107.00,97.00 L106.95,96.00 M17.00,97.00 L16.95,96.00 M112.00,162.00 L111.00,162.00 M2.00,106.00 L3.00,106.16 M162.00,119.00 L162.00,120.00 M14.00,89.86 L13.00,89.00 M58.00,101.34 L58.34,102.00 M95.00,76.80 L96.00,76.95 M74.00,44.14 L74.14,44.00 M65.00,16.80 L66.00,16.95 M2.00,84.00 L2.00,83.00 M13.00,15.00 L14.00,14.14 M162.00,110.00 L162.00,111.00 M34.00,87.46 L33.00,87.84 M106.80,95.00 L106.54,94.00 M16.80,95.00 L16.54,94.00 M133.00,162.00 L132.00,162.00 M63.00,57.84 L62.66,58.00 M162.00,97.00 L162.00,98.00 M16.54,4.00 L16.16,3.00 M76.80,69.00 L76.95,68.00 M129.00,2.00 L130.00,2.00 M94.00,27.46 L93.00,27.84 M76.54,64.00 L76.16,63.00 M16.16,41.00 L16.54,40.00 M46.16,93.00 L46.00,92.66 M32.66,106.00 L33.00,106.16 M27.05,36.00 L27.00,37.00 M41.00,106.16 L41.34,106.00 M16.00,41.34 L16.16,41.00 M46.16,11.00 L46.54,10.00 M162.00,154.00 L162.00,155.00 M87.46,4.00 L87.20,5.00 M101.00,27.84 L100.00,27.46 M76.00,2.00 L77.00,2.00 M106.16,33.00 L106.00,32.66 M57.20,35.00 L57.05,36.00 M162.00,67.00 L162.00,68.00 M16.00,92.66 L15.66,92.00 M32.66,16.00 L33.00,16.16 M24.00,2.00 L25.00,2.00 M41.00,16.16 L41.34,16.00 M57.20,69.00 L57.46,70.00 M15.66,72.00 L16.00,71.34 M87.05,38.00 L87.20,39.00 M100.00,57.46 L99.00,57.20 M92.00,75.66 L92.66,76.00 M162.00,61.00 L162.00,62.00 M87.00,2.00 L88.00,2.00 M9.00,87.20 L8.00,87.05 M162.00,132.00 L162.00,133.00 M45.66,42.00 L46.00,41.34 M38.00,57.05 L37.00,57.00 M99.00,46.80 L100.00,46.54 M106.00,2.00 L107.00,2.00 M45.00,73.00 L45.66,72.00 M162.00,127.00 L162.00,128.00 M8.00,76.95 L9.00,76.80 M51.00,162.00 L50.00,162.00 M89.86,44.00 L90.00,44.14 M55.00,2.00 L56.00,2.00 M6.00,162.00 L5.00,162.00 M162.00,54.00 L162.00,55.00 M35.00,87.20 L34.00,87.46 M67.00,47.00 L68.00,46.95 M104.00,89.86 L103.00,89.00 M107.00,7.00 L106.95,6.00 M58.34,12.00 L59.00,13.00 M43.00,89.00 L42.00,88.34 M162.00,41.00 L162.00,42.00 M5.00,106.80 L6.00,106.95 M74.00,74.14 L74.14,74.00 M162.00,112.00 L162.00,113.00 M66.00,87.05 L65.00,87.20 M106.95,6.00 L106.80,5.00 M146.00,162.00 L145.00,162.00 M95.00,27.20 L94.00,27.46 M73.00,59.00 L72.00,58.34 M12.00,45.66 L13.00,45.00 M46.54,94.00 L46.16,93.00 M28.00,71.34 L28.34,72.00 M34.00,106.54 L35.00,106.80 M11.34,16.00 L12.00,15.66 M162.00,98.00 L162.00,99.00 M76.80,95.00 L76.54,94.00 M106.54,34.00 L106.16,33.00 M143.00,162.00 L142.00,162.00 M57.46,34.00 L57.20,35.00 M11.34,58.00 L11.00,57.84 M27.84,101.00 L28.00,101.34 M71.34,106.00 L72.00,105.66 M162.00,20.00 L162.00,21.00 M34.00,16.54 L35.00,16.80 M57.46,70.00 L57.84,71.00 M11.00,46.16 L11.34,46.00 M76.54,10.00 L76.80,9.00 M71.34,28.00 L71.00,27.84 M87.84,71.00 L88.00,71.34 M76.16,3.00 L76.00,2.00 M10.00,87.46 L9.00,87.20 M162.00,76.00 L162.00,77.00 M32.00,45.66 L32.66,46.00 M101.00,87.84 L100.00,87.46 M162.00,6.00 L162.00,7.00 M32.66,28.00 L32.00,28.34 M162.00,71.00 L162.00,72.00 M2.00,156.00 L2.00,155.00 M92.00,105.66 L92.66,106.00 M87.05,66.00 L87.00,67.00 M46.00,71.34 L46.16,71.00 M2.00,143.00 L2.00,142.00 M91.00,89.00 L90.00,89.86 M162.00,62.00 L162.00,63.00 M29.86,60.00 L29.00,61.00 M61.00,29.00 L60.00,29.86 M98.00,162.00 L97.00,162.00 M37.00,77.00 L38.00,76.95 M45.00,162.00 L44.00,162.00 M2.00,134.00 L2.00,133.00 M162.00,120.00 L162.00,121.00 M60.00,74.14 L61.00,75.00 M104.00,162.00 L103.00,162.00 M118.00,162.00 L117.00,162.00 M89.00,162.00 L88.00,162.00 M154.00,2.00 L155.00,2.00 M68.00,76.95 L69.00,76.80 M2.00,129.00 L2.00,128.00 M20.00,162.00 L19.00,162.00 M35.00,106.80 L36.00,106.95 M68.00,162.00 L67.00,162.00 M5.00,16.80 L6.00,16.95 M162.00,42.00 L162.00,43.00 M97.00,57.00 L96.00,57.05 M74.00,89.86 L73.00,89.00 M103.00,29.00 L102.00,28.34 M115.00,162.00 L114.00,162.00 M46.95,6.00 L46.80,5.00 M5.00,57.20 L4.00,57.46 M96.00,46.95 L97.00,47.00 M17.00,162.00 L16.00,162.00 M59.00,73.00 L59.86,74.00 M111.00,2.00 L112.00,2.00 M28.34,92.00 L28.00,92.66 M46.95,38.00 L47.00,37.00 M148.00,162.00 L147.00,162.00 M4.00,46.54 L5.00,46.80 M65.00,27.20 L64.00,27.46 M77.00,67.00 L76.95,66.00 M66.00,16.95 L67.00,17.00 M3.00,87.84 L2.00,88.00 M16.80,99.00 L16.95,98.00 M136.00,2.00 L137.00,2.00 M28.00,2.00 L27.84,3.00 M162.00,17.00 L162.00,18.00 M71.34,58.00 L71.00,57.84 M87.84,101.00 L88.00,101.34 M76.54,34.00 L76.16,33.00 M162.00,8.00 L162.00,9.00 M2.00,49.00 L2.00,48.00 M87.46,94.00 L87.20,95.00 M62.00,28.34 L61.00,29.00 M27.05,38.00 L27.20,39.00 M41.00,162.00 L40.00,162.00 M31.00,59.00 L30.00,59.86 M2.00,20.00 L2.00,19.00 M162.00,64.00 L162.00,65.00 M57.20,39.00 L57.46,40.00 M92.00,162.00 L91.00,162.00 M106.16,41.00 L106.54,40.00 M87.05,8.00 L87.20,9.00 M158.00,2.00 L159.00,2.00 M69.00,76.80 L70.00,76.54 M162.00,139.00 L162.00,140.00 M2.00,23.00 L2.00,22.00 M24.00,162.00 L23.00,162.00 M41.00,27.84 L40.00,27.46 M29.86,74.00 L30.00,74.14 M69.00,162.00 L68.00,162.00 M91.00,45.00 L92.00,45.66 M106.00,92.66 L105.66,92.00 M162.00,133.00 L162.00,134.00 M90.00,29.86 L89.86,30.00 M57.00,37.00 L57.05,38.00 M45.00,91.00 L44.14,90.00 M105.66,72.00 L106.00,71.34 M29.00,103.00 L29.86,104.00 M120.00,162.00 L119.00,162.00 M2.00,122.00 L2.00,121.00 M15.00,103.00 L15.66,102.00 M55.00,162.00 L54.00,162.00 M97.00,77.00 L98.00,76.95 M75.00,61.00 L74.14,60.00 M59.86,104.00 L60.00,104.14 M2.00,117.00 L2.00,116.00 M14.14,14.00 L15.00,13.00 M43.00,105.00 L44.00,104.14 M108.00,2.00 L109.00,2.00 M18.00,2.00 L19.00,2.00 M109.00,162.00 L108.00,162.00 M59.00,31.00 L58.34,32.00 M2.00,108.00 L2.00,107.00 M162.00,113.00 L162.00,114.00 M77.00,162.00 L76.00,162.00 M13.00,162.00 L12.00,162.00 M137.00,2.00 L138.00,2.00 M2.00,77.00 L2.00,76.00 M76.95,66.00 L76.80,65.00 M13.00,45.00 L14.00,44.14 M57.84,3.00 L57.46,4.00 M34.00,162.00 L33.00,162.00 M16.80,5.00 L16.54,4.00 M16.54,34.00 L16.16,33.00 M57.46,40.00 L57.84,41.00 M106.54,40.00 L106.80,39.00 M76.16,101.00 L76.54,100.00 M130.00,2.00 L131.00,2.00 M62.66,58.00 L62.00,58.34 M162.00,83.00 L162.00,84.00 M16.54,70.00 L16.80,69.00 M34.00,27.46 L33.00,27.84 M27.05,66.00 L27.00,67.00 M42.00,28.34 L41.34,28.00 M62.66,106.00 L63.00,106.16 M16.16,63.00 L16.00,62.66 M76.80,9.00 L76.95,8.00 M101.34,58.00 L101.00,57.84 M93.00,87.84 L92.66,88.00 M162.00,77.00 L162.00,78.00 M87.20,35.00 L87.05,36.00 M16.00,162.00 L15.00,162.00 M162.00,148.00 L162.00,149.00 M46.16,33.00 L46.00,32.66 M32.66,46.00 L33.00,46.16 M101.00,46.16 L101.34,46.00 M27.00,97.00 L27.05,98.00 M106.16,101.00 L106.54,100.00 M41.00,46.16 L41.34,46.00 M162.00,143.00 L162.00,144.00 M15.66,102.00 L16.00,101.34 M46.00,92.66 L45.66,92.00 M91.00,59.00 L90.00,59.86 M75.66,62.00 L75.00,61.00 M57.05,96.00 L57.00,97.00 M8.00,162.00 L7.00,162.00 M162.00,134.00 L162.00,135.00 M37.00,87.00 L36.00,87.05 M99.00,76.80 L100.00,76.54 M105.66,32.00 L105.00,31.00 M44.14,90.00 L44.00,89.86 M56.00,162.00 L55.00,162.00 M162.00,121.00 L162.00,122.00 M81.00,162.00 L80.00,162.00 M7.00,107.00 L8.00,106.95 M68.00,87.05 L67.00,87.00 M105.00,13.00 L105.66,12.00 M154.00,162.00 L153.00,162.00 M97.00,27.00 L96.00,27.05 M74.14,60.00 L74.00,59.86 M7.00,27.00 L6.00,27.05 M46.95,96.00 L46.80,95.00 M35.00,162.00 L34.00,162.00 M43.00,162.00 L42.00,162.00 M6.00,16.95 L7.00,17.00 M46.95,8.00 L47.00,7.00 M162.00,114.00 L162.00,115.00 M78.00,2.00 L79.00,2.00 M103.00,45.00 L104.00,44.14 M106.95,36.00 L106.80,35.00 M151.00,162.00 L150.00,162.00 M58.00,32.66 L57.84,33.00 M6.00,57.05 L5.00,57.20 M28.34,102.00 L29.00,103.00 M66.00,106.95 L67.00,107.00 M147.00,2.00 L148.00,2.00 M43.00,29.00 L42.00,28.34 M58.00,71.34 L58.34,72.00 M12.00,58.34 L11.34,58.00 M74.00,14.14 L74.14,14.00 M66.00,27.05 L65.00,27.20 M102.00,75.66 L103.00,75.00 M88.34,42.00 L89.00,43.00 M72.00,162.00 L71.00,162.00 M11.34,88.00 L11.00,87.84 M162.00,28.00 L162.00,29.00 M28.00,11.34 L28.34,12.00 M106.54,100.00 L106.80,99.00 M162.00,22.00 L162.00,23.00 M34.00,46.54 L35.00,46.80 M162.00,87.00 L162.00,88.00 M11.00,76.16 L11.34,76.00 M93.00,162.00 L92.00,162.00 M76.80,35.00 L76.54,34.00 M46.54,64.00 L46.16,63.00 M9.00,162.00 L8.00,162.00 M92.66,88.00 L92.00,88.34 M162.00,78.00 L162.00,79.00 M31.00,75.00 L32.00,75.66 M70.00,46.54 L71.00,46.16 M100.00,162.00 L99.00,162.00 M32.00,58.34 L31.00,59.00 M46.00,162.00 L45.00,162.00 M162.00,65.00 L162.00,66.00 M75.66,92.00 L75.00,91.00 M2.00,150.00 L2.00,149.00 M162.00,136.00 L162.00,137.00 M69.00,87.20 L68.00,87.05 M99.00,106.80 L100.00,106.54 M158.00,162.00 L157.00,162.00 M91.00,15.00 L92.00,15.66 M75.00,73.00 L75.66,72.00 M2.00,145.00 L2.00,144.00 M29.86,90.00 L29.00,91.00 M37.00,107.00 L38.00,106.95 M2.00,136.00 L2.00,135.00 M162.00,122.00 L162.00,123.00 M92.00,45.66 L92.66,46.00 M82.00,2.00 L83.00,2.00 M104.14,30.00 L104.00,29.86 M123.00,162.00 L122.00,162.00 M49.00,2.00 L50.00,2.00 M2.00,139.00 L2.00,138.00 M98.00,46.95 L99.00,46.80 M29.00,162.00 L28.00,162.00 M60.00,89.86 L59.86,90.00 M119.00,2.00 L120.00,2.00 M37.00,17.00 L38.00,16.95 M50.00,162.00 L49.00,162.00 M156.00,162.00 L155.00,162.00 M2.00,130.00 L2.00,129.00 M60.00,14.14 L61.00,15.00 M89.00,61.00 L88.34,62.00 M68.00,16.95 L69.00,16.80 M5.00,87.20 L4.00,87.46 M18.00,162.00 L17.00,162.00 M103.00,105.00 L104.00,104.14 M112.00,2.00 L113.00,2.00 M29.00,13.00 L29.86,14.00 M145.00,162.00 L144.00,162.00 M66.00,57.05 L65.00,57.20 M4.00,76.54 L5.00,76.80 M94.00,162.00 L93.00,162.00 M74.00,29.86 L73.00,29.00 M46.80,65.00 L46.54,64.00 M141.00,2.00 L142.00,2.00 M2.00,76.00 L3.00,76.16 M88.00,71.34 L88.34,72.00 M63.00,46.16 L64.00,46.54 M16.80,9.00 L16.95,8.00 M27.84,33.00 L27.46,34.00 M2.00,158.00 L2.00,157.00 M162.00,80.00 L162.00,81.00 M62.66,76.00 L63.00,76.16 M94.00,16.54 L95.00,16.80 M130.00,162.00 L129.00,162.00 M76.54,100.00 L76.80,99.00 M162.00,10.00 L162.00,11.00 M71.00,76.16 L71.34,76.00 M162.00,91.00 L162.00,92.00 M2.00,52.00 L2.00,51.00 M27.05,68.00 L27.20,69.00 M42.00,45.66 L43.00,45.00 M31.00,89.00 L30.00,89.86 M71.00,162.00 L70.00,162.00 M162.00,66.00 L162.00,67.00 M87.84,41.00 L88.00,41.34 M75.66,102.00 L76.00,101.34 M127.00,162.00 L126.00,162.00 M162.00,149.00 L162.00,150.00 M2.00,27.00 L2.00,26.00 M87.46,34.00 L87.20,35.00 M162.00,156.00 L162.00,157.00 M57.20,65.00 L57.05,66.00 M27.00,162.00 L26.00,162.00 M41.00,57.84 L40.00,57.46 M106.16,63.00 L106.00,62.66 M30.00,162.00 L29.00,162.00 M160.00,162.00 L159.00,162.00 M2.00,28.00 L2.00,27.00 M57.05,98.00 L57.20,99.00 M92.00,58.34 L91.00,59.00 M87.00,67.00 L87.05,68.00 M61.00,162.00 L60.00,162.00 M44.14,104.00 L45.00,103.00 M105.66,102.00 L106.00,101.34 M29.86,14.00 L30.00,14.14 M117.00,162.00 L116.00,162.00 M60.00,44.14 L61.00,45.00 M2.00,124.00 L2.00,123.00 M15.00,13.00 L15.66,12.00 M89.00,91.00 L88.34,92.00 M113.00,2.00 L114.00,2.00 M2.00,111.00 L2.00,110.00 M88.34,62.00 L88.00,62.66 M14.14,44.00 L15.00,43.00 M58.00,162.00 L57.00,162.00 M44.00,14.14 L44.14,14.00 M17.00,2.00 L18.00,2.00 M2.00,85.00 L2.00,84.00 M14.00,29.86 L13.00,29.00 M58.00,41.34 L58.34,42.00 M95.00,16.80 L96.00,16.95 M106.95,38.00 L107.00,37.00 M73.00,105.00 L74.00,104.14 M138.00,2.00 L139.00,2.00 M64.00,76.54 L65.00,76.80 M162.00,35.00 L162.00,36.00 M2.00,79.00 L2.00,78.00 M14.00,74.14 L14.14,74.00 M43.00,45.00 L44.00,44.14 M16.80,35.00 L16.54,34.00 M64.00,162.00 L63.00,162.00 M13.00,59.00 L12.00,58.34 M77.00,7.00 L76.95,6.00 M106.80,69.00 L106.95,68.00 M162.00,29.00 L162.00,30.00 M76.95,6.00 L76.80,5.00 M16.54,100.00 L16.80,99.00 M162.00,100.00 L162.00,101.00 M57.46,64.00 L57.20,65.00 M34.00,57.46 L33.00,57.84 M106.54,64.00 L106.16,63.00 M27.20,95.00 L27.05,96.00 M132.00,162.00 L131.00,162.00 M42.00,58.34 L41.34,58.00 M162.00,95.00 L162.00,96.00 M16.16,93.00 L16.00,92.66 M46.54,70.00 L46.80,69.00 M87.84,63.00 L87.46,64.00 M76.16,41.00 L76.54,40.00 M62.00,162.00 L61.00,162.00 M16.00,32.66 L15.66,32.00 M162.00,150.00 L162.00,151.00 M32.00,75.66 L32.66,76.00 M101.00,76.16 L101.34,76.00 M27.05,6.00 L27.00,7.00 M106.16,11.00 L106.54,10.00 M57.20,9.00 L57.46,10.00 M40.00,76.54 L41.00,76.16 M162.00,137.00 L162.00,138.00 M87.00,162.00 L86.00,162.00 M15.66,12.00 L16.00,11.34 M106.00,11.34 L106.16,11.00 M92.00,15.66 L92.66,16.00 M85.00,2.00 L86.00,2.00 M9.00,27.20 L8.00,27.05 M45.00,103.00 L45.66,102.00 M37.00,162.00 L36.00,162.00 M45.00,13.00 L45.66,12.00 M8.00,16.95 L9.00,16.80 M49.00,162.00 L48.00,162.00 M89.00,103.00 L89.86,104.00 M104.14,44.00 L105.00,43.00 M105.00,43.00 L105.66,42.00 M53.00,2.00 L54.00,2.00 M8.00,57.05 L7.00,57.00 M37.00,27.00 L36.00,27.05 M68.00,106.95 L69.00,106.80 M155.00,2.00 L156.00,2.00 M44.14,30.00 L44.00,29.86 M54.00,162.00 L53.00,162.00 M75.00,31.00 L74.14,30.00 M7.00,47.00 L8.00,46.95 M68.00,27.05 L67.00,27.00 M104.00,74.14 L104.14,74.00 M96.00,87.05 L95.00,87.20 M74.00,162.00 L73.00,162.00 M6.00,87.05 L5.00,87.20 M162.00,44.00 L162.00,45.00 M46.95,36.00 L46.80,35.00 M29.00,31.00 L28.34,32.00 M103.00,59.00 L102.00,58.34 M106.95,98.00 L107.00,97.00 M148.00,2.00 L149.00,2.00 M43.00,59.00 L42.00,58.34 M162.00,39.00 L162.00,40.00 M12.00,88.34 L11.34,88.00 M46.80,69.00 L46.95,68.00 M77.00,37.00 L76.95,36.00 M57.84,93.00 L57.46,94.00 M11.00,162.00 L10.00,162.00 M162.00,30.00 L162.00,31.00 M27.84,41.00 L28.00,41.34 M71.34,46.00 L72.00,45.66 M106.54,10.00 L106.80,9.00 M33.00,76.16 L34.00,76.54 M57.46,10.00 L57.84,11.00 M162.00,81.00 L162.00,82.00 M10.00,106.54 L11.00,106.16 M76.16,71.00 L76.54,70.00 M162.00,88.00 L162.00,89.00 M71.00,87.84 L70.00,87.46 M101.00,106.16 L101.34,106.00 M162.00,11.00 L162.00,12.00 M87.84,11.00 L88.00,11.34 M76.00,71.34 L76.16,71.00 M10.00,27.46 L9.00,27.20 M31.00,105.00 L32.00,105.66 M32.00,88.34 L31.00,89.00 M2.00,152.00 L2.00,151.00 M162.00,138.00 L162.00,139.00 M93.00,57.84 L92.66,58.00 M87.05,6.00 L87.00,7.00 M100.00,16.54 L101.00,16.16 M162.00,5.00 L162.00,6.00 M46.00,11.34 L46.16,11.00 M162.00,157.00 L162.00,158.00 M2.00,155.00 L2.00,154.00 M92.66,28.00 L92.00,28.34 M31.00,15.00 L32.00,15.66 M69.00,106.80 L70.00,106.54 M159.00,2.00 L160.00,2.00 M39.00,16.80 L40.00,16.54 M46.00,62.66 L45.66,62.00 M75.66,32.00 L75.00,31.00 M2.00,146.00 L2.00,145.00 M62.00,15.66 L62.66,16.00 M90.00,74.14 L91.00,75.00 M2.00,141.00 L2.00,140.00 M29.86,30.00 L29.00,31.00 M104.14,104.00 L105.00,103.00 M120.00,2.00 L121.00,2.00 M37.00,47.00 L38.00,46.95 M153.00,162.00 L152.00,162.00 M68.00,57.05 L67.00,57.00 M2.00,132.00 L2.00,131.00 M96.00,162.00 L95.00,162.00 M75.00,43.00 L75.66,42.00 M47.00,97.00 L46.95,96.00 M149.00,2.00 L150.00,2.00 M4.00,162.00 L3.00,162.00 M95.00,106.80 L96.00,106.95 M17.00,7.00 L16.95,6.00 M59.00,13.00 L59.86,14.00 M103.00,15.00 L104.00,14.14 M28.34,32.00 L28.00,32.66 M46.80,99.00 L46.95,98.00 M3.00,106.16 L4.00,106.54 M162.00,32.00 L162.00,33.00 M64.00,87.46 L63.00,87.84 M101.34,106.00 L102.00,105.66 M138.00,162.00 L137.00,162.00 M76.95,98.00 L77.00,97.00 M142.00,2.00 L143.00,2.00 M65.00,76.80 L66.00,76.95 M162.00,107.00 L162.00,108.00 M3.00,27.84 L2.00,28.00 M16.80,39.00 L16.95,38.00 M27.84,63.00 L27.46,64.00 M65.00,162.00 L64.00,162.00 M2.00,160.00 L2.00,159.00 M162.00,82.00 L162.00,83.00 M88.34,12.00 L89.00,13.00 M76.16,93.00 L76.00,92.66 M135.00,162.00 L134.00,162.00 M162.00,101.00 L162.00,102.00 M88.00,11.34 L88.34,12.00 M27.20,99.00 L27.46,100.00 M62.66,88.00 L62.00,88.34 M42.00,75.66 L43.00,75.00 M131.00,2.00 L132.00,2.00 M27.46,94.00 L27.20,95.00 M162.00,15.00 L162.00,16.00 M2.00,54.00 L2.00,53.00 M62.66,16.00 L63.00,16.16 M93.00,76.16 L94.00,76.54 M87.20,69.00 L87.46,70.00 M71.00,16.16 L71.34,16.00 M162.00,158.00 L162.00,159.00 M27.05,8.00 L27.20,9.00 M40.00,87.46 L39.00,87.20 M106.16,93.00 L106.00,92.66 M31.00,29.00 L30.00,29.86 M157.00,162.00 L156.00,162.00 M69.00,57.20 L68.00,57.05 M2.00,53.00 L2.00,52.00 M90.00,104.14 L91.00,105.00 M75.66,42.00 L76.00,41.34 M121.00,2.00 L122.00,2.00 M2.00,24.00 L2.00,23.00 M89.86,74.00 L90.00,74.14 M56.00,2.00 L57.00,2.00 M45.00,31.00 L44.14,30.00 M29.00,43.00 L29.86,44.00 M2.00,118.00 L2.00,117.00 M15.00,43.00 L15.66,42.00 M53.00,162.00 L52.00,162.00 M97.00,17.00 L98.00,16.95 M105.00,61.00 L104.14,60.00 M74.14,104.00 L75.00,103.00 M114.00,2.00 L115.00,2.00 M59.86,44.00 L60.00,44.14 M162.00,51.00 L162.00,52.00 M2.00,113.00 L2.00,112.00 M15.00,91.00 L14.14,90.00 M44.14,44.00 L45.00,43.00 M17.00,37.00 L16.95,36.00 M59.86,90.00 L59.00,91.00 M2.00,87.00 L2.00,86.00 M14.14,60.00 L14.00,59.86 M89.00,31.00 L88.34,32.00 M107.00,162.00 L106.00,162.00 M162.00,45.00 L162.00,46.00 M2.00,107.00 L2.00,106.00 M79.00,2.00 L80.00,2.00 M14.00,104.14 L14.14,104.00 M162.00,116.00 L162.00,117.00 M58.00,62.66 L57.84,63.00 M43.00,75.00 L44.00,74.14 M106.95,66.00 L106.80,65.00 M16.95,66.00 L16.80,65.00 M140.00,162.00 L139.00,162.00 M2.00,80.00 L2.00,79.00 M162.00,111.00 L162.00,112.00 M13.00,89.00 L12.00,88.34 M57.84,101.00 L58.00,101.34 M88.34,32.00 L88.00,32.66 M73.00,45.00 L74.00,44.14 M64.00,16.54 L65.00,16.80 M16.54,10.00 L16.80,9.00 M162.00,102.00 L162.00,103.00 M33.00,87.84 L32.66,88.00 M106.54,94.00 L106.16,93.00 M27.46,4.00 L27.20,5.00 M129.00,162.00 L128.00,162.00 M62.66,46.00 L63.00,46.16 M41.34,76.00 L42.00,75.66 M162.00,89.00 L162.00,90.00 M76.54,70.00 L76.80,69.00 M16.16,3.00 L16.00,2.00 M162.00,160.00 L162.00,161.00 M125.00,2.00 L126.00,2.00 M93.00,27.84 L92.66,28.00 M87.05,96.00 L87.00,97.00 M16.00,62.66 L15.66,62.00 M46.00,101.34 L46.16,101.00 M32.00,105.66 L32.66,106.00 M27.00,2.00 L28.00,2.00 M40.00,106.54 L41.00,106.16 M15.66,42.00 L16.00,41.34 M46.00,32.66 L45.66,32.00 M90.00,162.00 L89.00,162.00 M100.00,27.46 L99.00,27.20 M75.00,162.00 L74.00,162.00 M106.00,41.34 L106.16,41.00 M57.05,36.00 L57.00,37.00 M162.00,59.00 L162.00,60.00 M15.66,92.00 L15.00,91.00 M39.00,27.20 L38.00,27.05 M40.00,16.54 L41.00,16.16 M57.05,68.00 L57.20,69.00 M9.00,46.80 L10.00,46.54 M87.00,7.00 L87.05,8.00 M99.00,57.20 L98.00,57.05 M98.00,87.05 L97.00,87.00 M83.00,2.00 L84.00,2.00 M8.00,87.05 L7.00,87.00 M162.00,124.00 L162.00,125.00 M50.00,2.00 L51.00,2.00 M37.00,57.00 L36.00,57.05 M104.14,60.00 L104.00,59.86 M105.00,162.00 L104.00,162.00 M156.00,2.00 L157.00,2.00 M44.14,60.00 L44.00,59.86 M162.00,55.00 L162.00,56.00 M7.00,77.00 L8.00,76.95 M47.00,162.00 L46.00,162.00 M89.00,43.00 L89.86,44.00 M58.34,92.00 L58.00,92.66 M5.00,162.00 L4.00,162.00 M162.00,46.00 L162.00,47.00 M28.34,42.00 L29.00,43.00 M66.00,46.95 L67.00,47.00 M103.00,89.00 L102.00,88.34 M106.95,8.00 L107.00,7.00 M58.00,11.34 L58.34,12.00 M42.00,88.34 L41.34,88.00 M162.00,33.00 L162.00,34.00 M73.00,75.00 L74.00,74.14 M11.34,106.00 L12.00,105.66 M162.00,104.00 L162.00,105.00 M65.00,87.20 L64.00,87.46 M106.80,5.00 L106.54,4.00 M142.00,162.00 L141.00,162.00 M88.00,162.00 L87.00,162.00 M72.00,58.34 L71.34,58.00 M11.34,28.00 L11.00,27.84 M27.84,71.00 L28.00,71.34 M33.00,106.16 L34.00,106.54 M11.00,16.16 L11.34,16.00 "/>

<script>
let paths = Array.from(document.children[0].children).filter(function(c) {
    var orig = c.style.stroke;
    c.onmouseover = function() {
        c.style.stroke = "rgb(0, 0, 255)";
    };
    c.onmouseout = function () {
        c.style.stroke = orig;
    };
});

for (let path of paths) {
    console.log(path);
}
</script></svg>