<svg xmlns="http://www.w3.org/2000/svg">
    <path fill-rule="evenodd" style="fill: none; stroke: rgb(0, 0, 0); stroke-width: 0.2;" d="M2.02,97.00 L2.04,96.00 M2.04,96.00 L2.29,95.00 M2.15,87.00 L2.17,86.00 M2.17,86.00 L2.43,85.00 M2.23,98.00 L2.02,97.00 M2.29,95.00 L2.80,94.00 M2.30,77.00 L2.32,76.00 M2.32,76.00 L2.58,75.00 M2.37,88.00 L2.15,87.00 M2.43,85.00 L2.96,84.00 M2.46,67.00 L2.48,66.00 M2.48,66.00 L2.76,65.00 M2.52,78.00 L2.30,77.00 M2.58,75.00 L3.00,74.23 M2.65,57.00 L2.67,56.00 M2.67,56.00 L2.96,55.00 M2.69,68.00 L2.46,67.00 M2.70,99.00 L2.23,98.00 M2.76,65.00 L3.00,64.55 M2.80,94.00 L3.00,93.74 M2.85,89.00 L2.37,88.00 M2.86,47.00 L2.89,46.00 M2.89,46.00 L3.00,45.61 M2.89,58.00 L2.65,57.00 M2.96,55.00 L3.00,54.92 M2.96,84.00 L3.00,83.95 M3.00,45.61 L3.20,45.00 M3.00,47.55 L2.86,47.00 M3.00,54.92 L3.60,54.00 M3.00,58.22 L2.89,58.00 M3.00,64.55 L3.36,64.00 M3.00,68.61 L2.69,68.00 M3.00,74.23 L3.15,74.00 M3.00,78.96 L2.52,78.00 M3.00,83.95 L3.95,83.00 M3.00,89.20 L2.85,89.00 M3.00,93.74 L3.74,93.00 M3.00,99.41 L2.70,99.00 M3.02,79.00 L3.00,78.96 M3.12,48.00 L3.00,47.55 M3.13,37.00 L3.15,36.00 M3.15,74.00 L4.00,73.15 M3.15,36.00 L3.49,35.00 M3.20,45.00 L3.88,44.00 M3.23,69.00 L3.00,68.61 M3.36,64.00 L4.00,63.36 M3.41,38.00 L3.13,37.00 M3.46,27.00 L3.49,26.00 M3.47,59.00 L3.00,58.22 M3.49,35.00 L4.00,34.27 M3.49,26.00 L3.87,25.00 M3.55,100.00 L3.00,99.41 M3.60,54.00 L4.00,53.60 M3.74,49.00 L3.12,48.00 M3.74,93.00 L4.00,92.80 M3.75,90.00 L3.00,89.20 M3.78,28.00 L3.46,27.00 M3.87,25.00 L4.00,24.81 M3.88,44.00 L4.00,43.88 M3.95,83.00 L4.00,82.96 M3.97,80.00 L3.02,79.00 M3.97,17.00 L4.00,16.05 M4.00,16.05 L4.00,16.00 M4.00,17.09 L3.97,17.00 M4.00,24.81 L4.81,24.00 M4.00,28.34 L3.78,28.00 M4.00,34.27 L4.27,34.00 M4.00,38.91 L3.41,38.00 M4.00,43.88 L5.00,43.20 M4.00,49.27 L3.74,49.00 M4.00,53.60 L4.92,53.00 M4.00,59.56 L3.47,59.00 M4.00,63.36 L4.55,63.00 M4.00,69.81 L3.23,69.00 M4.00,73.15 L4.23,73.00 M4.00,80.02 L3.97,80.00 M4.00,82.96 L5.00,82.43 M4.00,90.20 L3.75,90.00 M4.00,92.80 L5.00,92.29 M4.00,100.36 L3.55,100.00 M4.00,16.00 L4.48,15.00 M4.09,39.00 L4.00,38.91 M4.23,73.00 L5.00,72.58 M4.27,34.00 L5.00,33.49 M4.28,70.00 L4.00,69.81 M4.37,18.00 L4.00,17.09 M4.48,15.00 L5.00,14.48 M4.55,63.00 L5.00,62.76 M4.60,29.00 L4.00,28.34 M4.63,60.00 L4.00,59.56 M4.81,24.00 L5.00,23.87 M4.92,53.00 L5.00,52.96 M5.00,14.48 L6.00,14.00 M5.00,18.68 L4.37,18.00 M5.00,23.87 L6.00,23.49 M5.00,29.29 L4.60,29.00 M5.00,33.49 L6.00,33.15 M5.00,39.68 L4.09,39.00 M5.00,43.20 L5.61,43.00 M5.00,49.97 L4.00,49.27 M5.00,52.96 L6.00,52.67 M5.00,60.21 L4.63,60.00 M5.00,62.76 L6.00,62.48 M5.00,70.40 L4.28,70.00 M5.00,72.58 L6.00,72.32 M5.00,80.58 L4.00,80.02 M5.00,82.43 L6.00,82.17 M5.00,90.74 L4.00,90.20 M5.00,92.29 L6.00,92.04 M5.00,100.88 L4.00,100.36 M5.08,50.00 L5.00,49.97 M5.46,101.00 L5.00,100.88 M5.60,19.00 L5.00,18.68 M5.61,43.00 L6.00,42.89 M5.95,40.00 L5.00,39.68 M6.00,14.00 L6.05,14.00 M6.00,19.16 L5.60,19.00 M6.00,23.49 L7.00,23.46 M6.00,29.67 L5.00,29.29 M6.00,33.15 L7.00,33.13 M6.00,40.02 L5.95,40.00 M6.00,42.89 L7.00,42.86 M6.00,50.28 L5.08,50.00 M6.00,52.67 L7.00,52.65 M6.00,60.50 L5.00,60.21 M6.00,62.48 L7.00,62.46 M6.00,70.68 L5.00,70.40 M6.00,72.32 L7.00,72.30 M6.00,80.85 L5.00,80.58 M6.00,82.17 L7.00,82.15 M6.00,90.99 L5.00,90.74 M6.00,92.04 L7.00,92.02 M6.00,101.13 L5.46,101.00 M6.05,14.00 L7.00,13.97 M6.33,91.00 L6.00,90.99 M7.00,13.97 L7.09,14.00 M7.00,19.19 L6.00,19.16 M7.00,23.46 L8.00,23.78 M7.00,29.70 L6.00,29.67 M7.00,33.13 L8.00,33.41 M7.00,40.04 L6.00,40.02 M7.00,42.86 L7.55,43.00 M7.00,50.30 L6.00,50.28 M7.00,52.65 L8.00,52.89 M7.00,60.52 L6.00,60.50 M7.00,62.46 L8.00,62.69 M7.00,70.70 L6.00,70.68 M7.00,72.30 L8.00,72.52 M7.00,80.87 L6.00,80.85 M7.00,82.15 L8.00,82.37 M7.00,91.40 L6.33,91.00 M7.00,92.02 L8.00,92.23 M7.00,101.15 L6.00,101.13 M7.06,91.00 L7.00,91.40 M7.09,14.00 L8.00,14.37 M7.15,40.00 L7.00,40.04 M7.55,43.00 L8.00,43.12 M7.55,19.00 L7.00,19.19 M7.72,101.00 L7.00,101.15 M8.00,14.37 L8.68,15.00 M8.00,18.80 L7.55,19.00 M8.00,23.78 L8.34,24.00 M8.00,29.38 L7.00,29.70 M8.00,33.41 L8.91,34.00 M8.00,39.76 L7.15,40.00 M8.00,43.12 L9.00,43.74 M8.00,50.04 L7.00,50.30 M8.00,52.89 L8.22,53.00 M8.00,60.27 L7.00,60.52 M8.00,62.69 L8.61,63.00 M8.00,70.47 L7.00,70.70 M8.00,72.52 L8.96,73.00 M8.00,80.64 L7.00,80.87 M8.00,82.37 L9.00,82.85 M8.00,90.80 L7.06,91.00 M8.00,92.23 L9.00,92.70 M8.00,100.94 L7.72,101.00 M8.09,50.00 L8.00,50.04 M8.22,53.00 L9.00,53.47 M8.34,24.00 L9.00,24.60 M8.53,60.00 L8.00,60.27 M8.56,29.00 L8.00,29.38 M8.61,63.00 L9.00,63.23 M8.68,15.00 L9.00,15.60 M8.80,18.00 L8.00,18.80 M8.91,34.00 L9.00,34.09 M8.91,70.00 L8.00,70.47 M8.96,73.00 L9.00,73.02 M9.00,15.60 L9.16,16.00 M9.00,17.55 L8.80,18.00 M9.00,24.60 L9.29,25.00 M9.00,28.56 L8.56,29.00 M9.00,34.09 L9.68,35.00 M9.00,39.08 L8.00,39.76 M9.00,43.74 L9.27,44.00 M9.00,49.42 L8.09,50.00 M9.00,53.47 L9.56,54.00 M9.00,59.70 L8.53,60.00 M9.00,63.23 L9.81,64.00 M9.00,69.94 L8.91,70.00 M9.00,73.02 L10.00,73.97 M9.00,80.14 L8.00,80.64 M9.00,82.85 L9.20,83.00 M9.00,90.31 L8.00,90.80 M9.00,92.70 L9.41,93.00 M9.00,100.47 L8.00,100.94 M9.08,39.00 L9.00,39.08 M9.16,16.00 L9.19,17.00 M9.18,80.00 L9.00,80.14 M9.19,17.00 L9.00,17.55 M9.20,83.00 L10.00,83.75 M9.27,44.00 L9.97,45.00 M9.29,25.00 L9.67,26.00 M9.38,28.00 L9.00,28.56 M9.41,90.00 L9.00,90.31 M9.41,93.00 L10.00,93.55 M9.42,49.00 L9.00,49.42 M9.56,54.00 L10.00,54.63 M9.61,100.00 L9.00,100.47 M9.67,26.00 L9.70,27.00 M9.68,35.00 L10.00,35.95 M9.70,27.00 L9.38,28.00 M9.70,59.00 L9.00,59.70 M9.76,38.00 L9.08,39.00 M9.81,64.00 L10.00,64.28 M9.94,69.00 L9.00,69.94 M9.97,45.00 L10.00,45.08 M10.00,35.95 L10.02,36.00 M10.00,37.15 L9.76,38.00 M10.00,45.08 L10.28,46.00 M10.00,48.09 L9.42,49.00 M10.00,54.63 L10.21,55.00 M10.00,58.53 L9.70,59.00 M10.00,64.28 L10.40,65.00 M10.00,68.91 L9.94,69.00 M10.00,73.97 L10.02,74.00 M10.00,79.18 L9.18,80.00 M10.00,83.75 L10.20,84.00 M10.00,89.41 L9.41,90.00 M10.00,93.55 L10.36,94.00 M10.00,99.61 L9.61,100.00 M10.02,36.00 L10.04,37.00 M10.02,74.00 L10.58,75.00 M10.04,37.00 L10.00,37.15 M10.04,48.00 L10.00,48.09 M10.14,79.00 L10.00,79.18 M10.20,84.00 L10.74,85.00 M10.21,55.00 L10.50,56.00 M10.27,58.00 L10.00,58.53 M10.28,46.00 L10.30,47.00 M10.30,47.00 L10.04,48.00 M10.31,89.00 L10.00,89.41 M10.36,94.00 L10.88,95.00 M10.40,65.00 L10.68,66.00 M10.47,99.00 L10.00,99.61 M10.47,68.00 L10.00,68.91 M10.50,56.00 L10.52,57.00 M10.52,57.00 L10.27,58.00 M10.58,75.00 L10.85,76.00 M10.64,78.00 L10.14,79.00 M10.68,66.00 L10.70,67.00 M10.70,67.00 L10.47,68.00 M10.74,85.00 L10.99,86.00 M10.80,88.00 L10.31,89.00 M10.85,76.00 L10.87,77.00 M10.87,77.00 L10.64,78.00 M10.88,95.00 L11.00,95.46 M10.94,98.00 L10.47,99.00 M10.99,86.00 L11.00,86.33 M11.00,86.33 L11.40,87.00 M11.00,87.06 L10.80,88.00 M11.00,95.46 L12.00,95.63 M11.00,97.72 L10.94,98.00 M11.40,87.00 L11.00,87.06 M12.00,95.63 L12.15,95.00 M12.00,97.53 L11.00,97.72 M12.02,87.00 L12.04,86.00 M12.04,86.00 L12.29,85.00 M12.10,98.00 L12.00,97.53 M12.15,77.00 L12.17,76.00 M12.15,95.00 L12.66,94.00 M12.17,76.00 L12.43,75.00 M12.23,88.00 L12.02,87.00 M12.29,85.00 L12.80,84.00 M12.30,67.00 L12.32,66.00 M12.32,66.00 L12.58,65.00 M12.37,78.00 L12.15,77.00 M12.43,75.00 L12.96,74.00 M12.46,57.00 L12.48,56.00 M12.48,56.00 L12.76,55.00 M12.52,68.00 L12.30,67.00 M12.55,99.00 L12.10,98.00 M12.58,65.00 L13.00,64.23 M12.65,47.00 L12.67,46.00 M12.66,94.00 L13.00,93.56 M12.67,46.00 L12.96,45.00 M12.69,58.00 L12.46,57.00 M12.70,89.00 L12.23,88.00 M12.76,55.00 L13.00,54.55 M12.80,84.00 L13.00,83.74 M12.85,79.00 L12.37,78.00 M12.86,37.00 L12.89,36.00 M12.89,36.00 L13.00,35.61 M12.89,48.00 L12.65,47.00 M12.96,45.00 L13.00,44.92 M12.96,74.00 L13.00,73.95 M13.00,35.61 L13.20,35.00 M13.00,37.55 L12.86,37.00 M13.00,44.92 L13.60,44.00 M13.00,48.22 L12.89,48.00 M13.00,54.55 L13.36,54.00 M13.00,58.61 L12.69,58.00 M13.00,64.23 L13.15,64.00 M13.00,68.96 L12.52,68.00 M13.00,73.95 L13.95,73.00 M13.00,79.20 L12.85,79.00 M13.00,83.74 L13.74,83.00 M13.00,89.41 L12.70,89.00 M13.00,93.56 L13.56,93.00 M13.00,99.61 L12.55,99.00 M13.02,69.00 L13.00,68.96 M13.12,38.00 L13.00,37.55 M13.13,27.00 L13.15,26.00 M13.15,64.00 L14.00,63.15 M13.15,26.00 L13.49,25.00 M13.20,35.00 L13.88,34.00 M13.23,59.00 L13.00,58.61 M13.36,54.00 L14.00,53.36 M13.37,100.00 L13.00,99.61 M13.41,28.00 L13.13,27.00 M13.46,17.00 L13.49,16.00 M13.47,49.00 L13.00,48.22 M13.49,25.00 L14.00,24.27 M13.49,16.00 L13.87,15.00 M13.55,90.00 L13.00,89.41 M13.56,93.00 L14.00,92.66 M13.60,44.00 L14.00,43.60 M13.74,39.00 L13.12,38.00 M13.74,83.00 L14.00,82.80 M13.75,80.00 L13.00,79.20 M13.78,18.00 L13.46,17.00 M13.87,15.00 L14.00,14.81 M13.88,34.00 L14.00,33.88 M13.95,73.00 L14.00,72.96 M13.97,70.00 L13.02,69.00 M13.97,7.00 L14.00,6.05 M14.00,6.05 L14.00,6.00 M14.00,7.09 L13.97,7.00 M14.00,14.81 L14.81,14.00 M14.00,18.34 L13.78,18.00 M14.00,24.27 L14.27,24.00 M14.00,28.91 L13.41,28.00 M14.00,33.88 L15.00,33.20 M14.00,39.27 L13.74,39.00 M14.00,43.60 L14.92,43.00 M14.00,49.56 L13.47,49.00 M14.00,53.36 L14.55,53.00 M14.00,59.81 L13.23,59.00 M14.00,63.15 L14.23,63.00 M14.00,70.02 L13.97,70.00 M14.00,72.96 L15.00,72.43 M14.00,80.20 L13.75,80.00 M14.00,82.80 L15.00,82.29 M14.00,90.36 L13.55,90.00 M14.00,92.66 L15.00,92.15 M14.00,100.51 L13.37,100.00 M14.00,6.00 L14.48,5.00 M14.09,29.00 L14.00,28.91 M14.23,63.00 L15.00,62.58 M14.27,24.00 L15.00,23.49 M14.28,60.00 L14.00,59.81 M14.37,8.00 L14.00,7.09 M14.48,5.00 L15.00,4.48 M14.55,53.00 L15.00,52.76 M14.60,19.00 L14.00,18.34 M14.63,50.00 L14.00,49.56 M14.81,14.00 L15.00,13.87 M14.92,43.00 L15.00,42.96 M14.97,101.00 L14.00,100.51 M15.00,4.48 L16.00,4.00 M15.00,8.68 L14.37,8.00 M15.00,13.87 L16.00,13.49 M15.00,19.29 L14.60,19.00 M15.00,23.49 L16.00,23.15 M15.00,29.68 L14.09,29.00 M15.00,33.20 L15.61,33.00 M15.00,39.97 L14.00,39.27 M15.00,42.96 L16.00,42.67 M15.00,50.21 L14.63,50.00 M15.00,52.76 L16.00,52.48 M15.00,60.40 L14.28,60.00 M15.00,62.58 L16.00,62.32 M15.00,70.58 L14.00,70.02 M15.00,72.43 L16.00,72.17 M15.00,80.74 L14.00,80.20 M15.00,82.29 L16.00,82.04 M15.00,90.88 L14.00,90.36 M15.00,92.15 L15.63,92.00 M15.00,101.01 L14.97,101.00 M15.08,40.00 L15.00,39.97 M15.46,91.00 L15.00,90.88 M15.60,9.00 L15.00,8.68 M15.61,33.00 L16.00,32.89 M15.63,92.00 L15.46,91.00 M15.95,30.00 L15.00,29.68 M16.00,4.00 L16.05,4.00 M16.00,9.16 L15.60,9.00 M16.00,13.49 L17.00,13.46 M16.00,19.67 L15.00,19.29 M16.00,23.15 L17.00,23.13 M16.00,30.02 L15.95,30.00 M16.00,32.89 L17.00,32.86 M16.00,40.28 L15.08,40.00 M16.00,42.67 L17.00,42.65 M16.00,50.50 L15.00,50.21 M16.00,52.48 L17.00,52.46 M16.00,60.68 L15.00,60.40 M16.00,62.32 L17.00,62.30 M16.00,70.85 L15.00,70.58 M16.00,72.17 L17.00,72.15 M16.00,80.99 L15.00,80.74 M16.00,82.04 L17.00,82.02 M16.00,101.25 L15.00,101.01 M16.05,4.00 L17.00,3.97 M16.33,81.00 L16.00,80.99 M17.00,3.97 L17.09,4.00 M17.00,9.19 L16.00,9.16 M17.00,13.46 L18.00,13.78 M17.00,19.70 L16.00,19.67 M17.00,23.13 L18.00,23.41 M17.00,30.04 L16.00,30.02 M17.00,32.86 L17.55,33.00 M17.00,40.30 L16.00,40.28 M17.00,42.65 L18.00,42.89 M17.00,50.52 L16.00,50.50 M17.00,52.46 L18.00,52.69 M17.00,60.70 L16.00,60.68 M17.00,62.30 L18.00,62.52 M17.00,70.87 L16.00,70.85 M17.00,72.15 L18.00,72.37 M17.00,81.40 L16.33,81.00 M17.00,82.02 L18.00,82.23 M17.00,101.27 L16.00,101.25 M17.06,81.00 L17.00,81.40 M17.09,4.00 L18.00,4.37 M17.15,30.00 L17.00,30.04 M17.53,92.00 L18.00,92.10 M17.55,33.00 L18.00,33.12 M17.55,9.00 L17.00,9.19 M17.72,91.00 L17.53,92.00 M18.00,4.37 L18.68,5.00 M18.00,8.80 L17.55,9.00 M18.00,13.78 L18.34,14.00 M18.00,19.38 L17.00,19.70 M18.00,23.41 L18.91,24.00 M18.00,29.76 L17.15,30.00 M18.00,33.12 L19.00,33.74 M18.00,40.04 L17.00,40.30 M18.00,42.89 L18.22,43.00 M18.00,50.27 L17.00,50.52 M18.00,52.69 L18.61,53.00 M18.00,60.47 L17.00,60.70 M18.00,62.52 L18.96,63.00 M18.00,70.64 L17.00,70.87 M18.00,72.37 L19.00,72.85 M18.00,80.80 L17.06,81.00 M18.00,82.23 L19.00,82.70 M18.00,90.94 L17.72,91.00 M18.00,92.10 L19.00,92.55 M18.00,101.07 L17.00,101.27 M18.09,40.00 L18.00,40.04 M18.17,101.00 L18.00,101.07 M18.22,43.00 L19.00,43.47 M18.34,14.00 L19.00,14.60 M18.53,50.00 L18.00,50.27 M18.56,19.00 L18.00,19.38 M18.61,53.00 L19.00,53.23 M18.68,5.00 L19.00,5.60 M18.80,8.00 L18.00,8.80 M18.91,24.00 L19.00,24.09 M18.91,60.00 L18.00,60.47 M18.96,63.00 L19.00,63.02 M19.00,5.60 L19.16,6.00 M19.00,7.55 L18.80,8.00 M19.00,14.60 L19.29,15.00 M19.00,18.56 L18.56,19.00 M19.00,24.09 L19.68,25.00 M19.00,29.08 L18.00,29.76 M19.00,33.74 L19.27,34.00 M19.00,39.42 L18.09,40.00 M19.00,43.47 L19.56,44.00 M19.00,49.70 L18.53,50.00 M19.00,53.23 L19.81,54.00 M19.00,59.94 L18.91,60.00 M19.00,63.02 L20.00,63.97 M19.00,70.14 L18.00,70.64 M19.00,72.85 L19.20,73.00 M19.00,80.31 L18.00,80.80 M19.00,82.70 L19.41,83.00 M19.00,90.47 L18.00,90.94 M19.00,92.55 L19.61,93.00 M19.00,100.61 L18.17,101.00 M19.08,29.00 L19.00,29.08 M19.16,6.00 L19.19,7.00 M19.18,70.00 L19.00,70.14 M19.19,7.00 L19.00,7.55 M19.20,73.00 L20.00,73.75 M19.27,34.00 L19.97,35.00 M19.29,15.00 L19.67,16.00 M19.38,18.00 L19.00,18.56 M19.41,80.00 L19.00,80.31 M19.41,83.00 L20.00,83.55 M19.42,39.00 L19.00,39.42 M19.56,44.00 L20.00,44.63 M19.61,93.00 L20.00,93.37 M19.61,90.00 L19.00,90.47 M19.67,16.00 L19.70,17.00 M19.68,25.00 L20.00,25.95 M19.70,17.00 L19.38,18.00 M19.70,49.00 L19.00,49.70 M19.76,28.00 L19.08,29.00 M19.80,100.00 L19.00,100.61 M19.81,54.00 L20.00,54.28 M19.94,59.00 L19.00,59.94 M19.97,35.00 L20.00,35.08 M20.00,25.95 L20.02,26.00 M20.00,27.15 L19.76,28.00 M20.00,35.08 L20.28,36.00 M20.00,38.09 L19.42,39.00 M20.00,44.63 L20.21,45.00 M20.00,48.53 L19.70,49.00 M20.00,54.28 L20.40,55.00 M20.00,58.91 L19.94,59.00 M20.00,63.97 L20.02,64.00 M20.00,69.18 L19.18,70.00 M20.00,73.75 L20.20,74.00 M20.00,79.41 L19.41,80.00 M20.00,83.55 L20.36,84.00 M20.00,89.61 L19.61,90.00 M20.00,93.37 L20.51,94.00 M20.00,99.80 L19.80,100.00 M20.02,26.00 L20.04,27.00 M20.02,64.00 L20.58,65.00 M20.04,27.00 L20.00,27.15 M20.04,38.00 L20.00,38.09 M20.14,69.00 L20.00,69.18 M20.20,74.00 L20.74,75.00 M20.21,45.00 L20.50,46.00 M20.27,48.00 L20.00,48.53 M20.28,36.00 L20.30,37.00 M20.30,37.00 L20.04,38.00 M20.31,79.00 L20.00,79.41 M20.36,84.00 L20.88,85.00 M20.40,55.00 L20.68,56.00 M20.47,89.00 L20.00,89.61 M20.47,58.00 L20.00,58.91 M20.50,46.00 L20.52,47.00 M20.51,94.00 L21.00,94.97 M20.52,47.00 L20.27,48.00 M20.58,65.00 L20.85,66.00 M20.61,99.00 L20.00,99.80 M20.64,68.00 L20.14,69.00 M20.68,56.00 L20.70,57.00 M20.70,57.00 L20.47,58.00 M20.74,75.00 L20.99,76.00 M20.80,78.00 L20.31,79.00 M20.85,66.00 L20.87,67.00 M20.87,67.00 L20.64,68.00 M20.88,85.00 L21.00,85.46 M20.94,88.00 L20.47,89.00 M20.99,76.00 L21.00,76.33 M21.00,76.33 L21.40,77.00 M21.00,77.06 L20.80,78.00 M21.00,85.46 L22.00,85.63 M21.00,87.72 L20.94,88.00 M21.00,94.97 L21.30,95.00 M21.00,98.17 L20.61,99.00 M21.30,95.00 L22.00,95.13 M21.40,77.00 L21.00,77.06 M22.00,85.63 L22.15,85.00 M22.00,87.53 L21.00,87.72 M22.00,95.13 L22.03,95.00 M22.00,98.06 L21.00,98.17 M22.02,77.00 L22.04,76.00 M22.03,95.00 L22.52,94.00 M22.04,76.00 L22.29,75.00 M22.10,88.00 L22.00,87.53 M22.15,67.00 L22.17,66.00 M22.15,85.00 L22.66,84.00 M22.17,66.00 L22.43,65.00 M22.23,78.00 L22.02,77.00 M22.29,75.00 L22.80,74.00 M22.30,57.00 L22.32,56.00 M22.32,56.00 L22.58,55.00 M22.37,68.00 L22.15,67.00 M22.42,99.00 L22.00,98.06 M22.43,65.00 L22.96,64.00 M22.46,47.00 L22.48,46.00 M22.48,46.00 L22.76,45.00 M22.52,58.00 L22.30,57.00 M22.52,94.00 L23.00,93.38 M22.55,89.00 L22.10,88.00 M22.58,55.00 L23.00,54.23 M22.65,37.00 L22.67,36.00 M22.66,84.00 L23.00,83.56 M22.67,36.00 L22.96,35.00 M22.69,48.00 L22.46,47.00 M22.70,79.00 L22.23,78.00 M22.76,45.00 L23.00,44.55 M22.80,74.00 L23.00,73.74 M22.85,69.00 L22.37,68.00 M22.86,27.00 L22.89,26.00 M22.89,26.00 L23.00,25.61 M22.89,38.00 L22.65,37.00 M22.96,35.00 L23.00,34.92 M22.96,64.00 L23.00,63.95 M23.00,25.61 L23.20,25.00 M23.00,27.55 L22.86,27.00 M23.00,34.92 L23.60,34.00 M23.00,38.22 L22.89,38.00 M23.00,44.55 L23.36,44.00 M23.00,48.61 L22.69,48.00 M23.00,54.23 L23.15,54.00 M23.00,58.96 L22.52,58.00 M23.00,63.95 L23.95,63.00 M23.00,69.20 L22.85,69.00 M23.00,73.74 L23.74,73.00 M23.00,79.41 L22.70,79.00 M23.00,83.56 L23.56,83.00 M23.00,89.61 L22.55,89.00 M23.00,93.38 L23.38,93.00 M23.00,99.79 L22.42,99.00 M23.02,59.00 L23.00,58.96 M23.12,28.00 L23.00,27.55 M23.13,17.00 L23.15,16.00 M23.15,54.00 L24.00,53.15 M23.15,16.00 L23.49,15.00 M23.20,25.00 L23.88,24.00 M23.20,100.00 L23.00,99.79 M23.23,49.00 L23.00,48.61 M23.36,44.00 L24.00,43.36 M23.37,90.00 L23.00,89.61 M23.38,93.00 L24.00,92.52 M23.41,18.00 L23.13,17.00 M23.46,7.00 L23.49,6.00 M23.47,39.00 L23.00,38.22 M23.49,15.00 L24.00,14.27 M23.49,6.00 L23.87,5.00 M23.55,80.00 L23.00,79.41 M23.56,83.00 L24.00,82.66 M23.60,34.00 L24.00,33.60 M23.74,29.00 L23.12,28.00 M23.74,73.00 L24.00,72.80 M23.75,70.00 L23.00,69.20 M23.78,8.00 L23.46,7.00 M23.87,5.00 L24.00,4.81 M23.88,24.00 L24.00,23.88 M23.95,63.00 L24.00,62.96 M23.97,60.00 L23.02,59.00 M24.00,4.81 L24.81,4.00 M24.00,8.34 L23.78,8.00 M24.00,14.27 L24.27,14.00 M24.00,18.91 L23.41,18.00 M24.00,23.88 L25.00,23.20 M24.00,29.27 L23.74,29.00 M24.00,33.60 L24.92,33.00 M24.00,39.56 L23.47,39.00 M24.00,43.36 L24.55,43.00 M24.00,49.81 L23.23,49.00 M24.00,53.15 L24.23,53.00 M24.00,60.02 L23.97,60.00 M24.00,62.96 L25.00,62.43 M24.00,70.20 L23.75,70.00 M24.00,72.80 L25.00,72.29 M24.00,80.36 L23.55,80.00 M24.00,82.66 L25.00,82.15 M24.00,90.51 L23.37,90.00 M24.00,92.52 L25.00,92.03 M24.00,100.64 L23.20,100.00 M24.09,19.00 L24.00,18.91 M24.23,53.00 L25.00,52.58 M24.27,14.00 L25.00,13.49 M24.28,50.00 L24.00,49.81 M24.55,43.00 L25.00,42.76 M24.60,9.00 L24.00,8.34 M24.63,40.00 L24.00,39.56 M24.70,101.00 L24.00,100.64 M24.81,4.00 L25.00,3.87 M24.92,33.00 L25.00,32.96 M24.97,91.00 L24.00,90.51 M25.00,3.87 L26.00,3.49 M25.00,9.29 L24.60,9.00 M25.00,13.49 L26.00,13.15 M25.00,19.68 L24.09,19.00 M25.00,23.20 L25.61,23.00 M25.00,29.97 L24.00,29.27 M25.00,32.96 L26.00,32.67 M25.00,40.21 L24.63,40.00 M25.00,42.76 L26.00,42.48 M25.00,50.40 L24.28,50.00 M25.00,52.58 L26.00,52.32 M25.00,60.58 L24.00,60.02 M25.00,62.43 L26.00,62.17 M25.00,70.74 L24.00,70.20 M25.00,72.29 L26.00,72.04 M25.00,80.88 L24.00,80.36 M25.00,82.15 L25.63,82.00 M25.00,91.30 L24.97,91.00 M25.00,92.03 L25.13,92.00 M25.00,101.13 L24.70,101.00 M25.08,30.00 L25.00,29.97 M25.13,92.00 L25.00,91.30 M25.46,81.00 L25.00,80.88 M25.61,23.00 L26.00,22.89 M25.63,82.00 L25.46,81.00 M25.95,20.00 L25.00,19.68 M26.00,3.49 L27.00,3.46 M26.00,9.67 L25.00,9.29 M26.00,13.15 L27.00,13.13 M26.00,20.02 L25.95,20.00 M26.00,22.89 L27.00,22.86 M26.00,30.28 L25.08,30.00 M26.00,32.67 L27.00,32.65 M26.00,40.50 L25.00,40.21 M26.00,42.48 L27.00,42.46 M26.00,50.68 L25.00,50.40 M26.00,52.32 L27.00,52.30 M26.00,60.85 L25.00,60.58 M26.00,62.17 L27.00,62.15 M26.00,70.99 L25.00,70.74 M26.00,72.04 L27.00,72.02 M26.00,101.37 L25.00,101.13 M26.33,71.00 L26.00,70.99 M27.00,3.46 L28.00,3.78 M27.00,9.70 L26.00,9.67 M27.00,13.13 L28.00,13.41 M27.00,20.04 L26.00,20.02 M27.00,22.86 L27.55,23.00 M27.00,30.30 L26.00,30.28 M27.00,32.65 L28.00,32.89 M27.00,40.52 L26.00,40.50 M27.00,42.46 L28.00,42.69 M27.00,50.70 L26.00,50.68 M27.00,52.30 L28.00,52.52 M27.00,60.87 L26.00,60.85 M27.00,62.15 L28.00,62.37 M27.00,71.40 L26.33,71.00 M27.00,72.02 L28.00,72.23 M27.00,101.38 L26.00,101.37 M27.06,71.00 L27.00,71.40 M27.15,20.00 L27.00,20.04 M27.53,82.00 L28.00,82.10 M27.55,23.00 L28.00,23.12 M27.72,81.00 L27.53,82.00 M28.00,3.78 L28.34,4.00 M28.00,9.38 L27.00,9.70 M28.00,13.41 L28.91,14.00 M28.00,19.76 L27.15,20.00 M28.00,23.12 L29.00,23.74 M28.00,30.04 L27.00,30.30 M28.00,32.89 L28.22,33.00 M28.00,40.27 L27.00,40.52 M28.00,42.69 L28.61,43.00 M28.00,50.47 L27.00,50.70 M28.00,52.52 L28.96,53.00 M28.00,60.64 L27.00,60.87 M28.00,62.37 L29.00,62.85 M28.00,70.80 L27.06,71.00 M28.00,72.23 L29.00,72.70 M28.00,80.94 L27.72,81.00 M28.00,82.10 L29.00,82.55 M28.00,101.19 L27.00,101.38 M28.06,92.00 L29.00,92.42 M28.09,30.00 L28.00,30.04 M28.17,91.00 L28.06,92.00 M28.22,33.00 L29.00,33.47 M28.34,4.00 L29.00,4.60 M28.45,101.00 L28.00,101.19 M28.53,40.00 L28.00,40.27 M28.56,9.00 L28.00,9.38 M28.61,43.00 L29.00,43.23 M28.91,14.00 L29.00,14.09 M28.91,50.00 L28.00,50.47 M28.96,53.00 L29.00,53.02 M29.00,4.60 L29.29,5.00 M29.00,8.56 L28.56,9.00 M29.00,14.09 L29.68,15.00 M29.00,19.08 L28.00,19.76 M29.00,23.74 L29.27,24.00 M29.00,29.42 L28.09,30.00 M29.00,33.47 L29.56,34.00 M29.00,39.70 L28.53,40.00 M29.00,43.23 L29.81,44.00 M29.00,49.94 L28.91,50.00 M29.00,53.02 L30.00,53.97 M29.00,60.14 L28.00,60.64 M29.00,62.85 L29.20,63.00 M29.00,70.31 L28.00,70.80 M29.00,72.70 L29.41,73.00 M29.00,80.47 L28.00,80.94 M29.00,82.55 L29.61,83.00 M29.00,90.61 L28.17,91.00 M29.00,92.42 L29.79,93.00 M29.00,100.74 L28.45,101.00 M29.08,19.00 L29.00,19.08 M29.18,60.00 L29.00,60.14 M29.20,63.00 L30.00,63.75 M29.27,24.00 L29.97,25.00 M29.29,5.00 L29.67,6.00 M29.38,8.00 L29.00,8.56 M29.41,70.00 L29.00,70.31 M29.41,73.00 L30.00,73.55 M29.42,29.00 L29.00,29.42 M29.56,34.00 L30.00,34.63 M29.61,83.00 L30.00,83.37 M29.61,80.00 L29.00,80.47 M29.67,6.00 L29.70,7.00 M29.68,15.00 L30.00,15.95 M29.70,7.00 L29.38,8.00 M29.70,39.00 L29.00,39.70 M29.76,18.00 L29.08,19.00 M29.79,93.00 L30.00,93.20 M29.80,90.00 L29.00,90.61 M29.81,44.00 L30.00,44.28 M29.94,49.00 L29.00,49.94 M29.97,25.00 L30.00,25.08 M29.98,100.00 L29.00,100.74 M30.00,15.95 L30.02,16.00 M30.00,17.15 L29.76,18.00 M30.00,25.08 L30.28,26.00 M30.00,28.09 L29.42,29.00 M30.00,34.63 L30.21,35.00 M30.00,38.53 L29.70,39.00 M30.00,44.28 L30.40,45.00 M30.00,48.91 L29.94,49.00 M30.00,53.97 L30.02,54.00 M30.00,59.18 L29.18,60.00 M30.00,63.75 L30.20,64.00 M30.00,69.41 L29.41,70.00 M30.00,73.55 L30.36,74.00 M30.00,79.61 L29.61,80.00 M30.00,83.37 L30.51,84.00 M30.00,89.80 L29.80,90.00 M30.00,93.20 L30.64,94.00 M30.00,99.98 L29.98,100.00 M30.02,16.00 L30.04,17.00 M30.02,54.00 L30.58,55.00 M30.04,17.00 L30.00,17.15 M30.04,28.00 L30.00,28.09 M30.14,59.00 L30.00,59.18 M30.20,64.00 L30.74,65.00 M30.21,35.00 L30.50,36.00 M30.27,38.00 L30.00,38.53 M30.28,26.00 L30.30,27.00 M30.30,27.00 L30.04,28.00 M30.31,69.00 L30.00,69.41 M30.36,74.00 L30.88,75.00 M30.40,45.00 L30.68,46.00 M30.47,79.00 L30.00,79.61 M30.47,48.00 L30.00,48.91 M30.50,36.00 L30.52,37.00 M30.51,84.00 L31.00,84.97 M30.52,37.00 L30.27,38.00 M30.58,55.00 L30.85,56.00 M30.61,89.00 L30.00,89.80 M30.64,94.00 L31.00,94.70 M30.64,58.00 L30.14,59.00 M30.68,46.00 L30.70,47.00 M30.70,47.00 L30.47,48.00 M30.74,65.00 L30.99,66.00 M30.74,99.00 L30.00,99.98 M30.80,68.00 L30.31,69.00 M30.85,56.00 L30.87,57.00 M30.87,57.00 L30.64,58.00 M30.88,75.00 L31.00,75.46 M30.94,78.00 L30.47,79.00 M30.99,66.00 L31.00,66.33 M31.00,66.33 L31.40,67.00 M31.00,67.06 L30.80,68.00 M31.00,75.46 L32.00,75.63 M31.00,77.72 L30.94,78.00 M31.00,84.97 L31.30,85.00 M31.00,88.17 L30.61,89.00 M31.00,94.70 L32.00,94.82 M31.00,98.45 L30.74,99.00 M31.30,85.00 L32.00,85.13 M31.40,67.00 L31.00,67.06 M32.00,75.63 L32.15,75.00 M32.00,77.53 L31.00,77.72 M32.00,85.13 L32.03,85.00 M32.00,88.06 L31.00,88.17 M32.00,94.82 L32.40,94.00 M32.00,98.33 L31.00,98.45 M32.02,67.00 L32.04,66.00 M32.03,85.00 L32.52,84.00 M32.04,66.00 L32.29,65.00 M32.10,78.00 L32.00,77.53 M32.15,57.00 L32.17,56.00 M32.15,75.00 L32.66,74.00 M32.17,56.00 L32.43,55.00 M32.23,68.00 L32.02,67.00 M32.29,65.00 L32.80,64.00 M32.30,99.00 L32.00,98.33 M32.30,47.00 L32.32,46.00 M32.32,46.00 L32.58,45.00 M32.37,58.00 L32.15,57.00 M32.40,94.00 L33.00,93.22 M32.42,89.00 L32.00,88.06 M32.43,55.00 L32.96,54.00 M32.46,37.00 L32.48,36.00 M32.48,36.00 L32.76,35.00 M32.52,48.00 L32.30,47.00 M32.52,84.00 L33.00,83.38 M32.55,79.00 L32.10,78.00 M32.58,45.00 L33.00,44.23 M32.65,27.00 L32.67,26.00 M32.66,74.00 L33.00,73.56 M32.67,26.00 L32.96,25.00 M32.69,38.00 L32.46,37.00 M32.70,69.00 L32.23,68.00 M32.76,35.00 L33.00,34.55 M32.80,64.00 L33.00,63.74 M32.85,59.00 L32.37,58.00 M32.86,17.00 L32.89,16.00 M32.89,16.00 L33.00,15.61 M32.89,28.00 L32.65,27.00 M32.96,25.00 L33.00,24.92 M32.96,54.00 L33.00,53.95 M33.00,15.61 L33.20,15.00 M33.00,17.55 L32.86,17.00 M33.00,24.92 L33.60,24.00 M33.00,28.22 L32.89,28.00 M33.00,34.55 L33.36,34.00 M33.00,38.61 L32.69,38.00 M33.00,44.23 L33.15,44.00 M33.00,48.96 L32.52,48.00 M33.00,53.95 L33.95,53.00 M33.00,59.20 L32.85,59.00 M33.00,63.74 L33.74,63.00 M33.00,69.41 L32.70,69.00 M33.00,73.56 L33.56,73.00 M33.00,79.61 L32.55,79.00 M33.00,83.38 L33.38,83.00 M33.00,89.79 L32.42,89.00 M33.00,93.22 L33.22,93.00 M33.00,99.96 L32.30,99.00 M33.02,49.00 L33.00,48.96 M33.04,100.00 L33.00,99.96 M33.12,18.00 L33.00,17.55 M33.13,7.00 L33.15,6.00 M33.15,44.00 L34.00,43.15 M33.15,6.00 L33.49,5.00 M33.20,15.00 L33.88,14.00 M33.20,90.00 L33.00,89.79 M33.22,93.00 L34.00,92.40 M33.23,39.00 L33.00,38.61 M33.36,34.00 L34.00,33.36 M33.37,80.00 L33.00,79.61 M33.38,83.00 L34.00,82.52 M33.41,8.00 L33.13,7.00 M33.47,29.00 L33.00,28.22 M33.49,5.00 L34.00,4.27 M33.55,70.00 L33.00,69.41 M33.56,73.00 L34.00,72.66 M33.60,24.00 L34.00,23.60 M33.74,19.00 L33.12,18.00 M33.74,63.00 L34.00,62.80 M33.75,60.00 L33.00,59.20 M33.88,14.00 L34.00,13.88 M33.95,53.00 L34.00,52.96 M33.97,50.00 L33.02,49.00 M34.00,4.27 L34.27,4.00 M34.00,8.91 L33.41,8.00 M34.00,13.88 L35.00,13.20 M34.00,19.27 L33.74,19.00 M34.00,23.60 L34.92,23.00 M34.00,29.56 L33.47,29.00 M34.00,33.36 L34.55,33.00 M34.00,39.81 L33.23,39.00 M34.00,43.15 L34.23,43.00 M34.00,50.02 L33.97,50.00 M34.00,52.96 L35.00,52.43 M34.00,60.20 L33.75,60.00 M34.00,62.80 L35.00,62.29 M34.00,70.36 L33.55,70.00 M34.00,72.66 L35.00,72.15 M34.00,80.51 L33.37,80.00 M34.00,82.52 L35.00,82.03 M34.00,90.64 L33.20,90.00 M34.00,92.40 L34.82,92.00 M34.00,100.77 L33.04,100.00 M34.09,9.00 L34.00,8.91 M34.23,43.00 L35.00,42.58 M34.27,4.00 L35.00,3.49 M34.28,40.00 L34.00,39.81 M34.45,101.00 L34.00,100.77 M34.55,33.00 L35.00,32.76 M34.63,30.00 L34.00,29.56 M34.70,91.00 L34.00,90.64 M34.82,92.00 L34.70,91.00 M34.92,23.00 L35.00,22.96 M34.97,81.00 L34.00,80.51 M35.00,3.49 L36.00,3.15 M35.00,9.68 L34.09,9.00 M35.00,13.20 L35.61,13.00 M35.00,19.97 L34.00,19.27 M35.00,22.96 L36.00,22.67 M35.00,30.21 L34.63,30.00 M35.00,32.76 L36.00,32.48 M35.00,40.40 L34.28,40.00 M35.00,42.58 L36.00,42.32 M35.00,50.58 L34.00,50.02 M35.00,52.43 L36.00,52.17 M35.00,60.74 L34.00,60.20 M35.00,62.29 L36.00,62.04 M35.00,70.88 L34.00,70.36 M35.00,72.15 L35.63,72.00 M35.00,81.30 L34.97,81.00 M35.00,82.03 L35.13,82.00 M35.00,101.24 L34.45,101.00 M35.08,20.00 L35.00,19.97 M35.13,82.00 L35.00,81.30 M35.46,71.00 L35.00,70.88 M35.61,13.00 L36.00,12.89 M35.63,72.00 L35.46,71.00 M35.95,10.00 L35.00,9.68 M36.00,3.15 L37.00,3.13 M36.00,10.02 L35.95,10.00 M36.00,12.89 L37.00,12.86 M36.00,20.28 L35.08,20.00 M36.00,22.67 L37.00,22.65 M36.00,30.50 L35.00,30.21 M36.00,32.48 L37.00,32.46 M36.00,40.68 L35.00,40.40 M36.00,42.32 L37.00,42.30 M36.00,50.85 L35.00,50.58 M36.00,52.17 L37.00,52.15 M36.00,60.99 L35.00,60.74 M36.00,62.04 L37.00,62.02 M36.00,101.47 L35.00,101.24 M36.33,61.00 L36.00,60.99 M37.00,3.13 L38.00,3.41 M37.00,10.04 L36.00,10.02 M37.00,12.86 L37.55,13.00 M37.00,20.30 L36.00,20.28 M37.00,22.65 L38.00,22.89 M37.00,30.52 L36.00,30.50 M37.00,32.46 L38.00,32.69 M37.00,40.70 L36.00,40.68 M37.00,42.30 L38.00,42.52 M37.00,50.87 L36.00,50.85 M37.00,52.15 L38.00,52.37 M37.00,61.40 L36.33,61.00 M37.00,62.02 L38.00,62.23 M37.00,101.49 L36.00,101.47 M37.06,61.00 L37.00,61.40 M37.15,10.00 L37.00,10.04 M37.53,72.00 L38.00,72.10 M37.55,13.00 L38.00,13.12 M37.72,71.00 L37.53,72.00 M38.00,3.41 L38.91,4.00 M38.00,9.76 L37.15,10.00 M38.00,13.12 L39.00,13.74 M38.00,20.04 L37.00,20.30 M38.00,22.89 L38.22,23.00 M38.00,30.27 L37.00,30.52 M38.00,32.69 L38.61,33.00 M38.00,40.47 L37.00,40.70 M38.00,42.52 L38.96,43.00 M38.00,50.64 L37.00,50.87 M38.00,52.37 L39.00,52.85 M38.00,60.80 L37.06,61.00 M38.00,62.23 L39.00,62.70 M38.00,70.94 L37.72,71.00 M38.00,72.10 L39.00,72.55 M38.00,101.30 L37.00,101.49 M38.06,82.00 L39.00,82.42 M38.09,20.00 L38.00,20.04 M38.17,81.00 L38.06,82.00 M38.22,23.00 L39.00,23.47 M38.33,92.00 L39.00,92.30 M38.45,91.00 L38.33,92.00 M38.53,30.00 L38.00,30.27 M38.61,33.00 L39.00,33.23 M38.72,101.00 L38.00,101.30 M38.91,4.00 L39.00,4.09 M38.91,40.00 L38.00,40.47 M38.96,43.00 L39.00,43.02 M39.00,4.09 L39.68,5.00 M39.00,9.08 L38.00,9.76 M39.00,13.74 L39.27,14.00 M39.00,19.42 L38.09,20.00 M39.00,23.47 L39.56,24.00 M39.00,29.70 L38.53,30.00 M39.00,33.23 L39.81,34.00 M39.00,39.94 L38.91,40.00 M39.00,43.02 L40.00,43.97 M39.00,50.14 L38.00,50.64 M39.00,52.85 L39.20,53.00 M39.00,60.31 L38.00,60.80 M39.00,62.70 L39.41,63.00 M39.00,70.47 L38.00,70.94 M39.00,72.55 L39.61,73.00 M39.00,80.61 L38.17,81.00 M39.00,82.42 L39.79,83.00 M39.00,90.74 L38.45,91.00 M39.00,92.30 L39.96,93.00 M39.00,100.87 L38.72,101.00 M39.08,9.00 L39.00,9.08 M39.18,50.00 L39.00,50.14 M39.20,53.00 L40.00,53.75 M39.27,14.00 L39.97,15.00 M39.41,60.00 L39.00,60.31 M39.41,63.00 L40.00,63.55 M39.42,19.00 L39.00,19.42 M39.56,24.00 L40.00,24.63 M39.61,73.00 L40.00,73.37 M39.61,70.00 L39.00,70.47 M39.68,5.00 L40.00,5.95 M39.70,29.00 L39.00,29.70 M39.76,8.00 L39.08,9.00 M39.79,83.00 L40.00,83.20 M39.80,80.00 L39.00,80.61 M39.81,34.00 L40.00,34.28 M39.94,39.00 L39.00,39.94 M39.96,93.00 L40.00,93.04 M39.97,15.00 L40.00,15.08 M39.98,90.00 L39.00,90.74 M40.00,5.95 L40.02,6.00 M40.00,7.15 L39.76,8.00 M40.00,15.08 L40.28,16.00 M40.00,18.09 L39.42,19.00 M40.00,24.63 L40.21,25.00 M40.00,28.53 L39.70,29.00 M40.00,34.28 L40.40,35.00 M40.00,38.91 L39.94,39.00 M40.00,43.97 L40.02,44.00 M40.00,49.18 L39.18,50.00 M40.00,53.75 L40.20,54.00 M40.00,59.41 L39.41,60.00 M40.00,63.55 L40.36,64.00 M40.00,69.61 L39.61,70.00 M40.00,73.37 L40.51,74.00 M40.00,79.80 L39.80,80.00 M40.00,83.20 L40.64,84.00 M40.00,89.98 L39.98,90.00 M40.00,93.04 L40.77,94.00 M40.00,100.12 L39.00,100.87 M40.02,6.00 L40.04,7.00 M40.02,44.00 L40.58,45.00 M40.04,7.00 L40.00,7.15 M40.04,18.00 L40.00,18.09 M40.12,100.00 L40.00,100.12 M40.14,49.00 L40.00,49.18 M40.20,54.00 L40.74,55.00 M40.21,25.00 L40.50,26.00 M40.27,28.00 L40.00,28.53 M40.28,16.00 L40.30,17.00 M40.30,17.00 L40.04,18.00 M40.31,59.00 L40.00,59.41 M40.36,64.00 L40.88,65.00 M40.40,35.00 L40.68,36.00 M40.47,69.00 L40.00,69.61 M40.47,38.00 L40.00,38.91 M40.50,26.00 L40.52,27.00 M40.51,74.00 L41.00,74.97 M40.52,27.00 L40.27,28.00 M40.58,45.00 L40.85,46.00 M40.61,79.00 L40.00,79.80 M40.64,84.00 L41.00,84.70 M40.64,48.00 L40.14,49.00 M40.68,36.00 L40.70,37.00 M40.70,37.00 L40.47,38.00 M40.74,55.00 L40.99,56.00 M40.74,89.00 L40.00,89.98 M40.77,94.00 L41.00,94.45 M40.80,58.00 L40.31,59.00 M40.85,46.00 L40.87,47.00 M40.87,47.00 L40.64,48.00 M40.87,99.00 L40.12,100.00 M40.88,65.00 L41.00,65.46 M40.94,68.00 L40.47,69.00 M40.99,56.00 L41.00,56.33 M41.00,56.33 L41.40,57.00 M41.00,57.06 L40.80,58.00 M41.00,65.46 L42.00,65.63 M41.00,67.72 L40.94,68.00 M41.00,74.97 L41.30,75.00 M41.00,78.17 L40.61,79.00 M41.00,84.70 L42.00,84.82 M41.00,88.45 L40.74,89.00 M41.00,94.45 L42.00,94.57 M41.00,98.72 L40.87,99.00 M41.30,75.00 L42.00,75.13 M41.40,57.00 L41.00,57.06 M42.00,65.63 L42.15,65.00 M42.00,67.53 L41.00,67.72 M42.00,75.13 L42.03,75.00 M42.00,78.06 L41.00,78.17 M42.00,84.82 L42.40,84.00 M42.00,88.33 L41.00,88.45 M42.00,94.57 L42.28,94.00 M42.00,98.59 L41.00,98.72 M42.02,57.00 L42.04,56.00 M42.03,75.00 L42.52,74.00 M42.04,56.00 L42.29,55.00 M42.10,68.00 L42.00,67.53 M42.15,47.00 L42.17,46.00 M42.15,65.00 L42.66,64.00 M42.17,46.00 L42.43,45.00 M42.18,99.00 L42.00,98.59 M42.23,58.00 L42.02,57.00 M42.28,94.00 L43.00,93.07 M42.29,55.00 L42.80,54.00 M42.30,89.00 L42.00,88.33 M42.30,37.00 L42.32,36.00 M42.32,36.00 L42.58,35.00 M42.37,48.00 L42.15,47.00 M42.40,84.00 L43.00,83.22 M42.42,79.00 L42.00,78.06 M42.43,45.00 L42.96,44.00 M42.46,27.00 L42.48,26.00 M42.48,26.00 L42.76,25.00 M42.52,38.00 L42.30,37.00 M42.52,74.00 L43.00,73.38 M42.55,69.00 L42.10,68.00 M42.58,35.00 L43.00,34.23 M42.65,17.00 L42.67,16.00 M42.66,64.00 L43.00,63.56 M42.67,16.00 L42.96,15.00 M42.69,28.00 L42.46,27.00 M42.70,59.00 L42.23,58.00 M42.76,25.00 L43.00,24.55 M42.80,54.00 L43.00,53.74 M42.85,49.00 L42.37,48.00 M42.86,7.00 L42.89,6.00 M42.89,6.00 L43.00,5.61 M42.89,18.00 L42.65,17.00 M42.91,100.00 L42.18,99.00 M42.96,15.00 L43.00,14.92 M42.96,44.00 L43.00,43.95 M43.00,5.61 L43.20,5.00 M43.00,7.55 L42.86,7.00 M43.00,14.92 L43.60,14.00 M43.00,18.22 L42.89,18.00 M43.00,24.55 L43.36,24.00 M43.00,28.61 L42.69,28.00 M43.00,34.23 L43.15,34.00 M43.00,38.96 L42.52,38.00 M43.00,43.95 L43.95,43.00 M43.00,49.20 L42.85,49.00 M43.00,53.74 L43.74,53.00 M43.00,59.41 L42.70,59.00 M43.00,63.56 L43.56,63.00 M43.00,69.61 L42.55,69.00 M43.00,73.38 L43.38,73.00 M43.00,79.79 L42.42,79.00 M43.00,83.22 L43.22,83.00 M43.00,89.96 L42.30,89.00 M43.00,93.07 L43.07,93.00 M43.00,100.10 L42.91,100.00 M43.02,39.00 L43.00,38.96 M43.04,90.00 L43.00,89.96 M43.07,93.00 L44.00,92.28 M43.12,8.00 L43.00,7.55 M43.15,34.00 L44.00,33.15 M43.20,5.00 L43.88,4.00 M43.20,80.00 L43.00,79.79 M43.22,83.00 L44.00,82.40 M43.23,29.00 L43.00,28.61 M43.36,24.00 L44.00,23.36 M43.37,70.00 L43.00,69.61 M43.38,73.00 L44.00,72.52 M43.47,19.00 L43.00,18.22 M43.55,60.00 L43.00,59.41 M43.56,63.00 L44.00,62.66 M43.60,14.00 L44.00,13.60 M43.74,9.00 L43.12,8.00 M43.74,53.00 L44.00,52.80 M43.75,50.00 L43.00,49.20 M43.88,4.00 L44.00,3.88 M43.95,43.00 L44.00,42.96 M43.97,40.00 L43.02,39.00 M44.00,3.88 L45.00,3.20 M44.00,9.27 L43.74,9.00 M44.00,13.60 L44.92,13.00 M44.00,19.56 L43.47,19.00 M44.00,23.36 L44.55,23.00 M44.00,29.81 L43.23,29.00 M44.00,33.15 L44.23,33.00 M44.00,40.02 L43.97,40.00 M44.00,42.96 L45.00,42.43 M44.00,50.20 L43.75,50.00 M44.00,52.80 L45.00,52.29 M44.00,60.36 L43.55,60.00 M44.00,62.66 L45.00,62.15 M44.00,70.51 L43.37,70.00 M44.00,72.52 L45.00,72.03 M44.00,80.64 L43.20,80.00 M44.00,82.40 L44.82,82.00 M44.00,90.77 L43.04,90.00 M44.00,92.28 L44.57,92.00 M44.00,100.89 L43.00,100.10 M44.22,101.00 L44.00,100.89 M44.23,33.00 L45.00,32.58 M44.28,30.00 L44.00,29.81 M44.45,91.00 L44.00,90.77 M44.55,23.00 L45.00,22.76 M44.57,92.00 L44.45,91.00 M44.63,20.00 L44.00,19.56 M44.70,81.00 L44.00,80.64 M44.82,82.00 L44.70,81.00 M44.92,13.00 L45.00,12.96 M44.97,71.00 L44.00,70.51 M45.00,3.20 L45.61,3.00 M45.00,9.97 L44.00,9.27 M45.00,12.96 L46.00,12.67 M45.00,20.21 L44.63,20.00 M45.00,22.76 L46.00,22.48 M45.00,30.40 L44.28,30.00 M45.00,32.58 L46.00,32.32 M45.00,40.58 L44.00,40.02 M45.00,42.43 L46.00,42.17 M45.00,50.74 L44.00,50.20 M45.00,52.29 L46.00,52.04 M45.00,60.88 L44.00,60.36 M45.00,62.15 L45.63,62.00 M45.00,71.30 L44.97,71.00 M45.00,72.03 L45.13,72.00 M45.00,101.35 L44.22,101.00 M45.08,10.00 L45.00,9.97 M45.13,72.00 L45.00,71.30 M45.46,61.00 L45.00,60.88 M45.61,3.00 L46.00,2.89 M45.63,62.00 L45.46,61.00 M46.00,2.89 L47.00,2.86 M46.00,10.28 L45.08,10.00 M46.00,12.67 L47.00,12.65 M46.00,20.50 L45.00,20.21 M46.00,22.48 L47.00,22.46 M46.00,30.68 L45.00,30.40 M46.00,32.32 L47.00,32.30 M46.00,40.85 L45.00,40.58 M46.00,42.17 L47.00,42.15 M46.00,50.99 L45.00,50.74 M46.00,52.04 L47.00,52.02 M46.00,101.57 L45.00,101.35 M46.33,51.00 L46.00,50.99 M47.00,2.86 L47.55,3.00 M47.00,10.30 L46.00,10.28 M47.00,12.65 L48.00,12.89 M47.00,20.52 L46.00,20.50 M47.00,22.46 L48.00,22.69 M47.00,30.70 L46.00,30.68 M47.00,32.30 L48.00,32.52 M47.00,40.87 L46.00,40.85 M47.00,42.15 L48.00,42.37 M47.00,51.40 L46.33,51.00 M47.00,52.02 L48.00,52.23 M47.00,101.59 L46.00,101.57 M47.06,51.00 L47.00,51.40 M47.53,62.00 L48.00,62.10 M47.55,3.00 L48.00,3.12 M47.72,61.00 L47.53,62.00 M48.00,3.12 L49.00,3.74 M48.00,10.04 L47.00,10.30 M48.00,12.89 L48.22,13.00 M48.00,20.27 L47.00,20.52 M48.00,22.69 L48.61,23.00 M48.00,30.47 L47.00,30.70 M48.00,32.52 L48.96,33.00 M48.00,40.64 L47.00,40.87 M48.00,42.37 L49.00,42.85 M48.00,50.80 L47.06,51.00 M48.00,52.23 L49.00,52.70 M48.00,60.94 L47.72,61.00 M48.00,62.10 L49.00,62.55 M48.00,101.40 L47.00,101.59 M48.06,72.00 L49.00,72.42 M48.09,10.00 L48.00,10.04 M48.17,71.00 L48.06,72.00 M48.22,13.00 L49.00,13.47 M48.33,82.00 L49.00,82.30 M48.45,81.00 L48.33,82.00 M48.53,20.00 L48.00,20.27 M48.59,92.00 L49.00,92.18 M48.61,23.00 L49.00,23.23 M48.72,91.00 L48.59,92.00 M48.91,30.00 L48.00,30.47 M48.96,33.00 L49.00,33.02 M48.97,101.00 L48.00,101.40 M49.00,3.74 L49.27,4.00 M49.00,9.42 L48.09,10.00 M49.00,13.47 L49.56,14.00 M49.00,19.70 L48.53,20.00 M49.00,23.23 L49.81,24.00 M49.00,29.94 L48.91,30.00 M49.00,33.02 L50.00,33.97 M49.00,40.14 L48.00,40.64 M49.00,42.85 L49.20,43.00 M49.00,50.31 L48.00,50.80 M49.00,52.70 L49.41,53.00 M49.00,60.47 L48.00,60.94 M49.00,62.55 L49.61,63.00 M49.00,70.61 L48.17,71.00 M49.00,72.42 L49.79,73.00 M49.00,80.74 L48.45,81.00 M49.00,82.30 L49.96,83.00 M49.00,90.87 L48.72,91.00 M49.00,92.18 L50.00,92.91 M49.00,100.99 L48.97,101.00 M49.18,40.00 L49.00,40.14 M49.20,43.00 L50.00,43.75 M49.27,4.00 L49.97,5.00 M49.41,50.00 L49.00,50.31 M49.41,53.00 L50.00,53.55 M49.42,9.00 L49.00,9.42 M49.56,14.00 L50.00,14.63 M49.61,63.00 L50.00,63.37 M49.61,60.00 L49.00,60.47 M49.70,19.00 L49.00,19.70 M49.79,73.00 L50.00,73.20 M49.80,70.00 L49.00,70.61 M49.81,24.00 L50.00,24.28 M49.94,29.00 L49.00,29.94 M49.96,83.00 L50.00,83.04 M49.97,5.00 L50.00,5.08 M49.98,80.00 L49.00,80.74 M50.00,5.08 L50.28,6.00 M50.00,8.09 L49.42,9.00 M50.00,14.63 L50.21,15.00 M50.00,18.53 L49.70,19.00 M50.00,24.28 L50.40,25.00 M50.00,28.91 L49.94,29.00 M50.00,33.97 L50.02,34.00 M50.00,39.18 L49.18,40.00 M50.00,43.75 L50.20,44.00 M50.00,49.41 L49.41,50.00 M50.00,53.55 L50.36,54.00 M50.00,59.61 L49.61,60.00 M50.00,63.37 L50.51,64.00 M50.00,69.80 L49.80,70.00 M50.00,73.20 L50.64,74.00 M50.00,79.98 L49.98,80.00 M50.00,83.04 L50.77,84.00 M50.00,90.12 L49.00,90.87 M50.00,92.91 L50.10,93.00 M50.00,100.25 L49.00,100.99 M50.02,34.00 L50.58,35.00 M50.04,8.00 L50.00,8.09 M50.10,93.00 L50.89,94.00 M50.12,90.00 L50.00,90.12 M50.14,39.00 L50.00,39.18 M50.20,44.00 L50.74,45.00 M50.21,15.00 L50.50,16.00 M50.25,100.00 L50.00,100.25 M50.27,18.00 L50.00,18.53 M50.28,6.00 L50.30,7.00 M50.30,7.00 L50.04,8.00 M50.31,49.00 L50.00,49.41 M50.36,54.00 L50.88,55.00 M50.40,25.00 L50.68,26.00 M50.47,59.00 L50.00,59.61 M50.47,28.00 L50.00,28.91 M50.50,16.00 L50.52,17.00 M50.51,64.00 L51.00,64.97 M50.52,17.00 L50.27,18.00 M50.58,35.00 L50.85,36.00 M50.61,69.00 L50.00,69.80 M50.64,74.00 L51.00,74.70 M50.64,38.00 L50.14,39.00 M50.68,26.00 L50.70,27.00 M50.70,27.00 L50.47,28.00 M50.74,45.00 L50.99,46.00 M50.74,79.00 L50.00,79.98 M50.77,84.00 L51.00,84.45 M50.80,48.00 L50.31,49.00 M50.85,36.00 L50.87,37.00 M50.87,37.00 L50.64,38.00 M50.87,89.00 L50.12,90.00 M50.88,55.00 L51.00,55.46 M50.89,94.00 L51.00,94.22 M50.94,58.00 L50.47,59.00 M50.99,99.00 L50.25,100.00 M50.99,46.00 L51.00,46.33 M51.00,46.33 L51.40,47.00 M51.00,47.06 L50.80,48.00 M51.00,55.46 L52.00,55.63 M51.00,57.72 L50.94,58.00 M51.00,64.97 L51.30,65.00 M51.00,68.17 L50.61,69.00 M51.00,74.70 L52.00,74.82 M51.00,78.45 L50.74,79.00 M51.00,84.45 L52.00,84.57 M51.00,88.72 L50.87,89.00 M51.00,94.22 L52.00,94.35 M51.00,98.97 L50.99,99.00 M51.30,65.00 L52.00,65.13 M51.40,47.00 L51.00,47.06 M52.00,55.63 L52.15,55.00 M52.00,57.53 L51.00,57.72 M52.00,65.13 L52.03,65.00 M52.00,68.06 L51.00,68.17 M52.00,74.82 L52.40,74.00 M52.00,78.33 L51.00,78.45 M52.00,84.57 L52.28,84.00 M52.00,88.59 L51.00,88.72 M52.00,94.35 L52.17,94.00 M52.00,98.84 L51.00,98.97 M52.02,47.00 L52.04,46.00 M52.03,65.00 L52.52,64.00 M52.04,46.00 L52.29,45.00 M52.07,99.00 L52.00,98.84 M52.10,58.00 L52.00,57.53 M52.15,37.00 L52.17,36.00 M52.15,55.00 L52.66,54.00 M52.17,94.00 L52.93,93.00 M52.17,36.00 L52.43,35.00 M52.18,89.00 L52.00,88.59 M52.23,48.00 L52.02,47.00 M52.28,84.00 L53.00,83.07 M52.29,45.00 L52.80,44.00 M52.30,79.00 L52.00,78.33 M52.30,27.00 L52.32,26.00 M52.32,26.00 L52.58,25.00 M52.37,38.00 L52.15,37.00 M52.40,74.00 L53.00,73.22 M52.42,69.00 L52.00,68.06 M52.43,35.00 L52.96,34.00 M52.46,17.00 L52.48,16.00 M52.48,16.00 L52.76,15.00 M52.52,28.00 L52.30,27.00 M52.52,64.00 L53.00,63.38 M52.55,59.00 L52.10,58.00 M52.58,25.00 L53.00,24.23 M52.65,7.00 L52.67,6.00 M52.66,54.00 L53.00,53.56 M52.67,6.00 L52.96,5.00 M52.69,18.00 L52.46,17.00 M52.70,49.00 L52.23,48.00 M52.76,15.00 L53.00,14.55 M52.78,100.00 L52.07,99.00 M52.80,44.00 L53.00,43.74 M52.85,39.00 L52.37,38.00 M52.89,8.00 L52.65,7.00 M52.91,90.00 L52.18,89.00 M52.93,93.00 L53.00,92.93 M52.96,5.00 L53.00,4.92 M52.96,34.00 L53.00,33.95 M53.00,4.92 L53.60,4.00 M53.00,8.22 L52.89,8.00 M53.00,14.55 L53.36,14.00 M53.00,18.61 L52.69,18.00 M53.00,24.23 L53.15,24.00 M53.00,28.96 L52.52,28.00 M53.00,33.95 L53.95,33.00 M53.00,39.20 L52.85,39.00 M53.00,43.74 L53.74,43.00 M53.00,49.41 L52.70,49.00 M53.00,53.56 L53.56,53.00 M53.00,59.61 L52.55,59.00 M53.00,63.38 L53.38,63.00 M53.00,69.79 L52.42,69.00 M53.00,73.22 L53.22,73.00 M53.00,79.96 L52.30,79.00 M53.00,83.07 L53.07,83.00 M53.00,90.10 L52.91,90.00 M53.00,92.93 L54.00,92.17 M53.00,100.23 L52.78,100.00 M53.02,29.00 L53.00,28.96 M53.04,80.00 L53.00,79.96 M53.07,83.00 L54.00,82.28 M53.15,24.00 L54.00,23.15 M53.20,70.00 L53.00,69.79 M53.22,73.00 L54.00,72.40 M53.23,19.00 L53.00,18.61 M53.36,14.00 L54.00,13.36 M53.37,60.00 L53.00,59.61 M53.38,63.00 L54.00,62.52 M53.47,9.00 L53.00,8.22 M53.55,50.00 L53.00,49.41 M53.56,53.00 L54.00,52.66 M53.60,4.00 L54.00,3.60 M53.74,43.00 L54.00,42.80 M53.75,40.00 L53.00,39.20 M53.95,33.00 L54.00,32.96 M53.97,30.00 L53.02,29.00 M54.00,101.00 L53.00,100.23 M54.00,3.60 L54.92,3.00 M54.00,9.56 L53.47,9.00 M54.00,13.36 L54.55,13.00 M54.00,19.81 L53.23,19.00 M54.00,23.15 L54.23,23.00 M54.00,30.02 L53.97,30.00 M54.00,32.96 L55.00,32.43 M54.00,40.20 L53.75,40.00 M54.00,42.80 L55.00,42.29 M54.00,50.36 L53.55,50.00 M54.00,52.66 L55.00,52.15 M54.00,60.51 L53.37,60.00 M54.00,62.52 L55.00,62.03 M54.00,70.64 L53.20,70.00 M54.00,72.40 L54.82,72.00 M54.00,80.77 L53.04,80.00 M54.00,82.28 L54.57,82.00 M54.00,90.89 L53.00,90.10 M54.00,92.17 L54.35,92.00 M54.00,101.00 L54.00,101.00 M54.22,91.00 L54.00,90.89 M54.23,23.00 L55.00,22.58 M54.28,20.00 L54.00,19.81 M54.35,92.00 L54.22,91.00 M54.45,81.00 L54.00,80.77 M54.55,13.00 L55.00,12.76 M54.57,82.00 L54.45,81.00 M54.63,10.00 L54.00,9.56 M54.70,71.00 L54.00,70.64 M54.82,72.00 L54.70,71.00 M54.92,3.00 L55.00,2.96 M54.97,61.00 L54.00,60.51 M55.00,2.96 L56.00,2.67 M55.00,10.21 L54.63,10.00 M55.00,12.76 L56.00,12.48 M55.00,20.40 L54.28,20.00 M55.00,22.58 L56.00,22.32 M55.00,30.58 L54.00,30.02 M55.00,32.43 L56.00,32.17 M55.00,40.74 L54.00,40.20 M55.00,42.29 L56.00,42.04 M55.00,50.88 L54.00,50.36 M55.00,52.15 L55.63,52.00 M55.00,61.30 L54.97,61.00 M55.00,62.03 L55.13,62.00 M55.00,101.45 L54.00,101.00 M55.13,62.00 L55.00,61.30 M55.46,51.00 L55.00,50.88 M55.63,52.00 L55.46,51.00 M56.00,2.67 L57.00,2.65 M56.00,10.50 L55.00,10.21 M56.00,12.48 L57.00,12.46 M56.00,20.68 L55.00,20.40 M56.00,22.32 L57.00,22.30 M56.00,30.85 L55.00,30.58 M56.00,32.17 L57.00,32.15 M56.00,40.99 L55.00,40.74 M56.00,42.04 L57.00,42.02 M56.00,101.67 L55.00,101.45 M56.33,41.00 L56.00,40.99 M57.00,2.65 L58.00,2.89 M57.00,10.52 L56.00,10.50 M57.00,12.46 L58.00,12.69 M57.00,20.70 L56.00,20.68 M57.00,22.30 L58.00,22.52 M57.00,30.87 L56.00,30.85 M57.00,32.15 L58.00,32.37 M57.00,41.40 L56.33,41.00 M57.00,42.02 L58.00,42.23 M57.00,101.68 L56.00,101.67 M57.06,41.00 L57.00,41.40 M57.53,52.00 L58.00,52.10 M57.72,51.00 L57.53,52.00 M58.00,2.89 L58.22,3.00 M58.00,10.27 L57.00,10.52 M58.00,12.69 L58.61,13.00 M58.00,20.47 L57.00,20.70 M58.00,22.52 L58.96,23.00 M58.00,30.64 L57.00,30.87 M58.00,32.37 L59.00,32.85 M58.00,40.80 L57.06,41.00 M58.00,42.23 L59.00,42.70 M58.00,50.94 L57.72,51.00 M58.00,52.10 L59.00,52.55 M58.00,101.50 L57.00,101.68 M58.06,62.00 L59.00,62.42 M58.17,61.00 L58.06,62.00 M58.22,3.00 L59.00,3.47 M58.33,72.00 L59.00,72.30 M58.45,71.00 L58.33,72.00 M58.53,10.00 L58.00,10.27 M58.59,82.00 L59.00,82.18 M58.61,13.00 L59.00,13.23 M58.72,81.00 L58.59,82.00 M58.84,92.00 L59.00,92.07 M58.91,20.00 L58.00,20.47 M58.96,23.00 L59.00,23.02 M58.97,91.00 L58.84,92.00 M59.00,3.47 L59.56,4.00 M59.00,9.70 L58.53,10.00 M59.00,13.23 L59.81,14.00 M59.00,19.94 L58.91,20.00 M59.00,23.02 L60.00,23.97 M59.00,30.14 L58.00,30.64 M59.00,32.85 L59.20,33.00 M59.00,40.31 L58.00,40.80 M59.00,42.70 L59.41,43.00 M59.00,50.47 L58.00,50.94 M59.00,52.55 L59.61,53.00 M59.00,60.61 L58.17,61.00 M59.00,62.42 L59.79,63.00 M59.00,70.74 L58.45,71.00 M59.00,72.30 L59.96,73.00 M59.00,80.87 L58.72,81.00 M59.00,82.18 L60.00,82.91 M59.00,90.99 L58.97,91.00 M59.00,92.07 L60.00,92.78 M59.00,101.09 L58.00,101.50 M59.15,101.00 L59.00,101.09 M59.18,30.00 L59.00,30.14 M59.20,33.00 L60.00,33.75 M59.41,40.00 L59.00,40.31 M59.41,43.00 L60.00,43.55 M59.56,4.00 L60.00,4.63 M59.61,53.00 L60.00,53.37 M59.61,50.00 L59.00,50.47 M59.70,9.00 L59.00,9.70 M59.79,63.00 L60.00,63.20 M59.80,60.00 L59.00,60.61 M59.81,14.00 L60.00,14.28 M59.94,19.00 L59.00,19.94 M59.96,73.00 L60.00,73.04 M59.98,70.00 L59.00,70.74 M60.00,4.63 L60.21,5.00 M60.00,8.53 L59.70,9.00 M60.00,14.28 L60.40,15.00 M60.00,18.91 L59.94,19.00 M60.00,23.97 L60.02,24.00 M60.00,29.18 L59.18,30.00 M60.00,33.75 L60.20,34.00 M60.00,39.41 L59.41,40.00 M60.00,43.55 L60.36,44.00 M60.00,49.61 L59.61,50.00 M60.00,53.37 L60.51,54.00 M60.00,59.80 L59.80,60.00 M60.00,63.20 L60.64,64.00 M60.00,69.98 L59.98,70.00 M60.00,73.04 L60.77,74.00 M60.00,80.12 L59.00,80.87 M60.00,82.91 L60.10,83.00 M60.00,90.25 L59.00,90.99 M60.00,92.78 L60.23,93.00 M60.00,100.38 L59.15,101.00 M60.02,24.00 L60.58,25.00 M60.10,83.00 L60.89,84.00 M60.12,80.00 L60.00,80.12 M60.14,29.00 L60.00,29.18 M60.20,34.00 L60.74,35.00 M60.21,5.00 L60.50,6.00 M60.23,93.00 L61.00,94.00 M60.25,90.00 L60.00,90.25 M60.27,8.00 L60.00,8.53 M60.31,39.00 L60.00,39.41 M60.36,44.00 L60.88,45.00 M60.38,100.00 L60.00,100.38 M60.40,15.00 L60.68,16.00 M60.47,49.00 L60.00,49.61 M60.47,18.00 L60.00,18.91 M60.50,6.00 L60.52,7.00 M60.51,54.00 L61.00,54.97 M60.52,7.00 L60.27,8.00 M60.58,25.00 L60.85,26.00 M60.61,59.00 L60.00,59.80 M60.64,64.00 L61.00,64.70 M60.64,28.00 L60.14,29.00 M60.68,16.00 L60.70,17.00 M60.70,17.00 L60.47,18.00 M60.74,35.00 L60.99,36.00 M60.74,69.00 L60.00,69.98 M60.77,74.00 L61.00,74.45 M60.80,38.00 L60.31,39.00 M60.85,26.00 L60.87,27.00 M60.87,27.00 L60.64,28.00 M60.87,79.00 L60.12,80.00 M60.88,45.00 L61.00,45.46 M60.89,84.00 L61.00,84.22 M60.94,48.00 L60.47,49.00 M60.99,89.00 L60.25,90.00 M60.99,36.00 L61.00,36.33 M61.00,36.33 L61.40,37.00 M61.00,37.06 L60.80,38.00 M61.00,45.46 L62.00,45.63 M61.00,47.72 L60.94,48.00 M61.00,54.97 L61.30,55.00 M61.00,58.17 L60.61,59.00 M61.00,64.70 L62.00,64.82 M61.00,68.45 L60.74,69.00 M61.00,74.45 L62.00,74.57 M61.00,78.72 L60.87,79.00 M61.00,84.22 L62.00,84.35 M61.00,88.97 L60.99,89.00 M61.00,94.00 L61.01,94.00 M61.00,99.15 L60.38,100.00 M61.01,94.00 L62.00,94.13 M61.30,55.00 L62.00,55.13 M61.40,37.00 L61.00,37.06 M62.00,45.63 L62.15,45.00 M62.00,47.53 L61.00,47.72 M62.00,55.13 L62.03,55.00 M62.00,58.06 L61.00,58.17 M62.00,64.82 L62.40,64.00 M62.00,68.33 L61.00,68.45 M62.00,74.57 L62.28,74.00 M62.00,78.59 L61.00,78.72 M62.00,84.35 L62.17,84.00 M62.00,88.84 L61.00,88.97 M62.00,94.13 L62.06,94.00 M62.00,99.05 L61.00,99.15 M62.02,37.00 L62.04,36.00 M62.03,55.00 L62.52,54.00 M62.04,36.00 L62.29,35.00 M62.06,94.00 L62.81,93.00 M62.07,89.00 L62.00,88.84 M62.10,48.00 L62.00,47.53 M62.15,27.00 L62.17,26.00 M62.15,45.00 L62.66,44.00 M62.17,84.00 L62.93,83.00 M62.17,26.00 L62.43,25.00 M62.18,79.00 L62.00,78.59 M62.23,38.00 L62.02,37.00 M62.28,74.00 L63.00,73.07 M62.29,35.00 L62.80,34.00 M62.30,69.00 L62.00,68.33 M62.30,17.00 L62.32,16.00 M62.32,16.00 L62.58,15.00 M62.37,28.00 L62.15,27.00 M62.40,64.00 L63.00,63.22 M62.42,59.00 L62.00,58.06 M62.43,25.00 L62.96,24.00 M62.46,7.00 L62.48,6.00 M62.48,6.00 L62.76,5.00 M62.52,18.00 L62.30,17.00 M62.52,54.00 L63.00,53.38 M62.55,49.00 L62.10,48.00 M62.58,15.00 L63.00,14.23 M62.66,44.00 L63.00,43.56 M62.67,100.00 L62.00,99.05 M62.69,8.00 L62.46,7.00 M62.70,39.00 L62.23,38.00 M62.76,5.00 L63.00,4.55 M62.78,90.00 L62.07,89.00 M62.80,34.00 L63.00,33.74 M62.81,93.00 L63.00,92.81 M62.85,29.00 L62.37,28.00 M62.91,80.00 L62.18,79.00 M62.93,83.00 L63.00,82.93 M62.96,24.00 L63.00,23.95 M63.00,4.55 L63.36,4.00 M63.00,8.61 L62.69,8.00 M63.00,14.23 L63.15,14.00 M63.00,18.96 L62.52,18.00 M63.00,23.95 L63.95,23.00 M63.00,29.20 L62.85,29.00 M63.00,33.74 L63.74,33.00 M63.00,39.41 L62.70,39.00 M63.00,43.56 L63.56,43.00 M63.00,49.61 L62.55,49.00 M63.00,53.38 L63.38,53.00 M63.00,59.79 L62.42,59.00 M63.00,63.22 L63.22,63.00 M63.00,69.96 L62.30,69.00 M63.00,73.07 L63.07,73.00 M63.00,80.10 L62.91,80.00 M63.00,82.93 L64.00,82.17 M63.00,90.23 L62.78,90.00 M63.00,92.81 L64.00,92.06 M63.00,100.35 L62.67,100.00 M63.02,19.00 L63.00,18.96 M63.04,70.00 L63.00,69.96 M63.07,73.00 L64.00,72.28 M63.15,14.00 L64.00,13.15 M63.20,60.00 L63.00,59.79 M63.22,63.00 L64.00,62.40 M63.23,9.00 L63.00,8.61 M63.36,4.00 L64.00,3.36 M63.37,50.00 L63.00,49.61 M63.38,53.00 L64.00,52.52 M63.55,40.00 L63.00,39.41 M63.56,43.00 L64.00,42.66 M63.74,33.00 L64.00,32.80 M63.75,30.00 L63.00,29.20 M63.84,101.00 L63.00,100.35 M63.95,23.00 L64.00,22.96 M63.97,20.00 L63.02,19.00 M64.00,91.00 L63.00,90.23 M64.00,3.36 L64.55,3.00 M64.00,9.81 L63.23,9.00 M64.00,13.15 L64.23,13.00 M64.00,20.02 L63.97,20.00 M64.00,22.96 L65.00,22.43 M64.00,30.20 L63.75,30.00 M64.00,32.80 L65.00,32.29 M64.00,40.36 L63.55,40.00 M64.00,42.66 L65.00,42.15 M64.00,50.51 L63.37,50.00 M64.00,52.52 L65.00,52.03 M64.00,60.64 L63.20,60.00 M64.00,62.40 L64.82,62.00 M64.00,70.77 L63.04,70.00 M64.00,72.28 L64.57,72.00 M64.00,80.89 L63.00,80.10 M64.00,82.17 L64.35,82.00 M64.00,91.01 L64.00,91.00 M64.00,92.06 L64.13,92.00 M64.00,101.10 L63.84,101.00 M64.13,92.00 L64.00,91.01 M64.22,81.00 L64.00,80.89 M64.23,13.00 L65.00,12.58 M64.28,10.00 L64.00,9.81 M64.35,82.00 L64.22,81.00 M64.45,71.00 L64.00,70.77 M64.55,3.00 L65.00,2.76 M64.57,72.00 L64.45,71.00 M64.70,61.00 L64.00,60.64 M64.82,62.00 L64.70,61.00 M64.97,51.00 L64.00,50.51 M65.00,2.76 L66.00,2.48 M65.00,10.40 L64.28,10.00 M65.00,12.58 L66.00,12.32 M65.00,20.58 L64.00,20.02 M65.00,22.43 L66.00,22.17 M65.00,30.74 L64.00,30.20 M65.00,32.29 L66.00,32.04 M65.00,40.88 L64.00,40.36 M65.00,42.15 L65.63,42.00 M65.00,51.30 L64.97,51.00 M65.00,52.03 L65.13,52.00 M65.00,101.54 L64.00,101.10 M65.13,52.00 L65.00,51.30 M65.46,41.00 L65.00,40.88 M65.63,42.00 L65.46,41.00 M66.00,2.48 L67.00,2.46 M66.00,10.68 L65.00,10.40 M66.00,12.32 L67.00,12.30 M66.00,20.85 L65.00,20.58 M66.00,22.17 L67.00,22.15 M66.00,30.99 L65.00,30.74 M66.00,32.04 L67.00,32.02 M66.00,101.76 L65.00,101.54 M66.33,31.00 L66.00,30.99 M67.00,2.46 L68.00,2.69 M67.00,10.70 L66.00,10.68 M67.00,12.30 L68.00,12.52 M67.00,20.87 L66.00,20.85 M67.00,22.15 L68.00,22.37 M67.00,31.40 L66.33,31.00 M67.00,32.02 L68.00,32.23 M67.00,101.77 L66.00,101.76 M67.06,31.00 L67.00,31.40 M67.53,42.00 L68.00,42.10 M67.72,41.00 L67.53,42.00 M68.00,2.69 L68.61,3.00 M68.00,10.47 L67.00,10.70 M68.00,12.52 L68.96,13.00 M68.00,20.64 L67.00,20.87 M68.00,22.37 L69.00,22.85 M68.00,30.80 L67.06,31.00 M68.00,32.23 L69.00,32.70 M68.00,40.94 L67.72,41.00 M68.00,42.10 L69.00,42.55 M68.00,101.59 L67.00,101.77 M68.06,52.00 L69.00,52.42 M68.17,51.00 L68.06,52.00 M68.33,62.00 L69.00,62.30 M68.45,61.00 L68.33,62.00 M68.59,72.00 L69.00,72.18 M68.61,3.00 L69.00,3.23 M68.72,71.00 L68.59,72.00 M68.84,82.00 L69.00,82.07 M68.91,10.00 L68.00,10.47 M68.96,13.00 L69.00,13.02 M68.97,81.00 L68.84,82.00 M69.00,3.23 L69.81,4.00 M69.00,9.94 L68.91,10.00 M69.00,13.02 L70.00,13.97 M69.00,20.14 L68.00,20.64 M69.00,22.85 L69.20,23.00 M69.00,30.31 L68.00,30.80 M69.00,32.70 L69.41,33.00 M69.00,40.47 L68.00,40.94 M69.00,42.55 L69.61,43.00 M69.00,50.61 L68.17,51.00 M69.00,52.42 L69.79,53.00 M69.00,60.74 L68.45,61.00 M69.00,62.30 L69.96,63.00 M69.00,70.87 L68.72,71.00 M69.00,72.18 L70.00,72.91 M69.00,80.99 L68.97,81.00 M69.00,82.07 L70.00,82.78 M69.00,101.19 L68.00,101.59 M69.05,92.00 L70.00,92.67 M69.15,91.00 L69.05,92.00 M69.18,20.00 L69.00,20.14 M69.20,23.00 L70.00,23.75 M69.31,101.00 L69.00,101.19 M69.41,30.00 L69.00,30.31 M69.41,33.00 L70.00,33.55 M69.61,43.00 L70.00,43.37 M69.61,40.00 L69.00,40.47 M69.79,53.00 L70.00,53.20 M69.80,50.00 L69.00,50.61 M69.81,4.00 L70.00,4.28 M69.94,9.00 L69.00,9.94 M69.96,63.00 L70.00,63.04 M69.98,60.00 L69.00,60.74 M70.00,4.28 L70.40,5.00 M70.00,8.91 L69.94,9.00 M70.00,13.97 L70.02,14.00 M70.00,19.18 L69.18,20.00 M70.00,23.75 L70.20,24.00 M70.00,29.41 L69.41,30.00 M70.00,33.55 L70.36,34.00 M70.00,39.61 L69.61,40.00 M70.00,43.37 L70.51,44.00 M70.00,49.80 L69.80,50.00 M70.00,53.20 L70.64,54.00 M70.00,59.98 L69.98,60.00 M70.00,63.04 L70.77,64.00 M70.00,70.12 L69.00,70.87 M70.00,72.91 L70.10,73.00 M70.00,80.25 L69.00,80.99 M70.00,82.78 L70.23,83.00 M70.00,90.38 L69.15,91.00 M70.00,92.67 L70.35,93.00 M70.00,100.50 L69.31,101.00 M70.02,14.00 L70.58,15.00 M70.10,73.00 L70.89,74.00 M70.12,70.00 L70.00,70.12 M70.14,19.00 L70.00,19.18 M70.20,24.00 L70.74,25.00 M70.23,83.00 L71.00,84.00 M70.25,80.00 L70.00,80.25 M70.31,29.00 L70.00,29.41 M70.35,93.00 L71.00,93.84 M70.36,34.00 L70.88,35.00 M70.38,90.00 L70.00,90.38 M70.40,5.00 L70.68,6.00 M70.47,39.00 L70.00,39.61 M70.47,8.00 L70.00,8.91 M70.50,100.00 L70.00,100.50 M70.51,44.00 L71.00,44.97 M70.58,15.00 L70.85,16.00 M70.61,49.00 L70.00,49.80 M70.64,54.00 L71.00,54.70 M70.64,18.00 L70.14,19.00 M70.68,6.00 L70.70,7.00 M70.70,7.00 L70.47,8.00 M70.74,25.00 L70.99,26.00 M70.74,59.00 L70.00,59.98 M70.77,64.00 L71.00,64.45 M70.80,28.00 L70.31,29.00 M70.85,16.00 L70.87,17.00 M70.87,17.00 L70.64,18.00 M70.87,69.00 L70.12,70.00 M70.88,35.00 L71.00,35.46 M70.89,74.00 L71.00,74.22 M70.94,38.00 L70.47,39.00 M70.99,79.00 L70.25,80.00 M70.99,26.00 L71.00,26.33 M71.00,26.33 L71.40,27.00 M71.00,27.06 L70.80,28.00 M71.00,35.46 L72.00,35.63 M71.00,37.72 L70.94,38.00 M71.00,44.97 L71.30,45.00 M71.00,48.17 L70.61,49.00 M71.00,54.70 L72.00,54.82 M71.00,58.45 L70.74,59.00 M71.00,64.45 L72.00,64.57 M71.00,68.72 L70.87,69.00 M71.00,74.22 L72.00,74.35 M71.00,78.97 L70.99,79.00 M71.00,84.00 L71.01,84.00 M71.00,89.15 L70.38,90.00 M71.00,93.84 L72.00,93.94 M71.00,99.31 L70.50,100.00 M71.01,84.00 L72.00,84.13 M71.30,45.00 L72.00,45.13 M71.40,27.00 L71.00,27.06 M72.00,35.63 L72.15,35.00 M72.00,37.53 L71.00,37.72 M72.00,45.13 L72.03,45.00 M72.00,48.06 L71.00,48.17 M72.00,54.82 L72.40,54.00 M72.00,58.33 L71.00,58.45 M72.00,64.57 L72.28,64.00 M72.00,68.59 L71.00,68.72 M72.00,74.35 L72.17,74.00 M72.00,78.84 L71.00,78.97 M72.00,84.13 L72.06,84.00 M72.00,89.05 L71.00,89.15 M72.00,93.94 L72.70,93.00 M72.00,99.21 L71.00,99.31 M72.02,27.00 L72.04,26.00 M72.03,45.00 L72.52,44.00 M72.04,26.00 L72.29,25.00 M72.06,84.00 L72.81,83.00 M72.07,79.00 L72.00,78.84 M72.10,38.00 L72.00,37.53 M72.15,17.00 L72.17,16.00 M72.15,35.00 L72.66,34.00 M72.17,74.00 L72.93,73.00 M72.17,16.00 L72.43,15.00 M72.18,69.00 L72.00,68.59 M72.23,28.00 L72.02,27.00 M72.28,64.00 L73.00,63.07 M72.29,25.00 L72.80,24.00 M72.30,59.00 L72.00,58.33 M72.30,7.00 L72.32,6.00 M72.32,6.00 L72.58,5.00 M72.37,18.00 L72.15,17.00 M72.40,54.00 L73.00,53.22 M72.42,49.00 L72.00,48.06 M72.43,15.00 L72.96,14.00 M72.52,8.00 L72.30,7.00 M72.52,44.00 L73.00,43.38 M72.55,39.00 L72.10,38.00 M72.56,100.00 L72.00,99.21 M72.58,5.00 L73.00,4.23 M72.66,34.00 L73.00,33.56 M72.67,90.00 L72.00,89.05 M72.70,29.00 L72.23,28.00 M72.70,93.00 L73.00,92.70 M72.78,80.00 L72.07,79.00 M72.80,24.00 L73.00,23.74 M72.81,83.00 L73.00,82.81 M72.85,19.00 L72.37,18.00 M72.91,70.00 L72.18,69.00 M72.93,73.00 L73.00,72.93 M72.96,14.00 L73.00,13.95 M73.00,4.23 L73.15,4.00 M73.00,8.96 L72.52,8.00 M73.00,13.95 L73.95,13.00 M73.00,19.20 L72.85,19.00 M73.00,23.74 L73.74,23.00 M73.00,29.41 L72.70,29.00 M73.00,33.56 L73.56,33.00 M73.00,39.61 L72.55,39.00 M73.00,43.38 L73.38,43.00 M73.00,49.79 L72.42,49.00 M73.00,53.22 L73.22,53.00 M73.00,59.96 L72.30,59.00 M73.00,63.07 L73.07,63.00 M73.00,70.10 L72.91,70.00 M73.00,72.93 L74.00,72.17 M73.00,80.23 L72.78,80.00 M73.00,82.81 L74.00,82.06 M73.00,90.35 L72.67,90.00 M73.00,92.70 L73.94,92.00 M73.00,100.46 L72.56,100.00 M73.02,9.00 L73.00,8.96 M73.04,60.00 L73.00,59.96 M73.07,63.00 L74.00,62.28 M73.15,4.00 L74.00,3.15 M73.20,50.00 L73.00,49.79 M73.22,53.00 L74.00,52.40 M73.37,40.00 L73.00,39.61 M73.38,43.00 L74.00,42.52 M73.55,30.00 L73.00,29.41 M73.56,33.00 L74.00,32.66 M73.69,101.00 L73.00,100.46 M73.74,23.00 L74.00,22.80 M73.75,20.00 L73.00,19.20 M73.84,91.00 L73.00,90.35 M73.94,92.00 L73.84,91.00 M73.95,13.00 L74.00,12.96 M73.97,10.00 L73.02,9.00 M74.00,81.00 L73.00,80.23 M74.00,3.15 L74.23,3.00 M74.00,10.02 L73.97,10.00 M74.00,12.96 L75.00,12.43 M74.00,20.20 L73.75,20.00 M74.00,22.80 L75.00,22.29 M74.00,30.36 L73.55,30.00 M74.00,32.66 L75.00,32.15 M74.00,40.51 L73.37,40.00 M74.00,42.52 L75.00,42.03 M74.00,50.64 L73.20,50.00 M74.00,52.40 L74.82,52.00 M74.00,60.77 L73.04,60.00 M74.00,62.28 L74.57,62.00 M74.00,70.89 L73.00,70.10 M74.00,72.17 L74.35,72.00 M74.00,81.01 L74.00,81.00 M74.00,82.06 L74.13,82.00 M74.00,101.20 L73.69,101.00 M74.13,82.00 L74.00,81.01 M74.22,71.00 L74.00,70.89 M74.23,3.00 L75.00,2.58 M74.35,72.00 L74.22,71.00 M74.45,61.00 L74.00,60.77 M74.57,62.00 L74.45,61.00 M74.70,51.00 L74.00,50.64 M74.82,52.00 L74.70,51.00 M74.97,41.00 L74.00,40.51 M75.00,2.58 L76.00,2.32 M75.00,10.58 L74.00,10.02 M75.00,12.43 L76.00,12.17 M75.00,20.74 L74.00,20.20 M75.00,22.29 L76.00,22.04 M75.00,30.88 L74.00,30.36 M75.00,32.15 L75.63,32.00 M75.00,41.30 L74.97,41.00 M75.00,42.03 L75.13,42.00 M75.00,101.63 L74.00,101.20 M75.13,42.00 L75.00,41.30 M75.46,31.00 L75.00,30.88 M75.63,32.00 L75.46,31.00 M76.00,2.32 L77.00,2.30 M76.00,10.85 L75.00,10.58 M76.00,12.17 L77.00,12.15 M76.00,20.99 L75.00,20.74 M76.00,22.04 L77.00,22.02 M76.00,101.84 L75.00,101.63 M76.33,21.00 L76.00,20.99 M77.00,2.30 L78.00,2.52 M77.00,10.87 L76.00,10.85 M77.00,12.15 L78.00,12.37 M77.00,21.40 L76.33,21.00 M77.00,22.02 L78.00,22.23 M77.00,101.86 L76.00,101.84 M77.06,21.00 L77.00,21.40 M77.53,32.00 L78.00,32.10 M77.72,31.00 L77.53,32.00 M78.00,2.52 L78.96,3.00 M78.00,10.64 L77.00,10.87 M78.00,12.37 L79.00,12.85 M78.00,20.80 L77.06,21.00 M78.00,22.23 L79.00,22.70 M78.00,30.94 L77.72,31.00 M78.00,32.10 L79.00,32.55 M78.00,101.68 L77.00,101.86 M78.06,42.00 L79.00,42.42 M78.17,41.00 L78.06,42.00 M78.33,52.00 L79.00,52.30 M78.45,51.00 L78.33,52.00 M78.59,62.00 L79.00,62.18 M78.72,61.00 L78.59,62.00 M78.84,72.00 L79.00,72.07 M78.96,3.00 L79.00,3.02 M78.97,71.00 L78.84,72.00 M79.00,3.02 L80.00,3.97 M79.00,10.14 L78.00,10.64 M79.00,12.85 L79.20,13.00 M79.00,20.31 L78.00,20.80 M79.00,22.70 L79.41,23.00 M79.00,30.47 L78.00,30.94 M79.00,32.55 L79.61,33.00 M79.00,40.61 L78.17,41.00 M79.00,42.42 L79.79,43.00 M79.00,50.74 L78.45,51.00 M79.00,52.30 L79.96,53.00 M79.00,60.87 L78.72,61.00 M79.00,62.18 L80.00,62.91 M79.00,70.99 L78.97,71.00 M79.00,72.07 L80.00,72.78 M79.00,101.29 L78.00,101.68 M79.05,82.00 L80.00,82.67 M79.15,81.00 L79.05,82.00 M79.18,10.00 L79.00,10.14 M79.20,13.00 L80.00,13.75 M79.21,92.00 L80.00,92.56 M79.31,91.00 L79.21,92.00 M79.41,20.00 L79.00,20.31 M79.41,23.00 L80.00,23.55 M79.47,101.00 L79.00,101.29 M79.61,33.00 L80.00,33.37 M79.61,30.00 L79.00,30.47 M79.79,43.00 L80.00,43.20 M79.80,40.00 L79.00,40.61 M79.96,53.00 L80.00,53.04 M79.98,50.00 L79.00,50.74 M80.00,3.97 L80.02,4.00 M80.00,9.18 L79.18,10.00 M80.00,13.75 L80.20,14.00 M80.00,19.41 L79.41,20.00 M80.00,23.55 L80.36,24.00 M80.00,29.61 L79.61,30.00 M80.00,33.37 L80.51,34.00 M80.00,39.80 L79.80,40.00 M80.00,43.20 L80.64,44.00 M80.00,49.98 L79.98,50.00 M80.00,53.04 L80.77,54.00 M80.00,60.12 L79.00,60.87 M80.00,62.91 L80.10,63.00 M80.00,70.25 L79.00,70.99 M80.00,72.78 L80.23,73.00 M80.00,80.38 L79.15,81.00 M80.00,82.67 L80.35,83.00 M80.00,90.50 L79.31,91.00 M80.00,92.56 L80.46,93.00 M80.00,100.61 L79.47,101.00 M80.02,4.00 L80.58,5.00 M80.10,63.00 L80.89,64.00 M80.12,60.00 L80.00,60.12 M80.14,9.00 L80.00,9.18 M80.20,14.00 L80.74,15.00 M80.23,73.00 L81.00,74.00 M80.25,70.00 L80.00,70.25 M80.31,19.00 L80.00,19.41 M80.35,83.00 L81.00,83.84 M80.36,24.00 L80.88,25.00 M80.38,80.00 L80.00,80.38 M80.46,93.00 L81.00,93.69 M80.47,29.00 L80.00,29.61 M80.50,90.00 L80.00,90.50 M80.51,34.00 L81.00,34.97 M80.58,5.00 L80.85,6.00 M80.61,100.00 L80.00,100.61 M80.61,39.00 L80.00,39.80 M80.64,44.00 L81.00,44.70 M80.64,8.00 L80.14,9.00 M80.74,15.00 L80.99,16.00 M80.74,49.00 L80.00,49.98 M80.77,54.00 L81.00,54.45 M80.80,18.00 L80.31,19.00 M80.85,6.00 L80.87,7.00 M80.87,7.00 L80.64,8.00 M80.87,59.00 L80.12,60.00 M80.88,25.00 L81.00,25.46 M80.89,64.00 L81.00,64.22 M80.94,28.00 L80.47,29.00 M80.99,69.00 L80.25,70.00 M80.99,16.00 L81.00,16.33 M81.00,16.33 L81.40,17.00 M81.00,17.06 L80.80,18.00 M81.00,25.46 L82.00,25.63 M81.00,27.72 L80.94,28.00 M81.00,34.97 L81.30,35.00 M81.00,38.17 L80.61,39.00 M81.00,44.70 L82.00,44.82 M81.00,48.45 L80.74,49.00 M81.00,54.45 L82.00,54.57 M81.00,58.72 L80.87,59.00 M81.00,64.22 L82.00,64.35 M81.00,68.97 L80.99,69.00 M81.00,74.00 L81.01,74.00 M81.00,79.15 L80.38,80.00 M81.00,83.84 L82.00,83.94 M81.00,89.31 L80.50,90.00 M81.00,93.69 L82.00,93.80 M81.00,99.47 L80.61,100.00 M81.01,74.00 L82.00,74.13 M81.30,35.00 L82.00,35.13 M81.40,17.00 L81.00,17.06 M82.00,25.63 L82.15,25.00 M82.00,27.53 L81.00,27.72 M82.00,35.13 L82.03,35.00 M82.00,38.06 L81.00,38.17 M82.00,44.82 L82.40,44.00 M82.00,48.33 L81.00,48.45 M82.00,54.57 L82.28,54.00 M82.00,58.59 L81.00,58.72 M82.00,64.35 L82.17,64.00 M82.00,68.84 L81.00,68.97 M82.00,74.13 L82.06,74.00 M82.00,79.05 L81.00,79.15 M82.00,83.94 L82.70,83.00 M82.00,89.21 L81.00,89.31 M82.00,93.80 L82.59,93.00 M82.00,99.36 L81.00,99.47 M82.02,17.00 L82.04,16.00 M82.03,35.00 L82.52,34.00 M82.04,16.00 L82.29,15.00 M82.06,74.00 L82.81,73.00 M82.07,69.00 L82.00,68.84 M82.10,28.00 L82.00,27.53 M82.15,7.00 L82.17,6.00 M82.15,25.00 L82.66,24.00 M82.17,64.00 L82.93,63.00 M82.17,6.00 L82.43,5.00 M82.18,59.00 L82.00,58.59 M82.23,18.00 L82.02,17.00 M82.28,54.00 L83.00,53.07 M82.29,15.00 L82.80,14.00 M82.30,49.00 L82.00,48.33 M82.37,8.00 L82.15,7.00 M82.40,44.00 L83.00,43.22 M82.42,39.00 L82.00,38.06 M82.43,5.00 L82.96,4.00 M82.45,100.00 L82.00,99.36 M82.52,34.00 L83.00,33.38 M82.55,29.00 L82.10,28.00 M82.56,90.00 L82.00,89.21 M82.59,93.00 L83.00,92.59 M82.66,24.00 L83.00,23.56 M82.67,80.00 L82.00,79.05 M82.70,19.00 L82.23,18.00 M82.70,83.00 L83.00,82.70 M82.78,70.00 L82.07,69.00 M82.80,14.00 L83.00,13.74 M82.81,73.00 L83.00,72.81 M82.85,9.00 L82.37,8.00 M82.91,60.00 L82.18,59.00 M82.93,63.00 L83.00,62.93 M82.96,4.00 L83.00,3.95 M83.00,3.95 L83.95,3.00 M83.00,9.20 L82.85,9.00 M83.00,13.74 L83.74,13.00 M83.00,19.41 L82.70,19.00 M83.00,23.56 L83.56,23.00 M83.00,29.61 L82.55,29.00 M83.00,33.38 L83.38,33.00 M83.00,39.79 L82.42,39.00 M83.00,43.22 L83.22,43.00 M83.00,49.96 L82.30,49.00 M83.00,53.07 L83.07,53.00 M83.00,60.10 L82.91,60.00 M83.00,62.93 L84.00,62.17 M83.00,70.23 L82.78,70.00 M83.00,72.81 L84.00,72.06 M83.00,80.35 L82.67,80.00 M83.00,82.70 L83.94,82.00 M83.00,90.46 L82.56,90.00 M83.00,92.59 L83.80,92.00 M83.00,100.57 L82.45,100.00 M83.04,50.00 L83.00,49.96 M83.07,53.00 L84.00,52.28 M83.20,40.00 L83.00,39.79 M83.22,43.00 L84.00,42.40 M83.37,30.00 L83.00,29.61 M83.38,33.00 L84.00,32.52 M83.55,20.00 L83.00,19.41 M83.55,101.00 L83.00,100.57 M83.56,23.00 L84.00,22.66 M83.69,91.00 L83.00,90.46 M83.74,13.00 L84.00,12.80 M83.75,10.00 L83.00,9.20 M83.80,92.00 L83.69,91.00 M83.84,81.00 L83.00,80.35 M83.94,82.00 L83.84,81.00 M83.95,3.00 L84.00,2.96 M84.00,71.00 L83.00,70.23 M84.00,2.96 L85.00,2.43 M84.00,10.20 L83.75,10.00 M84.00,12.80 L85.00,12.29 M84.00,20.36 L83.55,20.00 M84.00,22.66 L85.00,22.15 M84.00,30.51 L83.37,30.00 M84.00,32.52 L85.00,32.03 M84.00,40.64 L83.20,40.00 M84.00,42.40 L84.82,42.00 M84.00,50.77 L83.04,50.00 M84.00,52.28 L84.57,52.00 M84.00,60.89 L83.00,60.10 M84.00,62.17 L84.35,62.00 M84.00,71.01 L84.00,71.00 M84.00,72.06 L84.13,72.00 M84.00,101.29 L83.55,101.00 M84.13,72.00 L84.00,71.01 M84.22,61.00 L84.00,60.89 M84.35,62.00 L84.22,61.00 M84.45,51.00 L84.00,50.77 M84.57,52.00 L84.45,51.00 M84.70,41.00 L84.00,40.64 M84.82,42.00 L84.70,41.00 M84.97,31.00 L84.00,30.51 M85.00,2.43 L86.00,2.17 M85.00,10.74 L84.00,10.20 M85.00,12.29 L86.00,12.04 M85.00,20.88 L84.00,20.36 M85.00,22.15 L85.63,22.00 M85.00,31.30 L84.97,31.00 M85.00,32.03 L85.13,32.00 M85.00,101.71 L84.00,101.29 M85.13,32.00 L85.00,31.30 M85.46,21.00 L85.00,20.88 M85.63,22.00 L85.46,21.00 M86.00,2.17 L87.00,2.15 M86.00,10.99 L85.00,10.74 M86.00,12.04 L87.00,12.02 M86.00,101.92 L85.00,101.71 M86.33,11.00 L86.00,10.99 M87.00,2.15 L88.00,2.37 M87.00,11.40 L86.33,11.00 M87.00,12.02 L88.00,12.23 M87.00,101.94 L86.00,101.92 M87.06,11.00 L87.00,11.40 M87.53,22.00 L88.00,22.10 M87.72,21.00 L87.53,22.00 M88.00,2.37 L89.00,2.85 M88.00,10.80 L87.06,11.00 M88.00,12.23 L89.00,12.70 M88.00,20.94 L87.72,21.00 M88.00,22.10 L89.00,22.55 M88.00,101.76 L87.00,101.94 M88.06,32.00 L89.00,32.42 M88.17,31.00 L88.06,32.00 M88.33,42.00 L89.00,42.30 M88.45,41.00 L88.33,42.00 M88.59,52.00 L89.00,52.18 M88.72,51.00 L88.59,52.00 M88.84,62.00 L89.00,62.07 M88.97,61.00 L88.84,62.00 M89.00,2.85 L89.20,3.00 M89.00,10.31 L88.00,10.80 M89.00,12.70 L89.41,13.00 M89.00,20.47 L88.00,20.94 M89.00,22.55 L89.61,23.00 M89.00,30.61 L88.17,31.00 M89.00,32.42 L89.79,33.00 M89.00,40.74 L88.45,41.00 M89.00,42.30 L89.96,43.00 M89.00,50.87 L88.72,51.00 M89.00,52.18 L90.00,52.91 M89.00,60.99 L88.97,61.00 M89.00,62.07 L90.00,62.78 M89.00,101.38 L88.00,101.76 M89.05,72.00 L90.00,72.67 M89.15,71.00 L89.05,72.00 M89.20,3.00 L90.00,3.75 M89.21,82.00 L90.00,82.56 M89.31,81.00 L89.21,82.00 M89.36,92.00 L90.00,92.45 M89.41,10.00 L89.00,10.31 M89.41,13.00 L90.00,13.55 M89.47,91.00 L89.36,92.00 M89.61,23.00 L90.00,23.37 M89.61,101.00 L89.00,101.38 M89.61,20.00 L89.00,20.47 M89.79,33.00 L90.00,33.20 M89.80,30.00 L89.00,30.61 M89.96,43.00 L90.00,43.04 M89.98,40.00 L89.00,40.74 M90.00,3.75 L90.20,4.00 M90.00,9.41 L89.41,10.00 M90.00,13.55 L90.36,14.00 M90.00,19.61 L89.61,20.00 M90.00,23.37 L90.51,24.00 M90.00,29.80 L89.80,30.00 M90.00,33.20 L90.64,34.00 M90.00,39.98 L89.98,40.00 M90.00,43.04 L90.77,44.00 M90.00,50.12 L89.00,50.87 M90.00,52.91 L90.10,53.00 M90.00,60.25 L89.00,60.99 M90.00,62.78 L90.23,63.00 M90.00,70.38 L89.15,71.00 M90.00,72.67 L90.35,73.00 M90.00,80.50 L89.31,81.00 M90.00,82.56 L90.46,83.00 M90.00,90.61 L89.47,91.00 M90.00,92.45 L90.57,93.00 M90.00,100.72 L89.61,101.00 M90.10,53.00 L90.89,54.00 M90.12,50.00 L90.00,50.12 M90.20,4.00 L90.74,5.00 M90.23,63.00 L91.00,64.00 M90.25,60.00 L90.00,60.25 M90.31,9.00 L90.00,9.41 M90.35,73.00 L91.00,73.84 M90.36,14.00 L90.88,15.00 M90.38,70.00 L90.00,70.38 M90.46,83.00 L91.00,83.69 M90.47,19.00 L90.00,19.61 M90.50,80.00 L90.00,80.50 M90.51,24.00 L91.00,24.97 M90.57,93.00 L91.00,93.55 M90.61,90.00 L90.00,90.61 M90.61,29.00 L90.00,29.80 M90.64,34.00 L91.00,34.70 M90.72,100.00 L90.00,100.72 M90.74,5.00 L90.99,6.00 M90.74,39.00 L90.00,39.98 M90.77,44.00 L91.00,44.45 M90.80,8.00 L90.31,9.00 M90.87,49.00 L90.12,50.00 M90.88,15.00 L91.00,15.46 M90.89,54.00 L91.00,54.22 M90.94,18.00 L90.47,19.00 M90.99,59.00 L90.25,60.00 M90.99,6.00 L91.00,6.33 M91.00,6.33 L91.40,7.00 M91.00,7.06 L90.80,8.00 M91.00,15.46 L92.00,15.63 M91.00,17.72 L90.94,18.00 M91.00,24.97 L91.30,25.00 M91.00,28.17 L90.61,29.00 M91.00,34.70 L92.00,34.82 M91.00,38.45 L90.74,39.00 M91.00,44.45 L92.00,44.57 M91.00,48.72 L90.87,49.00 M91.00,54.22 L92.00,54.35 M91.00,58.97 L90.99,59.00 M91.00,64.00 L91.01,64.00 M91.00,69.15 L90.38,70.00 M91.00,73.84 L92.00,73.94 M91.00,79.31 L90.50,80.00 M91.00,83.69 L92.00,83.80 M91.00,89.47 L90.61,90.00 M91.00,93.55 L92.00,93.66 M91.00,99.61 L90.72,100.00 M91.01,64.00 L92.00,64.13 M91.30,25.00 L92.00,25.13 M91.40,7.00 L91.00,7.06 M92.00,15.63 L92.15,15.00 M92.00,17.53 L91.00,17.72 M92.00,25.13 L92.03,25.00 M92.00,28.06 L91.00,28.17 M92.00,34.82 L92.40,34.00 M92.00,38.33 L91.00,38.45 M92.00,44.57 L92.28,44.00 M92.00,48.59 L91.00,48.72 M92.00,54.35 L92.17,54.00 M92.00,58.84 L91.00,58.97 M92.00,64.13 L92.06,64.00 M92.00,69.05 L91.00,69.15 M92.00,73.94 L92.70,73.00 M92.00,79.21 L91.00,79.31 M92.00,83.80 L92.59,83.00 M92.00,89.36 L91.00,89.47 M92.00,93.66 L92.49,93.00 M92.00,99.50 L91.00,99.61 M92.02,7.00 L92.04,6.00 M92.03,25.00 L92.52,24.00 M92.04,6.00 L92.29,5.00 M92.06,64.00 L92.81,63.00 M92.07,59.00 L92.00,58.84 M92.10,18.00 L92.00,17.53 M92.15,15.00 L92.66,14.00 M92.17,54.00 L92.93,53.00 M92.18,49.00 L92.00,48.59 M92.23,8.00 L92.02,7.00 M92.28,44.00 L93.00,43.07 M92.29,5.00 L92.80,4.00 M92.30,39.00 L92.00,38.33 M92.35,100.00 L92.00,99.50 M92.40,34.00 L93.00,33.22 M92.42,29.00 L92.00,28.06 M92.45,90.00 L92.00,89.36 M92.49,93.00 L93.00,92.49 M92.52,24.00 L93.00,23.38 M92.55,19.00 L92.10,18.00 M92.56,80.00 L92.00,79.21 M92.59,83.00 L93.00,82.59 M92.66,14.00 L93.00,13.56 M92.67,70.00 L92.00,69.05 M92.70,9.00 L92.23,8.00 M92.70,73.00 L93.00,72.70 M92.78,60.00 L92.07,59.00 M92.80,4.00 L93.00,3.74 M92.81,63.00 L93.00,62.81 M92.91,50.00 L92.18,49.00 M92.93,53.00 L93.00,52.93 M93.00,3.74 L93.74,3.00 M93.00,9.41 L92.70,9.00 M93.00,13.56 L93.56,13.00 M93.00,19.61 L92.55,19.00 M93.00,23.38 L93.38,23.00 M93.00,29.79 L92.42,29.00 M93.00,33.22 L93.22,33.00 M93.00,39.96 L92.30,39.00 M93.00,43.07 L93.07,43.00 M93.00,50.10 L92.91,50.00 M93.00,52.93 L94.00,52.17 M93.00,60.23 L92.78,60.00 M93.00,62.81 L94.00,62.06 M93.00,70.35 L92.67,70.00 M93.00,72.70 L93.94,72.00 M93.00,80.46 L92.56,80.00 M93.00,82.59 L93.80,82.00 M93.00,90.57 L92.45,90.00 M93.00,92.49 L93.66,92.00 M93.00,100.68 L92.35,100.00 M93.04,40.00 L93.00,39.96 M93.07,43.00 L94.00,42.28 M93.20,30.00 L93.00,29.79 M93.22,33.00 L94.00,32.40 M93.37,20.00 L93.00,19.61 M93.38,23.00 L94.00,22.52 M93.42,101.00 L93.00,100.68 M93.55,10.00 L93.00,9.41 M93.55,91.00 L93.00,90.57 M93.56,13.00 L94.00,12.66 M93.66,92.00 L93.55,91.00 M93.69,81.00 L93.00,80.46 M93.74,3.00 L94.00,2.80 M93.80,82.00 L93.69,81.00 M93.84,71.00 L93.00,70.35 M93.94,72.00 L93.84,71.00 M94.00,61.00 L93.00,60.23 M94.00,2.80 L95.00,2.29 M94.00,10.36 L93.55,10.00 M94.00,12.66 L95.00,12.15 M94.00,20.51 L93.37,20.00 M94.00,22.52 L95.00,22.03 M94.00,30.64 L93.20,30.00 M94.00,32.40 L94.82,32.00 M94.00,40.77 L93.04,40.00 M94.00,42.28 L94.57,42.00 M94.00,50.89 L93.00,50.10 M94.00,52.17 L94.35,52.00 M94.00,61.01 L94.00,61.00 M94.00,62.06 L94.13,62.00 M94.00,101.38 L93.42,101.00 M94.13,62.00 L94.00,61.01 M94.22,51.00 L94.00,50.89 M94.35,52.00 L94.22,51.00 M94.45,41.00 L94.00,40.77 M94.57,42.00 L94.45,41.00 M94.70,31.00 L94.00,30.64 M94.82,32.00 L94.70,31.00 M94.97,21.00 L94.00,20.51 M95.00,2.29 L96.00,2.04 M95.00,10.88 L94.00,10.36 M95.00,12.15 L95.63,12.00 M95.00,21.30 L94.97,21.00 M95.00,22.03 L95.13,22.00 M95.00,101.80 L94.00,101.38 M95.13,22.00 L95.00,21.30 M95.46,11.00 L95.00,10.88 M95.63,12.00 L95.46,11.00 M96.00,102.00 L95.00,101.80 M96.00,2.04 L97.00,2.02 M96.00,102.00 L96.00,102.00 M97.00,2.02 L98.00,2.23 M97.00,102.02 L96.00,102.00 M97.10,102.00 L97.00,102.02 M97.53,12.00 L98.00,12.10 M97.72,11.00 L97.53,12.00 M98.00,2.23 L99.00,2.70 M98.00,10.94 L97.72,11.00 M98.00,12.10 L99.00,12.55 M98.00,101.84 L97.10,102.00 M98.06,22.00 L99.00,22.42 M98.17,21.00 L98.06,22.00 M98.33,32.00 L99.00,32.30 M98.45,31.00 L98.33,32.00 M98.59,42.00 L99.00,42.18 M98.72,41.00 L98.59,42.00 M98.84,52.00 L99.00,52.07 M98.97,51.00 L98.84,52.00 M99.00,2.70 L99.41,3.00 M99.00,10.47 L98.00,10.94 M99.00,12.55 L99.61,13.00 M99.00,20.61 L98.17,21.00 M99.00,22.42 L99.79,23.00 M99.00,30.74 L98.45,31.00 M99.00,32.30 L99.96,33.00 M99.00,40.87 L98.72,41.00 M99.00,42.18 L100.00,42.91 M99.00,50.99 L98.97,51.00 M99.00,52.07 L100.00,52.78 M99.00,101.46 L98.00,101.84 M99.05,62.00 L100.00,62.67 M99.15,61.00 L99.05,62.00 M99.21,72.00 L100.00,72.56 M99.31,71.00 L99.21,72.00 M99.36,82.00 L100.00,82.45 M99.41,3.00 L100.00,3.55 M99.47,81.00 L99.36,82.00 M99.50,92.00 L100.00,92.35 M99.61,13.00 L100.00,13.37 M99.61,91.00 L99.50,92.00 M99.61,10.00 L99.00,10.47 M99.75,101.00 L99.00,101.46 M99.79,23.00 L100.00,23.20 M99.80,20.00 L99.00,20.61 M99.96,33.00 L100.00,33.04 M99.98,30.00 L99.00,30.74 M100.00,3.55 L100.36,4.00 M100.00,9.61 L99.61,10.00 M100.00,13.37 L100.51,14.00 M100.00,19.80 L99.80,20.00 M100.00,23.20 L100.64,24.00 M100.00,29.98 L99.98,30.00 M100.00,33.04 L100.77,34.00 M100.00,40.12 L99.00,40.87 M100.00,42.91 L100.10,43.00 M100.00,50.25 L99.00,50.99 M100.00,52.78 L100.23,53.00 M100.00,60.38 L99.15,61.00 M100.00,62.67 L100.35,63.00 M100.00,70.50 L99.31,71.00 M100.00,72.56 L100.46,73.00 M100.00,80.61 L99.47,81.00 M100.00,82.45 L100.57,83.00 M100.00,90.72 L99.61,91.00 M100.00,92.35 L100.68,93.00 M100.00,100.82 L99.75,101.00 M100.10,43.00 L100.89,44.00 M100.12,40.00 L100.00,40.12 M100.23,53.00 L101.00,54.00 M100.25,50.00 L100.00,50.25 M100.35,63.00 L101.00,63.84 M100.36,4.00 L100.88,5.00 M100.38,60.00 L100.00,60.38 M100.46,73.00 L101.00,73.69 M100.47,9.00 L100.00,9.61 M100.50,70.00 L100.00,70.50 M100.51,14.00 L101.00,14.97 M100.57,83.00 L101.00,83.55 M100.61,80.00 L100.00,80.61 M100.61,19.00 L100.00,19.80 M100.64,24.00 L101.00,24.70 M100.68,93.00 L101.00,93.42 M100.72,90.00 L100.00,90.72 M100.74,29.00 L100.00,29.98 M100.77,34.00 L101.00,34.45 M100.82,100.00 L100.00,100.82 M100.87,39.00 L100.12,40.00 M100.88,5.00 L101.00,5.46 M100.89,44.00 L101.00,44.22 M100.94,8.00 L100.47,9.00 M100.99,49.00 L100.25,50.00 M101.00,5.46 L101.13,6.00 M101.00,7.72 L100.94,8.00 M101.00,14.97 L101.01,15.00 M101.00,18.17 L100.61,19.00 M101.00,24.70 L101.13,25.00 M101.00,28.45 L100.74,29.00 M101.00,34.45 L101.24,35.00 M101.00,38.72 L100.87,39.00 M101.00,44.22 L101.35,45.00 M101.00,48.97 L100.99,49.00 M101.00,54.00 L101.00,54.00 M101.00,59.15 L100.38,60.00 M101.00,63.84 L101.10,64.00 M101.00,69.31 L100.50,70.00 M101.00,73.69 L101.20,74.00 M101.00,79.47 L100.61,80.00 M101.00,83.55 L101.29,84.00 M101.00,89.61 L100.72,90.00 M101.00,93.42 L101.38,94.00 M101.00,99.75 L100.82,100.00 M101.00,54.00 L101.45,55.00 M101.01,15.00 L101.25,16.00 M101.07,18.00 L101.00,18.17 M101.09,59.00 L101.00,59.15 M101.10,64.00 L101.54,65.00 M101.13,6.00 L101.15,7.00 M101.13,25.00 L101.37,26.00 M101.15,7.00 L101.00,7.72 M101.19,28.00 L101.00,28.45 M101.19,69.00 L101.00,69.31 M101.20,74.00 L101.63,75.00 M101.24,35.00 L101.47,36.00 M101.25,16.00 L101.27,17.00 M101.27,17.00 L101.07,18.00 M101.29,79.00 L101.00,79.47 M101.29,84.00 L101.71,85.00 M101.30,38.00 L101.00,38.72 M101.35,45.00 L101.57,46.00 M101.37,26.00 L101.38,27.00 M101.38,89.00 L101.00,89.61 M101.38,94.00 L101.80,95.00 M101.38,27.00 L101.19,28.00 M101.40,48.00 L101.00,48.97 M101.45,55.00 L101.67,56.00 M101.46,99.00 L101.00,99.75 M101.47,36.00 L101.49,37.00 M101.49,37.00 L101.30,38.00 M101.50,58.00 L101.09,59.00 M101.54,65.00 L101.76,66.00 M101.57,46.00 L101.59,47.00 M101.59,47.00 L101.40,48.00 M101.59,68.00 L101.19,69.00 M101.63,75.00 L101.84,76.00 M101.67,56.00 L101.68,57.00 M101.68,78.00 L101.29,79.00 M101.68,57.00 L101.50,58.00 M101.71,85.00 L101.92,86.00 M101.76,66.00 L101.77,67.00 M101.76,88.00 L101.38,89.00 M101.77,67.00 L101.59,68.00 M101.80,95.00 L102.00,96.00 M101.84,76.00 L101.86,77.00 M101.84,98.00 L101.46,99.00 M101.86,77.00 L101.68,78.00 M101.92,86.00 L101.94,87.00 M101.94,87.00 L101.76,88.00 M102.00,96.00 L102.00,96.00 M102.00,97.10 L101.84,98.00 M102.00,96.00 L102.02,97.00 M102.02,97.00 L102.00,97.10 "/>

<script>
let svgs = document.children[0];
let paths = Array.from(svgs.children).filter(function(c) {
    var orig = c.style.stroke;
    c.onmouseover = function() {
        c.style.stroke = "rgb(0, 0, 255)";
    };
    c.onmouseout = function () {
        c.style.stroke = orig;
    };
    c.onclick = function () {
        svgs.removeChild()
    }
});

for (let path of paths) {
    console.log(path);
}
</script></svg>