<svg xmlns="http://www.w3.org/2000/svg">
    <path fill-rule="evenodd" d="M32,97.24903106689453 L33,97.64729309082031 L33.94266891479492,98 L39,99.53849792480469 L44,100.50752258300781 L49,100.9599838256836 L54,100.909912109375 L59,100.35578918457031 L64,99.28028869628906 L69,97.64729309082031 L74,95.39537811279297 L78,93.08299255371094 L82,90.22923278808594 L86.7057113647461,86 L91,81 L93.70765686035156,77 L95.89968872070313,73 L98,68.05733489990234 L99.53849792480469,63 L100.50752258300781,58 L100.9599838256836,53 L100.909912109375,48 L100.35578918457031,43 L99.28028869628906,38 L97.64729309082031,33 L95.39537811279297,28 L93.08299255371094,24 L90.22923278808594,20 L86,15.294290542602539 L81,11 L77,8.292346000671387 L73,6.1003098487854 L68.05733489990234,4 L63,2.4615042209625244 L58,1.492473840713501 L53,1.0400182008743286 L48,1.0900850296020508 L43,1.6442079544067383 L38,2.7197093963623047 L33,4.35270357131958 L28,6.6046223640441895 L24,8.917009353637695 L20,11.770768165588379 L15.294290542602539,16 L11,21 L8.292346000671387,25 L6.1003098487854,29 L4,33.94266891479492 L2.4615044593811035,39 L1.492473840713501,44 L1.040018081665039,49 L1.0900850296020508,54 L1.6442079544067383,59 L2.7197093963623047,64 L4.35270357131958,69 L6.6046223640441895,74 L9.57629108428955,79 L12.582549095153809,83 L17,87.6591796875 L22,91.7300033569336 L27,94.86310577392578 L32,97.24903106689453 "/>
</svg>