<svg xmlns="http://www.w3.org/2000/svg">
    <path fill-rule="evenodd" d="M1.04,49.00 L1.09,54.00 L1.64,59.00 L2.72,64.00 L4.35,69.00 L6.60,74.00 L8.92,78.00 L11.77,82.00 L16.00,86.71 L21.00,91.00 L25.00,93.71 L29.00,95.90 L33.94,98.00 L39.00,99.54 L44.00,100.51 L49.00,100.96 L54.00,100.91 L59.00,100.36 L64.00,99.28 L69.00,97.65 L74.00,95.40 L79.00,92.42 L83.00,89.42 L87.66,85.00 L91.73,80.00 L94.86,75.00 L97.00,70.59 L97.25,70.00 L98.00,68.06 L99.54,63.00 L100.51,58.00 L100.96,53.00 L100.91,48.00 L100.36,43.00 L99.28,38.00 L97.65,33.00 L95.40,28.00 L93.08,24.00 L90.23,20.00 L86.00,15.29 L81.00,11.00 L77.00,8.29 L73.00,6.10 L68.06,4.00 L63.00,2.46 L58.00,1.49 L53.00,1.04 L48.00,1.09 L43.00,1.64 L38.00,2.72 L33.00,4.35 L28.00,6.60 L24.00,8.92 L20.00,11.77 L15.29,16.00 L11.00,21.00 L8.29,25.00 L6.10,29.00 L4.00,33.94 L2.46,39.00 L1.49,44.00 L1.04,49.00 "/>
</svg>