<svg xmlns="http://www.w3.org/2000/svg">
    <path fill-rule="evenodd" style="fill: none; stroke: rgb(0, 0, 0); stroke-width: 0.2;" d="M2.00,12.00 L2.05,11.00 M2.05,11.00 L2.20,10.00 M2.05,13.00 L2.00,12.00 M2.20,10.00 L2.46,9.00 M2.20,14.00 L2.05,13.00 M2.46,9.00 L2.84,8.00 M2.46,15.00 L2.20,14.00 M2.84,8.00 L3.00,7.66 M2.84,16.00 L2.46,15.00 M3.00,7.66 L3.34,7.00 M3.00,16.34 L2.84,16.00 M3.34,7.00 L4.00,6.00 M3.34,17.00 L3.00,16.34 M4.00,6.00 L4.86,5.00 M4.00,18.00 L3.34,17.00 M4.86,5.00 L5.00,4.86 M4.86,19.00 L4.00,18.00 M5.00,4.86 L6.00,4.00 M5.00,19.14 L4.86,19.00 M6.00,4.00 L7.00,3.34 M6.00,20.00 L5.00,19.14 M7.00,3.34 L7.66,3.00 M7.00,20.66 L6.00,20.00 M7.66,3.00 L8.00,2.84 M7.66,21.00 L7.00,20.66 M8.00,2.84 L9.00,2.46 M8.00,21.16 L7.66,21.00 M9.00,2.46 L10.00,2.20 M9.00,21.54 L8.00,21.16 M10.00,2.20 L11.00,2.05 M10.00,21.80 L9.00,21.54 M11.00,2.05 L12.00,2.00 M11.00,21.95 L10.00,21.80 M12.00,2.00 L13.00,2.05 M12.00,22.00 L11.00,21.95 M13.00,2.05 L14.00,2.20 M13.00,21.95 L12.00,22.00 M14.00,2.20 L15.00,2.46 M14.00,21.80 L13.00,21.95 M15.00,2.46 L16.00,2.84 M15.00,21.54 L14.00,21.80 M16.00,2.84 L16.34,3.00 M16.00,21.16 L15.00,21.54 M16.34,3.00 L17.00,3.34 M16.34,21.00 L16.00,21.16 M17.00,3.34 L18.00,4.00 M17.00,20.66 L16.34,21.00 M18.00,4.00 L19.00,4.86 M18.00,20.00 L17.00,20.66 M19.00,4.86 L19.14,5.00 M19.00,19.14 L18.00,20.00 M19.14,5.00 L20.00,6.00 M19.14,19.00 L19.00,19.14 M20.00,6.00 L20.66,7.00 M20.00,18.00 L19.14,19.00 M20.66,7.00 L21.00,7.66 M20.66,17.00 L20.00,18.00 M21.00,7.66 L21.16,8.00 M21.00,16.34 L20.66,17.00 M21.16,8.00 L21.54,9.00 M21.16,16.00 L21.00,16.34 M21.54,9.00 L21.80,10.00 M21.54,15.00 L21.16,16.00 M21.80,10.00 L21.95,11.00 M21.80,14.00 L21.54,15.00 M21.95,11.00 L22.00,12.00 M21.95,13.00 L21.80,14.00 M22.00,12.00 L21.95,13.00 "/>

<script>
let paths = Array.from(document.children[0].children).filter(function(c) {
    var orig = c.style.stroke;
    c.onmouseover = function() {
        c.style.stroke = "rgb(0, 0, 255)";
    };
    c.onmouseout = function () {
        c.style.stroke = orig;
    };
});

for (let path of paths) {
    console.log(path);
}
</script></svg>