<svg xmlns="http://www.w3.org/2000/svg">
    <path fill-rule="evenodd" d="M26.020009994506836,50 L26.080137252807617,53 L26.505306243896484,56 L27.315034866333008,59 L28.551118850708008,62 L30.289264678955078,65 L32,67.24483489990234 L34,69.32755279541016 L36,71 L38,72.35272216796875 L41.20925521850586,74 L44,75 L47,75.67781066894531 L50,75.97998809814453 L53,75.91986083984375 L56,75.49468994140625 L59,74.68496704101563 L62,73.44888305664063 L65,71.71073913574219 L67.24483489990234,70 L69.32755279541016,68 L71,66 L72.35272216796875,64 L74,60.79074478149414 L75,58 L75.67781066894531,55 L75.97998809814453,52 L75.91986083984375,49 L75.49468994140625,46 L74.68496704101563,43 L74.32321166992188,42 L74,41.20925521850586 L72.93136596679688,39 L71.71073913574219,37 L70,34.75516891479492 L68,32.672447204589844 L66,31 L64,29.647274017333984 L60.79074478149414,28 L58,27 L55,26.322189331054688 L52,26.020009994506836 L49,26.080137252807617 L46,26.505306243896484 L43,27.315034866333008 L40,28.551118850708008 L37,30.289264678955078 L34.75516891479492,32 L32.672447204589844,34 L31,36 L29.647274017333984,38 L28,41.20925521850586 L27,44 L26.322189331054688,47 L26.020009994506836,50 M1.040018081665039,49 L1.0900850296020508,54 L1.6442079544067383,59 L2.7197093963623047,64 L4.35270357131958,69 L6.6046223640441895,74 L9.57629108428955,79 L12.582549095153809,83 L17,87.6591796875 L22,91.7300033569336 L27,94.86310577392578 L33,97.64729309082031 L38,99.28028869628906 L43,100.35578918457031 L44,100.50752258300781 L49,100.9599838256836 L54,100.909912109375 L59,100.35578918457031 L64,99.28028869628906 L69,97.64729309082031 L74,95.39537811279297 L78,93.08299255371094 L82,90.22923278808594 L86.7057113647461,86 L91,81 L93.70765686035156,77 L95.89968872070313,73 L98,68.05733489990234 L99.53849792480469,63 L100.50752258300781,58 L100.9599838256836,53 L100.909912109375,48 L100.35578918457031,43 L99.28028869628906,38 L97.64729309082031,33 L95.39537811279297,28 L93.08299255371094,24 L90.22923278808594,20 L86,15.294290542602539 L81,11 L77,8.292346000671387 L73,6.1003098487854 L68.05733489990234,4 L63,2.4615042209625244 L58,1.492473840713501 L53,1.0400182008743286 L48,1.0900850296020508 L43,1.6442079544067383 L38,2.7197093963623047 L33,4.35270357131958 L28,6.6046223640441895 L24,8.917009353637695 L20,11.770768165588379 L15.294290542602539,16 L11,21 L8.292346000671387,25 L6.1003098487854,29 L4,33.94266891479492 L2.4615044593811035,39 L1.492473840713501,44 L1.040018081665039,49 M41,51 L41.05015182495117,52 L41.202392578125,53 L41.4617919921875,54 L41.835975646972656,55 L43,57 L43.86244583129883,58 L45,59 L46,59.65690231323242 L48,60.5382080078125 L49,60.797607421875 L50,60.94984817504883 L51,61 L52,60.94984817504883 L53,60.797607421875 L54,60.5382080078125 L55,60.164024353027344 L57,59 L58,58.13755416870117 L59,57 L59.65690231323242,56 L60.5382080078125,54 L60.797607421875,53 L60.94984817504883,52 L61,51 L60.94984817504883,50 L60.797607421875,49 L60.5382080078125,48 L60.164024353027344,47 L59,45 L58.13755416870117,44 L57,43 L56,42.34309768676758 L54,41.4617919921875 L53,41.202392578125 L52,41.05015182495117 L51,41 L50,41.05015182495117 L49,41.202392578125 L48,41.4617919921875 L47,41.835975646972656 L45,43 L44,43.86244583129883 L43,45 L42.34309768676758,46 L41.4617919921875,48 L41.202392578125,49 L41.05015182495117,50 L41,51 "/>
</svg>