<svg xmlns="http://www.w3.org/2000/svg">
    <path fill-rule="evenodd" d="M94.89968872070313,72 L95,71.79141235351563 L97,67.05733489990234 L98.53849792480469,62 L99.50752258300781,57 L99.9599838256836,52 L99.909912109375,47 L99.35578918457031,42 L98.28028869628906,37 L96.64729309082031,32 L94.39537811279297,27 L92.08299255371094,23 L89.22923278808594,19 L85,14.294290542602539 L80,10 L76,7.292346000671387 L72,5.1003098487854 L67.05733489990234,3 L62,1.4615042209625244 L57,0.49247387051582336 L52,0.040018171072006226 L47,0.0900849997997284 L42,0.6442079544067383 L37,1.7197093963623047 L32,3.35270357131958 L27,5.6046223640441895 L23,7.917008876800537 L19,10.770768165588379 L14.294290542602539,15 L10,20 L7.292346000671387,24 L5.1003098487854,28 L3,32.94266891479492 L1.461504340171814,38 L0.4924737811088562,43 L0.04001814126968384,48 L0.09008502960205078,53 L0.6442079544067383,58 L1.7197092771530151,63 L3.35270357131958,68 L5.6046223640441895,73 L7.917008876800537,77 L10.770768165588379,81 L15,85.7057113647461 L20,90 L24,92.70765686035156 L28,94.89968872070313 L32.94266891479492,97 L38,98.53849792480469 L43,99.50752258300781 L48,99.9599838256836 L53,99.909912109375 L58,99.35578918457031 L63,98.28028869628906 L68,96.64729309082031 L73,94.39537811279297 L77,92.08299255371094 L81,89.22923278808594 L85.7057113647461,85 L90,80 L92.70765686035156,76 L94.89968872070313,72 M43,42.86244583129883 L42.86244583129883,43 L42,44 L41.34309768676758,45 L40.4617919921875,47 L40.202392578125,48 L40.05015182495117,49 L40,50 L40.05015182495117,51 L40.202392578125,52 L40.4617919921875,53 L40.835975646972656,54 L42,56 L42.86244583129883,57 L44,58 L45,58.65690231323242 L47,59.5382080078125 L48,59.797607421875 L49,59.94984817504883 L50,60 L51,59.94984817504883 L52,59.797607421875 L53,59.5382080078125 L54,59.164024353027344 L56,58 L57,57.13755416870117 L58,56 L58.65690231323242,55 L59.5382080078125,53 L59.797607421875,52 L59.94984817504883,51 L60,50 L59.94984817504883,49 L59.797607421875,48 L59.5382080078125,47 L59.164024353027344,46 L58,44 L57.13755416870117,43 L56,42 L55,41.34309768676758 L53,40.4617919921875 L52,40.202392578125 L51,40.05015182495117 L50,40 L49,40.05015182495117 L48,40.202392578125 L47,40.4617919921875 L46,40.835975646972656 L44,42 L43,42.86244583129883 M25.080137252807617,48 L25.020009994506836,51 L25.322189331054688,54 L26,57 L27.0874080657959,60 L28.068634033203125,62 L29.289264678955078,64 L31,66.24483489990234 L33,68.32755279541016 L35,70 L37,71.35272216796875 L40.20925521850586,73 L43,74 L46,74.67781066894531 L49,74.97998809814453 L52,74.91986083984375 L55,74.49468994140625 L58,73.68496704101563 L61,72.44888305664063 L64,70.71073913574219 L66.24483489990234,69 L68.32755279541016,67 L70,65 L71.35272216796875,63 L73,59.79074478149414 L74,57 L74.67781066894531,54 L74.97998809814453,51 L74.91986083984375,48 L74.49468994140625,45 L73.68496704101563,42 L72.44888305664063,39 L70.71073913574219,36 L69,33.75516891479492 L67,31.672449111938477 L65,30 L63,28.647274017333984 L59.79074478149414,27 L57,26 L54,25.322189331054688 L51,25.020009994506836 L48,25.080137252807617 L45,25.505306243896484 L42,26.315034866333008 L39,27.551118850708008 L36,29.289264678955078 L33.75516891479492,31 L31.672449111938477,33 L30,35 L28.647274017333984,37 L27,40.20925521850586 L26,43 L25.322189331054688,46 L25.180696487426758,47 L25.080137252807617,48 "/>
</svg>