<svg xmlns="http://www.w3.org/2000/svg">
    <path fill-rule="evenodd" d="M26.02,50.00 L26.08,53.00 L26.51,56.00 L27.32,59.00 L28.55,62.00 L30.29,65.00 L32.00,67.24 L34.00,69.33 L36.00,71.00 L38.00,72.35 L41.21,74.00 L44.00,75.00 L47.00,75.68 L50.00,75.98 L53.00,75.92 L56.00,75.49 L59.00,74.68 L62.00,73.45 L65.00,71.71 L67.24,70.00 L69.33,68.00 L71.00,66.00 L72.35,64.00 L74.00,60.79 L75.00,58.00 L75.68,55.00 L75.98,52.00 L75.92,49.00 L75.49,46.00 L74.68,43.00 L74.32,42.00 L74.00,41.21 L72.93,39.00 L71.71,37.00 L70.00,34.76 L68.00,32.67 L66.00,31.00 L64.00,29.65 L60.79,28.00 L58.00,27.00 L55.00,26.32 L52.00,26.02 L49.00,26.08 L46.00,26.51 L43.00,27.32 L40.00,28.55 L37.00,30.29 L34.76,32.00 L32.67,34.00 L31.00,36.00 L29.65,38.00 L28.00,41.21 L27.00,44.00 L26.32,47.00 L26.02,50.00 M1.04,49.00 L1.09,54.00 L1.64,59.00 L2.72,64.00 L4.35,69.00 L6.60,74.00 L9.58,79.00 L12.58,83.00 L17.00,87.66 L22.00,91.73 L27.00,94.86 L33.00,97.65 L38.00,99.28 L43.00,100.36 L44.00,100.51 L49.00,100.96 L54.00,100.91 L59.00,100.36 L64.00,99.28 L69.00,97.65 L74.00,95.40 L78.00,93.08 L82.00,90.23 L86.71,86.00 L91.00,81.00 L93.71,77.00 L95.90,73.00 L98.00,68.06 L99.54,63.00 L100.51,58.00 L100.96,53.00 L100.91,48.00 L100.36,43.00 L99.28,38.00 L97.65,33.00 L95.40,28.00 L93.08,24.00 L90.23,20.00 L86.00,15.29 L81.00,11.00 L77.00,8.29 L73.00,6.10 L68.06,4.00 L63.00,2.46 L58.00,1.49 L53.00,1.04 L48.00,1.09 L43.00,1.64 L38.00,2.72 L33.00,4.35 L28.00,6.60 L24.00,8.92 L20.00,11.77 L15.29,16.00 L11.00,21.00 L8.29,25.00 L6.10,29.00 L4.00,33.94 L2.46,39.00 L1.49,44.00 L1.04,49.00 M41.00,51.00 L41.05,52.00 L41.20,53.00 L41.46,54.00 L41.84,55.00 L43.00,57.00 L43.86,58.00 L45.00,59.00 L46.00,59.66 L48.00,60.54 L49.00,60.80 L50.00,60.95 L51.00,61.00 L52.00,60.95 L53.00,60.80 L54.00,60.54 L55.00,60.16 L57.00,59.00 L58.00,58.14 L59.00,57.00 L59.66,56.00 L60.54,54.00 L60.80,53.00 L60.95,52.00 L61.00,51.00 L60.95,50.00 L60.80,49.00 L60.54,48.00 L60.16,47.00 L59.00,45.00 L58.14,44.00 L57.00,43.00 L56.00,42.34 L54.00,41.46 L53.00,41.20 L52.00,41.05 L51.00,41.00 L50.00,41.05 L49.00,41.20 L48.00,41.46 L47.00,41.84 L45.00,43.00 L44.00,43.86 L43.00,45.00 L42.34,46.00 L41.46,48.00 L41.20,49.00 L41.05,50.00 L41.00,51.00 "/>
</svg>