<svg xmlns="http://www.w3.org/2000/svg">
    <path fill-rule="evenodd" style="fill: rgb(0, 0, 0); stroke: none; stroke-width: none;" d="M2.04,50.00 L2.09,55.00 L2.64,60.00 L3.72,65.00 L5.35,70.00 L7.60,75.00 L9.92,79.00 L12.77,83.00 L17.00,87.71 L22.00,92.00 L26.00,94.71 L30.00,96.90 L34.94,99.00 L40.00,100.54 L45.00,101.51 L50.00,101.96 L55.00,101.91 L60.00,101.36 L65.00,100.28 L70.00,98.65 L75.00,96.40 L79.00,94.08 L83.00,91.23 L87.71,87.00 L92.00,82.00 L94.71,78.00 L96.90,74.00 L99.00,69.06 L100.54,64.00 L101.51,59.00 L101.96,54.00 L101.91,49.00 L101.36,44.00 L100.28,39.00 L98.65,34.00 L96.40,29.00 L94.08,25.00 L91.23,21.00 L87.00,16.29 L82.00,12.00 L78.00,9.29 L74.00,7.10 L68.00,4.63 L63.00,3.23 L58.00,2.36 L53.00,2.01 L48.00,2.16 L43.00,2.82 L37.00,4.30 L32.00,6.17 L32.00,6.17 L29.00,7.60 L25.00,9.92 L21.00,12.77 L16.29,17.00 L12.00,22.00 L9.29,26.00 L7.10,30.00 L5.00,34.94 L3.46,40.00 L2.49,45.00 L2.04,50.00 M42.00,52.00 L42.05,53.00 L42.20,54.00 L42.46,55.00 L42.84,56.00 L44.00,58.00 L44.86,59.00 L46.00,60.00 L47.00,60.66 L49.00,61.54 L50.00,61.80 L51.00,61.95 L52.00,62.00 L53.00,61.95 L54.00,61.80 L55.00,61.54 L56.00,61.16 L58.00,60.00 L59.00,59.14 L60.00,58.00 L60.66,57.00 L61.54,55.00 L61.80,54.00 L61.95,53.00 L62.00,52.00 L61.95,51.00 L61.80,50.00 L61.54,49.00 L61.16,48.00 L60.00,46.00 L59.14,45.00 L58.00,44.00 L57.00,43.34 L55.00,42.46 L54.00,42.20 L53.00,42.05 L52.00,42.00 L51.00,42.05 L50.00,42.20 L49.00,42.46 L48.00,42.84 L46.00,44.00 L44.86,45.00 L44.86,45.00 L44.00,46.00 L43.34,47.00 L42.46,49.00 L42.20,50.00 L42.05,51.00 L42.00,52.00 M27.02,51.00 L27.08,54.00 L27.51,57.00 L28.32,60.00 L29.55,63.00 L31.29,66.00 L33.00,68.24 L35.00,70.33 L37.00,72.00 L39.00,73.35 L42.21,75.00 L45.00,76.00 L48.00,76.68 L51.00,76.98 L54.00,76.92 L57.00,76.49 L60.00,75.68 L63.00,74.45 L66.00,72.71 L68.24,71.00 L70.33,69.00 L70.33,69.00 L72.00,67.00 L73.35,65.00 L75.00,61.79 L76.00,59.00 L76.68,56.00 L76.98,53.00 L76.92,50.00 L76.49,47.00 L75.68,44.00 L74.45,41.00 L72.71,38.00 L71.00,35.76 L69.00,33.67 L67.00,32.00 L65.00,30.65 L61.79,29.00 L59.00,28.00 L56.00,27.32 L53.00,27.02 L50.00,27.08 L47.00,27.51 L44.00,28.32 L41.00,29.55 L38.00,31.29 L35.76,33.00 L33.67,35.00 L32.00,37.00 L30.65,39.00 L29.00,42.21 L28.00,45.00 L27.32,48.00 L27.02,51.00 "/>

<script>
let svgs = document.children[0];
let paths = Array.from(svgs.children).filter(function(c) {
    var orig = c.style.stroke;
    c.onmouseover = function() {
        c.style.stroke = "rgb(0, 0, 255)";
    };
    c.onmouseout = function () {
        c.style.stroke = orig;
    };
    c.onclick = function () {
        svgs.removeChild();
    }
});

for (let path of paths) {
    console.log(path);
}
</script></svg>