<svg xmlns="http://www.w3.org/2000/svg">
    <path fill-rule="evenodd" style="fill: none; stroke: rgb(0, 0, 0); stroke-width: 0.2;" d="M107.00000,16.38230 L106.54774,16.00000 L106.02834,15.00000 L106.11936,14.00000 L106.91459,13.00000 L107.00000,12.93769 L108.00000,12.66667 L109.00000,12.93769 L109.08541,13.00000 L109.88064,14.00000 L109.97166,15.00000 L109.45226,16.00000 L109.00000,16.38230 L108.00000,16.66667 L107.00000,16.38230 "/>
    <path fill-rule="evenodd" style="fill: none; stroke: rgb(0, 0, 0); stroke-width: 0.2;" d="M186.54774,16.00000 L186.02834,15.00000 L186.11937,14.00000 L186.91460,13.00000 L187.00000,12.93769 L188.00000,12.66667 L189.00000,12.93769 L189.08540,13.00000 L189.88063,14.00000 L189.97166,15.00000 L189.45226,16.00000 L189.00000,16.38230 L188.00000,16.66667 L187.00000,16.38230 L186.54774,16.00000 "/>
    <path fill-rule="evenodd" style="fill: none; stroke: rgb(0, 0, 0); stroke-width: 0.2;" d="M146.54774,16.00000 L146.02834,15.00000 L146.11937,14.00000 L146.91460,13.00000 L147.00000,12.93769 L148.00000,12.66667 L149.00000,12.93769 L149.08540,13.00000 L149.88063,14.00000 L149.97166,15.00000 L149.45226,16.00000 L149.00000,16.38230 L148.00000,16.66667 L147.00000,16.38230 L146.54774,16.00000 "/>
    <path fill-rule="evenodd" style="fill: none; stroke: rgb(0, 0, 0); stroke-width: 0.2;" d="M6.02834,15.00000 L6.11937,14.00000 L6.91459,13.00000 L7.00000,12.93769 L8.00000,12.66667 L9.00000,12.93769 L9.08541,13.00000 L9.88064,14.00000 L9.97166,15.00000 L9.45226,16.00000 L9.00000,16.38230 L8.00000,16.66667 L7.00000,16.38230 L6.54774,16.00000 L6.02834,15.00000 "/>
    <path fill-rule="evenodd" style="fill: none; stroke: rgb(0, 0, 0); stroke-width: 0.2;" d="M147.00000,9.45585 L146.71315,9.00000 L146.85493,8.00000 L147.00000,7.82275 L148.00000,7.33333 L149.00000,7.82275 L149.14507,8.00000 L149.28685,9.00000 L149.00000,9.45585 L148.00000,10.00000 L147.00000,9.45585 "/>
    <path fill-rule="evenodd" style="fill: none; stroke: rgb(0, 0, 0); stroke-width: 0.2;" d="M128.00000,10.00000 L127.00000,9.45585 L126.71316,9.00000 L126.85493,8.00000 L127.00000,7.82275 L128.00000,7.33333 L129.00000,7.82275 L129.14507,8.00000 L129.28685,9.00000 L129.00000,9.45585 L128.00000,10.00000 "/>
    <path fill-rule="evenodd" style="fill: none; stroke: rgb(0, 0, 0); stroke-width: 0.2;" d="M29.00000,9.45585 L28.00000,10.00000 L27.00000,9.45585 L26.71316,9.00000 L26.85493,8.00000 L27.00000,7.82275 L28.00000,7.33333 L29.00000,7.82275 L29.14507,8.00000 L29.28684,9.00000 L29.00000,9.45585 "/>
    <path fill-rule="evenodd" style="fill: none; stroke: rgb(0, 0, 0); stroke-width: 0.2;" d="M66.85493,8.00000 L67.00000,7.82275 L68.00000,7.33333 L69.00000,7.82275 L69.14507,8.00000 L69.28684,9.00000 L69.00000,9.45585 L68.00000,10.00000 L67.00000,9.45585 L66.71316,9.00000 L66.85493,8.00000 "/>
    <path fill-rule="evenodd" style="fill: none; stroke: rgb(0, 0, 0); stroke-width: 0.2;" d="M49.14507,8.00000 L49.28684,9.00000 L49.00000,9.45585 L48.00000,10.00000 L47.00000,9.45585 L46.71316,9.00000 L46.85493,8.00000 L47.00000,7.82275 L48.00000,7.33333 L49.00000,7.82275 L49.14507,8.00000 "/>
    <path fill-rule="evenodd" style="fill: none; stroke: rgb(0, 0, 0); stroke-width: 0.2;" d="M87.00000,7.82275 L88.00000,7.33333 L89.00000,7.82275 L89.14507,8.00000 L89.28684,9.00000 L89.00000,9.45585 L88.00000,10.00000 L87.00000,9.45585 L86.71316,9.00000 L86.85493,8.00000 L87.00000,7.82275 "/>
    <path fill-rule="evenodd" style="fill: none; stroke: rgb(0, 0, 0); stroke-width: 0.2;" d="M86.54774,16.00000 L86.02834,15.00000 L86.11936,14.00000 L86.91459,13.00000 L87.00000,12.93769 L88.00000,12.66667 L89.00000,12.93769 L89.08541,13.00000 L89.88064,14.00000 L89.97166,15.00000 L89.45226,16.00000 L89.00000,16.38230 L88.00000,16.66667 L87.00000,16.38230 L86.54774,16.00000 "/>
    <path fill-rule="evenodd" style="fill: none; stroke: rgb(0, 0, 0); stroke-width: 0.2;" d="M166.54774,16.00000 L166.02834,15.00000 L166.11937,14.00000 L166.91460,13.00000 L167.00000,12.93769 L168.00000,12.66667 L169.00000,12.93769 L169.08540,13.00000 L169.88063,14.00000 L169.97166,15.00000 L169.45226,16.00000 L169.00000,16.38230 L168.00000,16.66667 L167.00000,16.38230 L166.54774,16.00000 "/>
    <path fill-rule="evenodd" style="fill: none; stroke: rgb(0, 0, 0); stroke-width: 0.2;" d="M9.28684,9.00000 L9.00000,9.45585 L8.00000,10.00000 L7.00000,9.45585 L6.71316,9.00000 L6.85493,8.00000 L7.00000,7.82275 L8.00000,7.33333 L9.00000,7.82275 L9.14507,8.00000 L9.28684,9.00000 "/>
    <path fill-rule="evenodd" style="fill: none; stroke: rgb(0, 0, 0); stroke-width: 0.2;" d="M29.88063,14.00000 L29.97166,15.00000 L29.45226,16.00000 L29.00000,16.38230 L28.00000,16.66667 L27.00000,16.38230 L26.54774,16.00000 L26.02834,15.00000 L26.11937,14.00000 L26.91459,13.00000 L27.00000,12.93769 L28.00000,12.66667 L29.00000,12.93769 L29.08541,13.00000 L29.88063,14.00000 "/>
    <path fill-rule="evenodd" style="fill: none; stroke: rgb(0, 0, 0); stroke-width: 0.2;" d="M169.00000,9.45585 L168.00000,10.00000 L167.00000,9.45585 L166.71315,9.00000 L166.85493,8.00000 L167.00000,7.82275 L168.00000,7.33333 L169.00000,7.82275 L169.14507,8.00000 L169.28685,9.00000 L169.00000,9.45585 "/>
    <path fill-rule="evenodd" style="fill: none; stroke: rgb(0, 0, 0); stroke-width: 0.2;" d="M106.71316,9.00000 L106.85493,8.00000 L107.00000,7.82275 L108.00000,7.33333 L109.00000,7.82275 L109.14507,8.00000 L109.28684,9.00000 L109.00000,9.45585 L108.00000,10.00000 L107.00000,9.45585 L106.71316,9.00000 "/>
    <path fill-rule="evenodd" style="fill: none; stroke: rgb(0, 0, 0); stroke-width: 0.2;" d="M46.02834,15.00000 L46.11937,14.00000 L46.91459,13.00000 L47.00000,12.93769 L48.00000,12.66667 L49.00000,12.93769 L49.08541,13.00000 L49.88063,14.00000 L49.97166,15.00000 L49.45226,16.00000 L49.00000,16.38230 L48.00000,16.66667 L47.00000,16.38230 L46.54774,16.00000 L46.02834,15.00000 "/>
    <path fill-rule="evenodd" style="fill: none; stroke: rgb(0, 0, 0); stroke-width: 0.2;" d="M186.71315,9.00000 L186.85493,8.00000 L187.00000,7.82275 L188.00000,7.33333 L189.00000,7.82275 L189.14507,8.00000 L189.28685,9.00000 L189.00000,9.45585 L188.00000,10.00000 L187.00000,9.45585 L186.71315,9.00000 "/>
    <path fill-rule="evenodd" style="fill: none; stroke: rgb(0, 0, 0); stroke-width: 0.2;" d="M69.88064,14.00000 L69.97166,15.00000 L69.45226,16.00000 L69.00000,16.38230 L68.00000,16.66667 L67.00000,16.38230 L66.54774,16.00000 L66.02834,15.00000 L66.11936,14.00000 L66.91459,13.00000 L67.00000,12.93769 L68.00000,12.66667 L69.00000,12.93769 L69.08541,13.00000 L69.88064,14.00000 "/>
    <path fill-rule="evenodd" style="fill: none; stroke: rgb(0, 0, 0); stroke-width: 0.2;" d="M48.00000,2.00000 L48.46247,3.00000 L48.00000,3.33333 L47.53753,3.00000 L48.00000,2.00000 "/>
    <path fill-rule="evenodd" style="fill: none; stroke: rgb(0, 0, 0); stroke-width: 0.2;" d="M127.00000,12.93769 L128.00000,12.66667 L129.00000,12.93769 L129.08540,13.00000 L129.88063,14.00000 L129.97166,15.00000 L129.45226,16.00000 L129.00000,16.38230 L128.00000,16.66667 L127.00000,16.38230 L126.54774,16.00000 L126.02834,15.00000 L126.11936,14.00000 L126.91459,13.00000 L127.00000,12.93769 "/>
    <path fill-rule="evenodd" style="fill: none; stroke: rgb(0, 0, 0); stroke-width: 0.2;" d="M7.53752,3.00000 L8.00000,2.00000 L8.46247,3.00000 L8.00000,3.33333 L7.53752,3.00000 "/>
    <path fill-rule="evenodd" style="fill: none; stroke: rgb(0, 0, 0); stroke-width: 0.2;" d="M88.46248,3.00000 L88.00000,3.33333 L87.53752,3.00000 L88.00000,2.00000 L88.46248,3.00000 "/>
    <path fill-rule="evenodd" style="fill: none; stroke: rgb(0, 0, 0); stroke-width: 0.2;" d="M68.46248,3.00000 L68.00000,3.33333 L67.53752,3.00000 L68.00000,2.00000 L68.46248,3.00000 "/>
    <path fill-rule="evenodd" style="fill: none; stroke: rgb(0, 0, 0); stroke-width: 0.2;" d="M128.00000,2.00000 L128.46248,3.00000 L128.00000,3.33333 L127.53752,3.00000 L128.00000,2.00000 "/>
    <path fill-rule="evenodd" style="fill: none; stroke: rgb(0, 0, 0); stroke-width: 0.2;" d="M147.53752,3.00000 L148.00000,2.00000 L148.46248,3.00000 L148.00000,3.33333 L147.53752,3.00000 "/>
    <path fill-rule="evenodd" style="fill: none; stroke: rgb(0, 0, 0); stroke-width: 0.2;" d="M108.46248,3.00000 L108.00000,3.33333 L107.53752,3.00000 L108.00000,2.00000 L108.46248,3.00000 "/>
    <path fill-rule="evenodd" style="fill: none; stroke: rgb(0, 0, 0); stroke-width: 0.2;" d="M188.00000,2.00000 L188.46248,3.00000 L188.00000,3.33333 L187.53752,3.00000 L188.00000,2.00000 "/>
    <path fill-rule="evenodd" style="fill: none; stroke: rgb(0, 0, 0); stroke-width: 0.2;" d="M28.00000,3.33333 L27.53753,3.00000 L28.00000,2.00000 L28.46247,3.00000 L28.00000,3.33333 "/>
    <path fill-rule="evenodd" style="fill: none; stroke: rgb(0, 0, 0); stroke-width: 0.2;" d="M168.00000,2.00000 L168.46248,3.00000 L168.00000,3.33333 L167.53752,3.00000 L168.00000,2.00000 "/>

<script>
let svgs = document.children[0];
let paths = Array.from(svgs.children).filter(function(c) {
    var orig = c.style.stroke;
    c.onmouseover = function() {
        c.style.stroke = "rgb(0, 0, 255)";
    };
    c.onmouseout = function () {
        c.style.stroke = orig;
    };
    c.onclick = function () {
        svgs.removeChild()
    }
});

for (let path of paths) {
    console.log(path);
}
</script></svg>