<svg xmlns="http://www.w3.org/2000/svg">
    <path fill-rule="evenodd" style="fill: none; stroke: rgb(0, 0, 0); stroke-width: 0.2;" d="M2.00000,2.00000 L2.00000,2.00000 M2.00000,2.00000 L2.00000,2.00000 M2.00000,2.00000 L3.00000,2.00000 M3.00000,2.00000 L2.00000,2.00000 M3.00000,2.00000 L4.00000,2.00000 M3.99999,3.00000 L3.00000,2.00000 M4.00000,2.00000 L5.00000,2.00000 M4.00000,3.00001 L3.99999,3.00000 M5.00000,2.00000 L6.00000,2.00000 M5.00000,3.50000 L4.00000,3.00001 M5.99999,4.00000 L5.00000,3.50000 M6.00000,2.00000 L7.00000,2.00000 M6.00000,4.00000 L5.99999,4.00000 M7.00000,2.00000 L8.00000,2.00000 M7.00000,4.50000 L6.00000,4.00000 M8.00000,2.00000 L9.00000,2.00000 M8.00000,5.00000 L7.00000,4.50000 M8.00000,5.00000 L8.00000,5.00000 M9.00000,2.00000 L10.00000,2.00000 M9.00000,5.50000 L8.00000,5.00000 M9.99999,6.00000 L9.00000,5.50000 M10.00000,2.00000 L11.00000,2.00000 M10.00000,6.00001 L9.99999,6.00000 M11.00000,2.00000 L12.00000,2.00000 M11.00000,6.50000 L10.00000,6.00001 M11.99999,7.00000 L11.00000,6.50000 M12.00000,2.00000 L13.00000,2.00000 M12.00000,7.00000 L11.99999,7.00000 M13.00000,2.00000 L14.00000,2.00000 M13.00000,7.50000 L12.00000,7.00000 M14.00000,2.00000 L15.00000,2.00000 M14.00000,8.00000 L13.00000,7.50000 M14.00000,8.00000 L14.00000,8.00000 M15.00000,2.00000 L16.00000,2.00000 M15.00000,8.50000 L14.00000,8.00000 M15.99998,9.00000 L15.00000,8.50000 M16.00000,2.00000 L17.00000,2.00000 M16.00000,9.00001 L15.99998,9.00000 M17.00000,2.00000 L18.00000,2.00000 M17.00000,9.50000 L16.00000,9.00001 M18.00000,2.00000 L19.00000,2.00000 M18.00000,10.00000 L17.00000,9.50000 M18.00000,10.00000 L18.00000,10.00000 M19.00000,2.00000 L20.00000,2.00000 M19.00000,10.50000 L18.00000,10.00000 M20.00000,2.00000 L21.00000,2.00000 M20.00000,11.00000 L19.00000,10.50000 M20.00000,11.00000 L20.00000,11.00000 M21.00000,2.00000 L22.00000,2.00000 M21.00000,11.50000 L20.00000,11.00000 M21.99998,12.00000 L21.00000,11.50000 M22.00000,2.00000 L23.00000,2.00000 M22.00000,12.00001 L21.99998,12.00000 M23.00000,2.00000 L24.00000,2.00000 M23.00000,12.50000 L22.00000,12.00001 M24.00000,2.00000 L25.00000,2.00000 M24.00000,13.00000 L23.00000,12.50000 M24.00000,13.00000 L24.00000,13.00000 M25.00000,2.00000 L26.00000,2.00000 M25.00000,13.50000 L24.00000,13.00000 M26.00000,2.00000 L27.00000,2.00000 M26.00000,14.00000 L25.00000,13.50000 M26.00000,14.00000 L26.00000,14.00000 M27.00000,2.00000 L28.00000,2.00000 M27.00000,14.50000 L26.00000,14.00000 M28.00000,2.00000 L29.00000,2.00000 M28.00000,15.00000 L27.00000,14.50000 M28.00000,15.00000 L28.00000,15.00000 M29.00000,2.00000 L30.00000,2.00000 M29.00000,15.50000 L28.00000,15.00000 M30.00000,2.00000 L31.00000,2.00000 M30.00000,16.00000 L29.00000,15.50000 M30.00000,16.00000 L30.00000,16.00000 M31.00000,2.00000 L32.00000,2.00000 M31.00000,16.50000 L30.00000,16.00000 M32.00000,2.00000 L33.00000,2.00000 M32.00000,17.00000 L31.00000,16.50000 M32.00000,17.00000 L32.00000,17.00000 M33.00000,2.00000 L34.00000,2.00000 M33.00000,17.50000 L32.00000,17.00000 M34.00000,2.00000 L35.00000,2.00000 M34.00000,18.00000 L33.00000,17.50000 M34.00000,18.00000 L34.00000,18.00000 M35.00000,2.00000 L36.00000,2.00000 M35.00000,18.50000 L34.00000,18.00000 M36.00000,2.00000 L37.00000,2.00000 M36.00000,19.00000 L35.00000,18.50000 M36.00000,19.00000 L36.00000,19.00000 M37.00000,2.00000 L38.00000,2.00000 M37.00000,19.50000 L36.00000,19.00000 M38.00000,2.00000 L39.00000,2.00000 M38.00000,20.00000 L37.00000,19.50000 M38.00000,20.00000 L38.00000,20.00000 M39.00000,2.00000 L40.00000,2.00000 M39.00000,20.50000 L38.00000,20.00000 M40.00000,2.00000 L41.00000,2.00000 M40.00000,21.00000 L39.00000,20.50000 M40.00000,21.00000 L40.00000,21.00000 M41.00000,2.00000 L42.00000,2.00000 M41.00000,21.50000 L40.00000,21.00000 M42.00000,2.00000 L43.00000,2.00000 M42.00000,22.00000 L41.00000,21.50000 M42.00000,22.00000 L42.00000,22.00000 M43.00000,2.00000 L44.00000,2.00000 M43.00000,22.50000 L42.00000,22.00000 M44.00000,2.00000 L45.00000,2.00000 M44.00000,23.00000 L43.00000,22.50000 M44.00000,23.00000 L44.00000,23.00000 M45.00000,2.00000 L46.00000,2.00000 M45.00000,23.50000 L44.00000,23.00000 M46.00000,2.00000 L47.00000,2.00000 M46.00000,24.00000 L45.00000,23.50000 M46.00000,24.00000 L46.00000,24.00000 M47.00000,2.00000 L48.00000,2.00000 M47.00000,24.50000 L46.00000,24.00000 M48.00000,2.00000 L49.00000,2.00000 M48.00000,25.00000 L47.00000,24.50000 M48.00000,25.00000 L48.00000,25.00000 M49.00000,2.00000 L50.00000,2.00000 M49.00000,25.50000 L48.00000,25.00000 M50.00000,2.00000 L51.00000,2.00000 M50.00000,26.00000 L49.00000,25.50000 M50.00000,26.00000 L50.00000,26.00000 M51.00000,2.00000 L52.00000,2.00000 M51.00000,26.50000 L50.00000,26.00000 M52.00000,2.00000 L53.00000,2.00000 M52.00000,27.00000 L51.00000,26.50000 M52.00000,27.00000 L52.00000,27.00000 M53.00000,2.00000 L54.00000,2.00000 M53.00000,27.50000 L52.00000,27.00000 M54.00000,2.00000 L55.00000,2.00000 M54.00000,28.00000 L53.00000,27.50000 M54.00000,28.00000 L54.00000,28.00000 M55.00000,2.00000 L56.00000,2.00000 M55.00000,28.50000 L54.00000,28.00000 M56.00000,2.00000 L57.00000,2.00000 M56.00000,29.00000 L55.00000,28.50000 M56.00000,29.00000 L56.00000,29.00000 M57.00000,2.00000 L58.00000,2.00000 M57.00000,29.50000 L56.00000,29.00000 M58.00000,2.00000 L59.00000,2.00000 M58.00000,30.00000 L57.00000,29.50000 M58.00000,30.00000 L58.00000,30.00000 M59.00000,2.00000 L60.00000,2.00000 M59.00000,30.50000 L58.00000,30.00000 M60.00000,2.00000 L61.00000,2.00000 M60.00000,31.00000 L59.00000,30.50000 M60.00000,31.00000 L60.00000,31.00000 M61.00000,2.00000 L62.00000,2.00000 M61.00000,31.50000 L60.00000,31.00000 M62.00000,2.00000 L63.00000,2.00000 M62.00000,32.00000 L61.00000,31.50000 M62.00000,32.00000 L62.00000,32.00000 M63.00000,2.00000 L64.00000,2.00000 M63.00000,32.50000 L62.00000,32.00000 M64.00000,2.00000 L65.00000,2.00000 M64.00000,33.00000 L63.00000,32.50000 M64.00000,33.00000 L64.00000,33.00000 M65.00000,2.00000 L66.00000,2.00000 M65.00000,33.50000 L64.00000,33.00000 M66.00000,2.00000 L67.00000,2.00000 M66.00000,34.00000 L65.00000,33.50000 M66.00000,34.00000 L66.00000,34.00000 M67.00000,2.00000 L68.00000,2.00000 M67.00000,34.50000 L66.00000,34.00000 M68.00000,2.00000 L69.00000,2.00000 M68.00000,35.00000 L67.00000,34.50000 M68.00000,35.00000 L68.00000,35.00000 M69.00000,2.00000 L70.00000,2.00000 M69.00000,35.50000 L68.00000,35.00000 M70.00000,2.00000 L71.00000,2.00000 M70.00000,36.00000 L69.00000,35.50000 M70.00000,36.00000 L70.00000,36.00000 M71.00000,2.00000 L72.00000,2.00000 M71.00000,36.50000 L70.00000,36.00000 M72.00000,2.00000 L73.00000,2.00000 M72.00000,37.00000 L71.00000,36.50000 M72.00000,37.00000 L72.00000,37.00000 M73.00000,2.00000 L74.00000,2.00000 M73.00000,37.50000 L72.00000,37.00000 M74.00000,2.00000 L75.00000,2.00000 M74.00000,38.00000 L73.00000,37.50000 M74.00000,38.00000 L74.00000,38.00000 M75.00000,2.00000 L76.00000,2.00000 M75.00000,38.50000 L74.00000,38.00000 M76.00000,2.00000 L77.00000,2.00000 M76.00000,39.00000 L75.00000,38.50000 M76.00000,39.00000 L76.00000,39.00000 M77.00000,2.00000 L78.00000,2.00000 M77.00000,39.50000 L76.00000,39.00000 M78.00000,2.00000 L79.00000,2.00000 M78.00000,40.00000 L77.00000,39.50000 M78.00000,40.00000 L78.00000,40.00000 M79.00000,2.00000 L80.00000,2.00000 M79.00000,40.50000 L78.00000,40.00000 M80.00000,2.00000 L81.00000,2.00000 M80.00000,41.00000 L79.00000,40.50000 M80.00000,41.00000 L80.00000,41.00000 M81.00000,2.00000 L82.00000,2.00000 M81.00000,41.50000 L80.00000,41.00000 M82.00000,2.00000 L83.00000,2.00000 M82.00000,42.00000 L81.00000,41.50000 M82.00000,42.00000 L82.00000,42.00000 M83.00000,2.00000 L84.00000,2.00000 M83.00000,42.50000 L82.00000,42.00000 M84.00000,2.00000 L85.00000,2.00000 M84.00000,43.00000 L83.00000,42.50000 M84.00000,43.00000 L84.00000,43.00000 M85.00000,2.00000 L86.00000,2.00000 M85.00000,43.50000 L84.00000,43.00000 M86.00000,2.00000 L87.00000,2.00000 M86.00000,44.00000 L85.00000,43.50000 M86.00000,44.00000 L86.00000,44.00000 M87.00000,2.00000 L88.00000,2.00000 M87.00000,44.50000 L86.00000,44.00000 M88.00000,2.00000 L89.00000,2.00000 M88.00000,45.00000 L87.00000,44.50000 M88.00000,45.00000 L88.00000,45.00000 M89.00000,2.00000 L90.00000,2.00000 M89.00000,45.50000 L88.00000,45.00000 M90.00000,2.00000 L91.00000,2.00000 M90.00000,46.00000 L89.00000,45.50000 M90.00000,46.00000 L90.00000,46.00000 M91.00000,2.00000 L92.00000,2.00000 M91.00000,46.50000 L90.00000,46.00000 M92.00000,2.00000 L93.00000,2.00000 M92.00000,47.00000 L91.00000,46.50000 M92.00000,47.00000 L92.00000,47.00000 M93.00000,2.00000 L94.00000,2.00000 M93.00000,47.50000 L92.00000,47.00000 M94.00000,2.00000 L95.00000,2.00000 M94.00000,48.00000 L93.00000,47.50000 M94.00000,48.00000 L94.00000,48.00000 M95.00000,2.00000 L96.00000,2.00000 M95.00000,48.50000 L94.00000,48.00000 M96.00000,2.00000 L97.00000,2.00000 M96.00000,49.00000 L95.00000,48.50000 M96.00000,49.00000 L96.00000,49.00000 M97.00000,2.00000 L98.00000,2.00000 M97.00000,49.50000 L96.00000,49.00000 M98.00000,2.00000 L99.00000,2.00000 M98.00000,50.00000 L97.00000,49.50000 M98.00000,50.00000 L98.00000,50.00000 M99.00000,2.00000 L100.00000,2.00000 M99.00000,50.50000 L98.00000,50.00000 M100.00000,2.00000 L101.00000,2.00000 M100.00000,51.00000 L99.00000,50.50000 M100.00000,51.00000 L100.00000,51.00000 M101.00000,2.00000 L102.00000,2.00000 M101.00000,51.50000 L100.00000,51.00000 M102.00000,2.00000 L103.00000,2.00000 M102.00000,52.00000 L101.00000,51.50000 M102.00000,52.00000 L102.00000,52.00000 M102.99999,53.00000 L102.00000,52.00000 M103.00000,2.00000 L104.00000,2.00000 M103.00000,53.00001 L102.99999,53.00000 M104.00000,2.00000 L105.00000,2.00000 M104.00000,54.00000 L103.00000,53.00001 M104.00000,54.00000 L104.00000,54.00000 M105.00000,2.00000 L106.00000,2.00000 M105.00000,55.00000 L104.00000,54.00000 M105.00000,55.00000 L105.00000,55.00000 M106.00000,2.00000 L107.00000,2.00000 M106.00000,56.00000 L105.00000,55.00000 M106.00000,56.00000 L106.00000,56.00000 M106.99999,57.00000 L106.00000,56.00000 M107.00000,2.00000 L108.00000,2.00000 M107.00000,57.00001 L106.99999,57.00000 M107.99999,58.00000 L107.00000,57.00001 M108.00000,2.00000 L109.00000,2.00000 M108.00000,58.00001 L107.99999,58.00000 M108.99999,59.00000 L108.00000,58.00001 M109.00000,2.00000 L110.00000,2.00000 M109.00000,59.00001 L108.99999,59.00000 M110.00000,2.00000 L111.00000,2.00000 M110.00000,60.00000 L109.00000,59.00001 M110.00000,60.00000 L110.00000,60.00000 M111.00000,2.00000 L112.00000,2.00000 M111.00000,61.00000 L110.00000,60.00000 M111.00000,61.00000 L111.00000,61.00000 M112.00000,2.00000 L113.00000,2.00000 M112.00000,62.00000 L111.00000,61.00000 M112.00000,62.00000 L112.00000,62.00000 M112.99999,63.00000 L112.00000,62.00000 M113.00000,2.00000 L114.00000,2.00000 M113.00000,63.00001 L112.99999,63.00000 M113.99999,64.00000 L113.00000,63.00001 M114.00000,2.00000 L115.00000,2.00000 M114.00000,64.00001 L113.99999,64.00000 M114.99999,65.00000 L114.00000,64.00001 M115.00000,2.00000 L116.00000,2.00000 M115.00000,65.00001 L114.99999,65.00000 M116.00000,2.00000 L117.00000,2.00000 M116.00000,66.00000 L115.00000,65.00001 M116.00000,66.00000 L116.00000,66.00000 M117.00000,2.00000 L118.00000,2.00000 M117.00000,67.00000 L116.00000,66.00000 M117.00000,67.00000 L117.00000,67.00000 M118.00000,2.00000 L119.00000,2.00000 M118.00000,68.00000 L117.00000,67.00000 M118.00000,68.00000 L118.00000,68.00000 M118.99999,69.00000 L118.00000,68.00000 M119.00000,2.00000 L120.00000,2.00000 M119.00000,69.00001 L118.99999,69.00000 M119.99999,70.00000 L119.00000,69.00001 M120.00000,2.00000 L121.00000,2.00000 M120.00000,70.00001 L119.99999,70.00000 M120.99999,71.00000 L120.00000,70.00001 M121.00000,2.00000 L122.00000,2.00000 M121.00000,71.00001 L120.99999,71.00000 M122.00000,2.00000 L123.00000,2.00000 M122.00000,72.00000 L121.00000,71.00001 M122.00000,72.00000 L122.00000,72.00000 M123.00000,2.00000 L124.00000,2.00000 M123.00000,73.00000 L122.00000,72.00000 M123.00000,73.00000 L123.00000,73.00000 M124.00000,2.00000 L125.00000,2.00000 M124.00000,74.00000 L123.00000,73.00000 M124.00000,74.00000 L124.00000,74.00000 M124.99999,75.00000 L124.00000,74.00000 M125.00000,2.00000 L126.00000,2.00000 M125.00000,75.00001 L124.99999,75.00000 M125.99999,76.00000 L125.00000,75.00001 M126.00000,2.00000 L127.00000,2.00000 M126.00000,76.00001 L125.99999,76.00000 M126.99999,77.00000 L126.00000,76.00001 M127.00000,2.00000 L128.00000,2.00000 M127.00000,77.00001 L126.99999,77.00000 M128.00000,2.00000 L129.00000,2.00000 M128.00000,78.00000 L127.00000,77.00001 M128.00000,78.00000 L128.00000,78.00000 M129.00000,2.00000 L130.00000,2.00000 M129.00000,79.00000 L128.00000,78.00000 M129.00000,79.00000 L129.00000,79.00000 M130.00000,2.00000 L131.00000,2.00000 M130.00000,80.00000 L129.00000,79.00000 M130.00000,80.00000 L130.00000,80.00000 M131.00000,2.00000 L132.00000,2.00000 M131.00000,81.00000 L130.00000,80.00000 M131.00000,81.00000 L131.00000,81.00000 M132.00000,2.00000 L133.00000,2.00000 M132.00000,82.00000 L131.00000,81.00000 M132.00000,82.00000 L132.00000,82.00000 M133.00000,2.00000 L134.00000,2.00000 M133.00000,83.00000 L132.00000,82.00000 M133.00000,83.00000 L133.00000,83.00000 M134.00000,2.00000 L135.00000,2.00000 M134.00000,84.00000 L133.00000,83.00000 M134.00000,84.00000 L134.00000,84.00000 M135.00000,2.00000 L136.00000,2.00000 M135.00000,85.00000 L134.00000,84.00000 M135.00000,85.00000 L135.00000,85.00000 M136.00000,2.00000 L137.00000,2.00000 M136.00000,86.00000 L135.00000,85.00000 M136.00000,86.00000 L136.00000,86.00000 M137.00000,2.00000 L138.00000,2.00000 M137.00000,87.00000 L136.00000,86.00000 M137.00000,87.00000 L137.00000,87.00000 M138.00000,2.00000 L139.00000,2.00000 M138.00000,88.00000 L137.00000,87.00000 M138.00000,88.00000 L138.00000,88.00000 M139.00000,2.00000 L140.00000,2.00000 M139.00000,89.00000 L138.00000,88.00000 M139.00000,89.00000 L139.00000,89.00000 M140.00000,2.00000 L141.00000,2.00000 M140.00000,90.00000 L139.00000,89.00000 M140.00000,90.00000 L140.00000,90.00000 M141.00000,2.00000 L142.00000,2.00000 M141.00000,91.00000 L140.00000,90.00000 M141.00000,91.00000 L141.00000,91.00000 M142.00000,2.00000 L143.00000,2.00000 M142.00000,92.00000 L141.00000,91.00000 M142.00000,92.00000 L142.00000,92.00000 M143.00000,2.00000 L144.00000,2.00000 M143.00000,93.00000 L142.00000,92.00000 M143.00000,93.00000 L143.00000,93.00000 M144.00000,2.00000 L145.00000,2.00000 M144.00000,94.00000 L143.00000,93.00000 M144.00000,94.00000 L144.00000,94.00000 M145.00000,2.00000 L146.00000,2.00000 M145.00000,95.00000 L144.00000,94.00000 M145.00000,95.00000 L145.00000,95.00000 M146.00000,2.00000 L147.00000,2.00000 M146.00000,96.00000 L145.00000,95.00000 M146.00000,96.00000 L146.00000,96.00000 M147.00000,2.00000 L148.00000,2.00000 M147.00000,97.00000 L146.00000,96.00000 M147.00000,97.00000 L147.00000,97.00000 M148.00000,2.00000 L149.00000,2.00000 M148.00000,98.00000 L147.00000,97.00000 M148.00000,98.00000 L148.00000,98.00000 M149.00000,2.00000 L150.00000,2.00000 M149.00000,99.00000 L148.00000,98.00000 M149.00000,99.00000 L149.00000,99.00000 M150.00000,2.00000 L151.00000,2.00000 M150.00000,100.00000 L149.00000,99.00000 M150.00000,100.00000 L150.00000,100.00000 M151.00000,2.00000 L152.00000,2.00000 M151.00000,101.00000 L150.00000,100.00000 M151.00000,101.00000 L151.00000,101.00000 M152.00000,2.00000 L152.00000,2.00000 M152.00000,2.00000 L152.33333,3.00000 M152.00000,102.00000 L151.00000,101.00000 M152.00000,102.00000 L152.00000,102.00000 M152.33333,3.00000 L152.66667,4.00000 M152.66667,4.00000 L153.00000,5.00000 M153.00000,5.00000 L153.00000,5.00000 M153.00000,5.00000 L153.33333,6.00000 M153.00000,103.00000 L152.00000,102.00000 M153.00000,103.00000 L153.00000,103.00000 M153.33333,6.00000 L153.66667,7.00000 M153.66667,7.00000 L154.00000,8.00000 M154.00000,8.00000 L154.00000,8.00000 M154.00000,8.00000 L154.33333,9.00000 M154.00000,104.00000 L153.00000,103.00000 M154.00000,104.00000 L154.00000,104.00000 M154.33333,9.00000 L154.66667,10.00000 M154.66667,10.00000 L155.00000,11.00000 M155.00000,11.00000 L155.00000,11.00000 M155.00000,11.00000 L155.33333,12.00000 M155.00000,105.00000 L154.00000,104.00000 M155.00000,105.00000 L155.00000,105.00000 M155.33333,12.00000 L155.66667,13.00000 M155.66667,13.00000 L156.00000,14.00000 M156.00000,14.00000 L156.00000,14.00000 M156.00000,14.00000 L156.33333,15.00000 M156.00000,106.00000 L155.00000,105.00000 M156.00000,106.00000 L156.00000,106.00000 M156.33333,15.00000 L156.66667,16.00000 M156.66667,16.00000 L157.00000,17.00000 M157.00000,17.00000 L157.00000,17.00000 M157.00000,17.00000 L157.33333,18.00000 M157.00000,107.00000 L156.00000,106.00000 M157.00000,107.00000 L157.00000,107.00000 M157.33333,18.00000 L157.66667,19.00000 M157.66667,19.00000 L158.00000,20.00000 M158.00000,20.00000 L158.00000,20.00000 M158.00000,20.00000 L158.33333,21.00000 M158.00000,108.00000 L157.00000,107.00000 M158.00000,108.00000 L158.00000,108.00000 M158.33333,21.00000 L158.66667,22.00000 M158.66667,22.00000 L159.00000,23.00000 M159.00000,23.00000 L159.00000,23.00000 M159.00000,23.00000 L159.33333,24.00000 M159.00000,109.00000 L158.00000,108.00000 M159.00000,109.00000 L159.00000,109.00000 M159.33333,24.00000 L159.66667,25.00000 M159.66667,25.00000 L160.00000,26.00000 M160.00000,26.00000 L160.00000,26.00000 M160.00000,26.00000 L160.33333,27.00000 M160.00000,110.00000 L159.00000,109.00000 M160.00000,110.00000 L160.00000,110.00000 M160.33333,27.00000 L160.66667,28.00000 M160.66667,28.00000 L161.00000,29.00000 M161.00000,29.00000 L161.00000,29.00000 M161.00000,29.00000 L161.33333,30.00000 M161.00000,111.00000 L160.00000,110.00000 M161.00000,111.00000 L161.00000,111.00000 M161.33333,30.00000 L161.66667,31.00000 M161.66667,31.00000 L162.00000,32.00000 M162.00000,32.00000 L162.00000,32.00000 M162.00000,32.00000 L162.33333,33.00000 M162.00000,112.00000 L161.00000,111.00000 M162.00000,112.00000 L162.00000,112.00000 M162.33333,33.00000 L162.66667,34.00000 M162.66667,34.00000 L163.00000,35.00000 M163.00000,35.00000 L163.00000,35.00000 M163.00000,35.00000 L163.33333,36.00000 M163.00000,113.00000 L162.00000,112.00000 M163.00000,113.00000 L163.00000,113.00000 M163.33333,36.00000 L163.66667,37.00000 M163.66667,37.00000 L164.00000,38.00000 M164.00000,38.00000 L164.00000,38.00000 M164.00000,38.00000 L164.33333,39.00000 M164.00000,114.00000 L163.00000,113.00000 M164.00000,114.00000 L164.00000,114.00000 M164.33333,39.00000 L164.66667,40.00000 M164.66667,40.00000 L165.00000,41.00000 M165.00000,41.00000 L165.00000,41.00000 M165.00000,41.00000 L165.33333,42.00000 M165.00000,115.00000 L164.00000,114.00000 M165.00000,115.00000 L165.00000,115.00000 M165.33333,42.00000 L165.66667,43.00000 M165.66667,43.00000 L166.00000,44.00000 M166.00000,44.00000 L166.00000,44.00000 M166.00000,44.00000 L166.33333,45.00000 M166.00000,116.00000 L165.00000,115.00000 M166.00000,116.00000 L166.00000,116.00000 M166.33333,45.00000 L166.66667,46.00000 M166.66667,46.00000 L167.00000,47.00000 M167.00000,47.00000 L167.00000,47.00000 M167.00000,47.00000 L167.33333,48.00000 M167.00000,117.00000 L166.00000,116.00000 M167.00000,117.00000 L167.00000,117.00000 M167.33333,48.00000 L167.66667,49.00000 M167.66667,49.00000 L168.00000,50.00000 M168.00000,50.00000 L168.00000,50.00000 M168.00000,50.00000 L168.33333,51.00000 M168.00000,118.00000 L167.00000,117.00000 M168.00000,118.00000 L168.00000,118.00000 M168.33333,51.00000 L168.66667,52.00000 M168.66667,52.00000 L169.00000,53.00000 M169.00000,53.00000 L169.00000,53.00000 M169.00000,53.00000 L169.33333,54.00000 M169.00000,119.00000 L168.00000,118.00000 M169.00000,119.00000 L169.00000,119.00000 M169.33333,54.00000 L169.66667,55.00000 M169.66667,55.00000 L170.00000,56.00000 M170.00000,56.00000 L170.00000,56.00000 M170.00000,56.00000 L170.33333,57.00000 M170.00000,120.00000 L169.00000,119.00000 M170.00000,120.00000 L170.00000,120.00000 M170.33333,57.00000 L170.66667,58.00000 M170.66667,58.00000 L171.00000,59.00000 M171.00000,59.00000 L171.00000,59.00000 M171.00000,59.00000 L171.33333,60.00000 M171.00000,121.00000 L170.00000,120.00000 M171.00000,121.00000 L171.00000,121.00000 M171.33333,60.00000 L171.66667,61.00000 M171.66667,61.00000 L172.00000,62.00000 M172.00000,62.00000 L172.00000,62.00000 M172.00000,62.00000 L172.33333,63.00000 M172.00000,122.00000 L171.00000,121.00000 M172.00000,122.00000 L172.00000,122.00000 M172.33333,63.00000 L172.66667,64.00000 M172.66667,64.00000 L173.00000,65.00000 M173.00000,65.00000 L173.00000,65.00000 M173.00000,65.00000 L173.33333,66.00000 M173.00000,123.00000 L172.00000,122.00000 M173.00000,123.00000 L173.00000,123.00000 M173.33333,66.00000 L173.66667,67.00000 M173.66667,67.00000 L174.00000,68.00000 M174.00000,68.00000 L174.00000,68.00000 M174.00000,68.00000 L174.33333,69.00000 M174.00000,124.00000 L173.00000,123.00000 M174.00000,124.00000 L174.00000,124.00000 M174.33333,69.00000 L174.66667,70.00000 M174.66667,70.00000 L175.00000,71.00000 M175.00000,71.00000 L175.00000,71.00000 M175.00000,71.00000 L175.33333,72.00000 M175.00000,125.00000 L174.00000,124.00000 M175.00000,125.00000 L175.00000,125.00000 M175.33333,72.00000 L175.66667,73.00000 M175.66667,73.00000 L176.00000,74.00000 M176.00000,74.00000 L176.00000,74.00000 M176.00000,74.00000 L176.33333,75.00000 M176.00000,126.00000 L175.00000,125.00000 M176.00000,126.00000 L176.00000,126.00000 M176.33333,75.00000 L176.66667,76.00000 M176.66667,76.00000 L177.00000,77.00000 M177.00000,77.00000 L177.00000,77.00000 M177.00000,77.00000 L177.33333,78.00000 M177.00000,127.00000 L176.00000,126.00000 M177.00000,127.00000 L177.00000,127.00000 M177.33333,78.00000 L177.66666,79.00000 M177.66666,79.00000 L178.00000,80.00000 M178.00000,80.00000 L178.00000,80.00000 M178.00000,80.00000 L178.33333,81.00000 M178.00000,128.00000 L177.00000,127.00000 M178.00000,128.00000 L178.00000,128.00000 M178.33333,81.00000 L178.66667,82.00000 M178.66667,82.00000 L179.00000,83.00000 M179.00000,83.00000 L179.00000,83.00000 M179.00000,83.00000 L179.33333,84.00000 M179.00000,129.00000 L178.00000,128.00000 M179.00000,129.00000 L179.00000,129.00000 M179.33333,84.00000 L179.66667,85.00000 M179.66667,85.00000 L180.00000,86.00000 M180.00000,86.00000 L180.00000,86.00000 M180.00000,86.00000 L180.33333,87.00000 M180.00000,130.00000 L179.00000,129.00000 M180.00000,130.00000 L180.00000,130.00000 M180.33333,87.00000 L180.66666,88.00000 M180.66666,88.00000 L181.00000,89.00000 M181.00000,89.00000 L181.00000,89.00000 M181.00000,89.00000 L181.33333,90.00000 M181.00000,131.00000 L180.00000,130.00000 M181.00000,131.00000 L181.00000,131.00000 M181.33333,90.00000 L181.66667,91.00000 M181.66667,91.00000 L182.00000,92.00000 M182.00000,92.00000 L182.00000,92.00000 M182.00000,92.00000 L182.33333,93.00000 M182.00000,132.00000 L181.00000,131.00000 M182.00000,132.00000 L182.00000,132.00000 M182.33333,93.00000 L182.66667,94.00000 M182.66667,94.00000 L183.00000,95.00000 M183.00000,95.00000 L183.00000,95.00000 M183.00000,95.00000 L183.33333,96.00000 M183.00000,133.00000 L182.00000,132.00000 M183.00000,133.00000 L183.00000,133.00000 M183.33333,96.00000 L183.66667,97.00000 M183.66667,97.00000 L184.00000,98.00000 M184.00000,98.00000 L184.00000,98.00000 M184.00000,98.00000 L184.33333,99.00000 M184.00000,134.00000 L183.00000,133.00000 M184.00000,134.00000 L184.00000,134.00000 M184.33333,99.00000 L184.66667,100.00000 M184.66667,100.00000 L185.00000,101.00000 M185.00000,101.00000 L185.00000,101.00000 M185.00000,101.00000 L185.33333,102.00000 M185.00000,135.00000 L184.00000,134.00000 M185.00000,135.00000 L185.00000,135.00000 M185.33333,102.00000 L185.66667,103.00000 M185.66667,103.00000 L186.00000,104.00000 M186.00000,104.00000 L186.00000,104.00000 M186.00000,104.00000 L186.33333,105.00000 M186.00000,136.00000 L185.00000,135.00000 M186.00000,136.00000 L186.00000,136.00000 M186.33333,105.00000 L186.66667,106.00000 M186.66667,106.00000 L187.00000,107.00000 M187.00000,107.00000 L187.00000,107.00000 M187.00000,107.00000 L187.33333,108.00000 M187.00000,137.00000 L186.00000,136.00000 M187.00000,137.00000 L187.00000,137.00000 M187.33333,108.00000 L187.66667,109.00000 M187.66667,109.00000 L188.00000,110.00000 M188.00000,110.00000 L188.00000,110.00000 M188.00000,110.00000 L188.33333,111.00000 M188.00000,138.00000 L187.00000,137.00000 M188.00000,138.00000 L188.00000,138.00000 M188.33333,111.00000 L188.66667,112.00000 M188.66667,112.00000 L189.00000,113.00000 M189.00000,113.00000 L189.00000,113.00000 M189.00000,113.00000 L189.33333,114.00000 M189.00000,139.00000 L188.00000,138.00000 M189.00000,139.00000 L189.00000,139.00000 M189.33333,114.00000 L189.66667,115.00000 M189.66667,115.00000 L190.00000,116.00000 M190.00000,116.00000 L190.00000,116.00000 M190.00000,116.00000 L190.33333,117.00000 M190.00000,140.00000 L189.00000,139.00000 M190.00000,140.00000 L190.00000,140.00000 M190.33333,117.00000 L190.66667,118.00000 M190.66667,118.00000 L191.00000,119.00000 M191.00000,119.00000 L191.00000,119.00000 M191.00000,119.00000 L191.33333,120.00000 M191.00000,141.00000 L190.00000,140.00000 M191.00000,141.00000 L191.00000,141.00000 M191.33333,120.00000 L191.66667,121.00000 M191.66667,121.00000 L192.00000,122.00000 M192.00000,122.00000 L192.00000,122.00000 M192.00000,122.00000 L192.33333,123.00000 M192.00000,142.00000 L191.00000,141.00000 M192.00000,142.00000 L192.00000,142.00000 M192.33333,123.00000 L192.66667,124.00000 M192.66667,124.00000 L193.00000,125.00000 M193.00000,125.00000 L193.00000,125.00000 M193.00000,125.00000 L193.33333,126.00000 M193.00000,143.00000 L192.00000,142.00000 M193.00000,143.00000 L193.00000,143.00000 M193.33333,126.00000 L193.66666,127.00000 M193.66666,127.00000 L194.00000,128.00000 M194.00000,128.00000 L194.00000,128.00000 M194.00000,128.00000 L194.33333,129.00000 M194.00000,144.00000 L193.00000,143.00000 M194.00000,144.00000 L194.00000,144.00000 M194.33333,129.00000 L194.66667,130.00000 M194.66667,130.00000 L195.00000,131.00000 M195.00000,131.00000 L195.00000,131.00000 M195.00000,131.00000 L195.33333,132.00000 M195.00000,145.00000 L194.00000,144.00000 M195.00000,145.00000 L195.00000,145.00000 M195.33333,132.00000 L195.66667,133.00000 M195.66667,133.00000 L196.00000,134.00000 M196.00000,134.00000 L196.00000,134.00000 M196.00000,134.00000 L196.33333,135.00000 M196.00000,146.00000 L195.00000,145.00000 M196.00000,146.00000 L196.00000,146.00000 M196.33333,135.00000 L196.66666,136.00000 M196.66666,136.00000 L197.00000,137.00000 M197.00000,137.00000 L197.00000,137.00000 M197.00000,137.00000 L197.33333,138.00000 M197.00000,147.00000 L196.00000,146.00000 M197.00000,147.00000 L197.00000,147.00000 M197.33333,138.00000 L197.66667,139.00000 M197.66667,139.00000 L198.00000,140.00000 M198.00000,140.00000 L198.00000,140.00000 M198.00000,140.00000 L198.33333,141.00000 M198.00000,148.00000 L197.00000,147.00000 M198.00000,148.00000 L198.00000,148.00000 M198.33333,141.00000 L198.66667,142.00000 M198.66667,142.00000 L199.00000,143.00000 M199.00000,143.00000 L199.00000,143.00000 M199.00000,143.00000 L199.33333,144.00000 M199.00000,149.00000 L198.00000,148.00000 M199.00000,149.00000 L199.00000,149.00000 M199.33333,144.00000 L199.66666,145.00000 M199.66666,145.00000 L200.00000,146.00000 M200.00000,146.00000 L200.00000,146.00000 M200.00000,146.00000 L200.33333,147.00000 M200.00000,150.00000 L199.00000,149.00000 M200.00000,150.00000 L200.00000,150.00000 M200.33333,147.00000 L200.66667,148.00000 M200.66667,148.00000 L201.00000,149.00000 M201.00000,149.00000 L201.00000,149.00000 M201.00000,149.00000 L201.33333,150.00000 M201.00000,151.00000 L200.00000,150.00000 M201.00000,151.00000 L201.00000,151.00000 M201.00000,151.00000 L201.00000,151.00000 M201.33333,150.00000 L201.00000,151.00000 M202.00000,152.00000 L202.00000,152.00000 M202.00000,152.00000 L202.00000,152.00000 M202.00000,152.00000 L202.00000,152.00000 M202.00000,152.00000 L202.00000,152.00000 "/>

<script>
let svgs = document.children[0];
let paths = Array.from(svgs.children).filter(function(c) {
    var orig = c.style.stroke;
    c.onmouseover = function() {
        c.style.stroke = "rgb(0, 0, 255)";
    };
    c.onmouseout = function () {
        c.style.stroke = orig;
    };
    c.onclick = function () {
        svgs.removeChild()
    }
});

for (let path of paths) {
    console.log(path);
}
</script></svg>