<svg xmlns="http://www.w3.org/2000/svg">
    <path fill-rule="evenodd" style="fill: none; stroke: rgb(0, 0, 0); stroke-width: 0.2;" d="M52.00000,52.00000 L52.00000,52.00000 M52.00000,52.00000 L53.00000,52.00000 M52.00000,53.00000 L52.00000,52.00000 M52.00000,54.00000 L52.00000,53.00000 M52.00000,55.00000 L52.00000,54.00000 M52.00000,56.00000 L52.00000,55.00000 M52.00000,57.00000 L52.00000,56.00000 M52.00000,58.00000 L52.00000,57.00000 M52.00000,59.00000 L52.00000,58.00000 M52.00000,60.00000 L52.00000,59.00000 M52.00000,61.00000 L52.00000,60.00000 M52.00000,62.00000 L52.00000,61.00000 M52.00000,63.00000 L52.00000,62.00000 M52.00000,64.00000 L52.00000,63.00000 M52.00000,65.00000 L52.00000,64.00000 M52.00000,66.00000 L52.00000,65.00000 M52.00000,67.00000 L52.00000,66.00000 M52.00000,68.00000 L52.00000,67.00000 M52.00000,69.00000 L52.00000,68.00000 M52.00000,70.00000 L52.00000,69.00000 M52.00000,71.00000 L52.00000,70.00000 M52.00000,72.00000 L52.00000,71.00000 M52.00000,73.00000 L52.00000,72.00000 M52.00000,74.00000 L52.00000,73.00000 M52.00000,75.00000 L52.00000,74.00000 M52.00000,76.00000 L52.00000,75.00000 M52.00000,77.00000 L52.00000,76.00000 M52.00000,78.00000 L52.00000,77.00000 M52.00000,79.00000 L52.00000,78.00000 M52.00000,80.00000 L52.00000,79.00000 M52.00000,81.00000 L52.00000,80.00000 M52.00000,82.00000 L52.00000,81.00000 M52.00000,83.00000 L52.00000,82.00000 M52.00000,84.00000 L52.00000,83.00000 M52.00000,85.00000 L52.00000,84.00000 M52.00000,86.00000 L52.00000,85.00000 M52.00000,87.00000 L52.00000,86.00000 M52.00000,88.00000 L52.00000,87.00000 M52.00000,89.00000 L52.00000,88.00000 M52.00000,90.00000 L52.00000,89.00000 M52.00000,91.00000 L52.00000,90.00000 M52.00000,92.00000 L52.00000,91.00000 M52.00000,93.00000 L52.00000,92.00000 M52.00000,94.00000 L52.00000,93.00000 M52.00000,95.00000 L52.00000,94.00000 M52.00000,96.00000 L52.00000,95.00000 M52.00000,97.00000 L52.00000,96.00000 M52.00000,98.00000 L52.00000,97.00000 M52.00000,99.00000 L52.00000,98.00000 M52.00000,100.00000 L52.00000,99.00000 M52.00000,101.00000 L52.00000,100.00000 M52.00000,102.00000 L52.00000,101.00000 M52.00000,103.00000 L52.00000,102.00000 M52.00000,104.00000 L52.00000,103.00000 M52.00000,105.00000 L52.00000,104.00000 M52.00000,106.00000 L52.00000,105.00000 M52.00000,107.00000 L52.00000,106.00000 M52.00000,108.00000 L52.00000,107.00000 M52.00000,109.00000 L52.00000,108.00000 M52.00000,110.00000 L52.00000,109.00000 M52.00000,111.00000 L52.00000,110.00000 M52.00000,112.00000 L52.00000,111.00000 M52.00000,113.00000 L52.00000,112.00000 M52.00000,114.00000 L52.00000,113.00000 M52.00000,115.00000 L52.00000,114.00000 M52.00000,116.00000 L52.00000,115.00000 M52.00000,117.00000 L52.00000,116.00000 M52.00000,118.00000 L52.00000,117.00000 M52.00000,119.00000 L52.00000,118.00000 M52.00000,120.00000 L52.00000,119.00000 M52.00000,121.00000 L52.00000,120.00000 M52.00000,122.00000 L52.00000,121.00000 M52.00000,123.00000 L52.00000,122.00000 M52.00000,124.00000 L52.00000,123.00000 M52.00000,125.00000 L52.00000,124.00000 M52.00000,126.00000 L52.00000,125.00000 M52.00000,127.00000 L52.00000,126.00000 M52.00000,128.00000 L52.00000,127.00000 M52.00000,129.00000 L52.00000,128.00000 M52.00000,130.00000 L52.00000,129.00000 M52.00000,131.00000 L52.00000,130.00000 M52.00000,132.00000 L52.00000,131.00000 M52.00000,133.00000 L52.00000,132.00000 M52.00000,134.00000 L52.00000,133.00000 M52.00000,135.00000 L52.00000,134.00000 M52.00000,136.00000 L52.00000,135.00000 M52.00000,137.00000 L52.00000,136.00000 M52.00000,138.00000 L52.00000,137.00000 M52.00000,139.00000 L52.00000,138.00000 M52.00000,140.00000 L52.00000,139.00000 M52.00000,141.00000 L52.00000,140.00000 M52.00000,142.00000 L52.00000,141.00000 M52.00000,143.00000 L52.00000,142.00000 M52.00000,144.00000 L52.00000,143.00000 M52.00000,145.00000 L52.00000,144.00000 M52.00000,146.00000 L52.00000,145.00000 M52.00000,147.00000 L52.00000,146.00000 M52.00000,148.00000 L52.00000,147.00000 M52.00000,149.00000 L52.00000,148.00000 M52.00000,150.00000 L52.00000,149.00000 M52.00000,151.00000 L52.00000,150.00000 M52.00000,152.00000 L52.00000,151.00000 M52.00000,152.00000 L52.00000,152.00000 M53.00000,52.00000 L54.00000,52.00000 M53.00000,152.00000 L52.00000,152.00000 M54.00000,52.00000 L55.00000,52.00000 M54.00000,152.00000 L53.00000,152.00000 M55.00000,52.00000 L56.00000,52.00000 M55.00000,152.00000 L54.00000,152.00000 M56.00000,52.00000 L57.00000,52.00000 M56.00000,152.00000 L55.00000,152.00000 M57.00000,52.00000 L58.00000,52.00000 M57.00000,152.00000 L56.00000,152.00000 M58.00000,52.00000 L59.00000,52.00000 M58.00000,152.00000 L57.00000,152.00000 M59.00000,52.00000 L60.00000,52.00000 M59.00000,152.00000 L58.00000,152.00000 M60.00000,52.00000 L61.00000,52.00000 M60.00000,152.00000 L59.00000,152.00000 M61.00000,52.00000 L62.00000,52.00000 M61.00000,152.00000 L60.00000,152.00000 M62.00000,52.00000 L63.00000,52.00000 M62.00000,152.00000 L61.00000,152.00000 M63.00000,52.00000 L64.00000,52.00000 M63.00000,152.00000 L62.00000,152.00000 M64.00000,52.00000 L65.00000,52.00000 M64.00000,152.00000 L63.00000,152.00000 M65.00000,52.00000 L66.00000,52.00000 M65.00000,152.00000 L64.00000,152.00000 M66.00000,52.00000 L67.00000,52.00000 M66.00000,152.00000 L65.00000,152.00000 M67.00000,52.00000 L68.00000,52.00000 M67.00000,152.00000 L66.00000,152.00000 M68.00000,52.00000 L69.00000,52.00000 M68.00000,152.00000 L67.00000,152.00000 M69.00000,52.00000 L70.00000,52.00000 M69.00000,152.00000 L68.00000,152.00000 M70.00000,52.00000 L71.00000,52.00000 M70.00000,152.00000 L69.00000,152.00000 M71.00000,52.00000 L72.00000,52.00000 M71.00000,152.00000 L70.00000,152.00000 M72.00000,52.00000 L73.00000,52.00000 M72.00000,152.00000 L71.00000,152.00000 M73.00000,52.00000 L74.00000,52.00000 M73.00000,152.00000 L72.00000,152.00000 M74.00000,52.00000 L75.00000,52.00000 M74.00000,152.00000 L73.00000,152.00000 M75.00000,52.00000 L76.00000,52.00000 M75.00000,152.00000 L74.00000,152.00000 M76.00000,52.00000 L77.00000,52.00000 M76.00000,152.00000 L75.00000,152.00000 M77.00000,52.00000 L78.00000,52.00000 M77.00000,152.00000 L76.00000,152.00000 M78.00000,52.00000 L79.00000,52.00000 M78.00000,152.00000 L77.00000,152.00000 M79.00000,52.00000 L80.00000,52.00000 M79.00000,152.00000 L78.00000,152.00000 M80.00000,52.00000 L81.00000,52.00000 M80.00000,152.00000 L79.00000,152.00000 M81.00000,52.00000 L82.00000,52.00000 M81.00000,152.00000 L80.00000,152.00000 M82.00000,52.00000 L83.00000,52.00000 M82.00000,152.00000 L81.00000,152.00000 M83.00000,52.00000 L84.00000,52.00000 M83.00000,152.00000 L82.00000,152.00000 M84.00000,52.00000 L85.00000,52.00000 M84.00000,152.00000 L83.00000,152.00000 M85.00000,52.00000 L86.00000,52.00000 M85.00000,152.00000 L84.00000,152.00000 M86.00000,52.00000 L87.00000,52.00000 M86.00000,152.00000 L85.00000,152.00000 M87.00000,52.00000 L88.00000,52.00000 M87.00000,152.00000 L86.00000,152.00000 M88.00000,52.00000 L89.00000,52.00000 M88.00000,152.00000 L87.00000,152.00000 M89.00000,52.00000 L90.00000,52.00000 M89.00000,152.00000 L88.00000,152.00000 M90.00000,52.00000 L91.00000,52.00000 M90.00000,152.00000 L89.00000,152.00000 M91.00000,52.00000 L92.00000,52.00000 M91.00000,152.00000 L90.00000,152.00000 M92.00000,52.00000 L93.00000,52.00000 M92.00000,152.00000 L91.00000,152.00000 M93.00000,52.00000 L94.00000,52.00000 M93.00000,152.00000 L92.00000,152.00000 M94.00000,52.00000 L95.00000,52.00000 M94.00000,152.00000 L93.00000,152.00000 M95.00000,52.00000 L96.00000,52.00000 M95.00000,152.00000 L94.00000,152.00000 M96.00000,52.00000 L97.00000,52.00000 M96.00000,152.00000 L95.00000,152.00000 M97.00000,52.00000 L98.00000,52.00000 M97.00000,152.00000 L96.00000,152.00000 M98.00000,52.00000 L99.00000,52.00000 M98.00000,152.00000 L97.00000,152.00000 M99.00000,52.00000 L100.00000,52.00000 M99.00000,152.00000 L98.00000,152.00000 M100.00000,52.00000 L101.00000,52.00000 M100.00000,152.00000 L99.00000,152.00000 M101.00000,52.00000 L102.00000,52.00000 M101.00000,152.00000 L100.00000,152.00000 M102.00000,52.00000 L103.00000,52.00000 M102.00000,152.00000 L101.00000,152.00000 M103.00000,52.00000 L104.00000,52.00000 M103.00000,152.00000 L102.00000,152.00000 M104.00000,52.00000 L105.00000,52.00000 M104.00000,152.00000 L103.00000,152.00000 M105.00000,52.00000 L106.00000,52.00000 M105.00000,152.00000 L104.00000,152.00000 M106.00000,52.00000 L107.00000,52.00000 M106.00000,152.00000 L105.00000,152.00000 M107.00000,52.00000 L108.00000,52.00000 M107.00000,152.00000 L106.00000,152.00000 M108.00000,52.00000 L109.00000,52.00000 M108.00000,152.00000 L107.00000,152.00000 M109.00000,52.00000 L110.00000,52.00000 M109.00000,152.00000 L108.00000,152.00000 M110.00000,52.00000 L111.00000,52.00000 M110.00000,152.00000 L109.00000,152.00000 M111.00000,52.00000 L112.00000,52.00000 M111.00000,152.00000 L110.00000,152.00000 M112.00000,52.00000 L113.00000,52.00000 M112.00000,152.00000 L111.00000,152.00000 M113.00000,52.00000 L114.00000,52.00000 M113.00000,152.00000 L112.00000,152.00000 M114.00000,52.00000 L115.00000,52.00000 M114.00000,152.00000 L113.00000,152.00000 M115.00000,52.00000 L116.00000,52.00000 M115.00000,152.00000 L114.00000,152.00000 M116.00000,52.00000 L117.00000,52.00000 M116.00000,152.00000 L115.00000,152.00000 M117.00000,52.00000 L118.00000,52.00000 M117.00000,152.00000 L116.00000,152.00000 M118.00000,52.00000 L119.00000,52.00000 M118.00000,152.00000 L117.00000,152.00000 M119.00000,52.00000 L120.00000,52.00000 M119.00000,152.00000 L118.00000,152.00000 M120.00000,52.00000 L121.00000,52.00000 M120.00000,152.00000 L119.00000,152.00000 M121.00000,52.00000 L122.00000,52.00000 M121.00000,152.00000 L120.00000,152.00000 M122.00000,52.00000 L123.00000,52.00000 M122.00000,152.00000 L121.00000,152.00000 M123.00000,52.00000 L124.00000,52.00000 M123.00000,152.00000 L122.00000,152.00000 M124.00000,52.00000 L125.00000,52.00000 M124.00000,152.00000 L123.00000,152.00000 M125.00000,52.00000 L126.00000,52.00000 M125.00000,152.00000 L124.00000,152.00000 M126.00000,52.00000 L127.00000,52.00000 M126.00000,152.00000 L125.00000,152.00000 M127.00000,52.00000 L128.00000,52.00000 M127.00000,152.00000 L126.00000,152.00000 M128.00000,52.00000 L129.00000,52.00000 M128.00000,152.00000 L127.00000,152.00000 M129.00000,52.00000 L130.00000,52.00000 M129.00000,152.00000 L128.00000,152.00000 M130.00000,52.00000 L131.00000,52.00000 M130.00000,152.00000 L129.00000,152.00000 M131.00000,52.00000 L132.00000,52.00000 M131.00000,152.00000 L130.00000,152.00000 M132.00000,52.00000 L133.00000,52.00000 M132.00000,152.00000 L131.00000,152.00000 M133.00000,52.00000 L134.00000,52.00000 M133.00000,152.00000 L132.00000,152.00000 M134.00000,52.00000 L135.00000,52.00000 M134.00000,152.00000 L133.00000,152.00000 M135.00000,52.00000 L136.00000,52.00000 M135.00000,152.00000 L134.00000,152.00000 M136.00000,52.00000 L137.00000,52.00000 M136.00000,152.00000 L135.00000,152.00000 M137.00000,52.00000 L138.00000,52.00000 M137.00000,152.00000 L136.00000,152.00000 M138.00000,52.00000 L139.00000,52.00000 M138.00000,152.00000 L137.00000,152.00000 M139.00000,52.00000 L140.00000,52.00000 M139.00000,152.00000 L138.00000,152.00000 M140.00000,52.00000 L141.00000,52.00000 M140.00000,152.00000 L139.00000,152.00000 M141.00000,52.00000 L142.00000,52.00000 M141.00000,152.00000 L140.00000,152.00000 M142.00000,52.00000 L143.00000,52.00000 M142.00000,152.00000 L141.00000,152.00000 M143.00000,52.00000 L144.00000,52.00000 M143.00000,152.00000 L142.00000,152.00000 M144.00000,52.00000 L145.00000,52.00000 M144.00000,152.00000 L143.00000,152.00000 M145.00000,52.00000 L146.00000,52.00000 M145.00000,152.00000 L144.00000,152.00000 M146.00000,52.00000 L147.00000,52.00000 M146.00000,152.00000 L145.00000,152.00000 M147.00000,52.00000 L148.00000,52.00000 M147.00000,152.00000 L146.00000,152.00000 M148.00000,52.00000 L149.00000,52.00000 M148.00000,152.00000 L147.00000,152.00000 M149.00000,52.00000 L150.00000,52.00000 M149.00000,152.00000 L148.00000,152.00000 M150.00000,52.00000 L151.00000,52.00000 M150.00000,152.00000 L149.00000,152.00000 M151.00000,52.00000 L152.00000,52.00000 M151.00000,152.00000 L150.00000,152.00000 M152.00000,52.00000 L152.00000,52.00000 M152.00000,52.00000 L152.00000,53.00000 M152.00000,53.00000 L152.00000,54.00000 M152.00000,54.00000 L152.00000,55.00000 M152.00000,55.00000 L152.00000,56.00000 M152.00000,56.00000 L152.00000,57.00000 M152.00000,57.00000 L152.00000,58.00000 M152.00000,58.00000 L152.00000,59.00000 M152.00000,59.00000 L152.00000,60.00000 M152.00000,60.00000 L152.00000,61.00000 M152.00000,61.00000 L152.00000,62.00000 M152.00000,62.00000 L152.00000,63.00000 M152.00000,63.00000 L152.00000,64.00000 M152.00000,64.00000 L152.00000,65.00000 M152.00000,65.00000 L152.00000,66.00000 M152.00000,66.00000 L152.00000,67.00000 M152.00000,67.00000 L152.00000,68.00000 M152.00000,68.00000 L152.00000,69.00000 M152.00000,69.00000 L152.00000,70.00000 M152.00000,70.00000 L152.00000,71.00000 M152.00000,71.00000 L152.00000,72.00000 M152.00000,72.00000 L152.00000,73.00000 M152.00000,73.00000 L152.00000,74.00000 M152.00000,74.00000 L152.00000,75.00000 M152.00000,75.00000 L152.00000,76.00000 M152.00000,76.00000 L152.00000,77.00000 M152.00000,77.00000 L152.00000,78.00000 M152.00000,78.00000 L152.00000,79.00000 M152.00000,79.00000 L152.00000,80.00000 M152.00000,80.00000 L152.00000,81.00000 M152.00000,81.00000 L152.00000,82.00000 M152.00000,82.00000 L152.00000,83.00000 M152.00000,83.00000 L152.00000,84.00000 M152.00000,84.00000 L152.00000,85.00000 M152.00000,85.00000 L152.00000,86.00000 M152.00000,86.00000 L152.00000,87.00000 M152.00000,87.00000 L152.00000,88.00000 M152.00000,88.00000 L152.00000,89.00000 M152.00000,89.00000 L152.00000,90.00000 M152.00000,90.00000 L152.00000,91.00000 M152.00000,91.00000 L152.00000,92.00000 M152.00000,92.00000 L152.00000,93.00000 M152.00000,93.00000 L152.00000,94.00000 M152.00000,94.00000 L152.00000,95.00000 M152.00000,95.00000 L152.00000,96.00000 M152.00000,96.00000 L152.00000,97.00000 M152.00000,97.00000 L152.00000,98.00000 M152.00000,98.00000 L152.00000,99.00000 M152.00000,99.00000 L152.00000,100.00000 M152.00000,100.00000 L152.00000,101.00000 M152.00000,101.00000 L152.00000,102.00000 M152.00000,102.00000 L152.00000,103.00000 M152.00000,103.00000 L152.00000,104.00000 M152.00000,104.00000 L152.00000,105.00000 M152.00000,105.00000 L152.00000,106.00000 M152.00000,106.00000 L152.00000,107.00000 M152.00000,107.00000 L152.00000,108.00000 M152.00000,108.00000 L152.00000,109.00000 M152.00000,109.00000 L152.00000,110.00000 M152.00000,110.00000 L152.00000,111.00000 M152.00000,111.00000 L152.00000,112.00000 M152.00000,112.00000 L152.00000,113.00000 M152.00000,113.00000 L152.00000,114.00000 M152.00000,114.00000 L152.00000,115.00000 M152.00000,115.00000 L152.00000,116.00000 M152.00000,116.00000 L152.00000,117.00000 M152.00000,117.00000 L152.00000,118.00000 M152.00000,118.00000 L152.00000,119.00000 M152.00000,119.00000 L152.00000,120.00000 M152.00000,120.00000 L152.00000,121.00000 M152.00000,121.00000 L152.00000,122.00000 M152.00000,122.00000 L152.00000,123.00000 M152.00000,123.00000 L152.00000,124.00000 M152.00000,124.00000 L152.00000,125.00000 M152.00000,125.00000 L152.00000,126.00000 M152.00000,126.00000 L152.00000,127.00000 M152.00000,127.00000 L152.00000,128.00000 M152.00000,128.00000 L152.00000,129.00000 M152.00000,129.00000 L152.00000,130.00000 M152.00000,130.00000 L152.00000,131.00000 M152.00000,131.00000 L152.00000,132.00000 M152.00000,132.00000 L152.00000,133.00000 M152.00000,133.00000 L152.00000,134.00000 M152.00000,134.00000 L152.00000,135.00000 M152.00000,135.00000 L152.00000,136.00000 M152.00000,136.00000 L152.00000,137.00000 M152.00000,137.00000 L152.00000,138.00000 M152.00000,138.00000 L152.00000,139.00000 M152.00000,139.00000 L152.00000,140.00000 M152.00000,140.00000 L152.00000,141.00000 M152.00000,141.00000 L152.00000,142.00000 M152.00000,142.00000 L152.00000,143.00000 M152.00000,143.00000 L152.00000,144.00000 M152.00000,144.00000 L152.00000,145.00000 M152.00000,145.00000 L152.00000,146.00000 M152.00000,146.00000 L152.00000,147.00000 M152.00000,147.00000 L152.00000,148.00000 M152.00000,148.00000 L152.00000,149.00000 M152.00000,149.00000 L152.00000,150.00000 M152.00000,150.00000 L152.00000,151.00000 M152.00000,151.00000 L152.00000,152.00000 M152.00000,152.00000 L151.00000,152.00000 M152.00000,152.00000 L152.00000,152.00000 "/>

<script>
let svgs = document.children[0];
let paths = Array.from(svgs.children).filter(function(c) {
    var orig = c.style.stroke;
    c.onmouseover = function() {
        c.style.stroke = "rgb(0, 0, 255)";
    };
    c.onmouseout = function () {
        c.style.stroke = orig;
    };
    c.onclick = function () {
        svgs.removeChild()
    }
});

for (let path of paths) {
    console.log(path);
}
</script></svg>