<svg xmlns="http://www.w3.org/2000/svg">
    <path fill-rule="evenodd" style="fill: none; stroke: rgb(0, 0, 0); stroke-width: 0.2;" d="M2.00000,12.00000 L2.00000,12.00000 M2.00000,12.00000 L2.00000,12.00000 M2.00000,12.00000 L2.05015,11.00000 M2.05015,11.00000 L2.20239,10.00000 M2.05015,13.00000 L2.00000,12.00000 M2.20239,10.00000 L2.46179,9.00000 M2.20239,14.00000 L2.05015,13.00000 M2.46179,9.00000 L2.83598,8.00000 M2.46179,15.00000 L2.20239,14.00000 M2.83598,8.00000 L3.00000,7.66170 M2.83598,16.00000 L2.46179,15.00000 M3.00000,7.66170 L3.34310,7.00000 M3.00000,16.33830 L2.83598,16.00000 M3.34310,17.00000 L3.00000,16.33830 M3.34310,7.00000 L4.00000,6.00000 M4.00000,6.00000 L4.00000,6.00000 M4.00000,6.00000 L4.86244,5.00000 M4.00000,18.00000 L3.34310,17.00000 M4.00000,18.00000 L4.00000,18.00000 M4.86244,5.00000 L5.00000,4.86244 M4.86244,19.00000 L4.00000,18.00000 M5.00000,4.86244 L6.00000,4.00000 M5.00000,19.13756 L4.86244,19.00000 M6.00000,4.00000 L6.00000,4.00000 M6.00000,4.00000 L7.00000,3.34310 M6.00000,20.00000 L5.00000,19.13756 M6.00000,20.00000 L6.00000,20.00000 M7.00000,3.34310 L7.66170,3.00000 M7.00000,20.65690 L6.00000,20.00000 M7.66170,3.00000 L8.00000,2.83598 M7.66170,21.00000 L7.00000,20.65690 M8.00000,2.83598 L9.00000,2.46179 M8.00000,21.16402 L7.66170,21.00000 M9.00000,2.46179 L10.00000,2.20239 M9.00000,21.53821 L8.00000,21.16402 M10.00000,2.20239 L11.00000,2.05015 M10.00000,21.79761 L9.00000,21.53821 M11.00000,2.05015 L12.00000,2.00000 M11.00000,21.94985 L10.00000,21.79761 M12.00000,2.00000 L12.00000,2.00000 M12.00000,2.00000 L12.00000,2.00000 M12.00000,2.00000 L13.00000,2.05015 M12.00000,22.00000 L11.00000,21.94985 M12.00000,22.00000 L12.00000,22.00000 M12.00000,22.00000 L12.00000,22.00000 M13.00000,2.05015 L14.00000,2.20239 M13.00000,21.94985 L12.00000,22.00000 M14.00000,2.20239 L15.00000,2.46179 M14.00000,21.79761 L13.00000,21.94985 M15.00000,2.46179 L16.00000,2.83598 M15.00000,21.53821 L14.00000,21.79761 M16.00000,2.83598 L16.33830,3.00000 M16.00000,21.16402 L15.00000,21.53821 M16.33830,3.00000 L17.00000,3.34310 M16.33830,21.00000 L16.00000,21.16402 M17.00000,3.34310 L18.00000,4.00000 M17.00000,20.65690 L16.33830,21.00000 M18.00000,4.00000 L18.00000,4.00000 M18.00000,4.00000 L19.00000,4.86244 M18.00000,20.00000 L17.00000,20.65690 M18.00000,20.00000 L18.00000,20.00000 M19.00000,4.86244 L19.13756,5.00000 M19.00000,19.13756 L18.00000,20.00000 M19.13756,5.00000 L20.00000,6.00000 M19.13756,19.00000 L19.00000,19.13756 M20.00000,6.00000 L20.00000,6.00000 M20.00000,6.00000 L20.65690,7.00000 M20.00000,18.00000 L19.13756,19.00000 M20.00000,18.00000 L20.00000,18.00000 M20.65690,7.00000 L21.00000,7.66170 M20.65690,17.00000 L20.00000,18.00000 M21.00000,7.66170 L21.16402,8.00000 M21.00000,16.33830 L20.65690,17.00000 M21.16402,8.00000 L21.53821,9.00000 M21.16402,16.00000 L21.00000,16.33830 M21.53821,9.00000 L21.79761,10.00000 M21.53821,15.00000 L21.16402,16.00000 M21.79761,10.00000 L21.94985,11.00000 M21.79761,14.00000 L21.53821,15.00000 M21.94985,11.00000 L22.00000,12.00000 M21.94985,13.00000 L21.79761,14.00000 M22.00000,12.00000 L21.94985,13.00000 M22.00000,12.00000 L22.00000,12.00000 M22.00000,12.00000 L22.00000,12.00000 "/>

<script>
let svgs = document.children[0];
let paths = Array.from(svgs.children).filter(function(c) {
    var orig = c.style.stroke;
    c.onmouseover = function() {
        c.style.stroke = "rgb(0, 0, 255)";
    };
    c.onmouseout = function () {
        c.style.stroke = orig;
    };
    c.onclick = function () {
        svgs.removeChild()
    }
});

for (let path of paths) {
    console.log(path);
}
</script></svg>