<svg xmlns="http://www.w3.org/2000/svg">
    <path fill-rule="evenodd" style="fill: rgb(0, 0, 0); stroke: none; stroke-width: none;" d="M7.60462,29.00000 L8.00000,28.25443 L8.13689,28.00000 L8.69933,27.00000 L9.00000,26.48892 L9.29235,26.00000 L9.91701,25.00000 L10.00000,24.87212 L10.57629,24.00000 L11.00000,23.38461 L11.27000,23.00000 L12.00000,22.00000 L12.77077,21.00000 L13.00000,20.71301 L13.58255,20.00000 L14.00000,19.50607 L14.43815,19.00000 L15.00000,18.37156 L15.34082,18.00000 L16.00000,17.30288 L16.29429,17.00000 L17.00000,16.29429 L17.30288,16.00000 L18.00000,15.34082 L18.37156,15.00000 L19.00000,14.43815 L19.50607,14.00000 L20.00000,13.58255 L20.71301,13.00000 L21.00000,12.77077 L22.00000,12.00000 L23.00000,11.27000 L23.38461,11.00000 L24.00000,10.57629 L24.87212,10.00000 L25.00000,9.91701 L26.00000,9.29235 L26.48892,9.00000 L27.00000,8.69933 L28.00000,8.13689 L28.25443,8.00000 L29.00000,7.60462 L30.00000,7.10031 L30.20859,7.00000 L31.00000,6.62425 L32.00000,6.17450 L32.40931,6.00000 L33.00000,5.75097 L34.00000,5.35270 L34.94267,5.00000 L35.00000,4.97875 L36.00000,4.62937 L37.00000,4.30324 L38.00000,4.00000 L39.00000,3.71971 L40.00000,3.46150 L41.00000,3.22509 L42.00000,3.01021 L42.05253,3.00000 L43.00000,2.00000 L42.00000,2.00000 L41.00000,2.00000 L40.00000,2.00000 L39.00000,2.00000 L38.00000,2.00000 L37.00000,2.00000 L36.00000,2.00000 L35.00000,2.00000 L34.00000,2.00000 L33.00000,2.00000 L32.00000,2.00000 L31.00000,2.00000 L30.00000,2.00000 L29.00000,2.00000 L28.00000,2.00000 L27.00000,2.00000 L26.00000,2.00000 L25.00000,2.00000 L24.00000,2.00000 L23.00000,2.00000 L22.00000,2.00000 L21.00000,2.00000 L20.00000,2.00000 L19.00000,2.00000 L18.00000,2.00000 L17.00000,2.00000 L16.00000,2.00000 L15.00000,2.00000 L14.00000,2.00000 L13.00000,2.00000 L12.00000,2.00000 L11.00000,2.00000 L10.00000,2.00000 L9.00000,2.00000 L8.00000,2.00000 L7.00000,2.00000 L6.00000,2.00000 L5.00000,2.00000 L4.00000,2.00000 L3.00000,2.00000 L2.00000,2.00000 L1.99999,3.00000 L1.99999,4.00000 L1.99998,5.00000 L2.00000,6.00000 L2.00000,7.00000 L1.99999,8.00000 L1.99999,9.00000 L1.99999,10.00000 L1.99999,11.00000 L1.99999,12.00000 L1.99999,13.00000 L1.99999,14.00000 L1.99999,15.00000 L1.99998,16.00000 L1.99998,17.00000 L2.00000,18.00000 L2.00000,19.00000 L2.00000,20.00000 L1.99999,21.00000 L1.99999,22.00000 L1.99999,23.00000 L1.99999,24.00000 L1.99999,25.00000 L1.99999,26.00000 L1.99999,27.00000 L1.99999,28.00000 L1.99998,29.00000 L2.00000,30.00000 L2.00000,31.00000 L2.00000,32.00000 L1.99999,33.00000 L1.99999,34.00000 L1.99999,35.00000 L1.99999,36.00000 L1.99999,37.00000 L1.99999,38.00000 L1.99999,39.00000 L1.99999,40.00000 L1.99998,41.00000 L2.00000,42.00000 L2.00002,43.00000 L3.00000,42.05253 L3.01021,42.00000 L3.22509,41.00000 L3.46150,40.00000 L3.71971,39.00000 L4.00000,38.00000 L4.30324,37.00000 L4.62937,36.00000 L4.97875,35.00000 L5.00000,34.94267 L5.35270,34.00000 L5.75097,33.00000 L6.00000,32.40931 L6.17450,32.00000 L6.62425,31.00000 L7.00000,30.20859 L7.10031,30.00000 L7.60462,29.00000 M180.61539,193.00000 L180.00000,193.42371 L179.12788,194.00000 L179.00000,194.08299 L178.00000,194.70766 L177.51108,195.00000 L177.00000,195.30067 L176.00000,195.86311 L175.74557,196.00000 L175.00000,196.39537 L174.00000,196.89969 L173.79141,197.00000 L173.00000,197.37575 L172.00000,197.82550 L171.59068,198.00000 L171.00000,198.24904 L170.00000,198.64729 L169.05733,199.00000 L169.00000,199.02124 L168.00000,199.37062 L167.00000,199.69676 L166.00000,200.00000 L165.00000,200.28029 L164.00000,200.53850 L163.00000,200.77490 L162.00000,200.98979 L161.94746,201.00000 L161.00000,202.00000 L162.00000,202.00000 L163.00000,202.00000 L164.00000,202.00000 L165.00000,202.00000 L166.00000,202.00000 L167.00000,202.00000 L168.00000,202.00000 L169.00000,202.00000 L170.00000,202.00000 L171.00000,202.00000 L172.00000,202.00000 L173.00000,202.00000 L174.00000,202.00000 L175.00000,202.00000 L176.00000,202.00000 L177.00000,202.00000 L178.00000,202.00000 L179.00000,202.00000 L180.00000,202.00000 L181.00000,202.00000 L182.00000,202.00000 L183.00000,202.00000 L184.00000,202.00000 L185.00000,202.00000 L186.00000,202.00000 L187.00000,202.00000 L188.00000,202.00000 L189.00000,202.00000 L190.00000,202.00000 L191.00000,202.00000 L192.00000,202.00000 L193.00000,202.00000 L194.00000,202.00000 L195.00000,202.00000 L196.00000,202.00000 L197.00000,202.00000 L198.00000,202.00000 L199.00000,202.00000 L200.00000,202.00000 L201.00000,202.00000 L202.00000,202.00000 L202.00002,201.00000 L202.00002,200.00000 L202.00002,199.00000 L202.00000,198.00000 L202.00000,197.00000 L202.00000,196.00000 L202.00000,195.00000 L202.00000,194.00000 L202.00002,193.00000 L202.00002,192.00000 L202.00002,191.00000 L202.00002,190.00000 L202.00002,189.00000 L202.00002,188.00000 L202.00002,187.00000 L202.00000,186.00000 L202.00000,185.00000 L202.00000,184.00000 L202.00000,183.00000 L202.00000,182.00000 L202.00002,181.00000 L202.00002,180.00000 L202.00002,179.00000 L202.00002,178.00000 L202.00002,177.00000 L202.00002,176.00000 L202.00002,175.00000 L202.00000,174.00000 L202.00000,173.00000 L202.00000,172.00000 L202.00000,171.00000 L202.00000,170.00000 L202.00000,169.00000 L202.00002,168.00000 L202.00002,167.00000 L202.00002,166.00000 L202.00002,165.00000 L202.00002,164.00000 L202.00002,163.00000 L202.00000,162.00000 L202.00000,161.00000 L201.00000,161.94746 L200.98979,162.00000 L200.77490,163.00000 L200.53850,164.00000 L200.28029,165.00000 L200.00000,166.00000 L199.69676,167.00000 L199.37062,168.00000 L199.02124,169.00000 L199.00000,169.05733 L198.64729,170.00000 L198.24904,171.00000 L198.00000,171.59068 L197.82550,172.00000 L197.37575,173.00000 L197.00000,173.79141 L196.89969,174.00000 L196.39537,175.00000 L196.00000,175.74557 L195.86311,176.00000 L195.30067,177.00000 L195.00000,177.51108 L194.70766,178.00000 L194.08299,179.00000 L194.00000,179.12788 L193.42371,180.00000 L193.00000,180.61539 L192.73001,181.00000 L192.00000,182.00000 L191.22923,183.00000 L191.00000,183.28700 L190.41745,184.00000 L190.00000,184.49393 L189.56184,185.00000 L189.00000,185.62843 L188.65918,186.00000 L188.00000,186.69711 L187.70570,187.00000 L187.00000,187.70570 L186.69711,188.00000 L186.00000,188.65918 L185.62843,189.00000 L185.00000,189.56184 L184.49393,190.00000 L184.00000,190.41745 L183.28700,191.00000 L183.00000,191.22923 L182.00000,192.00000 L181.00000,192.73001 L180.61539,193.00000 M187.00000,16.29429 L187.70570,17.00000 L188.00000,17.30288 L188.65918,18.00000 L189.00000,18.37156 L189.56184,19.00000 L190.00000,19.50607 L190.41745,20.00000 L191.00000,20.71301 L191.22923,21.00000 L192.00000,22.00000 L192.73001,23.00000 L193.00000,23.38461 L193.42371,24.00000 L194.00000,24.87212 L194.08299,25.00000 L194.70766,26.00000 L195.00000,26.48892 L195.30067,27.00000 L195.86311,28.00000 L196.00000,28.25443 L196.39537,29.00000 L196.89969,30.00000 L197.00000,30.20859 L197.37575,31.00000 L197.82550,32.00000 L198.00000,32.40931 L198.24904,33.00000 L198.64729,34.00000 L199.00000,34.94267 L199.02124,35.00000 L199.37062,36.00000 L199.69676,37.00000 L200.00000,38.00000 L200.28029,39.00000 L200.53850,40.00000 L200.77490,41.00000 L200.98979,42.00000 L201.00000,42.05253 L202.00000,43.00000 L202.00000,42.00000 L202.00000,41.00000 L202.00000,40.00000 L202.00000,39.00000 L202.00000,38.00000 L202.00000,37.00000 L202.00000,36.00000 L202.00000,35.00000 L202.00000,34.00000 L202.00000,33.00000 L202.00000,32.00000 L202.00000,31.00000 L202.00000,30.00000 L202.00000,29.00000 L202.00000,28.00000 L202.00000,27.00000 L202.00000,26.00000 L202.00000,25.00000 L202.00000,24.00000 L202.00000,23.00000 L202.00000,22.00000 L202.00000,21.00000 L202.00000,20.00000 L202.00000,19.00000 L202.00000,18.00000 L202.00000,17.00000 L202.00000,16.00000 L202.00000,15.00000 L202.00000,14.00000 L202.00000,13.00000 L202.00000,12.00000 L202.00000,11.00000 L202.00000,10.00000 L202.00000,9.00000 L202.00000,8.00000 L202.00000,7.00000 L202.00000,6.00000 L202.00000,5.00000 L202.00000,4.00000 L202.00000,3.00000 L202.00000,2.00000 L201.00000,1.99998 L200.00000,1.99998 L199.00000,1.99998 L198.00000,2.00000 L197.00000,2.00000 L196.00000,2.00000 L195.00000,2.00000 L194.00000,2.00000 L193.00000,1.99998 L192.00000,1.99998 L191.00000,1.99998 L190.00000,1.99998 L189.00000,1.99998 L188.00000,1.99998 L187.00000,1.99998 L186.00000,2.00000 L185.00000,2.00000 L184.00000,2.00000 L183.00000,2.00000 L182.00000,2.00000 L181.00000,1.99998 L180.00000,1.99998 L179.00000,1.99998 L178.00000,1.99998 L177.00000,1.99998 L176.00000,1.99998 L175.00000,1.99998 L174.00000,2.00000 L173.00000,2.00000 L172.00000,2.00000 L171.00000,2.00000 L170.00000,2.00000 L169.00000,2.00000 L168.00000,1.99998 L167.00000,1.99998 L166.00000,1.99998 L165.00000,1.99998 L164.00000,1.99998 L163.00000,1.99998 L162.00000,2.00000 L161.00000,2.00000 L161.94746,3.00000 L162.00000,3.01021 L163.00000,3.22509 L164.00000,3.46150 L165.00000,3.71971 L166.00000,4.00000 L167.00000,4.30324 L168.00000,4.62937 L169.00000,4.97875 L169.05733,5.00000 L170.00000,5.35270 L171.00000,5.75097 L171.59068,6.00000 L172.00000,6.17450 L173.00000,6.62425 L173.79141,7.00000 L174.00000,7.10031 L175.00000,7.60462 L175.74557,8.00000 L176.00000,8.13689 L177.00000,8.69933 L177.51108,9.00000 L178.00000,9.29235 L179.00000,9.91701 L179.12788,10.00000 L180.00000,10.57629 L180.61539,11.00000 L181.00000,11.27000 L182.00000,12.00000 L183.00000,12.77077 L183.28700,13.00000 L184.00000,13.58255 L184.49393,14.00000 L185.00000,14.43815 L185.62843,15.00000 L186.00000,15.34082 L186.69711,16.00000 L187.00000,16.29429 M33.00000,202.00000 L34.00000,202.00000 L35.00000,202.00000 L36.00000,202.00000 L37.00000,202.00000 L38.00000,202.00002 L39.00000,202.00002 L40.00000,202.00002 L41.00000,202.00002 L42.00000,202.00000 L43.00000,201.99998 L42.05253,201.00000 L42.00000,200.98979 L41.00000,200.77490 L40.00000,200.53850 L39.00000,200.28029 L38.00000,200.00000 L37.00000,199.69676 L36.00000,199.37062 L35.00000,199.02124 L34.94267,199.00000 L34.00000,198.64729 L33.00000,198.24904 L32.40931,198.00000 L32.00000,197.82550 L31.00000,197.37575 L30.20859,197.00000 L30.00000,196.89969 L29.00000,196.39537 L28.25443,196.00000 L28.00000,195.86311 L27.00000,195.30067 L26.48892,195.00000 L26.00000,194.70766 L25.00000,194.08299 L24.87212,194.00000 L24.00000,193.42371 L23.38461,193.00000 L23.00000,192.73001 L22.00000,192.00000 L21.00000,191.22923 L20.71301,191.00000 L20.00000,190.41745 L19.50607,190.00000 L19.00000,189.56184 L18.37156,189.00000 L18.00000,188.65918 L17.30288,188.00000 L17.00000,187.70570 L16.29429,187.00000 L16.00000,186.69711 L15.34082,186.00000 L15.00000,185.62843 L14.43815,185.00000 L14.00000,184.49393 L13.58255,184.00000 L13.00000,183.28700 L12.77077,183.00000 L12.00000,182.00000 L11.27000,181.00000 L11.00000,180.61539 L10.57629,180.00000 L10.00000,179.12788 L9.91701,179.00000 L9.29235,178.00000 L9.00000,177.51108 L8.69933,177.00000 L8.13689,176.00000 L8.00000,175.74557 L7.60462,175.00000 L7.10031,174.00000 L7.00000,173.79141 L6.62425,173.00000 L6.17450,172.00000 L6.00000,171.59068 L5.75097,171.00000 L5.35270,170.00000 L5.00000,169.05733 L4.97875,169.00000 L4.62937,168.00000 L4.30324,167.00000 L4.00000,166.00000 L3.71971,165.00000 L3.46150,164.00000 L3.22509,163.00000 L3.01021,162.00000 L3.00000,161.94746 L2.00000,161.00000 L2.00000,162.00000 L2.00000,163.00000 L2.00000,164.00000 L2.00000,165.00000 L2.00000,166.00000 L2.00000,167.00000 L2.00000,168.00000 L2.00000,169.00000 L2.00000,170.00000 L2.00000,171.00000 L2.00000,172.00000 L2.00000,173.00000 L2.00000,174.00000 L2.00000,175.00000 L2.00000,176.00000 L2.00000,177.00000 L2.00000,178.00000 L2.00000,179.00000 L2.00000,180.00000 L2.00000,181.00000 L2.00000,182.00000 L2.00000,183.00000 L2.00000,184.00000 L2.00000,185.00000 L2.00000,186.00000 L2.00000,187.00000 L2.00000,188.00000 L2.00000,189.00000 L2.00000,190.00000 L2.00000,191.00000 L2.00000,192.00000 L2.00000,193.00000 L2.00000,194.00000 L2.00000,195.00000 L2.00000,196.00000 L2.00000,197.00000 L2.00000,198.00000 L2.00000,199.00000 L2.00000,200.00000 L2.00000,201.00000 L2.00000,202.00000 L3.00000,202.00002 L4.00000,202.00002 L5.00000,202.00002 L6.00000,202.00000 L7.00000,202.00000 L8.00000,202.00000 L9.00000,202.00000 L10.00000,202.00000 L11.00000,202.00000 L12.00000,202.00002 L13.00000,202.00002 L14.00000,202.00002 L15.00000,202.00002 L16.00000,202.00002 L17.00000,202.00002 L18.00000,202.00000 L19.00000,202.00000 L20.00000,202.00000 L21.00000,202.00000 L22.00000,202.00000 L23.00000,202.00000 L24.00000,202.00000 L25.00000,202.00002 L26.00000,202.00002 L27.00000,202.00002 L28.00000,202.00002 L29.00000,202.00002 L30.00000,202.00000 L31.00000,202.00000 L32.00000,202.00000 L33.00000,202.00000 "/>

<script>
let svgs = document.children[0];
let paths = Array.from(svgs.children).filter(function(c) {
    var orig = c.style.stroke;
    c.onmouseover = function() {
        c.style.stroke = "rgb(0, 0, 255)";
    };
    c.onmouseout = function () {
        c.style.stroke = orig;
    };
    c.onclick = function () {
        svgs.removeChild()
    }
});

for (let path of paths) {
    console.log(path);
}
</script></svg>