<svg xmlns="http://www.w3.org/2000/svg">
    <path fill-rule="evenodd" style="fill: none; stroke: rgb(0, 0, 0); stroke-width: 0.2;" d="M70.33,69.00 L71.00,68.24 L71.21,68.00 L72.00,67.00 L72.71,66.00 L73.00,65.56 L73.35,65.00 L73.93,64.00 L74.00,63.87 L74.45,63.00 L74.91,62.00 L75.00,61.79 L75.32,61.00 L75.68,60.00 L76.00,59.00 L76.27,58.00 L76.49,57.00 L76.68,56.00 L76.82,55.00 L76.92,54.00 L76.98,53.00 L77.00,52.00 L76.98,51.00 L76.92,50.00 L76.82,49.00 L76.68,48.00 L76.49,47.00 L76.27,46.00 L76.00,45.00 L75.68,44.00 L75.32,43.00 L75.00,42.21 L74.91,42.00 L74.45,41.00 L74.00,40.13 L73.93,40.00 L73.35,39.00 L73.00,38.44 L72.71,38.00 L72.00,37.00 L71.21,36.00 L71.00,35.76 L70.33,35.00 L70.00,34.65 L69.35,34.00 L69.00,33.67 L68.24,33.00 L68.00,32.79 L67.00,32.00 L66.00,31.29 L65.56,31.00 L65.00,30.65 L64.00,30.07 L63.87,30.00 L63.00,29.55 L62.00,29.09 L61.79,29.00 L61.00,28.68 L60.00,28.32 L59.00,28.00 L58.00,27.73 L57.00,27.51 L56.00,27.32 L55.00,27.18 L54.00,27.08 L53.00,27.02 L52.00,27.00 L51.00,27.02 L50.00,27.08 L49.00,27.18 L48.00,27.32 L47.00,27.51 L46.00,27.73 L45.00,28.00 L44.00,28.32 L43.00,28.68 L42.21,29.00 L42.00,29.09 L41.00,29.55 L40.13,30.00 L40.00,30.07 L39.00,30.65 L38.44,31.00 L38.00,31.29 L37.00,32.00 L36.00,32.79 L35.76,33.00 L35.00,33.67 L34.65,34.00 L34.00,34.65 L33.67,35.00 L33.00,35.76 L32.79,36.00 L32.00,37.00 L31.29,38.00 L31.00,38.44 L30.65,39.00 L30.07,40.00 L30.00,40.13 L29.55,41.00 L29.09,42.00 L29.00,42.21 L28.68,43.00 L28.32,44.00 L28.00,45.00 L27.73,46.00 L27.51,47.00 L27.32,48.00 L27.18,49.00 L27.08,50.00 L27.02,51.00 L27.00,52.00 L27.02,53.00 L27.08,54.00 L27.18,55.00 L27.32,56.00 L27.51,57.00 L27.73,58.00 L28.00,59.00 L28.32,60.00 L28.68,61.00 L29.00,61.79 L29.09,62.00 L29.55,63.00 L30.00,63.87 L30.07,64.00 L30.65,65.00 L31.00,65.56 L31.29,66.00 L32.00,67.00 L32.79,68.00 L33.00,68.24 L33.67,69.00 L34.00,69.35 L34.65,70.00 L35.00,70.33 L35.76,71.00 L36.00,71.21 L37.00,72.00 L38.00,72.71 L38.44,73.00 L39.00,73.35 L40.00,73.93 L40.13,74.00 L41.00,74.45 L42.00,74.91 L42.21,75.00 L43.00,75.32 L44.00,75.68 L45.00,76.00 L46.00,76.27 L47.00,76.49 L48.00,76.68 L49.00,76.82 L50.00,76.92 L51.00,76.98 L52.00,77.00 L53.00,76.98 L54.00,76.92 L55.00,76.82 L56.00,76.68 L57.00,76.49 L58.00,76.27 L59.00,76.00 L60.00,75.68 L61.00,75.32 L61.79,75.00 L62.00,74.91 L63.00,74.45 L63.87,74.00 L64.00,73.93 L65.00,73.35 L65.56,73.00 L66.00,72.71 L67.00,72.00 L68.00,71.21 L68.24,71.00 L69.00,70.33 L69.35,70.00 L70.00,69.35 L70.33,69.00 "/>
    <path fill-rule="evenodd" style="fill: none; stroke: rgb(0, 0, 0); stroke-width: 0.2;" d="M32.00,6.17 L32.41,6.00 L33.00,5.75 L34.00,5.35 L34.94,5.00 L35.00,4.98 L36.00,4.63 L37.00,4.30 L38.00,4.00 L39.00,3.72 L40.00,3.46 L41.00,3.23 L42.00,3.01 L42.05,3.00 L43.00,2.82 L44.00,2.64 L45.00,2.49 L46.00,2.36 L47.00,2.25 L48.00,2.16 L49.00,2.09 L50.00,2.04 L51.00,2.01 L52.00,2.00 L53.00,2.01 L54.00,2.04 L55.00,2.09 L56.00,2.16 L57.00,2.25 L58.00,2.36 L59.00,2.49 L60.00,2.64 L61.00,2.82 L61.95,3.00 L62.00,3.01 L63.00,3.23 L64.00,3.46 L65.00,3.72 L66.00,4.00 L67.00,4.30 L68.00,4.63 L69.00,4.98 L69.06,5.00 L70.00,5.35 L71.00,5.75 L71.59,6.00 L72.00,6.17 L73.00,6.62 L73.79,7.00 L74.00,7.10 L75.00,7.60 L75.75,8.00 L76.00,8.14 L77.00,8.70 L77.51,9.00 L78.00,9.29 L79.00,9.92 L79.13,10.00 L80.00,10.58 L80.62,11.00 L81.00,11.27 L82.00,12.00 L83.00,12.77 L83.29,13.00 L84.00,13.58 L84.49,14.00 L85.00,14.44 L85.63,15.00 L86.00,15.34 L86.70,16.00 L87.00,16.29 L87.71,17.00 L88.00,17.30 L88.66,18.00 L89.00,18.37 L89.56,19.00 L90.00,19.51 L90.42,20.00 L91.00,20.71 L91.23,21.00 L92.00,22.00 L92.73,23.00 L93.00,23.38 L93.42,24.00 L94.00,24.87 L94.08,25.00 L94.71,26.00 L95.00,26.49 L95.30,27.00 L95.86,28.00 L96.00,28.25 L96.40,29.00 L96.90,30.00 L97.00,30.21 L97.38,31.00 L97.83,32.00 L98.00,32.41 L98.25,33.00 L98.65,34.00 L99.00,34.94 L99.02,35.00 L99.37,36.00 L99.70,37.00 L100.00,38.00 L100.28,39.00 L100.54,40.00 L100.77,41.00 L100.99,42.00 L101.00,42.05 L101.18,43.00 L101.36,44.00 L101.51,45.00 L101.64,46.00 L101.75,47.00 L101.84,48.00 L101.91,49.00 L101.96,50.00 L101.99,51.00 L102.00,52.00 L101.99,53.00 L101.96,54.00 L101.91,55.00 L101.84,56.00 L101.75,57.00 L101.64,58.00 L101.51,59.00 L101.36,60.00 L101.18,61.00 L101.00,61.95 L100.99,62.00 L100.77,63.00 L100.54,64.00 L100.28,65.00 L100.00,66.00 L99.70,67.00 L99.37,68.00 L99.02,69.00 L99.00,69.06 L98.65,70.00 L98.25,71.00 L98.00,71.59 L97.83,72.00 L97.38,73.00 L97.00,73.79 L96.90,74.00 L96.40,75.00 L96.00,75.75 L95.86,76.00 L95.30,77.00 L95.00,77.51 L94.71,78.00 L94.08,79.00 L94.00,79.13 L93.42,80.00 L93.00,80.62 L92.73,81.00 L92.00,82.00 L91.23,83.00 L91.00,83.29 L90.42,84.00 L90.00,84.49 L89.56,85.00 L89.00,85.63 L88.66,86.00 L88.00,86.70 L87.71,87.00 L87.00,87.71 L86.70,88.00 L86.00,88.66 L85.63,89.00 L85.00,89.56 L84.49,90.00 L84.00,90.42 L83.29,91.00 L83.00,91.23 L82.00,92.00 L81.00,92.73 L80.62,93.00 L80.00,93.42 L79.13,94.00 L79.00,94.08 L78.00,94.71 L77.51,95.00 L77.00,95.30 L76.00,95.86 L75.75,96.00 L75.00,96.40 L74.00,96.90 L73.79,97.00 L73.00,97.38 L72.00,97.83 L71.59,98.00 L71.00,98.25 L70.00,98.65 L69.06,99.00 L69.00,99.02 L68.00,99.37 L67.00,99.70 L66.00,100.00 L65.00,100.28 L64.00,100.54 L63.00,100.77 L62.00,100.99 L61.95,101.00 L61.00,101.18 L60.00,101.36 L59.00,101.51 L58.00,101.64 L57.00,101.75 L56.00,101.84 L55.00,101.91 L54.00,101.96 L53.00,101.99 L52.00,102.00 L51.00,101.99 L50.00,101.96 L49.00,101.91 L48.00,101.84 L47.00,101.75 L46.00,101.64 L45.00,101.51 L44.00,101.36 L43.00,101.18 L42.05,101.00 L42.00,100.99 L41.00,100.77 L40.00,100.54 L39.00,100.28 L38.00,100.00 L37.00,99.70 L36.00,99.37 L35.00,99.02 L34.94,99.00 L34.00,98.65 L33.00,98.25 L32.41,98.00 L32.00,97.83 L31.00,97.38 L30.21,97.00 L30.00,96.90 L29.00,96.40 L28.25,96.00 L28.00,95.86 L27.00,95.30 L26.49,95.00 L26.00,94.71 L25.00,94.08 L24.87,94.00 L24.00,93.42 L23.38,93.00 L23.00,92.73 L22.00,92.00 L21.00,91.23 L20.71,91.00 L20.00,90.42 L19.51,90.00 L19.00,89.56 L18.37,89.00 L18.00,88.66 L17.30,88.00 L17.00,87.71 L16.29,87.00 L16.00,86.70 L15.34,86.00 L15.00,85.63 L14.44,85.00 L14.00,84.49 L13.58,84.00 L13.00,83.29 L12.77,83.00 L12.00,82.00 L11.27,81.00 L11.00,80.62 L10.58,80.00 L10.00,79.13 L9.92,79.00 L9.29,78.00 L9.00,77.51 L8.70,77.00 L8.14,76.00 L8.00,75.75 L7.60,75.00 L7.10,74.00 L7.00,73.79 L6.62,73.00 L6.17,72.00 L6.00,71.59 L5.75,71.00 L5.35,70.00 L5.00,69.06 L4.98,69.00 L4.63,68.00 L4.30,67.00 L4.00,66.00 L3.72,65.00 L3.46,64.00 L3.23,63.00 L3.01,62.00 L3.00,61.95 L2.82,61.00 L2.64,60.00 L2.49,59.00 L2.36,58.00 L2.25,57.00 L2.16,56.00 L2.09,55.00 L2.04,54.00 L2.01,53.00 L2.00,52.00 L2.01,51.00 L2.04,50.00 L2.09,49.00 L2.16,48.00 L2.25,47.00 L2.36,46.00 L2.49,45.00 L2.64,44.00 L2.82,43.00 L3.00,42.05 L3.01,42.00 L3.23,41.00 L3.46,40.00 L3.72,39.00 L4.00,38.00 L4.30,37.00 L4.63,36.00 L4.98,35.00 L5.00,34.94 L5.35,34.00 L5.75,33.00 L6.00,32.41 L6.17,32.00 L6.62,31.00 L7.00,30.21 L7.10,30.00 L7.60,29.00 L8.00,28.25 L8.14,28.00 L8.70,27.00 L9.00,26.49 L9.29,26.00 L9.92,25.00 L10.00,24.87 L10.58,24.00 L11.00,23.38 L11.27,23.00 L12.00,22.00 L12.77,21.00 L13.00,20.71 L13.58,20.00 L14.00,19.51 L14.44,19.00 L15.00,18.37 L15.34,18.00 L16.00,17.30 L16.29,17.00 L17.00,16.29 L17.30,16.00 L18.00,15.34 L18.37,15.00 L19.00,14.44 L19.51,14.00 L20.00,13.58 L20.71,13.00 L21.00,12.77 L22.00,12.00 L23.00,11.27 L23.38,11.00 L24.00,10.58 L24.87,10.00 L25.00,9.92 L26.00,9.29 L26.49,9.00 L27.00,8.70 L28.00,8.14 L28.25,8.00 L29.00,7.60 L30.00,7.10 L30.21,7.00 L31.00,6.62 L32.00,6.17 "/>
    <path fill-rule="evenodd" style="fill: none; stroke: rgb(0, 0, 0); stroke-width: 0.2;" d="M44.86,45.00 L45.00,44.86 L46.00,44.00 L47.00,43.34 L47.66,43.00 L48.00,42.84 L49.00,42.46 L50.00,42.20 L51.00,42.05 L52.00,42.00 L53.00,42.05 L54.00,42.20 L55.00,42.46 L56.00,42.84 L56.34,43.00 L57.00,43.34 L58.00,44.00 L59.00,44.86 L59.14,45.00 L60.00,46.00 L60.66,47.00 L61.00,47.66 L61.16,48.00 L61.54,49.00 L61.80,50.00 L61.95,51.00 L62.00,52.00 L61.95,53.00 L61.80,54.00 L61.54,55.00 L61.16,56.00 L61.00,56.34 L60.66,57.00 L60.00,58.00 L59.14,59.00 L59.00,59.14 L58.00,60.00 L57.00,60.66 L56.34,61.00 L56.00,61.16 L55.00,61.54 L54.00,61.80 L53.00,61.95 L52.00,62.00 L51.00,61.95 L50.00,61.80 L49.00,61.54 L48.00,61.16 L47.66,61.00 L47.00,60.66 L46.00,60.00 L45.00,59.14 L44.86,59.00 L44.00,58.00 L43.34,57.00 L43.00,56.34 L42.84,56.00 L42.46,55.00 L42.20,54.00 L42.05,53.00 L42.00,52.00 L42.05,51.00 L42.20,50.00 L42.46,49.00 L42.84,48.00 L43.00,47.66 L43.34,47.00 L44.00,46.00 L44.86,45.00 "/>

<script>
let paths = Array.from(document.children[0].children).filter(function(c) {
    var orig = c.style.stroke;
    c.onmouseover = function() {
        c.style.stroke = "rgb(0, 0, 255)";
    };
    c.onmouseout = function () {
        c.style.stroke = orig;
    };
});

for (let path of paths) {
    console.log(path);
}
</script></svg>