<svg xmlns="http://www.w3.org/2000/svg">
    <path fill-rule="evenodd" style="fill: rgb(0, 0, 0); stroke: none; stroke-width: none;" d="M2.00,161.00 L2.00,202.00 L44.00,202.00 L43.05,201.00 L40.00,200.28 L35.00,198.65 L30.00,196.40 L25.00,193.42 L21.00,190.42 L16.29,186.00 L12.00,181.00 L9.29,177.00 L7.10,173.00 L5.00,168.06 L4.98,168.00 L4.30,166.00 L3.00,160.95 L2.00,161.00 M2.00,44.00 L3.00,43.05 L3.72,40.00 L5.35,35.00 L7.60,30.00 L10.58,25.00 L13.58,21.00 L18.00,16.29 L23.00,12.00 L27.00,9.29 L31.21,7.00 L32.00,6.62 L33.00,6.17 L38.00,4.30 L43.00,3.01 L44.00,2.00 L2.00,2.00 L2.00,44.00 M160.95,3.00 L163.00,3.46 L168.06,5.00 L169.00,5.35 L174.00,7.60 L179.00,10.58 L183.00,13.58 L188.66,19.00 L192.73,24.00 L195.86,29.00 L197.83,33.00 L199.70,38.00 L200.99,43.00 L202.00,44.00 L202.00,2.00 L161.00,2.00 L160.95,3.00 M160.95,201.00 L161.00,202.00 L202.00,202.00 L202.00,161.00 L201.00,160.95 L200.28,164.00 L198.65,169.00 L196.40,174.00 L194.00,178.13 L193.42,179.00 L190.42,183.00 L185.00,188.66 L180.00,192.73 L175.00,195.86 L171.00,197.83 L166.00,199.70 L160.95,201.00 "/>

<script>
let paths = Array.from(document.children[0].children).filter(function(c) {
    var orig = c.style.stroke;
    c.onmouseover = function() {
        c.style.stroke = "rgb(0, 0, 255)";
    };
    c.onmouseout = function () {
        c.style.stroke = orig;
    };
});

for (let path of paths) {
    console.log(path);
}
</script></svg>