<svg xmlns="http://www.w3.org/2000/svg">
    <path fill-rule="evenodd" style="fill: rgb(0, 0, 0); stroke: none; stroke-width: none;" d="M5.00,202.00 L12.00,202.00 L5.00,202.00 M160.95,3.00 L164.00,3.72 L169.00,5.35 L174.00,7.60 L179.00,10.58 L183.00,13.58 L188.00,18.30 L188.66,19.00 L192.73,24.00 L195.86,29.00 L197.83,33.00 L199.70,38.00 L200.99,43.00 L202.00,44.00 L202.00,2.00 L161.00,2.00 L160.95,3.00 M2.00,161.00 L2.00,202.00 L3.00,202.00 L53.00,202.00 L44.00,202.00 L43.05,201.00 L40.00,200.28 L35.00,198.65 L30.00,196.40 L25.00,193.42 L21.00,190.42 L15.34,185.00 L11.27,180.00 L8.14,175.00 L6.17,171.00 L4.30,166.00 L3.00,160.95 L2.00,161.00 M202.00,193.00 L202.00,199.00 L202.00,193.00 M2.00,2.00 L2.00,53.00 L2.00,44.00 L3.00,43.05 L3.72,40.00 L5.35,35.00 L7.60,30.00 L10.58,25.00 L13.58,21.00 L19.00,15.34 L24.00,11.27 L29.00,8.14 L33.00,6.17 L38.00,4.30 L43.00,3.01 L44.00,2.00 L2.00,2.00 M151.00,2.00 L157.00,2.00 L151.00,2.00 M202.00,151.00 L202.00,157.00 L202.00,151.00 M202.00,168.00 L202.00,175.00 L202.00,168.00 M202.00,181.00 L202.00,187.00 L202.00,181.00 M41.00,202.00 L44.00,202.00 L41.00,202.00 M29.00,202.00 L38.00,202.00 L29.00,202.00 M17.00,202.00 L25.00,202.00 L17.00,202.00 M160.95,201.00 L161.00,202.00 L202.00,202.00 L202.00,201.00 L202.00,163.00 L202.00,161.00 L201.00,160.95 L200.28,164.00 L198.65,169.00 L196.40,174.00 L193.42,179.00 L190.42,183.00 L185.00,188.66 L180.00,192.73 L175.00,195.86 L171.00,197.83 L166.00,199.70 L160.95,201.00 "/>
</svg>