<svg xmlns="http://www.w3.org/2000/svg">
    <path fill-rule="evenodd" style="fill: none; stroke: rgb(0, 0, 0); stroke-width: 0.2;" d="M281.77,347.00 L282.00,346.95 L282.00,346.95 L283.00,346.71 L284.00,346.47 L285.00,346.21 L285.82,346.00 L285.82,346.00 L286.00,345.95 L286.00,345.95 L287.00,345.69 L288.00,345.41 L289.00,345.13 L289.43,345.00 L290.00,344.83 L291.00,344.53 L292.00,344.23 L292.72,344.00 L293.00,343.91 L294.00,343.59 L295.00,343.25 L295.74,343.00 L296.00,342.91 L297.00,342.56 L298.00,342.20 L298.56,342.00 L299.00,341.84 L300.00,341.46 L301.00,341.08 L301.00,341.08 L301.20,341.00 L301.20,341.00 L302.00,340.68 L303.00,340.28 L303.69,340.00 L303.69,340.00 L304.00,339.87 L304.00,339.87 L305.00,339.45 L306.00,339.02 L306.00,339.02 L306.05,339.00 L306.05,339.00 L307.00,338.59 L308.00,338.14 L308.30,338.00 L309.00,337.68 L310.00,337.22 L310.45,337.00 L311.00,336.74 L312.00,336.25 L312.51,336.00 L313.00,335.76 L314.00,335.25 L314.49,335.00 L315.00,334.74 L316.00,334.21 L316.40,334.00 L317.00,333.68 L318.00,333.13 L318.00,333.13 L318.23,333.00 L318.23,333.00 L319.00,332.57 L320.00,332.00 L321.00,331.43 L321.72,331.00 L322.00,330.84 L323.00,330.23 L323.38,330.00 L324.00,329.62 L325.00,329.00 L326.00,328.36 L326.56,328.00 L327.00,327.71 L328.00,327.05 L328.00,327.05 L328.08,327.00 L328.08,327.00 L329.00,326.38 L329.56,326.00 L330.00,325.70 L331.00,325.00 L332.00,324.29 L332.00,324.29 L332.40,324.00 L332.40,324.00 L333.00,323.57 L333.77,323.00 L333.77,323.00 L334.00,322.83 L334.00,322.83 L335.00,322.08 L335.00,322.08 L335.10,322.00 L335.10,322.00 L336.00,321.31 L336.40,321.00 L337.00,320.53 L337.67,320.00 L338.00,319.74 L338.91,319.00 L338.91,319.00 L339.00,318.93 L339.00,318.93 L340.00,318.10 L340.00,318.10 L340.13,318.00 L340.13,318.00 L341.00,317.26 L341.31,317.00 L342.00,316.41 L342.47,316.00 L343.00,315.54 L343.60,315.00 L344.00,314.65 L344.71,314.00 L345.00,313.74 L345.80,313.00 L345.80,313.00 L346.00,312.81 L346.00,312.81 L346.87,312.00 L346.87,312.00 L347.00,311.87 L347.00,311.87 L347.91,311.00 L347.91,311.00 L348.00,310.91 L348.00,310.91 L348.93,310.00 L348.93,310.00 L349.00,309.93 L349.00,309.93 L349.93,309.00 L349.93,309.00 L350.00,308.93 L350.00,308.93 L350.91,308.00 L350.91,308.00 L351.00,307.91 L351.00,307.91 L351.87,307.00 L351.87,307.00 L352.00,306.87 L352.00,306.87 L352.81,306.00 L352.81,306.00 L353.00,305.80 L353.00,305.80 L353.74,305.00 L354.00,304.71 L354.65,304.00 L355.00,303.60 L355.54,303.00 L356.00,302.47 L356.41,302.00 L357.00,301.31 L357.26,301.00 L358.00,300.13 L358.00,300.13 L358.10,300.00 L358.10,300.00 L358.93,299.00 L358.93,299.00 L359.00,298.91 L359.00,298.91 L359.74,298.00 L360.00,297.67 L360.53,297.00 L361.00,296.40 L361.31,296.00 L362.00,295.10 L362.00,295.10 L362.08,295.00 L362.08,295.00 L362.83,294.00 L362.83,294.00 L363.00,293.77 L363.00,293.77 L363.57,293.00 L364.00,292.40 L364.00,292.40 L364.29,292.00 L364.29,292.00 L365.00,291.00 L365.70,290.00 L366.00,289.56 L366.38,289.00 L367.00,288.08 L367.00,288.08 L367.05,288.00 L367.05,288.00 L367.71,287.00 L368.00,286.56 L368.36,286.00 L369.00,285.00 L369.62,284.00 L370.00,283.38 L370.23,283.00 L370.84,282.00 L371.00,281.72 L371.43,281.00 L372.00,280.00 L372.57,279.00 L373.00,278.48 L373.51,278.00 L374.00,277.54 L374.57,277.00 L375.00,276.58 L375.59,276.00 L376.00,275.59 L376.58,275.00 L377.00,274.57 L377.54,274.00 L378.00,273.51 L378.47,273.00 L379.00,272.42 L379.38,272.00 L380.00,271.30 L380.26,271.00 L381.00,270.14 L381.00,270.14 L381.12,270.00 L381.12,270.00 L381.95,269.00 L381.95,269.00 L382.00,268.94 L382.00,268.94 L382.76,268.00 L383.00,267.69 L383.54,267.00 L384.00,266.50 L385.00,266.85 L385.34,267.00 L386.00,267.28 L387.00,267.69 L387.78,268.00 L387.78,268.00 L388.00,268.09 L388.00,268.09 L389.00,268.46 L390.00,268.81 L390.56,269.00 L391.00,269.15 L392.00,269.46 L393.00,269.76 L393.87,270.00 L393.87,270.00 L394.00,270.04 L394.00,270.04 L395.00,270.30 L396.00,270.54 L397.00,270.76 L398.00,270.97 L398.00,270.97 L398.14,271.00 L398.14,271.00 L399.00,271.16 L400.00,271.34 L401.00,271.49 L402.00,271.64 L403.00,271.76 L404.00,271.87 L405.00,271.96 L405.56,272.00 L406.00,272.03 L407.00,272.09 L408.00,272.20 L408.55,273.00 L408.23,274.00 L408.00,274.72 L407.91,275.00 L407.58,276.00 L407.24,277.00 L407.00,277.71 L406.90,278.00 L406.55,279.00 L406.20,280.00 L406.00,280.55 L405.84,281.00 L405.47,282.00 L405.10,283.00 L405.00,283.27 L404.73,284.00 L404.34,285.00 L404.00,285.89 L404.00,285.89 L403.96,286.00 L403.96,286.00 L403.56,287.00 L403.16,288.00 L403.00,288.40 L402.75,289.00 L402.34,290.00 L402.00,290.82 L402.00,290.82 L401.92,291.00 L401.92,291.00 L401.50,292.00 L401.07,293.00 L401.07,293.00 L401.00,293.16 L401.00,293.16 L400.63,294.00 L400.19,295.00 L400.00,295.42 L399.74,296.00 L399.28,297.00 L399.00,297.61 L398.82,298.00 L398.35,299.00 L398.00,299.74 L397.87,300.00 L397.39,301.00 L397.00,301.80 L397.00,301.80 L396.90,302.00 L396.90,302.00 L396.41,303.00 L396.00,303.82 L396.00,303.82 L395.91,304.00 L395.91,304.00 L395.40,305.00 L395.00,305.77 L395.00,305.77 L394.88,306.00 L394.88,306.00 L394.36,307.00 L394.00,307.68 L393.83,308.00 L393.30,309.00 L393.00,309.54 L392.75,310.00 L392.20,311.00 L392.00,311.36 L391.64,312.00 L391.08,313.00 L391.08,313.00 L391.00,313.14 L391.00,313.14 L390.51,314.00 L390.00,314.88 L390.00,314.88 L389.93,315.00 L389.93,315.00 L389.34,316.00 L389.00,316.57 L388.75,317.00 L388.14,318.00 L388.14,318.00 L388.00,318.24 L388.00,318.24 L387.53,319.00 L387.00,319.87 L387.00,319.87 L386.92,320.00 L386.92,320.00 L386.29,321.00 L386.00,321.46 L385.66,322.00 L385.02,323.00 L385.02,323.00 L385.00,323.03 L385.00,323.03 L384.37,324.00 L384.00,324.56 L383.71,325.00 L383.04,326.00 L383.04,326.00 L383.00,326.06 L383.00,326.06 L382.37,327.00 L382.00,327.54 L381.69,328.00 L381.00,328.99 L380.29,330.00 L380.00,330.42 L379.59,331.00 L379.00,331.82 L379.00,331.82 L378.87,332.00 L378.87,332.00 L378.14,333.00 L378.14,333.00 L378.00,333.19 L378.00,333.19 L377.41,334.00 L377.00,334.55 L376.66,335.00 L376.00,335.88 L376.00,335.88 L375.91,336.00 L375.91,336.00 L375.14,337.00 L375.14,337.00 L375.00,337.18 L375.00,337.18 L374.37,338.00 L374.00,338.47 L373.58,339.00 L373.00,339.74 L373.00,339.74 L372.79,340.00 L372.79,340.00 L372.00,340.99 L372.00,340.99 L371.99,341.00 L371.99,341.00 L371.17,342.00 L371.17,342.00 L371.00,342.21 L371.00,342.21 L370.35,343.00 L370.00,343.42 L369.52,344.00 L369.00,344.61 L368.67,345.00 L368.00,345.78 L368.00,345.78 L367.81,346.00 L367.81,346.00 L367.00,346.94 L367.00,346.94 L366.95,347.00 L366.95,347.00 L366.07,348.00 L366.07,348.00 L366.00,348.08 L366.00,348.08 L365.18,349.00 L365.18,349.00 L365.00,349.20 L365.00,349.20 L364.28,350.00 L364.00,350.30 L363.36,351.00 L363.00,351.39 L362.44,352.00 L362.00,352.47 L361.50,353.00 L361.00,353.53 L360.55,354.00 L360.00,354.57 L359.59,355.00 L359.00,355.60 L358.61,356.00 L358.00,356.62 L357.62,357.00 L357.00,357.62 L356.62,358.00 L356.00,358.61 L355.60,359.00 L355.00,359.59 L354.57,360.00 L354.00,360.55 L353.53,361.00 L353.00,361.50 L352.47,362.00 L352.00,362.44 L351.39,363.00 L351.00,363.36 L350.30,364.00 L350.00,364.28 L349.20,365.00 L349.20,365.00 L349.00,365.18 L349.00,365.18 L348.08,366.00 L348.08,366.00 L348.00,366.07 L348.00,366.07 L347.00,366.95 L347.00,366.95 L346.94,367.00 L346.94,367.00 L346.00,367.81 L346.00,367.81 L345.78,368.00 L345.78,368.00 L345.00,368.67 L344.61,369.00 L344.00,369.52 L343.42,370.00 L343.00,370.35 L342.21,371.00 L342.21,371.00 L342.00,371.17 L342.00,371.17 L341.00,371.99 L341.00,371.99 L340.99,372.00 L340.99,372.00 L340.00,372.79 L340.00,372.79 L339.74,373.00 L339.74,373.00 L339.00,373.58 L338.47,374.00 L338.00,374.37 L337.18,375.00 L337.18,375.00 L337.00,375.14 L337.00,375.14 L336.00,375.91 L336.00,375.91 L335.88,376.00 L335.88,376.00 L335.00,376.66 L334.55,377.00 L334.00,377.41 L333.19,378.00 L333.19,378.00 L333.00,378.14 L333.00,378.14 L332.00,378.87 L332.00,378.87 L331.82,379.00 L331.82,379.00 L331.00,379.59 L330.42,380.00 L330.00,380.29 L329.00,381.00 L328.00,381.69 L327.54,382.00 L327.00,382.37 L326.06,383.00 L326.06,383.00 L326.00,383.04 L326.00,383.04 L325.00,383.71 L324.56,384.00 L324.00,384.37 L323.03,385.00 L323.03,385.00 L323.00,385.02 L323.00,385.02 L322.00,385.66 L321.46,386.00 L321.00,386.29 L320.00,386.92 L320.00,386.92 L319.87,387.00 L319.87,387.00 L319.00,387.53 L318.24,388.00 L318.24,388.00 L318.00,388.14 L318.00,388.14 L317.00,388.75 L316.57,389.00 L316.00,389.34 L315.00,389.93 L315.00,389.93 L314.88,390.00 L314.88,390.00 L314.00,390.51 L313.14,391.00 L313.14,391.00 L313.00,391.08 L313.00,391.08 L312.00,391.64 L311.36,392.00 L311.00,392.20 L310.00,392.75 L309.54,393.00 L309.00,393.30 L308.00,393.83 L307.68,394.00 L307.00,394.36 L306.00,394.88 L306.00,394.88 L305.77,395.00 L305.77,395.00 L305.00,395.40 L304.00,395.91 L304.00,395.91 L303.82,396.00 L303.82,396.00 L303.00,396.41 L302.00,396.90 L302.00,396.90 L301.80,397.00 L301.80,397.00 L301.00,397.39 L300.00,397.87 L299.74,398.00 L299.00,398.35 L298.00,398.82 L297.61,399.00 L297.00,399.28 L296.00,399.74 L295.42,400.00 L295.42,400.00 L295.00,400.19 L295.00,400.19 L294.00,400.63 L293.16,401.00 L293.16,401.00 L293.00,401.07 L293.00,401.07 L292.00,401.50 L291.00,401.92 L291.00,401.92 L290.82,402.00 L290.82,402.00 L290.00,402.34 L289.00,402.75 L288.40,403.00 L288.00,403.16 L287.00,403.56 L286.00,403.96 L286.00,403.96 L285.89,404.00 L285.89,404.00 L285.00,404.34 L284.00,404.73 L283.27,405.00 L283.00,405.10 L282.00,405.47 L281.00,405.84 L280.55,406.00 L280.00,406.20 L279.00,406.55 L278.00,406.90 L277.71,407.00 L277.00,407.24 L276.00,407.58 L275.00,407.91 L274.72,408.00 L274.00,408.23 L273.00,408.55 L272.00,408.87 L271.57,409.00 L271.00,409.18 L270.00,409.48 L269.00,409.78 L268.24,410.00 L268.24,410.00 L268.00,410.07 L268.00,410.07 L267.00,410.36 L266.00,410.64 L265.00,410.91 L264.68,411.00 L264.00,411.18 L263.00,411.45 L262.00,411.71 L261.00,411.96 L261.00,411.96 L260.85,412.00 L260.85,412.00 L260.00,412.21 L259.00,412.46 L258.00,412.70 L257.00,412.93 L256.69,413.00 L256.00,413.16 L255.00,413.38 L254.00,413.60 L253.00,413.81 L252.10,414.00 L252.10,414.00 L252.00,414.02 L252.00,414.02 L251.00,414.22 L250.00,414.42 L249.00,414.61 L248.00,414.80 L247.00,414.98 L247.00,414.98 L246.91,415.00 L246.91,415.00 L246.00,415.16 L245.00,415.33 L244.00,415.50 L243.00,415.66 L242.00,415.82 L241.00,415.97 L241.00,415.97 L240.82,416.00 L240.82,416.00 L240.00,416.12 L239.00,416.26 L238.00,416.40 L237.00,416.53 L236.00,416.66 L235.00,416.78 L234.00,416.90 L233.13,417.00 L233.13,417.00 L233.00,417.01 L233.00,417.01 L232.00,417.12 L231.00,417.23 L230.00,417.32 L229.00,417.42 L228.00,417.51 L227.00,417.59 L226.00,417.67 L225.00,417.74 L224.00,417.81 L223.00,417.88 L222.00,417.94 L221.00,417.99 L221.00,417.99 L220.80,418.00 L220.80,418.00 L220.00,418.04 L219.00,418.09 L218.00,418.13 L217.00,418.16 L216.00,418.19 L215.00,418.22 L214.00,418.24 L213.00,418.25 L212.00,418.27 L211.00,418.27 L210.00,418.27 L209.00,418.27 L208.00,418.26 L207.00,418.25 L206.00,418.23 L205.00,418.21 L204.00,418.18 L203.00,418.15 L202.00,418.11 L201.00,418.07 L200.00,418.03 L199.48,418.00 L199.00,417.98 L198.00,417.92 L197.00,417.86 L196.00,417.79 L195.00,417.72 L194.00,417.65 L193.00,417.57 L192.00,417.48 L191.00,417.39 L190.00,417.30 L189.00,417.20 L188.00,417.09 L187.15,417.00 L187.15,417.00 L187.00,416.98 L187.00,416.98 L186.00,416.87 L185.00,416.75 L184.00,416.63 L183.00,416.50 L182.00,416.36 L181.00,416.22 L180.00,416.08 L179.46,416.00 L179.00,415.93 L178.00,415.78 L177.00,415.62 L176.00,415.46 L175.00,415.29 L174.00,415.11 L173.37,415.00 L173.00,414.93 L172.00,414.75 L171.00,414.56 L170.00,414.37 L169.00,414.17 L168.18,414.00 L168.18,414.00 L168.00,413.96 L168.00,413.96 L167.00,413.75 L166.00,413.54 L165.00,413.32 L164.00,413.10 L163.58,413.00 L163.00,412.87 L162.00,412.63 L161.00,412.39 L160.00,412.14 L159.42,412.00 L159.00,411.89 L158.00,411.64 L157.00,411.38 L156.00,411.11 L155.60,411.00 L155.00,410.84 L154.00,410.56 L153.00,410.28 L152.04,410.00 L152.04,410.00 L152.00,409.99 L152.00,409.99 L151.00,409.70 L150.00,409.40 L149.00,409.09 L148.70,409.00 L148.00,408.78 L147.00,408.47 L146.00,408.15 L145.55,408.00 L145.00,407.82 L144.00,407.49 L143.00,407.15 L142.57,407.00 L142.00,406.80 L141.00,406.46 L140.00,406.10 L139.72,406.00 L139.00,405.74 L138.00,405.37 L137.00,405.00 L136.00,404.62 L135.00,404.24 L134.39,404.00 L134.00,403.85 L133.00,403.45 L132.00,403.05 L132.00,403.05 L131.88,403.00 L131.88,403.00 L131.00,402.64 L130.00,402.23 L129.46,402.00 L129.46,402.00 L129.00,401.81 L129.00,401.81 L128.00,401.38 L127.12,401.00 L127.12,401.00 L127.00,400.95 L127.00,400.95 L126.00,400.51 L125.00,400.06 L125.00,400.06 L124.86,400.00 L124.86,400.00 L124.00,399.61 L123.00,399.16 L122.66,399.00 L122.00,398.69 L121.00,398.22 L120.54,398.00 L120.00,397.74 L119.00,397.26 L118.47,397.00 L118.00,396.77 L117.00,396.27 L116.46,396.00 L116.00,395.77 L115.00,395.26 L114.50,395.00 L114.00,394.74 L113.00,394.22 L112.59,394.00 L112.00,393.69 L111.00,393.15 L110.73,393.00 L110.00,392.60 L109.00,392.05 L109.00,392.05 L108.91,392.00 L108.91,392.00 L108.00,391.49 L107.13,391.00 L107.13,391.00 L107.00,390.92 L107.00,390.92 L106.00,390.35 L105.40,390.00 L105.00,389.77 L104.00,389.18 L103.70,389.00 L103.00,388.58 L102.04,388.00 L102.04,388.00 L102.00,387.98 L102.00,387.98 L101.00,387.37 L100.41,387.00 L100.00,386.75 L99.00,386.12 L99.00,386.12 L98.81,386.00 L98.81,386.00 L98.00,385.48 L97.25,385.00 L97.25,385.00 L97.00,384.84 L97.00,384.84 L96.00,384.19 L96.00,384.19 L95.71,384.00 L95.71,384.00 L95.00,383.53 L94.21,383.00 L94.21,383.00 L94.00,382.86 L94.00,382.86 L93.00,382.18 L93.00,382.18 L92.73,382.00 L92.73,382.00 L92.00,381.50 L91.28,381.00 L91.28,381.00 L91.00,380.80 L91.00,380.80 L90.00,380.10 L90.00,380.10 L89.86,380.00 L89.86,380.00 L89.00,379.39 L88.46,379.00 L88.00,378.67 L87.08,378.00 L87.08,378.00 L87.00,377.94 L87.00,377.94 L86.00,377.20 L86.00,377.20 L85.73,377.00 L85.73,377.00 L85.00,376.45 L84.40,376.00 L84.00,375.70 L83.09,375.00 L83.09,375.00 L83.00,374.93 L83.00,374.93 L82.00,374.15 L82.00,374.15 L81.80,374.00 L81.80,374.00 L81.00,373.37 L80.54,373.00 L80.00,372.57 L79.29,372.00 L79.00,371.77 L78.06,371.00 L78.06,371.00 L78.00,370.95 L78.00,370.95 L77.00,370.12 L77.00,370.12 L76.85,370.00 L76.85,370.00 L76.00,369.29 L75.66,369.00 L75.00,368.44 L74.49,368.00 L74.00,367.58 L73.33,367.00 L73.00,366.71 L72.20,366.00 L72.20,366.00 L72.00,365.83 L72.00,365.83 L71.07,365.00 L71.07,365.00 L71.00,364.93 L71.00,364.93 L70.00,364.03 L70.00,364.03 L69.97,364.00 L69.97,364.00 L69.00,363.11 L69.00,363.11 L68.88,363.00 L68.88,363.00 L68.00,362.18 L68.00,362.18 L67.80,362.00 L67.80,362.00 L67.00,361.24 L66.75,361.00 L66.00,360.29 L65.70,360.00 L65.00,359.32 L64.67,359.00 L64.00,358.34 L63.65,358.00 L63.00,357.35 L62.65,357.00 L62.00,356.34 L61.66,356.00 L61.00,355.32 L60.69,355.00 L60.00,354.29 L59.72,354.00 L59.00,353.24 L59.00,353.24 L58.77,353.00 L58.77,353.00 L58.00,352.18 L58.00,352.18 L57.84,352.00 L57.84,352.00 L57.00,351.10 L57.00,351.10 L56.91,351.00 L56.91,351.00 L56.00,350.00 L55.10,349.00 L55.10,349.00 L55.00,348.89 L55.00,348.89 L54.21,348.00 L54.21,348.00 L54.00,347.77 L54.00,347.77 L53.33,347.00 L53.00,346.62 L52.46,346.00 L52.00,345.46 L51.60,345.00 L51.00,344.29 L50.76,344.00 L50.00,343.09 L50.00,343.09 L49.92,343.00 L49.92,343.00 L49.10,342.00 L49.10,342.00 L49.00,341.88 L49.00,341.88 L48.29,341.00 L48.00,340.65 L47.48,340.00 L47.00,339.39 L46.69,339.00 L46.00,338.12 L46.00,338.12 L45.91,338.00 L45.91,338.00 L45.13,337.00 L45.13,337.00 L45.00,336.83 L45.00,336.83 L44.37,336.00 L44.00,335.51 L43.61,335.00 L43.00,334.18 L43.00,334.18 L42.87,334.00 L42.87,334.00 L42.13,333.00 L42.13,333.00 L42.00,332.82 L42.00,332.82 L41.41,332.00 L41.00,331.44 L40.69,331.00 L40.00,330.03 L40.00,330.03 L39.98,330.00 L39.98,330.00 L39.28,329.00 L39.00,328.60 L38.59,328.00 L38.00,327.14 L38.00,327.14 L37.90,327.00 L37.90,327.00 L37.23,326.00 L37.00,325.65 L36.56,325.00 L36.00,324.14 L36.00,324.14 L35.91,324.00 L35.91,324.00 L35.26,323.00 L35.00,322.60 L34.62,322.00 L34.00,321.03 L34.00,321.03 L33.98,321.00 L33.98,321.00 L33.36,320.00 L33.00,319.42 L33.00,319.42 L32.74,319.00 L32.74,319.00 L32.13,318.00 L32.13,318.00 L32.00,317.78 L32.00,317.78 L31.53,317.00 L31.00,316.11 L31.00,316.11 L30.93,316.00 L30.93,316.00 L30.35,315.00 L30.00,314.40 L29.77,314.00 L29.19,313.00 L29.00,312.66 L28.63,312.00 L28.07,311.00 L28.07,311.00 L28.00,310.87 L28.00,310.87 L27.52,310.00 L27.00,309.04 L27.00,309.04 L26.98,309.00 L26.98,309.00 L26.44,308.00 L26.00,307.17 L26.00,307.17 L25.91,307.00 L25.91,307.00 L25.39,306.00 L25.00,305.24 L25.00,305.24 L24.88,305.00 L24.88,305.00 L24.37,304.00 L24.00,303.27 L23.86,303.00 L23.37,302.00 L23.00,301.24 L23.00,301.24 L22.88,301.00 L22.88,301.00 L22.40,300.00 L22.00,299.16 L22.00,299.16 L21.92,299.00 L21.92,299.00 L21.45,298.00 L21.00,297.02 L21.00,297.02 L20.99,297.00 L20.99,297.00 L20.54,296.00 L20.09,295.00 L20.09,295.00 L20.00,294.81 L20.00,294.81 L19.64,294.00 L19.21,293.00 L19.00,292.52 L18.78,292.00 L18.35,291.00 L18.00,290.16 L18.00,290.16 L17.93,290.00 L17.93,290.00 L17.52,289.00 L17.11,288.00 L17.00,287.72 L16.71,287.00 L16.32,286.00 L16.00,285.18 L16.00,285.18 L15.93,285.00 L15.93,285.00 L15.55,284.00 L15.17,283.00 L15.00,282.54 L14.80,282.00 L14.43,281.00 L14.08,280.00 L14.08,280.00 L14.00,279.79 L14.00,279.79 L13.72,279.00 L13.37,278.00 L13.03,277.00 L13.03,277.00 L13.00,276.90 L13.00,276.90 L12.70,276.00 L12.37,275.00 L12.04,274.00 L12.04,274.00 L12.00,273.88 L12.00,273.88 L11.72,273.00 L11.41,272.00 L11.10,271.00 L11.00,270.68 L10.79,270.00 L10.50,269.00 L10.20,268.00 L10.00,267.29 L9.92,267.00 L9.64,266.00 L9.36,265.00 L9.09,264.00 L9.00,263.66 L8.83,263.00 L8.57,262.00 L8.31,261.00 L8.06,260.00 L8.06,260.00 L8.00,259.75 L8.00,259.75 L7.82,259.00 L7.58,258.00 L7.34,257.00 L7.12,256.00 L7.00,255.48 L6.89,255.00 L6.67,254.00 L6.46,253.00 L6.25,252.00 L6.05,251.00 L6.00,250.74 L5.85,250.00 L5.66,249.00 L5.47,248.00 L5.29,247.00 L5.11,246.00 L5.00,245.34 L4.94,245.00 L4.77,244.00 L4.61,243.00 L4.45,242.00 L4.30,241.00 L4.15,240.00 L4.01,239.00 L4.01,239.00 L4.00,238.92 L4.00,238.92 L3.87,238.00 L3.74,237.00 L3.61,236.00 L3.49,235.00 L3.37,234.00 L3.26,233.00 L3.15,232.00 L3.05,231.00 L3.00,230.51 L2.95,230.00 L2.86,229.00 L2.77,228.00 L2.68,227.00 L2.61,226.00 L2.53,225.00 L2.46,224.00 L2.40,223.00 L2.34,222.00 L2.28,221.00 L2.23,220.00 L2.19,219.00 L2.15,218.00 L2.11,217.00 L2.08,216.00 L2.06,215.00 L2.04,214.00 L2.02,213.00 L2.01,212.00 L2.00,211.00 L2.00,210.00 L2.00,209.00 L2.01,208.00 L2.02,207.00 L2.04,206.00 L2.06,205.00 L2.09,204.00 L2.12,203.00 L2.16,202.00 L2.20,201.00 L2.25,200.00 L2.30,199.00 L2.35,198.00 L2.41,197.00 L2.48,196.00 L2.55,195.00 L2.63,194.00 L2.71,193.00 L2.79,192.00 L2.88,191.00 L2.98,190.00 L2.98,190.00 L3.00,189.76 L3.00,189.76 L3.08,189.00 L3.18,188.00 L3.29,187.00 L3.40,186.00 L3.52,185.00 L3.65,184.00 L3.78,183.00 L3.91,182.00 L4.00,181.36 L4.05,181.00 L4.19,180.00 L4.34,179.00 L4.50,178.00 L4.65,177.00 L4.82,176.00 L4.99,175.00 L4.99,175.00 L5.00,174.93 L5.00,174.93 L5.16,174.00 L5.34,173.00 L5.52,172.00 L5.71,171.00 L5.91,170.00 L6.00,169.53 L6.11,169.00 L6.31,168.00 L6.52,167.00 L6.73,166.00 L6.95,165.00 L6.95,165.00 L7.00,164.79 L7.00,164.79 L7.18,164.00 L7.41,163.00 L7.64,162.00 L7.88,161.00 L8.00,160.52 L8.13,160.00 L8.38,159.00 L8.64,158.00 L8.90,157.00 L9.00,156.61 L9.16,156.00 L9.44,155.00 L9.71,154.00 L10.00,153.00 L10.00,153.00 L10.00,152.99 L10.00,152.99 L10.28,152.00 L10.58,151.00 L10.88,150.00 L10.88,150.00 L11.00,149.60 L11.00,149.60 L11.18,149.00 L11.49,148.00 L11.81,147.00 L12.00,146.40 L12.13,146.00 L12.46,145.00 L12.79,144.00 L13.00,143.37 L13.13,143.00 L13.47,142.00 L13.82,141.00 L14.00,140.49 L14.17,140.00 L14.53,139.00 L14.90,138.00 L15.00,137.73 L15.27,137.00 L15.65,136.00 L16.00,135.09 L16.00,135.09 L16.04,135.00 L16.04,135.00 L16.43,134.00 L16.82,133.00 L17.00,132.56 L17.22,132.00 L17.63,131.00 L18.00,130.11 L18.00,130.11 L18.05,130.00 L18.05,130.00 L18.47,129.00 L18.89,128.00 L18.89,128.00 L19.00,127.75 L19.00,127.75 L19.32,127.00 L19.76,126.00 L20.00,125.47 L20.21,125.00 L20.66,124.00 L21.00,123.26 L21.12,123.00 L21.58,122.00 L22.00,121.11 L22.00,121.11 L22.05,121.00 L22.05,121.00 L22.53,120.00 L23.00,119.03 L23.00,119.03 L23.01,119.00 L23.01,119.00 L23.50,118.00 L24.00,117.00 L24.51,116.00 L25.00,115.03 L25.00,115.03 L25.02,115.00 L25.02,115.00 L25.53,114.00 L26.00,113.11 L26.00,113.11 L26.06,113.00 L26.06,113.00 L26.59,112.00 L27.00,111.23 L27.00,111.23 L27.13,111.00 L27.13,111.00 L27.67,110.00 L28.00,109.40 L28.22,109.00 L28.78,108.00 L29.00,107.62 L29.35,107.00 L29.92,106.00 L29.92,106.00 L30.00,105.87 L30.00,105.87 L30.51,105.00 L31.00,104.16 L31.00,104.16 L31.10,104.00 L31.10,104.00 L31.69,103.00 L32.00,102.49 L32.30,102.00 L32.91,101.00 L32.91,101.00 L33.00,100.85 L33.00,100.85 L33.53,100.00 L34.00,99.25 L34.00,99.25 L34.16,99.00 L34.16,99.00 L34.79,98.00 L34.79,98.00 L35.00,97.67 L35.00,97.67 L35.43,97.00 L36.00,96.13 L36.00,96.13 L36.09,96.00 L36.09,96.00 L36.75,95.00 L36.75,95.00 L37.00,94.62 L37.00,94.62 L37.41,94.00 L38.00,93.13 L38.00,93.13 L38.09,93.00 L38.09,93.00 L38.78,92.00 L39.00,91.68 L39.47,91.00 L40.00,90.24 L40.00,90.24 L40.17,90.00 L40.17,90.00 L40.88,89.00 L40.88,89.00 L41.00,88.84 L41.00,88.84 L41.60,88.00 L42.00,87.46 L42.33,87.00 L43.00,86.10 L43.00,86.10 L43.07,86.00 L43.07,86.00 L43.82,85.00 L43.82,85.00 L44.00,84.76 L44.00,84.76 L44.58,84.00 L45.00,83.45 L45.34,83.00 L46.00,82.15 L46.00,82.15 L46.12,82.00 L46.12,82.00 L46.91,81.00 L46.91,81.00 L47.00,80.88 L47.00,80.88 L47.70,80.00 L48.00,79.63 L48.51,79.00 L49.00,78.40 L49.32,78.00 L50.00,77.18 L50.00,77.18 L50.15,77.00 L50.15,77.00 L50.99,76.00 L50.99,76.00 L51.00,75.99 L51.00,75.99 L51.84,75.00 L51.84,75.00 L52.00,74.81 L52.00,74.81 L52.70,74.00 L53.00,73.65 L53.57,73.00 L54.00,72.51 L54.45,72.00 L55.00,71.38 L55.34,71.00 L56.00,70.27 L56.25,70.00 L57.00,69.18 L57.00,69.18 L57.16,69.00 L57.16,69.00 L58.00,68.10 L58.00,68.10 L58.09,68.00 L58.09,68.00 L59.00,67.03 L59.00,67.03 L59.03,67.00 L59.03,67.00 L59.99,66.00 L59.99,66.00 L60.00,65.98 L60.00,65.98 L60.95,65.00 L60.95,65.00 L61.00,64.95 L61.00,64.95 L61.93,64.00 L61.93,64.00 L62.00,63.93 L62.00,63.93 L62.92,63.00 L62.92,63.00 L63.00,62.92 L63.00,62.92 L63.93,62.00 L63.93,62.00 L64.00,61.93 L64.00,61.93 L64.95,61.00 L64.95,61.00 L65.00,60.95 L65.00,60.95 L65.98,60.00 L65.98,60.00 L66.00,59.99 L66.00,59.99 L67.00,59.03 L67.00,59.03 L67.03,59.00 L67.03,59.00 L68.00,58.09 L68.00,58.09 L68.10,58.00 L68.10,58.00 L69.00,57.16 L69.00,57.16 L69.18,57.00 L69.18,57.00 L70.00,56.25 L70.27,56.00 L71.00,55.34 L71.38,55.00 L72.00,54.45 L72.51,54.00 L73.00,53.57 L73.65,53.00 L74.00,52.70 L74.81,52.00 L74.81,52.00 L75.00,51.84 L75.00,51.84 L75.99,51.00 L75.99,51.00 L76.00,50.99 L76.00,50.99 L77.00,50.15 L77.00,50.15 L77.18,50.00 L77.18,50.00 L78.00,49.32 L78.40,49.00 L79.00,48.51 L79.63,48.00 L80.00,47.70 L80.88,47.00 L80.88,47.00 L81.00,46.91 L81.00,46.91 L82.00,46.12 L82.00,46.12 L82.15,46.00 L82.15,46.00 L83.00,45.34 L83.45,45.00 L84.00,44.58 L84.76,44.00 L84.76,44.00 L85.00,43.82 L85.00,43.82 L86.00,43.07 L86.00,43.07 L86.10,43.00 L86.10,43.00 L87.00,42.33 L87.46,42.00 L88.00,41.60 L88.84,41.00 L88.84,41.00 L89.00,40.88 L89.00,40.88 L90.00,40.17 L90.00,40.17 L90.24,40.00 L90.24,40.00 L91.00,39.47 L91.68,39.00 L92.00,38.78 L93.00,38.09 L93.00,38.09 L93.13,38.00 L93.13,38.00 L94.00,37.41 L94.62,37.00 L95.00,36.75 L96.00,36.09 L96.00,36.09 L96.13,36.00 L96.13,36.00 L97.00,35.43 L97.67,35.00 L98.00,34.79 L99.00,34.16 L99.00,34.16 L99.25,34.00 L99.25,34.00 L100.00,33.53 L100.85,33.00 L100.85,33.00 L101.00,32.91 L101.00,32.91 L102.00,32.30 L102.49,32.00 L103.00,31.69 L104.00,31.10 L104.00,31.10 L104.16,31.00 L104.16,31.00 L105.00,30.51 L105.87,30.00 L105.87,30.00 L106.00,29.92 L106.00,29.92 L107.00,29.35 L107.62,29.00 L108.00,28.78 L109.00,28.22 L109.40,28.00 L110.00,27.67 L111.00,27.13 L111.00,27.13 L111.23,27.00 L111.23,27.00 L112.00,26.59 L113.00,26.06 L113.00,26.06 L113.11,26.00 L113.11,26.00 L114.00,25.53 L115.00,25.02 L115.00,25.02 L115.03,25.00 L115.03,25.00 L116.00,24.51 L117.00,24.00 L118.00,23.50 L119.00,23.01 L119.00,23.01 L119.03,23.00 L119.03,23.00 L120.00,22.53 L121.00,22.05 L121.00,22.05 L121.11,22.00 L121.11,22.00 L122.00,21.58 L123.00,21.12 L123.00,21.12 L123.26,21.00 L123.26,21.00 L124.00,20.66 L125.00,20.21 L125.47,20.00 L126.00,19.76 L127.00,19.32 L127.75,19.00 L127.75,19.00 L128.00,18.89 L128.00,18.89 L129.00,18.47 L130.00,18.05 L130.00,18.05 L130.11,18.00 L130.11,18.00 L131.00,17.63 L132.00,17.22 L132.56,17.00 L133.00,16.82 L134.00,16.43 L135.00,16.04 L135.00,16.04 L135.09,16.00 L135.09,16.00 L136.00,15.65 L137.00,15.27 L137.73,15.00 L138.00,14.90 L139.00,14.53 L140.00,14.17 L140.49,14.00 L141.00,13.82 L142.00,13.47 L143.00,13.13 L143.37,13.00 L144.00,12.79 L145.00,12.46 L146.00,12.13 L146.40,12.00 L147.00,11.81 L148.00,11.49 L149.00,11.18 L149.60,11.00 L150.00,10.88 L151.00,10.58 L152.00,10.28 L152.99,10.00 L152.99,10.00 L153.00,10.00 L153.00,10.00 L154.00,9.71 L155.00,9.44 L156.00,9.16 L156.61,9.00 L157.00,8.90 L158.00,8.64 L159.00,8.38 L160.00,8.13 L160.52,8.00 L161.00,7.88 L162.00,7.64 L163.00,7.41 L164.00,7.18 L164.79,7.00 L164.79,7.00 L165.00,6.95 L165.00,6.95 L166.00,6.73 L167.00,6.52 L168.00,6.31 L169.00,6.11 L169.53,6.00 L170.00,5.91 L171.00,5.71 L172.00,5.52 L173.00,5.34 L174.00,5.16 L174.93,5.00 L174.93,5.00 L175.00,4.99 L175.00,4.99 L176.00,4.82 L177.00,4.65 L178.00,4.50 L179.00,4.34 L180.00,4.19 L181.00,4.05 L181.36,4.00 L182.00,3.91 L183.00,3.78 L184.00,3.65 L185.00,3.52 L186.00,3.40 L187.00,3.29 L188.00,3.18 L189.00,3.08 L189.76,3.00 L189.76,3.00 L190.00,2.98 L190.00,2.98 L191.00,2.88 L192.00,2.79 L193.00,2.71 L194.00,2.63 L195.00,2.55 L196.00,2.48 L197.00,2.41 L198.00,2.35 L199.00,2.30 L200.00,2.25 L201.00,2.20 L202.00,2.16 L203.00,2.12 L204.00,2.09 L205.00,2.06 L206.00,2.04 L207.00,2.02 L208.00,2.01 L209.00,2.00 L210.00,2.00 L211.00,2.00 L212.00,2.01 L213.00,2.02 L214.00,2.04 L215.00,2.06 L216.00,2.08 L217.00,2.11 L218.00,2.15 L219.00,2.19 L220.00,2.23 L221.00,2.28 L222.00,2.34 L223.00,2.40 L224.00,2.46 L225.00,2.53 L226.00,2.61 L227.00,2.68 L228.00,2.77 L229.00,2.86 L230.00,2.95 L230.51,3.00 L231.00,3.05 L232.00,3.15 L233.00,3.26 L234.00,3.37 L235.00,3.49 L236.00,3.61 L237.00,3.74 L238.00,3.87 L238.92,4.00 L238.92,4.00 L239.00,4.01 L239.00,4.01 L240.00,4.15 L241.00,4.30 L242.00,4.45 L243.00,4.61 L244.00,4.77 L245.00,4.94 L245.34,5.00 L246.00,5.11 L247.00,5.29 L248.00,5.47 L249.00,5.66 L250.00,5.85 L250.74,6.00 L251.00,6.05 L252.00,6.25 L253.00,6.46 L254.00,6.67 L255.00,6.89 L255.48,7.00 L256.00,7.12 L257.00,7.34 L258.00,7.58 L259.00,7.82 L259.75,8.00 L259.75,8.00 L260.00,8.06 L260.00,8.06 L261.00,8.31 L262.00,8.57 L263.00,8.83 L263.66,9.00 L263.66,9.00 L264.00,9.09 L264.00,9.09 L265.00,9.36 L266.00,9.64 L267.00,9.92 L267.29,10.00 L268.00,10.20 L269.00,10.50 L270.00,10.79 L270.68,11.00 L271.00,11.10 L272.00,11.41 L273.00,11.72 L273.88,12.00 L273.88,12.00 L274.00,12.04 L274.00,12.04 L275.00,12.37 L276.00,12.70 L276.90,13.00 L276.90,13.00 L277.00,13.03 L277.00,13.03 L278.00,13.37 L279.00,13.72 L279.79,14.00 L279.79,14.00 L280.00,14.08 L280.00,14.08 L281.00,14.43 L282.00,14.80 L282.54,15.00 L283.00,15.17 L284.00,15.55 L285.00,15.93 L285.00,15.93 L285.18,16.00 L285.18,16.00 L286.00,16.32 L287.00,16.71 L287.72,17.00 L288.00,17.11 L289.00,17.52 L290.00,17.93 L290.00,17.93 L290.16,18.00 L290.16,18.00 L291.00,18.35 L292.00,18.78 L292.52,19.00 L293.00,19.21 L294.00,19.64 L294.81,20.00 L294.81,20.00 L295.00,20.09 L295.00,20.09 L296.00,20.54 L297.00,20.99 L297.00,20.99 L297.02,21.00 L297.02,21.00 L298.00,21.45 L299.00,21.92 L299.00,21.92 L299.16,22.00 L299.16,22.00 L300.00,22.40 L301.00,22.88 L301.00,22.88 L301.24,23.00 L301.24,23.00 L302.00,23.37 L303.00,23.86 L303.27,24.00 L304.00,24.37 L305.00,24.88 L305.00,24.88 L305.24,25.00 L305.24,25.00 L306.00,25.39 L307.00,25.91 L307.00,25.91 L307.17,26.00 L307.17,26.00 L308.00,26.44 L309.00,26.98 L309.00,26.98 L309.04,27.00 L309.04,27.00 L310.00,27.52 L310.87,28.00 L310.87,28.00 L311.00,28.07 L311.00,28.07 L312.00,28.63 L312.66,29.00 L313.00,29.19 L314.00,29.77 L314.40,30.00 L315.00,30.35 L316.00,30.93 L316.00,30.93 L316.11,31.00 L316.11,31.00 L317.00,31.53 L317.78,32.00 L317.78,32.00 L318.00,32.13 L318.00,32.13 L319.00,32.74 L319.42,33.00 L320.00,33.36 L321.00,33.98 L321.00,33.98 L321.03,34.00 L321.03,34.00 L322.00,34.62 L322.60,35.00 L323.00,35.26 L324.00,35.91 L324.00,35.91 L324.14,36.00 L324.14,36.00 L325.00,36.56 L325.65,37.00 L326.00,37.23 L327.00,37.90 L327.00,37.90 L327.14,38.00 L327.14,38.00 L328.00,38.59 L328.60,39.00 L329.00,39.28 L330.00,39.98 L330.00,39.98 L330.03,40.00 L330.03,40.00 L331.00,40.69 L331.44,41.00 L332.00,41.41 L332.82,42.00 L332.82,42.00 L333.00,42.13 L333.00,42.13 L334.00,42.87 L334.00,42.87 L334.18,43.00 L334.18,43.00 L335.00,43.61 L335.51,44.00 L336.00,44.37 L336.83,45.00 L336.83,45.00 L337.00,45.13 L337.00,45.13 L338.00,45.91 L338.00,45.91 L338.12,46.00 L338.12,46.00 L339.00,46.69 L339.39,47.00 L340.00,47.48 L340.65,48.00 L341.00,48.29 L341.88,49.00 L341.88,49.00 L342.00,49.10 L342.00,49.10 L343.00,49.92 L343.00,49.92 L343.09,50.00 L343.09,50.00 L344.00,50.76 L344.29,51.00 L345.00,51.60 L345.46,52.00 L346.00,52.46 L346.62,53.00 L347.00,53.33 L347.77,54.00 L347.77,54.00 L348.00,54.21 L348.00,54.21 L348.89,55.00 L348.89,55.00 L349.00,55.10 L349.00,55.10 L350.00,56.00 L351.00,56.91 L351.00,56.91 L351.10,57.00 L351.10,57.00 L352.00,57.84 L352.00,57.84 L352.18,58.00 L352.18,58.00 L353.00,58.77 L353.00,58.77 L353.24,59.00 L353.24,59.00 L354.00,59.72 L354.00,59.72 L354.29,60.00 L354.29,60.00 L355.00,60.69 L355.32,61.00 L356.00,61.66 L356.34,62.00 L357.00,62.65 L357.00,62.65 L357.35,63.00 L357.35,63.00 L358.00,63.65 L358.34,64.00 L359.00,64.67 L359.32,65.00 L360.00,65.70 L360.00,65.70 L360.29,66.00 L360.29,66.00 L361.00,66.75 L361.24,67.00 L362.00,67.80 L362.00,67.80 L362.18,68.00 L362.18,68.00 L363.00,68.88 L363.00,68.88 L363.11,69.00 L363.11,69.00 L364.00,69.97 L364.00,69.97 L364.03,70.00 L364.03,70.00 L364.93,71.00 L364.93,71.00 L365.00,71.07 L365.00,71.07 L365.83,72.00 L365.83,72.00 L366.00,72.20 L366.00,72.20 L366.71,73.00 L367.00,73.33 L367.58,74.00 L368.00,74.49 L368.44,75.00 L369.00,75.66 L369.29,76.00 L370.00,76.85 L370.00,76.85 L370.12,77.00 L370.12,77.00 L370.95,78.00 L370.95,78.00 L371.00,78.06 L371.00,78.06 L371.77,79.00 L372.00,79.29 L372.57,80.00 L373.00,80.54 L373.37,81.00 L374.00,81.80 L374.00,81.80 L374.15,82.00 L374.15,82.00 L374.93,83.00 L374.93,83.00 L375.00,83.09 L375.00,83.09 L375.70,84.00 L376.00,84.40 L376.45,85.00 L377.00,85.73 L377.20,86.00 L377.94,87.00 L377.94,87.00 L378.00,87.08 L378.00,87.08 L378.67,88.00 L379.00,88.46 L379.39,89.00 L380.00,89.86 L380.00,89.86 L380.10,90.00 L380.10,90.00 L380.80,91.00 L381.00,91.28 L381.50,92.00 L382.00,92.73 L382.00,92.73 L382.18,93.00 L382.18,93.00 L382.86,94.00 L382.86,94.00 L383.00,94.21 L383.00,94.21 L383.53,95.00 L384.00,95.71 L384.00,95.71 L384.19,96.00 L384.19,96.00 L384.84,97.00 L384.84,97.00 L385.00,97.25 L385.00,97.25 L385.48,98.00 L386.00,98.81 L386.00,98.81 L386.12,99.00 L386.12,99.00 L386.75,100.00 L386.75,100.00 L387.00,100.41 L387.00,100.41 L387.37,101.00 L387.98,102.00 L387.98,102.00 L388.00,102.04 L388.00,102.04 L388.58,103.00 L389.00,103.70 L389.00,103.70 L389.18,104.00 L389.18,104.00 L389.77,105.00 L390.00,105.40 L390.35,106.00 L390.92,107.00 L390.92,107.00 L391.00,107.13 L391.00,107.13 L391.49,108.00 L392.00,108.91 L392.00,108.91 L392.05,109.00 L392.05,109.00 L392.60,110.00 L393.00,110.73 L393.15,111.00 L393.69,112.00 L394.00,112.59 L394.22,113.00 L394.74,114.00 L395.00,114.50 L395.26,115.00 L395.77,116.00 L396.00,116.46 L396.27,117.00 L396.77,118.00 L397.00,118.47 L397.26,119.00 L397.74,120.00 L398.00,120.54 L398.22,121.00 L398.69,122.00 L399.00,122.66 L399.16,123.00 L399.61,124.00 L400.00,124.86 L400.00,124.86 L400.06,125.00 L400.06,125.00 L400.51,126.00 L400.95,127.00 L400.95,127.00 L401.00,127.12 L401.00,127.12 L401.38,128.00 L401.81,129.00 L402.00,129.46 L402.23,130.00 L402.64,131.00 L403.00,131.88 L403.00,131.88 L403.05,132.00 L403.05,132.00 L403.45,133.00 L403.85,134.00 L404.00,134.39 L404.24,135.00 L404.62,136.00 L405.00,137.00 L405.37,138.00 L405.74,139.00 L406.00,139.72 L406.10,140.00 L406.46,141.00 L406.80,142.00 L407.00,142.57 L407.15,143.00 L407.49,144.00 L407.82,145.00 L408.00,145.55 L408.15,146.00 L408.47,147.00 L408.40,148.00 L408.00,148.14 L407.00,148.18 L406.00,148.24 L405.00,148.32 L404.00,148.41 L403.00,148.51 L402.00,148.64 L401.00,148.78 L400.00,148.94 L399.63,149.00 L399.00,149.11 L398.00,149.30 L397.00,149.51 L396.00,149.74 L395.00,149.98 L395.00,149.98 L394.91,150.00 L394.91,150.00 L394.00,150.24 L393.00,150.52 L392.00,150.81 L391.41,151.00 L391.00,151.13 L390.00,151.46 L389.00,151.81 L388.50,152.00 L388.00,152.19 L387.00,152.58 L386.00,152.99 L386.00,152.99 L385.98,153.00 L385.98,153.00 L385.00,153.42 L384.00,153.83 L383.33,153.00 L383.00,152.58 L382.54,152.00 L382.00,151.34 L381.72,151.00 L381.00,150.14 L381.00,150.14 L380.88,150.00 L380.88,150.00 L380.02,149.00 L380.02,149.00 L380.00,148.97 L380.00,148.97 L379.13,148.00 L379.13,148.00 L379.00,147.85 L379.00,147.85 L378.22,147.00 L378.22,147.00 L378.00,146.76 L378.00,146.76 L377.28,146.00 L377.00,145.71 L376.31,145.00 L376.00,144.69 L375.31,144.00 L375.00,143.70 L374.28,143.00 L374.28,143.00 L374.00,142.73 L374.00,142.73 L373.22,142.00 L373.22,142.00 L373.00,141.77 L373.00,141.77 L372.42,141.00 L372.00,140.27 L371.85,140.00 L371.26,139.00 L371.00,138.55 L370.67,138.00 L370.07,137.00 L370.07,137.00 L370.00,136.89 L370.00,136.89 L369.45,136.00 L369.00,135.28 L368.83,135.00 L368.19,134.00 L368.00,133.71 L367.54,133.00 L367.00,132.19 L367.00,132.19 L366.87,132.00 L366.87,132.00 L366.20,131.00 L366.00,130.71 L365.51,130.00 L365.00,129.27 L364.81,129.00 L364.09,128.00 L364.09,128.00 L364.00,127.87 L364.00,127.87 L363.37,127.00 L363.00,126.51 L362.62,126.00 L362.00,125.17 L362.00,125.17 L361.87,125.00 L361.87,125.00 L361.10,124.00 L361.10,124.00 L361.00,123.87 L361.00,123.87 L360.32,123.00 L360.00,122.60 L359.52,122.00 L359.00,121.36 L358.70,121.00 L358.00,120.15 L358.00,120.15 L357.88,120.00 L357.88,120.00 L357.03,119.00 L357.03,119.00 L357.00,118.96 L357.00,118.96 L356.17,118.00 L356.17,118.00 L356.00,117.80 L356.00,117.80 L355.29,117.00 L355.00,116.67 L354.40,116.00 L354.00,115.56 L353.49,115.00 L353.00,114.47 L352.56,114.00 L352.00,113.41 L351.61,113.00 L351.00,112.37 L350.64,112.00 L350.00,111.35 L349.66,111.00 L349.00,110.34 L348.65,110.00 L348.00,109.36 L347.62,109.00 L347.00,108.40 L346.58,108.00 L346.00,107.46 L345.51,107.00 L345.00,106.53 L344.41,106.00 L344.00,105.63 L343.30,105.00 L343.00,104.74 L342.16,104.00 L342.16,104.00 L342.00,103.87 L342.00,103.87 L341.00,103.01 L341.00,103.01 L340.99,103.00 L340.99,103.00 L340.00,102.17 L340.00,102.17 L339.80,102.00 L339.80,102.00 L339.00,101.34 L338.58,101.00 L338.00,100.54 L337.33,100.00 L337.00,99.74 L336.05,99.00 L336.05,99.00 L336.00,98.96 L336.00,98.96 L335.00,98.20 L334.74,98.00 L334.00,97.45 L333.40,97.00 L333.00,96.71 L332.02,96.00 L332.02,96.00 L332.00,95.98 L332.00,95.98 L331.00,95.27 L330.61,95.00 L330.00,94.58 L329.16,94.00 L329.16,94.00 L329.00,93.89 L329.00,93.89 L328.00,93.22 L327.67,93.00 L327.00,92.56 L326.14,92.00 L326.14,92.00 L326.00,91.91 L326.00,91.91 L325.00,91.28 L324.56,91.00 L324.00,90.65 L323.00,90.04 L323.00,90.04 L322.94,90.00 L322.94,90.00 L322.00,89.44 L321.26,89.00 L321.26,89.00 L321.00,88.85 L321.00,88.85 L320.00,88.27 L319.53,88.00 L319.00,87.70 L318.00,87.14 L317.74,87.00 L317.00,86.60 L316.00,86.06 L316.00,86.06 L315.88,86.00 L315.88,86.00 L315.00,85.54 L314.00,85.02 L314.00,85.02 L313.96,85.00 L313.96,85.00 L313.00,84.52 L312.00,84.02 L312.00,84.02 L311.96,84.00 L311.96,84.00 L311.00,83.53 L310.00,83.06 L310.00,83.06 L309.87,83.00 L309.87,83.00 L309.00,82.59 L308.00,82.14 L307.70,82.00 L307.00,81.69 L306.00,81.25 L305.42,81.00 L305.00,80.82 L304.00,80.40 L303.02,80.00 L303.02,80.00 L303.00,79.99 L303.00,79.99 L302.00,79.59 L301.00,79.20 L300.49,79.00 L300.00,78.81 L299.00,78.44 L298.00,78.07 L298.00,78.07 L297.80,78.00 L297.80,78.00 L297.00,77.71 L296.00,77.36 L295.00,77.02 L295.00,77.02 L294.94,77.00 L294.94,77.00 L294.00,76.69 L293.00,76.36 L292.00,76.05 L292.00,76.05 L291.85,76.00 L291.85,76.00 L291.00,75.74 L290.00,75.44 L289.00,75.15 L288.48,75.00 L288.00,74.86 L287.00,74.59 L286.00,74.32 L285.00,74.06 L285.00,74.06 L284.76,74.00 L284.76,74.00 L284.00,73.81 L283.00,73.56 L282.00,73.33 L281.00,73.10 L280.56,73.00 L280.00,72.88 L279.00,72.66 L278.00,72.46 L277.00,72.26 L276.00,72.07 L275.64,72.00 L275.00,71.88 L274.00,71.71 L273.00,71.54 L272.00,71.38 L271.00,71.22 L270.00,71.08 L269.45,71.00 L269.00,70.94 L268.00,70.80 L267.00,70.68 L266.00,70.56 L265.00,70.45 L264.00,70.35 L263.00,70.25 L262.00,70.17 L261.00,70.09 L260.00,70.01 L260.00,70.01 L259.83,70.00 L259.83,70.00 L259.00,69.94 L258.00,69.88 L257.00,69.83 L256.00,69.79 L255.00,69.75 L254.00,69.72 L253.00,69.69 L252.00,69.68 L251.00,69.67 L250.00,69.66 L249.00,69.67 L248.00,69.68 L247.00,69.70 L246.00,69.73 L245.00,69.76 L244.00,69.80 L243.00,69.85 L242.00,69.90 L241.00,69.96 L240.45,70.00 L240.00,70.03 L239.00,70.11 L238.00,70.19 L237.00,70.28 L236.00,70.38 L235.00,70.48 L234.00,70.59 L233.00,70.71 L232.00,70.84 L231.00,70.97 L231.00,70.97 L230.82,71.00 L230.82,71.00 L230.00,71.12 L229.00,71.26 L228.00,71.42 L227.00,71.58 L226.00,71.75 L225.00,71.93 L224.63,72.00 L224.00,72.12 L223.00,72.31 L222.00,72.51 L221.00,72.72 L220.00,72.94 L219.71,73.00 L219.00,73.16 L218.00,73.39 L217.00,73.63 L216.00,73.88 L215.51,74.00 L215.00,74.13 L214.00,74.39 L213.00,74.66 L212.00,74.94 L212.00,74.94 L211.79,75.00 L211.79,75.00 L211.00,75.23 L210.00,75.52 L209.00,75.82 L208.43,76.00 L208.00,76.13 L207.00,76.45 L206.00,76.78 L205.34,77.00 L205.00,77.11 L204.00,77.46 L203.00,77.81 L202.47,78.00 L202.00,78.17 L201.00,78.54 L200.00,78.92 L200.00,78.92 L199.78,79.00 L199.78,79.00 L199.00,79.30 L198.00,79.70 L197.25,80.00 L197.00,80.10 L196.00,80.52 L195.00,80.94 L195.00,80.94 L194.86,81.00 L194.86,81.00 L194.00,81.37 L193.00,81.81 L193.00,81.81 L192.58,82.00 L192.58,82.00 L192.00,82.26 L191.00,82.72 L190.40,83.00 L190.00,83.19 L189.00,83.67 L188.32,84.00 L188.00,84.15 L187.00,84.65 L186.32,85.00 L186.00,85.16 L185.00,85.68 L184.39,86.00 L184.00,86.21 L183.00,86.75 L182.54,87.00 L182.00,87.30 L181.00,87.86 L180.75,88.00 L180.00,88.43 L179.01,89.00 L179.01,89.00 L179.00,89.01 L179.00,89.01 L178.00,89.60 L177.34,90.00 L177.00,90.21 L176.00,90.82 L175.71,91.00 L175.00,91.45 L174.14,92.00 L174.14,92.00 L174.00,92.09 L174.00,92.09 L173.00,92.74 L172.60,93.00 L172.00,93.40 L171.11,94.00 L171.11,94.00 L171.00,94.08 L171.00,94.08 L170.00,94.77 L169.66,95.00 L169.00,95.47 L168.25,96.00 L168.25,96.00 L168.00,96.18 L168.00,96.18 L167.00,96.91 L167.00,96.91 L166.88,97.00 L166.88,97.00 L166.00,97.65 L165.53,98.00 L165.00,98.40 L164.22,99.00 L164.22,99.00 L164.00,99.17 L164.00,99.17 L163.00,99.96 L163.00,99.96 L162.95,100.00 L162.95,100.00 L162.00,100.76 L161.70,101.00 L161.00,101.57 L160.48,102.00 L160.00,102.40 L159.29,103.00 L159.00,103.24 L158.12,104.00 L158.12,104.00 L158.00,104.10 L158.00,104.10 L157.00,104.98 L157.00,104.98 L156.98,105.00 L156.98,105.00 L156.00,105.87 L156.00,105.87 L155.86,106.00 L155.86,106.00 L155.00,106.79 L155.00,106.79 L154.77,107.00 L154.77,107.00 L154.00,107.72 L153.70,108.00 L153.00,108.66 L152.65,109.00 L152.00,109.63 L151.62,110.00 L151.00,110.62 L150.62,111.00 L150.00,111.62 L149.63,112.00 L149.00,112.65 L149.00,112.65 L148.66,113.00 L148.66,113.00 L148.00,113.70 L147.72,114.00 L147.00,114.77 L147.00,114.77 L146.79,115.00 L146.79,115.00 L146.00,115.86 L146.00,115.86 L145.87,116.00 L145.87,116.00 L145.00,116.98 L145.00,116.98 L144.98,117.00 L144.98,117.00 L144.10,118.00 L144.10,118.00 L144.00,118.12 L144.00,118.12 L143.24,119.00 L143.00,119.29 L142.40,120.00 L142.00,120.48 L141.57,121.00 L141.00,121.70 L140.76,122.00 L140.00,122.95 L140.00,122.95 L139.96,123.00 L139.96,123.00 L139.17,124.00 L139.17,124.00 L139.00,124.22 L139.00,124.22 L138.40,125.00 L138.00,125.53 L137.65,126.00 L137.00,126.88 L137.00,126.88 L136.91,127.00 L136.91,127.00 L136.18,128.00 L136.18,128.00 L136.00,128.25 L136.00,128.25 L135.47,129.00 L135.00,129.66 L134.77,130.00 L134.08,131.00 L134.08,131.00 L134.00,131.11 L134.00,131.11 L133.40,132.00 L133.00,132.60 L132.74,133.00 L132.09,134.00 L132.09,134.00 L132.00,134.14 L132.00,134.14 L131.45,135.00 L131.00,135.71 L130.82,136.00 L130.21,137.00 L130.00,137.34 L129.60,138.00 L129.01,139.00 L129.01,139.00 L129.00,139.01 L129.00,139.01 L128.43,140.00 L128.00,140.75 L127.86,141.00 L127.30,142.00 L127.00,142.54 L126.75,143.00 L126.21,144.00 L126.00,144.39 L125.68,145.00 L125.16,146.00 L125.00,146.32 L124.65,147.00 L124.15,148.00 L124.00,148.32 L123.67,149.00 L123.19,150.00 L123.00,150.40 L122.72,151.00 L122.26,152.00 L122.00,152.58 L121.81,153.00 L121.37,154.00 L121.00,154.86 L121.00,154.86 L120.94,155.00 L120.94,155.00 L120.52,156.00 L120.10,157.00 L120.00,157.25 L119.70,158.00 L119.30,159.00 L119.00,159.78 L119.00,159.78 L118.92,160.00 L118.92,160.00 L118.54,161.00 L118.17,162.00 L118.00,162.47 L117.81,163.00 L117.46,164.00 L117.11,165.00 L117.00,165.34 L116.78,166.00 L116.45,167.00 L116.13,168.00 L116.00,168.43 L115.82,169.00 L115.52,170.00 L115.23,171.00 L115.00,171.79 L115.00,171.79 L114.94,172.00 L114.94,172.00 L114.66,173.00 L114.39,174.00 L114.13,175.00 L114.00,175.51 L113.88,176.00 L113.63,177.00 L113.39,178.00 L113.16,179.00 L113.00,179.71 L112.94,180.00 L112.72,181.00 L112.51,182.00 L112.31,183.00 L112.12,184.00 L112.00,184.63 L111.93,185.00 L111.75,186.00 L111.58,187.00 L111.42,188.00 L111.26,189.00 L111.12,190.00 L111.00,190.82 L111.00,190.82 L110.97,191.00 L110.97,191.00 L110.84,192.00 L110.71,193.00 L110.59,194.00 L110.48,195.00 L110.38,196.00 L110.28,197.00 L110.19,198.00 L110.11,199.00 L110.03,200.00 L110.00,200.45 L109.96,201.00 L109.90,202.00 L109.85,203.00 L109.80,204.00 L109.76,205.00 L109.73,206.00 L109.70,207.00 L109.68,208.00 L109.67,209.00 L109.66,210.00 L109.67,211.00 L109.68,212.00 L109.69,213.00 L109.72,214.00 L109.75,215.00 L109.79,216.00 L109.83,217.00 L109.88,218.00 L109.94,219.00 L110.00,219.83 L110.00,219.83 L110.01,220.00 L110.01,220.00 L110.09,221.00 L110.17,222.00 L110.25,223.00 L110.35,224.00 L110.45,225.00 L110.56,226.00 L110.68,227.00 L110.80,228.00 L110.94,229.00 L111.00,229.45 L111.08,230.00 L111.22,231.00 L111.38,232.00 L111.54,233.00 L111.71,234.00 L111.88,235.00 L112.00,235.64 L112.07,236.00 L112.26,237.00 L112.46,238.00 L112.66,239.00 L112.88,240.00 L113.00,240.56 L113.10,241.00 L113.33,242.00 L113.56,243.00 L113.81,244.00 L114.00,244.76 L114.00,244.76 L114.06,245.00 L114.06,245.00 L114.32,246.00 L114.59,247.00 L114.86,248.00 L115.00,248.48 L115.15,249.00 L115.44,250.00 L115.74,251.00 L116.00,251.85 L116.00,251.85 L116.05,252.00 L116.05,252.00 L116.36,253.00 L116.69,254.00 L117.00,254.94 L117.00,254.94 L117.02,255.00 L117.02,255.00 L117.36,256.00 L117.71,257.00 L118.00,257.80 L118.00,257.80 L118.07,258.00 L118.07,258.00 L118.44,259.00 L118.81,260.00 L119.00,260.49 L119.20,261.00 L119.59,262.00 L119.99,263.00 L119.99,263.00 L120.00,263.02 L120.00,263.02 L120.40,264.00 L120.82,265.00 L120.82,265.00 L121.00,265.42 L121.00,265.42 L121.25,266.00 L121.69,267.00 L122.00,267.70 L122.00,267.70 L122.14,268.00 L122.14,268.00 L122.59,269.00 L123.00,269.87 L123.00,269.87 L123.06,270.00 L123.06,270.00 L123.53,271.00 L124.00,271.96 L124.00,271.96 L124.02,272.00 L124.02,272.00 L124.52,273.00 L125.00,273.96 L125.00,273.96 L125.02,274.00 L125.02,274.00 L125.54,275.00 L126.00,275.88 L126.00,275.88 L126.06,276.00 L126.06,276.00 L126.60,277.00 L127.00,277.74 L127.00,277.74 L127.14,278.00 L127.14,278.00 L127.70,279.00 L128.00,279.53 L128.27,280.00 L128.85,281.00 L129.00,281.26 L129.44,282.00 L130.00,282.94 L130.00,282.94 L130.04,283.00 L130.04,283.00 L130.65,284.00 L131.00,284.56 L131.28,285.00 L131.91,286.00 L131.91,286.00 L132.00,286.14 L132.00,286.14 L132.56,287.00 L133.00,287.67 L133.22,288.00 L133.89,289.00 L133.89,289.00 L134.00,289.16 L134.00,289.16 L134.58,290.00 L135.00,290.61 L135.27,291.00 L135.98,292.00 L135.98,292.00 L136.00,292.02 L136.00,292.02 L136.71,293.00 L137.00,293.40 L137.45,294.00 L138.00,294.74 L138.20,295.00 L138.96,296.00 L138.96,296.00 L139.00,296.05 L139.00,296.05 L139.74,297.00 L140.00,297.33 L140.54,298.00 L141.00,298.58 L141.34,299.00 L142.00,299.80 L142.00,299.80 L142.17,300.00 L142.17,300.00 L143.00,300.99 L143.00,300.99 L143.01,301.00 L143.01,301.00 L143.87,302.00 L143.87,302.00 L144.00,302.16 L144.00,302.16 L144.74,303.00 L145.00,303.30 L145.63,304.00 L146.00,304.41 L146.53,305.00 L147.00,305.51 L147.46,306.00 L148.00,306.58 L148.40,307.00 L149.00,307.62 L149.36,308.00 L150.00,308.65 L150.34,309.00 L151.00,309.66 L151.35,310.00 L152.00,310.64 L152.37,311.00 L153.00,311.61 L153.41,312.00 L154.00,312.56 L154.47,313.00 L155.00,313.49 L155.56,314.00 L156.00,314.40 L156.67,315.00 L157.00,315.29 L157.80,316.00 L157.80,316.00 L158.00,316.17 L158.00,316.17 L158.96,317.00 L158.96,317.00 L159.00,317.03 L159.00,317.03 L160.00,317.88 L160.00,317.88 L160.15,318.00 L160.15,318.00 L161.00,318.70 L161.36,319.00 L162.00,319.52 L162.60,320.00 L163.00,320.32 L163.87,321.00 L163.87,321.00 L164.00,321.10 L164.00,321.10 L165.00,321.87 L165.00,321.87 L165.17,322.00 L165.17,322.00 L166.00,322.62 L166.51,323.00 L167.00,323.37 L167.87,324.00 L167.87,324.00 L168.00,324.09 L168.00,324.09 L169.00,324.81 L169.00,324.81 L169.27,325.00 L169.27,325.00 L170.00,325.51 L170.71,326.00 L170.71,326.00 L171.00,326.20 L171.00,326.20 L172.00,326.87 L172.00,326.87 L172.19,327.00 L172.19,327.00 L173.00,327.54 L173.71,328.00 L174.00,328.19 L175.00,328.83 L175.28,329.00 L176.00,329.45 L176.89,330.00 L176.89,330.00 L177.00,330.07 L177.00,330.07 L178.00,330.67 L178.55,331.00 L179.00,331.26 L180.00,331.85 L180.27,332.00 L181.00,332.42 L182.00,332.98 L182.00,332.98 L182.04,333.00 L182.04,333.00 L183.00,333.53 L183.88,334.00 L183.88,334.00 L184.00,334.07 L184.00,334.07 L185.00,334.59 L185.78,335.00 L185.78,335.00 L186.00,335.11 L186.00,335.11 L187.00,335.62 L187.76,336.00 L187.76,336.00 L188.00,336.12 L188.00,336.12 L189.00,336.61 L189.82,337.00 L189.82,337.00 L190.00,337.09 L190.00,337.09 L191.00,337.55 L191.97,338.00 L191.97,338.00 L192.00,338.01 L192.00,338.01 L193.00,338.46 L194.00,338.90 L194.00,338.90 L194.22,339.00 L194.22,339.00 L195.00,339.34 L196.00,339.76 L196.58,340.00 L197.00,340.17 L198.00,340.58 L199.00,340.97 L199.00,340.97 L199.08,341.00 L199.08,341.00 L200.00,341.36 L201.00,341.73 L201.72,342.00 L202.00,342.10 L203.00,342.46 L204.00,342.82 L204.53,343.00 L205.00,343.16 L206.00,343.50 L207.00,343.82 L207.56,344.00 L208.00,344.14 L209.00,344.45 L210.00,344.75 L210.84,345.00 L210.84,345.00 L211.00,345.05 L211.00,345.05 L212.00,345.33 L213.00,345.61 L214.00,345.88 L214.45,346.00 L215.00,346.14 L216.00,346.40 L217.00,346.64 L218.00,346.88 L218.50,347.00 L219.00,347.11 L220.00,347.34 L221.00,347.55 L222.00,347.76 L223.00,347.96 L223.00,347.96 L223.19,348.00 L223.19,348.00 L224.00,348.16 L225.00,348.34 L226.00,348.52 L227.00,348.69 L228.00,348.85 L228.94,349.00 L228.94,349.00 L229.00,349.01 L229.00,349.01 L230.00,349.16 L231.00,349.30 L232.00,349.43 L233.00,349.56 L234.00,349.68 L235.00,349.79 L236.00,349.90 L237.00,349.99 L237.00,349.99 L237.07,350.00 L237.07,350.00 L238.00,350.08 L239.00,350.17 L240.00,350.24 L241.00,350.31 L242.00,350.37 L243.00,350.43 L244.00,350.48 L245.00,350.52 L246.00,350.55 L247.00,350.57 L248.00,350.59 L249.00,350.60 L250.00,350.61 L251.00,350.61 L252.00,350.60 L253.00,350.58 L254.00,350.56 L255.00,350.53 L256.00,350.49 L257.00,350.44 L258.00,350.39 L259.00,350.33 L260.00,350.26 L261.00,350.19 L262.00,350.11 L263.00,350.02 L263.00,350.02 L263.20,350.00 L263.20,350.00 L264.00,349.92 L265.00,349.82 L266.00,349.71 L267.00,349.59 L268.00,349.47 L269.00,349.34 L270.00,349.20 L271.00,349.05 L271.33,349.00 L272.00,348.90 L273.00,348.74 L274.00,348.57 L275.00,348.39 L276.00,348.21 L277.00,348.02 L277.00,348.02 L277.08,348.00 L277.08,348.00 L278.00,347.82 L279.00,347.61 L280.00,347.40 L281.00,347.18 L281.77,347.00 L281.77,347.00 "/>
    <path fill-rule="evenodd" style="fill: none; stroke: rgb(0, 0, 0); stroke-width: 0.2;" d="M441.00,168.24 L442.00,169.00 L443.00,169.79 L443.25,170.00 L443.25,170.00 L444.00,170.63 L444.43,171.00 L445.00,171.51 L445.53,172.00 L446.00,172.44 L446.58,173.00 L447.00,173.41 L447.57,174.00 L448.00,174.45 L448.51,175.00 L449.00,175.54 L449.41,176.00 L450.00,176.69 L450.25,177.00 L451.00,177.92 L451.00,177.92 L451.06,178.00 L451.06,178.00 L451.83,179.00 L451.83,179.00 L452.00,179.24 L452.00,179.24 L452.55,180.00 L453.00,180.64 L453.00,180.64 L453.25,181.00 L453.25,181.00 L453.91,182.00 L453.91,182.00 L454.00,182.15 L454.00,182.15 L454.53,183.00 L455.00,183.78 L455.00,183.78 L455.13,184.00 L455.13,184.00 L455.70,185.00 L456.00,185.56 L456.23,186.00 L456.74,187.00 L457.00,187.53 L457.23,188.00 L457.68,189.00 L458.00,189.73 L458.12,190.00 L458.52,191.00 L458.91,192.00 L459.00,192.25 L459.27,193.00 L459.61,194.00 L459.92,195.00 L460.00,195.27 L460.21,196.00 L460.49,197.00 L460.74,198.00 L460.97,199.00 L460.97,199.00 L461.00,199.17 L461.00,199.17 L461.17,200.00 L461.36,201.00 L461.53,202.00 L461.68,203.00 L461.81,204.00 L461.92,205.00 L462.00,205.93 L462.00,205.93 L462.01,206.00 L462.01,206.00 L462.08,207.00 L462.13,208.00 L462.16,209.00 L462.17,210.00 L462.16,211.00 L462.14,212.00 L462.09,213.00 L462.03,214.00 L462.00,214.33 L461.94,215.00 L461.84,216.00 L461.72,217.00 L461.57,218.00 L461.41,219.00 L461.23,220.00 L461.02,221.00 L461.02,221.00 L461.00,221.11 L461.00,221.11 L460.80,222.00 L460.56,223.00 L460.29,224.00 L460.00,225.00 L460.00,225.00 L460.00,225.01 L460.00,225.01 L459.69,226.00 L459.36,227.00 L459.01,228.00 L459.01,228.00 L459.00,228.02 L459.00,228.02 L458.63,229.00 L458.23,230.00 L458.00,230.54 L457.81,231.00 L457.35,232.00 L457.00,232.75 L456.88,233.00 L456.38,234.00 L456.00,234.71 L455.85,235.00 L455.29,236.00 L455.00,236.49 L454.70,237.00 L454.08,238.00 L454.08,238.00 L454.00,238.13 L454.00,238.13 L453.43,239.00 L453.00,239.64 L452.75,240.00 L452.03,241.00 L452.03,241.00 L452.00,241.04 L452.00,241.04 L451.27,242.00 L451.00,242.35 L450.48,243.00 L450.00,243.58 L449.64,244.00 L449.00,244.74 L448.76,245.00 L448.00,245.83 L448.00,245.83 L447.84,246.00 L447.84,246.00 L447.00,246.86 L447.00,246.86 L446.86,247.00 L446.86,247.00 L446.00,247.84 L446.00,247.84 L445.83,248.00 L445.83,248.00 L445.00,248.76 L444.74,249.00 L444.00,249.64 L443.58,250.00 L443.00,250.48 L442.35,251.00 L442.35,251.00 L442.00,251.27 L442.00,251.27 L441.04,252.00 L441.04,252.00 L441.00,252.03 L441.00,252.03 L440.00,252.75 L439.64,253.00 L439.00,253.43 L438.13,254.00 L438.13,254.00 L438.00,254.08 L438.00,254.08 L437.00,254.70 L436.49,255.00 L436.00,255.29 L435.00,255.85 L434.71,256.00 L434.00,256.38 L433.00,256.88 L432.75,257.00 L432.00,257.35 L431.00,257.81 L430.54,258.00 L430.00,258.23 L429.00,258.63 L428.02,259.00 L428.02,259.00 L428.00,259.01 L428.00,259.01 L427.00,259.36 L426.00,259.69 L425.01,260.00 L425.01,260.00 L425.00,260.00 L425.00,260.00 L424.00,260.29 L423.00,260.56 L422.00,260.80 L421.11,261.00 L421.11,261.00 L421.00,261.02 L421.00,261.02 L420.00,261.23 L419.00,261.41 L418.00,261.57 L417.00,261.72 L416.00,261.84 L415.00,261.94 L414.33,262.00 L414.00,262.03 L413.00,262.09 L412.00,262.14 L411.00,262.16 L410.00,262.17 L409.00,262.16 L408.00,262.13 L407.00,262.08 L406.00,262.01 L406.00,262.01 L405.93,262.00 L405.93,262.00 L405.00,261.92 L404.00,261.81 L403.00,261.68 L402.00,261.53 L401.00,261.36 L400.00,261.17 L399.17,261.00 L399.17,261.00 L399.00,260.97 L399.00,260.97 L398.00,260.74 L397.00,260.49 L396.00,260.21 L395.27,260.00 L395.00,259.92 L394.00,259.61 L393.00,259.27 L392.25,259.00 L392.00,258.91 L391.00,258.52 L390.00,258.12 L389.73,258.00 L389.00,257.68 L388.00,257.23 L387.53,257.00 L387.00,256.74 L386.00,256.23 L385.56,256.00 L385.00,255.70 L384.00,255.13 L384.00,255.13 L383.78,255.00 L383.78,255.00 L383.00,254.53 L382.15,254.00 L382.15,254.00 L382.00,253.91 L382.00,253.91 L381.00,253.25 L380.64,253.00 L380.00,252.55 L379.24,252.00 L379.24,252.00 L379.00,251.83 L379.00,251.83 L378.00,251.06 L378.00,251.06 L377.92,251.00 L377.92,251.00 L377.00,250.25 L376.69,250.00 L376.00,249.41 L375.54,249.00 L375.00,248.51 L374.45,248.00 L374.00,247.57 L373.41,247.00 L373.00,246.58 L372.44,246.00 L372.00,245.53 L371.51,245.00 L371.00,244.43 L370.63,244.00 L370.00,243.25 L370.00,243.25 L369.79,243.00 L369.00,242.00 L368.24,241.00 L368.00,240.66 L367.53,240.00 L367.00,239.23 L367.00,239.23 L366.84,239.00 L366.84,239.00 L366.19,238.00 L366.00,237.69 L365.57,237.00 L365.00,236.03 L365.00,236.03 L364.99,236.00 L364.99,236.00 L364.43,235.00 L364.00,234.20 L364.00,234.20 L363.90,234.00 L363.90,234.00 L363.40,233.00 L363.00,232.17 L363.00,232.17 L362.92,232.00 L362.92,232.00 L362.47,231.00 L362.04,230.00 L362.04,230.00 L362.00,229.89 L362.00,229.89 L361.64,229.00 L361.27,228.00 L361.00,227.25 L360.91,227.00 L360.58,226.00 L360.27,225.00 L360.00,224.06 L360.00,224.06 L359.98,224.00 L359.98,224.00 L359.72,223.00 L359.47,222.00 L359.25,221.00 L359.05,220.00 L359.05,220.00 L359.00,219.75 L359.00,219.75 L358.86,219.00 L358.70,218.00 L358.56,217.00 L358.43,216.00 L358.33,215.00 L358.25,214.00 L358.18,213.00 L358.14,212.00 L358.11,211.00 L358.10,210.00 L358.12,209.00 L358.15,208.00 L358.20,207.00 L358.27,206.00 L358.36,205.00 L358.47,204.00 L358.59,203.00 L358.74,202.00 L358.91,201.00 L359.00,200.53 L359.10,200.00 L359.31,199.00 L359.54,198.00 L359.79,197.00 L360.00,196.22 L360.00,196.22 L360.06,196.00 L360.06,196.00 L360.35,195.00 L360.67,194.00 L361.00,193.02 L361.00,193.02 L361.01,193.00 L361.01,193.00 L361.37,192.00 L361.75,191.00 L362.00,190.38 L362.16,190.00 L362.59,189.00 L363.00,188.10 L363.00,188.10 L363.05,188.00 L363.05,188.00 L363.53,187.00 L364.00,186.08 L364.00,186.08 L364.04,186.00 L364.04,186.00 L364.58,185.00 L365.00,184.25 L365.14,184.00 L365.74,183.00 L366.00,182.58 L366.37,182.00 L367.00,181.04 L367.00,181.04 L367.03,181.00 L367.03,181.00 L367.72,180.00 L368.00,179.61 L368.45,179.00 L369.00,178.27 L369.21,178.00 L370.00,177.02 L370.00,177.02 L370.02,177.00 L370.02,177.00 L370.87,176.00 L370.87,176.00 L371.00,175.85 L371.00,175.85 L371.76,175.00 L371.76,175.00 L372.00,174.74 L372.00,174.74 L372.70,174.00 L373.00,173.69 L373.69,173.00 L374.00,172.70 L374.74,172.00 L375.00,171.76 L375.85,171.00 L375.85,171.00 L376.00,170.87 L376.00,170.87 L377.00,170.02 L377.00,170.02 L377.02,170.00 L377.02,170.00 L378.00,169.21 L378.27,169.00 L379.00,168.45 L379.61,168.00 L380.00,167.72 L381.00,167.03 L381.00,167.03 L381.04,167.00 L381.04,167.00 L382.00,166.37 L382.58,166.00 L383.00,165.74 L384.00,165.14 L384.25,165.00 L385.00,164.58 L386.00,164.04 L386.00,164.04 L386.08,164.00 L386.08,164.00 L387.00,163.53 L388.00,163.05 L388.00,163.05 L388.10,163.00 L388.10,163.00 L389.00,162.59 L390.00,162.16 L390.38,162.00 L391.00,161.75 L392.00,161.37 L393.00,161.01 L393.00,161.01 L393.02,161.00 L393.02,161.00 L394.00,160.67 L395.00,160.35 L396.00,160.06 L396.00,160.06 L396.22,160.00 L396.22,160.00 L397.00,159.79 L398.00,159.54 L399.00,159.31 L400.00,159.10 L400.53,159.00 L401.00,158.91 L402.00,158.74 L403.00,158.59 L404.00,158.47 L405.00,158.36 L406.00,158.27 L407.00,158.20 L408.00,158.15 L409.00,158.12 L410.00,158.10 L411.00,158.11 L412.00,158.14 L413.00,158.18 L414.00,158.25 L415.00,158.33 L416.00,158.43 L417.00,158.56 L418.00,158.70 L419.00,158.86 L419.75,159.00 L419.75,159.00 L420.00,159.05 L421.00,159.25 L422.00,159.47 L423.00,159.72 L424.00,159.98 L424.00,159.98 L424.06,160.00 L424.06,160.00 L425.00,160.27 L426.00,160.58 L427.00,160.91 L427.25,161.00 L428.00,161.27 L429.00,161.64 L429.89,162.00 L429.89,162.00 L430.00,162.04 L430.00,162.04 L431.00,162.47 L432.00,162.92 L432.00,162.92 L432.17,163.00 L432.17,163.00 L433.00,163.40 L434.00,163.90 L434.00,163.90 L434.20,164.00 L434.20,164.00 L435.00,164.43 L436.00,164.99 L436.00,164.99 L436.03,165.00 L436.03,165.00 L437.00,165.57 L437.69,166.00 L437.69,166.00 L438.00,166.19 L438.00,166.19 L439.00,166.84 L439.00,166.84 L439.23,167.00 L439.23,167.00 L440.00,167.53 L440.66,168.00 L440.66,168.00 L441.00,168.24 L441.00,168.24 "/>
    <path fill-rule="evenodd" style="fill: none; stroke: rgb(0, 0, 0); stroke-width: 0.2;" d="M237.00,249.07 L236.96,249.00 L236.96,249.00 L236.44,248.00 L236.00,247.13 L236.00,247.13 L235.94,247.00 L235.94,247.00 L235.45,246.00 L235.00,245.05 L235.00,245.05 L234.98,245.00 L234.98,245.00 L234.52,244.00 L234.08,243.00 L234.08,243.00 L234.00,242.81 L234.00,242.81 L233.66,242.00 L233.25,241.00 L233.00,240.38 L232.85,240.00 L232.47,239.00 L232.11,238.00 L232.00,237.69 L231.76,237.00 L231.42,236.00 L231.10,235.00 L231.00,234.67 L230.79,234.00 L230.50,233.00 L230.22,232.00 L230.00,231.18 L230.00,231.18 L229.95,231.00 L229.95,231.00 L229.70,230.00 L229.46,229.00 L229.23,228.00 L229.02,227.00 L229.02,227.00 L229.00,226.91 L229.00,226.91 L228.82,226.00 L228.63,225.00 L228.45,224.00 L228.29,223.00 L228.14,222.00 L228.00,221.01 L228.00,221.01 L228.00,221.00 L228.00,221.00 L227.87,220.00 L227.76,219.00 L227.66,218.00 L227.57,217.00 L227.49,216.00 L227.43,215.00 L227.37,214.00 L227.33,213.00 L227.30,212.00 L227.29,211.00 L227.28,210.00 L227.29,209.00 L227.31,208.00 L227.34,207.00 L227.39,206.00 L227.44,205.00 L227.51,204.00 L227.59,203.00 L227.68,202.00 L227.79,201.00 L227.91,200.00 L228.00,199.27 L228.04,199.00 L228.18,198.00 L228.33,197.00 L228.50,196.00 L228.68,195.00 L228.87,194.00 L229.00,193.37 L229.07,193.00 L229.29,192.00 L229.52,191.00 L229.77,190.00 L230.00,189.10 L230.00,189.10 L230.02,189.00 L230.02,189.00 L230.30,188.00 L230.58,187.00 L230.88,186.00 L231.00,185.60 L231.19,185.00 L231.51,184.00 L231.85,183.00 L232.00,182.58 L232.21,182.00 L232.58,181.00 L232.96,180.00 L232.96,180.00 L233.00,179.90 L233.00,179.90 L233.36,179.00 L233.77,178.00 L234.00,177.46 L234.20,177.00 L234.64,176.00 L235.00,175.22 L235.00,175.22 L235.10,175.00 L235.10,175.00 L235.58,174.00 L236.00,173.15 L236.00,173.15 L236.07,173.00 L236.07,173.00 L236.58,172.00 L237.00,171.21 L237.00,171.21 L237.11,171.00 L237.11,171.00 L237.65,170.00 L238.00,169.38 L238.22,169.00 L238.80,168.00 L239.00,167.66 L239.40,167.00 L240.00,166.03 L240.00,166.03 L240.02,166.00 L240.02,166.00 L240.66,165.00 L241.00,164.48 L241.32,164.00 L242.00,163.00 L242.70,162.00 L243.00,161.59 L243.43,161.00 L244.00,160.23 L244.00,160.23 L244.18,160.00 L244.18,160.00 L244.95,159.00 L244.95,159.00 L245.00,158.93 L245.00,158.93 L245.74,158.00 L246.00,157.69 L246.57,157.00 L247.00,156.49 L247.42,156.00 L248.00,155.33 L248.29,155.00 L249.00,154.22 L249.00,154.22 L249.20,154.00 L249.20,154.00 L250.00,153.14 L250.00,153.14 L250.14,153.00 L250.14,153.00 L251.00,152.11 L251.00,152.11 L251.11,152.00 L251.11,152.00 L252.00,151.11 L252.00,151.11 L252.11,151.00 L252.11,151.00 L253.00,150.14 L253.00,150.14 L253.14,150.00 L253.14,150.00 L254.00,149.20 L254.00,149.20 L254.22,149.00 L254.22,149.00 L255.00,148.29 L255.33,148.00 L256.00,147.42 L256.49,147.00 L257.00,146.57 L257.69,146.00 L258.00,145.74 L258.93,145.00 L258.93,145.00 L259.00,144.95 L259.00,144.95 L260.00,144.18 L260.00,144.18 L260.23,144.00 L260.23,144.00 L261.00,143.43 L261.59,143.00 L262.00,142.70 L263.00,142.00 L264.00,141.32 L264.48,141.00 L265.00,140.66 L266.00,140.02 L266.00,140.02 L266.03,140.00 L266.03,140.00 L267.00,139.40 L267.66,139.00 L268.00,138.80 L269.00,138.22 L269.38,138.00 L270.00,137.65 L271.00,137.11 L271.00,137.11 L271.21,137.00 L271.21,137.00 L272.00,136.58 L273.00,136.07 L273.00,136.07 L273.15,136.00 L273.15,136.00 L274.00,135.58 L275.00,135.10 L275.00,135.10 L275.22,135.00 L275.22,135.00 L276.00,134.64 L277.00,134.20 L277.46,134.00 L278.00,133.77 L279.00,133.36 L279.90,133.00 L279.90,133.00 L280.00,132.96 L280.00,132.96 L281.00,132.58 L282.00,132.21 L282.58,132.00 L283.00,131.85 L284.00,131.51 L285.00,131.19 L285.60,131.00 L286.00,130.88 L287.00,130.58 L288.00,130.30 L289.00,130.02 L289.00,130.02 L289.10,130.00 L289.10,130.00 L290.00,129.77 L291.00,129.52 L292.00,129.29 L293.00,129.07 L293.37,129.00 L294.00,128.87 L295.00,128.68 L296.00,128.50 L297.00,128.33 L298.00,128.18 L299.00,128.04 L299.27,128.00 L300.00,127.91 L301.00,127.79 L302.00,127.68 L303.00,127.59 L304.00,127.51 L305.00,127.44 L306.00,127.39 L307.00,127.34 L308.00,127.31 L309.00,127.29 L310.00,127.28 L311.00,127.29 L312.00,127.30 L313.00,127.33 L314.00,127.37 L315.00,127.43 L316.00,127.49 L317.00,127.57 L318.00,127.66 L319.00,127.76 L320.00,127.87 L321.00,128.00 L321.00,128.00 L321.01,128.00 L321.01,128.00 L322.00,128.14 L323.00,128.29 L324.00,128.45 L325.00,128.63 L326.00,128.82 L326.91,129.00 L326.91,129.00 L327.00,129.02 L327.00,129.02 L328.00,129.23 L329.00,129.46 L330.00,129.70 L331.00,129.95 L331.00,129.95 L331.18,130.00 L331.18,130.00 L332.00,130.22 L333.00,130.50 L334.00,130.79 L334.67,131.00 L335.00,131.10 L336.00,131.42 L337.00,131.76 L337.69,132.00 L338.00,132.11 L339.00,132.47 L340.00,132.85 L340.38,133.00 L341.00,133.25 L342.00,133.66 L342.81,134.00 L342.81,134.00 L343.00,134.08 L343.00,134.08 L344.00,134.52 L345.00,134.98 L345.00,134.98 L345.05,135.00 L345.05,135.00 L346.00,135.45 L347.00,135.94 L347.00,135.94 L347.13,136.00 L347.13,136.00 L348.00,136.44 L349.00,136.96 L349.00,136.96 L349.07,137.00 L349.07,137.00 L350.00,137.50 L350.89,138.00 L350.89,138.00 L351.00,138.06 L351.00,138.06 L352.00,138.64 L352.61,139.00 L353.00,139.23 L354.00,139.85 L354.00,139.85 L354.24,140.00 L354.24,140.00 L355.00,140.48 L355.80,141.00 L355.80,141.00 L356.00,141.14 L356.00,141.14 L357.00,141.81 L357.27,142.00 L358.00,142.51 L358.69,143.00 L359.00,143.23 L360.00,143.97 L360.00,143.97 L360.04,144.00 L360.04,144.00 L361.00,144.73 L361.34,145.00 L362.00,145.52 L362.59,146.00 L363.00,146.34 L363.79,147.00 L363.79,147.00 L364.00,147.18 L364.00,147.18 L364.94,148.00 L364.94,148.00 L365.00,148.05 L365.00,148.05 L366.00,148.95 L366.00,148.95 L366.06,149.00 L366.06,149.00 L367.00,149.88 L367.00,149.88 L367.13,150.00 L367.13,150.00 L368.00,150.84 L368.00,150.84 L368.17,151.00 L368.17,151.00 L369.00,151.83 L369.00,151.83 L369.17,152.00 L369.17,152.00 L370.00,152.86 L370.00,152.86 L370.14,153.00 L370.14,153.00 L371.00,153.92 L371.00,153.92 L371.07,154.00 L371.07,154.00 L371.98,155.00 L371.98,155.00 L372.00,155.02 L372.00,155.02 L372.86,156.00 L372.86,156.00 L373.00,156.17 L373.00,156.17 L373.71,157.00 L374.00,157.35 L374.53,158.00 L375.00,158.97 L375.00,158.97 L375.02,159.00 L375.02,159.00 L375.00,159.01 L375.00,159.01 L374.00,159.72 L373.61,160.00 L373.00,160.45 L372.27,161.00 L372.00,161.21 L371.01,162.00 L371.01,162.00 L371.00,162.01 L371.00,162.01 L370.00,162.84 L370.00,162.84 L369.81,163.00 L369.81,163.00 L369.00,163.71 L368.67,164.00 L368.00,164.61 L367.58,165.00 L367.00,165.56 L366.55,166.00 L366.00,166.55 L365.56,167.00 L365.00,167.58 L364.61,168.00 L364.00,168.67 L363.71,169.00 L363.00,169.81 L363.00,169.81 L362.84,170.00 L362.84,170.00 L362.01,171.00 L362.01,171.00 L362.00,171.01 L362.00,171.01 L361.21,172.00 L361.00,172.27 L360.45,173.00 L360.00,173.61 L359.72,174.00 L359.01,175.00 L359.01,175.00 L359.00,175.02 L359.00,175.02 L358.34,176.00 L358.00,176.52 L357.70,177.00 L357.08,178.00 L357.08,178.00 L357.00,178.13 L357.00,178.13 L356.48,179.00 L356.00,179.85 L356.00,179.85 L355.92,180.00 L355.92,180.00 L355.37,181.00 L355.00,181.71 L355.00,181.71 L354.85,182.00 L354.85,182.00 L354.35,183.00 L354.00,183.74 L353.88,184.00 L353.42,185.00 L353.00,185.98 L353.00,185.98 L352.99,186.00 L352.99,186.00 L352.58,187.00 L352.19,188.00 L352.00,188.50 L351.81,189.00 L351.46,190.00 L351.13,191.00 L351.13,191.00 L351.00,191.41 L351.00,191.41 L350.81,192.00 L350.52,193.00 L350.24,194.00 L350.00,194.91 L350.00,194.91 L349.98,195.00 L349.98,195.00 L349.74,196.00 L349.51,197.00 L349.30,198.00 L349.11,199.00 L349.00,199.63 L348.94,200.00 L348.78,201.00 L348.64,202.00 L348.51,203.00 L348.41,204.00 L348.32,205.00 L348.24,206.00 L348.18,207.00 L348.14,208.00 L348.11,209.00 L348.10,210.00 L348.11,211.00 L348.13,212.00 L348.17,213.00 L348.22,214.00 L348.29,215.00 L348.38,216.00 L348.48,217.00 L348.60,218.00 L348.74,219.00 L348.89,220.00 L349.00,220.64 L349.06,221.00 L349.25,222.00 L349.45,223.00 L349.67,224.00 L349.91,225.00 L350.00,225.35 L350.17,226.00 L350.44,227.00 L350.73,228.00 L351.00,228.87 L351.00,228.87 L351.04,229.00 L351.04,229.00 L351.37,230.00 L351.72,231.00 L352.00,231.77 L352.00,231.77 L352.08,232.00 L352.08,232.00 L352.47,233.00 L352.88,234.00 L353.00,234.29 L353.30,235.00 L353.75,236.00 L354.00,236.53 L354.22,237.00 L354.71,238.00 L355.00,238.56 L355.23,239.00 L355.76,240.00 L356.00,240.42 L356.33,241.00 L356.91,242.00 L356.91,242.00 L357.00,242.15 L357.00,242.15 L357.52,243.00 L358.00,243.75 L358.00,243.75 L358.16,244.00 L358.16,244.00 L358.83,245.00 L359.00,245.25 L359.52,246.00 L360.00,246.67 L360.24,247.00 L361.00,248.00 L361.79,249.00 L362.00,249.26 L362.61,250.00 L363.00,250.46 L363.46,251.00 L364.00,251.60 L364.36,252.00 L365.00,252.69 L365.29,253.00 L366.00,253.73 L366.27,254.00 L367.00,254.72 L367.29,255.00 L368.00,255.66 L368.37,256.00 L369.00,256.57 L369.49,257.00 L370.00,257.44 L370.68,258.00 L371.00,258.27 L371.92,259.00 L371.92,259.00 L372.00,259.06 L372.00,259.06 L373.00,259.83 L373.00,259.83 L373.23,260.00 L373.23,260.00 L374.00,260.56 L374.63,261.00 L374.75,262.00 L374.00,262.92 L374.00,262.92 L373.93,263.00 L373.93,263.00 L373.09,264.00 L373.09,264.00 L373.00,264.11 L373.00,264.11 L372.22,265.00 L372.00,265.25 L371.32,266.00 L371.00,266.35 L370.40,267.00 L370.00,267.42 L369.44,268.00 L369.00,268.44 L368.44,269.00 L368.00,269.44 L367.42,270.00 L367.00,270.40 L366.35,271.00 L366.00,271.32 L365.25,272.00 L365.00,272.22 L364.11,273.00 L364.11,273.00 L364.00,273.09 L364.00,273.09 L363.00,273.93 L363.00,273.93 L362.92,274.00 L362.92,274.00 L362.00,274.75 L361.69,275.00 L361.00,275.54 L360.40,276.00 L360.00,276.31 L359.07,277.00 L359.07,277.00 L359.00,277.05 L359.00,277.05 L358.00,277.77 L358.00,277.77 L357.67,278.00 L357.67,278.00 L357.00,278.46 L356.21,279.00 L356.21,279.00 L356.00,279.14 L356.00,279.14 L355.00,279.79 L355.00,279.79 L354.68,280.00 L354.68,280.00 L354.00,280.43 L353.07,281.00 L353.07,281.00 L353.00,281.04 L353.00,281.04 L352.00,281.64 L351.37,282.00 L351.00,282.21 L350.00,282.77 L349.58,283.00 L349.00,283.31 L348.00,283.83 L347.67,284.00 L347.00,284.34 L346.00,284.83 L345.63,285.00 L345.00,285.30 L344.00,285.75 L343.44,286.00 L343.00,286.19 L342.00,286.62 L341.07,287.00 L341.07,287.00 L341.00,287.03 L341.00,287.03 L340.00,287.42 L339.00,287.80 L338.45,288.00 L338.00,288.16 L337.00,288.51 L336.00,288.85 L335.54,289.00 L335.00,289.17 L334.00,289.48 L333.00,289.77 L332.19,290.00 L332.19,290.00 L332.00,290.05 L332.00,290.05 L331.00,290.32 L330.00,290.57 L329.00,290.81 L328.18,291.00 L328.18,291.00 L328.00,291.04 L328.00,291.04 L327.00,291.26 L326.00,291.46 L325.00,291.65 L324.00,291.82 L323.00,291.99 L323.00,291.99 L322.91,292.00 L322.91,292.00 L322.00,292.14 L321.00,292.28 L320.00,292.40 L319.00,292.52 L318.00,292.62 L317.00,292.71 L316.00,292.78 L315.00,292.85 L314.00,292.90 L313.00,292.94 L312.00,292.97 L311.00,292.99 L310.00,292.99 L309.00,292.98 L308.00,292.96 L307.00,292.93 L306.00,292.89 L305.00,292.83 L304.00,292.76 L303.00,292.68 L302.00,292.59 L301.00,292.49 L300.00,292.37 L299.00,292.24 L298.00,292.10 L297.37,292.00 L297.00,291.94 L296.00,291.78 L295.00,291.60 L294.00,291.40 L293.00,291.20 L292.09,291.00 L292.09,291.00 L292.00,290.98 L292.00,290.98 L291.00,290.75 L290.00,290.51 L289.00,290.25 L288.08,290.00 L288.08,290.00 L288.00,289.98 L288.00,289.98 L287.00,289.69 L286.00,289.40 L285.00,289.09 L284.74,289.00 L284.00,288.76 L283.00,288.42 L282.00,288.07 L282.00,288.07 L281.82,288.00 L281.82,288.00 L281.00,287.70 L280.00,287.31 L279.21,287.00 L279.21,287.00 L279.00,286.92 L279.00,286.92 L278.00,286.50 L277.00,286.08 L277.00,286.08 L276.83,286.00 L276.83,286.00 L276.00,285.63 L275.00,285.17 L274.64,285.00 L274.00,284.69 L273.00,284.20 L272.60,284.00 L272.00,283.69 L271.00,283.16 L270.70,283.00 L270.00,282.62 L269.00,282.06 L269.00,282.06 L268.90,282.00 L268.90,282.00 L268.00,281.48 L267.21,281.00 L267.21,281.00 L267.00,280.88 L267.00,280.88 L266.00,280.26 L265.60,280.00 L265.00,279.62 L264.07,279.00 L264.07,279.00 L264.00,278.96 L264.00,278.96 L263.00,278.27 L262.61,278.00 L262.00,277.57 L261.21,277.00 L261.21,277.00 L261.00,276.85 L261.00,276.85 L260.00,276.10 L260.00,276.10 L259.87,276.00 L259.87,276.00 L259.00,275.33 L258.59,275.00 L258.00,274.53 L257.35,274.00 L257.00,273.71 L256.17,273.00 L256.17,273.00 L256.00,272.86 L256.00,272.86 L255.02,272.00 L255.02,272.00 L255.00,271.98 L255.00,271.98 L254.00,271.07 L254.00,271.07 L253.92,271.00 L253.92,271.00 L253.00,270.14 L253.00,270.14 L252.86,270.00 L252.86,270.00 L252.00,269.17 L252.00,269.17 L251.83,269.00 L251.83,269.00 L251.00,268.17 L251.00,268.17 L250.84,268.00 L250.84,268.00 L250.00,267.13 L250.00,267.13 L249.88,267.00 L249.88,267.00 L249.00,266.06 L249.00,266.06 L248.95,266.00 L248.95,266.00 L248.05,265.00 L248.05,265.00 L248.00,264.94 L248.00,264.94 L247.18,264.00 L247.18,264.00 L247.00,263.79 L247.00,263.79 L246.34,263.00 L246.00,262.59 L245.52,262.00 L245.00,261.34 L244.73,261.00 L244.00,260.04 L244.00,260.04 L243.97,260.00 L243.97,260.00 L243.23,259.00 L243.00,258.69 L242.51,258.00 L242.00,257.27 L241.81,257.00 L241.14,256.00 L241.14,256.00 L241.00,255.80 L241.00,255.80 L240.48,255.00 L240.00,254.24 L240.00,254.24 L239.85,254.00 L239.85,254.00 L239.23,253.00 L239.00,252.61 L238.64,252.00 L238.06,251.00 L238.06,251.00 L238.00,250.89 L238.00,250.89 L237.50,250.00 L237.00,249.07 L237.00,249.07 "/>

<script>
let svgs = document.children[0];
let paths = Array.from(svgs.children).filter(function(c) {
    var orig = c.style.stroke;
    c.onmouseover = function() {
        c.style.stroke = "rgb(0, 0, 255)";
    };
    c.onmouseout = function () {
        c.style.stroke = orig;
    };
    c.onclick = function () {
        svgs.removeChild()
    }
});

for (let path of paths) {
    console.log(path);
}
</script></svg>