<svg xmlns="http://www.w3.org/2000/svg">
    <path fill-rule="evenodd" style="fill: none; stroke: rgb(0, 0, 0); stroke-width: 0.2;" d="M152.00,103.00 L152.00,104.00 L152.00,105.00 L152.00,106.00 L152.00,107.00 L152.00,108.00 L152.00,109.00 L152.00,110.00 L152.00,111.00 L152.00,112.00 L152.00,113.00 L152.00,114.00 L152.00,115.00 L152.00,116.00 L152.00,117.00 L152.00,118.00 L152.00,119.00 L152.00,120.00 L152.00,121.00 L152.00,122.00 L152.00,123.00 L152.00,124.00 L152.00,125.00 L152.00,126.00 L152.00,127.00 L152.00,128.00 L152.00,129.00 L152.00,130.00 L152.00,131.00 L152.00,132.00 L152.00,133.00 L152.00,134.00 L152.00,135.00 L152.00,136.00 L152.00,137.00 L152.00,138.00 L152.00,139.00 L152.00,140.00 L152.00,141.00 L152.00,142.00 L152.00,143.00 L152.00,144.00 L152.00,145.00 L152.00,146.00 L152.00,147.00 L152.00,148.00 L152.00,149.00 L152.00,150.00 L152.00,151.00 L152.00,152.00 L151.00,152.00 L150.00,152.00 L149.00,152.00 L148.00,152.00 L147.00,152.00 L146.00,152.00 L145.00,152.00 L144.00,152.00 L143.00,152.00 L142.00,152.00 L141.00,152.00 L140.00,152.00 L139.00,152.00 L138.00,152.00 L137.00,152.00 L136.00,152.00 L135.00,152.00 L134.00,152.00 L133.00,152.00 L132.00,152.00 L131.00,152.00 L130.00,152.00 L129.00,152.00 L128.00,152.00 L127.00,152.00 L126.00,152.00 L125.00,152.00 L124.00,152.00 L123.00,152.00 L122.00,152.00 L121.00,152.00 L120.00,152.00 L119.00,152.00 L118.00,152.00 L117.00,152.00 L116.00,152.00 L115.00,152.00 L114.00,152.00 L113.00,152.00 L112.00,152.00 L111.00,152.00 L110.00,152.00 L109.00,152.00 L108.00,152.00 L107.00,152.00 L106.00,152.00 L105.00,152.00 L104.00,152.00 L103.00,152.00 L102.00,152.00 L101.00,152.00 L100.00,152.00 L99.00,152.00 L98.00,152.00 L97.00,152.00 L96.00,152.00 L95.00,152.00 L94.00,152.00 L93.00,152.00 L92.00,152.00 L91.00,152.00 L90.00,152.00 L89.00,152.00 L88.00,152.00 L87.00,152.00 L86.00,152.00 L85.00,152.00 L84.00,152.00 L83.00,152.00 L82.00,152.00 L81.00,152.00 L80.00,152.00 L79.00,152.00 L78.00,152.00 L77.00,152.00 L76.00,152.00 L75.00,152.00 L74.00,152.00 L73.00,152.00 L72.00,152.00 L71.00,152.00 L70.00,152.00 L69.00,152.00 L68.00,152.00 L67.00,152.00 L66.00,152.00 L65.00,152.00 L64.00,152.00 L63.00,152.00 L62.00,152.00 L61.00,152.00 L60.00,152.00 L59.00,152.00 L58.00,152.00 L57.00,152.00 L56.00,152.00 L55.00,152.00 L54.00,152.00 L53.00,152.00 L52.00,152.00 L52.00,151.00 L52.00,150.00 L52.00,149.00 L52.00,148.00 L52.00,147.00 L52.00,146.00 L52.00,145.00 L52.00,144.00 L52.00,143.00 L52.00,142.00 L52.00,141.00 L52.00,140.00 L52.00,139.00 L52.00,138.00 L52.00,137.00 L52.00,136.00 L52.00,135.00 L52.00,134.00 L52.00,133.00 L52.00,132.00 L52.00,131.00 L52.00,130.00 L52.00,129.00 L52.00,128.00 L52.00,127.00 L52.00,126.00 L52.00,125.00 L52.00,124.00 L52.00,123.00 L52.00,122.00 L52.00,121.00 L52.00,120.00 L52.00,119.00 L52.00,118.00 L52.00,117.00 L52.00,116.00 L52.00,115.00 L52.00,114.00 L52.00,113.00 L52.00,112.00 L52.00,111.00 L52.00,110.00 L52.00,109.00 L52.00,108.00 L52.00,107.00 L52.00,106.00 L52.00,105.00 L52.00,104.00 L52.00,103.00 L52.00,102.00 L52.00,101.00 L52.00,100.00 L52.00,99.00 L52.00,98.00 L52.00,97.00 L52.00,96.00 L52.00,95.00 L52.00,94.00 L52.00,93.00 L52.00,92.00 L52.00,91.00 L52.00,90.00 L52.00,89.00 L52.00,88.00 L52.00,87.00 L52.00,86.00 L52.00,85.00 L52.00,84.00 L52.00,83.00 L52.00,82.00 L52.00,81.00 L52.00,80.00 L52.00,79.00 L52.00,78.00 L52.00,77.00 L52.00,76.00 L52.00,75.00 L52.00,74.00 L52.00,73.00 L52.00,72.00 L52.00,71.00 L52.00,70.00 L52.00,69.00 L52.00,68.00 L52.00,67.00 L52.00,66.00 L52.00,65.00 L52.00,64.00 L52.00,63.00 L52.00,62.00 L52.00,61.00 L52.00,60.00 L52.00,59.00 L52.00,58.00 L52.00,57.00 L52.00,56.00 L52.00,55.00 L52.00,54.00 L52.00,53.00 L52.00,52.00 L53.00,52.00 L54.00,52.00 L55.00,52.00 L56.00,52.00 L57.00,52.00 L58.00,52.00 L59.00,52.00 L60.00,52.00 L61.00,52.00 L62.00,52.00 L63.00,52.00 L64.00,52.00 L65.00,52.00 L66.00,52.00 L67.00,52.00 L68.00,52.00 L69.00,52.00 L70.00,52.00 L71.00,52.00 L72.00,52.00 L73.00,52.00 L74.00,52.00 L75.00,52.00 L76.00,52.00 L77.00,52.00 L78.00,52.00 L79.00,52.00 L80.00,52.00 L81.00,52.00 L82.00,52.00 L83.00,52.00 L84.00,52.00 L85.00,52.00 L86.00,52.00 L87.00,52.00 L88.00,52.00 L89.00,52.00 L90.00,52.00 L91.00,52.00 L92.00,52.00 L93.00,52.00 L94.00,52.00 L95.00,52.00 L96.00,52.00 L97.00,52.00 L98.00,52.00 L99.00,52.00 L100.00,52.00 L101.00,52.00 L102.00,52.00 L103.00,52.00 L104.00,52.00 L105.00,52.00 L106.00,52.00 L107.00,52.00 L108.00,52.00 L109.00,52.00 L110.00,52.00 L111.00,52.00 L112.00,52.00 L113.00,52.00 L114.00,52.00 L115.00,52.00 L116.00,52.00 L117.00,52.00 L118.00,52.00 L119.00,52.00 L120.00,52.00 L121.00,52.00 L122.00,52.00 L123.00,52.00 L124.00,52.00 L125.00,52.00 L126.00,52.00 L127.00,52.00 L128.00,52.00 L129.00,52.00 L130.00,52.00 L131.00,52.00 L132.00,52.00 L133.00,52.00 L134.00,52.00 L135.00,52.00 L136.00,52.00 L137.00,52.00 L138.00,52.00 L139.00,52.00 L140.00,52.00 L141.00,52.00 L142.00,52.00 L143.00,52.00 L144.00,52.00 L145.00,52.00 L146.00,52.00 L147.00,52.00 L148.00,52.00 L149.00,52.00 L150.00,52.00 L151.00,52.00 L152.00,52.00 L152.00,53.00 L152.00,54.00 L152.00,55.00 L152.00,56.00 L152.00,57.00 L152.00,58.00 L152.00,59.00 L152.00,60.00 L152.00,61.00 L152.00,62.00 L152.00,63.00 L152.00,64.00 L152.00,65.00 L152.00,66.00 L152.00,67.00 L152.00,68.00 L152.00,69.00 L152.00,70.00 L152.00,71.00 L152.00,72.00 L152.00,73.00 L152.00,74.00 L152.00,75.00 L152.00,76.00 L152.00,77.00 L152.00,78.00 L152.00,79.00 L152.00,80.00 L152.00,81.00 L152.00,82.00 L152.00,83.00 L152.00,84.00 L152.00,85.00 L152.00,86.00 L152.00,87.00 L152.00,88.00 L152.00,89.00 L152.00,90.00 L152.00,91.00 L152.00,92.00 L152.00,93.00 L152.00,94.00 L152.00,95.00 L152.00,96.00 L152.00,97.00 L152.00,98.00 L152.00,99.00 L152.00,100.00 L152.00,101.00 L152.00,102.00 L152.00,103.00 "/>

<script>
let svgs = document.children[0];
let paths = Array.from(svgs.children).filter(function(c) {
    var orig = c.style.stroke;
    c.onmouseover = function() {
        c.style.stroke = "rgb(0, 0, 255)";
    };
    c.onmouseout = function () {
        c.style.stroke = orig;
    };
    c.onclick = function () {
        svgs.removeChild();
    }
});

for (let path of paths) {
    console.log(path);
}
</script></svg>