<svg xmlns="http://www.w3.org/2000/svg">
    <path fill-rule="evenodd" style="fill: none; stroke: rgb(0, 0, 0); stroke-width: 0.2;" d="M2.00,5.00 L2.00,4.00 M2.00,16.00 L2.00,15.00 M2.00,17.00 L2.00,16.00 M2.00,29.00 L2.00,28.00 M2.00,41.00 L2.00,40.00 M2.00,52.00 L2.00,51.00 M2.00,3.00 L2.00,2.00 M2.00,4.00 L2.00,3.00 M2.00,13.00 L2.00,12.00 M2.00,14.00 L2.00,13.00 M2.00,15.00 L2.00,14.00 M2.00,25.00 L2.00,24.00 M2.00,26.00 L2.00,25.00 M2.00,27.00 L2.00,26.00 M2.00,28.00 L2.00,27.00 M2.00,38.00 L2.00,37.00 M2.00,39.00 L2.00,38.00 M2.00,40.00 L2.00,39.00 M2.00,12.00 L2.00,11.00 M2.00,9.00 L2.00,8.00 M2.00,10.00 L2.00,9.00 M2.00,11.00 L2.00,10.00 M2.00,21.00 L2.00,20.00 M2.00,22.00 L2.00,21.00 M2.00,23.00 L2.00,22.00 M2.00,24.00 L2.00,23.00 M2.00,33.00 L2.00,32.00 M2.00,34.00 L2.00,33.00 M2.00,35.00 L2.00,34.00 M2.00,36.00 L2.00,35.00 M2.00,37.00 L2.00,36.00 M2.00,46.00 L2.00,45.00 M2.00,47.00 L2.00,46.00 M2.00,48.00 L2.00,47.00 M2.00,49.00 L2.00,48.00 M2.00,50.00 L2.00,49.00 M2.00,51.00 L2.00,50.00 M2.00,8.00 L2.00,7.00 M2.00,6.00 L2.00,5.00 M2.00,7.00 L2.00,6.00 M2.00,18.00 L2.00,17.00 M2.00,19.00 L2.00,18.00 M2.00,20.00 L2.00,19.00 M2.00,30.00 L2.00,29.00 M2.00,31.00 L2.00,30.00 M2.00,32.00 L2.00,31.00 M2.00,42.00 L2.00,41.00 M2.00,43.00 L2.00,42.00 M2.00,44.00 L2.00,43.00 M2.00,45.00 L2.00,44.00 M2.00,2.00 L3.00,2.00 M2.00,53.00 L2.00,52.00 M2.00,161.00 L3.00,160.95 M2.00,162.00 L2.00,161.00 M2.00,163.00 L2.00,162.00 M2.00,164.00 L2.00,163.00 M2.00,165.00 L2.00,164.00 M2.00,166.00 L2.00,165.00 M2.00,167.00 L2.00,166.00 M2.00,168.00 L2.00,167.00 M2.00,169.00 L2.00,168.00 M2.00,170.00 L2.00,169.00 M2.00,171.00 L2.00,170.00 M2.00,172.00 L2.00,171.00 M2.00,173.00 L2.00,172.00 M2.00,174.00 L2.00,173.00 M2.00,175.00 L2.00,174.00 M2.00,176.00 L2.00,175.00 M2.00,177.00 L2.00,176.00 M2.00,178.00 L2.00,177.00 M2.00,179.00 L2.00,178.00 M2.00,180.00 L2.00,179.00 M2.00,181.00 L2.00,180.00 M2.00,182.00 L2.00,181.00 M2.00,183.00 L2.00,182.00 M2.00,184.00 L2.00,183.00 M2.00,185.00 L2.00,184.00 M2.00,186.00 L2.00,185.00 M2.00,187.00 L2.00,186.00 M2.00,188.00 L2.00,187.00 M2.00,189.00 L2.00,188.00 M2.00,190.00 L2.00,189.00 M2.00,191.00 L2.00,190.00 M2.00,192.00 L2.00,191.00 M2.00,193.00 L2.00,192.00 M2.00,194.00 L2.00,193.00 M2.00,195.00 L2.00,194.00 M2.00,196.00 L2.00,195.00 M2.00,197.00 L2.00,196.00 M2.00,198.00 L2.00,197.00 M2.00,199.00 L2.00,198.00 M2.00,200.00 L2.00,199.00 M2.00,201.00 L2.00,200.00 M2.00,202.00 L2.00,201.00 M2.00,51.00 L2.00,52.00 M2.00,50.00 L2.00,51.00 M2.00,49.00 L2.00,50.00 M2.00,48.00 L2.00,49.00 M2.00,45.00 L2.00,46.00 M2.00,47.00 L2.00,48.00 M2.00,46.00 L2.00,47.00 M2.00,52.00 L2.00,53.00 M2.00,44.00 L2.00,45.00 M3.00,2.00 L4.00,2.00 M3.00,43.05 L2.00,44.00 M3.00,160.95 L3.01,161.00 M3.00,202.00 L2.00,202.00 M3.01,43.00 L3.00,43.05 M3.01,161.00 L3.23,162.00 M3.23,42.00 L3.01,43.00 M3.23,162.00 L3.46,163.00 M3.46,41.00 L3.23,42.00 M3.46,163.00 L3.72,164.00 M3.72,40.00 L3.46,41.00 M3.72,164.00 L4.00,165.00 M4.00,2.00 L5.00,2.00 M4.00,39.00 L3.72,40.00 M4.00,165.00 L4.30,166.00 M4.00,202.00 L3.00,202.00 M4.30,38.00 L4.00,39.00 M4.30,166.00 L4.63,167.00 M4.63,37.00 L4.30,38.00 M4.63,167.00 L4.98,168.00 M4.98,36.00 L4.63,37.00 M4.98,168.00 L5.00,168.06 M5.00,2.00 L6.00,2.00 M5.00,35.94 L4.98,36.00 M5.00,168.06 L5.35,169.00 M5.00,202.00 L4.00,202.00 M5.35,35.00 L5.00,35.94 M5.35,169.00 L5.75,170.00 M5.75,34.00 L5.35,35.00 M5.75,170.00 L6.00,170.59 M6.00,2.00 L7.00,2.00 M6.00,33.41 L5.75,34.00 M6.00,170.59 L6.17,171.00 M6.00,202.00 L5.00,202.00 M6.17,33.00 L6.00,33.41 M6.17,171.00 L6.62,172.00 M6.62,32.00 L6.17,33.00 M6.62,172.00 L7.00,172.79 M7.00,2.00 L8.00,2.00 M7.00,31.21 L6.62,32.00 M7.00,172.79 L7.10,173.00 M7.00,202.00 L6.00,202.00 M7.10,31.00 L7.00,31.21 M7.10,173.00 L7.60,174.00 M7.60,30.00 L7.10,31.00 M7.60,174.00 L8.00,174.75 M8.00,2.00 L9.00,2.00 M8.00,29.25 L7.60,30.00 M8.00,174.75 L8.14,175.00 M8.00,202.00 L7.00,202.00 M8.14,29.00 L8.00,29.25 M8.14,175.00 L8.70,176.00 M8.70,28.00 L8.14,29.00 M8.70,176.00 L9.00,176.51 M9.00,2.00 L10.00,2.00 M9.00,27.49 L8.70,28.00 M9.00,176.51 L9.29,177.00 M9.00,202.00 L8.00,202.00 M9.29,27.00 L9.00,27.49 M9.29,177.00 L9.92,178.00 M9.92,26.00 L9.29,27.00 M9.92,178.00 L10.00,178.13 M10.00,2.00 L11.00,2.00 M10.00,25.87 L9.92,26.00 M10.00,178.13 L10.58,179.00 M10.00,202.00 L9.00,202.00 M10.58,25.00 L10.00,25.87 M10.58,179.00 L11.00,179.62 M11.00,2.00 L12.00,2.00 M11.00,24.38 L10.58,25.00 M11.00,179.62 L11.27,180.00 M11.00,202.00 L10.00,202.00 M11.27,24.00 L11.00,24.38 M11.27,180.00 L12.00,181.00 M12.00,2.00 L13.00,2.00 M12.00,23.00 L11.27,24.00 M12.00,181.00 L12.77,182.00 M12.00,202.00 L11.00,202.00 M12.77,22.00 L12.00,23.00 M12.77,182.00 L13.00,182.29 M13.00,2.00 L14.00,2.00 M13.00,21.71 L12.77,22.00 M13.00,182.29 L13.58,183.00 M13.00,202.00 L12.00,202.00 M13.58,21.00 L13.00,21.71 M13.58,183.00 L14.00,183.49 M14.00,2.00 L15.00,2.00 M14.00,20.51 L13.58,21.00 M14.00,183.49 L14.44,184.00 M14.00,202.00 L13.00,202.00 M14.44,20.00 L14.00,20.51 M14.44,184.00 L15.00,184.63 M15.00,2.00 L16.00,2.00 M15.00,19.37 L14.44,20.00 M15.00,184.63 L15.34,185.00 M15.00,202.00 L14.00,202.00 M15.34,19.00 L15.00,19.37 M15.34,185.00 L16.00,185.70 M16.00,2.00 L17.00,2.00 M16.00,18.30 L15.34,19.00 M16.00,185.70 L16.29,186.00 M16.00,202.00 L15.00,202.00 M16.29,18.00 L16.00,18.30 M16.29,186.00 L17.00,186.71 M17.00,2.00 L18.00,2.00 M17.00,17.29 L16.29,18.00 M17.00,186.71 L17.29,187.00 M17.00,202.00 L16.00,202.00 M17.29,17.00 L17.00,17.29 M17.29,187.00 L18.00,187.71 M18.00,2.00 L19.00,2.00 M18.00,16.29 L17.29,17.00 M18.00,187.71 L18.30,188.00 M18.00,202.00 L17.00,202.00 M18.30,16.00 L18.00,16.29 M18.30,188.00 L19.00,188.66 M19.00,2.00 L20.00,2.00 M19.00,15.34 L18.30,16.00 M19.00,188.66 L19.37,189.00 M19.00,202.00 L18.00,202.00 M19.37,15.00 L19.00,15.34 M19.37,189.00 L20.00,189.56 M20.00,2.00 L21.00,2.00 M20.00,14.44 L19.37,15.00 M20.00,189.56 L20.51,190.00 M20.00,202.00 L19.00,202.00 M20.51,14.00 L20.00,14.44 M20.51,190.00 L21.00,190.42 M21.00,2.00 L22.00,2.00 M21.00,13.58 L20.51,14.00 M21.00,190.42 L21.71,191.00 M21.00,202.00 L20.00,202.00 M21.71,13.00 L21.00,13.58 M21.71,191.00 L22.00,191.23 M22.00,2.00 L23.00,2.00 M22.00,12.77 L21.71,13.00 M22.00,191.23 L23.00,192.00 M22.00,202.00 L21.00,202.00 M23.00,2.00 L24.00,2.00 M23.00,12.00 L22.00,12.77 M23.00,192.00 L24.00,192.73 M23.00,202.00 L22.00,202.00 M24.00,2.00 L25.00,2.00 M24.00,11.27 L23.00,12.00 M24.00,192.73 L24.38,193.00 M24.00,202.00 L23.00,202.00 M24.38,11.00 L24.00,11.27 M24.38,193.00 L25.00,193.42 M25.00,2.00 L26.00,2.00 M25.00,10.58 L24.38,11.00 M25.00,193.42 L25.87,194.00 M25.00,202.00 L24.00,202.00 M25.87,10.00 L25.00,10.58 M25.87,194.00 L26.00,194.08 M26.00,2.00 L27.00,2.00 M26.00,9.92 L25.87,10.00 M26.00,194.08 L27.00,194.71 M26.00,202.00 L25.00,202.00 M27.00,2.00 L28.00,2.00 M27.00,9.29 L26.00,9.92 M27.00,194.71 L27.49,195.00 M27.00,202.00 L26.00,202.00 M27.49,9.00 L27.00,9.29 M27.49,195.00 L28.00,195.30 M28.00,2.00 L29.00,2.00 M28.00,8.70 L27.49,9.00 M28.00,195.30 L29.00,195.86 M28.00,202.00 L27.00,202.00 M29.00,2.00 L30.00,2.00 M29.00,8.14 L28.00,8.70 M29.00,195.86 L29.25,196.00 M29.00,202.00 L28.00,202.00 M29.25,8.00 L29.00,8.14 M29.25,196.00 L30.00,196.40 M30.00,2.00 L31.00,2.00 M30.00,7.60 L29.25,8.00 M30.00,196.40 L31.00,196.90 M30.00,202.00 L29.00,202.00 M31.00,2.00 L32.00,2.00 M31.00,7.10 L30.00,7.60 M31.00,196.90 L31.21,197.00 M31.00,202.00 L30.00,202.00 M31.21,7.00 L31.00,7.10 M31.21,197.00 L32.00,197.38 M32.00,2.00 L33.00,2.00 M32.00,6.62 L31.21,7.00 M32.00,197.38 L33.00,197.83 M32.00,202.00 L31.00,202.00 M33.00,2.00 L34.00,2.00 M33.00,6.17 L32.00,6.62 M33.00,197.83 L33.41,198.00 M33.00,202.00 L32.00,202.00 M33.41,6.00 L33.00,6.17 M33.41,198.00 L34.00,198.25 M34.00,2.00 L35.00,2.00 M34.00,5.75 L33.41,6.00 M34.00,198.25 L35.00,198.65 M34.00,202.00 L33.00,202.00 M35.00,2.00 L36.00,2.00 M35.00,5.35 L34.00,5.75 M35.00,198.65 L35.94,199.00 M35.00,202.00 L34.00,202.00 M35.94,5.00 L35.00,5.35 M35.94,199.00 L36.00,199.02 M36.00,2.00 L37.00,2.00 M36.00,4.98 L35.94,5.00 M36.00,199.02 L37.00,199.37 M36.00,202.00 L35.00,202.00 M37.00,2.00 L38.00,2.00 M37.00,4.63 L36.00,4.98 M37.00,199.37 L38.00,199.70 M37.00,202.00 L36.00,202.00 M38.00,2.00 L39.00,2.00 M38.00,4.30 L37.00,4.63 M38.00,199.70 L39.00,200.00 M38.00,202.00 L37.00,202.00 M39.00,2.00 L40.00,2.00 M39.00,4.00 L38.00,4.30 M39.00,200.00 L40.00,200.28 M39.00,202.00 L38.00,202.00 M40.00,2.00 L41.00,2.00 M40.00,3.72 L39.00,4.00 M40.00,200.28 L41.00,200.54 M40.00,202.00 L39.00,202.00 M41.00,2.00 L42.00,2.00 M41.00,3.46 L40.00,3.72 M41.00,200.54 L42.00,200.77 M41.00,202.00 L40.00,202.00 M42.00,2.00 L43.00,2.00 M42.00,3.23 L41.00,3.46 M42.00,200.77 L43.00,200.99 M42.00,202.00 L41.00,202.00 M43.00,2.00 L44.00,2.00 M43.00,3.01 L42.00,3.23 M43.00,200.99 L43.05,201.00 M43.00,202.00 L42.00,202.00 M43.05,3.00 L43.00,3.01 M43.05,201.00 L44.00,202.00 M44.00,2.00 L43.05,3.00 M44.00,202.00 L45.00,202.00 M44.00,202.00 L43.00,202.00 M45.00,202.00 L46.00,202.00 M45.00,202.00 L44.00,202.00 M46.00,202.00 L47.00,202.00 M46.00,202.00 L45.00,202.00 M47.00,202.00 L48.00,202.00 M47.00,202.00 L46.00,202.00 M48.00,202.00 L49.00,202.00 M48.00,202.00 L47.00,202.00 M49.00,202.00 L50.00,202.00 M49.00,202.00 L48.00,202.00 M50.00,202.00 L51.00,202.00 M50.00,202.00 L49.00,202.00 M51.00,202.00 L52.00,202.00 M51.00,202.00 L50.00,202.00 M52.00,202.00 L53.00,202.00 M52.00,202.00 L51.00,202.00 M53.00,202.00 L52.00,202.00 M151.00,2.00 L152.00,2.00 M152.00,2.00 L153.00,2.00 M152.00,2.00 L151.00,2.00 M153.00,2.00 L154.00,2.00 M153.00,2.00 L152.00,2.00 M154.00,2.00 L155.00,2.00 M154.00,2.00 L153.00,2.00 M155.00,2.00 L156.00,2.00 M155.00,2.00 L154.00,2.00 M156.00,2.00 L157.00,2.00 M156.00,2.00 L155.00,2.00 M157.00,2.00 L156.00,2.00 M160.95,3.00 L161.00,2.00 M160.95,201.00 L161.00,200.99 M161.00,2.00 L162.00,2.00 M161.00,3.01 L160.95,3.00 M161.00,200.99 L162.00,200.77 M161.00,202.00 L160.95,201.00 M162.00,2.00 L163.00,2.00 M162.00,3.23 L161.00,3.01 M162.00,200.77 L163.00,200.54 M162.00,202.00 L161.00,202.00 M163.00,2.00 L164.00,2.00 M163.00,3.46 L162.00,3.23 M163.00,200.54 L164.00,200.28 M163.00,202.00 L162.00,202.00 M164.00,2.00 L165.00,2.00 M164.00,3.72 L163.00,3.46 M164.00,200.28 L165.00,200.00 M164.00,202.00 L163.00,202.00 M165.00,2.00 L166.00,2.00 M165.00,4.00 L164.00,3.72 M165.00,200.00 L166.00,199.70 M165.00,202.00 L164.00,202.00 M166.00,2.00 L167.00,2.00 M166.00,4.30 L165.00,4.00 M166.00,199.70 L167.00,199.37 M166.00,202.00 L165.00,202.00 M167.00,2.00 L168.00,2.00 M167.00,4.63 L166.00,4.30 M167.00,199.37 L168.00,199.02 M167.00,202.00 L166.00,202.00 M168.00,2.00 L169.00,2.00 M168.00,4.98 L167.00,4.63 M168.00,199.02 L168.06,199.00 M168.00,202.00 L167.00,202.00 M168.06,5.00 L168.00,4.98 M168.06,199.00 L169.00,198.65 M169.00,2.00 L170.00,2.00 M169.00,5.35 L168.06,5.00 M169.00,198.65 L170.00,198.25 M169.00,202.00 L168.00,202.00 M170.00,2.00 L171.00,2.00 M170.00,5.75 L169.00,5.35 M170.00,198.25 L170.59,198.00 M170.00,202.00 L169.00,202.00 M170.59,6.00 L170.00,5.75 M170.59,198.00 L171.00,197.83 M171.00,2.00 L172.00,2.00 M171.00,6.17 L170.59,6.00 M171.00,197.83 L172.00,197.38 M171.00,202.00 L170.00,202.00 M172.00,2.00 L173.00,2.00 M172.00,6.62 L171.00,6.17 M172.00,197.38 L172.79,197.00 M172.00,202.00 L171.00,202.00 M172.79,7.00 L172.00,6.62 M172.79,197.00 L173.00,196.90 M173.00,2.00 L174.00,2.00 M173.00,7.10 L172.79,7.00 M173.00,196.90 L174.00,196.40 M173.00,202.00 L172.00,202.00 M174.00,2.00 L175.00,2.00 M174.00,7.60 L173.00,7.10 M174.00,196.40 L174.75,196.00 M174.00,202.00 L173.00,202.00 M174.75,8.00 L174.00,7.60 M174.75,196.00 L175.00,195.86 M175.00,2.00 L176.00,2.00 M175.00,8.14 L174.75,8.00 M175.00,195.86 L176.00,195.30 M175.00,202.00 L174.00,202.00 M176.00,2.00 L177.00,2.00 M176.00,8.70 L175.00,8.14 M176.00,195.30 L176.51,195.00 M176.00,202.00 L175.00,202.00 M176.51,9.00 L176.00,8.70 M176.51,195.00 L177.00,194.71 M177.00,2.00 L178.00,2.00 M177.00,9.29 L176.51,9.00 M177.00,194.71 L178.00,194.08 M177.00,202.00 L176.00,202.00 M178.00,2.00 L179.00,2.00 M178.00,9.92 L177.00,9.29 M178.00,194.08 L178.13,194.00 M178.00,202.00 L177.00,202.00 M178.13,10.00 L178.00,9.92 M178.13,194.00 L179.00,193.42 M179.00,2.00 L180.00,2.00 M179.00,10.58 L178.13,10.00 M179.00,193.42 L179.62,193.00 M179.00,202.00 L178.00,202.00 M179.62,11.00 L179.00,10.58 M179.62,193.00 L180.00,192.73 M180.00,2.00 L181.00,2.00 M180.00,11.27 L179.62,11.00 M180.00,192.73 L181.00,192.00 M180.00,202.00 L179.00,202.00 M181.00,2.00 L182.00,2.00 M181.00,12.00 L180.00,11.27 M181.00,192.00 L182.00,191.23 M181.00,202.00 L180.00,202.00 M182.00,2.00 L183.00,2.00 M182.00,12.77 L181.00,12.00 M182.00,191.23 L182.29,191.00 M182.00,202.00 L181.00,202.00 M182.29,13.00 L182.00,12.77 M182.29,191.00 L183.00,190.42 M183.00,2.00 L184.00,2.00 M183.00,13.58 L182.29,13.00 M183.00,190.42 L183.49,190.00 M183.00,202.00 L182.00,202.00 M183.49,14.00 L183.00,13.58 M183.49,190.00 L184.00,189.56 M184.00,2.00 L185.00,2.00 M184.00,14.44 L183.49,14.00 M184.00,189.56 L184.63,189.00 M184.00,202.00 L183.00,202.00 M184.63,15.00 L184.00,14.44 M184.63,189.00 L185.00,188.66 M185.00,2.00 L186.00,2.00 M185.00,15.34 L184.63,15.00 M185.00,188.66 L185.70,188.00 M185.00,202.00 L184.00,202.00 M185.70,16.00 L185.00,15.34 M185.70,188.00 L186.00,187.71 M186.00,2.00 L187.00,2.00 M186.00,16.29 L185.70,16.00 M186.00,187.71 L186.71,187.00 M186.00,202.00 L185.00,202.00 M186.71,17.00 L186.00,16.29 M186.71,187.00 L187.00,186.71 M187.00,2.00 L188.00,2.00 M187.00,17.29 L186.71,17.00 M187.00,186.71 L187.71,186.00 M187.00,202.00 L186.00,202.00 M187.71,18.00 L187.00,17.29 M187.71,186.00 L188.00,185.70 M188.00,2.00 L189.00,2.00 M188.00,18.30 L187.71,18.00 M188.00,185.70 L188.66,185.00 M188.00,202.00 L187.00,202.00 M188.66,19.00 L188.00,18.30 M188.66,185.00 L189.00,184.63 M189.00,2.00 L190.00,2.00 M189.00,19.37 L188.66,19.00 M189.00,184.63 L189.56,184.00 M189.00,202.00 L188.00,202.00 M189.56,20.00 L189.00,19.37 M189.56,184.00 L190.00,183.49 M190.00,2.00 L191.00,2.00 M190.00,20.51 L189.56,20.00 M190.00,183.49 L190.42,183.00 M190.00,202.00 L189.00,202.00 M190.42,21.00 L190.00,20.51 M190.42,183.00 L191.00,182.29 M191.00,2.00 L192.00,2.00 M191.00,21.71 L190.42,21.00 M191.00,182.29 L191.23,182.00 M191.00,202.00 L190.00,202.00 M191.23,22.00 L191.00,21.71 M191.23,182.00 L192.00,181.00 M192.00,2.00 L193.00,2.00 M192.00,23.00 L191.23,22.00 M192.00,181.00 L192.73,180.00 M192.00,202.00 L191.00,202.00 M192.73,24.00 L192.00,23.00 M192.73,180.00 L193.00,179.62 M193.00,2.00 L194.00,2.00 M193.00,24.38 L192.73,24.00 M193.00,179.62 L193.42,179.00 M193.00,202.00 L192.00,202.00 M193.42,25.00 L193.00,24.38 M193.42,179.00 L194.00,178.13 M194.00,2.00 L195.00,2.00 M194.00,25.87 L193.42,25.00 M194.00,178.13 L194.08,178.00 M194.00,202.00 L193.00,202.00 M194.08,26.00 L194.00,25.87 M194.08,178.00 L194.71,177.00 M194.71,27.00 L194.08,26.00 M194.71,177.00 L195.00,176.51 M195.00,2.00 L196.00,2.00 M195.00,27.49 L194.71,27.00 M195.00,176.51 L195.30,176.00 M195.00,202.00 L194.00,202.00 M195.30,28.00 L195.00,27.49 M195.30,176.00 L195.86,175.00 M195.86,29.00 L195.30,28.00 M195.86,175.00 L196.00,174.75 M196.00,2.00 L197.00,2.00 M196.00,29.25 L195.86,29.00 M196.00,174.75 L196.40,174.00 M196.00,202.00 L195.00,202.00 M196.40,30.00 L196.00,29.25 M196.40,174.00 L196.90,173.00 M196.90,31.00 L196.40,30.00 M196.90,173.00 L197.00,172.79 M197.00,2.00 L198.00,2.00 M197.00,31.21 L196.90,31.00 M197.00,172.79 L197.38,172.00 M197.00,202.00 L196.00,202.00 M197.38,32.00 L197.00,31.21 M197.38,172.00 L197.83,171.00 M197.83,33.00 L197.38,32.00 M197.83,171.00 L198.00,170.59 M198.00,2.00 L199.00,2.00 M198.00,33.41 L197.83,33.00 M198.00,170.59 L198.25,170.00 M198.00,202.00 L197.00,202.00 M198.25,34.00 L198.00,33.41 M198.25,170.00 L198.65,169.00 M198.65,35.00 L198.25,34.00 M198.65,169.00 L199.00,168.06 M199.00,2.00 L200.00,2.00 M199.00,35.94 L198.65,35.00 M199.00,168.06 L199.02,168.00 M199.00,202.00 L198.00,202.00 M199.02,36.00 L199.00,35.94 M199.02,168.00 L199.37,167.00 M199.37,37.00 L199.02,36.00 M199.37,167.00 L199.70,166.00 M199.70,38.00 L199.37,37.00 M199.70,166.00 L200.00,165.00 M200.00,2.00 L201.00,2.00 M200.00,39.00 L199.70,38.00 M200.00,165.00 L200.28,164.00 M200.00,202.00 L199.00,202.00 M200.28,40.00 L200.00,39.00 M200.28,164.00 L200.54,163.00 M200.54,41.00 L200.28,40.00 M200.54,163.00 L200.77,162.00 M200.77,42.00 L200.54,41.00 M200.77,162.00 L200.99,161.00 M200.99,43.00 L200.77,42.00 M200.99,161.00 L201.00,160.95 M201.00,2.00 L202.00,2.00 M201.00,43.05 L200.99,43.00 M201.00,160.95 L202.00,161.00 M201.00,202.00 L200.00,202.00 M202.00,152.00 L202.00,151.00 M202.00,153.00 L202.00,152.00 M202.00,154.00 L202.00,153.00 M202.00,155.00 L202.00,154.00 M202.00,156.00 L202.00,155.00 M202.00,2.00 L202.00,3.00 M202.00,3.00 L202.00,4.00 M202.00,4.00 L202.00,5.00 M202.00,5.00 L202.00,6.00 M202.00,6.00 L202.00,7.00 M202.00,7.00 L202.00,8.00 M202.00,8.00 L202.00,9.00 M202.00,9.00 L202.00,10.00 M202.00,10.00 L202.00,11.00 M202.00,11.00 L202.00,12.00 M202.00,12.00 L202.00,13.00 M202.00,13.00 L202.00,14.00 M202.00,14.00 L202.00,15.00 M202.00,15.00 L202.00,16.00 M202.00,16.00 L202.00,17.00 M202.00,17.00 L202.00,18.00 M202.00,18.00 L202.00,19.00 M202.00,19.00 L202.00,20.00 M202.00,20.00 L202.00,21.00 M202.00,21.00 L202.00,22.00 M202.00,22.00 L202.00,23.00 M202.00,23.00 L202.00,24.00 M202.00,24.00 L202.00,25.00 M202.00,25.00 L202.00,26.00 M202.00,26.00 L202.00,27.00 M202.00,27.00 L202.00,28.00 M202.00,28.00 L202.00,29.00 M202.00,29.00 L202.00,30.00 M202.00,30.00 L202.00,31.00 M202.00,31.00 L202.00,32.00 M202.00,32.00 L202.00,33.00 M202.00,33.00 L202.00,34.00 M202.00,34.00 L202.00,35.00 M202.00,35.00 L202.00,36.00 M202.00,36.00 L202.00,37.00 M202.00,37.00 L202.00,38.00 M202.00,38.00 L202.00,39.00 M202.00,39.00 L202.00,40.00 M202.00,40.00 L202.00,41.00 M202.00,41.00 L202.00,42.00 M202.00,42.00 L202.00,43.00 M202.00,43.00 L202.00,44.00 M202.00,44.00 L201.00,43.05 M202.00,151.00 L202.00,152.00 M202.00,157.00 L202.00,156.00 M202.00,161.00 L202.00,162.00 M202.00,162.00 L202.00,163.00 M202.00,169.00 L202.00,170.00 M202.00,170.00 L202.00,171.00 M202.00,171.00 L202.00,172.00 M202.00,172.00 L202.00,173.00 M202.00,173.00 L202.00,174.00 M202.00,174.00 L202.00,175.00 M202.00,182.00 L202.00,183.00 M202.00,183.00 L202.00,184.00 M202.00,184.00 L202.00,185.00 M202.00,185.00 L202.00,186.00 M202.00,186.00 L202.00,187.00 M202.00,194.00 L202.00,195.00 M202.00,195.00 L202.00,196.00 M202.00,196.00 L202.00,197.00 M202.00,197.00 L202.00,198.00 M202.00,198.00 L202.00,199.00 M202.00,202.00 L201.00,202.00 M202.00,152.00 L202.00,153.00 M202.00,153.00 L202.00,154.00 M202.00,154.00 L202.00,155.00 M202.00,155.00 L202.00,156.00 M202.00,156.00 L202.00,157.00 M202.00,163.00 L202.00,164.00 M202.00,164.00 L202.00,165.00 M202.00,165.00 L202.00,166.00 M202.00,166.00 L202.00,167.00 M202.00,167.00 L202.00,168.00 M202.00,168.00 L202.00,169.00 M202.00,175.00 L202.00,176.00 M202.00,176.00 L202.00,177.00 M202.00,177.00 L202.00,178.00 M202.00,178.00 L202.00,179.00 M202.00,179.00 L202.00,180.00 M202.00,180.00 L202.00,181.00 M202.00,181.00 L202.00,182.00 M202.00,187.00 L202.00,188.00 M202.00,188.00 L202.00,189.00 M202.00,189.00 L202.00,190.00 M202.00,190.00 L202.00,191.00 M202.00,191.00 L202.00,192.00 M202.00,192.00 L202.00,193.00 M202.00,193.00 L202.00,194.00 M202.00,199.00 L202.00,200.00 M202.00,200.00 L202.00,201.00 M202.00,201.00 L202.00,202.00 "/>

<script>
let paths = Array.from(document.children[0].children).filter(function(c) {
    var orig = c.style.stroke;
    c.onmouseover = function() {
        c.style.stroke = "rgb(0, 0, 255)";
    };
    c.onmouseout = function () {
        c.style.stroke = orig;
    };
});

for (let path of paths) {
    console.log(path);
}
</script></svg>