<svg xmlns="http://www.w3.org/2000/svg">
<path d="M225,125 L225,125 L224.66667,124 L224.33333,123 L224,122 L223.66667,121 L223.33333,120 L223,119 L222.66667,118 L222.33333,117 L222,116 L221.66667,115 L221.33333,114 L221,113 L220.66667,112 L220.33333,111 L220,110 L219.66667,109 L219.33333,108 L219,107 L218.66667,106 L218.33333,105 L218,104 L217.66667,103 L217.33333,102 L217,101 L216.66667,100 L216.33333,99 L216,98 L215.66667,97 L215.33333,96 L215,95 L214.66667,94 L214.33333,93 L214,92 L213.66667,91 L213.33333,90 L213,89 L212.66667,88 L212.33333,87 L212,86 L211.66667,85 L211.33333,84 L211,83 L210.66667,82 L210.33333,81 L210,80 L209.66667,79 L209.33333,78 L209,77 L208.66667,76 L208.33333,75 L208,74 L207.66667,73 L207.33333,72 L207,71 L206.66667,70 L206.33333,69 L206,68 L205.66667,67 L205.33333,66 L205,65 L204.66667,64 L204.33333,63 L204,62 L203.66667,61 L203.33333,60 L203,59 L202.66667,58 L202.33333,57 L202,56 L201.66667,55 L201.33333,54 L201,53 L200.66667,52 L200.33333,51 L200,50 L199,50 L198,50 L197,50 L196,50 L195,50 L194,50 L193,50 L192,50 L191,50 L190,50 L189,50 L188,50 L187,50 L186,50 L185,50 L184,50 L183,50 L182,50 L181,50 L180,50 L179,50 L178,50 L177,50 L176,50 L175,50 L174,50 L173,50 L172,50 L171,50 L170,50 L169,50 L168,50 L167,50 L166,50 L165,50 L164,50 L163,50 L162,50 L161,50 L160,50 L159,50 L158,50 L157,50 L156,50 L155,50 L154,50 L153,50 L152,50 L151,50 L150,50 L149,50 L148,50 L147,50 L146,50 L145,50 L144,50 L143,50 L142,50 L141,50 L140,50 L139,50 L138,50 L137,50 L136,50 L135,50 L134,50 L133,50 L132,50 L131,50 L130,50 L129,50 L128,50 L127,50 L126,50 L125,50 L124,50 L123,50 L122,50 L121,50 L120,50 L119,50 L118,50 L117,50 L116,50 L115,50 L114,50 L113,50 L112,50 L111,50 L110,50 L109,50 L108,50 L107,50 L106,50.60955 L105.83369,51 L105.42295,52 L105.0286,53 L105,53.075314 L104.65106,54 L104.28948,55 L104,55.836437 L103.943726,56 L103.613884,57 L103.299355,58 L103,59 L102.715935,60 L102.446686,61 L102.19209,62 L102,62.79974 L101.95208,63 L101.7266,64 L101.51537,65 L101.318306,66 L101.135284,67 L101,67.79983 L100.96623,68 L100.81107,69 L100.66968,70 L100.541985,71 L100.4279,72 L100.32739,73 L100.240395,74 L100.27128,75 L101,75.5 L102,76 L102,76 L103,76.5 L104,77 L104,77 L105,77.5 L106,78 L106,78 L107,78.5 L108,79 L108,79 L109,79.5 L110,80 L110,80 L111,80.5 L112,81 L112,81 L113,81.5 L114,82 L114,82 L115,82.5 L116,83 L116,83 L117,83.5 L118,84 L118,84 L119,84.5 L120,85 L120,85 L121,85.5 L122,86 L122,86 L123,86.5 L124,87 L124,87 L125,87.5 L126,88 L126,88 L127,88.5 L128,89 L128,89 L129,89.5 L130,90 L130,90 L131,90.5 L132,91 L132,91 L133,91.5 L134,92 L134,92 L135,92.5 L136,93 L136,93 L137,93.5 L138,94 L138,94 L139,94.5 L140,95 L140,95 L141,95.5 L142,96 L142,96 L143,96.5 L144,97 L144,97 L145,97.5 L146,98 L146,98 L147,98.5 L148,99 L148,99 L149,99.5 L150,100 L150,100 L150.99998,101 L151,101.00001 L152,102 L152,102 L153,103 L153,103 L154,104 L154,104 L154.99998,105 L155,105.00001 L155.99998,106 L156,106.00001 L156.99998,107 L157,107.00001 L158,108 L158,108 L159,109 L159,109 L160,110 L160,110 L160.99998,111 L161,111.00001 L161.99998,112 L162,112.00001 L162.99998,113 L163,113.00001 L164,114 L164,114 L165,115 L165,115 L166,116 L166,116 L166.99998,117 L167,117.00001 L167.99998,118 L168,118.00001 L168.99998,119 L169,119.00001 L170,120 L170,120 L171,121 L171,121 L172,122 L172,122 L172.99998,123 L173,123.00001 L173.99998,124 L174,124.00001 L174.99998,125 L175,125.00001 L176,126 L176,126 L177,127 L177,127 L178,128 L178,128 L179,129 L179,129 L180,130 L180,130 L181,131 L181,131 L182,132 L182,132 L183,133 L183,133 L184,134 L184,134 L185,135 L185,135 L186,136 L186,136 L187,137 L187,137 L188,138 L188,138 L189,139 L189,139 L190,140 L190,140 L191,141 L191,141 L192,142 L192,142 L193,143 L193,143 L194,144 L194,144 L195,145 L195,145 L196,146 L196,146 L197,147 L197,147 L198,148 L198,148 L199,149 L199,149 L200,150 L200,150 L201,150.34894 L201.92468,150 L202,149.97139 L203,149.57704 L204,149.16632 L204.39046,149 L205,148.7384 L206,148.29323 L206.63557,148 L207,147.83047 L208,147.3495 L208.70212,147 L209,146.85039 L210,146.33214 L210.62045,146 L211,145.79485 L212,145.23769 L212.41414,145 L213,144.6602 L214,144.06235 L214.10158,144 L215,143.44234 L215.69212,143 L216,142.80089 L217,142.13664 L217.2006,142 L218,141.4485 L218.63309,141 L219,140.73659 L220,140 L220,140 L221,139.23624 L221.30194,139 L222,138.44572 L222.54842,138 L223,137.62729 L223.74309,137 L224,136.77963 L224.88933,136 L225,135.90135 L225.99014,135 L226,134.99088 L227,134.04608 L227.04784,134 L227.66667,133 L227.33333,132 L227,131 L226.66667,130 L226.33333,129 L226,128 L225.66666,127 L225.33333,126 L225,125" fill="none" stroke="black" stroke-width="3"/>
</svg>